<svg width="1046" height="1133" viewBox="0 0 1046 1133" fill="none" xmlns="http://www.w3.org/2000/svg">
<ellipse cx="259.5" cy="675.5" rx="227.5" ry="219.5" fill="#927463" fill-opacity="0.26"/>
<path d="M332.255 216.737C334.854 211.749 339.985 208.619 345.563 208.619L818.311 208.619C823.683 208.619 828.624 211.524 831.254 216.229L914.5 365.133L1014.13 534.818C1015.98 537.969 1016.62 541.7 1015.93 545.308L992.5 667.742L966.161 822.825C964.932 830.063 958.709 835.385 951.427 835.425L596.652 837.365L236.038 835.421C229.001 835.383 222.973 830.403 221.564 823.465L165.011 544.973C164.32 541.569 164.822 538.022 166.431 534.934L332.255 216.737Z" fill="#E3DEDB"/>
<path d="M982.435 816.62H326.553C326.075 816.559 325.756 816.074 325.809 815.528C325.862 815.103 326.181 814.739 326.553 814.679H982.435C982.913 814.739 983.231 815.225 983.178 815.771C983.125 816.195 982.806 816.559 982.435 816.62Z" fill="#927463"/>
<g opacity="0.6">
<path opacity="0.6" d="M982.435 816.62H326.553C326.075 816.559 325.756 816.074 325.809 815.528C325.862 815.103 326.181 814.739 326.553 814.679H982.435C982.913 814.739 983.231 815.225 983.178 815.771C983.125 816.195 982.806 816.559 982.435 816.62Z" fill="white"/>
</g>
<path d="M429.828 732.9C426.269 674.296 422.284 670.413 422.125 670.292L422.391 669.746C422.55 669.867 426.694 672.719 430.359 732.9H429.828Z" fill="#55443A"/>
<path d="M433.547 732.9L433.016 732.839C435.353 690.009 432.803 666.652 432.803 666.409L433.334 666.349C433.334 666.591 435.884 690.009 433.547 732.9Z" fill="#55443A"/>
<path d="M436.734 734.174C433.866 707.481 441.144 687.097 441.25 686.915L441.728 687.157C441.675 687.339 434.45 707.602 437.266 734.113L436.734 734.174Z" fill="#55443A"/>
<path d="M439.709 737.45C438.541 727.925 438.594 718.219 439.922 708.694L440.453 708.815C439.125 718.279 439.072 727.865 440.241 737.329L439.709 737.45Z" fill="#55443A"/>
<path d="M441.356 687.4L443.641 687.157C445.288 686.975 446.881 686.429 448.316 685.519C449.006 685.034 449.75 684.609 450.494 684.306C453.363 682.971 456.55 683.214 459.578 683.032C464.625 682.729 469.513 681.273 474.081 678.785C474.347 678.664 474.559 678.421 474.719 678.179C475.197 677.208 474.294 676.298 473.55 675.752C469.672 673.022 465.688 670.231 461.278 668.897C456.869 667.562 451.875 667.744 448.103 670.717C443.694 674.175 442.1 681.333 441.356 687.4Z" fill="#55443A"/>
<path opacity="0.3" d="M474.772 677.875C474.613 677.815 474.506 677.754 474.4 677.693L473.284 677.026C472.328 676.48 470.947 675.631 469.247 674.66C467.228 673.507 465.156 672.597 462.978 671.93C460.322 671.081 457.613 670.838 454.85 671.202C452.141 671.566 449.538 672.84 447.466 674.842C445.819 676.601 444.491 678.664 443.641 681.03C442.844 683.032 442.312 684.67 441.994 685.823C441.834 686.369 441.675 686.793 441.569 687.157C441.516 687.339 441.462 687.461 441.409 687.643C441.409 687.461 441.462 687.339 441.516 687.157C441.622 686.793 441.728 686.369 441.888 685.823C442.313 684.185 442.844 682.547 443.481 680.969C444.384 678.603 445.659 676.419 447.359 674.66C449.484 672.597 452.141 671.263 454.903 670.959C457.666 670.595 460.428 670.838 463.084 671.687C465.263 672.415 467.334 673.386 469.353 674.539C471.053 675.509 472.434 676.419 473.337 677.026L474.4 677.754C474.506 677.633 474.613 677.754 474.772 677.875Z" fill="black"/>
<path opacity="0.3" d="M469.194 681.273C469.141 681.333 466.112 679.149 462.447 676.298C458.781 673.447 455.806 671.141 455.859 671.02C455.912 670.899 458.941 673.143 462.606 675.995C466.272 678.846 469.247 681.151 469.194 681.273Z" fill="black"/>
<path opacity="0.3" d="M466.006 670.838C465.316 671.141 464.572 671.263 463.828 671.324C463.084 671.445 462.341 671.445 461.597 671.263C462.341 671.141 463.084 671.02 463.828 671.02C464.519 670.838 465.262 670.838 466.006 670.838Z" fill="black"/>
<path opacity="0.3" d="M452.778 668.836C452.512 669.503 452.194 670.11 451.769 670.595C451.397 671.202 450.972 671.748 450.494 672.233C450.759 671.566 451.078 671.02 451.503 670.474C451.875 669.867 452.3 669.321 452.778 668.836Z" fill="black"/>
<path opacity="0.3" d="M455.487 683.275C454.956 683.032 454.478 682.729 454.053 682.365C453.203 681.758 451.981 680.848 450.759 679.817C449.537 678.785 448.369 677.815 447.572 677.087C447.147 676.723 446.722 676.298 446.297 675.873C446.775 676.177 447.253 676.541 447.678 676.905L450.919 679.574C452.194 680.605 453.309 681.515 454.159 682.183C454.584 682.547 455.062 682.911 455.487 683.275Z" fill="black"/>
<path d="M447.572 771.12H424.728L420.478 735.327H451.822L447.572 771.12Z" fill="#DDD3CD"/>
<path d="M454.478 740.787H417.822L417.291 732.9H455.009L454.478 740.787Z" fill="#DDD3CD"/>
<path opacity="0.2" d="M421.169 740.787H451.184L447.572 771.12L443.959 770.817L445.978 743.213L421.381 742.728L421.169 740.787Z" fill="black"/>
<path opacity="0.2" d="M446.669 732.961L445.606 740.787H454.478L455.009 732.9L446.669 732.961Z" fill="black"/>
<g opacity="0.2">
<g opacity="0.2">
<g opacity="0.2">
<path opacity="0.2" d="M449.75 749.765H422.55V750.372H449.75V749.765Z" fill="white"/>
</g>
</g>
</g>
<g opacity="0.2">
<g opacity="0.2">
<g opacity="0.2">
<path opacity="0.2" d="M449.75 752.192H422.55V752.799H449.75V752.192Z" fill="white"/>
</g>
</g>
</g>
<path d="M422.763 669.989C420.584 668.108 418.247 667.683 415.484 667.865C412.722 668.108 410.012 668.897 407.516 670.231C403.212 672.415 399.175 675.57 396.572 680.059C393.969 684.549 393.119 690.494 395.031 695.408C395.191 695.893 395.509 696.379 395.881 696.621C396.359 696.803 396.891 696.743 397.316 696.5C402.203 694.68 407.144 692.86 411.659 689.948C416.175 687.036 420.266 683.093 422.709 677.936C423.347 676.723 423.719 675.327 423.878 673.932C423.984 672.476 423.559 671.02 422.763 669.989Z" fill="#55443A"/>
<path opacity="0.3" d="M422.763 669.382C422.656 669.443 422.55 669.503 422.391 669.564L421.381 669.989L420.638 670.292C420.372 670.413 420.106 670.535 419.788 670.656C419.15 670.959 418.459 671.202 417.663 671.627L416.441 672.233C416.016 672.476 415.591 672.719 415.166 672.961C414.263 673.447 413.359 674.114 412.403 674.721C410.384 676.177 408.419 677.815 406.612 679.635C404.806 681.455 403.159 683.457 401.619 685.58C400.928 686.611 400.291 687.521 399.706 688.492C399.441 688.977 399.122 689.402 398.909 689.827C398.697 690.251 398.431 690.676 398.219 691.101C397.741 691.889 397.422 692.678 397.103 693.345C396.944 693.709 396.784 694.013 396.678 694.255L396.359 695.044C396.147 695.529 395.988 695.893 395.881 696.136C395.828 696.257 395.775 696.379 395.669 696.5C395.722 696.379 395.722 696.197 395.775 696.075C395.881 695.772 396.041 695.408 396.2 694.923L396.519 694.073C396.625 693.77 396.784 693.467 396.944 693.103C397.263 692.435 397.581 691.647 398.059 690.797L398.75 689.523C399.016 689.099 399.281 688.613 399.547 688.189C400.078 687.218 400.769 686.247 401.406 685.277C404.434 680.969 408.153 677.269 412.297 674.357C413.253 673.689 414.156 673.083 415.059 672.597C415.484 672.355 415.909 672.112 416.334 671.869L417.556 671.263C418.353 670.838 419.044 670.595 419.681 670.292C420 670.171 420.266 670.049 420.584 669.928L421.328 669.685L422.391 669.321C422.497 669.443 422.656 669.443 422.763 669.382Z" fill="black"/>
<path opacity="0.3" d="M405.603 679.999C403.85 680.787 402.044 681.394 400.237 681.94C398.431 682.607 396.625 683.153 394.819 683.578C396.572 682.789 398.378 682.183 400.184 681.637C403.159 680.666 405.603 679.938 405.603 679.999Z" fill="black"/>
<path opacity="0.3" d="M405.391 693.467C405.284 692.86 405.231 692.193 405.284 691.586C405.284 690.433 405.231 688.795 405.284 686.975C405.338 685.155 405.391 683.578 405.497 682.365C405.497 681.697 405.604 681.091 405.71 680.484C405.763 681.091 405.763 681.758 405.71 682.365C405.657 683.639 405.657 685.216 405.604 686.975C405.55 688.735 405.55 690.251 405.497 691.586C405.497 692.253 405.444 692.86 405.391 693.467Z" fill="black"/>
<path opacity="0.3" d="M415.484 687.643C415.378 687.643 415.112 684.367 414.9 680.241C414.687 676.116 414.528 672.84 414.634 672.84C414.741 672.84 415.006 676.116 415.219 680.241C415.431 684.367 415.591 687.582 415.484 687.643Z" fill="black"/>
<path opacity="0.3" d="M402.894 672.537C403.478 672.476 404.062 672.415 404.594 672.476C405.656 672.476 407.091 672.537 408.738 672.597C410.384 672.658 411.819 672.719 412.881 672.779C413.466 672.779 414.05 672.84 414.581 672.962C413.997 673.022 413.413 673.083 412.881 673.022C411.819 673.022 410.384 672.962 408.738 672.901C407.091 672.84 405.656 672.779 404.594 672.719C404.062 672.719 403.478 672.658 402.894 672.537Z" fill="black"/>
<path d="M418.3 657.249L415.484 663.133C415.431 663.255 415.325 663.437 415.219 663.437C415.113 663.437 414.953 663.315 414.9 663.133L407.409 649.969L409.109 648.877L418.3 657.249Z" fill="#55443A"/>
<path opacity="0.2" d="M418.3 657.249L415.484 663.133C415.431 663.255 415.325 663.437 415.219 663.437C415.113 663.437 414.953 663.315 414.9 663.133L407.409 649.969L409.109 648.877L418.3 657.249Z" fill="black"/>
<path d="M433.547 667.805L407.994 650.575C407.728 650.454 407.516 650.151 407.356 649.847C407.25 649.423 407.516 648.998 407.834 648.695C411.394 644.448 416.387 642.264 421.487 642.567C426.641 642.992 431.262 646.268 433.866 651.364C436.256 656.339 436.362 663.012 433.547 667.805Z" fill="#55443A"/>
<path opacity="0.3" d="M411.659 645.055C411.766 644.994 411.872 644.994 411.978 644.994C412.191 644.994 412.509 644.933 412.934 644.933C414.103 644.933 415.325 644.994 416.494 645.237C424.463 646.753 430.891 653.427 433.016 662.345C433.334 663.679 433.547 665.014 433.653 666.349C433.706 666.652 433.706 666.895 433.706 667.198C433.706 667.441 433.6 667.623 433.494 667.805C433.547 667.319 433.6 666.834 433.547 666.349C432.484 655.853 425.525 647.36 416.441 645.479C415.272 645.237 414.103 645.055 412.934 645.055C412.084 645.115 411.659 645.115 411.659 645.055Z" fill="black"/>
<path opacity="0.3" d="M430.041 655.914C429.616 656.217 429.191 656.399 428.766 656.581C427.969 656.945 426.8 657.431 425.525 657.855C424.25 658.28 423.081 658.705 422.231 658.947C421.753 659.129 421.328 659.19 420.85 659.251C421.275 659.008 421.7 658.826 422.178 658.705L425.419 657.552L428.659 656.339C429.137 656.096 429.616 655.975 430.041 655.914Z" fill="black"/>
<path opacity="0.3" d="M426.056 643.538C426.269 644.63 426.375 645.722 426.375 646.814C426.428 647.906 426.375 648.998 426.215 650.09C426.109 650.09 426.109 648.634 426.056 646.814C425.95 645.722 425.95 644.63 426.056 643.538Z" fill="black"/>
<path opacity="0.3" d="M407.728 650.272C408.312 649.969 408.95 649.726 409.587 649.544C410.756 649.119 412.35 648.634 414.156 648.149C415.963 647.663 417.609 647.239 418.831 647.057C419.469 646.875 420.106 646.814 420.797 646.753C420.159 646.996 419.522 647.178 418.884 647.299C417.716 647.603 416.069 648.027 414.263 648.513C412.456 648.998 410.863 649.483 409.694 649.847C409.003 649.969 408.366 650.151 407.728 650.272Z" fill="black"/>
<path d="M444.225 700.443C442.047 699.776 439.391 702.203 438.966 704.751C438.541 707.299 439.337 709.907 440.347 712.273C442.525 717.491 445.5 722.283 449.431 725.863C453.362 729.442 458.303 731.747 463.35 731.747C462.394 726.833 463.616 721.677 463.084 716.641C462.128 707.541 455.806 700.383 447.837 699.412C446.403 699.169 444.756 698.927 444.225 700.443Z" fill="#55443A"/>
<path opacity="0.3" d="M463.297 731.687C463.191 731.626 463.084 731.565 462.978 731.505C462.713 731.323 462.394 731.141 462.181 730.898C461.278 729.988 460.534 728.835 460.003 727.561C459.631 726.773 459.259 725.923 458.888 725.013C458.516 724.103 458.144 723.072 457.719 722.041C457.294 720.949 456.816 719.857 456.284 718.825C455.7 717.733 455.009 716.702 454.266 715.731C452.778 713.729 451.131 711.97 449.75 710.271C448.475 708.815 447.306 707.238 446.297 705.539C445.606 704.387 445.022 703.173 444.597 701.839C444.491 701.475 444.384 701.111 444.331 700.747C444.278 700.625 444.278 700.504 444.278 700.383C444.278 700.383 444.438 700.868 444.756 701.778C445.234 703.052 445.819 704.265 446.509 705.357C447.572 706.995 448.741 708.573 449.963 710.029C451.344 711.667 452.991 713.426 454.531 715.489C455.275 716.459 455.966 717.551 456.55 718.643C457.081 719.675 457.559 720.767 457.984 721.859C458.409 722.89 458.781 723.921 459.153 724.831C459.525 725.741 459.897 726.651 460.216 727.379C460.694 728.653 461.384 729.745 462.288 730.716C462.872 731.444 463.297 731.687 463.297 731.687Z" fill="black"/>
<path opacity="0.3" d="M451.928 727.622C451.928 727.076 451.981 726.469 452.141 725.923C452.3 724.892 452.619 723.497 452.991 721.919C453.362 720.342 453.787 719.007 454.106 717.976C454.266 717.43 454.478 716.884 454.691 716.399C454.584 716.945 454.478 717.491 454.266 718.037C454 719.068 453.628 720.403 453.256 721.98C452.884 723.557 452.566 724.953 452.353 725.923C452.247 726.53 452.087 727.076 451.928 727.622Z" fill="black"/>
<path opacity="0.3" d="M462.872 715.489C462.341 715.428 461.809 715.246 461.331 715.064C460.375 714.761 459.1 714.397 457.612 714.033C456.125 713.669 454.85 713.365 453.841 713.183C453.309 713.123 452.778 713.001 452.3 712.819C452.831 712.819 453.362 712.819 453.894 712.941C454.85 713.062 456.231 713.365 457.666 713.729C459.1 714.093 460.428 714.518 461.384 714.882C461.916 715.003 462.447 715.185 462.872 715.489Z" fill="black"/>
<path opacity="0.3" d="M443.747 719.007C443.747 718.34 443.853 717.673 443.959 717.066C444.172 715.853 444.491 714.215 444.862 712.395C445.234 710.575 445.712 708.997 446.031 707.845C446.191 707.238 446.403 706.631 446.669 706.025C446.562 706.692 446.403 707.299 446.244 707.966C445.978 709.119 445.553 710.757 445.128 712.516C444.703 714.275 444.384 715.913 444.119 717.127C444.119 717.794 443.959 718.401 443.747 719.007Z" fill="black"/>
<path opacity="0.3" d="M457.825 704.933C457.825 705.054 455.062 704.751 451.716 704.387C449.644 704.205 447.625 703.901 445.606 703.477C447.678 703.537 449.697 703.719 451.716 704.023C453.787 704.205 455.806 704.508 457.825 704.933Z" fill="black"/>
<path d="M433.334 675.57C433.122 673.265 431.103 671.566 429.084 671.505C427.066 671.445 425.206 672.84 423.984 674.66C422.762 676.48 422.072 678.725 421.541 680.909C420.212 686.308 419.416 691.95 420 697.531C420.584 703.113 422.55 708.573 426.056 712.516C426.641 713.123 427.384 713.79 428.128 713.608C428.553 713.487 428.925 713.183 429.244 712.819C436.203 705.6 440.028 695.287 439.816 684.549C439.762 682.425 439.497 680.241 438.487 678.482C437.478 676.723 435.087 674.842 433.334 675.57Z" fill="#55443A"/>
<path opacity="0.3" d="M427.172 713.305C427.172 713.183 427.119 713.062 427.119 712.941C427.119 712.637 427.119 712.273 427.066 711.849C427.012 710.878 427.012 709.483 427.066 707.723C427.119 705.964 427.172 703.901 427.384 701.596C427.597 699.291 427.862 696.743 428.287 694.134C428.712 691.525 429.244 689.038 429.722 686.793C430.2 684.549 430.784 682.547 431.316 680.909C431.847 679.271 432.272 677.936 432.591 677.026C432.75 676.601 432.856 676.237 432.963 675.995C433.016 675.873 433.069 675.752 433.122 675.631C433.122 675.752 433.069 675.873 433.016 675.995L432.75 677.087C432.431 677.997 432.006 679.331 431.581 680.969C431.156 682.607 430.572 684.609 430.041 686.854C429.509 689.099 429.031 691.525 428.606 694.195C428.181 696.864 427.916 699.291 427.703 701.596C427.491 703.901 427.384 705.964 427.331 707.663C427.278 709.361 427.225 710.817 427.225 711.788C427.225 712.273 427.225 712.637 427.225 712.941C427.225 713.062 427.225 713.183 427.172 713.305Z" fill="black"/>
<path opacity="0.3" d="M428.5 694.195C428.181 694.68 427.863 695.105 427.491 695.469C426.853 696.197 425.897 697.228 424.834 698.32C423.772 699.412 422.762 700.322 422.019 700.989C421.647 701.353 421.222 701.717 420.797 701.96C421.116 701.535 421.488 701.111 421.913 700.807L424.675 698.077L427.384 695.347C427.756 694.923 428.128 694.559 428.5 694.195Z" fill="black"/>
<path opacity="0.3" d="M436.628 701.657C436.256 701.111 435.884 700.565 435.566 699.958L433.016 695.772L430.413 691.586C430.041 691.04 429.669 690.433 429.403 689.827C429.828 690.312 430.253 690.858 430.625 691.465C431.316 692.496 432.272 693.952 433.281 695.59C434.291 697.228 435.141 698.745 435.725 699.837C436.097 700.383 436.363 700.989 436.628 701.657Z" fill="black"/>
<path opacity="0.3" d="M432.378 678.239C432.431 678.3 429.722 680.363 426.375 682.85C423.028 685.337 420.266 687.279 420.212 687.157C420.159 687.036 422.869 685.034 426.216 682.547C429.563 680.059 432.325 678.179 432.378 678.239Z" fill="black"/>
<path opacity="0.3" d="M439.975 687.582C437.213 684.791 434.556 681.879 432.059 678.725C433.494 680.059 434.822 681.515 436.097 683.032C437.478 684.488 438.753 686.005 439.975 687.582Z" fill="black"/>
<path d="M453.256 752.01V770.817H436.787V752.01H435.194V770.817H418.725V752.01H417.131V815.71H418.725V776.277H435.194V815.71H436.787V776.277H453.256V815.71H454.85V776.277V770.817V752.01H453.256Z" fill="#55443A"/>
<path opacity="0.2" d="M453.256 752.01V770.817H436.787V752.01H435.194V770.817H418.725V752.01H417.131V815.71H418.725V776.277H435.194V815.71H436.787V776.277H453.256V815.71H454.85V776.277V770.817V752.01H453.256Z" fill="black"/>
<g opacity="0.1">
<g opacity="0.1">
<g opacity="0.1">
<g opacity="0.1">
<g opacity="0.1">
<g opacity="0.1">
<path opacity="0.1" d="M472.381 448.98H446.456V479.617H472.381V448.98Z" fill="black"/>
</g>
</g>
</g>
</g>
</g>
</g>
<path d="M610.347 402.449H408.844V571.223H610.347V402.449Z" fill="#55443A"/>
<path opacity="0.4" d="M610.347 402.449H408.844V571.223H610.347V402.449Z" fill="white"/>
<path d="M613.375 402.449H610.347V571.223H613.375V402.449Z" fill="#55443A"/>
<path opacity="0.2" d="M613.375 402.449H610.347V571.223H613.375V402.449Z" fill="white"/>
<path d="M605.3 409.183H414.581V565.278H605.3V409.183Z" fill="#55443A"/>
<path opacity="0.9" d="M605.3 409.183H414.581V565.278H605.3V409.183Z" fill="white"/>
<path d="M416.813 409.183H414.475V565.278H416.813V409.183Z" fill="#55443A"/>
<path opacity="0.2" d="M416.494 409.183H414.156V565.278H416.494V409.183Z" fill="white"/>
<path d="M462.659 461.235H433.972V491.871H462.659V461.235Z" fill="white"/>
<path d="M458.462 470.941H437.531C437.319 470.941 437.106 471.123 437.106 471.427C437.106 471.669 437.266 471.912 437.531 471.912H458.462C458.675 471.912 458.887 471.73 458.887 471.487C458.887 471.184 458.728 471.002 458.462 470.941C458.462 471.002 458.462 470.941 458.462 470.941Z" fill="#55443A"/>
<path d="M458.462 475.795H437.531C437.319 475.795 437.106 475.977 437.106 476.28C437.106 476.523 437.266 476.765 437.531 476.765H458.462C458.675 476.765 458.887 476.583 458.887 476.28C458.887 476.037 458.675 475.795 458.462 475.795Z" fill="#55443A"/>
<path d="M458.462 480.587H437.531C437.319 480.587 437.106 480.769 437.106 481.073C437.106 481.315 437.266 481.558 437.531 481.558H458.462C458.675 481.558 458.887 481.376 458.887 481.133C458.887 480.83 458.728 480.587 458.462 480.587Z" fill="#55443A"/>
<path d="M455.647 485.441H439.709C439.497 485.441 439.284 485.623 439.284 485.926C439.284 486.169 439.444 486.411 439.709 486.411H455.647C455.859 486.411 456.019 486.229 456.072 485.926C456.072 485.683 455.859 485.441 455.647 485.441Z" fill="#55443A"/>
<path d="M448.741 464.935C448.741 465.239 448.634 465.603 448.422 465.845C448.209 466.088 447.944 466.209 447.625 466.209C447.466 466.209 447.359 466.149 447.2 466.088C447.094 466.027 446.934 465.906 446.881 465.785C446.775 465.663 446.722 465.542 446.669 465.36C446.616 465.239 446.616 465.057 446.616 464.875C446.616 464.207 447.094 463.661 447.625 463.661C447.625 463.661 447.625 463.661 447.678 463.661C448.263 463.783 448.741 464.268 448.741 464.935Z" fill="#55443A"/>
<path opacity="0.1" d="M502.184 506.856H473.497V552.599H502.184V506.856Z" fill="black"/>
<path d="M500.803 503.701H472.116V549.444H500.803V503.701Z" fill="white"/>
<path d="M496.606 513.469H475.675C475.462 513.469 475.25 513.651 475.25 513.954C475.25 514.197 475.409 514.439 475.675 514.439H496.606C496.819 514.439 497.031 514.257 497.031 514.015C497.031 513.711 496.819 513.469 496.606 513.469Z" fill="#55443A"/>
<path d="M496.606 542.892H475.675C475.462 542.892 475.25 543.074 475.25 543.377C475.25 543.62 475.409 543.863 475.675 543.863H496.606C496.819 543.863 497.031 543.681 497.031 543.377C497.031 543.074 496.819 542.892 496.606 542.892Z" fill="#55443A"/>
<path d="M496.606 518.322H475.675C475.462 518.322 475.25 518.504 475.25 518.807C475.25 519.05 475.409 519.293 475.675 519.293H496.606C496.819 519.293 497.031 519.111 497.031 518.807C497.031 518.565 496.819 518.322 496.606 518.322Z" fill="#55443A"/>
<path d="M496.606 523.115H475.675C475.462 523.115 475.303 523.297 475.25 523.6C475.25 523.843 475.409 524.025 475.675 524.085H496.606C496.819 524.085 497.031 523.903 497.031 523.661C497.031 523.357 496.872 523.115 496.606 523.115Z" fill="#55443A"/>
<path d="M496.606 533.064H475.675C475.462 533.064 475.303 533.246 475.25 533.549C475.25 533.792 475.409 534.035 475.675 534.035H496.606C496.819 534.035 497.031 533.853 497.031 533.61C497.031 533.246 496.819 533.064 496.606 533.064Z" fill="#55443A"/>
<path d="M496.606 537.857H475.675C475.462 537.857 475.25 538.039 475.25 538.342C475.25 538.585 475.409 538.827 475.675 538.827H496.606C496.819 538.827 497.031 538.645 497.031 538.342C497.031 538.039 496.819 537.857 496.606 537.857C496.606 537.796 496.606 537.796 496.606 537.857Z" fill="#55443A"/>
<path d="M493.791 527.968H477.853C477.641 527.968 477.428 528.15 477.428 528.453C477.428 528.696 477.588 528.939 477.853 528.939H493.791C494.003 528.939 494.216 528.757 494.216 528.453C494.216 528.211 494.003 527.968 493.791 527.968Z" fill="#55443A"/>
<path d="M486.937 507.463C486.991 508.13 486.512 508.676 485.928 508.737C485.609 508.737 485.291 508.615 485.078 508.373C484.972 508.251 484.919 508.13 484.866 507.948C484.813 507.827 484.812 507.645 484.812 507.463C484.812 507.159 484.919 506.856 485.131 506.613C485.344 506.371 485.609 506.249 485.875 506.249C486.406 506.31 486.884 506.795 486.937 507.463Z" fill="#55443A"/>
<path opacity="0.1" d="M488.319 430.113C488.319 430.113 511.322 425.259 517.112 431.811C522.903 438.363 520.831 467.241 520.831 467.241H488.319V430.113Z" fill="black"/>
<path d="M484.6 424.835C484.6 424.835 503.991 421.68 509.728 428.232C515.466 434.784 517.059 461.963 517.059 461.963H484.6V424.835Z" fill="#DDD3CD"/>
<path opacity="0.4" d="M484.6 424.835C484.6 424.835 503.991 421.68 509.728 428.232C515.466 434.784 517.059 461.963 517.059 461.963H484.6V424.835Z" fill="white"/>
<path d="M501.972 428.232C501.919 428.899 501.441 429.445 500.803 429.445C500.538 429.445 500.219 429.324 500.006 429.081C499.794 428.839 499.688 428.535 499.688 428.171C499.688 427.989 499.688 427.807 499.741 427.686C499.794 427.504 499.847 427.383 499.953 427.261C500.059 427.14 500.166 427.019 500.325 426.958C500.484 426.897 500.591 426.837 500.75 426.837C501.069 426.837 501.334 426.958 501.547 427.201C501.866 427.504 501.972 427.868 501.972 428.232Z" fill="white"/>
<path d="M510.472 434.541H491.612C490.869 434.481 490.284 435.148 490.231 435.937C490.178 436.786 490.763 437.453 491.453 437.514C491.506 437.514 491.559 437.514 491.612 437.514H510.472C511.216 437.575 511.8 436.907 511.853 436.119C511.906 435.269 511.322 434.602 510.631 434.541C510.578 434.541 510.525 434.541 510.472 434.541Z" fill="white"/>
<path d="M511.375 442.003H490.656C490.444 442.003 490.231 442.125 490.231 442.367C490.231 442.61 490.337 442.853 490.55 442.853C490.603 442.853 490.603 442.853 490.656 442.853H511.375C511.587 442.853 511.8 442.731 511.8 442.489C511.8 442.246 511.694 442.003 511.481 442.003C511.428 442.003 511.428 442.003 511.375 442.003Z" fill="white"/>
<path d="M511.375 447.342H490.656C490.444 447.342 490.231 447.463 490.231 447.706C490.231 447.949 490.337 448.191 490.55 448.191C490.603 448.191 490.603 448.191 490.656 448.191H511.375C511.587 448.191 511.8 448.07 511.8 447.827C511.8 447.585 511.694 447.342 511.481 447.342C511.428 447.342 511.428 447.342 511.375 447.342Z" fill="white"/>
<path d="M511.375 452.741H490.656C490.444 452.741 490.231 452.863 490.231 453.105C490.231 453.348 490.337 453.591 490.55 453.591C490.603 453.591 490.603 453.591 490.656 453.591H511.375C511.587 453.591 511.8 453.469 511.8 453.227C511.8 452.984 511.694 452.741 511.481 452.741C511.428 452.741 511.428 452.741 511.375 452.741Z" fill="white"/>
<path opacity="0.1" d="M588.247 430.537H554.778V481.437H588.247V430.537Z" fill="black"/>
<path d="M584.581 425.805H551.113V476.705H584.581V425.805Z" fill="white"/>
<path d="M569.281 431.023C569.281 431.933 568.591 432.721 567.794 432.721C566.997 432.661 566.359 431.933 566.359 431.023C566.359 430.598 566.519 430.173 566.784 429.87C567.05 429.567 567.422 429.385 567.794 429.385C568.591 429.385 569.228 430.113 569.281 431.023Z" fill="#55443A"/>
<path d="M576.666 439.152H555.947C555.734 439.152 555.522 439.273 555.522 439.516C555.522 439.759 555.628 440.001 555.841 440.001C555.894 440.001 555.894 440.001 555.947 440.001H576.666C576.878 440.001 577.091 439.88 577.091 439.637C577.091 439.395 576.984 439.152 576.772 439.152C576.719 439.091 576.719 439.091 576.666 439.152Z" fill="#55443A"/>
<path d="M576.666 444.491H555.947C555.734 444.491 555.522 444.612 555.522 444.855C555.522 445.097 555.628 445.34 555.841 445.34C555.894 445.34 555.894 445.34 555.947 445.34H576.666C576.878 445.34 577.091 445.219 577.091 444.976C577.091 444.733 576.984 444.491 576.772 444.491C576.719 444.491 576.719 444.491 576.666 444.491Z" fill="#55443A"/>
<path d="M576.666 455.532H555.947C555.734 455.532 555.522 455.653 555.522 455.896C555.522 456.139 555.628 456.381 555.841 456.381C555.894 456.381 555.894 456.381 555.947 456.381H576.666C576.878 456.381 577.091 456.26 577.091 456.017C577.091 455.775 576.984 455.532 576.772 455.532C576.719 455.532 576.719 455.532 576.666 455.532Z" fill="#55443A"/>
<path d="M577.144 467.059H556.425C556.212 467.059 556.053 467.241 556.053 467.483C556.053 467.726 556.212 467.908 556.425 467.908H577.144C577.356 467.908 577.516 467.726 577.516 467.483C577.516 467.241 577.356 467.059 577.144 467.059Z" fill="#55443A"/>
<path d="M573.797 449.89H555.947C555.734 449.89 555.575 450.072 555.575 450.315C555.575 450.557 555.734 450.739 555.947 450.739H573.797C574.009 450.739 574.169 450.557 574.169 450.315C574.169 450.072 574.009 449.89 573.797 449.89Z" fill="#55443A"/>
<path d="M573.797 460.871H555.947C555.734 460.871 555.575 461.053 555.575 461.295C555.575 461.538 555.734 461.72 555.947 461.72H573.797C574.009 461.72 574.169 461.538 574.169 461.295C574.169 461.113 574.009 460.871 573.797 460.871Z" fill="#55443A"/>
<path d="M815.144 483.863C820.573 483.863 824.972 478.838 824.972 472.64C824.972 466.442 820.573 461.417 815.144 461.417C809.714 461.417 805.316 466.442 805.316 472.64C805.316 478.838 809.714 483.863 815.144 483.863Z" fill="#55443A"/>
<path opacity="0.5" d="M815.144 483.863C820.573 483.863 824.972 478.838 824.972 472.64C824.972 466.442 820.573 461.417 815.144 461.417C809.714 461.417 805.316 466.442 805.316 472.64C805.316 478.838 809.714 483.863 815.144 483.863Z" fill="white"/>
<path fill-rule="evenodd" clip-rule="evenodd" d="M826.353 451.407C821.944 449.344 821.359 442.064 821.359 442.064H810.203C810.203 442.064 809.672 449.344 805.209 451.407C803.031 452.377 798.197 453.591 793.628 455.714C787.413 458.626 783.375 465.542 783.375 473.247V473.307H848.188V473.247C848.188 465.603 844.15 458.687 837.934 455.714C833.366 453.591 828.478 452.377 826.353 451.407Z" fill="#DDD3CD"/>
<path d="M820.191 440.365H811.425V442.125H820.191V440.365Z" fill="#DDD3CD"/>
<path d="M818.809 436.847H812.806V440.365H818.809V436.847Z" fill="#DDD3CD"/>
<path d="M820.191 440.365H811.425V442.125H820.191V440.365Z" fill="#DDD3CD"/>
<path d="M818.809 436.847H812.806V440.365H818.809V436.847Z" fill="#DDD3CD"/>
<path fill-rule="evenodd" clip-rule="evenodd" d="M816.312 436.847H815.25V298.223L816.312 298.345V436.847Z" fill="#DDD3CD"/>
<path opacity="0.2" d="M820.191 440.365H811.425V442.125H820.191V440.365Z" fill="black"/>
<path opacity="0.2" d="M818.809 436.847H812.806V440.365H818.809V436.847Z" fill="black"/>
<path opacity="0.2" d="M820.191 440.365H811.425V442.125H820.191V440.365Z" fill="black"/>
<path opacity="0.2" d="M818.809 436.847H812.806V440.365H818.809V436.847Z" fill="black"/>
<path opacity="0.2" fill-rule="evenodd" clip-rule="evenodd" d="M816.312 436.847H815.25V298.223L816.312 298.345V436.847Z" fill="black"/>
<path opacity="0.2" fill-rule="evenodd" clip-rule="evenodd" d="M848.187 473.247C848.187 465.603 844.15 458.687 837.934 455.714C833.366 453.53 828.478 452.377 826.353 451.407C821.944 449.344 821.359 442.064 821.359 442.064H818.969L818.756 442.125C818.756 442.125 818.013 451.103 824.919 454.865C827.947 456.503 833.844 459.536 835.916 462.448C837.828 465.178 838.094 468.757 838.094 473.368H848.134V473.247H848.187Z" fill="black"/>
<path d="M699.756 622.487H924.794C929.044 622.487 932.55 626.43 932.55 631.344V803.091C932.55 807.945 929.097 811.949 924.794 811.949H699.756C695.506 811.949 692 808.005 692 803.091V631.344C692.053 626.43 695.506 622.487 699.756 622.487Z" fill="#927463"/>
<path d="M682.332 797.874H942.856V803.637C942.856 809.583 938.606 814.436 933.4 814.436H691.788C686.582 814.436 682.332 809.583 682.332 803.637V797.874Z" fill="#927463"/>
<path d="M925.75 630.009H698.853V789.987H925.75V630.009Z" fill="white"/>
<g opacity="0.3">
<path opacity="0.3" d="M932.55 798.542C932.55 798.663 878.734 798.724 812.328 798.724C745.922 798.724 692.053 798.663 692.053 798.542C692.053 798.42 745.869 798.42 812.328 798.42C878.787 798.42 932.55 798.481 932.55 798.542Z" fill="black"/>
</g>
<path opacity="0.3" d="M786.828 799.027H838.359L835.65 803.273H789.644L786.828 799.027Z" fill="white"/>
<path d="M925.75 629.949H698.694V636.076H925.75V629.949Z" fill="#DDD3CD"/>
<path d="M703.9 633.043C703.9 633.71 703.475 634.256 702.891 634.317C702.306 634.317 701.828 633.831 701.775 633.164C701.775 632.497 702.2 631.951 702.784 631.89H702.838C703.369 631.829 703.847 632.375 703.9 633.043C703.9 632.982 703.9 633.043 703.9 633.043Z" fill="#55443A"/>
<path d="M708.15 633.043C708.15 633.71 707.725 634.256 707.141 634.317C706.556 634.317 706.078 633.831 706.025 633.164C706.025 632.497 706.45 631.951 707.034 631.89H707.088C707.672 631.829 708.15 632.375 708.15 633.043C708.15 632.982 708.15 633.043 708.15 633.043Z" fill="white"/>
<path d="M712.453 633.043C712.453 633.71 712.028 634.256 711.444 634.317C710.859 634.317 710.381 633.831 710.328 633.164C710.328 632.497 710.753 631.951 711.338 631.89H711.391C711.975 631.829 712.4 632.375 712.453 633.043C712.453 632.982 712.453 633.043 712.453 633.043Z" fill="#927463"/>
<path d="M925.644 636.076H921.766V789.927H925.644V636.076Z" fill="#927463"/>
<path opacity="0.7" d="M925.644 636.076H921.766V789.927H925.644V636.076Z" fill="white"/>
<path d="M923.731 689.402C923.2 689.402 922.722 688.856 922.722 688.249V638.139C922.722 637.532 923.147 636.986 923.731 636.986C924.262 636.986 924.741 637.471 924.741 638.139V688.249C924.741 688.917 924.262 689.402 923.731 689.402Z" fill="#DDD3CD"/>
<path d="M874.431 777.187H750.119V768.026H874.431V777.187ZM750.597 776.641H873.953V768.572H750.597V776.641Z" fill="#55443A"/>
<path d="M754.634 769.907H751.819V775.245H754.634V769.907Z" fill="#55443A"/>
<path d="M758.406 769.907H755.59V775.245H758.406V769.907Z" fill="#55443A"/>
<path d="M762.231 769.907H759.416V775.245H762.231V769.907Z" fill="#55443A"/>
<path d="M766.056 769.907H763.241V775.245H766.056V769.907Z" fill="#55443A"/>
<path d="M769.881 769.907H767.066V775.245H769.881V769.907Z" fill="#55443A"/>
<path d="M773.706 769.907H770.891V775.245H773.706V769.907Z" fill="#55443A"/>
<path d="M777.478 769.907H774.662V775.245H777.478V769.907Z" fill="#55443A"/>
<path d="M781.303 769.907H778.488V775.245H781.303V769.907Z" fill="#55443A"/>
<path d="M785.128 769.907H782.313V775.245H785.128V769.907Z" fill="#55443A"/>
<path d="M788.953 769.907H786.137V775.245H788.953V769.907Z" fill="#55443A"/>
<path d="M792.778 769.907H789.963V775.245H792.778V769.907Z" fill="#55443A"/>
<path d="M796.55 769.907H793.734V775.245H796.55V769.907Z" fill="#55443A"/>
<path d="M800.375 769.907H797.559V775.245H800.375V769.907Z" fill="#55443A"/>
<path d="M804.2 769.907H801.384V775.245H804.2V769.907Z" fill="#55443A"/>
<path d="M808.025 769.907H805.209V775.245H808.025V769.907Z" fill="#55443A"/>
<path d="M811.85 769.907H809.034V775.245H811.85V769.907Z" fill="#55443A"/>
<path d="M815.622 769.907H812.806V775.245H815.622V769.907Z" fill="#55443A"/>
<path d="M819.447 769.907H816.631V775.245H819.447V769.907Z" fill="#55443A"/>
<path d="M823.272 769.907H820.456V775.245H823.272V769.907Z" fill="#55443A"/>
<path d="M796.284 706.389L795.222 701.839C795.169 701.657 795.063 701.535 794.903 701.535H781.941C781.728 701.535 781.622 701.717 781.622 701.899V755.407C781.622 755.65 781.781 755.771 781.941 755.771H847.869C848.081 755.771 848.188 755.589 848.188 755.407V706.995C848.188 706.813 848.028 706.631 847.869 706.631H796.603C796.444 706.692 796.338 706.571 796.284 706.389Z" fill="#55443A"/>
<path opacity="0.2" d="M796.284 706.389L795.222 701.839C795.169 701.657 795.063 701.535 794.903 701.535H781.941C781.728 701.535 781.622 701.717 781.622 701.899V755.407C781.622 755.65 781.781 755.771 781.941 755.771H847.869C848.081 755.771 848.188 755.589 848.188 755.407V706.995C848.188 706.813 848.028 706.631 847.869 706.631H796.603C796.444 706.692 796.338 706.571 796.284 706.389Z" fill="black"/>
<path d="M781.781 720.888L823.166 735.691L839.847 675.085L809.141 664.043L795.328 671.809L781.781 720.888Z" fill="#927463"/>
<path opacity="0.6" d="M781.781 720.888L823.166 735.691L839.847 675.085L809.141 664.043L795.328 671.809L781.781 720.888Z" fill="white"/>
<path d="M809.141 664.043L795.328 671.809L805.953 675.631L809.141 664.043Z" fill="#927463"/>
<path d="M810.054 675.576L809.624 677.138L832.585 685.38L833.015 683.818L810.054 675.576Z" fill="#927463"/>
<path d="M808.944 679.467L808.514 681.03L831.469 689.272L831.899 687.709L808.944 679.467Z" fill="#927463"/>
<path d="M805.507 681.49L805.071 683.052L827.973 691.309L828.404 689.747L805.507 681.49Z" fill="#927463"/>
<path d="M796.12 683.479L795.689 685.041L829.344 697.122L829.774 695.56L796.12 683.479Z" fill="#927463"/>
<path d="M795.041 687.447L794.611 689.009L828.266 701.09L828.696 699.527L795.041 687.447Z" fill="#927463"/>
<path d="M793.931 691.343L793.501 692.906L827.155 704.987L827.586 703.424L793.931 691.343Z" fill="#927463"/>
<path d="M792.874 695.253L792.443 696.816L826.093 708.897L826.523 707.334L792.874 695.253Z" fill="#927463"/>
<path d="M791.79 699.23L791.36 700.793L825.014 712.873L825.445 711.311L791.79 699.23Z" fill="#927463"/>
<path d="M790.727 703.134L790.297 704.697L823.947 716.778L824.377 715.215L790.727 703.134Z" fill="#927463"/>
<path d="M789.612 707.035L789.182 708.598L822.831 720.679L823.261 719.116L789.612 707.035Z" fill="#927463"/>
<path d="M788.533 711.003L788.103 712.565L821.758 724.646L822.188 723.084L788.533 711.003Z" fill="#927463"/>
<path d="M787.471 714.922L787.041 716.484L820.69 728.565L821.12 727.003L787.471 714.922Z" fill="#927463"/>
<path d="M781.728 755.893H847.656C847.869 755.893 847.975 755.711 847.975 755.529C847.975 755.529 847.975 755.529 847.975 755.468L843.459 711.121C843.459 710.939 843.3 710.757 843.141 710.757H790.759C790.6 710.757 790.494 710.635 790.441 710.514L788.953 706.328C788.9 706.207 788.794 706.085 788.634 706.085H776.734C776.522 706.085 776.416 706.267 776.416 706.449V706.51L781.409 755.529C781.409 755.771 781.516 755.893 781.728 755.893Z" fill="#55443A"/>
<path d="M592.284 780.22L607.106 780.159L607.531 789.927C607.638 792.475 608.753 794.841 610.559 796.297L621.45 805.154L594.144 804.365L592.284 780.22Z" fill="#FC9D9D"/>
<path opacity="0.15" d="M602.059 800.483L605.991 802.242L594.091 803.759L592.763 787.257H607.319L607.425 789.199L598.713 790.655C597.756 790.837 597.119 791.807 597.225 792.839V793.021C597.438 796.418 599.35 799.269 602.059 800.483Z" fill="black"/>
<path d="M547.128 780.22L561.631 780.159L559.347 803.88H547.075L547.128 780.22Z" fill="#FC9D9D"/>
<path opacity="0.15" d="M547.128 804.001L547.181 787.197L560.994 787.136L560.781 789.138L551.963 790.655C551.113 790.776 550.475 791.565 550.475 792.535L550.209 799.815L547.128 804.001Z" fill="black"/>
<path d="M546.862 593.367H601.847L607.744 787.257H592.603L577.303 629.16C577.303 628.129 576.559 627.279 575.656 627.279C574.753 627.279 574.009 628.129 574.009 629.16L562.056 787.257H546.916V593.367H546.862Z" fill="#927463"/>
<path opacity="0.2" d="M555.788 593.67L553.344 783.193L546.809 783.132L546.969 593.67H555.788Z" fill="black"/>
<path d="M546.863 798.602L546.809 799.997C546.809 801.15 546.597 802.363 546.278 803.455L544.791 808.309C544.366 809.704 544.153 811.099 544.153 812.555V812.798C544.206 813.769 544.95 814.557 545.8 814.497H560.888C561.738 814.557 562.481 813.769 562.534 812.798V812.191C562.534 810.917 562.322 809.704 562.003 808.491L560.675 803.516C560.409 802.485 560.25 801.453 560.25 800.361V798.541C560.25 797.389 559.878 796.297 559.188 795.447L558.975 795.144C556.106 791.807 551.378 791.747 548.403 795.023L548.031 795.447C547.341 796.357 546.916 797.449 546.863 798.602Z" fill="#DDD3CD"/>
<path d="M545.906 783.253H563.172L562.853 787.257H545.906V783.253Z" fill="#927463"/>
<path opacity="0.15" d="M545.906 783.253H553.131L552.972 787.257H545.906V783.253Z" fill="black"/>
<path opacity="0.51" d="M544.1 811.463H562.428C562.481 811.706 562.481 811.949 562.481 812.191V812.798C562.428 813.769 561.684 814.557 560.834 814.497H545.747C544.897 814.557 544.153 813.769 544.1 812.798V811.463Z" fill="black"/>
<path d="M593.825 797.571L599.616 799.633C600.466 799.937 601.369 799.694 602.059 799.027L606.628 794.537C607.638 793.506 609.178 793.506 610.241 794.416L620.6 803.577L628.728 806.671C631.119 807.581 632.766 810.129 632.766 813.041C632.766 813.89 632.181 814.497 631.438 814.557H595.259C593.559 814.557 592.125 812.98 592.125 811.039V798.905C592.125 798.117 592.709 797.51 593.4 797.51C593.666 797.51 593.772 797.51 593.825 797.571Z" fill="#DDD3CD"/>
<path opacity="0.51" d="M592.284 811.645H632.659C632.766 812.131 632.819 812.616 632.819 813.162C632.819 814.011 632.234 814.618 631.491 814.679H595.313C593.825 814.618 592.55 813.344 592.284 811.645Z" fill="black"/>
<path d="M610.347 799.269L612.525 796.6C612.631 796.479 612.631 796.236 612.525 796.054C612.419 795.933 612.206 795.933 612.047 796.054L609.869 798.723C609.763 798.845 609.763 799.087 609.869 799.209C609.922 799.269 609.975 799.269 610.081 799.33C610.187 799.33 610.241 799.269 610.347 799.269Z" fill="white"/>
<path d="M604.822 519.111C605.088 511.527 600.572 504.611 595.897 502.913L584.528 497.938C584.528 497.877 581.394 496.967 581.394 496.907L582.563 497.271L565.031 496.603L564.128 496.907L542.825 502.67C537.247 504.126 533.263 510.132 533.369 516.927L533.688 534.52L547.022 555.814L546.119 595.733C546.066 597.189 547.075 598.402 548.35 598.463H600.306C601.528 598.463 602.538 597.31 602.591 595.915L604.822 519.111Z" fill="#DDD3CD"/>
<path d="M612.047 800.786L614.225 798.117C614.331 797.995 614.331 797.753 614.225 797.571C614.119 797.449 613.906 797.449 613.747 797.571L611.569 800.24C611.462 800.361 611.462 800.604 611.569 800.786C611.622 800.847 611.675 800.907 611.781 800.907C611.887 800.847 611.994 800.847 612.047 800.786Z" fill="white"/>
<path d="M613.8 802.303L615.978 799.633C616.084 799.512 616.084 799.269 615.978 799.087C615.872 798.966 615.659 798.966 615.5 799.087L613.322 801.757C613.216 801.878 613.216 802.121 613.322 802.242C613.375 802.303 613.428 802.303 613.534 802.363C613.641 802.424 613.694 802.363 613.8 802.303Z" fill="white"/>
<path d="M556.797 799.33C556.85 799.148 556.797 798.845 556.638 798.723C554.672 797.631 552.334 797.631 550.369 798.723C550.156 798.845 550.103 799.087 550.209 799.33C550.316 799.573 550.528 799.633 550.741 799.512C552.494 798.541 554.513 798.541 556.266 799.512C556.319 799.573 556.372 799.573 556.425 799.573C556.584 799.573 556.744 799.512 556.797 799.33Z" fill="white"/>
<path d="M556.797 801.575C556.85 801.393 556.797 801.089 556.638 800.968C554.672 799.876 552.334 799.876 550.369 800.968C550.156 801.089 550.103 801.332 550.209 801.575C550.316 801.818 550.528 801.878 550.741 801.757C552.494 800.786 554.513 800.786 556.266 801.757C556.319 801.818 556.372 801.817 556.425 801.817C556.584 801.817 556.744 801.696 556.797 801.575Z" fill="white"/>
<path d="M556.797 803.698C556.903 803.456 556.797 803.213 556.638 803.091C554.672 801.999 552.334 801.999 550.369 803.091C550.156 803.213 550.103 803.456 550.209 803.698C550.316 803.941 550.528 804.002 550.741 803.88C552.494 802.909 554.513 802.909 556.266 803.88C556.319 803.941 556.372 803.941 556.425 803.941C556.584 803.941 556.744 803.88 556.797 803.698Z" fill="white"/>
<path d="M600.041 505.885C600.041 505.885 606.628 510.253 607.638 524.631L613.003 568.797L597.172 568.069L600.041 505.885Z" fill="#DDD3CD"/>
<path opacity="0.2" d="M592.55 786.408L577.303 629.16C577.25 628.129 576.559 627.34 575.656 627.34H578.791C582.775 627.34 586.175 630.919 586.653 635.712L601.634 784.952L592.55 786.408Z" fill="black"/>
<path d="M591.062 783.253H608.063L608.328 787.257H591.381L591.062 783.253Z" fill="#927463"/>
<path opacity="0.15" d="M545.906 783.253H563.172L562.853 787.257H545.906V783.253Z" fill="black"/>
<path opacity="0.3" d="M558.178 563.822L550.953 562.73L552.813 525.177C552.813 525.117 552.919 525.056 553.078 524.995C553.875 524.753 554.672 525.359 554.884 526.269C554.884 526.391 554.938 526.512 554.938 526.633L555.416 560.364L585.644 565.642C585.963 565.703 586.175 566.006 586.175 566.37C586.175 566.795 585.909 567.098 585.538 567.098C585.484 567.098 585.484 567.098 585.431 567.098L558.178 563.822Z" fill="black"/>
<path opacity="0.15" d="M591.062 783.253H608.063L608.328 787.257H591.381L591.062 783.253Z" fill="black"/>
<path opacity="0.3" d="M602.484 508.676L597.066 567.947L607.584 568.433L605.406 535.127L605.247 528.15C605.247 527.361 604.875 526.694 604.344 526.209L602.484 508.676Z" fill="black"/>
<path opacity="0.15" d="M591.062 783.253H601.103L601.475 787.257H591.381L591.062 783.253Z" fill="black"/>
<path opacity="0.3" d="M555.894 579.11L555.681 598.463H548.35C547.075 598.402 546.066 597.189 546.066 595.733L546.384 580.809L555.894 579.11Z" fill="black"/>
<g opacity="0.6">
<path opacity="0.6" d="M556.213 533.064C556.8 533.064 557.275 532.52 557.275 531.851C557.275 531.18 556.8 530.637 556.213 530.637C555.626 530.637 555.15 531.18 555.15 531.851C555.15 532.52 555.626 533.064 556.213 533.064Z" fill="white"/>
<path opacity="0.6" d="M564.766 511.224C565.353 511.224 565.828 510.68 565.828 510.011C565.828 509.34 565.353 508.797 564.766 508.797C564.179 508.797 563.703 509.34 563.703 510.011C563.703 510.68 564.179 511.224 564.766 511.224Z" fill="white"/>
<path opacity="0.6" d="M550.422 506.189C551.009 506.189 551.484 505.645 551.484 504.975C551.484 504.305 551.009 503.762 550.422 503.762C549.835 503.762 549.359 504.305 549.359 504.975C549.359 505.645 549.835 506.189 550.422 506.189Z" fill="white"/>
<path opacity="0.6" d="M600.997 552.174C601.584 552.174 602.059 551.63 602.059 550.961C602.059 550.29 601.584 549.747 600.997 549.747C600.41 549.747 599.934 550.29 599.934 550.961C599.934 551.63 600.41 552.174 600.997 552.174Z" fill="white"/>
<path opacity="0.6" d="M569.547 584.813C570.134 584.813 570.609 584.269 570.609 583.599C570.609 582.929 570.134 582.386 569.547 582.386C568.96 582.386 568.484 582.929 568.484 583.599C568.484 584.269 568.96 584.813 569.547 584.813Z" fill="white"/>
<path opacity="0.6" d="M554.034 594.337C554.621 594.337 555.097 593.794 555.097 593.124C555.097 592.454 554.621 591.911 554.034 591.911C553.447 591.911 552.972 592.454 552.972 593.124C552.972 593.794 553.447 594.337 554.034 594.337Z" fill="white"/>
<path opacity="0.6" d="M594.197 583.539C594.784 583.539 595.259 582.995 595.259 582.325C595.259 581.655 594.784 581.112 594.197 581.112C593.61 581.112 593.134 581.655 593.134 582.325C593.134 582.995 593.61 583.539 594.197 583.539Z" fill="white"/>
<path opacity="0.6" d="M602.272 519.899C602.858 519.899 603.334 519.356 603.334 518.686C603.334 518.016 602.858 517.473 602.272 517.473C601.685 517.473 601.209 518.016 601.209 518.686C601.209 519.356 601.685 519.899 602.272 519.899Z" fill="white"/>
<path opacity="0.6" d="M586.122 521.477C586.709 521.477 587.184 520.934 587.184 520.263C587.184 519.593 586.709 519.05 586.122 519.05C585.535 519.05 585.059 519.593 585.059 520.263C585.059 520.934 585.535 521.477 586.122 521.477Z" fill="white"/>
<path opacity="0.6" d="M572.15 549.019C572.737 549.019 573.213 548.476 573.213 547.806C573.213 547.136 572.737 546.593 572.15 546.593C571.564 546.593 571.088 547.136 571.088 547.806C571.088 548.476 571.564 549.019 572.15 549.019Z" fill="white"/>
<path opacity="0.6" d="M582.031 561.153C582.618 561.153 583.094 560.609 583.094 559.939C583.094 559.269 582.618 558.726 582.031 558.726C581.444 558.726 580.969 559.269 580.969 559.939C580.969 560.609 581.444 561.153 582.031 561.153Z" fill="white"/>
<path opacity="0.6" d="M559.559 557.573C560.146 557.573 560.622 557.03 560.622 556.36C560.622 555.69 560.146 555.147 559.559 555.147C558.973 555.147 558.497 555.69 558.497 556.36C558.497 557.03 558.973 557.573 559.559 557.573Z" fill="white"/>
<path opacity="0.6" d="M581.234 594.337C581.821 594.337 582.297 593.794 582.297 593.124C582.297 592.454 581.821 591.911 581.234 591.911C580.647 591.911 580.172 592.454 580.172 593.124C580.172 593.794 580.647 594.337 581.234 594.337Z" fill="white"/>
<path opacity="0.6" d="M574.063 530.213C574.65 530.213 575.125 529.669 575.125 528.999C575.125 528.329 574.65 527.786 574.063 527.786C573.475 527.786 573 528.329 573 528.999C573 529.669 573.475 530.213 574.063 530.213Z" fill="white"/>
</g>
<path d="M592.019 542.528L591.063 537.978C591.009 537.796 590.903 537.675 590.797 537.675H579.216C579.056 537.675 578.897 537.857 578.897 538.039V591.547C578.897 591.729 579.003 591.911 579.216 591.911H638.078C638.238 591.911 638.397 591.729 638.397 591.547V543.135C638.397 542.953 638.291 542.771 638.078 542.771H592.338C592.125 542.771 592.019 542.649 592.019 542.528Z" fill="#55443A"/>
<path opacity="0.2" d="M592.019 542.528L591.063 537.978C591.009 537.796 590.903 537.675 590.797 537.675H579.216C579.056 537.675 578.897 537.857 578.897 538.039V591.547C578.897 591.729 579.003 591.911 579.216 591.911H638.078C638.238 591.911 638.397 591.729 638.397 591.547V543.135C638.397 542.953 638.291 542.771 638.078 542.771H592.338C592.125 542.771 592.019 542.649 592.019 542.528Z" fill="black"/>
<path d="M579.641 556.967L621.025 571.769L637.706 511.163L607 500.183L593.188 507.887L579.641 556.967Z" fill="#927463"/>
<path opacity="0.6" d="M579.641 556.967L621.025 571.769L637.706 511.163L607 500.183L593.188 507.887L579.641 556.967Z" fill="white"/>
<path d="M607 500.183L593.188 507.887L603.812 511.709L607 500.183Z" fill="#927463"/>
<path d="M607.892 511.666L607.462 513.228L630.421 521.47L630.851 519.907L607.892 511.666Z" fill="#927463"/>
<path d="M606.834 515.582L606.403 517.145L629.362 525.387L629.792 523.824L606.834 515.582Z" fill="#927463"/>
<path d="M605.766 519.495L605.336 521.058L628.295 529.299L628.725 527.736L605.766 519.495Z" fill="#927463"/>
<path d="M592.495 518.301L592.063 519.864L625.6 531.956L626.031 530.394L592.495 518.301Z" fill="#927463"/>
<path d="M592.884 523.544L592.454 525.106L626.157 537.205L626.587 535.642L592.884 523.544Z" fill="#927463"/>
<path d="M590.334 526.156L589.902 527.718L623.439 539.81L623.871 538.249L590.334 526.156Z" fill="#927463"/>
<path d="M590.708 531.354L590.277 532.917L623.98 545.016L624.411 543.453L590.708 531.354Z" fill="#927463"/>
<path d="M589.63 535.32L589.199 536.883L622.902 548.982L623.333 547.419L589.63 535.32Z" fill="#927463"/>
<path d="M588.567 539.231L588.137 540.794L621.84 552.893L622.27 551.33L588.567 539.231Z" fill="#927463"/>
<path d="M586.03 541.797L585.598 543.359L619.135 555.452L619.567 553.89L586.03 541.797Z" fill="#927463"/>
<path d="M586.375 547.1L585.944 548.663L619.647 560.761L620.078 559.199L586.375 547.1Z" fill="#927463"/>
<path d="M585.308 551.012L584.877 552.574L618.58 564.674L619.011 563.111L585.308 551.012Z" fill="#927463"/>
<path d="M579.003 591.971H637.866C638.025 591.971 638.184 591.789 638.184 591.547C638.184 591.547 638.184 591.547 638.184 591.486L634.147 547.139C634.147 546.957 633.988 546.775 633.828 546.775H587.078C586.972 546.775 586.866 546.714 586.813 546.593L585.484 542.407C585.431 542.285 585.325 542.164 585.219 542.164H574.594C574.434 542.164 574.275 542.346 574.275 542.589C574.275 542.589 574.275 542.589 574.275 542.649L578.738 591.668C578.738 591.85 578.844 591.971 579.003 591.971Z" fill="#55443A"/>
<path d="M556.744 563.822L588.566 567.159L588.034 577.654C588.034 577.654 560.356 580.384 546.384 578.503L549.359 569.161L556.744 563.822Z" fill="#FC9D9D"/>
<path d="M583.891 576.623L591.434 579.231C593.613 579.777 595.844 580.202 598.075 580.445L604.822 582.083C605.247 582.143 605.566 581.779 605.619 581.355C605.672 580.93 605.353 580.505 604.981 580.445L598.978 577.715L598.872 577.411H607.797C608.275 577.351 608.594 576.926 608.594 576.38C608.541 575.955 608.275 575.591 607.85 575.47L605.459 575.167L609.019 575.106C609.55 575.106 609.975 574.621 610.028 574.014C610.081 573.407 609.656 572.801 609.125 572.74L599.191 571.648L599.084 571.223L606.894 570.981C607.319 570.981 607.638 570.556 607.638 570.071C607.638 569.646 607.372 569.343 607 569.221L603.016 568.675L597.916 568.069L598.394 567.583C602.856 566.795 603.122 565.824 603.281 565.035C603.334 564.793 603.228 564.55 603.016 564.489C602.963 564.489 602.909 564.489 602.909 564.489L594.622 565.278L585.166 567.462L584.953 568.797" fill="#FC9D9D"/>
<g opacity="0.15">
<path opacity="0.15" d="M599.138 574.863C599.138 574.803 599.138 574.742 599.138 574.742C599.138 574.56 599.297 574.439 599.403 574.439L606.734 574.863C606.894 574.863 607 575.045 607 575.167C607 575.349 606.841 575.47 606.734 575.47L599.403 575.045C599.297 575.045 599.191 574.985 599.138 574.863Z" fill="black"/>
</g>
<path d="M552.706 537.553L551.644 562.548L566.625 564.853L557.753 579.049L543.516 579.353C538.628 579.656 534.378 575.409 534.113 569.828C534.113 569.646 534.113 569.403 534.113 569.221V538.221" fill="#FC9D9D"/>
<g opacity="0.15">
<path opacity="0.15" d="M604.291 568.069C604.291 567.887 604.131 567.705 603.972 567.705H601.634C601.475 567.705 601.316 567.887 601.316 568.069C601.316 568.251 601.475 568.433 601.634 568.433H603.972C604.131 568.433 604.291 568.251 604.291 568.069Z" fill="black"/>
</g>
<g opacity="0.15">
<path opacity="0.15" d="M604.45 571.405C604.45 571.223 604.291 571.041 604.131 571.041H601.688C601.528 571.041 601.369 571.223 601.369 571.405C601.369 571.587 601.528 571.769 601.688 571.769H604.078C604.291 571.769 604.45 571.587 604.45 571.405Z" fill="black"/>
</g>
<path d="M587.025 566.977L586.175 577.836L583.572 578.079L584.475 566.734L587.025 566.977Z" fill="black"/>
<path opacity="0.15" d="M551.591 562.548L548.722 562.305C548.616 562.305 548.563 562.184 548.563 562.063C548.563 562.002 548.616 561.941 548.722 561.881L551.75 560.849L551.591 562.548Z" fill="black"/>
<path d="M585.591 575.288C586.911 575.288 587.981 574.066 587.981 572.558C587.981 571.05 586.911 569.828 585.591 569.828C584.27 569.828 583.2 571.05 583.2 572.558C583.2 574.066 584.27 575.288 585.591 575.288Z" fill="#927463"/>
<path d="M585.591 574.621C586.588 574.621 587.397 573.697 587.397 572.558C587.397 571.419 586.588 570.495 585.591 570.495C584.593 570.495 583.784 571.419 583.784 572.558C583.784 573.697 584.593 574.621 585.591 574.621Z" fill="white"/>
<path d="M586.706 571.527L585.591 572.558H584.741" stroke="black" stroke-width="0.56" stroke-miterlimit="10" stroke-linecap="round"/>
<path d="M584.794 482.771C584.688 484.045 584.475 485.259 584.156 486.411L584.422 495.026L584.475 497.089C584.528 497.695 584.316 498.363 583.997 498.848C579.481 502.791 573.531 503.762 568.219 501.457C566.997 500.911 565.828 500.243 564.766 499.455C564.606 499.333 564.447 499.151 564.287 498.969L564.234 498.909V498.848C563.916 498.423 563.756 497.817 563.862 497.21L563.916 496.785V496.725L564.075 495.269L566.466 476.219L566.944 472.033C567.05 470.577 567.422 469.182 568.006 467.847C572.416 462.387 582.616 468.575 586.122 470.941C585.963 472.215 585.272 477.251 584.794 482.771Z" fill="#FC9D9D"/>
<path d="M533.581 538.221V515.774L554.247 514.864L553.184 538.767L533.581 538.221Z" fill="#DDD3CD"/>
<path d="M584.209 456.442C587.344 458.626 589.309 462.387 589.522 466.573C589.947 475.977 589.203 491.689 579.269 492.357C565.881 494.601 565.828 465.845 565.828 465.845C566.253 461.963 567.9 459.233 570.45 456.927C574.009 453.651 580.331 453.712 584.209 456.442Z" fill="#FC9D9D"/>
<path d="M589.469 473.429C589.469 473.429 588.194 482.347 586.388 484.773C586.175 485.077 585.431 486.715 585.006 484.47C584.794 483.439 584.05 482.65 583.147 482.468L579.216 481.679C578.259 481.497 577.303 481.983 576.825 482.953L575.922 484.773C575.922 484.773 570.981 487.928 568.059 472.458L566.997 472.155C566.997 472.155 566.944 490.84 577.622 492.478C577.569 492.417 589.044 495.147 589.469 473.429Z" fill="black"/>
<path opacity="0.3" d="M538.362 538.16L538.628 514.985C538.894 509.525 540.328 505.279 544.313 502.367L543.409 502.609C537.406 504.065 533.209 510.314 533.528 517.351V538.16H538.362Z" fill="black"/>
<path opacity="0.15" d="M559.878 579.171C571.3 579.11 583.678 578.079 587.078 577.775L591.381 579.231C593.559 579.777 595.791 580.202 598.022 580.445L604.769 582.083C604.981 582.083 605.141 582.022 605.3 581.84C604.344 582.204 597.65 579.535 597.65 579.535C593.984 578.746 590.425 577.533 587.025 575.895C586.972 575.713 586.972 575.713 586.919 575.834C586.812 576.319 572.416 576.077 565.084 575.955L545.162 574.742C541.656 574.863 538.628 571.284 538.628 566.37L539 538.16H534.219V569.1C534.219 574.681 538.15 579.171 543.037 579.231C543.25 579.231 543.463 579.231 543.728 579.231L559.878 579.171Z" fill="black"/>
<path opacity="0.15" d="M566.306 477.372C566.944 477.493 567.528 477.372 568.112 477.069L565.934 480.405L566.306 477.372Z" fill="black"/>
<path opacity="0.2" d="M584.475 495.269L584.316 490.233C583.041 491.568 579.534 493.267 575.816 491.871C573.956 491.143 572.309 489.809 571.141 487.989C571.087 487.807 570.928 487.746 570.769 487.867C570.609 487.989 570.556 488.11 570.662 488.292C570.662 488.292 570.662 488.353 570.716 488.353C572.203 490.658 574.434 492.296 576.931 492.842C579.003 494.783 581.766 495.693 584.475 495.269Z" fill="black"/>
<path d="M576.878 475.855C577.494 475.855 577.994 475.285 577.994 474.581C577.994 473.878 577.494 473.307 576.878 473.307C576.262 473.307 575.762 473.878 575.762 474.581C575.762 475.285 576.262 475.855 576.878 475.855Z" fill="black"/>
<path d="M577.037 475.128C577.155 475.128 577.25 475.019 577.25 474.885C577.25 474.751 577.155 474.642 577.037 474.642C576.92 474.642 576.825 474.751 576.825 474.885C576.825 475.019 576.92 475.128 577.037 475.128Z" fill="white"/>
<path d="M585.75 475.855C586.366 475.855 586.866 475.285 586.866 474.581C586.866 473.878 586.366 473.307 585.75 473.307C585.134 473.307 584.634 473.878 584.634 474.581C584.634 475.285 585.134 475.855 585.75 475.855Z" fill="black"/>
<path d="M585.909 475.067C586.026 475.067 586.121 474.958 586.121 474.824C586.121 474.69 586.026 474.581 585.909 474.581C585.792 474.581 585.697 474.69 585.697 474.824C585.697 474.958 585.792 475.067 585.909 475.067Z" fill="white"/>
<path opacity="0.6" d="M539.531 525.42C540.118 525.42 540.594 524.877 540.594 524.207C540.594 523.536 540.118 522.993 539.531 522.993C538.944 522.993 538.469 523.536 538.469 524.207C538.469 524.877 538.944 525.42 539.531 525.42Z" fill="white"/>
<path opacity="0.3" d="M581.978 480.648H580.438C580.225 480.648 580.119 480.466 580.119 480.284C580.119 480.102 580.278 479.92 580.438 479.92H581.978C582.35 479.859 582.616 479.495 582.616 479.071C582.563 478.707 582.297 478.403 581.978 478.343C581.766 478.343 581.606 478.161 581.606 477.979C581.606 477.736 581.766 477.554 581.925 477.554C582.669 477.554 583.306 478.282 583.306 479.131C583.359 479.92 582.722 480.648 581.978 480.648Z" fill="black"/>
<path d="M578.578 484.106L582.987 484.773C583.041 484.773 583.041 484.773 583.041 484.834L583.094 484.895V484.955V485.016C582.456 486.411 580.969 487.018 579.747 486.29C579.056 485.926 578.578 485.198 578.419 484.349V484.288V484.227C578.419 484.227 578.419 484.167 578.472 484.167L578.525 484.106C578.525 484.167 578.578 484.167 578.578 484.106Z" fill="white"/>
<path d="M574.487 471.002C577.303 469.121 578.684 470.456 578.684 470.456L578.791 470.881C578.791 470.881 576.134 470.395 574.753 471.245L574.487 471.002Z" fill="black"/>
<path d="M588.141 471.063C585.325 469.182 583.944 470.517 583.944 470.517L583.838 470.941C583.838 470.941 586.494 470.456 587.875 471.305L588.141 471.063Z" fill="black"/>
<path d="M562.481 497.513C563.65 504.187 572.575 504.975 572.575 504.975C582.244 506.977 585.591 498.787 585.591 498.787L585.006 495.572C584.953 495.451 584.847 495.39 584.794 495.451C572.044 498.727 565.403 495.269 564.022 494.177C563.862 494.055 563.65 494.116 563.544 494.298C563.544 494.298 563.544 494.359 563.491 494.359L562.481 497.513Z" fill="#DDD3CD"/>
<path d="M567.528 470.031C567.156 468.515 565.828 467.605 564.5 467.969C564.341 468.029 564.234 468.09 564.075 468.151C560.941 469.425 560.994 477.372 566.2 478.282C568.909 478.767 568.431 476.947 568.166 474.46L567.528 470.031Z" fill="#FC9D9D"/>
<path opacity="0.3" d="M563.809 470.213C564.234 469.849 564.819 469.789 565.35 469.91C565.828 470.092 566.253 470.517 566.466 471.063C566.731 471.73 566.891 472.519 566.838 473.247V473.914C566.838 474.096 566.678 474.278 566.519 474.278C566.519 474.278 566.519 474.278 566.466 474.278C566.306 474.278 566.147 474.096 566.147 473.914C566.147 473.914 566.147 473.914 566.147 473.853V473.247C566.147 472.64 566.041 471.973 565.828 471.427C565.669 471.063 565.456 470.759 565.084 470.577C564.712 470.517 564.341 470.577 564.075 470.82C563.916 470.941 563.756 470.881 563.65 470.699C563.597 470.517 563.65 470.335 563.809 470.213Z" fill="black"/>
<path d="M718.562 516.077C701.722 516.805 685.572 519.293 667.881 522.629C669.103 540.708 670.325 558.605 671.6 576.259C690.459 572.74 711.337 566.855 730.622 569.464C729.559 554.115 728.55 540.162 727.487 525.056L718.562 516.077Z" fill="#927463"/>
<path opacity="0.6" d="M718.562 516.077C701.722 516.805 685.572 519.293 667.881 522.629C669.103 540.708 670.325 558.605 671.6 576.259C690.459 572.74 711.337 566.855 730.622 569.464C729.559 554.115 728.55 540.162 727.487 525.056L718.562 516.077Z" fill="white"/>
<path d="M676.859 527.361C677.55 537.189 679.303 559.636 680.047 569.403L681.534 569.282C680.844 559.575 679.037 537.129 678.347 527.361H676.859Z" fill="#927463"/>
<path d="M680.631 526.573C681.322 536.279 683.128 558.726 683.819 568.372L685.359 568.19C684.669 558.544 682.862 536.158 682.172 526.451C681.641 526.451 681.162 526.512 680.631 526.573Z" fill="#927463"/>
<path d="M684.457 526.148C685.147 535.794 686.954 558.18 687.644 567.826C688.176 567.765 688.654 567.644 689.185 567.583C688.494 557.998 686.688 535.612 685.997 525.966L684.457 526.148Z" fill="#927463"/>
<path d="M688.281 525.602C689.344 539.677 690.353 553.145 691.416 567.159L692.956 566.855C691.894 552.841 690.831 539.434 689.822 525.359L688.281 525.602Z" fill="#927463"/>
<path d="M692.16 524.935C693.222 538.949 694.285 552.356 695.294 566.37L696.835 566.067C695.772 552.053 694.71 538.706 693.7 524.692L692.16 524.935Z" fill="#927463"/>
<path d="M695.984 524.207C697.047 538.221 698.109 551.567 699.119 565.581L700.659 565.278C699.597 551.264 698.534 537.917 697.525 523.903L695.984 524.207Z" fill="#927463"/>
<path d="M699.863 524.025C700.926 537.978 701.988 551.385 702.997 565.399L704.538 565.096C703.476 551.082 702.413 537.675 701.404 523.721L699.863 524.025Z" fill="#927463"/>
<path d="M703.688 523.236C704.75 537.25 705.813 550.657 706.822 564.671L708.363 564.368C707.3 550.293 706.238 536.886 705.228 522.872L703.688 523.236Z" fill="#927463"/>
<path d="M707.566 523.054C708.629 537.068 709.691 550.475 710.701 564.611C711.232 564.55 711.71 564.429 712.241 564.368C711.179 550.233 710.169 536.765 709.107 522.751L707.566 523.054Z" fill="#927463"/>
<path d="M711.922 529.667C712.984 543.741 713.462 549.929 714.525 564.125L716.012 563.943C715.003 549.747 714.472 543.499 713.409 529.424L711.922 529.667Z" fill="#927463"/>
<path d="M715.801 529.606C716.863 543.741 717.341 550.051 718.351 564.307L719.838 564.186C718.829 549.869 718.297 543.559 717.288 529.424C716.81 529.485 716.279 529.545 715.801 529.606Z" fill="#927463"/>
<path d="M719.625 529.121C720.688 543.317 721.166 549.747 722.175 564.125C722.653 564.125 723.184 564.125 723.663 564.125C722.653 549.687 722.175 543.256 721.113 528.999L719.625 529.121Z" fill="#927463"/>
<path d="M718.562 516.077L719.094 525.42L727.487 525.117L718.562 516.077Z" fill="#927463"/>
<path d="M777.531 565.157C769.403 579.899 761.116 594.883 752.775 610.05C773.813 603.255 773.972 647.663 796.922 641.293L812.753 613.144L818.597 603.255C798.091 607.563 799.525 560.849 777.531 565.157Z" fill="#927463"/>
<path opacity="0.6" d="M777.531 565.157C769.403 579.899 761.116 594.883 752.775 610.05C773.813 603.255 773.972 647.663 796.922 641.293L812.753 613.144L818.597 603.255C798.091 607.563 799.525 560.849 777.531 565.157Z" fill="white"/>
<path d="M790.069 636.319C795.966 625.884 800.747 616.723 806.591 606.349C806.166 606.167 805.794 605.925 805.422 605.682C799.578 616.056 794.797 625.217 788.953 635.591C789.272 635.894 789.644 636.137 790.069 636.319Z" fill="#927463"/>
<path d="M787.253 634.195C793.097 623.821 797.878 614.661 803.722 604.347C803.35 604.044 803.031 603.68 802.712 603.255C796.869 613.569 792.141 622.729 786.297 633.103C786.562 633.467 786.934 633.831 787.253 634.195Z" fill="#927463"/>
<path d="M784.863 631.223C790.706 620.849 795.488 611.688 801.331 601.375C801.013 600.95 800.747 600.465 800.481 600.04C794.638 610.353 789.909 619.514 784.012 629.888C784.278 630.373 784.544 630.798 784.863 631.223Z" fill="#927463"/>
<path d="M782.737 627.765C788.634 617.33 793.416 608.109 799.259 597.795C798.994 597.31 798.728 596.764 798.516 596.218C792.672 606.592 787.891 615.813 781.941 626.309C782.206 626.733 782.419 627.279 782.737 627.765Z" fill="#927463"/>
<path d="M780.241 624.489C786.191 613.933 791.503 604.105 797.4 593.67C797.188 593.124 796.922 592.517 796.709 591.971C790.813 602.406 785.447 612.295 779.497 622.911C779.709 623.457 779.975 624.003 780.241 624.489Z" fill="#927463"/>
<path d="M778.328 620.485C784.331 609.807 789.697 599.858 795.647 589.363C795.434 588.756 795.222 588.21 795.009 587.603C789.059 598.159 783.641 608.169 777.637 618.907C777.85 619.393 778.116 619.939 778.328 620.485Z" fill="#927463"/>
<path d="M775.353 617.755C779.709 609.989 785.712 599.312 793.416 585.601C793.203 584.995 792.991 584.449 792.725 583.903C784.969 597.674 778.966 608.412 774.556 616.238C774.875 616.723 775.141 617.209 775.353 617.755Z" fill="#927463"/>
<path d="M773.387 613.993C777.85 606.046 783.375 595.793 791.184 581.901C790.972 581.355 790.706 580.809 790.441 580.263C782.631 594.216 777.053 604.529 772.537 612.598C772.803 613.023 773.122 613.508 773.387 613.993Z" fill="#927463"/>
<path d="M771.156 610.657C775.725 602.467 781.356 592.639 789.272 578.564C789.006 578.079 788.741 577.593 788.475 577.108C780.559 591.304 774.875 601.253 770.253 609.504C770.519 609.868 770.837 610.232 771.156 610.657Z" fill="#927463"/>
<path d="M768.659 607.927C773.334 599.494 779.125 589.423 787.147 575.045C786.828 574.621 786.509 574.257 786.191 573.832C778.116 588.271 772.325 598.463 767.544 607.017C767.916 607.32 768.288 607.623 768.659 607.927Z" fill="#927463"/>
<path d="M766.269 605.439C771.103 596.703 776.469 586.936 784.65 572.315C784.278 572.012 783.906 571.709 783.534 571.466C775.353 586.208 769.881 596.097 764.994 604.954C765.366 605.075 765.844 605.257 766.269 605.439Z" fill="#927463"/>
<path d="M762.816 604.529C767.809 595.49 773.334 585.419 781.675 570.435C781.25 570.253 780.825 570.131 780.347 570.01C772.006 585.116 766.375 595.308 761.328 604.529C761.806 604.529 762.284 604.529 762.816 604.529Z" fill="#927463"/>
<ellipse cx="347" cy="270.5" rx="121" ry="119.5" fill="#927463" fill-opacity="0.11"/>
<circle cx="939" cy="821" r="65" fill="#DDD3CD" fill-opacity="0.33"/>
</svg>
