<svg width="790" height="897" viewBox="0 0 790 897" fill="none" xmlns="http://www.w3.org/2000/svg">
<path d="M2 659.011H787.847" stroke="#251760" stroke-width="3" stroke-linecap="round"/>
<path d="M605.363 378.721C596.197 345.67 576.625 311.796 553.589 277.06C483.213 170.896 400.787 154.923 400.787 154.923C400.787 154.923 388.575 154.735 377.036 217.05C365.498 279.365 506.91 357.855 523.651 401.677L523.773 402C539.826 391.877 576.652 371.766 605.363 378.721Z" fill="#7EDCF2"/>
<path d="M605.363 378.721C596.197 345.67 576.625 311.796 553.589 277.06C493.471 186.384 424.605 161.515 405.774 156.177C437.505 171.665 493.997 208.234 521.279 280.511C558.212 375.136 518.974 378.6 523.584 401.677L523.705 402C539.827 391.877 576.652 371.766 605.363 378.721Z" fill="#59C2E2"/>
<path fill-rule="evenodd" clip-rule="evenodd" d="M605.363 378.721C596.197 345.67 576.625 311.796 553.589 277.06C483.213 170.896 400.787 154.923 400.787 154.923C400.787 154.923 388.575 154.735 377.036 217.05C365.498 279.365 506.91 357.855 523.651 401.677L523.773 402C539.826 391.877 576.652 371.766 605.363 378.721Z" stroke="#251760" stroke-width="3" stroke-linecap="round"/>
<path d="M154.586 378.721C163.752 345.67 183.324 311.796 206.361 277.06C276.75 170.896 359.203 154.923 359.203 154.923C359.203 154.923 371.415 154.735 382.954 217.05C394.492 279.365 253.04 357.855 236.366 401.677L236.244 402C220.123 391.877 183.297 371.766 154.586 378.721Z" fill="#7EDCF2"/>
<path d="M300.878 229.801C300.878 229.801 270.873 218.263 250.101 265.576C229.329 312.888 214.327 356.736 176.248 361.346C167.082 362.465 161.124 365.39 157.565 369.178C156.487 372.373 155.476 375.581 154.586 378.775C183.297 371.82 220.123 391.931 236.244 402.054L236.366 401.731C244.844 379.463 285.579 348.218 322.054 314.681C328.093 277.33 324.952 243.281 300.878 229.801Z" fill="#59C2E2"/>
<path fill-rule="evenodd" clip-rule="evenodd" d="M154.586 378.721C163.752 345.67 183.324 311.796 206.361 277.06C276.75 170.896 359.203 154.923 359.203 154.923C359.203 154.923 371.415 154.735 382.954 217.05C394.492 279.365 253.04 357.855 236.366 401.677L236.244 402C220.123 391.877 183.297 371.766 154.586 378.721Z" stroke="#251760" stroke-width="3" stroke-linecap="round"/>
<path d="M41.0902 573.417C58.6134 433.933 299.584 486.219 299.584 486.219C299.584 486.219 489.953 539.018 506.128 587.18C522.303 635.341 376.888 661.464 376.888 661.464C376.888 661.464 418.674 684.555 462.226 708.642C461.929 728.511 458.182 757.262 441.589 776.592C272.005 731.301 27.2469 683.827 41.0902 573.417Z" fill="#FC8181"/>
<path d="M166.138 696.902C247.661 729.522 354.526 753.353 441.589 776.619C458.236 757.289 461.929 728.538 462.226 708.669C429.754 690.688 398.266 673.286 384.342 665.535C383.695 665.171 184.16 555.476 171.49 555.476C171.49 555.476 150.866 544.693 148.575 562.027C146.283 579.362 253.592 610.553 275.51 675.119C297.292 739.416 167.648 697.387 166.138 696.902Z" fill="#EF6C6C"/>
<path fill-rule="evenodd" clip-rule="evenodd" d="M41.0902 573.417C58.6134 433.933 299.584 486.219 299.584 486.219C299.584 486.219 489.953 539.018 506.128 587.18C522.303 635.341 376.888 661.464 376.888 661.464C376.888 661.464 418.674 684.555 462.226 708.642C461.929 728.511 458.182 757.262 441.589 776.592C272.005 731.301 27.2469 683.827 41.0902 573.417Z" stroke="#251760" stroke-width="3" stroke-linecap="round"/>
<path d="M539.705 806.502C515.833 797.067 481.407 787.254 441.589 776.619C458.236 757.289 461.929 728.538 462.226 708.669C491.881 725.073 522.317 741.95 540.972 752.329C543.493 766.94 545.448 788.602 539.705 806.502Z" fill="#F99F91" stroke="#251760" stroke-width="3" stroke-linecap="round"/>
<path d="M401.272 161.663C401.272 161.663 467.038 189.363 512.046 355.523C557.053 517.074 545.515 567.85 359.729 562.081C201.629 551.702 217.791 482.459 236.258 401.677C254.725 320.895 275.011 145.69 401.272 161.663Z" fill="#7EDCF2"/>
<path d="M462.59 230.138C457.899 232.349 455.176 238.9 458.964 256.288C478.59 346.29 432.423 457.131 310.111 461.687C241.65 464.275 227.429 502.273 253.633 534.03C274.013 548.709 307.267 558.63 359.729 562.081C545.515 567.85 557.053 517.073 512.046 355.523C496.827 299.301 479.169 258.944 462.59 230.138Z" fill="#59C2E2"/>
<path d="M649.225 891.207C645.761 906.344 627.294 874.708 569.603 822.462C563.874 817.272 553.562 811.988 539.705 806.543C545.448 788.642 543.493 766.981 540.972 752.369C549.626 757.181 555.8 760.605 558.064 761.926C586.91 778.411 652.689 876.083 649.225 891.207Z" fill="#251760" stroke="#251760" stroke-width="3" stroke-linecap="round"/>
<path d="M463.803 230.745C480.1 260.399 497.232 300.838 512.046 355.523C557.053 517.073 545.515 567.85 359.729 562.081C201.629 551.702 217.791 482.458 236.258 401.677C246.098 358.637 256.315 286.859 282.816 231.608" stroke="#251760" stroke-width="3" stroke-linecap="round"/>
<path d="M302.132 543.614C312.524 556.312 342.57 590.927 322.903 593.245C298.735 596.089 307.901 581.707 290.553 572.474C160.908 511.142 135.715 446.671 154.546 378.721C183.257 371.766 220.083 391.877 236.204 402C218.222 450.499 290.067 528.868 302.132 543.614Z" fill="#F9C7A5"/>
<path d="M302.132 543.614C290.067 528.868 218.222 450.499 236.244 402C220.069 391.877 183.297 371.766 154.586 378.721C152.547 385.998 151.038 393.413 150.071 400.908C164.238 391.985 196.224 382.63 200.484 409.764C213.181 490.533 249.144 558.495 327.378 579.159C322.216 567.392 308.494 551.392 302.132 543.614Z" fill="#F99F91"/>
<path fill-rule="evenodd" clip-rule="evenodd" d="M302.132 543.614C312.524 556.312 342.57 590.927 322.903 593.245C298.735 596.089 307.901 581.707 290.553 572.474C160.908 511.142 135.715 446.671 154.546 378.721C183.257 371.766 220.083 391.877 236.204 402C218.222 450.499 290.067 528.868 302.132 543.614Z" stroke="#251760" stroke-width="3" stroke-linecap="round"/>
<path d="M326.017 35.0783C326.017 35.0783 307.267 24.0522 300.649 41.6967C294.03 59.3412 328.201 125.498 334.832 117.774C341.464 110.051 366.819 52.7228 326.017 35.0783Z" fill="#F9CE55"/>
<path opacity="0.58" d="M343.432 50.0673C341.208 47.4658 338.661 46.3066 335.938 47.2097C335.938 47.2097 319.398 44.9991 324.912 64.8542C330.222 83.9949 306.431 74.7885 302.428 62.6571C309.707 88.2679 329.912 123.516 334.778 117.761C340.103 111.641 357.249 74.0471 343.432 50.0673Z" fill="#F9A846"/>
<path fill-rule="evenodd" clip-rule="evenodd" d="M326.017 35.0783C326.017 35.0783 307.267 24.0522 300.649 41.6967C294.03 59.3412 328.201 125.498 334.832 117.774C341.464 110.051 366.819 52.7228 326.017 35.0783Z" stroke="#251760" stroke-width="3" stroke-linecap="round"/>
<path d="M394.384 144.248C394.384 144.248 410.923 225.838 369.016 224.733C332.622 223.776 364.608 162.984 350.266 148.655C335.924 134.327 386.661 118.88 394.384 144.248Z" fill="#F9C7A5"/>
<path d="M369.016 224.733C404.278 225.663 398.158 168.025 395.328 149.734C378.452 132.629 358.516 128.167 354.014 158.239C354.281 161.198 354.304 164.173 354.081 167.136C355.173 172.258 358.529 178.283 367.911 180.615C385.555 185.05 394.384 217.023 369.016 224.733Z" fill="#F99F91"/>
<path fill-rule="evenodd" clip-rule="evenodd" d="M394.384 144.248C394.384 144.248 410.923 225.838 369.016 224.733C332.622 223.776 364.608 162.984 350.266 148.655C335.924 134.327 386.661 118.88 394.384 144.248Z" stroke="#251760" stroke-width="3" stroke-linecap="round"/>
<path d="M415.331 29.5653C415.331 29.5653 434.081 37.289 430.765 60.4465C427.449 83.6041 409.818 125.498 400.989 121.104C392.16 116.709 388.858 47.2098 415.331 29.5653Z" fill="#F9A846" stroke="#251760" stroke-width="3" stroke-linecap="round"/>
<path d="M408.713 53.8282C408.713 53.8282 398.792 62.6437 408.713 100.143C418.634 137.643 403.577 172.932 369.016 170.708C334.832 168.497 324.912 137.629 328.214 102.34C331.516 67.0514 341.451 58.2359 328.214 48.3151C314.977 38.3943 408.713 7.51306 408.713 53.8282Z" fill="#F9C7A5"/>
<path d="M389.357 166.88C409.09 156.878 416.396 129.137 408.713 100.143C398.792 62.6436 408.713 53.8281 408.713 53.8281C408.713 41.3058 401.852 34.4313 392.12 31.2637C382.253 30.7245 372.251 30.064 363.22 30.0236C349.417 32.0724 336.261 36.925 330.344 41.4675C330.226 41.8706 330.131 42.2802 330.061 42.6942C329.617 44.8282 329.368 46.9985 329.319 49.1777C335.075 53.9629 335.614 58.6133 334.32 66.4178C336.239 68.6707 338.69 70.4083 341.451 71.4726C357.99 78.091 392.174 64.8542 399.897 105.656C406.219 139.112 399.385 159.843 389.357 166.88Z" fill="#F99F91"/>
<path fill-rule="evenodd" clip-rule="evenodd" d="M408.713 53.8282C408.713 53.8282 398.792 62.6437 408.713 100.143C418.634 137.643 403.577 172.932 369.016 170.708C334.832 168.497 324.912 137.629 328.214 102.34C331.516 67.0514 341.451 58.2359 328.214 48.3151C314.977 38.3943 408.713 7.51306 408.713 53.8282Z" stroke="#251760" stroke-width="3" stroke-linecap="round"/>
<path d="M727.271 573.417C709.747 433.933 468.763 486.219 468.763 486.219C468.763 486.219 274.027 525.431 268.568 575.924C252.393 610.553 388.534 665.94 388.534 665.94C388.534 665.94 349.633 684.555 306.081 708.669C306.391 728.538 310.125 757.289 326.718 776.619C496.356 731.301 741.114 683.827 727.271 573.417Z" fill="#FC8181"/>
<path d="M383.965 605.875C343.149 597.532 188.514 544.612 171.638 556.258C202.465 582.381 376.389 660.804 386.957 665.212C458.492 627.469 583.756 562.027 592.827 562.027C592.827 562.027 617.09 559.722 606.671 543.56C596.251 527.399 434.688 616.322 383.965 605.875Z" fill="#EF6C6C"/>
<path d="M727.271 573.417C724.494 551.297 716.083 534.003 703.924 520.551C715.678 549.747 717.552 589.7 671.291 626.701C584.753 695.944 447.426 669.404 396.649 708.642C350.253 744.497 306.647 723.631 334.347 692.467C332.999 693.208 308.736 707.186 307.388 707.928C307.111 708.146 306.845 708.38 306.593 708.629L306.081 709.127C306.431 728.969 310.206 757.424 326.704 776.605C496.356 731.301 741.114 683.827 727.271 573.417Z" fill="#EF6C6C"/>
<path d="M384.356 665.589C384.356 665.589 184.174 555.53 171.49 555.53Z" fill="#F9C7A5"/>
<path d="M384.356 665.589C384.356 665.589 184.174 555.53 171.49 555.53" stroke="#251760" stroke-width="3" stroke-linecap="round"/>
<path d="M384.544 666.533C384.544 666.533 349.673 684.568 306.121 708.683C306.431 728.551 310.165 757.303 326.758 776.632C496.356 731.314 741.114 683.84 727.271 573.431C709.747 433.946 468.763 486.233 468.763 486.233C468.763 486.233 399.803 498.175 344.133 518.907" stroke="#251760" stroke-width="3" stroke-linecap="round"/>
<path d="M337.798 691.321C337.798 691.321 580.13 562.081 592.827 562.081Z" fill="#F9C7A5"/>
<path d="M337.798 691.321C337.798 691.321 580.13 562.081 592.827 562.081" stroke="#251760" stroke-width="3" stroke-linecap="round"/>
<path d="M228.642 806.502C252.527 797.067 286.954 787.254 326.758 776.619C310.125 757.289 306.431 728.538 306.121 708.669C276.467 725.073 246.03 741.95 227.375 752.329C224.854 766.94 222.913 788.602 228.642 806.502Z" fill="#F9C7A5"/>
<path d="M306.162 710.408C300.581 713.818 294.556 722.539 293.949 744.403C292.804 785.946 233.939 795.18 228.17 752.491L227.159 753.704C224.746 768.275 223.115 789.154 228.642 806.502C252.527 797.067 286.954 787.254 326.758 776.619C310.677 757.842 306.634 730.182 306.162 710.408Z" fill="#F99F91"/>
<path fill-rule="evenodd" clip-rule="evenodd" d="M228.642 806.502C252.527 797.067 286.954 787.254 326.758 776.619C310.125 757.289 306.431 728.538 306.121 708.669C276.467 725.073 246.03 741.95 227.375 752.329C224.854 766.94 222.913 788.602 228.642 806.502Z" stroke="#251760" stroke-width="3" stroke-linecap="round"/>
<path d="M119.122 891.207C122.586 906.344 141.053 874.708 198.745 822.462C204.487 817.272 214.799 811.988 228.642 806.543C222.913 788.642 224.854 766.981 227.375 752.369C218.721 757.181 212.548 760.605 210.283 761.926C181.437 778.411 115.671 876.083 119.122 891.207Z" fill="#251760" stroke="#251760" stroke-width="3" stroke-linecap="round"/>
<path d="M457.818 543.614C447.426 556.312 417.38 590.927 437.046 593.245C461.215 596.089 452.049 581.707 469.397 572.474C599.041 511.142 624.234 446.671 605.404 378.721C576.693 371.766 539.881 391.877 523.746 402C541.727 450.499 469.882 528.868 457.818 543.614Z" fill="#F9C7A5"/>
<path d="M524.581 401.461C532.669 399.695 587.934 389.478 584.753 439.769C581.289 493.997 511.52 545.353 441.98 569.292C440.268 569.886 438.597 570.465 436.952 571.058C430.064 582.111 426.843 592.046 437.046 593.245C461.215 596.089 452.049 581.707 469.397 572.474C599.041 511.143 624.234 446.671 605.404 378.721C577.151 371.887 541.175 391.176 524.581 401.461Z" fill="#F99F91"/>
<path fill-rule="evenodd" clip-rule="evenodd" d="M457.818 543.614C447.426 556.312 417.38 590.927 437.046 593.245C461.215 596.089 452.049 581.707 469.397 572.474C599.041 511.142 624.234 446.671 605.404 378.721C576.693 371.766 539.881 391.877 523.746 402C541.727 450.499 469.882 528.868 457.818 543.614Z" stroke="#251760" stroke-width="3" stroke-linecap="round"/>
<path d="M531.914 418.998H234.856C227.442 418.998 222.051 425.616 223.938 432.383L267.543 587.476H500.278L542.846 432.315C544.693 425.576 539.301 418.998 531.914 418.998Z" fill="#E4E3E5"/>
<path opacity="0.82" d="M267.543 587.476H500.278L542.846 432.315C544.693 425.576 539.301 418.998 531.914 418.998H430.118C439.351 427.813 495.897 436.305 494.738 488.228C492.824 574.496 369.542 572.312 337.798 571.314C300.878 570.155 270.832 568.47 267.287 586.762L267.543 587.476Z" fill="#C9C6CC"/>
<path fill-rule="evenodd" clip-rule="evenodd" d="M531.914 418.998H234.856C227.442 418.998 222.051 425.616 223.938 432.383L267.543 587.476H500.278L542.846 432.315C544.693 425.576 539.301 418.998 531.914 418.998Z" stroke="#251760" stroke-width="3" stroke-linecap="round"/>
<path d="M497.906 596.13L500.278 587.476H267.543L270.01 596.238C272.644 604.87 280.68 610.711 289.704 610.553H478.172C487.24 610.715 495.307 604.819 497.906 596.13Z" fill="#251760" stroke="#251760" stroke-width="3" stroke-linecap="round"/>
<path d="M375.877 541.309C393.721 541.309 408.187 526.844 408.187 508.999C408.187 491.155 393.721 476.689 375.877 476.689C358.033 476.689 343.567 491.155 343.567 508.999C343.567 526.844 358.033 541.309 375.877 541.309Z" fill="white"/>
<path d="M437.383 33.9731C437.383 51.3345 415.479 64.8543 378.937 64.8543C342.394 64.8543 312.78 50.7818 312.78 33.4204C312.78 16.059 342.408 2 378.937 2C415.466 2 437.383 16.6251 437.383 33.9731Z" fill="#F9CE55"/>
<path opacity="0.58" d="M378.937 2C377.427 2 375.918 2 374.435 2.08088C398.401 2.55265 416.976 17.7574 413.121 35.0784C409.333 52.1567 343.513 52.0893 325.195 51.7389C337.205 59.6782 356.79 64.8543 378.937 64.8543C415.479 64.8543 437.383 51.3749 437.383 33.9731C437.383 16.5712 415.479 2 378.937 2Z" fill="#F9A846"/>
<path d="M312.78 33.4204C312.78 16.0725 342.435 2 378.937 2C415.439 2 437.383 16.6251 437.383 33.9731C437.383 51.321 415.479 64.8543 378.937 64.8543C357.842 64.8543 339.051 60.1635 326.933 52.8576" stroke="#251760" stroke-width="3" stroke-linecap="round"/>
<path d="M388.885 109.781C391.103 109.781 392.902 107.982 392.902 105.764C392.902 103.546 391.103 101.747 388.885 101.747C386.666 101.747 384.868 103.546 384.868 105.764C384.868 107.982 386.666 109.781 388.885 109.781Z" fill="#251760"/>
<path d="M344.821 109.781C347.039 109.781 348.837 107.982 348.837 105.764C348.837 103.546 347.039 101.747 344.821 101.747C342.602 101.747 340.804 103.546 340.804 105.764C340.804 107.982 342.602 109.781 344.821 109.781Z" fill="#251760"/>
<path d="M364.595 95.2098V123.409C364.388 126.972 367.099 130.032 370.661 130.256H372.683" stroke="#251760" stroke-width="3" stroke-linecap="round"/>
<path d="M370.351 144.881C369.439 145.124 368.698 145.787 368.357 146.667C368.016 147.546 368.115 148.536 368.625 149.329C371.485 153.572 376.73 155.521 381.667 154.177C386.603 152.832 390.135 148.492 390.448 143.385C390.488 142.44 390.072 141.534 389.331 140.947C388.589 140.36 387.611 140.164 386.701 140.42L370.351 144.881Z" fill="#251760"/>
</svg>
