<svg width="636" height="979" viewBox="0 0 636 979" fill="none" xmlns="http://www.w3.org/2000/svg">
<path d="M360.019 657.105C348.289 657.105 338.78 647.596 338.78 635.866C338.78 624.137 348.289 614.628 360.019 614.628C371.748 614.628 381.257 624.137 381.257 635.866C381.257 647.596 371.748 657.105 360.019 657.105Z" fill="#251760" stroke="#251760" stroke-width="3" stroke-linecap="round"/>
<path d="M163.816 436.185C163.816 544.794 252.39 630.809 361.03 630.809C469.669 630.809 557.232 544.794 557.232 436.185C557.232 327.576 469.164 146.372 360.524 146.372C251.885 146.372 163.816 327.586 163.816 436.185Z" fill="#EAEAEA"/>
<path d="M163.816 436.185C163.816 544.794 252.39 630.809 361.03 630.809C469.669 630.809 557.232 544.794 557.232 436.185C557.232 327.576 469.164 146.372 360.524 146.372C251.885 146.372 163.816 327.586 163.816 436.185Z" fill="#EAEAEA"/>
<path opacity="0.78" d="M229.554 386.062C233.842 303.748 311.221 220.706 311.221 220.706C566.85 144.359 477.335 468.993 477.335 468.993C477.335 468.993 505.653 514.504 419.688 578.219C410.334 585.129 399.559 589.869 388.144 592.095C388.215 592.184 388.279 592.279 388.336 592.378C388.336 592.378 354.962 599.458 345.86 614.628C336.474 630.263 386.455 629.211 386.455 629.211C386.455 629.211 301.36 638.9 282.144 607.548C273.336 593.187 293.775 586.502 319.018 584.53C255.849 562.432 195.047 507.465 187.077 485.175C174.567 450.202 224.497 483.152 229.554 386.062Z" fill="#C9C6CC"/>
<path fill-rule="evenodd" clip-rule="evenodd" d="M163.816 436.185C163.816 544.794 252.39 630.809 361.03 630.809C469.669 630.809 557.232 544.794 557.232 436.185C557.232 327.576 469.164 146.372 360.524 146.372C251.885 146.372 163.816 327.586 163.816 436.185Z" stroke="#251760" stroke-width="3"/>
<path d="M308.44 934.215C299.58 940.86 293.957 938.341 291.56 936.501C294.048 926.235 296.789 916.011 298.326 908.931C303.383 885.67 90.999 691.491 101.113 574.174C101.739 567.153 103.22 560.235 105.522 553.572C117.031 543.813 131.453 537.229 149.657 535.742C158.532 534.993 167.46 535.173 176.296 536.278C165.01 550.71 175.285 575.822 195.168 621.707C228.543 698.57 335.746 871.511 325.633 906.909C325.511 907.343 325.37 907.778 325.238 908.213C319.494 918.802 313.871 930.149 308.44 934.215Z" fill="#F9A395"/>
<path d="M105.522 553.572C117.031 543.813 131.453 537.229 149.657 535.742C158.532 534.993 167.46 535.173 176.296 536.278C165.01 550.71 175.285 575.822 195.168 621.707C208.225 651.785 219.501 705.649 243.713 751.16C230.566 747.337 215.952 724.865 202.248 701.604C143.589 602.279 120.166 583.984 102.124 594.401C99.3629 581.89 100.101 585.481 101.113 574.174C101.739 567.153 103.22 560.235 105.522 553.572Z" fill="#F48378"/>
<path fill-rule="evenodd" clip-rule="evenodd" d="M308.44 934.215C299.58 940.86 293.957 938.341 291.56 936.501C294.048 926.235 296.789 916.011 298.326 908.931C303.383 885.67 90.999 691.491 101.113 574.174C101.739 567.153 103.22 560.235 105.522 553.572C117.031 543.813 131.453 537.229 149.657 535.742C158.532 534.993 167.46 535.173 176.296 536.278C165.01 550.71 175.285 575.822 195.168 621.707C228.543 698.57 335.746 871.511 325.633 906.909C325.511 907.343 325.37 907.778 325.238 908.213C319.494 918.802 313.871 930.149 308.44 934.215Z" stroke="#251760" stroke-width="3" stroke-linecap="round"/>
<path d="M291.56 936.491C293.957 938.331 299.58 940.85 308.44 934.205C313.871 930.16 319.494 918.792 325.238 908.203C317.218 934.498 292.875 966.265 289.224 976.682C282.62 977.501 286.908 955.706 291.56 936.491Z" fill="#DB4D95" stroke="#B8216D" stroke-width="3" stroke-linecap="round"/>
<path d="M327.655 80.3407C327.655 80.3407 292.258 103.895 327.655 138.281C361.03 170.644 350.916 82.6567 329.678 81.6453" fill="#73BBEF"/>
<path d="M151.68 144.349C161.794 139.292 167.862 154.463 169.885 155.474C171.907 156.485 166.85 142.326 173.93 148.395C220.452 207.053 196.18 273.802 214.384 281.893C220.968 284.816 225.165 283.622 229.473 278.93C235.845 295.111 246.666 329.983 236.169 359.686C228.305 361.177 220.234 361.204 212.361 359.767C144.601 347.631 162.805 265.711 169.885 216.155C176.964 166.599 129.43 155.474 151.68 144.349Z" fill="#F9C7A5"/>
<path d="M176.964 221.212C171.907 270.768 179.998 329.427 207.304 333.472C234.611 337.517 229.554 279.87 229.554 279.87L229.746 279.638C236.148 296.133 246.494 330.408 236.168 359.686C228.305 361.177 220.234 361.204 212.361 359.767C144.601 347.631 162.805 265.711 169.884 216.155C175.174 179.16 150.011 163.565 146.188 153.451C157.94 161.239 180.797 183.681 176.964 221.212Z" fill="#F99F91"/>
<path fill-rule="evenodd" clip-rule="evenodd" d="M151.68 144.349C161.794 139.292 167.862 154.463 169.885 155.474C171.907 156.485 166.85 142.326 173.93 148.395C220.452 207.053 196.18 273.802 214.384 281.893C220.968 284.816 225.165 283.622 229.473 278.93C235.845 295.111 246.666 329.983 236.169 359.686C228.305 361.177 220.234 361.204 212.361 359.767C144.601 347.631 162.805 265.711 169.885 216.155C176.964 166.599 129.43 155.474 151.68 144.349Z" stroke="#251760" stroke-width="3" stroke-linecap="round"/>
<path d="M351.928 271.78C351.928 271.78 289.274 349.654 236.168 359.686C246.636 329.983 235.845 295.152 229.473 278.93C237.079 270.637 245.018 251.37 266.974 224.246C301.36 181.769 342.826 185.815 342.826 185.815" fill="#FCBBEB"/>
<path opacity="0.46" d="M236.169 359.686C246.636 329.983 235.845 295.152 229.473 278.93C230.05 278.313 230.616 277.615 231.193 276.907C236.462 286.434 248.841 282.975 274.054 258.703C302.372 231.396 321.587 246.567 321.587 246.567C333.572 252.858 343.342 262.67 349.582 274.682C337.769 288.659 283.217 350.766 236.169 359.686Z" fill="#E271CD"/>
<path d="M342.826 185.815C342.826 185.815 301.36 181.769 266.974 224.246C245.018 251.37 237.079 270.637 229.473 278.93C235.845 295.111 246.666 329.983 236.169 359.686C289.224 349.613 319.565 275.825 319.565 275.825C319.565 275.825 394.405 239.416 342.826 185.815" stroke="#251760" stroke-width="3" stroke-linecap="round"/>
<path d="M149.657 535.742C131.453 537.229 117.031 543.833 105.522 553.572C130.523 480.431 246.747 437.641 246.747 437.641C246.747 437.641 406.541 399.21 439.915 412.357C473.29 425.505 463.176 530.938 399.461 571.14C333.723 612.605 276.076 602.491 285.178 630.809C285.178 630.809 248.77 527.651 149.657 535.742Z" fill="#7EDCF2"/>
<path d="M351.928 489.22C263.94 477.084 246.747 437.641 246.747 437.641C246.747 437.641 406.541 399.21 439.915 412.357C473.29 425.505 463.176 530.938 399.461 571.14C333.723 612.605 276.076 602.491 285.178 630.809C285.178 630.809 255.445 546.594 176.59 536.319C204.27 517.578 271.384 584.257 318.553 580.242C366.087 576.196 439.915 501.356 351.928 489.22Z" fill="#59C2E2"/>
<path fill-rule="evenodd" clip-rule="evenodd" d="M149.657 535.742C131.453 537.229 117.031 543.833 105.522 553.572C130.523 480.431 246.747 437.641 246.747 437.641C246.747 437.641 406.541 399.21 439.915 412.357C473.29 425.505 463.176 530.938 399.461 571.14C333.723 612.605 276.076 602.491 285.178 630.809C285.178 630.809 248.77 527.651 149.657 535.742Z" stroke="#251760" stroke-width="3" stroke-linecap="round"/>
<path d="M174.941 623.73C155.018 577.845 165.01 550.71 176.296 536.278C255.374 546.382 285.179 630.809 285.179 630.809C300.349 683.4 343.837 902.863 345.86 907.92C347.882 912.977 319.565 952.419 296.303 970.624C293.36 972.93 291.247 974.062 289.75 974.244C293.451 963.655 305.931 935.55 313.496 908.931C323.61 873.534 208.316 700.593 174.941 623.73Z" fill="#F9C7A5"/>
<path d="M176.297 536.278C255.374 546.382 285.179 630.809 285.179 630.809C300.349 683.4 343.837 902.863 345.86 907.92C347.711 912.542 324.187 945.916 302.372 965.567C299.894 961.269 306.71 947.797 321.587 914.999C346.871 859.375 282.145 721.831 263.94 646.991C245.736 572.151 166.072 595.412 165.839 595.412C159.771 569.117 170.896 543.135 176.297 536.278Z" fill="#F9A395"/>
<path fill-rule="evenodd" clip-rule="evenodd" d="M174.941 623.73C155.018 577.845 165.01 550.71 176.296 536.278C255.374 546.382 285.179 630.809 285.179 630.809C300.349 683.4 343.837 902.863 345.86 907.92C347.882 912.977 319.565 952.419 296.303 970.624C293.36 972.93 291.247 974.062 289.75 974.244C293.451 963.655 305.931 935.55 313.496 908.931C323.61 873.534 208.316 700.593 174.941 623.73Z" stroke="#251760" stroke-width="3" stroke-linecap="round"/>
<path d="M439.733 349.482C440.332 346.466 440.235 343.353 439.45 340.379C428.79 297.063 335.746 279.87 336.757 250.541C337.769 221.212 355.973 173.678 375.189 179.746C375.189 179.746 438.904 187.837 479.358 273.802C500.071 317.826 506.462 355.216 499.484 381.491C481.694 354.417 453.407 349.957 439.733 349.482Z" fill="#FCBBEB"/>
<path opacity="0.46" d="M386.314 291.663C389.348 276.29 396.508 263.122 407.552 257.621C407.552 257.621 416.654 243.462 441.938 262.677C467.222 281.893 463.177 329.427 480.37 342.574C491.626 351.181 497.997 365.34 497.836 379.084C479.985 354.154 452.992 349.937 439.733 349.482C440.332 346.466 440.235 343.353 439.45 340.38C434.313 319.495 410.02 304.689 386.314 291.663Z" fill="#E271CD"/>
<path fill-rule="evenodd" clip-rule="evenodd" d="M439.733 349.482C440.332 346.466 440.235 343.353 439.45 340.379C428.79 297.063 335.746 279.87 336.757 250.541C337.769 221.212 355.973 173.678 375.189 179.746C375.189 179.746 438.904 187.837 479.358 273.802C500.071 317.826 506.462 355.216 499.484 381.491C481.694 354.417 453.407 349.957 439.733 349.482Z" stroke="#251760" stroke-width="3" stroke-linecap="round"/>
<path d="M409.575 219.189C409.888 221.89 416.766 262.03 417.939 266.551C431.218 265.084 444.699 275.835 449.088 292.098C453.245 307.46 447.915 322.671 437.013 328.87C449.918 370.74 462.519 417.02 455.086 433.596C441.938 462.925 249.781 458.88 246.747 437.641C245.139 426.375 262.322 372.662 278.817 324.734C268.026 318.464 262.767 303.344 266.904 288.052C271.586 270.718 286.595 259.653 300.673 262.95C304.819 251.532 317.542 204.019 317.542 204.019" fill="#FCBBEB"/>
<path opacity="0.46" d="M261.917 375.463C264.041 369.921 246.747 437.641 311.474 444.721C419.688 450.789 441.938 367.858 441.938 367.858C442.949 364.632 444.588 362.589 446.6 361.547C455.086 392.626 460.597 421.298 455.086 433.596C441.938 462.925 249.781 458.88 246.747 437.641C245.736 430.349 252.542 405.278 261.968 375.473L261.917 375.463Z" fill="#E271CD"/>
<path d="M380.054 163.565C380.054 163.565 384.756 234.36 347.164 227.28C326.482 222.223 355.619 184.803 330.245 171.656C304.87 158.508 368.777 127.156 380.054 163.565Z" fill="#F9C7A5"/>
<path d="M357.996 177.724C362.041 184.803 359.007 192.894 354.962 195.928C350.916 198.962 339.792 206.042 340.803 218.178C340.945 219.927 340.57 220.706 339.862 220.706C336.586 209.885 346.74 189.263 336.929 176.996C342.077 175.388 354.79 172.121 357.996 177.724Z" fill="#F99F91"/>
<path d="M325.633 115.02C325.633 115.02 327.655 125.133 317.542 137.27C307.428 149.406 305.405 188.849 342.825 185.815C380.246 182.781 384.291 143.338 378.223 132.213C372.155 121.088 340.803 84.6794 325.633 115.02Z" fill="#F9C7A5"/>
<path d="M321.587 132.213C328.95 121.543 325.633 115.02 325.633 115.02C330.204 105.918 336.252 102.793 342.633 103.268C347.69 108.578 353.576 113.21 362.102 113.169C369.677 119.733 375.866 127.884 378.223 132.213C381.773 138.716 384.969 162.129 379.548 181.081C375.843 182.21 371.923 182.445 368.109 181.769C356.984 179.747 374.177 141.315 355.973 144.349C345.233 146.139 326.26 138.423 321.587 132.213Z" fill="#F99F91"/>
<path d="M378.223 132.213C372.155 121.088 340.803 84.6794 325.633 115.02C325.633 115.02 327.655 125.133 317.542 137.27C307.428 149.406 305.406 188.849 342.826 185.815C348.172 185.445 353.406 184.102 358.269 181.85" stroke="#251760" stroke-width="3" stroke-linecap="round"/>
<path d="M415.643 100.861C415.643 100.861 407.552 85.6907 428.791 84.6794C450.029 83.668 412.609 8.82801 459.131 2.7599C505.653 -3.30821 532.96 28.0437 529.926 58.3843C526.892 88.7248 486.438 53.3275 479.358 66.4751C472.279 79.6226 499.585 114.413 475.313 128.168C444.972 145.361 434.859 91.7589 419.688 109.963C404.518 128.168 415.643 100.861 415.643 100.861Z" fill="#73BBEF"/>
<path opacity="0.45" d="M440.927 96.8157C457.108 112.997 470.256 106.929 466.211 92.7702C462.165 78.6113 455.086 49.2821 484.415 54.3389C510.144 58.7787 528.095 62.4297 526.639 35.9424C529.539 43.0454 530.668 50.7478 529.926 58.3843C526.892 88.7248 486.438 53.3275 479.358 66.4751C472.279 79.6227 499.585 114.413 475.313 128.168C444.972 145.361 434.859 91.7589 419.688 109.963C404.518 128.168 415.643 100.861 415.643 100.861C415.643 100.861 412.194 94.3884 415.724 89.6148C421.63 87.6124 431.086 86.955 440.927 96.8157Z" fill="#478CC9"/>
<path fill-rule="evenodd" clip-rule="evenodd" d="M415.643 100.861C415.643 100.861 407.552 85.6907 428.791 84.6794C450.029 83.668 412.609 8.82801 459.131 2.7599C505.653 -3.30821 532.96 28.0437 529.926 58.3843C526.892 88.7248 486.438 53.3275 479.358 66.4751C472.279 79.6226 499.585 114.413 475.313 128.168C444.972 145.361 434.859 91.7589 419.688 109.963C404.518 128.168 415.643 100.861 415.643 100.861Z" stroke="#251760" stroke-width="3" stroke-linecap="round"/>
<path d="M380.054 163.565C380.054 163.565 384.756 234.359 347.164 227.28C331.903 223.548 343.766 202.198 340.843 185.986" stroke="#251760" stroke-width="3" stroke-linecap="round"/>
<path d="M390.359 93.7815C390.359 93.7815 403.507 82.6567 415.643 93.7815C427.779 104.906 421.711 130.19 400.473 124.122C379.234 118.054 390.359 93.7815 390.359 93.7815Z" fill="#251760" stroke="#251760" stroke-width="3" stroke-linecap="round"/>
<path d="M319.565 93.7816C319.565 93.7816 320.576 140.304 372.155 138.281C381.257 142.327 361.03 179.747 382.268 178.735C403.507 177.724 425.756 118.054 394.405 89.7362C363.053 61.4184 317.542 75.5773 319.565 93.7816Z" fill="#73BBEF"/>
<path opacity="0.45" d="M372.155 138.281C329.294 139.96 321.355 108.133 319.888 97.3213V97.3213C319.888 97.3213 350.492 135.753 368.494 121.078C388.336 104.896 387.325 142.316 395.416 142.316C403.507 142.316 409.818 119.794 404.639 104.765C404.37 104.043 404.223 103.28 404.205 102.51C419.84 132.911 400.675 177.845 382.268 178.725C361.03 179.746 381.257 142.326 372.155 138.281Z" fill="#478CC9"/>
<path d="M321.587 105.26C325.562 118.893 337.344 139.646 372.155 138.281C381.257 142.326 361.03 179.746 382.268 178.735C403.507 177.724 425.756 118.054 394.405 89.7362C367.887 65.7873 331.246 72.2195 321.789 85.7919" stroke="#251760" stroke-width="3" stroke-linecap="round"/>
<path d="M327.655 80.3407C327.655 80.3407 297.315 102.884 321.587 131.677" stroke="#251760" stroke-width="3" stroke-linecap="round"/>
<path d="M415.643 255.598C415.925 257.754 416.32 259.895 416.826 262.01C417.371 264.465 419.456 266.276 421.964 266.47C433.847 267.32 445.056 276.886 449 291.5C452.752 305.356 448.876 319.667 440.067 326.787C438.275 328.268 437.559 330.688 438.257 332.906C450.706 373.673 462.276 417.556 455.086 433.596C441.938 462.925 249.781 458.88 246.747 437.641C245.18 426.688 261.371 375.666 277.411 328.81C278.191 326.563 277.503 324.069 275.682 322.539C267.045 315.369 263.192 301.776 266.903 288.052C271.131 272.386 283.793 261.838 296.587 262.394C299.1 262.493 301.39 260.956 302.25 258.592C305.466 249.762 307.428 244.433 307.428 244.433" stroke="#251760" stroke-width="3" stroke-linecap="round"/>
<path d="M442.95 428.539C381.257 430.562 309.451 393.142 304.394 407.301C299.338 421.46 289.224 417.414 284.167 408.312C279.111 399.21 293.269 383.028 312.485 382.017C330.234 381.086 435.87 383.473 442.95 349.654C456.623 350.129 481.694 354.417 499.484 381.491C492.84 406.542 473.047 427.558 442.95 428.539Z" fill="#F9C7A5"/>
<path d="M499.585 428.539C499.585 428.539 430.813 422.471 419.476 454.581C404.286 497.564 435.87 542.822 457.108 542.822L489.472 548.89" fill="#EAEAEA"/>
<path d="M499.585 428.539C499.585 428.539 430.813 422.471 419.476 454.581C404.286 497.564 435.87 542.822 457.108 542.822" stroke="#251760" stroke-width="3" stroke-linecap="round"/>
<path d="M284.228 408.413C287.191 407.068 291.489 413.015 301.36 402.244C318.553 385.051 445.984 436.63 468.233 402.244C488.663 370.68 449.422 352.748 442.859 350.018C442.859 349.896 442.919 349.775 442.95 349.654C456.623 350.129 481.694 354.417 499.484 381.491C492.84 406.532 473.047 427.558 442.95 428.539C381.257 430.562 309.451 393.142 304.394 407.301C299.338 421.46 289.305 417.444 284.228 408.413Z" fill="#F99F91"/>
<path fill-rule="evenodd" clip-rule="evenodd" d="M442.95 428.539C381.257 430.562 309.451 393.142 304.394 407.301C299.338 421.46 289.224 417.414 284.167 408.312C279.111 399.21 293.269 383.028 312.485 382.017C330.234 381.086 435.87 383.473 442.95 349.654C456.623 350.129 481.694 354.417 499.484 381.491C492.84 406.542 473.047 427.558 442.95 428.539Z" stroke="#251760" stroke-width="3" stroke-linecap="round"/>
<path d="M634.095 428.539H2Z" fill="white"/>
<path d="M634.095 428.539H2" stroke="#251760" stroke-width="3" stroke-linecap="round"/>
<path d="M234.702 332.845C233.802 325.634 239.759 319.313 247.506 319.313H448.927C456.957 319.313 463.086 326.14 461.619 333.573L446.196 414.38H244.816L234.702 332.845Z" fill="#E4E3E5" stroke="#251760" stroke-width="3" stroke-linecap="round"/>
<path d="M246.565 428.539L244.816 414.38H446.206L443.496 428.539H246.565V428.539Z" fill="#251760" stroke="#251760" stroke-width="3" stroke-linecap="round"/>
<path d="M344.343 389.096C333.451 389.096 324.621 380.267 324.621 369.375C324.621 358.483 333.451 349.654 344.343 349.654C355.234 349.654 364.064 358.483 364.064 369.375C364.064 380.267 355.234 389.096 344.343 389.096Z" fill="white"/>
<path d="M304.394 935.226C304.394 935.226 309.259 946.513 315.519 941.294C321.587 936.238 337.769 893.761 346.871 904.886C355.973 916.011 357.996 974.669 357.996 974.669H351.928C351.928 974.669 344.848 926.124 335.746 937.249C326.644 948.374 296.415 981.486 289.224 976.692C286.19 974.669 304.394 935.226 304.394 935.226Z" fill="#DB4D95" stroke="#B8216D" stroke-width="3" stroke-linecap="round"/>
<path d="M339.62 144.005C338.039 144.005 336.757 142.724 336.757 141.143C336.757 139.562 338.039 138.281 339.62 138.281C341.2 138.281 342.482 139.562 342.482 141.143C342.482 142.724 341.2 144.005 339.62 144.005Z" fill="#251760"/>
<path d="M324.449 137.937C322.869 137.937 321.587 136.656 321.587 135.075C321.587 133.494 322.869 132.213 324.449 132.213C326.03 132.213 327.312 133.494 327.312 135.075C327.312 136.656 326.03 137.937 324.449 137.937Z" fill="#251760"/>
<path d="M337.233 160.713C337.811 160.599 338.408 160.768 338.84 161.168C339.272 161.568 339.487 162.151 339.417 162.736C339.002 166.205 336.406 169.016 332.981 169.706C329.555 170.396 326.074 168.808 324.348 165.77C324.062 165.258 324.037 164.64 324.281 164.107C324.525 163.573 325.008 163.188 325.582 163.069L337.233 160.713Z" fill="#251760"/>
<path d="M332.095 135.186C332.095 135.186 330.882 142.165 324.379 144.106C317.876 146.048 320.333 149.558 323.165 151.085" stroke="#251760" stroke-width="3" stroke-linecap="round"/>
<path d="M361.03 630.809V974.669Z" fill="#EAEAEA"/>
<path d="M361.03 630.809V974.669" stroke="#251760" stroke-width="3"/>
</svg>
