<svg width="199" height="176" viewBox="0 0 199 176" fill="none" xmlns="http://www.w3.org/2000/svg">
<circle cx="91" cy="86" r="84.5" stroke="#51459E" stroke-width="3"/>
<circle cx="91.4886" cy="87.3409" r="69.8409" stroke="#9A90D6" stroke-width="3"/>
<circle cx="92.4943" cy="87.1705" r="55.6705" stroke="#CCC4FF" stroke-width="3"/>
<rect x="54.5" y="51.5" width="144" height="84" rx="1.5" fill="#EFECFF" stroke="#251760"/>
<rect x="54.5" y="51.5" width="144" height="22" rx="1.5" fill="#7276DB" stroke="#251760"/>
<circle cx="65.5" cy="62.5" r="3" fill="white" stroke="#251760"/>
<circle cx="76.5" cy="62.5" r="3" fill="white" stroke="#251760"/>
<circle cx="87.5" cy="62.5" r="3" fill="white" stroke="#251760"/>
<path d="M83 81.6232L84.4149 85.9933L84.4854 86.2108L84.6959 86.2998L88.7163 88L84.6959 89.7002L84.4854 89.7892L84.4149 90.0067L83 94.3768L81.5851 90.0067L81.5146 89.7892L81.3041 89.7002L77.2837 88L81.3041 86.2998L81.5146 86.2108L81.5851 85.9933L83 81.6232Z" fill="#F9A846" stroke="black"/>
<path d="M92 106.441L93.4217 110.283L93.5015 110.499L93.7171 110.578L97.5592 112L93.7171 113.422L93.5015 113.501L93.4217 113.717L92 117.559L90.5783 113.717L90.4985 113.501L90.2829 113.422L86.4408 112L90.2829 110.578L90.4985 110.499L90.5783 110.283L92 106.441Z" fill="#F9A846" stroke="black"/>
<path d="M105.5 89.3566L107.061 93.2936L107.145 93.507L107.362 93.582L111.468 95L107.362 96.418L107.145 96.493L107.061 96.7064L105.5 100.643L103.939 96.7064L103.855 96.493L103.638 96.418L99.5317 95L103.638 93.582L103.855 93.507L103.939 93.2936L105.5 89.3566Z" fill="#F9A846" stroke="black"/>
</svg>
