<svg width="1500" height="1500" viewBox="0 0 1500 1500" fill="none" xmlns="http://www.w3.org/2000/svg">
<path opacity="0.27" d="M590.561 471.521C590.561 471.521 911.815 392.313 1083.46 571.255C1255.1 750.197 1054.13 970.276 1208.13 1033.35C1362.14 1096.43 1454.58 1260.72 1319.63 1427.96C1184.68 1595.19 1054.11 1360.48 769.528 1442.62C484.942 1524.76 395.465 1491.03 329.456 1408.88C241.481 1254.83 526.017 1229.92 329.456 1087.63C132.894 945.343 191.564 565.406 590.561 471.521Z" fill="#9E97FC"/>
<path opacity="0.27" d="M1231.6 876.391C1231.6 876.391 1190.54 948.236 1259.48 1002.55C1328.42 1056.86 1398.84 1039.22 1373.9 996.675C1348.97 954.134 1312.34 968.811 1312.34 916.001C1312.34 863.192 1252.14 832.385 1231.6 876.391Z" fill="#9E97FC"/>
<path d="M431.172 697.474C409.181 676.936 385.713 628.522 381.318 489.239C378.055 385.898 327.141 353.564 301.137 343.763C291.384 340.082 280.624 340.082 270.872 343.763C244.818 353.614 193.953 385.898 190.691 489.239C186.283 628.546 162.827 676.936 140.824 697.474C118.821 718.011 54.3262 814.778 96.83 943.828C139.334 1072.88 286.004 1044.34 286.004 1044.34C286.004 1044.34 432.65 1072.87 475.166 943.828C517.682 814.79 453.175 717.987 431.172 697.474Z" fill="#AAC8F9"/>
<path d="M431.172 697.474C409.181 676.936 385.713 628.522 381.317 489.239C378.054 385.898 327.141 353.564 301.136 343.763C291.384 340.082 280.624 340.082 270.871 343.763L270.293 343.985C306.738 361.038 366.517 410.166 359.327 547.898C349.058 744.398 451.673 763.458 397.496 899.835C343.32 1036.21 223.886 1040.8 136.206 1006.96C195.64 1061.88 286.053 1044.3 286.053 1044.3C286.053 1044.3 432.699 1072.83 475.215 943.791C517.731 814.753 453.175 717.987 431.172 697.474Z" fill="#89B5F7"/>
<path fill-rule="evenodd" clip-rule="evenodd" d="M431.172 697.474C409.181 676.936 385.713 628.522 381.318 489.239C378.055 385.898 327.141 353.564 301.137 343.763C291.384 340.082 280.624 340.082 270.872 343.763C244.818 353.614 193.954 385.898 190.691 489.239C186.283 628.546 162.827 676.936 140.824 697.474C118.821 718.011 54.3262 814.778 96.83 943.828C139.334 1072.88 286.004 1044.34 286.004 1044.34C286.004 1044.34 432.65 1072.87 475.166 943.828C517.682 814.79 453.175 717.987 431.172 697.474Z" stroke="#5A4DAA" stroke-width="4"/>
<path d="M286.004 341.128V1413.55V341.128Z" fill="#AAC8F9"/>
<path d="M286.004 341.128V1413.55" stroke="#5A4DAA" stroke-width="4"/>
<path d="M218.579 386.674L286.004 480.768L218.579 386.674Z" fill="#AAC8F9"/>
<path d="M218.579 386.674L286.004 480.768" stroke="#5A4DAA" stroke-width="4"/>
<path d="M327.067 357.258L286.028 414.771L327.067 357.258Z" fill="#AAC8F9"/>
<path d="M327.067 357.258L286.028 414.771" stroke="#5A4DAA" stroke-width="4"/>
<path d="M378.387 455.514L286.028 601.015L378.387 455.514Z" fill="#AAC8F9"/>
<path d="M378.387 455.514L286.028 601.015" stroke="#5A4DAA" stroke-width="4"/>
<path d="M431.172 697.474L286.028 923.623L431.172 697.474Z" fill="#AAC8F9"/>
<path d="M431.172 697.474L286.028 923.623" stroke="#5A4DAA" stroke-width="4"/>
<path d="M183.353 578.692L286.004 721.262L183.353 578.692Z" fill="#AAC8F9"/>
<path d="M183.353 578.692L286.004 721.262" stroke="#5A4DAA" stroke-width="4"/>
<path d="M104.169 751.724L286.005 1017.47L104.169 751.724Z" fill="#AAC8F9"/>
<path d="M104.169 751.724L286.005 1017.47" stroke="#5A4DAA" stroke-width="4"/>
<path d="M846.877 1409.86H1416.96H846.877Z" fill="#AAC8F9"/>
<path d="M846.877 1409.86H1416.96" stroke="#5A4DAA" stroke-width="4" stroke-linecap="round"/>
<path d="M1283.14 1190.8C1218.38 1181.06 1155.89 1239.58 1143.57 1321.51C1138.8 1353.19 1142.24 1383.74 1151.99 1409.84H1361.95C1370.01 1393.08 1375.49 1375.19 1378.21 1356.79C1390.48 1274.87 1347.96 1200.55 1283.14 1190.8Z" fill="#609AEF"/>
<path d="M1247.54 1192.19C1196.88 1203.7 1153.64 1254.86 1143.62 1321.47C1138.85 1353.16 1142.29 1383.7 1152.04 1409.81H1319.02C1327.08 1393.04 1332.57 1375.15 1335.29 1356.75C1347.17 1277.95 1308.21 1206.15 1247.54 1192.19Z" fill="#89B5F7"/>
<path fill-rule="evenodd" clip-rule="evenodd" d="M1283.14 1190.8C1218.38 1181.06 1155.89 1239.58 1143.57 1321.51C1138.8 1353.19 1142.24 1383.74 1151.99 1409.84H1361.95C1370.01 1393.08 1375.49 1375.19 1378.21 1356.79C1390.48 1274.87 1347.96 1200.55 1283.14 1190.8Z" stroke="#5A4DAA" stroke-width="4" stroke-linecap="round"/>
<path d="M1377.95 1299.8L1236.36 1407.04C1235.95 1407.36 1235.38 1407.35 1234.98 1407.02C1234.58 1406.69 1234.47 1406.13 1234.71 1405.67L1330.51 1212.01" stroke="#5A4DAA" stroke-width="4" stroke-linecap="round"/>
<path d="M1092.83 1061.12C995.025 1051.38 902.79 1172.86 886.919 1332.4C884.332 1358.12 883.896 1384.01 885.614 1409.81H1235.13C1237.74 1396.1 1239.8 1382.05 1241.28 1367.65C1257.1 1208.11 1190.66 1070.85 1092.83 1061.12Z" fill="#89B5F7"/>
<path d="M1045.13 1066.64C966.608 1092.58 900.217 1199.22 886.919 1332.4C884.332 1358.12 883.896 1384.01 885.614 1409.81H1162.25C1164.87 1396.1 1166.92 1382.05 1168.4 1367.65C1182.83 1222.21 1128.89 1095.31 1045.13 1066.64Z" fill="#AAC8F9"/>
<path fill-rule="evenodd" clip-rule="evenodd" d="M1092.83 1061.12C995.025 1051.38 902.79 1172.86 886.919 1332.4C884.332 1358.12 883.896 1384.01 885.614 1409.81H1235.13C1237.74 1396.1 1239.8 1382.05 1241.28 1367.65C1257.1 1208.11 1190.66 1070.85 1092.83 1061.12Z" stroke="#5A4DAA" stroke-width="4" stroke-linecap="round"/>
<path d="M1158.39 1089.76L1061.72 1406.67C1061.66 1406.86 1061.74 1407.06 1061.91 1407.16C1062.09 1407.26 1062.31 1407.22 1062.44 1407.07L1232.43 1223.08" stroke="#5A4DAA" stroke-width="4" stroke-linecap="round"/>
<path d="M1024.05 1075.53L1061.12 1406.4C1061.13 1406.46 1061.09 1406.53 1061.02 1406.55C1060.96 1406.58 1060.89 1406.55 1060.85 1406.49L922.602 1196.96" stroke="#5A4DAA" stroke-width="4" stroke-linecap="round"/>
<path d="M1238.36 1352.71L1061.19 1407L885.133 1356.59" stroke="#5A4DAA" stroke-width="4" stroke-linecap="round"/>
<path d="M1265.28 1189.83L1242.94 1345.1" stroke="#5A4DAA" stroke-width="4" stroke-linecap="round"/>
<path d="M1236.37 1407.04L1374.25 1376.01" stroke="#5A4DAA" stroke-width="4" stroke-linecap="round"/>
<path d="M143.815 1409.86H1416.96" stroke="#251760" stroke-width="4" stroke-linecap="round"/>
<path d="M497.193 1312.58C512.474 1299.2 534.846 1291.65 547.676 1276.88C527.975 1269.88 504.581 1250.02 493.783 1236.89C484.363 1255.27 475.129 1270.93 467.52 1283.02C472.014 1294.51 480.325 1312.99 489.88 1321.13C491.846 1317.91 494.315 1315.02 497.193 1312.58Z" fill="#F99F91" stroke="#251760" stroke-width="4" stroke-linecap="round"/>
<path d="M467.52 1283.02C456.685 1300.26 449.174 1310.11 449.174 1310.11C449.174 1310.11 462.718 1408.61 479.956 1409.84C495.593 1410.96 470.672 1352.22 489.88 1321.12C480.35 1312.99 472.014 1294.51 467.52 1283.02Z" fill="#251760" stroke="#251760" stroke-width="4" stroke-linecap="round"/>
<path d="M539.291 1270.23C735.225 1044.05 656.423 669.844 656.423 669.844C458.63 605.817 540.239 901.324 545.164 1039.23C547.799 1113.1 520.071 1185.52 493.733 1236.87C504.593 1250.02 519.578 1263.22 539.291 1270.23Z" fill="#F9A141"/>
<path opacity="0.7" d="M656.423 669.844C651.731 668.317 647.2 667.012 642.817 665.891C625.714 672.479 602.923 681.824 573.483 688.325C562.242 690.788 549.683 699.05 536.447 711.793C506.132 792.368 541.95 949.32 545.164 1039.24C547.799 1113.12 520.071 1185.53 493.733 1236.89C501.864 1246.95 511.649 1255.56 522.669 1262.35C527.089 1253.4 532.1 1242.46 539.008 1230.09C574.715 1166.06 618.302 963.713 612.884 887.793C605.497 784.365 643.556 773.751 666.901 743.487C662.394 697.978 656.423 669.844 656.423 669.844Z" fill="#F27536"/>
<path fill-rule="evenodd" clip-rule="evenodd" d="M539.291 1270.23C735.225 1044.05 656.423 669.844 656.423 669.844C458.63 605.817 540.239 901.324 545.164 1039.23C547.799 1113.1 520.071 1185.52 493.733 1236.87C504.593 1250.02 519.578 1263.22 539.291 1270.23Z" stroke="#251760" stroke-width="4" stroke-linecap="round"/>
<path d="M561.701 1286.97C567.672 1087.51 547.676 736.345 547.676 736.345C545.214 696.944 494.731 627.992 415.646 660.88C372.169 820.183 463.53 1145.24 503.941 1294.23C523.424 1299.12 544.032 1296.53 561.701 1286.97Z" fill="#F9BE58"/>
<path opacity="0.57" d="M561.7 1286.97C561.7 1286.8 561.7 1286.63 561.7 1286.47C559.681 1281.72 548.218 1281.46 525.808 1270.23C490.421 1252.49 524.257 1166.06 475.006 996.145C435.851 861.062 514.197 772.68 547.971 742.12L547.651 736.345C545.189 696.944 494.706 627.992 415.621 660.88C372.169 820.183 463.53 1145.24 503.941 1294.23C523.423 1299.12 544.032 1296.53 561.7 1286.97Z" fill="#FC8E44"/>
<path fill-rule="evenodd" clip-rule="evenodd" d="M561.701 1286.97C567.672 1087.51 547.676 736.345 547.676 736.345C545.214 696.944 494.731 627.992 415.646 660.88C372.169 820.183 463.53 1145.24 503.941 1294.23C523.424 1299.12 544.032 1296.53 561.701 1286.97V1286.97Z" stroke="#251760" stroke-width="4" stroke-linecap="round"/>
<path d="M524.282 400.205C524.282 400.205 606.777 398.974 657.26 609.523C689.273 733.883 593.233 753.583 537.826 751.12C482.418 748.658 391.303 731.42 403.616 639.074C415.929 546.728 440.554 390.355 524.282 400.205Z" fill="#FC8181"/>
<path d="M655.844 695.824C615.556 732.762 526.424 733.55 479.955 687.082C431.935 639.062 491.037 552.872 497.193 520.859C503.35 488.845 472.568 495.002 472.568 495.002C472.568 495.002 454.382 495.199 430.162 502.389C416.52 547.565 408.923 599.279 403.616 639.062C391.303 731.408 482.418 748.646 537.826 751.108C576.488 752.844 634.937 743.757 655.844 695.824Z" fill="#EF6C6C"/>
<path fill-rule="evenodd" clip-rule="evenodd" d="M524.282 400.205C524.282 400.205 606.777 398.974 657.26 609.523C689.273 733.883 593.233 753.583 537.826 751.12C482.418 748.658 391.303 731.42 403.616 639.074C415.929 546.728 440.554 390.355 524.282 400.205Z" stroke="#251760" stroke-width="4" stroke-linecap="round"/>
<path d="M536.595 400.205C536.595 400.205 583.383 390.355 646.179 466.695C708.974 543.034 706.216 669.856 625.715 669.856C589.072 644.024 536.595 400.205 536.595 400.205Z" fill="#FC8181"/>
<path d="M605.287 426.173C573.422 401.547 549.732 399.503 540.645 399.824C539.641 402.066 538.765 404.364 538.022 406.706C539.894 415.141 543.526 431.209 548.402 451.427C575.65 522.213 640.81 677.354 649.035 642.324C659.304 598.786 638.778 530.721 613.328 489.387C595.486 460.477 600.608 437.427 605.287 426.173Z" fill="#EF6C6C"/>
<path fill-rule="evenodd" clip-rule="evenodd" d="M536.595 400.205C536.595 400.205 583.383 390.355 646.179 466.695C708.974 543.034 706.216 669.856 625.715 669.856C589.072 644.024 536.595 400.205 536.595 400.205Z" stroke="#251760" stroke-width="4" stroke-linecap="round"/>
<path d="M496.947 380.788C496.947 380.788 496.947 451.303 527.557 451.303C558.166 451.303 535.535 392.793 547.503 388.804C559.471 384.814 495.593 356.815 496.947 380.788Z" fill="#F9C7A5"/>
<path d="M533.061 402.89C533.061 402.89 521.819 408.824 527.976 418.675C534.132 428.525 537.37 449.186 529.589 451.168C542.357 446.514 557.526 434.681 552.601 421.137C547.676 407.593 540.609 399.43 533.061 402.89Z" fill="#F99F91"/>
<path d="M557.649 391.833C557.649 391.833 578.458 400.205 563.682 418.675C553.943 430.84 641.253 534.415 649.872 626.761C652.335 671.087 616.775 685.949 598.158 657.543C548.907 582.435 539.968 462.434 540.128 407.31C541.667 378.338 557.649 391.833 557.649 391.833Z" fill="#F9C7A5"/>
<path d="M649.872 626.761C647.816 604.758 641.253 582.115 632.634 560.272C626.478 554.115 644.947 615.68 604.315 609.523C558.757 592.285 543.772 476.323 543.772 476.323C549.781 534.44 564.618 606.396 598.158 657.543C616.775 685.973 652.335 671.087 649.872 626.761Z" fill="#F99F91"/>
<path fill-rule="evenodd" clip-rule="evenodd" d="M557.649 391.833C557.649 391.833 578.458 400.205 563.682 418.675C553.943 430.84 641.253 534.415 649.872 626.761C652.335 671.087 616.775 685.949 598.158 657.543C548.907 582.435 539.968 462.434 540.128 407.31C541.667 378.338 557.649 391.833 557.649 391.833Z" stroke="#251760" stroke-width="4" stroke-linecap="round"/>
<path d="M592.002 631.686C496.098 613.328 457.719 605.423 453.754 574.025C431.751 577.313 389.629 588.099 372.687 622.919C383.694 652.224 409.539 672.442 454.099 674.781C523.124 678.475 608.009 669.856 659.723 689.556C670.804 701.869 701.586 652.618 592.002 631.686Z" fill="#F9C7A5"/>
<path d="M431.936 632.917C413.467 603.367 452.868 575.047 452.868 575.047L450.898 574.481C428.279 578.261 388.927 589.552 372.687 622.919C383.694 652.224 409.539 672.442 454.099 674.781C521.475 678.327 603.946 670.275 655.943 688.214C617.416 655.573 449.74 661.409 431.936 632.917Z" fill="#F99F91"/>
<path fill-rule="evenodd" clip-rule="evenodd" d="M592.002 631.686C496.098 613.328 457.719 605.423 453.754 574.025C431.751 577.313 389.629 588.099 372.687 622.919C383.694 652.224 409.539 672.442 454.099 674.781C523.124 678.475 608.009 669.856 659.723 689.556C670.804 701.869 701.586 652.618 592.002 631.686Z" stroke="#251760" stroke-width="4" stroke-linecap="round"/>
<path d="M497.193 403.899C497.193 403.899 420.854 423.6 385.146 504.864C366.431 547.442 360.521 590.672 372.686 622.919C389.628 588.099 431.787 577.362 453.753 574.025C453.207 569.037 453.323 563.998 454.098 559.041C460.255 514.714 494.73 503.633 494.73 503.633C494.73 503.633 546.444 508.558 537.825 446.994C518.125 459.307 508.275 446.994 497.193 403.899Z" fill="#FC8181"/>
<path d="M539.217 447.105C539.217 446.662 539.119 446.218 539.057 445.763C519.357 458.076 507.044 448.225 495.963 405.13C495.963 405.13 419.623 424.831 383.916 506.096C365.201 548.673 359.29 591.904 371.455 624.151C388.398 589.33 430.557 578.593 452.523 575.257C452.343 573.736 452.24 572.207 452.215 570.676C446.958 564.052 420.042 566.354 401.154 551.653C378.991 534.415 406.079 497.477 436.861 465.463C467.643 433.45 500.888 464.232 521.819 467.926C535.659 470.376 538.725 456.672 539.217 447.105Z" fill="#EF6C6C"/>
<path d="M497.193 403.899C497.193 403.899 420.854 423.6 385.146 504.864C366.431 547.442 360.521 590.672 372.686 622.919C389.628 588.099 431.787 577.362 453.753 574.025C453.207 569.037 453.323 563.998 454.098 559.041C460.255 514.714 494.73 503.633 494.73 503.633" stroke="#251760" stroke-width="4" stroke-linecap="round"/>
<path d="M558.142 313.006C558.142 313.006 547.504 334.283 558.142 354.229C568.78 374.176 564.791 412.74 528.887 412.74C492.983 412.74 490.323 348.91 492.983 335.612C495.642 322.314 536.866 298.378 558.142 313.006Z" fill="#F9C7A5"/>
<path d="M553.943 341.535C552.961 334.484 553.477 327.305 555.458 320.468C550.516 318.761 545.454 317.428 540.313 316.478C513.225 311.553 486.137 336.179 486.137 353.417C486.137 370.655 492.293 387.893 498.45 390.872C504.606 393.852 504.606 382.967 503.104 373.093C501.602 363.218 504.618 365.705 510.775 375.555C516.931 385.405 528.013 378.018 528.013 358.317C527.976 346.645 542.308 342.766 553.943 341.535Z" fill="#F99F91"/>
<path d="M492.982 335.612C495.642 322.314 536.865 298.378 558.142 313.006C558.142 313.006 547.504 334.283 558.142 354.229C568.78 374.176 564.791 412.74 528.887 412.74" stroke="#251760" stroke-width="4" stroke-linecap="round"/>
<path d="M911.667 544.462C910.99 546.826 910.325 549.215 909.672 551.653C894.897 593.516 823.483 422.368 791.469 427.294C765.612 429.756 785.313 450.688 801.319 458.076C817.326 465.463 820.614 627.746 913.157 653.726C921.595 656.155 930.573 655.949 938.891 653.135C933.965 641.463 931.835 625.074 931.835 605.829C931.835 573.25 920.04 554.017 911.667 544.462Z" fill="#F9C7A5"/>
<path d="M913.158 653.726C921.595 656.155 930.574 655.949 938.891 653.135C933.966 641.463 931.836 625.074 931.836 605.829C931.836 575.934 921.9 557.292 913.81 547.036C911.483 551.16 910.116 557.551 914.598 566.428C923.217 583.666 891.204 629.224 859.191 586.129C827.177 543.034 816.096 456.844 801.32 458.076C817.327 465.463 820.614 627.746 913.158 653.726Z" fill="#F99F91"/>
<path fill-rule="evenodd" clip-rule="evenodd" d="M911.667 544.462C910.99 546.826 910.325 549.215 909.672 551.653C894.897 593.516 823.483 422.368 791.469 427.294C765.612 429.756 785.313 450.688 801.319 458.076C817.326 465.463 820.614 627.746 913.157 653.726C921.595 656.155 930.573 655.949 938.891 653.135C933.965 641.463 931.835 625.074 931.835 605.829C931.835 573.25 920.04 554.017 911.667 544.462Z" stroke="#251760" stroke-width="4" stroke-linecap="round"/>
<path d="M1011.87 406.362C1011.87 406.362 947.67 418.453 911.667 544.462C920.04 554.017 931.835 573.25 931.835 605.829C931.835 625.074 933.978 641.463 938.891 653.135C1015.23 627.758 1058.66 392.645 1011.87 406.362Z" fill="#B0D5F7"/>
<path d="M930.998 591.325C954.663 595.326 953.395 518.408 942.917 518.408C942.917 518.408 939.223 507.327 931.835 529.49C925.913 547.233 916.272 546.445 913.366 538.109C909.992 547.146 914.696 533.873 911.667 544.462C918.685 552.502 928.178 567.389 930.998 591.325Z" fill="#7EC1F2"/>
<path fill-rule="evenodd" clip-rule="evenodd" d="M1011.87 406.362C1011.87 406.362 947.67 418.453 911.667 544.462C920.04 554.017 931.835 573.25 931.835 605.829C931.835 625.074 933.978 641.463 938.891 653.135C1015.23 627.758 1058.66 392.645 1011.87 406.362Z" stroke="#251760" stroke-width="4" stroke-linecap="round"/>
<path d="M1025.41 403.899C1025.41 403.899 971.237 418.675 942.917 518.408C914.598 618.142 907.21 698.175 897.36 732.651C888.248 764.529 918.292 775.746 937.992 764.665C957.693 753.583 1048.43 399.787 1025.41 403.899Z" fill="#B0D5F7"/>
<path d="M494.73 369.423C494.73 369.423 499.656 451.919 527.556 451.304C534.193 451.156 538.318 448.558 540.842 444.211" stroke="#251760" stroke-width="4" stroke-linecap="round"/>
<path d="M966.312 566.428C966.312 566.428 940.455 706.794 920.754 695.713C903.122 685.863 915.053 656.201 913.367 649.183C906.668 686.355 902.285 715.29 897.36 732.651C888.248 764.529 918.292 775.746 937.992 764.665C946.697 759.739 969.304 687.845 989.817 609.523C990.223 608.112 989.95 606.592 989.078 605.411C987.748 603.699 968.43 563.892 966.312 566.428Z" fill="#7EC1F2"/>
<path d="M942.917 518.408C914.598 618.142 907.21 698.175 897.36 732.651C888.248 764.529 918.292 775.746 937.992 764.665C957.693 753.583 1048.43 399.787 1025.41 403.899" stroke="#251760" stroke-width="4" stroke-linecap="round"/>
<path d="M1110.01 1249.26C1079.58 1174.48 1035.76 1059.4 1043.88 988.758C1056.2 881.636 1084.51 728.957 1052.5 696.944C1020.49 664.931 962.618 677.244 962.618 677.244C962.618 677.244 875.197 853.317 971.237 1076.18C1016.97 1182.33 1052.66 1239.31 1075.62 1275.73C1092.2 1269.91 1103.38 1258.37 1110.01 1249.26Z" fill="#EA65A2"/>
<path d="M1075.62 1275.76C1092.2 1269.93 1103.37 1258.4 1110.01 1249.28C1079.58 1174.51 1035.76 1059.42 1043.88 988.782C1049.32 941.378 1057.91 885.035 1063.02 834.195C1059.85 766.475 1051.22 704.763 1028.54 681.713C1017.24 677.538 1005.33 675.278 993.289 675.027C983.586 678.832 972.591 686.527 960.044 698.779C960.044 698.779 956.424 700.096 951.425 705.12C940.983 736.077 933.791 768.037 929.964 800.483C943.323 825.675 981.234 833.592 989.706 937.032C1000.79 1072.47 1052.5 1183.29 1075.9 1211.61C1094.18 1233.77 1078.6 1258.16 1075.06 1274.81L1075.62 1275.76Z" fill="#DB4D95"/>
<path fill-rule="evenodd" clip-rule="evenodd" d="M1110.01 1249.26C1079.58 1174.48 1035.76 1059.4 1043.88 988.758C1056.2 881.636 1084.51 728.957 1052.5 696.944C1020.49 664.931 962.618 677.244 962.618 677.244C962.618 677.244 875.197 853.317 971.237 1076.18C1016.97 1182.33 1052.66 1239.31 1075.62 1275.73C1092.2 1269.91 1103.38 1258.37 1110.01 1249.26Z" stroke="#251760" stroke-width="4" stroke-linecap="round"/>
<path d="M1126.38 678.475C1102.98 673.55 1089.44 513.483 1021.72 721.57C947.325 966.459 957.901 1198.32 965.474 1302.23C977.271 1307 990.115 1308.6 1002.72 1306.85C1012.87 1247.86 1033.5 1160.2 1079.65 1035.55C1183.02 756.046 1126.38 678.475 1126.38 678.475Z" fill="#F48CB6"/>
<path opacity="0.65" d="M964.896 1294.98C965.068 1297.44 965.24 1299.9 965.413 1302.23C977.209 1307 990.053 1308.6 1002.66 1306.85C1012.8 1247.86 1033.44 1160.2 1079.59 1035.55C1183.02 756.046 1126.38 678.475 1126.38 678.475C1122.61 677.687 1119.1 672.873 1115.58 666.236C1093.02 659.11 1069.36 656.132 1045.74 657.445C1038.58 673.254 1030.61 694.235 1021.72 721.57C1021.02 723.848 1020.35 726.125 1019.68 728.403C1037.27 741.886 1061.65 757.597 1083.28 760.971C1122.68 767.127 1032.8 1006 1018.03 1131.59C1004.16 1249.42 966.459 1257.78 964.896 1294.98Z" fill="#EA65A2"/>
<path fill-rule="evenodd" clip-rule="evenodd" d="M1126.38 678.475C1102.98 673.55 1089.44 513.483 1021.72 721.57C947.325 966.459 957.901 1198.32 965.474 1302.23C977.271 1307 990.115 1308.6 1002.72 1306.85C1012.87 1247.86 1033.5 1160.2 1079.65 1035.55C1183.02 756.046 1126.38 678.475 1126.38 678.475Z" stroke="#251760" stroke-width="4" stroke-linecap="round"/>
<path d="M997.094 300.472C997.094 300.472 951.536 320.172 990.937 366.961C1013.99 394.344 1032.8 296.778 997.094 300.472Z" fill="#251760" stroke="#251760" stroke-width="4" stroke-linecap="round"/>
<path d="M1042.59 403.678C1042.59 403.678 1115.23 398.974 1154.64 504.864C1162.32 525.537 1143.73 545.595 1149.71 576.279C1182.55 744.866 1029.05 730.189 1001.96 728.957C974.869 727.726 928.08 712.951 940.393 679.706C952.706 646.462 971.175 576.279 965.019 555.347C958.862 534.415 934.237 495.014 974.869 471.62C1001.28 456.45 967.543 403.899 1042.59 403.678Z" fill="#7EDCF2"/>
<path d="M1120.22 487.626C1126.51 473.664 1127.2 460.538 1124.15 448.767C1086.18 400.87 1042.59 403.678 1042.59 403.678C1035.44 403.611 1028.3 404.25 1021.28 405.586C1009.14 424.893 1017.74 454.726 1017.74 454.726C1017.74 454.726 1036.49 460.538 1048.81 456.844C1061.12 453.15 1024.18 515.946 1047.58 642.768C1057.96 699.062 977.959 728.711 938.891 694.974C938.891 695.085 938.891 695.208 938.952 695.319C943.717 717.654 979.584 727.948 1002.02 728.957C1026.64 730.078 1156.1 742.317 1154.3 617.28C1129.38 578.852 1100.2 532.063 1120.22 487.626Z" fill="#59C2E2"/>
<path fill-rule="evenodd" clip-rule="evenodd" d="M1042.59 403.678C1042.59 403.678 1115.23 398.974 1154.64 504.864C1162.32 525.537 1143.73 545.595 1149.71 576.279C1182.55 744.866 1029.05 730.189 1001.96 728.957C974.869 727.726 928.08 712.951 940.393 679.706C952.706 646.462 971.175 576.279 965.019 555.347C958.862 534.415 934.237 495.014 974.869 471.62C1001.28 456.45 967.543 403.899 1042.59 403.678Z" stroke="#251760" stroke-width="4" stroke-linecap="round"/>
<path d="M495.986 382.339C496.817 381.482 497.172 380.271 496.934 379.101C495.703 372.514 491.283 345.241 498.301 347.58C506.28 350.24 507.61 374.176 512.929 375.506C518.248 376.836 512.929 336.942 530.167 334.283C547.405 331.623 601.975 327.634 596.656 293.059C591.337 258.485 518.199 258.485 498.252 305.027C484.954 305.027 463.678 315.666 470.326 340.931C476.557 364.4 490.125 388.003 495.986 382.339Z" fill="#7EDCF2"/>
<path d="M597.038 299.056C586.067 327.19 546.444 321.403 531.669 318.941C516.894 316.478 514.431 336.179 508.275 339.873C502.118 343.566 508.275 323.866 492.268 332.485C481.753 338.149 482.418 320.997 484.068 308.536C474.144 313.462 465.894 323.866 470.376 340.931C476.532 364.4 490.076 387.966 495.986 382.339C496.817 381.482 497.172 380.271 496.935 379.101C495.703 372.514 491.283 345.241 498.301 347.58C506.28 350.24 507.61 374.176 512.929 375.506C518.248 376.836 512.929 336.942 530.167 334.283C546.457 331.795 595.511 328.114 597.038 299.056Z" fill="#59C2E2"/>
<path fill-rule="evenodd" clip-rule="evenodd" d="M495.986 382.339C496.817 381.482 497.172 380.271 496.934 379.101C495.703 372.514 491.283 345.241 498.301 347.58C506.28 350.24 507.61 374.176 512.929 375.506C518.248 376.836 512.929 336.942 530.167 334.283C547.405 331.623 601.975 327.634 596.656 293.059C591.337 258.485 518.199 258.485 498.252 305.027C484.954 305.027 463.678 315.666 470.326 340.931C476.557 364.4 490.125 388.003 495.986 382.339Z" stroke="#251760" stroke-width="4" stroke-linecap="round"/>
<path d="M1047.58 396.511C1047.58 396.511 1053.73 448.225 1024.18 454.382C994.631 460.538 1027.88 408.824 1011.87 398.974C995.863 389.124 1037.73 369.423 1047.58 396.511Z" fill="#F9C7A5"/>
<path d="M1015.76 404.379C1020.11 419.093 1002.52 452.128 1017.74 454.726C1006.73 439.335 1021.74 430.963 1029.4 423.784C1037.06 416.606 1033.32 404.404 1033.32 404.404C1028.39 398.321 1021.78 399.688 1015.76 404.379Z" fill="#F99F91"/>
<path fill-rule="evenodd" clip-rule="evenodd" d="M1047.58 396.511C1047.58 396.511 1053.73 448.225 1024.18 454.382C994.631 460.538 1027.88 408.824 1011.87 398.974C995.863 389.124 1037.73 369.423 1047.58 396.511Z" stroke="#251760" stroke-width="4" stroke-linecap="round"/>
<path d="M1162.76 250.9C1149.42 249.52 1136.62 256.56 1130.64 268.569C1128.6 272.825 1123.8 275.004 1119.25 273.74C1099.5 267.845 1078.69 278.977 1072.63 298.679C1066.57 318.381 1077.53 339.283 1097.18 345.505C1116.83 351.726 1137.82 340.941 1144.21 321.342C1145.64 316.876 1150.08 314.087 1154.72 314.73C1156.29 314.957 1157.87 315.072 1159.45 315.075C1176.62 315.133 1190.8 301.703 1191.69 284.559C1192.57 267.416 1179.84 252.597 1162.76 250.888V250.9Z" fill="#F9BE58" stroke="#251760" stroke-width="4" stroke-linecap="round"/>
<path d="M1006.94 333.716C1006.94 333.716 1008.18 347.26 995.862 360.804C983.549 374.348 994.631 417.443 1024.18 413.749C1053.73 410.056 1063.58 359.573 1054.96 350.954C1046.34 342.335 1005.71 320.172 1006.94 333.716Z" fill="#F9C7A5"/>
<path d="M1029.43 335.058C1017.5 329.456 1006.28 326.55 1006.94 333.753C1006.94 333.753 1007.69 342.126 1002.02 352.222C1006.13 355.067 1011.33 357.775 1016.79 358.379C1029.11 359.61 1020.49 381.773 1027.88 386.698C1035.26 391.623 1038.78 386.341 1040.1 382.832C1041.42 379.323 1045.11 387.929 1040.19 397.78C1037.73 402.803 1040.27 403.382 1043.43 402.705C1053.06 391.623 1057.84 374.693 1057.94 362.959C1051.66 354.956 1040.67 342.84 1029.43 335.058Z" fill="#F99F91"/>
<path d="M1054.96 350.954C1046.34 342.335 1005.71 320.172 1006.94 333.716C1006.94 333.716 1008.18 347.26 995.862 360.804C983.549 374.348 994.631 417.443 1024.18 413.749C1026.73 413.432 1029.22 412.748 1031.57 411.718" stroke="#251760" stroke-width="4" stroke-linecap="round"/>
<path d="M1053.73 316.478C1053.73 316.478 1068.51 304.165 1079.59 316.478C1090.67 328.791 1082.05 353.417 1070.97 353.417C1059.89 353.417 1053.73 316.478 1053.73 316.478Z" fill="#FC8181" stroke="#251760" stroke-width="4" stroke-linecap="round"/>
<path d="M992.168 326.328C992.168 326.328 1000.79 341.104 1022.95 348.492C1045.11 355.879 1029.11 387.893 1035.26 387.893C1041.42 387.893 1046.34 359.573 1051.27 368.192C1056.19 376.811 1041.9 402.557 1047.58 400.205C1053.25 397.854 1084.93 375.136 1073.43 336.179C1057.43 282.002 965.08 289.39 992.168 326.328Z" fill="#F9BE58"/>
<path fill-rule="evenodd" clip-rule="evenodd" d="M992.168 326.328C992.168 326.328 1000.79 341.104 1022.95 348.492C1045.11 355.879 1029.11 387.893 1035.26 387.893C1041.42 387.893 1046.34 359.573 1051.27 368.192C1056.19 376.811 1041.9 402.557 1047.58 400.205C1053.25 397.854 1084.93 375.136 1073.43 336.179C1057.43 282.002 965.08 289.39 992.168 326.328Z" stroke="#251760" stroke-width="4" stroke-linecap="round"/>
<path d="M1079.21 412.099C1079.21 412.099 1027.88 520.871 1082.05 669.856C1136.23 818.841 1207.64 758.508 1210.11 741.27C1212.57 724.032 1162.09 661.237 1162.09 618.142C1162.09 575.047 1169.47 449.457 1079.21 412.099Z" fill="#B0D5F7"/>
<path d="M1210.11 741.27C1212.57 724.032 1162.09 661.237 1162.09 618.142C1162.09 604.302 1162.84 581.955 1160.85 556.75C1140.13 525.796 1122.09 502.943 1115.3 506.096C1115.3 506.096 1078.36 502.402 1084.51 533.184C1090.67 563.966 1174.4 667.393 1160.85 699.407C1147.31 731.42 1106.53 714.182 1085.06 677.859C1086.79 681.75 1088.32 685.53 1089.67 689.224C1142.69 813.349 1207.75 757.72 1210.11 741.27Z" fill="#7EC1F2"/>
<path d="M1079.21 412.099C1079.21 412.099 1027.88 520.871 1082.05 669.856C1136.23 818.841 1207.64 758.508 1210.11 741.27C1212.57 724.032 1162.09 661.237 1162.09 618.142" stroke="#251760" stroke-width="4" stroke-linecap="round"/>
<path d="M1114.62 571.464C1107.72 589.663 1079.91 593.898 1037.73 562.771C973.317 515.269 935.529 545.533 931.836 556.615C928.142 567.696 949.074 567.696 956.461 559.078C963.849 550.459 992.168 604.635 1046.34 642.805C1077.42 664.709 1132.83 666.334 1165.58 640.244C1160.98 601.828 1130.88 580.366 1114.62 571.464Z" fill="#F9C7A5"/>
<path d="M955.92 559.619C956.105 559.435 956.289 559.25 956.462 559.041C956.248 559.199 956.064 559.395 955.92 559.619Z" fill="#F99F91"/>
<path d="M1114.82 571.538C1113.71 575.638 1114.68 580.588 1120.22 586.129C1136.23 602.135 1117.76 663.7 1066.05 636.611C1017.46 611.173 974.315 557.477 959.06 558.203C969.316 560.333 997.229 608.144 1046.35 642.768C1077.42 664.672 1132.83 666.298 1165.58 640.207C1160.99 601.975 1131.13 580.539 1114.82 571.538Z" fill="#F99F91"/>
<path fill-rule="evenodd" clip-rule="evenodd" d="M1114.62 571.464C1107.72 589.663 1079.91 593.898 1037.73 562.771C973.317 515.269 935.529 545.533 931.836 556.615C928.142 567.696 949.074 567.696 956.461 559.078C963.849 550.459 992.168 604.635 1046.34 642.805C1077.42 664.709 1132.83 666.334 1165.58 640.244C1160.98 601.828 1130.88 580.366 1114.62 571.464Z" stroke="#251760" stroke-width="4" stroke-linecap="round"/>
<path d="M1110.14 430.322C1133.89 450.023 1161.85 480.325 1181.79 533.184C1201.72 586.043 1189.9 620.839 1165.58 640.207C1160.98 601.828 1130.88 580.366 1114.62 571.427C1120 557.231 1112.64 534.489 1089.44 513.483C1089.44 513.483 1067.28 503.633 1075.9 465.463C1084.51 427.293 1066.05 391.586 1110.14 430.322Z" fill="#B0D5F7"/>
<path d="M1181.79 533.184C1161.89 480.325 1133.89 450.048 1110.14 430.322C1093.44 415.658 1085.72 411.669 1082.1 414.439C1095.41 424.856 1157.33 476.446 1158.77 536.841C1159.91 584.183 1124.61 560.629 1115.94 566.293C1115.68 568.046 1115.24 569.767 1114.62 571.427C1130.88 580.366 1160.98 601.828 1165.58 640.207C1189.9 620.839 1201.72 586.24 1181.79 533.184Z" fill="#7EC1F2"/>
<path d="M1089.44 513.483C1112.64 534.526 1120 557.231 1114.62 571.464C1130.88 580.403 1160.98 601.865 1165.58 640.244C1189.9 620.876 1201.72 586.227 1181.79 533.221C1135 408.861 1048.11 403.333 1048.11 403.333" stroke="#251760" stroke-width="4" stroke-linecap="round"/>
<path d="M556.036 1374.33C558.856 1351.49 560.678 1321.51 561.7 1286.91C544.024 1296.45 523.415 1299.01 503.94 1294.1C514.714 1333.82 521.856 1361.01 521.868 1369.21C531.878 1374.14 545.041 1374.88 556.036 1374.33Z" fill="#F9C7A5"/>
<path d="M503.94 1294.23C514.714 1333.95 521.856 1361.13 521.868 1369.33C531.287 1373.89 543.501 1374.83 554.066 1374.47C551.603 1362.35 535.966 1367.34 532.9 1339.72C531.201 1324.45 539.906 1306.83 549.806 1292.26C535.03 1297.34 519.098 1298.02 503.94 1294.23Z" fill="#F99F91"/>
<path fill-rule="evenodd" clip-rule="evenodd" d="M556.036 1374.33C558.856 1351.49 560.678 1321.51 561.7 1286.91C544.024 1296.45 523.415 1299.01 503.94 1294.1C514.714 1333.82 521.856 1361.01 521.868 1369.21C531.878 1374.14 545.041 1374.88 556.036 1374.33Z" stroke="#251760" stroke-width="4" stroke-linecap="round"/>
<path d="M443.017 1409.86C431.541 1417.16 536.594 1424.63 548.907 1409.86C551.788 1401.77 554.14 1389.65 556.036 1374.33C545.041 1374.88 531.879 1374.14 521.868 1369.29C521.892 1369.7 521.892 1370.11 521.868 1370.52C518.125 1400.01 456.561 1401.24 443.017 1409.86Z" fill="#251760" stroke="#251760" stroke-width="4" stroke-linecap="round"/>
<path d="M993.265 1376.54C994.964 1360.21 997.402 1337.38 1002.66 1306.85C990.074 1308.59 977.252 1306.99 965.475 1302.23C966.915 1322.14 968.233 1337.36 968.836 1347.06C969.378 1355.95 968.417 1362.66 966.373 1367.71C977.307 1375.36 986.702 1376.89 993.265 1376.54Z" fill="#F9C7A5"/>
<path d="M965.585 1302.29L965.425 1302.44C965.425 1302.66 965.425 1302.88 965.425 1303.1C968.368 1305.85 987.194 1324.27 987.194 1345.83C987.194 1362.6 973.908 1361.02 967.74 1362.87C967.376 1364.52 966.886 1366.14 966.274 1367.71C977.257 1375.36 986.652 1376.89 993.215 1376.54C994.914 1360.21 997.352 1337.38 1002.61 1306.85C990.082 1308.58 977.319 1307.01 965.585 1302.29Z" fill="#F99F91"/>
<path fill-rule="evenodd" clip-rule="evenodd" d="M993.265 1376.54C994.964 1360.21 997.402 1337.38 1002.66 1306.85C990.074 1308.59 977.252 1306.99 965.475 1302.23C966.915 1322.14 968.233 1337.36 968.836 1347.06C969.378 1355.95 968.417 1362.66 966.373 1367.71C977.307 1375.36 986.702 1376.89 993.265 1376.54Z" stroke="#251760" stroke-width="4" stroke-linecap="round"/>
<path d="M902.285 1382.77C897.36 1397.54 968.774 1411.09 984.781 1409.86C989.952 1409.46 990.937 1399.39 993.264 1376.54C986.702 1376.89 977.258 1375.31 966.324 1367.71C954.54 1396.95 906.484 1370.17 902.285 1382.77Z" fill="#251760" stroke="#251760" stroke-width="4" stroke-linecap="round"/>
<path d="M1128.07 1293.38C1123.28 1281.47 1116.98 1266.44 1110.01 1249.26C1103.37 1258.37 1092.2 1269.91 1075.62 1275.73C1088.64 1296.37 1097.55 1310.41 1101.93 1323.05C1111.23 1314.52 1121.1 1302.46 1128.07 1293.38Z" fill="#F99F91" stroke="#251760" stroke-width="4" stroke-linecap="round"/>
<path d="M1101.75 1359.37C1084.51 1413.55 1077.13 1400.01 1084.51 1409.86C1091.9 1419.71 1136.23 1337.21 1137.46 1321.2C1137.69 1318.19 1134.04 1308.23 1128.07 1293.38C1121.1 1302.46 1111.23 1314.52 1101.93 1323.05C1106.04 1334.96 1106.12 1345.62 1101.75 1359.37Z" fill="#251760" stroke="#251760" stroke-width="4" stroke-linecap="round"/>
<path d="M533.639 355.645C535.665 355.645 537.308 354.002 537.308 351.976C537.308 349.95 535.665 348.307 533.639 348.307C531.612 348.307 529.97 349.95 529.97 351.976C529.97 354.002 531.612 355.645 533.639 355.645Z" fill="#251760"/>
<path d="M547.676 368.192H551.764C554.46 368.192 556.27 365.865 555.174 363.784L548.476 356.064C547.167 354.595 546.436 352.7 546.42 350.732V348.492" stroke="#251760" stroke-width="4" stroke-linecap="round"/>
<path d="M1019.74 365.496C1021.76 365.496 1023.41 363.853 1023.41 361.826C1023.41 359.8 1021.76 358.157 1019.74 358.157C1017.71 358.157 1016.07 359.8 1016.07 361.826C1016.07 363.853 1017.71 365.496 1019.74 365.496Z" fill="#251760"/>
<path d="M1005.71 378.042H1001.59C998.891 378.042 997.094 375.715 998.19 373.634L1004.88 365.914C1006.19 364.446 1006.92 362.552 1006.94 360.583V358.342" stroke="#251760" stroke-width="4" stroke-linecap="round"/>
<path d="M535.634 381.687C535.22 381.678 534.826 381.863 534.568 382.187C534.31 382.51 534.217 382.935 534.317 383.337C535.041 385.882 537.357 387.645 540.004 387.665C542.65 387.685 544.993 385.957 545.755 383.423C545.862 383.021 545.776 382.592 545.523 382.262C545.27 381.932 544.878 381.737 544.462 381.736L535.634 381.687Z" fill="#251760" stroke="#251760" stroke-width="4" stroke-linecap="round"/>
<path d="M1012.14 387.843C1011.73 387.835 1011.33 388.02 1011.07 388.343C1010.82 388.666 1010.72 389.092 1010.82 389.493C1011.55 392.039 1013.86 393.802 1016.51 393.822C1019.16 393.842 1021.5 392.114 1022.26 389.579C1022.37 389.188 1022.29 388.769 1022.05 388.442C1021.81 388.114 1021.43 387.912 1021.03 387.893L1012.14 387.843Z" fill="#251760" stroke="#251760" stroke-width="4" stroke-linecap="round"/>
<path d="M865.113 12.4626H589.478C576.582 12.4965 566.145 22.9606 566.146 35.8569V172.948C566.142 179.137 568.599 185.074 572.976 189.45C577.352 193.827 583.289 196.284 589.478 196.281H601.791C605.687 196.281 609.423 197.828 612.178 200.583C614.933 203.338 616.48 207.074 616.48 210.97V250.482C616.477 251.868 617.321 253.115 618.61 253.626C619.899 254.137 621.369 253.808 622.317 252.796L663.454 209.074C671.122 200.921 681.813 196.293 693.004 196.281H865.113C878.009 196.281 888.473 185.844 888.507 172.948V35.8569C888.507 22.9366 878.033 12.4626 865.113 12.4626V12.4626Z" fill="#AAC8F9"/>
<path fill-rule="evenodd" clip-rule="evenodd" d="M865.113 12.4626H589.478C576.582 12.4965 566.145 22.9606 566.146 35.8569V172.948C566.142 179.137 568.599 185.074 572.976 189.45C577.352 193.827 583.289 196.284 589.478 196.281H601.791C605.687 196.281 609.423 197.828 612.178 200.583C614.933 203.338 616.48 207.074 616.48 210.97V250.482C616.477 251.868 617.321 253.115 618.61 253.626C619.899 254.137 621.369 253.808 622.317 252.796L663.454 209.074C671.122 200.921 681.813 196.293 693.004 196.281H865.113C878.009 196.281 888.473 185.844 888.507 172.948V35.8569C888.507 22.9366 878.033 12.4626 865.113 12.4626V12.4626Z" stroke="#5A4DAA" stroke-width="4" stroke-linecap="round"/>
<path d="M888.458 172.948V35.8569C888.458 22.9366 877.984 12.4626 865.064 12.4626H796.013C807.784 23.4333 823.705 48.4406 824.493 103.75C825.724 191.934 667.369 149.086 638.175 207.461C627.094 229.624 620.937 243.833 617.761 253.166C619.134 254.236 621.098 254.075 622.28 252.796L663.417 209.074C671.085 200.921 681.776 196.293 692.967 196.281H865.113C877.99 196.253 888.424 185.825 888.458 172.948Z" fill="#89B5F7"/>
<path d="M693.188 82.0176H968.823C975.027 82.0176 980.978 84.4824 985.365 88.8697C989.752 93.257 992.217 99.2074 992.217 105.412V242.503C992.183 255.399 981.719 265.836 968.823 265.836H956.51C948.397 265.836 941.821 272.412 941.821 280.525V320.037C941.824 321.423 940.98 322.67 939.691 323.181C938.402 323.693 936.932 323.363 935.985 322.351L894.847 278.629C887.179 270.477 876.488 265.848 865.297 265.836H693.188C686.999 265.839 681.062 263.382 676.686 259.005C672.309 254.629 669.852 248.692 669.855 242.503V105.363C669.883 92.4856 680.311 82.0515 693.188 82.0176V82.0176Z" fill="#D2E1F9"/>
<path d="M968.823 82.0176H866.972C866.972 82.0176 959.872 76.4892 973.527 149.135C987.182 221.78 908.33 224.243 919.498 274.59C926.443 305.815 938.497 315.222 939.716 323.238C941.019 322.739 941.873 321.481 941.858 320.086V280.525C941.858 272.412 948.435 265.836 956.547 265.836H968.86C981.757 265.836 992.221 255.399 992.255 242.503V105.363C992.227 92.4472 981.739 81.9972 968.823 82.0176Z" fill="#AAC8F9"/>
<path fill-rule="evenodd" clip-rule="evenodd" d="M693.188 82.0176H968.823C975.027 82.0176 980.978 84.4824 985.365 88.8697C989.752 93.257 992.217 99.2074 992.217 105.412V242.503C992.183 255.399 981.719 265.836 968.823 265.836H956.51C948.397 265.836 941.821 272.412 941.821 280.525V320.037C941.824 321.423 940.98 322.67 939.691 323.181C938.402 323.693 936.932 323.363 935.985 322.351L894.847 278.629C887.179 270.477 876.488 265.848 865.297 265.836H693.188C686.999 265.839 681.062 263.382 676.686 259.005C672.309 254.629 669.852 248.692 669.855 242.503V105.363C669.883 92.4856 680.311 82.0515 693.188 82.0176V82.0176Z" stroke="#5A4DAA" stroke-width="4" stroke-linecap="round"/>
<path d="M758.348 209.948C765.719 209.948 771.695 203.972 771.695 196.601C771.695 189.229 765.719 183.254 758.348 183.254C750.977 183.254 745.001 189.229 745.001 196.601C745.001 203.972 750.977 209.948 758.348 209.948Z" fill="#AAC8F9"/>
<path d="M809.89 209.948C817.261 209.948 823.237 203.972 823.237 196.601C823.237 189.229 817.261 183.254 809.89 183.254C802.519 183.254 796.543 189.229 796.543 196.601C796.543 203.972 802.519 209.948 809.89 209.948Z" fill="#AAC8F9"/>
<path d="M861.444 209.948C868.815 209.948 874.791 203.972 874.791 196.601C874.791 189.229 868.815 183.254 861.444 183.254C854.072 183.254 848.097 189.229 848.097 196.601C848.097 203.972 854.072 209.948 861.444 209.948Z" fill="#AAC8F9"/>
<path d="M912.985 209.948C920.356 209.948 926.332 203.972 926.332 196.601C926.332 189.229 920.356 183.254 912.985 183.254C905.613 183.254 899.638 189.229 899.638 196.601C899.638 203.972 905.613 209.948 912.985 209.948Z" fill="#AAC8F9"/>
</svg>
