<svg width="243" height="243" viewBox="0 0 243 243" fill="none" xmlns="http://www.w3.org/2000/svg">
<circle cx="122.5" cy="125.5" r="99.5" stroke="#776961" stroke-width="2"/>
<circle cx="122.5" cy="125.5" r="71.5" stroke="#927463" stroke-width="2"/>
<rect x="40" y="74.9266" width="164" height="107.48" rx="8" fill="#DDD3CD"/>
<path d="M40 82C40 77.5817 43.5817 74 48 74H196C200.418 74 204 77.5817 204 82V99.0169H40V82Z" fill="#927463"/>
<path d="M180.317 184.926C167.346 196.954 150.998 204.717 133.478 207.167C115.959 209.616 98.1089 206.635 82.3357 198.626C66.5625 190.616 53.6244 177.963 45.2655 162.372C36.9066 146.781 33.5289 129.003 35.5879 111.433C37.6468 93.8625 45.0433 77.3461 56.7802 64.1101C68.5171 50.8742 84.03 41.555 101.228 37.4091C118.425 33.2631 136.481 34.4898 152.959 40.9236C169.438 47.3574 183.548 58.689 193.387 73.3908" stroke="white" stroke-width="2"/>
<path d="M90 82L96.1377 106.461L121 112.5L96.1377 118.539L90 143L83.8623 118.539L59 112.5L83.8623 106.461L90 82Z" fill="#FFA800" fill-opacity="0.47"/>
<path d="M147 117L151.596 137.992L173 142.5L151.596 147.008L147 168L142.404 147.008L121 142.5L142.404 137.992L147 117Z" fill="#FFA800" fill-opacity="0.47"/>
<path d="M101 143L104.536 159.876L121 163.5L104.536 167.124L101 184L97.4645 167.124L81 163.5L97.4645 159.876L101 143Z" fill="#FFA800" fill-opacity="0.47"/>
<circle cx="52.5" cy="87.5" r="2.5" fill="#D9D9D9"/>
<circle cx="59.5" cy="87.5" r="2.5" fill="#D9D9D9"/>
<circle cx="66.5" cy="87.5" r="2.5" fill="#D9D9D9"/>
</svg>
