<svg width="177" height="176" viewBox="0 0 177 176" fill="none" xmlns="http://www.w3.org/2000/svg">
<circle cx="86" cy="90" r="86" fill="#97B3FC" fill-opacity="0.28"/>
<path d="M120.278 112.258H48.7047L59.2871 71.1045C59.5145 70.2205 60.3114 69.6026 61.2241 69.6026H130.218C131.525 69.6026 132.481 70.8351 132.155 72.1006L122.215 110.756C121.988 111.64 121.191 112.258 120.278 112.258Z" fill="white" fill-opacity="0.51"/>
<path d="M48.7047 65.4588V112.258M48.7047 112.258H120.278C121.191 112.258 121.988 111.64 122.215 110.756L132.155 72.1006C132.481 70.8351 131.525 69.6026 130.218 69.6026H61.2241C60.3114 69.6026 59.5145 70.2205 59.2871 71.1045L48.7047 112.258Z" stroke="#251760"/>
<path d="M61.2325 69.3588H120.356C121.272 69.3588 121.984 68.5628 121.883 67.6526H112.932C112.73 67.6526 112.567 67.4889 112.567 67.287C112.567 67.085 112.403 66.9213 112.201 66.9213H57.2759C56.2756 66.9213 55.4291 67.6604 55.2942 68.6516L49.9235 108.115L59.293 70.8709C59.5166 69.9819 60.3159 69.3588 61.2325 69.3588Z" fill="#5A4DAA"/>
<path d="M48.7047 65.4588H49.3859C50.4905 65.4588 51.3859 64.5634 51.3859 63.4588V62.5839C51.3859 61.4793 52.2814 60.5839 53.3859 60.5839H70.3809C71.1385 60.5839 71.831 61.0119 72.1698 61.6895L73.2579 63.8658C73.5967 64.5433 74.2892 64.9713 75.0468 64.9713H119.795C120.814 64.9713 121.67 65.7376 121.783 66.7505L121.883 67.6526M121.883 67.6526V67.6526C121.984 68.5628 121.272 69.3588 120.356 69.3588H61.2325C60.3159 69.3588 59.5166 69.9819 59.293 70.8709L49.9235 108.115L55.2942 68.6516C55.4291 67.6604 56.2756 66.9213 57.2759 66.9213H112.201C112.403 66.9213 112.567 67.085 112.567 67.287V67.287C112.567 67.4889 112.73 67.6526 112.932 67.6526H121.883Z" stroke="#251760"/>
<path d="M101.354 88.6149L100.129 77.1331L90.798 83.9351L101.354 88.6149ZM80.8794 88.6149C81.8677 88.7672 81.8677 88.7677 81.8676 88.7681C81.8676 88.7682 81.8675 88.7687 81.8675 88.7689C81.8674 88.7694 81.8673 88.7697 81.8673 88.7699C81.8672 88.7704 81.8672 88.7704 81.8673 88.7699C81.8675 88.769 81.8679 88.7662 81.8687 88.7616C81.8703 88.7525 81.8731 88.7362 81.8775 88.7134C81.8863 88.6676 81.901 88.5954 81.9231 88.5004C81.9674 88.3103 82.0413 88.0305 82.1563 87.6901C82.3871 87.0069 82.7786 86.095 83.4185 85.1776C84.6762 83.3746 86.9236 81.4955 91.0029 81.3368L90.9251 79.3383C86.1422 79.5244 83.3472 81.784 81.7782 84.0334C81.0047 85.1423 80.5368 86.235 80.2615 87.05C80.1234 87.4587 80.0325 87.8012 79.9754 88.0463C79.9468 88.1689 79.9265 88.2674 79.9131 88.338C79.9063 88.3733 79.9012 88.4017 79.8976 88.4226C79.8958 88.433 79.8944 88.4416 79.8933 88.4483C79.8928 88.4517 79.8923 88.4545 79.8919 88.4569C79.8918 88.4581 79.8916 88.4592 79.8914 88.4601C79.8914 88.4606 79.8913 88.4612 79.8912 88.4614C79.8911 88.462 79.8911 88.4626 80.8794 88.6149ZM91.0029 81.3368C92.9162 81.2623 94.4184 81.6403 95.6034 82.2353L96.5008 80.448C94.9968 79.6928 93.1565 79.2514 90.9251 79.3383L91.0029 81.3368Z" fill="#251760"/>
<path d="M80.8794 92.0237L82.186 103.496L91.4685 96.6275L80.8794 92.0237ZM101.838 92.0118C100.85 91.8566 100.85 91.8561 100.85 91.8556C100.85 91.8555 100.85 91.8551 100.85 91.8548C100.85 91.8543 100.85 91.854 100.85 91.8537C100.85 91.8533 100.85 91.8532 100.85 91.8537C100.85 91.8546 100.85 91.8573 100.849 91.8618C100.847 91.8708 100.844 91.8869 100.84 91.9097C100.831 91.9553 100.816 92.0272 100.794 92.122C100.748 92.3117 100.673 92.5912 100.556 92.9312C100.32 93.6136 99.9204 94.5254 99.2659 95.4434C97.9798 97.2473 95.6736 99.1375 91.4804 99.2993L91.5574 101.298C96.4355 101.11 99.2888 98.8562 100.894 96.6043C101.686 95.4944 102.165 94.4002 102.446 93.5835C102.588 93.174 102.681 92.8307 102.739 92.585C102.769 92.462 102.789 92.3632 102.803 92.2923C102.81 92.2569 102.815 92.2284 102.819 92.2073C102.821 92.1968 102.822 92.1881 102.823 92.1814C102.824 92.178 102.824 92.1751 102.825 92.1727C102.825 92.1715 102.825 92.1704 102.825 92.1695C102.825 92.169 102.825 92.1684 102.825 92.1681C102.826 92.1675 102.826 92.167 101.838 92.0118ZM91.4804 99.2993C89.4776 99.3767 87.9112 98.9821 86.6815 98.3649L85.7843 100.152C87.3338 100.93 89.238 101.387 91.5574 101.298L91.4804 99.2993Z" fill="#251760"/>
<circle cx="91" cy="86" r="84" stroke="#251760" stroke-width="4"/>
</svg>
