<svg xmlns="http://www.w3.org/2000/svg" width="16" height="16" fill="none" viewBox="0 0 16 16">
  <path fill="#E24329" d="M8.052 14.257l2.487-7.65H5.57l2.483 7.65z"/>
  <path fill="#FCA326" d="M2.083 6.606l-.758 2.325a.515.515 0 00.187.575l6.538 4.751-5.967-7.65z"/>
  <path fill="#E24329" d="M2.084 6.606h3.484l-1.5-4.608c-.077-.235-.411-.235-.49 0L2.084 6.606z"/>
  <path fill="#FCA326" d="M14.02 6.606l.755 2.325a.515.515 0 01-.187.575l-6.54 4.751 5.972-7.65z"/>
  <path fill="#E24329" d="M14.02 6.606h-3.484l1.497-4.608c.076-.235.41-.235.49 0l1.497 4.608z"/>
  <path fill="#FC6D26" d="M8.049 14.257l2.487-7.65h3.484l-5.971 7.65z"/>
  <path fill="#FC6D26" d="M8.051 14.257l-5.967-7.65h3.484l2.483 7.65z"/>
</svg>