<svg width="1017" height="772" viewBox="0 0 1017 772" fill="none" xmlns="http://www.w3.org/2000/svg">
<ellipse cx="228.399" cy="523.821" rx="228.399" ry="219.216" fill="#927463" fill-opacity="0.26"/>
<path d="M322.013 50.6797C326.265 42.2608 334.895 36.9521 344.327 36.9521H808.004C817.162 36.9521 825.586 41.9594 829.963 50.0036L1008.22 377.613C1011 382.728 1011.91 388.653 1010.79 394.367L958.198 662.92C955.901 674.652 945.619 683.115 933.665 683.115H235.111C223.079 683.115 212.754 674.544 210.539 662.717L158.623 385.522C157.612 380.126 158.406 374.547 160.881 369.647L322.013 50.6797Z" fill="#DCD6D1"/>
<path d="M954.19 664.759H295.717C295.237 664.698 294.917 664.214 294.97 663.668C295.024 663.244 295.344 662.881 295.717 662.82H954.19C954.67 662.881 954.99 663.365 954.937 663.911C954.884 664.335 954.564 664.698 954.19 664.759Z" fill="#927463"/>
<g opacity="0.6">
<path opacity="0.6" d="M954.19 664.759H295.717C295.237 664.698 294.917 664.214 294.97 663.668C295.024 663.244 295.344 662.881 295.717 662.82H954.19C954.67 662.881 954.99 663.365 954.937 663.911C954.884 664.335 954.564 664.698 954.19 664.759Z" fill="white"/>
</g>
<path d="M399.4 581.147C395.827 522.619 391.827 518.741 391.667 518.62L391.933 518.075C392.093 518.196 396.254 521.044 399.934 581.147H399.4Z" fill="#55443A"/>
<path d="M403.134 581.147L402.6 581.087C404.947 538.312 402.387 514.985 402.387 514.743L402.92 514.682C402.92 514.924 405.48 538.312 403.134 581.147Z" fill="#55443A"/>
<path d="M406.334 582.42C403.454 555.761 410.761 535.403 410.867 535.221L411.347 535.464C411.294 535.646 404.04 555.882 406.867 582.359L406.334 582.42Z" fill="#55443A"/>
<path d="M409.321 585.691C408.147 576.179 408.201 566.485 409.534 556.973L410.067 557.094C408.734 566.546 408.681 576.118 409.854 585.57L409.321 585.691Z" fill="#55443A"/>
<path d="M410.974 535.706L413.267 535.464C414.921 535.282 416.521 534.737 417.961 533.828C418.654 533.343 419.401 532.919 420.148 532.616C423.028 531.283 426.228 531.526 429.268 531.344C434.335 531.041 439.242 529.587 443.828 527.103C444.095 526.981 444.308 526.739 444.468 526.497C444.948 525.527 444.042 524.619 443.295 524.073C439.402 521.347 435.401 518.56 430.975 517.227C426.548 515.894 421.534 516.076 417.748 519.044C413.321 522.498 411.721 529.647 410.974 535.706Z" fill="#55443A"/>
<path opacity="0.3" d="M444.522 526.194C444.362 526.133 444.255 526.073 444.148 526.012L443.028 525.346C442.068 524.8 440.682 523.952 438.975 522.983C436.948 521.831 434.868 520.923 432.681 520.256C430.015 519.408 427.294 519.166 424.521 519.529C421.801 519.893 419.188 521.165 417.108 523.164C415.454 524.921 414.121 526.981 413.267 529.344C412.467 531.344 411.934 532.98 411.614 534.131C411.454 534.676 411.294 535.1 411.187 535.464C411.134 535.646 411.081 535.767 411.027 535.949C411.027 535.767 411.081 535.646 411.134 535.464C411.241 535.1 411.347 534.676 411.507 534.131C411.934 532.495 412.467 530.859 413.107 529.284C414.014 526.921 415.294 524.74 417.001 522.983C419.134 520.923 421.801 519.59 424.574 519.287C427.348 518.923 430.121 519.165 432.788 520.014C434.975 520.741 437.055 521.71 439.081 522.861C440.788 523.831 442.175 524.74 443.082 525.346L444.148 526.073C444.255 525.951 444.362 526.073 444.522 526.194Z" fill="black"/>
<path opacity="0.3" d="M438.921 529.587C438.868 529.647 435.828 527.466 432.148 524.619C428.468 521.771 425.481 519.469 425.534 519.347C425.588 519.226 428.628 521.468 432.308 524.316C435.988 527.163 438.975 529.466 438.921 529.587Z" fill="black"/>
<path opacity="0.3" d="M435.721 519.166C435.028 519.468 434.281 519.589 433.535 519.65C432.788 519.771 432.041 519.771 431.295 519.589C432.041 519.468 432.788 519.347 433.535 519.347C434.228 519.166 434.975 519.166 435.721 519.166Z" fill="black"/>
<path opacity="0.3" d="M422.441 517.166C422.174 517.833 421.854 518.439 421.428 518.923C421.054 519.529 420.628 520.074 420.148 520.559C420.414 519.893 420.734 519.347 421.161 518.802C421.534 518.196 421.961 517.651 422.441 517.166Z" fill="black"/>
<path opacity="0.3" d="M425.161 531.586C424.628 531.344 424.148 531.041 423.721 530.677C422.868 530.071 421.641 529.163 420.414 528.133C419.188 527.103 418.014 526.133 417.214 525.406C416.787 525.043 416.361 524.619 415.934 524.194C416.414 524.497 416.894 524.861 417.321 525.224L420.574 527.89C421.854 528.92 422.974 529.829 423.828 530.496C424.254 530.859 424.734 531.223 425.161 531.586Z" fill="black"/>
<path d="M417.214 619.318H394.28L390.013 583.571H421.481L417.214 619.318Z" fill="#DDD3CD"/>
<path d="M424.148 589.024H387.347L386.813 581.147H424.681L424.148 589.024Z" fill="#DDD3CD"/>
<path opacity="0.2" d="M390.707 589.024H420.841L417.214 619.318L413.587 619.015L415.614 591.447L390.92 590.963L390.707 589.024Z" fill="black"/>
<path opacity="0.2" d="M416.307 581.208L415.241 589.024H424.148L424.681 581.147L416.307 581.208Z" fill="black"/>
<g opacity="0.2">
<g opacity="0.2">
<g opacity="0.2">
<path opacity="0.2" d="M419.401 597.991H392.093V598.596H419.401V597.991Z" fill="white"/>
</g>
</g>
</g>
<g opacity="0.2">
<g opacity="0.2">
<g opacity="0.2">
<path opacity="0.2" d="M419.401 600.414H392.093V601.02H419.401V600.414Z" fill="white"/>
</g>
</g>
</g>
<path d="M392.307 518.317C390.12 516.439 387.773 516.015 385 516.197C382.226 516.439 379.506 517.227 377 518.56C372.679 520.741 368.626 523.891 366.013 528.375C363.399 532.858 362.546 538.796 364.466 543.704C364.626 544.188 364.946 544.673 365.319 544.916C365.799 545.097 366.333 545.037 366.759 544.794C371.666 542.977 376.626 541.159 381.16 538.251C385.693 535.343 389.8 531.404 392.253 526.254C392.893 525.043 393.267 523.649 393.427 522.256C393.533 520.801 393.107 519.347 392.307 518.317Z" fill="#55443A"/>
<path opacity="0.3" d="M392.307 517.711C392.2 517.772 392.093 517.833 391.933 517.893L390.92 518.317L390.173 518.62C389.907 518.741 389.64 518.863 389.32 518.984C388.68 519.287 387.987 519.529 387.187 519.953L385.96 520.559C385.533 520.801 385.107 521.044 384.68 521.286C383.773 521.771 382.866 522.437 381.906 523.043C379.88 524.497 377.906 526.133 376.093 527.951C374.28 529.769 372.626 531.768 371.079 533.889C370.386 534.918 369.746 535.827 369.159 536.797C368.893 537.281 368.573 537.706 368.359 538.13C368.146 538.554 367.879 538.978 367.666 539.402C367.186 540.19 366.866 540.977 366.546 541.644C366.386 542.007 366.226 542.31 366.119 542.553L365.799 543.34C365.586 543.825 365.426 544.189 365.319 544.431C365.266 544.552 365.213 544.673 365.106 544.794C365.159 544.673 365.159 544.491 365.213 544.37C365.319 544.067 365.479 543.704 365.639 543.219L365.959 542.371C366.066 542.068 366.226 541.765 366.386 541.401C366.706 540.735 367.026 539.947 367.506 539.099L368.199 537.827C368.466 537.403 368.733 536.918 368.999 536.494C369.533 535.524 370.226 534.555 370.866 533.586C373.906 529.284 377.64 525.588 381.8 522.68C382.76 522.013 383.667 521.407 384.573 520.923C385 520.68 385.427 520.438 385.853 520.196L387.08 519.59C387.88 519.166 388.573 518.923 389.213 518.62C389.533 518.499 389.8 518.378 390.12 518.257L390.867 518.014L391.933 517.651C392.04 517.772 392.2 517.772 392.307 517.711Z" fill="black"/>
<path opacity="0.3" d="M375.08 528.314C373.32 529.102 371.506 529.708 369.693 530.253C367.879 530.92 366.066 531.465 364.253 531.889C366.013 531.101 367.826 530.496 369.639 529.95C372.626 528.981 375.08 528.254 375.08 528.314Z" fill="black"/>
<path opacity="0.3" d="M374.867 541.765C374.76 541.159 374.706 540.493 374.76 539.887C374.76 538.736 374.706 537.1 374.76 535.282C374.813 533.464 374.867 531.889 374.973 530.677C374.973 530.011 375.08 529.405 375.187 528.799C375.241 529.405 375.241 530.071 375.187 530.677C375.134 531.95 375.134 533.525 375.08 535.282C375.027 537.039 375.027 538.554 374.973 539.887C374.973 540.553 374.92 541.159 374.867 541.765Z" fill="black"/>
<path opacity="0.3" d="M385 535.949C384.893 535.949 384.627 532.677 384.413 528.557C384.2 524.437 384.04 521.165 384.147 521.165C384.253 521.165 384.52 524.437 384.733 528.557C384.947 532.677 385.107 535.888 385 535.949Z" fill="black"/>
<path opacity="0.3" d="M372.359 520.862C372.946 520.801 373.533 520.741 374.066 520.801C375.133 520.801 376.573 520.862 378.226 520.922C379.88 520.983 381.32 521.044 382.386 521.104C382.973 521.104 383.56 521.165 384.093 521.286C383.506 521.346 382.92 521.407 382.386 521.346C381.32 521.346 379.88 521.286 378.226 521.225C376.573 521.165 375.133 521.104 374.066 521.044C373.533 521.044 372.946 520.983 372.359 520.862Z" fill="black"/>
<path d="M387.827 505.594L385 511.471C384.947 511.592 384.84 511.774 384.733 511.774C384.627 511.774 384.467 511.653 384.413 511.471L376.893 498.323L378.6 497.233L387.827 505.594Z" fill="#55443A"/>
<path opacity="0.2" d="M387.827 505.594L385 511.471C384.947 511.592 384.84 511.774 384.733 511.774C384.627 511.774 384.467 511.653 384.413 511.471L376.893 498.323L378.6 497.233L387.827 505.594Z" fill="black"/>
<path d="M403.134 516.136L377.48 498.929C377.213 498.808 377 498.505 376.84 498.202C376.733 497.778 377 497.354 377.32 497.051C380.893 492.81 385.907 490.629 391.027 490.931C396.2 491.356 400.84 494.627 403.454 499.717C405.854 504.685 405.96 511.35 403.134 516.136Z" fill="#55443A"/>
<path opacity="0.3" d="M381.16 493.416C381.266 493.355 381.373 493.355 381.48 493.355C381.693 493.355 382.013 493.294 382.44 493.294C383.613 493.294 384.84 493.355 386.013 493.597C394.013 495.112 400.467 501.777 402.6 510.683C402.92 512.016 403.134 513.349 403.24 514.682C403.294 514.985 403.294 515.227 403.294 515.53C403.294 515.773 403.187 515.954 403.08 516.136C403.134 515.651 403.187 515.167 403.134 514.682C402.067 504.2 395.08 495.718 385.96 493.84C384.787 493.597 383.613 493.416 382.44 493.416C381.586 493.476 381.16 493.476 381.16 493.416Z" fill="black"/>
<path opacity="0.3" d="M399.614 504.261C399.187 504.564 398.76 504.746 398.334 504.927C397.534 505.291 396.36 505.776 395.08 506.2C393.8 506.624 392.627 507.048 391.773 507.29C391.293 507.472 390.867 507.533 390.387 507.593C390.813 507.351 391.24 507.169 391.72 507.048L394.974 505.897L398.227 504.685C398.707 504.443 399.187 504.321 399.614 504.261Z" fill="black"/>
<path opacity="0.3" d="M395.614 491.901C395.827 492.992 395.934 494.082 395.934 495.173C395.987 496.263 395.934 497.354 395.774 498.444C395.667 498.444 395.667 496.99 395.614 495.173C395.507 494.082 395.507 492.992 395.614 491.901Z" fill="black"/>
<path opacity="0.3" d="M377.213 498.626C377.8 498.323 378.44 498.081 379.08 497.899C380.253 497.475 381.853 496.99 383.666 496.506C385.48 496.021 387.133 495.597 388.36 495.415C389 495.233 389.64 495.173 390.333 495.112C389.693 495.354 389.053 495.536 388.413 495.657C387.24 495.96 385.587 496.384 383.773 496.869C381.96 497.354 380.36 497.839 379.186 498.202C378.493 498.323 377.853 498.505 377.213 498.626Z" fill="black"/>
<path d="M413.854 548.733C411.667 548.066 409.001 550.49 408.574 553.034C408.147 555.579 408.947 558.184 409.961 560.547C412.147 565.758 415.134 570.544 419.081 574.119C423.028 577.694 427.988 579.996 433.055 579.996C432.095 575.088 433.321 569.938 432.788 564.91C431.828 555.821 425.481 548.672 417.481 547.703C416.041 547.46 414.387 547.218 413.854 548.733Z" fill="#55443A"/>
<path opacity="0.3" d="M433.001 579.936C432.895 579.875 432.788 579.814 432.681 579.754C432.415 579.572 432.095 579.39 431.881 579.148C430.975 578.239 430.228 577.088 429.695 575.816C429.321 575.028 428.948 574.18 428.575 573.271C428.201 572.362 427.828 571.332 427.401 570.302C426.974 569.211 426.494 568.121 425.961 567.091C425.374 566 424.681 564.97 423.934 564.001C422.441 562.001 420.788 560.244 419.401 558.548C418.121 557.094 416.947 555.519 415.934 553.822C415.241 552.671 414.654 551.459 414.227 550.126C414.121 549.763 414.014 549.399 413.961 549.036C413.907 548.914 413.907 548.793 413.907 548.672C413.907 548.672 414.067 549.157 414.387 550.066C414.867 551.338 415.454 552.55 416.147 553.64C417.214 555.276 418.388 556.851 419.614 558.306C421.001 559.941 422.654 561.698 424.201 563.758C424.948 564.728 425.641 565.818 426.228 566.909C426.761 567.939 427.241 569.03 427.668 570.12C428.094 571.15 428.468 572.18 428.841 573.089C429.215 573.998 429.588 574.907 429.908 575.634C430.388 576.906 431.081 577.997 431.988 578.966C432.575 579.693 433.001 579.936 433.001 579.936Z" fill="black"/>
<path opacity="0.3" d="M421.588 575.876C421.588 575.331 421.641 574.725 421.801 574.18C421.961 573.15 422.281 571.756 422.654 570.181C423.028 568.606 423.454 567.273 423.774 566.243C423.934 565.697 424.148 565.152 424.361 564.667C424.254 565.213 424.148 565.758 423.934 566.303C423.668 567.333 423.294 568.666 422.921 570.241C422.548 571.817 422.228 573.21 422.014 574.18C421.908 574.786 421.748 575.331 421.588 575.876Z" fill="black"/>
<path opacity="0.3" d="M432.575 563.758C432.041 563.698 431.508 563.516 431.028 563.334C430.068 563.031 428.788 562.668 427.294 562.304C425.801 561.941 424.521 561.638 423.508 561.456C422.974 561.396 422.441 561.274 421.961 561.093C422.494 561.093 423.028 561.093 423.561 561.214C424.521 561.335 425.908 561.638 427.348 562.001C428.788 562.365 430.121 562.789 431.081 563.153C431.615 563.274 432.148 563.455 432.575 563.758Z" fill="black"/>
<path opacity="0.3" d="M413.374 567.273C413.374 566.606 413.481 565.94 413.587 565.334C413.801 564.122 414.121 562.486 414.494 560.668C414.867 558.851 415.347 557.276 415.667 556.124C415.827 555.518 416.041 554.913 416.307 554.307C416.201 554.973 416.041 555.579 415.881 556.246C415.614 557.397 415.187 559.033 414.761 560.79C414.334 562.547 414.014 564.183 413.747 565.394C413.747 566.061 413.587 566.667 413.374 567.273Z" fill="black"/>
<path opacity="0.3" d="M427.508 553.216C427.508 553.337 424.734 553.034 421.374 552.671C419.294 552.489 417.267 552.186 415.241 551.762C417.321 551.823 419.348 552.004 421.374 552.307C423.454 552.489 425.481 552.792 427.508 553.216Z" fill="black"/>
<path d="M402.92 523.891C402.707 521.589 400.68 519.893 398.654 519.832C396.627 519.771 394.76 521.165 393.533 522.983C392.307 524.8 391.613 527.042 391.08 529.223C389.747 534.616 388.947 540.25 389.533 545.824C390.12 551.399 392.093 556.852 395.614 560.79C396.2 561.396 396.947 562.062 397.694 561.88C398.12 561.759 398.494 561.456 398.814 561.093C405.8 553.883 409.641 543.583 409.427 532.859C409.374 530.738 409.107 528.557 408.094 526.8C407.081 525.043 404.68 523.164 402.92 523.891Z" fill="#55443A"/>
<path opacity="0.3" d="M396.734 561.577C396.734 561.456 396.68 561.335 396.68 561.214C396.68 560.911 396.68 560.547 396.627 560.123C396.574 559.154 396.574 557.76 396.627 556.003C396.68 554.246 396.734 552.186 396.947 549.884C397.16 547.581 397.427 545.037 397.854 542.431C398.28 539.826 398.814 537.342 399.294 535.1C399.774 532.859 400.36 530.859 400.894 529.223C401.427 527.587 401.854 526.254 402.174 525.346C402.334 524.921 402.44 524.558 402.547 524.316C402.6 524.194 402.654 524.073 402.707 523.952C402.707 524.073 402.654 524.194 402.6 524.316L402.334 525.406C402.014 526.315 401.587 527.648 401.16 529.284C400.734 530.92 400.147 532.919 399.614 535.161C399.08 537.403 398.6 539.826 398.174 542.492C397.747 545.158 397.48 547.581 397.267 549.884C397.054 552.186 396.947 554.246 396.894 555.943C396.84 557.639 396.787 559.093 396.787 560.063C396.787 560.547 396.787 560.911 396.787 561.214C396.787 561.335 396.787 561.456 396.734 561.577Z" fill="black"/>
<path opacity="0.3" d="M398.067 542.492C397.747 542.977 397.427 543.401 397.054 543.764C396.414 544.491 395.454 545.521 394.387 546.612C393.32 547.703 392.307 548.611 391.56 549.278C391.187 549.641 390.76 550.005 390.333 550.247C390.653 549.823 391.027 549.399 391.453 549.096L394.227 546.37L396.947 543.643C397.32 543.219 397.694 542.856 398.067 542.492Z" fill="black"/>
<path opacity="0.3" d="M406.227 549.944C405.854 549.399 405.48 548.854 405.16 548.248L402.6 544.067L399.987 539.887C399.614 539.341 399.24 538.736 398.974 538.13C399.4 538.614 399.827 539.16 400.2 539.766C400.894 540.796 401.854 542.25 402.867 543.886C403.88 545.521 404.734 547.036 405.32 548.127C405.694 548.672 405.96 549.278 406.227 549.944Z" fill="black"/>
<path opacity="0.3" d="M401.96 526.557C402.014 526.618 399.294 528.678 395.934 531.162C392.573 533.646 389.8 535.585 389.747 535.464C389.693 535.343 392.413 533.343 395.774 530.859C399.134 528.375 401.907 526.497 401.96 526.557Z" fill="black"/>
<path opacity="0.3" d="M409.587 535.888C406.814 533.101 404.147 530.193 401.64 527.042C403.08 528.375 404.414 529.829 405.694 531.344C407.081 532.798 408.361 534.313 409.587 535.888Z" fill="black"/>
<path d="M422.921 600.233V619.015H406.387V600.233H404.787V619.015H388.253V600.233H386.653V663.85H388.253V624.468H404.787V663.85H406.387V624.468H422.921V663.85H424.521V624.468V619.015V600.233H422.921Z" fill="#55443A"/>
<path opacity="0.2" d="M422.921 600.233V619.015H406.387V600.233H404.787V619.015H388.253V600.233H386.653V663.85H388.253V624.468H404.787V663.85H406.387V624.468H422.921V663.85H424.521V624.468V619.015V600.233H422.921Z" fill="black"/>
<g opacity="0.1">
<g opacity="0.1">
<g opacity="0.1">
<g opacity="0.1">
<g opacity="0.1">
<g opacity="0.1">
<path opacity="0.1" d="M442.122 297.595H416.094V328.192H442.122V297.595Z" fill="black"/>
</g>
</g>
</g>
</g>
</g>
</g>
<path d="M580.632 251.123H378.333V419.68H580.632V251.123Z" fill="#55443A"/>
<path opacity="0.4" d="M580.632 251.123H378.333V419.68H580.632V251.123Z" fill="white"/>
<path d="M583.673 251.123H580.632V419.68H583.673V251.123Z" fill="#55443A"/>
<path opacity="0.2" d="M583.673 251.123H580.632V419.68H583.673V251.123Z" fill="white"/>
<path d="M575.566 257.849H384.093V413.742H575.566V257.849Z" fill="#55443A"/>
<path opacity="0.9" d="M575.566 257.849H384.093V413.742H575.566V257.849Z" fill="white"/>
<path d="M386.333 257.849H383.987V413.742H386.333V257.849Z" fill="#55443A"/>
<path opacity="0.2" d="M386.013 257.849H383.667V413.742H386.013V257.849Z" fill="white"/>
<path d="M432.361 309.833H403.56V340.43H432.361V309.833Z" fill="white"/>
<path d="M428.148 319.528H407.134C406.921 319.528 406.707 319.709 406.707 320.012C406.707 320.255 406.867 320.497 407.134 320.497H428.148C428.361 320.497 428.574 320.315 428.574 320.073C428.574 319.77 428.414 319.588 428.148 319.528C428.148 319.588 428.148 319.528 428.148 319.528Z" fill="#55443A"/>
<path d="M428.148 324.375H407.134C406.921 324.375 406.707 324.556 406.707 324.859C406.707 325.102 406.867 325.344 407.134 325.344H428.148C428.361 325.344 428.574 325.162 428.574 324.859C428.574 324.617 428.361 324.375 428.148 324.375Z" fill="#55443A"/>
<path d="M428.148 329.161H407.134C406.921 329.161 406.707 329.343 406.707 329.646C406.707 329.888 406.867 330.13 407.134 330.13H428.148C428.361 330.13 428.574 329.949 428.574 329.706C428.574 329.403 428.414 329.161 428.148 329.161Z" fill="#55443A"/>
<path d="M425.321 334.008H409.321C409.107 334.008 408.894 334.19 408.894 334.493C408.894 334.735 409.054 334.977 409.321 334.977H425.321C425.534 334.977 425.694 334.796 425.748 334.493C425.748 334.25 425.534 334.008 425.321 334.008Z" fill="#55443A"/>
<path d="M418.388 313.529C418.388 313.832 418.281 314.196 418.068 314.438C417.854 314.68 417.588 314.802 417.268 314.802C417.108 314.802 417.001 314.741 416.841 314.68C416.734 314.62 416.574 314.499 416.521 314.377C416.414 314.256 416.361 314.135 416.307 313.953C416.254 313.832 416.254 313.65 416.254 313.469C416.254 312.802 416.734 312.257 417.268 312.257C417.268 312.257 417.268 312.257 417.321 312.257C417.908 312.378 418.388 312.863 418.388 313.529Z" fill="#55443A"/>
<path opacity="0.1" d="M472.042 355.396H443.242V401.079H472.042V355.396Z" fill="black"/>
<path d="M470.656 352.245H441.855V397.929H470.656V352.245Z" fill="white"/>
<path d="M466.442 362H445.428C445.215 362 445.002 362.182 445.002 362.484C445.002 362.727 445.162 362.969 445.428 362.969H466.442C466.656 362.969 466.869 362.787 466.869 362.545C466.869 362.242 466.656 362 466.442 362Z" fill="#55443A"/>
<path d="M466.442 391.385H445.428C445.215 391.385 445.002 391.567 445.002 391.87C445.002 392.112 445.162 392.355 445.428 392.355H466.442C466.656 392.355 466.869 392.173 466.869 391.87C466.869 391.567 466.656 391.385 466.442 391.385Z" fill="#55443A"/>
<path d="M466.442 366.847H445.428C445.215 366.847 445.002 367.029 445.002 367.332C445.002 367.574 445.162 367.816 445.428 367.816H466.442C466.656 367.816 466.869 367.635 466.869 367.332C466.869 367.089 466.656 366.847 466.442 366.847Z" fill="#55443A"/>
<path d="M466.442 371.633H445.428C445.215 371.633 445.055 371.815 445.002 372.118C445.002 372.36 445.162 372.542 445.428 372.603H466.442C466.656 372.603 466.869 372.421 466.869 372.179C466.869 371.876 466.709 371.633 466.442 371.633Z" fill="#55443A"/>
<path d="M466.442 381.57H445.428C445.215 381.57 445.055 381.752 445.002 382.055C445.002 382.297 445.162 382.539 445.428 382.539H466.442C466.656 382.539 466.869 382.358 466.869 382.115C466.869 381.752 466.656 381.57 466.442 381.57Z" fill="#55443A"/>
<path d="M466.442 386.356H445.428C445.215 386.356 445.002 386.538 445.002 386.841C445.002 387.083 445.162 387.326 445.428 387.326H466.442C466.656 387.326 466.869 387.144 466.869 386.841C466.869 386.538 466.656 386.356 466.442 386.356C466.442 386.296 466.442 386.296 466.442 386.356Z" fill="#55443A"/>
<path d="M463.616 376.48H447.615C447.402 376.48 447.188 376.662 447.188 376.965C447.188 377.207 447.348 377.45 447.615 377.45H463.616C463.829 377.45 464.042 377.268 464.042 376.965C464.042 376.723 463.829 376.48 463.616 376.48Z" fill="#55443A"/>
<path d="M456.735 356.002C456.789 356.668 456.309 357.213 455.722 357.274C455.402 357.274 455.082 357.153 454.869 356.91C454.762 356.789 454.709 356.668 454.655 356.486C454.602 356.365 454.602 356.183 454.602 356.002C454.602 355.699 454.709 355.396 454.922 355.153C455.135 354.911 455.402 354.79 455.669 354.79C456.202 354.85 456.682 355.335 456.735 356.002Z" fill="#55443A"/>
<path opacity="0.1" d="M458.122 278.752C458.122 278.752 481.216 273.905 487.03 280.448C492.843 286.992 490.763 315.832 490.763 315.832H458.122V278.752Z" fill="black"/>
<path d="M454.389 273.481C454.389 273.481 473.856 270.33 479.616 276.873C485.376 283.417 486.976 310.56 486.976 310.56H454.389V273.481Z" fill="#DDD3CD"/>
<path opacity="0.4" d="M454.389 273.481C454.389 273.481 473.856 270.33 479.616 276.873C485.376 283.417 486.976 310.56 486.976 310.56H454.389V273.481Z" fill="white"/>
<path d="M471.829 276.873C471.776 277.54 471.296 278.085 470.656 278.085C470.389 278.085 470.069 277.964 469.856 277.722C469.642 277.479 469.536 277.176 469.536 276.813C469.536 276.631 469.536 276.449 469.589 276.328C469.642 276.146 469.696 276.025 469.802 275.904C469.909 275.783 470.016 275.662 470.176 275.601C470.336 275.54 470.442 275.48 470.602 275.48C470.922 275.48 471.189 275.601 471.402 275.843C471.722 276.146 471.829 276.51 471.829 276.873Z" fill="white"/>
<path d="M480.363 283.175H461.429C460.682 283.114 460.095 283.78 460.042 284.568C459.989 285.416 460.575 286.083 461.269 286.143C461.322 286.143 461.375 286.143 461.429 286.143H480.363C481.109 286.204 481.696 285.538 481.749 284.75C481.803 283.902 481.216 283.235 480.523 283.175C480.469 283.175 480.416 283.175 480.363 283.175Z" fill="white"/>
<path d="M481.269 290.627H460.469C460.255 290.627 460.042 290.748 460.042 290.99C460.042 291.233 460.149 291.475 460.362 291.475C460.415 291.475 460.415 291.475 460.469 291.475H481.269C481.483 291.475 481.696 291.354 481.696 291.112C481.696 290.869 481.589 290.627 481.376 290.627C481.323 290.627 481.323 290.627 481.269 290.627Z" fill="white"/>
<path d="M481.269 295.959H460.469C460.255 295.959 460.042 296.08 460.042 296.322C460.042 296.565 460.149 296.807 460.362 296.807C460.415 296.807 460.415 296.807 460.469 296.807H481.269C481.483 296.807 481.696 296.686 481.696 296.443C481.696 296.201 481.589 295.959 481.376 295.959C481.323 295.959 481.323 295.959 481.269 295.959Z" fill="white"/>
<path d="M481.269 301.351H460.469C460.255 301.351 460.042 301.472 460.042 301.715C460.042 301.957 460.149 302.199 460.362 302.199C460.415 302.199 460.415 302.199 460.469 302.199H481.269C481.483 302.199 481.696 302.078 481.696 301.836C481.696 301.593 481.589 301.351 481.376 301.351C481.323 301.351 481.323 301.351 481.269 301.351Z" fill="white"/>
<path opacity="0.1" d="M558.445 279.176H524.844V330.009H558.445V279.176Z" fill="black"/>
<path d="M554.765 274.45H521.164V325.283H554.765V274.45Z" fill="white"/>
<path d="M539.404 279.66C539.404 280.569 538.711 281.357 537.911 281.357C537.111 281.296 536.471 280.569 536.471 279.66C536.471 279.236 536.631 278.812 536.898 278.509C537.164 278.206 537.538 278.025 537.911 278.025C538.711 278.025 539.351 278.752 539.404 279.66Z" fill="#55443A"/>
<path d="M546.818 287.779H526.017C525.804 287.779 525.591 287.901 525.591 288.143C525.591 288.385 525.697 288.628 525.911 288.628C525.964 288.628 525.964 288.628 526.017 288.628H546.818C547.031 288.628 547.245 288.506 547.245 288.264C547.245 288.022 547.138 287.779 546.925 287.779C546.871 287.719 546.871 287.719 546.818 287.779Z" fill="#55443A"/>
<path d="M546.818 293.111H526.017C525.804 293.111 525.591 293.232 525.591 293.475C525.591 293.717 525.697 293.959 525.911 293.959C525.964 293.959 525.964 293.959 526.017 293.959H546.818C547.031 293.959 547.245 293.838 547.245 293.596C547.245 293.353 547.138 293.111 546.925 293.111C546.871 293.111 546.871 293.111 546.818 293.111Z" fill="#55443A"/>
<path d="M546.818 304.138H526.017C525.804 304.138 525.591 304.259 525.591 304.502C525.591 304.744 525.697 304.986 525.911 304.986C525.964 304.986 525.964 304.986 526.017 304.986H546.818C547.031 304.986 547.245 304.865 547.245 304.623C547.245 304.38 547.138 304.138 546.925 304.138C546.871 304.138 546.871 304.138 546.818 304.138Z" fill="#55443A"/>
<path d="M547.298 315.65H526.497C526.284 315.65 526.124 315.832 526.124 316.074C526.124 316.316 526.284 316.498 526.497 316.498H547.298C547.511 316.498 547.671 316.316 547.671 316.074C547.671 315.832 547.511 315.65 547.298 315.65Z" fill="#55443A"/>
<path d="M543.938 298.503H526.017C525.804 298.503 525.644 298.685 525.644 298.928C525.644 299.17 525.804 299.352 526.017 299.352H543.938C544.151 299.352 544.311 299.17 544.311 298.928C544.311 298.685 544.151 298.503 543.938 298.503Z" fill="#55443A"/>
<path d="M543.938 309.47H526.017C525.804 309.47 525.644 309.652 525.644 309.894C525.644 310.136 525.804 310.318 526.017 310.318H543.938C544.151 310.318 544.311 310.136 544.311 309.894C544.311 309.712 544.151 309.47 543.938 309.47Z" fill="#55443A"/>
<path d="M786.239 332.433C791.689 332.433 796.106 327.414 796.106 321.224C796.106 315.034 791.689 310.015 786.239 310.015C780.788 310.015 776.372 315.034 776.372 321.224C776.372 327.414 780.788 332.433 786.239 332.433Z" fill="#55443A"/>
<path opacity="0.5" d="M786.239 332.433C791.689 332.433 796.106 327.414 796.106 321.224C796.106 315.034 791.689 310.015 786.239 310.015C780.788 310.015 776.372 315.034 776.372 321.224C776.372 327.414 780.788 332.433 786.239 332.433Z" fill="white"/>
<path fill-rule="evenodd" clip-rule="evenodd" d="M797.492 300.018C793.066 297.958 792.479 290.688 792.479 290.688H781.278C781.278 290.688 780.745 297.958 776.265 300.018C774.078 300.988 769.225 302.199 764.638 304.32C758.398 307.228 754.344 314.135 754.344 321.83V321.89H819.413V321.83C819.413 314.196 815.36 307.289 809.119 304.32C804.533 302.199 799.626 300.988 797.492 300.018Z" fill="#DDD3CD"/>
<path d="M791.305 288.991H782.505V290.748H791.305V288.991Z" fill="#DDD3CD"/>
<path d="M789.919 285.477H783.892V288.991H789.919V285.477Z" fill="#DDD3CD"/>
<path d="M791.305 288.991H782.505V290.748H791.305V288.991Z" fill="#DDD3CD"/>
<path d="M789.919 285.477H783.892V288.991H789.919V285.477Z" fill="#DDD3CD"/>
<path fill-rule="evenodd" clip-rule="evenodd" d="M787.412 285.477H786.345V147.033L787.412 147.154V285.477Z" fill="#DDD3CD"/>
<path opacity="0.2" d="M791.305 288.991H782.505V290.748H791.305V288.991Z" fill="black"/>
<path opacity="0.2" d="M789.919 285.477H783.892V288.991H789.919V285.477Z" fill="black"/>
<path opacity="0.2" d="M791.305 288.991H782.505V290.748H791.305V288.991Z" fill="black"/>
<path opacity="0.2" d="M789.919 285.477H783.892V288.991H789.919V285.477Z" fill="black"/>
<path opacity="0.2" fill-rule="evenodd" clip-rule="evenodd" d="M787.412 285.477H786.345V147.033L787.412 147.154V285.477Z" fill="black"/>
<path opacity="0.2" fill-rule="evenodd" clip-rule="evenodd" d="M819.413 321.83C819.413 314.196 815.36 307.289 809.119 304.32C804.533 302.139 799.626 300.988 797.492 300.018C793.066 297.958 792.479 290.688 792.479 290.688H790.079L789.865 290.748C789.865 290.748 789.119 299.715 796.052 303.472C799.092 305.108 805.013 308.137 807.093 311.045C809.013 313.772 809.279 317.346 809.279 321.951H819.36V321.83H819.413Z" fill="black"/>
<path d="M670.395 470.877H896.322C900.589 470.877 904.109 474.815 904.109 479.723V651.248C904.109 656.095 900.642 660.094 896.322 660.094H670.395C666.128 660.094 662.608 656.155 662.608 651.248V479.723C662.661 474.815 666.128 470.877 670.395 470.877Z" fill="#927463"/>
<path d="M652.902 646.037H914.456V651.793C914.456 657.731 910.189 662.578 904.962 662.578H662.395C657.169 662.578 652.902 657.731 652.902 651.793V646.037Z" fill="#927463"/>
<path d="M897.282 478.39H669.488V638.161H897.282V478.39Z" fill="white"/>
<g opacity="0.3">
<path opacity="0.3" d="M904.109 646.704C904.109 646.825 850.081 646.885 783.412 646.885C716.743 646.885 662.662 646.825 662.662 646.704C662.662 646.583 716.69 646.583 783.412 646.583C850.134 646.583 904.109 646.643 904.109 646.704Z" fill="black"/>
</g>
<path opacity="0.3" d="M757.811 647.188H809.546L806.826 651.43H760.638L757.811 647.188Z" fill="white"/>
<path d="M897.282 478.329H669.328V484.449H897.282V478.329Z" fill="#DDD3CD"/>
<path d="M674.555 481.419C674.555 482.086 674.129 482.631 673.542 482.691C672.955 482.691 672.475 482.207 672.422 481.54C672.422 480.874 672.849 480.329 673.435 480.268H673.489C674.022 480.207 674.502 480.753 674.555 481.419C674.555 481.359 674.555 481.419 674.555 481.419Z" fill="#55443A"/>
<path d="M678.822 481.419C678.822 482.086 678.395 482.631 677.809 482.691C677.222 482.691 676.742 482.207 676.689 481.54C676.689 480.874 677.115 480.329 677.702 480.268H677.755C678.342 480.207 678.822 480.753 678.822 481.419C678.822 481.359 678.822 481.419 678.822 481.419Z" fill="white"/>
<path d="M683.142 481.419C683.142 482.086 682.716 482.631 682.129 482.691C681.542 482.691 681.062 482.207 681.009 481.54C681.009 480.874 681.436 480.329 682.022 480.268H682.076C682.662 480.207 683.089 480.753 683.142 481.419C683.142 481.359 683.142 481.419 683.142 481.419Z" fill="#927463"/>
<path d="M897.175 484.449H893.282V638.1H897.175V484.449Z" fill="#927463"/>
<path opacity="0.7" d="M897.175 484.449H893.282V638.1H897.175V484.449Z" fill="white"/>
<path d="M895.255 537.706C894.722 537.706 894.242 537.16 894.242 536.554V486.509C894.242 485.903 894.669 485.357 895.255 485.357C895.789 485.357 896.269 485.842 896.269 486.509V536.554C896.269 537.221 895.789 537.706 895.255 537.706Z" fill="#DDD3CD"/>
<path d="M845.76 625.377H720.957V616.228H845.76V625.377ZM721.437 624.831H845.28V616.773H721.437V624.831Z" fill="#55443A"/>
<path d="M725.49 618.106H722.663V623.438H725.49V618.106Z" fill="#55443A"/>
<path d="M729.276 618.106H726.45V623.438H729.276V618.106Z" fill="#55443A"/>
<path d="M733.117 618.106H730.29V623.438H733.117V618.106Z" fill="#55443A"/>
<path d="M736.957 618.106H734.13V623.438H736.957V618.106Z" fill="#55443A"/>
<path d="M740.797 618.106H737.971V623.438H740.797V618.106Z" fill="#55443A"/>
<path d="M744.637 618.106H741.811V623.438H744.637V618.106Z" fill="#55443A"/>
<path d="M748.424 618.106H745.597V623.438H748.424V618.106Z" fill="#55443A"/>
<path d="M752.264 618.106H749.438V623.438H752.264V618.106Z" fill="#55443A"/>
<path d="M756.104 618.106H753.278V623.438H756.104V618.106Z" fill="#55443A"/>
<path d="M759.945 618.106H757.118V623.438H759.945V618.106Z" fill="#55443A"/>
<path d="M763.785 618.106H760.958V623.438H763.785V618.106Z" fill="#55443A"/>
<path d="M767.571 618.106H764.745V623.438H767.571V618.106Z" fill="#55443A"/>
<path d="M771.411 618.106H768.585V623.438H771.411V618.106Z" fill="#55443A"/>
<path d="M775.252 618.106H772.425V623.438H775.252V618.106Z" fill="#55443A"/>
<path d="M779.092 618.106H776.265V623.438H779.092V618.106Z" fill="#55443A"/>
<path d="M782.932 618.106H780.105V623.438H782.932V618.106Z" fill="#55443A"/>
<path d="M786.719 618.106H783.892V623.438H786.719V618.106Z" fill="#55443A"/>
<path d="M790.559 618.106H787.732V623.438H790.559V618.106Z" fill="#55443A"/>
<path d="M794.399 618.106H791.572V623.438H794.399V618.106Z" fill="#55443A"/>
<path d="M767.305 554.67L766.238 550.126C766.185 549.944 766.078 549.823 765.918 549.823H752.904C752.691 549.823 752.584 550.005 752.584 550.187V603.626C752.584 603.868 752.744 603.989 752.904 603.989H819.093C819.306 603.989 819.413 603.807 819.413 603.626V555.276C819.413 555.094 819.253 554.913 819.093 554.913H767.625C767.465 554.973 767.358 554.852 767.305 554.67Z" fill="#55443A"/>
<path opacity="0.2" d="M767.305 554.67L766.238 550.126C766.185 549.944 766.078 549.823 765.918 549.823H752.904C752.691 549.823 752.584 550.005 752.584 550.187V603.626C752.584 603.868 752.744 603.989 752.904 603.989H819.093C819.306 603.989 819.413 603.807 819.413 603.626V555.276C819.413 555.094 819.253 554.913 819.093 554.913H767.625C767.465 554.973 767.358 554.852 767.305 554.67Z" fill="black"/>
<path d="M752.744 569.151L794.292 583.934L811.039 523.407L780.212 512.38L766.345 520.135L752.744 569.151Z" fill="#927463"/>
<path opacity="0.6" d="M752.744 569.151L794.292 583.934L811.039 523.407L780.212 512.38L766.345 520.135L752.744 569.151Z" fill="white"/>
<path d="M780.212 512.38L766.345 520.135L777.012 523.952L780.212 512.38Z" fill="#927463"/>
<path d="M781.129 523.897L780.697 525.458L803.748 533.689L804.18 532.128L781.129 523.897Z" fill="#927463"/>
<path d="M780.014 527.784L779.582 529.344L802.628 537.575L803.06 536.015L780.014 527.784Z" fill="#927463"/>
<path d="M776.564 529.804L776.126 531.364L799.119 539.61L799.551 538.05L776.564 529.804Z" fill="#927463"/>
<path d="M767.139 531.79L766.707 533.35L800.495 545.416L800.927 543.855L767.139 531.79Z" fill="#927463"/>
<path d="M766.057 535.753L765.625 537.313L799.412 549.378L799.844 547.818L766.057 535.753Z" fill="#927463"/>
<path d="M764.942 539.644L764.51 541.205L798.298 553.27L798.73 551.709L764.942 539.644Z" fill="#927463"/>
<path d="M763.881 543.549L763.449 545.11L797.231 557.175L797.663 555.614L763.881 543.549Z" fill="#927463"/>
<path d="M762.793 547.521L762.361 549.082L796.148 561.147L796.58 559.586L762.793 547.521Z" fill="#927463"/>
<path d="M761.726 551.42L761.294 552.98L795.076 565.046L795.508 563.485L761.726 551.42Z" fill="#927463"/>
<path d="M760.606 555.316L760.174 556.876L793.956 568.942L794.388 567.381L760.606 555.316Z" fill="#927463"/>
<path d="M759.523 559.279L759.091 560.839L792.879 572.904L793.311 571.343L759.523 559.279Z" fill="#927463"/>
<path d="M758.456 563.193L758.024 564.753L791.807 576.818L792.239 575.258L758.456 563.193Z" fill="#927463"/>
<path d="M752.691 604.11H818.88C819.093 604.11 819.2 603.928 819.2 603.747C819.2 603.747 819.2 603.747 819.2 603.686L814.666 559.396C814.666 559.214 814.506 559.033 814.346 559.033H761.758C761.598 559.033 761.491 558.911 761.438 558.79L759.945 554.61C759.891 554.489 759.785 554.367 759.625 554.367H747.677C747.464 554.367 747.357 554.549 747.357 554.731V554.791L752.371 603.747C752.371 603.989 752.478 604.11 752.691 604.11Z" fill="#55443A"/>
<path d="M562.499 628.406L577.379 628.345L577.806 638.1C577.912 640.645 579.032 643.008 580.846 644.462L591.779 653.308L564.365 652.52L562.499 628.406Z" fill="#FC9D9D"/>
<path opacity="0.15" d="M572.312 648.642L576.259 650.4L564.312 651.914L562.979 635.434H577.592L577.699 637.373L568.952 638.827C567.992 639.009 567.352 639.978 567.459 641.008V641.19C567.672 644.583 569.592 647.431 572.312 648.642Z" fill="black"/>
<path d="M517.164 628.406L531.724 628.345L529.431 652.035H517.11L517.164 628.406Z" fill="#FC9D9D"/>
<path opacity="0.15" d="M517.164 652.157L517.217 635.374L531.084 635.313L530.871 637.313L522.017 638.827C521.164 638.948 520.524 639.736 520.524 640.705L520.257 647.976L517.164 652.157Z" fill="black"/>
<path d="M516.897 441.794H572.099L578.019 635.434H562.819L547.458 477.542C547.458 476.512 546.711 475.663 545.805 475.663C544.898 475.663 544.151 476.512 544.151 477.542L532.151 635.434H516.951V441.794H516.897Z" fill="#927463"/>
<path opacity="0.2" d="M525.857 442.097L523.404 631.375L516.844 631.314L517.004 442.097H525.857Z" fill="black"/>
<path d="M516.897 646.764L516.844 648.158C516.844 649.309 516.631 650.521 516.311 651.611L514.817 656.458C514.391 657.852 514.177 659.245 514.177 660.7V660.942C514.231 661.911 514.977 662.699 515.831 662.638H530.978C531.831 662.699 532.578 661.911 532.631 660.942V660.336C532.631 659.064 532.418 657.852 532.098 656.64L530.764 651.672C530.498 650.642 530.338 649.612 530.338 648.521V646.704C530.338 645.552 529.964 644.462 529.271 643.614L529.058 643.311C526.177 639.978 521.431 639.918 518.444 643.19L518.071 643.614C517.377 644.522 516.951 645.613 516.897 646.764Z" fill="#DDD3CD"/>
<path d="M515.937 631.435H533.271L532.951 635.434H515.937V631.435Z" fill="#927463"/>
<path opacity="0.15" d="M515.937 631.435H523.191L523.031 635.434H515.937V631.435Z" fill="black"/>
<path opacity="0.51" d="M514.124 659.609H532.524C532.578 659.851 532.578 660.094 532.578 660.336V660.942C532.524 661.911 531.778 662.699 530.924 662.638H515.777C514.924 662.699 514.177 661.911 514.124 660.942V659.609Z" fill="black"/>
<path d="M564.045 645.734L569.859 647.794C570.712 648.097 571.619 647.855 572.312 647.188L576.899 642.705C577.912 641.675 579.459 641.675 580.526 642.584L590.926 651.733L599.086 654.823C601.486 655.731 603.14 658.276 603.14 661.184C603.14 662.033 602.553 662.639 601.806 662.699H565.485C563.779 662.699 562.339 661.124 562.339 659.185V647.067C562.339 646.28 562.925 645.674 563.619 645.674C563.885 645.674 563.992 645.674 564.045 645.734Z" fill="#DDD3CD"/>
<path opacity="0.51" d="M562.499 659.791H603.033C603.14 660.275 603.193 660.76 603.193 661.305C603.193 662.154 602.606 662.76 601.86 662.82H565.539C564.045 662.76 562.765 661.487 562.499 659.791Z" fill="black"/>
<path d="M580.632 647.431L582.819 644.765C582.926 644.644 582.926 644.401 582.819 644.22C582.712 644.098 582.499 644.098 582.339 644.22L580.152 646.885C580.046 647.007 580.046 647.249 580.152 647.37C580.206 647.431 580.259 647.431 580.366 647.491C580.472 647.491 580.526 647.431 580.632 647.431Z" fill="white"/>
<path d="M575.086 367.635C575.352 360.061 570.819 353.154 566.125 351.457L554.712 346.489C554.712 346.429 551.565 345.52 551.565 345.459L552.738 345.823L535.138 345.156L534.231 345.459L512.844 351.215C507.244 352.669 503.243 358.667 503.35 365.453L503.67 383.024L517.057 404.29L516.15 444.157C516.097 445.612 517.11 446.823 518.391 446.884H570.552C571.779 446.884 572.792 445.733 572.846 444.339L575.086 367.635Z" fill="#DDD3CD"/>
<path d="M582.339 648.945L584.526 646.28C584.632 646.158 584.632 645.916 584.526 645.734C584.419 645.613 584.206 645.613 584.046 645.734L581.859 648.4C581.752 648.521 581.752 648.764 581.859 648.945C581.912 649.006 581.966 649.067 582.072 649.067C582.179 649.006 582.286 649.006 582.339 648.945Z" fill="white"/>
<path d="M584.099 650.46L586.286 647.794C586.393 647.673 586.393 647.431 586.286 647.249C586.179 647.128 585.966 647.128 585.806 647.249L583.619 649.915C583.513 650.036 583.513 650.278 583.619 650.399C583.673 650.46 583.726 650.46 583.833 650.521C583.939 650.581 583.993 650.521 584.099 650.46Z" fill="white"/>
<path d="M526.871 647.491C526.924 647.31 526.871 647.007 526.711 646.885C524.737 645.795 522.391 645.795 520.417 646.885C520.204 647.007 520.151 647.249 520.257 647.491C520.364 647.734 520.577 647.794 520.791 647.673C522.551 646.704 524.577 646.704 526.337 647.673C526.391 647.734 526.444 647.734 526.497 647.734C526.657 647.734 526.817 647.673 526.871 647.491Z" fill="white"/>
<path d="M526.871 649.733C526.924 649.551 526.871 649.249 526.711 649.127C524.737 648.037 522.391 648.037 520.417 649.127C520.204 649.249 520.151 649.491 520.257 649.733C520.364 649.976 520.577 650.036 520.791 649.915C522.551 648.946 524.577 648.946 526.337 649.915C526.391 649.976 526.444 649.976 526.497 649.976C526.657 649.976 526.817 649.854 526.871 649.733Z" fill="white"/>
<path d="M526.871 651.854C526.978 651.611 526.871 651.369 526.711 651.248C524.737 650.157 522.391 650.157 520.417 651.248C520.204 651.369 520.151 651.611 520.257 651.854C520.364 652.096 520.577 652.157 520.791 652.036C522.551 651.066 524.577 651.066 526.337 652.036C526.391 652.096 526.444 652.096 526.497 652.096C526.657 652.096 526.818 652.036 526.871 651.854Z" fill="white"/>
<path d="M570.286 354.426C570.286 354.426 576.899 358.789 577.912 373.148L583.299 417.256L567.405 416.529L570.286 354.426Z" fill="#DDD3CD"/>
<path opacity="0.2" d="M562.765 634.586L547.458 477.542C547.405 476.512 546.711 475.724 545.805 475.724H548.951C552.952 475.724 556.365 479.299 556.845 484.085L571.885 633.132L562.765 634.586Z" fill="black"/>
<path d="M561.272 631.435H578.339L578.606 635.434H561.592L561.272 631.435Z" fill="#927463"/>
<path opacity="0.15" d="M515.937 631.435H533.271L532.951 635.434H515.937V631.435Z" fill="black"/>
<path opacity="0.3" d="M528.258 412.288L521.004 411.197L522.871 373.693C522.871 373.633 522.977 373.572 523.137 373.512C523.937 373.269 524.737 373.875 524.951 374.784C524.951 374.905 525.004 375.026 525.004 375.147L525.484 408.834L555.832 414.106C556.152 414.166 556.365 414.469 556.365 414.833C556.365 415.257 556.098 415.56 555.725 415.56C555.672 415.56 555.672 415.56 555.618 415.56L528.258 412.288Z" fill="black"/>
<path opacity="0.15" d="M561.272 631.435H578.339L578.606 635.434H561.592L561.272 631.435Z" fill="black"/>
<path opacity="0.3" d="M572.739 357.213L567.299 416.408L577.859 416.893L575.672 383.63L575.512 376.662C575.512 375.874 575.139 375.208 574.606 374.723L572.739 357.213Z" fill="black"/>
<path opacity="0.15" d="M561.272 631.435H571.352L571.725 635.434H561.592L561.272 631.435Z" fill="black"/>
<path opacity="0.3" d="M525.964 427.556L525.751 446.884H518.391C517.11 446.823 516.097 445.612 516.097 444.157L516.417 429.253L525.964 427.556Z" fill="black"/>
<g opacity="0.6">
<path opacity="0.6" d="M526.284 381.57C526.874 381.57 527.351 381.027 527.351 380.358C527.351 379.689 526.874 379.146 526.284 379.146C525.695 379.146 525.217 379.689 525.217 380.358C525.217 381.027 525.695 381.57 526.284 381.57Z" fill="white"/>
<path opacity="0.6" d="M534.871 359.758C535.46 359.758 535.938 359.215 535.938 358.546C535.938 357.877 535.46 357.335 534.871 357.335C534.282 357.335 533.804 357.877 533.804 358.546C533.804 359.215 534.282 359.758 534.871 359.758Z" fill="white"/>
<path opacity="0.6" d="M520.471 354.729C521.06 354.729 521.537 354.186 521.537 353.518C521.537 352.848 521.06 352.306 520.471 352.306C519.881 352.306 519.404 352.848 519.404 353.518C519.404 354.186 519.881 354.729 520.471 354.729Z" fill="white"/>
<path opacity="0.6" d="M571.246 400.655C571.835 400.655 572.312 400.112 572.312 399.443C572.312 398.774 571.835 398.232 571.246 398.232C570.657 398.232 570.179 398.774 570.179 399.443C570.179 400.112 570.657 400.655 571.246 400.655Z" fill="white"/>
<path opacity="0.6" d="M539.671 433.252C540.261 433.252 540.738 432.709 540.738 432.04C540.738 431.37 540.261 430.828 539.671 430.828C539.082 430.828 538.605 431.37 538.605 432.04C538.605 432.709 539.082 433.252 539.671 433.252Z" fill="white"/>
<path opacity="0.6" d="M524.097 442.764C524.686 442.764 525.164 442.221 525.164 441.552C525.164 440.883 524.686 440.34 524.097 440.34C523.508 440.34 523.031 440.883 523.031 441.552C523.031 442.221 523.508 442.764 524.097 442.764Z" fill="white"/>
<path opacity="0.6" d="M564.419 431.979C565.008 431.979 565.485 431.436 565.485 430.767C565.485 430.098 565.008 429.556 564.419 429.556C563.83 429.556 563.352 430.098 563.352 430.767C563.352 431.436 563.83 431.979 564.419 431.979Z" fill="white"/>
<path opacity="0.6" d="M572.526 368.422C573.114 368.422 573.592 367.879 573.592 367.21C573.592 366.541 573.114 365.999 572.526 365.999C571.936 365.999 571.459 366.541 571.459 367.21C571.459 367.879 571.936 368.422 572.526 368.422Z" fill="white"/>
<path opacity="0.6" d="M556.312 369.997C556.901 369.997 557.378 369.455 557.378 368.786C557.378 368.116 556.901 367.574 556.312 367.574C555.723 367.574 555.245 368.116 555.245 368.786C555.245 369.455 555.723 369.997 556.312 369.997Z" fill="white"/>
<path opacity="0.6" d="M542.285 397.505C542.874 397.505 543.351 396.962 543.351 396.293C543.351 395.623 542.874 395.081 542.285 395.081C541.696 395.081 541.218 395.623 541.218 396.293C541.218 396.962 541.696 397.505 542.285 397.505Z" fill="white"/>
<path opacity="0.6" d="M552.205 409.622C552.794 409.622 553.272 409.079 553.272 408.41C553.272 407.741 552.794 407.199 552.205 407.199C551.616 407.199 551.138 407.741 551.138 408.41C551.138 409.079 551.616 409.622 552.205 409.622Z" fill="white"/>
<path opacity="0.6" d="M529.644 406.047C530.234 406.047 530.711 405.505 530.711 404.836C530.711 404.166 530.234 403.624 529.644 403.624C529.055 403.624 528.578 404.166 528.578 404.836C528.578 405.505 529.055 406.047 529.644 406.047Z" fill="white"/>
<path opacity="0.6" d="M551.405 442.764C551.994 442.764 552.472 442.221 552.472 441.552C552.472 440.883 551.994 440.34 551.405 440.34C550.816 440.34 550.338 440.883 550.338 441.552C550.338 442.221 550.816 442.764 551.405 442.764Z" fill="white"/>
<path opacity="0.6" d="M544.205 378.722C544.794 378.722 545.271 378.179 545.271 377.51C545.271 376.841 544.794 376.299 544.205 376.299C543.615 376.299 543.138 376.841 543.138 377.51C543.138 378.179 543.615 378.722 544.205 378.722Z" fill="white"/>
</g>
<path d="M562.232 391.022L561.272 386.477C561.218 386.296 561.112 386.174 561.005 386.174H549.378C549.218 386.174 549.058 386.356 549.058 386.538V439.977C549.058 440.159 549.165 440.34 549.378 440.34H608.473C608.633 440.34 608.793 440.159 608.793 439.977V391.627C608.793 391.446 608.687 391.264 608.473 391.264H562.552C562.339 391.264 562.232 391.143 562.232 391.022Z" fill="#55443A"/>
<path opacity="0.2" d="M562.232 391.022L561.272 386.477C561.218 386.296 561.112 386.174 561.005 386.174H549.378C549.218 386.174 549.058 386.356 549.058 386.538V439.977C549.058 440.159 549.165 440.34 549.378 440.34H608.473C608.633 440.34 608.793 440.159 608.793 439.977V391.627C608.793 391.446 608.687 391.264 608.473 391.264H562.552C562.339 391.264 562.232 391.143 562.232 391.022Z" fill="black"/>
<path d="M549.805 405.442L591.353 420.225L608.1 359.698L577.272 348.731L563.405 356.426L549.805 405.442Z" fill="#927463"/>
<path opacity="0.6" d="M549.805 405.442L591.353 420.225L608.1 359.698L577.272 348.731L563.405 356.426L549.805 405.442Z" fill="white"/>
<path d="M577.272 348.731L563.405 356.426L574.072 360.243L577.272 348.731Z" fill="#927463"/>
<path d="M578.168 360.199L577.736 361.76L600.786 369.991L601.218 368.43L578.168 360.199Z" fill="#927463"/>
<path d="M577.105 364.111L576.673 365.671L599.723 373.902L600.155 372.342L577.105 364.111Z" fill="#927463"/>
<path d="M576.034 368.018L575.602 369.579L598.651 377.81L599.083 376.249L576.034 368.018Z" fill="#927463"/>
<path d="M562.71 366.826L562.276 368.386L595.945 380.463L596.379 378.903L562.71 366.826Z" fill="#927463"/>
<path d="M563.101 372.062L562.669 373.622L596.505 385.706L596.937 384.145L563.101 372.062Z" fill="#927463"/>
<path d="M560.54 374.671L560.106 376.231L593.776 388.307L594.21 386.748L560.54 374.671Z" fill="#927463"/>
<path d="M560.916 379.862L560.484 381.423L594.32 393.506L594.752 391.946L560.916 379.862Z" fill="#927463"/>
<path d="M559.833 383.823L559.401 385.384L593.238 397.467L593.67 395.906L559.833 383.823Z" fill="#927463"/>
<path d="M558.767 387.729L558.335 389.289L592.171 401.373L592.603 399.812L558.767 387.729Z" fill="#927463"/>
<path d="M556.219 390.291L555.786 391.852L589.455 403.929L589.889 402.368L556.219 390.291Z" fill="#927463"/>
<path d="M556.566 395.588L556.134 397.148L589.97 409.231L590.402 407.671L556.566 395.588Z" fill="#927463"/>
<path d="M555.494 399.494L555.062 401.055L588.898 413.139L589.33 411.578L555.494 399.494Z" fill="#927463"/>
<path d="M549.165 440.401H608.26C608.42 440.401 608.58 440.219 608.58 439.977C608.58 439.977 608.58 439.977 608.58 439.916L604.526 395.626C604.526 395.444 604.366 395.263 604.206 395.263H557.272C557.165 395.263 557.058 395.202 557.005 395.081L555.672 390.9C555.618 390.779 555.512 390.658 555.405 390.658H544.738C544.578 390.658 544.418 390.84 544.418 391.082C544.418 391.082 544.418 391.082 544.418 391.143L548.898 440.098C548.898 440.28 549.005 440.401 549.165 440.401Z" fill="#55443A"/>
<path d="M526.817 412.288L558.765 415.62L558.232 426.102C558.232 426.102 530.444 428.829 516.417 426.95L519.404 417.62L526.817 412.288Z" fill="#FC9D9D"/>
<path d="M554.072 425.072L561.645 427.677C563.832 428.223 566.072 428.647 568.312 428.889L575.086 430.525C575.512 430.586 575.832 430.222 575.886 429.798C575.939 429.374 575.619 428.95 575.246 428.889L569.219 426.163L569.112 425.86H578.072C578.552 425.799 578.872 425.375 578.872 424.83C578.819 424.406 578.552 424.042 578.126 423.921L575.726 423.618L579.299 423.557C579.832 423.557 580.259 423.073 580.312 422.467C580.366 421.861 579.939 421.255 579.406 421.195L569.432 420.104L569.325 419.68L577.166 419.437C577.592 419.437 577.912 419.013 577.912 418.529C577.912 418.105 577.646 417.802 577.272 417.68L573.272 417.135L568.152 416.529L568.632 416.045C573.112 415.257 573.379 414.287 573.539 413.5C573.592 413.257 573.486 413.015 573.272 412.955C573.219 412.955 573.166 412.955 573.166 412.955L564.845 413.742L555.352 415.923L555.138 417.256" fill="#FC9D9D"/>
<g opacity="0.15">
<path opacity="0.15" d="M569.379 423.315C569.379 423.254 569.379 423.194 569.379 423.194C569.379 423.012 569.539 422.891 569.645 422.891L577.006 423.315C577.166 423.315 577.272 423.497 577.272 423.618C577.272 423.8 577.112 423.921 577.006 423.921L569.645 423.497C569.539 423.497 569.432 423.436 569.379 423.315Z" fill="black"/>
</g>
<path d="M522.764 386.053L521.697 411.016L536.738 413.318L527.831 427.496L513.537 427.799C508.63 428.102 504.363 423.86 504.097 418.286C504.097 418.104 504.097 417.862 504.097 417.68V386.72" fill="#FC9D9D"/>
<g opacity="0.15">
<path opacity="0.15" d="M574.552 416.529C574.552 416.347 574.392 416.166 574.232 416.166H571.886C571.726 416.166 571.565 416.347 571.565 416.529C571.565 416.71 571.726 416.892 571.886 416.892H574.232C574.392 416.892 574.552 416.71 574.552 416.529Z" fill="black"/>
</g>
<g opacity="0.15">
<path opacity="0.15" d="M574.712 419.861C574.712 419.68 574.552 419.498 574.392 419.498H571.939C571.779 419.498 571.619 419.68 571.619 419.861C571.619 420.043 571.779 420.224 571.939 420.224H574.339C574.552 420.224 574.712 420.043 574.712 419.861Z" fill="black"/>
</g>
<path d="M557.218 415.439L556.365 426.284L553.752 426.526L554.658 415.196L557.218 415.439Z" fill="black"/>
<path opacity="0.15" d="M521.644 411.016L518.764 410.773C518.657 410.773 518.604 410.652 518.604 410.531C518.604 410.47 518.657 410.41 518.764 410.349L521.804 409.319L521.644 411.016Z" fill="black"/>
<path d="M555.778 423.739C557.104 423.739 558.178 422.518 558.178 421.013C558.178 419.507 557.104 418.286 555.778 418.286C554.453 418.286 553.378 419.507 553.378 421.013C553.378 422.518 554.453 423.739 555.778 423.739Z" fill="#927463"/>
<path d="M555.778 423.073C556.78 423.073 557.592 422.151 557.592 421.013C557.592 419.875 556.78 418.953 555.778 418.953C554.777 418.953 553.965 419.875 553.965 421.013C553.965 422.151 554.777 423.073 555.778 423.073Z" fill="white"/>
<path d="M556.898 419.983L555.778 421.013H554.925" stroke="black" stroke-width="0.56" stroke-miterlimit="10" stroke-linecap="round"/>
<path d="M554.978 331.342C554.872 332.615 554.658 333.826 554.338 334.977L554.605 343.581L554.658 345.641C554.712 346.247 554.498 346.913 554.178 347.398C549.645 351.336 543.671 352.306 538.338 350.003C537.111 349.458 535.938 348.792 534.871 348.004C534.711 347.883 534.551 347.701 534.391 347.519L534.338 347.459V347.398C534.018 346.974 533.858 346.368 533.964 345.762L534.018 345.338V345.277L534.178 343.823L536.578 324.799L537.058 320.618C537.164 319.164 537.538 317.77 538.124 316.438C542.551 310.985 552.792 317.165 556.312 319.528C556.152 320.8 555.458 325.829 554.978 331.342Z" fill="#FC9D9D"/>
<path d="M503.563 386.72V364.302L524.311 363.393L523.244 387.265L503.563 386.72Z" fill="#DDD3CD"/>
<path d="M554.392 305.047C557.538 307.228 559.512 310.985 559.725 315.165C560.152 324.556 559.405 340.249 549.431 340.915C535.991 343.157 535.938 314.438 535.938 314.438C536.364 310.56 538.018 307.834 540.578 305.532C544.151 302.26 550.498 302.32 554.392 305.047Z" fill="#FC9D9D"/>
<path d="M559.672 322.012C559.672 322.012 558.392 330.918 556.578 333.342C556.365 333.645 555.618 335.28 555.192 333.039C554.978 332.009 554.232 331.221 553.325 331.039L549.378 330.252C548.418 330.07 547.458 330.555 546.978 331.524L546.071 333.342C546.071 333.342 541.111 336.492 538.178 321.042L537.111 320.739C537.111 320.739 537.058 339.4 547.778 341.036C547.725 340.976 559.245 343.702 559.672 322.012Z" fill="black"/>
<path opacity="0.3" d="M508.364 386.659L508.63 363.515C508.897 358.062 510.337 353.82 514.337 350.912L513.43 351.155C507.404 352.609 503.19 358.849 503.51 365.878V386.659H508.364Z" fill="black"/>
<path opacity="0.15" d="M529.964 427.617C541.431 427.556 553.858 426.526 557.272 426.223L561.592 427.677C563.779 428.223 566.019 428.647 568.259 428.889L575.032 430.525C575.246 430.525 575.406 430.464 575.566 430.283C574.606 430.646 567.885 427.98 567.885 427.98C564.205 427.193 560.632 425.981 557.218 424.345C557.165 424.163 557.165 424.163 557.112 424.284C557.005 424.769 542.551 424.527 535.191 424.406L515.19 423.194C511.67 423.315 508.63 419.74 508.63 414.833L509.004 386.659H504.203V417.559C504.203 423.133 508.15 427.617 513.057 427.677C513.27 427.677 513.484 427.677 513.75 427.677L529.964 427.617Z" fill="black"/>
<path opacity="0.15" d="M536.418 325.95C537.058 326.071 537.644 325.95 538.231 325.647L536.044 328.979L536.418 325.95Z" fill="black"/>
<path opacity="0.2" d="M554.658 343.823L554.498 338.795C553.218 340.127 549.698 341.824 545.965 340.43C544.098 339.703 542.445 338.37 541.271 336.553C541.218 336.371 541.058 336.31 540.898 336.432C540.738 336.553 540.684 336.674 540.791 336.856C540.791 336.856 540.791 336.916 540.845 336.916C542.338 339.219 544.578 340.855 547.085 341.4C549.165 343.339 551.938 344.247 554.658 343.823Z" fill="black"/>
<path d="M547.031 324.435C547.65 324.435 548.151 323.866 548.151 323.163C548.151 322.46 547.65 321.89 547.031 321.89C546.413 321.89 545.911 322.46 545.911 323.163C545.911 323.866 546.413 324.435 547.031 324.435Z" fill="black"/>
<path d="M547.191 323.708C547.309 323.708 547.405 323.599 547.405 323.466C547.405 323.332 547.309 323.223 547.191 323.223C547.074 323.223 546.978 323.332 546.978 323.466C546.978 323.599 547.074 323.708 547.191 323.708Z" fill="white"/>
<path d="M555.938 324.435C556.557 324.435 557.058 323.866 557.058 323.163C557.058 322.46 556.557 321.89 555.938 321.89C555.32 321.89 554.818 322.46 554.818 323.163C554.818 323.866 555.32 324.435 555.938 324.435Z" fill="black"/>
<path d="M556.098 323.647C556.216 323.647 556.312 323.539 556.312 323.405C556.312 323.271 556.216 323.163 556.098 323.163C555.981 323.163 555.885 323.271 555.885 323.405C555.885 323.539 555.981 323.647 556.098 323.647Z" fill="white"/>
<path opacity="0.6" d="M509.537 373.936C510.126 373.936 510.604 373.393 510.604 372.724C510.604 372.054 510.126 371.512 509.537 371.512C508.948 371.512 508.47 372.054 508.47 372.724C508.47 373.393 508.948 373.936 509.537 373.936Z" fill="white"/>
<path opacity="0.3" d="M552.152 329.222H550.605C550.392 329.222 550.285 329.04 550.285 328.858C550.285 328.676 550.445 328.495 550.605 328.495H552.152C552.525 328.434 552.792 328.07 552.792 327.646C552.738 327.283 552.472 326.98 552.152 326.919C551.938 326.919 551.778 326.738 551.778 326.556C551.778 326.313 551.938 326.132 552.098 326.132C552.845 326.132 553.485 326.859 553.485 327.707C553.538 328.495 552.898 329.222 552.152 329.222Z" fill="black"/>
<path d="M548.738 332.675L553.165 333.342C553.218 333.342 553.218 333.342 553.218 333.402L553.272 333.463V333.523V333.584C552.632 334.977 551.138 335.583 549.911 334.856C549.218 334.493 548.738 333.766 548.578 332.917V332.857V332.796C548.578 332.796 548.578 332.736 548.631 332.736L548.685 332.675C548.685 332.736 548.738 332.736 548.738 332.675Z" fill="white"/>
<path d="M544.631 319.588C547.458 317.71 548.845 319.043 548.845 319.043L548.951 319.467C548.951 319.467 546.285 318.982 544.898 319.83L544.631 319.588Z" fill="black"/>
<path d="M558.338 319.649C555.512 317.77 554.125 319.103 554.125 319.103L554.018 319.528C554.018 319.528 556.685 319.043 558.072 319.891L558.338 319.649Z" fill="black"/>
<path d="M532.578 346.065C533.751 352.73 542.711 353.517 542.711 353.517C552.418 355.517 555.778 347.337 555.778 347.337L555.192 344.126C555.138 344.005 555.032 343.945 554.978 344.005C542.178 347.277 535.511 343.823 534.124 342.733C533.964 342.612 533.751 342.672 533.644 342.854C533.644 342.854 533.644 342.915 533.591 342.915L532.578 346.065Z" fill="#DDD3CD"/>
<path d="M537.644 318.619C537.271 317.104 535.938 316.195 534.604 316.559C534.444 316.619 534.338 316.68 534.178 316.74C531.031 318.013 531.084 325.95 536.311 326.859C539.031 327.343 538.551 325.526 538.284 323.042L537.644 318.619Z" fill="#FC9D9D"/>
<path opacity="0.3" d="M533.911 318.8C534.338 318.437 534.924 318.376 535.458 318.498C535.938 318.679 536.364 319.103 536.578 319.649C536.844 320.315 537.005 321.103 536.951 321.83V322.496C536.951 322.678 536.791 322.86 536.631 322.86C536.631 322.86 536.631 322.86 536.578 322.86C536.418 322.86 536.258 322.678 536.258 322.496C536.258 322.496 536.258 322.496 536.258 322.436V321.83C536.258 321.224 536.151 320.558 535.938 320.012C535.778 319.649 535.564 319.346 535.191 319.164C534.818 319.103 534.444 319.164 534.178 319.406C534.018 319.528 533.858 319.467 533.751 319.285C533.698 319.103 533.751 318.922 533.911 318.8Z" fill="black"/>
<path d="M689.276 364.605C672.369 365.332 656.155 367.816 638.394 371.149C639.621 389.204 640.848 407.077 642.128 424.709C661.062 421.194 682.022 415.317 701.383 417.923C700.316 402.594 699.303 388.659 698.236 373.572L689.276 364.605Z" fill="#927463"/>
<path opacity="0.6" d="M689.276 364.605C672.369 365.332 656.155 367.816 638.394 371.149C639.621 389.204 640.848 407.077 642.128 424.709C661.062 421.194 682.022 415.317 701.383 417.923C700.316 402.594 699.303 388.659 698.236 373.572L689.276 364.605Z" fill="white"/>
<path d="M647.408 375.874C648.101 385.69 649.861 408.107 650.608 417.862L652.101 417.741C651.408 408.047 649.594 385.629 648.901 375.874H647.408Z" fill="#927463"/>
<path d="M651.195 375.087C651.888 384.781 653.701 407.199 654.395 416.832L655.941 416.65C655.248 407.017 653.435 384.66 652.741 374.966C652.208 374.966 651.728 375.026 651.195 375.087Z" fill="#927463"/>
<path d="M655.035 374.663C655.729 384.296 657.542 406.653 658.235 416.287C658.769 416.226 659.249 416.105 659.782 416.044C659.089 406.472 657.275 384.114 656.582 374.481L655.035 374.663Z" fill="#927463"/>
<path d="M658.875 374.117C659.941 388.174 660.955 401.624 662.022 415.62L663.568 415.317C662.502 401.322 661.435 387.932 660.421 373.875L658.875 374.117Z" fill="#927463"/>
<path d="M662.769 373.451C663.835 387.447 664.902 400.837 665.915 414.833L667.462 414.53C666.395 400.534 665.329 387.205 664.315 373.209L662.769 373.451Z" fill="#927463"/>
<path d="M666.608 372.724C667.675 386.72 668.742 400.049 669.755 414.045L671.302 413.742C670.235 399.746 669.168 386.417 668.155 372.421L666.608 372.724Z" fill="#927463"/>
<path d="M670.502 372.542C671.569 386.477 672.636 399.867 673.649 413.863L675.196 413.56C674.129 399.564 673.062 386.174 672.049 372.239L670.502 372.542Z" fill="#927463"/>
<path d="M674.342 371.755C675.409 385.75 676.475 399.14 677.489 413.136L679.035 412.833C677.969 398.777 676.902 385.387 675.889 371.391L674.342 371.755Z" fill="#927463"/>
<path d="M678.236 371.573C679.303 385.569 680.369 398.959 681.383 413.076C681.916 413.015 682.396 412.894 682.929 412.833C681.863 398.716 680.849 385.266 679.783 371.27L678.236 371.573Z" fill="#927463"/>
<path d="M682.609 378.177C683.675 392.233 684.156 398.413 685.222 412.591L686.716 412.409C685.702 398.232 685.169 391.991 684.102 377.934L682.609 378.177Z" fill="#927463"/>
<path d="M686.503 378.116C687.57 392.233 688.05 398.534 689.063 412.773L690.556 412.652C689.543 398.353 689.01 392.052 687.996 377.934C687.516 377.995 686.983 378.056 686.503 378.116Z" fill="#927463"/>
<path d="M690.342 377.632C691.409 391.809 691.889 398.232 692.902 412.591C693.383 412.591 693.916 412.591 694.396 412.591C693.383 398.171 692.902 391.749 691.836 377.51L690.342 377.632Z" fill="#927463"/>
<path d="M689.276 364.605L689.809 373.936L698.236 373.633L689.276 364.605Z" fill="#927463"/>
<path d="M748.478 413.621C740.317 428.344 731.997 443.309 723.623 458.456C744.744 451.67 744.904 496.021 767.945 489.659L783.839 461.546L789.706 451.67C769.118 455.972 770.558 409.319 748.478 413.621Z" fill="#927463"/>
<path opacity="0.6" d="M748.478 413.621C740.317 428.344 731.997 443.309 723.623 458.456C744.744 451.67 744.904 496.021 767.945 489.659L783.839 461.546L789.706 451.67C769.118 455.972 770.558 409.319 748.478 413.621Z" fill="white"/>
<path d="M761.065 484.691C766.985 474.27 771.785 465.121 777.652 454.76C777.225 454.579 776.852 454.336 776.478 454.094C770.612 464.454 765.811 473.603 759.945 483.964C760.265 484.267 760.638 484.509 761.065 484.691Z" fill="#927463"/>
<path d="M758.238 482.57C764.105 472.21 768.905 463.061 774.772 452.761C774.398 452.458 774.078 452.094 773.758 451.67C767.891 461.97 763.145 471.119 757.278 481.48C757.544 481.843 757.918 482.207 758.238 482.57Z" fill="#927463"/>
<path d="M755.838 479.601C761.705 469.241 766.505 460.092 772.372 449.792C772.052 449.368 771.785 448.883 771.518 448.459C765.651 458.759 760.905 467.908 754.984 478.269C755.251 478.753 755.518 479.177 755.838 479.601Z" fill="#927463"/>
<path d="M753.704 476.148C759.625 465.727 764.425 456.517 770.292 446.217C770.025 445.733 769.758 445.187 769.545 444.642C763.678 455.003 758.878 464.212 752.904 474.694C753.171 475.118 753.384 475.663 753.704 476.148Z" fill="#927463"/>
<path d="M751.198 472.876C757.171 462.334 762.505 452.519 768.425 442.097C768.211 441.552 767.945 440.946 767.731 440.401C761.811 450.822 756.424 460.698 750.451 471.301C750.664 471.846 750.931 472.391 751.198 472.876Z" fill="#927463"/>
<path d="M749.277 468.877C755.304 458.214 760.691 448.277 766.665 437.796C766.451 437.19 766.238 436.644 766.025 436.039C760.051 446.581 754.611 456.578 748.584 467.302C748.797 467.787 749.064 468.332 749.277 468.877Z" fill="#927463"/>
<path d="M746.291 466.151C750.664 458.396 756.691 447.732 764.425 434.039C764.211 433.433 763.998 432.888 763.731 432.343C755.944 446.096 749.918 456.82 745.491 464.636C745.811 465.121 746.077 465.606 746.291 466.151Z" fill="#927463"/>
<path d="M744.317 462.394C748.797 454.457 754.344 444.218 762.185 430.343C761.971 429.798 761.705 429.253 761.438 428.707C753.598 442.643 747.997 452.943 743.464 461.001C743.731 461.425 744.051 461.91 744.317 462.394Z" fill="#927463"/>
<path d="M742.077 459.062C746.664 450.883 752.318 441.067 760.265 427.011C759.998 426.526 759.731 426.042 759.465 425.557C751.518 439.734 745.811 449.671 741.171 457.911C741.437 458.274 741.757 458.638 742.077 459.062Z" fill="#927463"/>
<path d="M739.571 456.336C744.264 447.914 750.078 437.856 758.131 423.497C757.811 423.073 757.491 422.709 757.171 422.285C749.064 436.705 743.251 446.884 738.451 455.427C738.824 455.73 739.197 456.033 739.571 456.336Z" fill="#927463"/>
<path d="M737.171 453.852C742.024 445.127 747.411 435.372 755.624 420.77C755.251 420.467 754.878 420.165 754.504 419.922C746.291 434.645 740.797 444.521 735.891 453.367C736.264 453.488 736.744 453.67 737.171 453.852Z" fill="#927463"/>
<path d="M733.704 452.943C738.717 443.915 744.264 433.857 752.638 418.892C752.211 418.71 751.784 418.589 751.304 418.468C742.931 433.554 737.277 443.733 732.21 452.943C732.69 452.943 733.17 452.943 733.704 452.943Z" fill="#927463"/>
<ellipse cx="316.245" cy="119.345" rx="121.478" ry="119.345" fill="#927463" fill-opacity="0.11"/>
<ellipse cx="910.584" cy="669.133" rx="65.2569" ry="64.9159" fill="#DDD3CD" fill-opacity="0.33"/>
</svg>
