<svg width="980" height="761" viewBox="0 0 980 761" fill="none" xmlns="http://www.w3.org/2000/svg">
<ellipse cx="297" cy="119.5" rx="121" ry="119.5" fill="#927463" fill-opacity="0.11"/>
<path d="M301.497 66.0243L136.721 372.268C133.681 376.94 132 382.634 132 388.474L188.132 678H923.868L980 413.368C980 407.966 978.577 402.636 975.926 398.183L813.866 67.0463C809.404 59.5271 801.838 55.001 793.819 55.001H320.962C313.266 54.928 306.023 59.0161 301.497 66.0243Z" fill="#362C25"/>
<path d="M917.043 652.397H272.736C272.267 652.336 271.953 651.851 272.006 651.305C272.058 650.88 272.371 650.516 272.736 650.455H917.043C917.513 650.516 917.826 651.001 917.774 651.547C917.722 651.972 917.409 652.336 917.043 652.397Z" fill="#927463"/>
<g opacity="0.6">
<path opacity="0.6" d="M917.043 652.397H272.736C272.267 652.336 271.953 651.851 272.006 651.305C272.058 650.88 272.371 650.516 272.736 650.455H917.043C917.513 650.516 917.826 651.001 917.774 651.547C917.722 651.972 917.409 652.336 917.043 652.397Z" fill="white"/>
</g>
<path d="M374.189 568.677C370.692 510.073 366.778 506.19 366.622 506.069L366.883 505.523C367.039 505.644 371.11 508.495 374.711 568.677H374.189Z" fill="#55443A"/>
<path d="M377.842 568.677L377.32 568.616C379.616 525.785 377.111 502.429 377.111 502.186L377.633 502.125C377.633 502.368 380.138 525.785 377.842 568.677Z" fill="#55443A"/>
<path d="M380.973 569.951C378.155 543.257 385.305 522.873 385.409 522.691L385.879 522.934C385.827 523.116 378.729 543.379 381.495 569.89L380.973 569.951Z" fill="#55443A"/>
<path d="M383.896 573.227C382.748 563.702 382.8 553.995 384.104 544.471L384.626 544.592C383.322 554.056 383.269 563.641 384.418 573.105L383.896 573.227Z" fill="#55443A"/>
<path d="M385.513 523.177L387.757 522.934C389.375 522.752 390.941 522.206 392.35 521.296C393.028 520.811 393.759 520.386 394.49 520.083C397.308 518.748 400.439 518.991 403.414 518.809C408.372 518.505 413.173 517.049 417.661 514.562C417.922 514.441 418.131 514.198 418.287 513.955C418.757 512.985 417.87 512.075 417.139 511.529C413.329 508.799 409.415 506.008 405.084 504.673C400.752 503.339 395.847 503.521 392.141 506.493C387.81 509.951 386.244 517.11 385.513 523.177Z" fill="#55443A"/>
<path opacity="0.3" d="M418.339 513.652C418.183 513.591 418.079 513.531 417.974 513.47L416.878 512.803C415.939 512.257 414.582 511.407 412.912 510.437C410.929 509.284 408.893 508.374 406.754 507.707C404.144 506.857 401.483 506.615 398.769 506.979C396.108 507.343 393.55 508.617 391.515 510.619C389.897 512.378 388.593 514.441 387.758 516.807C386.975 518.809 386.453 520.447 386.14 521.599C385.983 522.145 385.827 522.57 385.722 522.934C385.67 523.116 385.618 523.237 385.566 523.419C385.566 523.237 385.618 523.116 385.67 522.934C385.774 522.57 385.879 522.145 386.035 521.599C386.453 519.961 386.975 518.323 387.601 516.746C388.488 514.38 389.741 512.196 391.411 510.437C393.498 508.374 396.108 507.039 398.821 506.736C401.535 506.372 404.249 506.615 406.858 507.464C408.998 508.192 411.033 509.163 413.016 510.315C414.686 511.286 416.043 512.196 416.93 512.803L417.974 513.531C418.079 513.409 418.183 513.531 418.339 513.652Z" fill="black"/>
<path opacity="0.3" d="M412.86 517.049C412.808 517.11 409.833 514.926 406.232 512.075C402.631 509.223 399.709 506.918 399.761 506.797C399.813 506.675 402.788 508.92 406.389 511.771C409.989 514.623 412.912 516.928 412.86 517.049Z" fill="black"/>
<path opacity="0.3" d="M409.728 506.615C409.05 506.918 408.319 507.039 407.589 507.1C406.858 507.222 406.127 507.222 405.397 507.039C406.127 506.918 406.858 506.797 407.589 506.797C408.267 506.615 408.998 506.615 409.728 506.615Z" fill="black"/>
<path opacity="0.3" d="M396.734 504.613C396.473 505.28 396.16 505.887 395.742 506.372C395.377 506.979 394.959 507.525 394.49 508.01C394.751 507.343 395.064 506.797 395.481 506.251C395.847 505.644 396.264 505.098 396.734 504.613Z" fill="black"/>
<path opacity="0.3" d="M399.395 519.051C398.873 518.809 398.404 518.505 397.986 518.141C397.151 517.535 395.951 516.625 394.751 515.593C393.55 514.562 392.402 513.591 391.619 512.863C391.202 512.499 390.784 512.075 390.367 511.65C390.837 511.953 391.306 512.317 391.724 512.681L394.907 515.351C396.16 516.382 397.256 517.292 398.091 517.959C398.508 518.323 398.978 518.687 399.395 519.051Z" fill="black"/>
<path d="M391.619 606.897H369.179L365.004 571.103H395.794L391.619 606.897Z" fill="#DDD3CD"/>
<path d="M398.404 576.563H362.394L361.873 568.677H398.926L398.404 576.563Z" fill="#DDD3CD"/>
<path opacity="0.2" d="M365.682 576.563H395.168L391.619 606.897L388.071 606.593L390.054 578.99L365.891 578.505L365.682 576.563Z" fill="black"/>
<path opacity="0.2" d="M390.732 568.737L389.688 576.563H398.404L398.926 568.677L390.732 568.737Z" fill="black"/>
<g opacity="0.2">
<g opacity="0.2">
<g opacity="0.2">
<path opacity="0.2" d="M393.759 585.542H367.039V586.149H393.759V585.542Z" fill="white"/>
</g>
</g>
</g>
<g opacity="0.2">
<g opacity="0.2">
<g opacity="0.2">
<path opacity="0.2" d="M393.759 587.969H367.039V588.576H393.759V587.969Z" fill="white"/>
</g>
</g>
</g>
<path d="M367.248 505.765C365.108 503.885 362.812 503.46 360.098 503.642C357.384 503.885 354.723 504.673 352.27 506.008C348.043 508.192 344.077 511.347 341.519 515.836C338.962 520.325 338.127 526.271 340.006 531.185C340.163 531.67 340.476 532.155 340.841 532.398C341.311 532.58 341.833 532.519 342.25 532.277C347.051 530.457 351.905 528.637 356.341 525.725C360.777 522.813 364.795 518.869 367.196 513.713C367.822 512.499 368.187 511.104 368.344 509.709C368.448 508.253 368.031 506.797 367.248 505.765Z" fill="#55443A"/>
<path opacity="0.3" d="M367.248 505.159C367.143 505.219 367.039 505.28 366.883 505.341L365.891 505.765L365.16 506.069C364.899 506.19 364.638 506.311 364.325 506.433C363.699 506.736 363.021 506.979 362.238 507.403L361.037 508.01C360.62 508.253 360.202 508.495 359.785 508.738C358.898 509.223 358.011 509.891 357.071 510.497C355.088 511.953 353.157 513.591 351.383 515.411C349.608 517.231 347.991 519.233 346.477 521.357C345.799 522.388 345.173 523.298 344.598 524.269C344.338 524.754 344.024 525.179 343.816 525.603C343.607 526.028 343.346 526.453 343.137 526.877C342.668 527.666 342.354 528.455 342.041 529.122C341.885 529.486 341.728 529.789 341.624 530.032L341.311 530.821C341.102 531.306 340.945 531.67 340.841 531.913C340.789 532.034 340.737 532.155 340.632 532.277C340.684 532.155 340.684 531.973 340.737 531.852C340.841 531.549 340.998 531.185 341.154 530.699L341.467 529.85C341.572 529.547 341.728 529.243 341.885 528.879C342.198 528.212 342.511 527.423 342.981 526.574L343.659 525.3C343.92 524.875 344.181 524.39 344.442 523.965C344.964 522.995 345.642 522.024 346.268 521.053C349.243 516.746 352.896 513.045 356.967 510.133C357.906 509.466 358.793 508.859 359.681 508.374C360.098 508.131 360.516 507.889 360.933 507.646L362.133 507.039C362.916 506.615 363.595 506.372 364.221 506.069C364.534 505.947 364.795 505.826 365.108 505.705L365.839 505.462L366.883 505.098C366.987 505.219 367.143 505.219 367.248 505.159Z" fill="black"/>
<path opacity="0.3" d="M350.391 515.775C348.669 516.564 346.895 517.171 345.12 517.717C343.346 518.384 341.572 518.93 339.797 519.355C341.519 518.566 343.294 517.959 345.068 517.413C347.991 516.443 350.391 515.715 350.391 515.775Z" fill="black"/>
<path opacity="0.3" d="M350.183 529.243C350.078 528.637 350.026 527.969 350.078 527.363C350.078 526.21 350.026 524.572 350.078 522.752C350.131 520.932 350.183 519.355 350.288 518.141C350.288 517.474 350.392 516.867 350.497 516.261C350.549 516.867 350.549 517.535 350.497 518.141C350.445 519.415 350.445 520.993 350.392 522.752C350.34 524.511 350.34 526.028 350.288 527.363C350.288 528.03 350.235 528.637 350.183 529.243Z" fill="black"/>
<path opacity="0.3" d="M360.098 523.419C359.994 523.419 359.733 520.143 359.524 516.018C359.315 511.893 359.159 508.617 359.263 508.617C359.368 508.617 359.629 511.893 359.837 516.018C360.046 520.143 360.203 523.359 360.098 523.419Z" fill="black"/>
<path opacity="0.3" d="M347.73 508.313C348.304 508.253 348.878 508.192 349.4 508.253C350.443 508.253 351.853 508.313 353.47 508.374C355.088 508.435 356.497 508.495 357.541 508.556C358.115 508.556 358.689 508.617 359.211 508.738C358.637 508.799 358.063 508.859 357.541 508.799C356.497 508.799 355.088 508.738 353.47 508.677C351.853 508.617 350.443 508.556 349.4 508.495C348.878 508.495 348.304 508.435 347.73 508.313Z" fill="black"/>
<path d="M362.864 493.025L360.098 498.91C360.046 499.031 359.942 499.213 359.837 499.213C359.733 499.213 359.576 499.092 359.524 498.91L352.166 485.745L353.836 484.653L362.864 493.025Z" fill="#55443A"/>
<path opacity="0.2" d="M362.864 493.025L360.098 498.91C360.046 499.031 359.942 499.213 359.837 499.213C359.733 499.213 359.576 499.092 359.524 498.91L352.166 485.745L353.836 484.653L362.864 493.025Z" fill="black"/>
<path d="M377.842 503.581L352.74 486.352C352.479 486.231 352.27 485.927 352.113 485.624C352.009 485.199 352.27 484.775 352.583 484.471C356.08 480.225 360.985 478.041 365.995 478.344C371.057 478.769 375.598 482.045 378.155 487.141C380.503 492.115 380.608 498.789 377.842 503.581Z" fill="#55443A"/>
<path opacity="0.3" d="M356.341 480.831C356.445 480.771 356.549 480.771 356.654 480.771C356.863 480.771 357.176 480.71 357.593 480.71C358.741 480.71 359.942 480.771 361.09 481.013C368.918 482.53 375.233 489.203 377.32 498.121C377.633 499.456 377.842 500.791 377.946 502.125C377.999 502.429 377.998 502.671 377.998 502.975C377.998 503.217 377.894 503.399 377.79 503.581C377.842 503.096 377.894 502.611 377.842 502.125C376.798 491.63 369.962 483.137 361.038 481.256C359.889 481.013 358.741 480.831 357.593 480.831C356.758 480.892 356.341 480.892 356.341 480.831Z" fill="black"/>
<path opacity="0.3" d="M374.398 491.691C373.98 491.994 373.563 492.176 373.145 492.358C372.362 492.722 371.214 493.207 369.962 493.632C368.709 494.057 367.561 494.481 366.726 494.724C366.256 494.906 365.839 494.967 365.369 495.027C365.787 494.785 366.204 494.603 366.674 494.481L369.857 493.329L373.041 492.115C373.51 491.873 373.98 491.751 374.398 491.691Z" fill="black"/>
<path opacity="0.3" d="M370.483 479.315C370.692 480.407 370.797 481.499 370.797 482.591C370.849 483.683 370.797 484.775 370.64 485.867C370.536 485.867 370.536 484.411 370.483 482.591C370.379 481.499 370.379 480.407 370.483 479.315Z" fill="black"/>
<path opacity="0.3" d="M352.479 486.049C353.053 485.745 353.679 485.503 354.305 485.321C355.453 484.896 357.019 484.411 358.793 483.925C360.568 483.44 362.186 483.015 363.386 482.833C364.012 482.651 364.638 482.591 365.317 482.53C364.691 482.773 364.064 482.955 363.438 483.076C362.29 483.379 360.672 483.804 358.898 484.289C357.123 484.775 355.558 485.26 354.41 485.624C353.731 485.745 353.105 485.927 352.479 486.049Z" fill="black"/>
<path d="M388.332 536.22C386.192 535.553 383.583 537.979 383.165 540.527C382.748 543.075 383.53 545.684 384.522 548.05C386.662 553.267 389.584 558.06 393.446 561.639C397.308 565.219 402.161 567.524 407.119 567.524C406.18 562.61 407.38 557.453 406.858 552.418C405.919 543.318 399.709 536.159 391.88 535.189C390.471 534.946 388.854 534.703 388.332 536.22Z" fill="#55443A"/>
<path opacity="0.3" d="M407.067 567.463C406.963 567.403 406.858 567.342 406.754 567.281C406.493 567.099 406.18 566.917 405.971 566.675C405.084 565.765 404.353 564.612 403.831 563.338C403.466 562.549 403.101 561.7 402.735 560.79C402.37 559.88 402.005 558.849 401.587 557.817C401.17 556.725 400.7 555.633 400.178 554.602C399.604 553.51 398.926 552.479 398.195 551.508C396.734 549.506 395.116 547.747 393.759 546.048C392.507 544.592 391.358 543.015 390.367 541.316C389.688 540.163 389.114 538.95 388.697 537.615C388.593 537.251 388.488 536.887 388.436 536.523C388.384 536.402 388.384 536.281 388.384 536.159C388.384 536.159 388.54 536.645 388.853 537.555C389.323 538.829 389.897 540.042 390.576 541.134C391.619 542.772 392.768 544.349 393.968 545.805C395.325 547.443 396.943 549.203 398.456 551.265C399.187 552.236 399.865 553.328 400.439 554.42C400.961 555.451 401.431 556.543 401.848 557.635C402.266 558.667 402.631 559.698 402.996 560.608C403.362 561.518 403.727 562.428 404.04 563.156C404.51 564.43 405.188 565.522 406.075 566.493C406.649 567.221 407.067 567.463 407.067 567.463Z" fill="black"/>
<path opacity="0.3" d="M395.899 563.399C395.899 562.853 395.951 562.246 396.108 561.7C396.264 560.669 396.577 559.273 396.943 557.696C397.308 556.119 397.725 554.784 398.038 553.753C398.195 553.207 398.404 552.661 398.613 552.175C398.508 552.721 398.404 553.267 398.195 553.813C397.934 554.845 397.569 556.179 397.203 557.757C396.838 559.334 396.525 560.729 396.316 561.7C396.212 562.307 396.055 562.853 395.899 563.399Z" fill="black"/>
<path opacity="0.3" d="M406.649 551.265C406.127 551.205 405.606 551.023 405.136 550.841C404.197 550.537 402.944 550.173 401.483 549.809C400.022 549.445 398.769 549.142 397.777 548.96C397.256 548.899 396.734 548.778 396.264 548.596C396.786 548.596 397.308 548.596 397.83 548.717C398.769 548.839 400.126 549.142 401.535 549.506C402.944 549.87 404.249 550.295 405.188 550.659C405.71 550.78 406.232 550.962 406.649 551.265Z" fill="black"/>
<path opacity="0.3" d="M387.862 554.784C387.862 554.117 387.966 553.449 388.071 552.843C388.279 551.629 388.593 549.991 388.958 548.171C389.323 546.351 389.793 544.774 390.106 543.621C390.263 543.015 390.471 542.408 390.732 541.801C390.628 542.469 390.471 543.075 390.315 543.743C390.054 544.895 389.636 546.533 389.219 548.293C388.801 550.052 388.488 551.69 388.227 552.903C388.227 553.571 388.071 554.177 387.862 554.784Z" fill="black"/>
<path opacity="0.3" d="M401.692 540.709C401.692 540.831 398.978 540.527 395.69 540.163C393.655 539.981 391.672 539.678 389.688 539.253C391.724 539.314 393.707 539.496 395.69 539.799C397.725 539.981 399.708 540.285 401.692 540.709Z" fill="black"/>
<path d="M377.633 511.347C377.424 509.041 375.441 507.343 373.458 507.282C371.475 507.221 369.648 508.617 368.448 510.437C367.248 512.257 366.569 514.501 366.048 516.685C364.743 522.085 363.96 527.727 364.534 533.308C365.108 538.889 367.039 544.349 370.483 548.293C371.058 548.899 371.788 549.567 372.519 549.385C372.936 549.263 373.302 548.96 373.615 548.596C380.451 541.377 384.209 531.063 384 520.325C383.948 518.202 383.687 516.018 382.695 514.259C381.704 512.499 379.355 510.619 377.633 511.347Z" fill="#55443A"/>
<path opacity="0.3" d="M371.579 549.081C371.579 548.96 371.527 548.839 371.527 548.717C371.527 548.414 371.527 548.05 371.475 547.625C371.423 546.655 371.423 545.259 371.475 543.5C371.527 541.741 371.579 539.678 371.788 537.373C371.997 535.067 372.258 532.519 372.675 529.911C373.093 527.302 373.615 524.815 374.084 522.57C374.554 520.325 375.128 518.323 375.65 516.685C376.172 515.047 376.589 513.713 376.903 512.803C377.059 512.378 377.164 512.014 377.268 511.771C377.32 511.65 377.372 511.529 377.424 511.407C377.424 511.529 377.372 511.65 377.32 511.771L377.059 512.863C376.746 513.773 376.329 515.108 375.911 516.746C375.493 518.384 374.919 520.386 374.398 522.631C373.876 524.875 373.406 527.302 372.989 529.971C372.571 532.641 372.31 535.067 372.101 537.373C371.893 539.678 371.788 541.741 371.736 543.439C371.684 545.138 371.632 546.594 371.632 547.565C371.632 548.05 371.632 548.414 371.632 548.717C371.632 548.839 371.632 548.96 371.579 549.081Z" fill="black"/>
<path opacity="0.3" d="M372.884 529.971C372.571 530.457 372.258 530.881 371.893 531.245C371.266 531.973 370.327 533.005 369.283 534.097C368.239 535.189 367.248 536.099 366.517 536.766C366.152 537.13 365.734 537.494 365.317 537.737C365.63 537.312 365.995 536.887 366.413 536.584L369.127 533.854L371.788 531.124C372.153 530.699 372.519 530.335 372.884 529.971Z" fill="black"/>
<path opacity="0.3" d="M380.869 537.433C380.504 536.887 380.138 536.341 379.825 535.735L377.32 531.549L374.763 527.363C374.398 526.817 374.032 526.21 373.771 525.603C374.189 526.089 374.606 526.635 374.972 527.241C375.65 528.273 376.589 529.729 377.581 531.367C378.573 533.005 379.408 534.521 379.982 535.613C380.347 536.159 380.608 536.766 380.869 537.433Z" fill="black"/>
<path opacity="0.3" d="M376.694 514.016C376.746 514.077 374.084 516.139 370.797 518.627C367.509 521.114 364.795 523.055 364.743 522.934C364.691 522.813 367.352 520.811 370.64 518.323C373.928 515.836 376.642 513.955 376.694 514.016Z" fill="black"/>
<path opacity="0.3" d="M384.157 523.359C381.443 520.568 378.833 517.656 376.381 514.501C377.79 515.836 379.094 517.292 380.347 518.809C381.704 520.265 382.956 521.781 384.157 523.359Z" fill="black"/>
<path d="M397.203 587.787V606.593H381.025V587.787H379.46V606.593H363.282V587.787H361.716V651.487H363.282V612.053H379.46V651.487H381.025V612.053H397.203V651.487H398.769V612.053V606.593V587.787H397.203Z" fill="#55443A"/>
<path opacity="0.2" d="M397.203 587.787V606.593H381.025V587.787H379.46V606.593H363.282V587.787H361.716V651.487H363.282V612.053H379.46V651.487H381.025V612.053H397.203V651.487H398.769V612.053V606.593V587.787H397.203Z" fill="black"/>
<g opacity="0.1">
<g opacity="0.1">
<g opacity="0.1">
<g opacity="0.1">
<g opacity="0.1">
<g opacity="0.1">
<path opacity="0.1" d="M415.991 284.757H390.523V315.393H415.991V284.757Z" fill="black"/>
</g>
</g>
</g>
</g>
</g>
</g>
<path d="M551.522 238.225H353.575V407H551.522V238.225Z" fill="#55443A"/>
<path opacity="0.4" d="M551.522 238.225H353.575V407H551.522V238.225Z" fill="white"/>
<path d="M554.497 238.225H551.522V407H554.497V238.225Z" fill="#55443A"/>
<path opacity="0.2" d="M554.497 238.225H551.522V407H554.497V238.225Z" fill="white"/>
<path d="M546.564 244.959H359.211V401.055H546.564V244.959Z" fill="#55443A"/>
<path opacity="0.9" d="M546.564 244.959H359.211V401.055H546.564V244.959Z" fill="white"/>
<path d="M361.403 244.959H359.107V401.055H361.403V244.959Z" fill="#55443A"/>
<path opacity="0.2" d="M361.09 244.959H358.793V401.055H361.09V244.959Z" fill="white"/>
<path d="M406.441 297.011H378.259V327.648H406.441V297.011Z" fill="white"/>
<path d="M402.318 306.718H381.756C381.547 306.718 381.339 306.9 381.339 307.203C381.339 307.446 381.495 307.689 381.756 307.689H402.318C402.527 307.689 402.735 307.507 402.735 307.264C402.735 306.961 402.579 306.779 402.318 306.718C402.318 306.779 402.318 306.718 402.318 306.718Z" fill="#55443A"/>
<path d="M402.318 311.571H381.756C381.547 311.571 381.339 311.753 381.339 312.057C381.339 312.299 381.495 312.542 381.756 312.542H402.318C402.527 312.542 402.735 312.36 402.735 312.057C402.735 311.814 402.527 311.571 402.318 311.571Z" fill="#55443A"/>
<path d="M402.318 316.364H381.756C381.547 316.364 381.339 316.546 381.339 316.849C381.339 317.092 381.495 317.335 381.756 317.335H402.318C402.527 317.335 402.735 317.153 402.735 316.91C402.735 316.607 402.579 316.364 402.318 316.364Z" fill="#55443A"/>
<path d="M399.552 321.217H383.896C383.687 321.217 383.478 321.399 383.478 321.703C383.478 321.945 383.635 322.188 383.896 322.188H399.552C399.761 322.188 399.917 322.006 399.969 321.703C399.969 321.46 399.761 321.217 399.552 321.217Z" fill="#55443A"/>
<path d="M392.768 300.712C392.768 301.015 392.663 301.379 392.454 301.622C392.246 301.865 391.985 301.986 391.672 301.986C391.515 301.986 391.411 301.925 391.254 301.865C391.15 301.804 390.993 301.683 390.941 301.561C390.837 301.44 390.784 301.319 390.732 301.137C390.68 301.015 390.68 300.833 390.68 300.651C390.68 299.984 391.15 299.438 391.672 299.438C391.672 299.438 391.672 299.438 391.724 299.438C392.298 299.559 392.768 300.045 392.768 300.712Z" fill="#55443A"/>
<path opacity="0.1" d="M445.268 342.633H417.087V388.375H445.268V342.633Z" fill="black"/>
<path d="M443.911 339.478H415.73V385.221H443.911V339.478Z" fill="white"/>
<path d="M439.788 349.245H419.227C419.018 349.245 418.809 349.427 418.809 349.731C418.809 349.973 418.966 350.216 419.227 350.216H439.788C439.997 350.216 440.206 350.034 440.206 349.791C440.206 349.488 439.997 349.245 439.788 349.245Z" fill="#55443A"/>
<path d="M439.788 378.669H419.227C419.018 378.669 418.809 378.851 418.809 379.154C418.809 379.397 418.966 379.639 419.227 379.639H439.788C439.997 379.639 440.206 379.457 440.206 379.154C440.206 378.851 439.997 378.669 439.788 378.669Z" fill="#55443A"/>
<path d="M439.788 354.099H419.227C419.018 354.099 418.809 354.281 418.809 354.584C418.809 354.827 418.966 355.069 419.227 355.069H439.788C439.997 355.069 440.206 354.887 440.206 354.584C440.206 354.341 439.997 354.099 439.788 354.099Z" fill="#55443A"/>
<path d="M439.788 358.891H419.227C419.018 358.891 418.861 359.073 418.809 359.377C418.809 359.619 418.966 359.801 419.227 359.862H439.788C439.997 359.862 440.206 359.68 440.206 359.437C440.206 359.134 440.049 358.891 439.788 358.891Z" fill="#55443A"/>
<path d="M439.788 368.841H419.227C419.018 368.841 418.861 369.023 418.809 369.326C418.809 369.569 418.966 369.811 419.227 369.811H439.788C439.997 369.811 440.206 369.629 440.206 369.387C440.206 369.023 439.997 368.841 439.788 368.841Z" fill="#55443A"/>
<path d="M439.788 373.633H419.227C419.018 373.633 418.809 373.815 418.809 374.119C418.809 374.361 418.966 374.604 419.227 374.604H439.788C439.997 374.604 440.206 374.422 440.206 374.119C440.206 373.815 439.997 373.633 439.788 373.633C439.788 373.573 439.788 373.573 439.788 373.633Z" fill="#55443A"/>
<path d="M437.023 363.745H421.366C421.158 363.745 420.949 363.927 420.949 364.23C420.949 364.473 421.105 364.715 421.366 364.715H437.023C437.231 364.715 437.44 364.533 437.44 364.23C437.44 363.987 437.231 363.745 437.023 363.745Z" fill="#55443A"/>
<path d="M430.29 343.239C430.343 343.907 429.873 344.453 429.299 344.513C428.986 344.513 428.673 344.392 428.464 344.149C428.359 344.028 428.307 343.907 428.255 343.725C428.203 343.603 428.203 343.421 428.203 343.239C428.203 342.936 428.307 342.633 428.516 342.39C428.725 342.147 428.986 342.026 429.247 342.026C429.769 342.087 430.238 342.572 430.29 343.239Z" fill="#55443A"/>
<path opacity="0.1" d="M431.647 265.889C431.647 265.889 454.244 261.036 459.933 267.588C465.621 274.14 463.586 303.017 463.586 303.017H431.647V265.889Z" fill="black"/>
<path d="M427.994 260.611C427.994 260.611 447.043 257.457 452.679 264.009C458.315 270.561 459.881 297.739 459.881 297.739H427.994V260.611Z" fill="#DDD3CD"/>
<path opacity="0.4" d="M427.994 260.611C427.994 260.611 447.043 257.457 452.679 264.009C458.315 270.561 459.881 297.739 459.881 297.739H427.994V260.611Z" fill="white"/>
<path d="M445.059 264.009C445.007 264.676 444.537 265.222 443.911 265.222C443.65 265.222 443.337 265.101 443.128 264.858C442.92 264.615 442.815 264.312 442.815 263.948C442.815 263.766 442.815 263.584 442.867 263.463C442.92 263.281 442.972 263.159 443.076 263.038C443.181 262.917 443.285 262.795 443.442 262.735C443.598 262.674 443.702 262.613 443.859 262.613C444.172 262.613 444.433 262.735 444.642 262.977C444.955 263.281 445.059 263.645 445.059 264.009Z" fill="white"/>
<path d="M453.409 270.318H434.883C434.152 270.257 433.578 270.925 433.526 271.713C433.474 272.563 434.048 273.23 434.726 273.291C434.778 273.291 434.831 273.291 434.883 273.291H453.409C454.14 273.351 454.714 272.684 454.766 271.895C454.818 271.046 454.244 270.379 453.566 270.318C453.514 270.318 453.462 270.318 453.409 270.318Z" fill="white"/>
<path d="M454.297 277.78H433.943C433.735 277.78 433.526 277.901 433.526 278.144C433.526 278.387 433.63 278.629 433.839 278.629C433.891 278.629 433.891 278.629 433.943 278.629H454.297C454.505 278.629 454.714 278.508 454.714 278.265C454.714 278.023 454.61 277.78 454.401 277.78C454.349 277.78 454.349 277.78 454.297 277.78Z" fill="white"/>
<path d="M454.297 283.119H433.943C433.735 283.119 433.526 283.24 433.526 283.483C433.526 283.725 433.63 283.968 433.839 283.968C433.891 283.968 433.891 283.968 433.943 283.968H454.297C454.505 283.968 454.714 283.847 454.714 283.604C454.714 283.361 454.61 283.119 454.401 283.119C454.349 283.119 454.349 283.119 454.297 283.119Z" fill="white"/>
<path d="M454.297 288.518H433.943C433.735 288.518 433.526 288.639 433.526 288.882C433.526 289.125 433.63 289.367 433.839 289.367C433.891 289.367 433.891 289.367 433.943 289.367H454.297C454.505 289.367 454.714 289.246 454.714 289.003C454.714 288.761 454.61 288.518 454.401 288.518C454.349 288.518 454.349 288.518 454.297 288.518Z" fill="white"/>
<path opacity="0.1" d="M529.812 266.314H496.934V317.213H529.812V266.314Z" fill="black"/>
<path d="M526.211 261.582H493.333V312.481H526.211V261.582Z" fill="white"/>
<path d="M511.181 266.799C511.181 267.709 510.503 268.498 509.72 268.498C508.937 268.437 508.311 267.709 508.311 266.799C508.311 266.375 508.467 265.95 508.728 265.647C508.989 265.343 509.354 265.161 509.72 265.161C510.503 265.161 511.129 265.889 511.181 266.799Z" fill="#55443A"/>
<path d="M518.435 274.929H498.082C497.873 274.929 497.664 275.05 497.664 275.293C497.664 275.535 497.769 275.778 497.978 275.778C498.03 275.778 498.03 275.778 498.082 275.778H518.435C518.644 275.778 518.853 275.657 518.853 275.414C518.853 275.171 518.748 274.929 518.539 274.929C518.487 274.868 518.487 274.868 518.435 274.929Z" fill="#55443A"/>
<path d="M518.435 280.267H498.082C497.873 280.267 497.664 280.389 497.664 280.631C497.664 280.874 497.769 281.117 497.978 281.117C498.03 281.117 498.03 281.117 498.082 281.117H518.435C518.644 281.117 518.853 280.995 518.853 280.753C518.853 280.51 518.748 280.267 518.539 280.267C518.487 280.267 518.487 280.267 518.435 280.267Z" fill="#55443A"/>
<path d="M518.435 291.309H498.082C497.873 291.309 497.664 291.43 497.664 291.673C497.664 291.915 497.769 292.158 497.978 292.158C498.03 292.158 498.03 292.158 498.082 292.158H518.435C518.644 292.158 518.853 292.037 518.853 291.794C518.853 291.551 518.748 291.309 518.539 291.309C518.487 291.309 518.487 291.309 518.435 291.309Z" fill="#55443A"/>
<path d="M518.905 302.835H498.552C498.343 302.835 498.186 303.017 498.186 303.26C498.186 303.503 498.343 303.685 498.552 303.685H518.905C519.114 303.685 519.27 303.503 519.27 303.26C519.27 303.017 519.114 302.835 518.905 302.835Z" fill="#55443A"/>
<path d="M515.617 285.667H498.082C497.873 285.667 497.717 285.849 497.717 286.091C497.717 286.334 497.873 286.516 498.082 286.516H515.617C515.826 286.516 515.982 286.334 515.982 286.091C515.982 285.849 515.826 285.667 515.617 285.667Z" fill="#55443A"/>
<path d="M515.617 296.647H498.082C497.873 296.647 497.717 296.829 497.717 297.072C497.717 297.315 497.873 297.497 498.082 297.497H515.617C515.826 297.497 515.982 297.315 515.982 297.072C515.982 296.89 515.826 296.647 515.617 296.647Z" fill="#55443A"/>
<path d="M752.705 319.64C758.038 319.64 762.359 314.615 762.359 308.417C762.359 302.218 758.038 297.193 752.705 297.193C747.371 297.193 743.05 302.218 743.05 308.417C743.05 314.615 747.371 319.64 752.705 319.64Z" fill="#55443A"/>
<path opacity="0.5" d="M752.705 319.64C758.038 319.64 762.359 314.615 762.359 308.417C762.359 302.218 758.038 297.193 752.705 297.193C747.371 297.193 743.05 302.218 743.05 308.417C743.05 314.615 747.371 319.64 752.705 319.64Z" fill="white"/>
<path fill-rule="evenodd" clip-rule="evenodd" d="M763.716 287.183C759.385 285.121 758.811 277.841 758.811 277.841H747.851C747.851 277.841 747.329 285.121 742.946 287.183C740.806 288.154 736.057 289.367 731.569 291.491C725.463 294.403 721.497 301.319 721.497 309.023V309.084H785.165V309.023C785.165 301.379 781.199 294.463 775.093 291.491C770.605 289.367 765.804 288.154 763.716 287.183Z" fill="#DDD3CD"/>
<path d="M757.663 276.142H749.052V277.901H757.663V276.142Z" fill="#DDD3CD"/>
<path d="M756.306 272.623H750.408V276.142H756.306V272.623Z" fill="#DDD3CD"/>
<path d="M757.663 276.142H749.052V277.901H757.663V276.142Z" fill="#DDD3CD"/>
<path d="M756.306 272.623H750.408V276.142H756.306V272.623Z" fill="#DDD3CD"/>
<path fill-rule="evenodd" clip-rule="evenodd" d="M753.853 272.623H752.809V134L753.853 134.121V272.623Z" fill="#DDD3CD"/>
<path opacity="0.2" d="M757.663 276.142H749.052V277.901H757.663V276.142Z" fill="black"/>
<path opacity="0.2" d="M756.306 272.623H750.408V276.142H756.306V272.623Z" fill="black"/>
<path opacity="0.2" d="M757.663 276.142H749.052V277.901H757.663V276.142Z" fill="black"/>
<path opacity="0.2" d="M756.306 272.623H750.408V276.142H756.306V272.623Z" fill="black"/>
<path opacity="0.2" fill-rule="evenodd" clip-rule="evenodd" d="M753.853 272.623H752.809V134L753.853 134.121V272.623Z" fill="black"/>
<path opacity="0.2" fill-rule="evenodd" clip-rule="evenodd" d="M785.165 309.023C785.165 301.379 781.199 294.463 775.093 291.491C770.605 289.307 765.804 288.154 763.716 287.183C759.385 285.121 758.811 277.841 758.811 277.841H756.462L756.254 277.901C756.254 277.901 755.523 286.88 762.307 290.641C765.282 292.279 771.075 295.313 773.11 298.225C774.989 300.955 775.25 304.534 775.25 309.145H785.113V309.023H785.165Z" fill="black"/>
<path d="M639.353 458.263H860.42C864.595 458.263 868.039 462.207 868.039 467.121V638.868C868.039 643.721 864.647 647.725 860.42 647.725H639.353C635.178 647.725 631.734 643.782 631.734 638.868V467.121C631.786 462.207 635.178 458.263 639.353 458.263Z" fill="#927463"/>
<path d="M622.236 633.651H878.163V639.414C878.163 645.359 873.988 650.213 868.874 650.213H631.526C626.411 650.213 622.236 645.359 622.236 639.414V633.651Z" fill="#927463"/>
<path d="M861.359 465.786H638.466V625.764H861.359V465.786Z" fill="white"/>
<g opacity="0.3">
<path opacity="0.3" d="M868.039 634.318C868.039 634.44 815.173 634.5 749.939 634.5C684.704 634.5 631.786 634.44 631.786 634.318C631.786 634.197 684.652 634.197 749.939 634.197C815.225 634.197 868.039 634.257 868.039 634.318Z" fill="black"/>
</g>
<path opacity="0.3" d="M724.889 634.803H775.511L772.849 639.05H727.655L724.889 634.803Z" fill="white"/>
<path d="M861.359 465.725H638.31V471.853H861.359V465.725Z" fill="#DDD3CD"/>
<path d="M643.424 468.819C643.424 469.487 643.007 470.033 642.433 470.093C641.859 470.093 641.389 469.608 641.337 468.941C641.337 468.273 641.754 467.727 642.328 467.667H642.38C642.902 467.606 643.372 468.152 643.424 468.819C643.424 468.759 643.424 468.819 643.424 468.819Z" fill="#55443A"/>
<path d="M647.599 468.819C647.599 469.487 647.182 470.033 646.608 470.093C646.033 470.093 645.564 469.608 645.512 468.941C645.512 468.273 645.929 467.727 646.503 467.667H646.555C647.129 467.606 647.599 468.152 647.599 468.819C647.599 468.759 647.599 468.819 647.599 468.819Z" fill="white"/>
<path d="M651.826 468.819C651.826 469.487 651.409 470.033 650.835 470.093C650.261 470.093 649.791 469.608 649.739 468.941C649.739 468.273 650.156 467.727 650.73 467.667H650.783C651.357 467.606 651.774 468.152 651.826 468.819C651.826 468.759 651.826 468.819 651.826 468.819Z" fill="#927463"/>
<path d="M861.255 471.853H857.445V625.703H861.255V471.853Z" fill="#927463"/>
<path opacity="0.7" d="M861.255 471.853H857.445V625.703H861.255V471.853Z" fill="white"/>
<path d="M859.376 525.179C858.854 525.179 858.384 524.633 858.384 524.026V473.915C858.384 473.309 858.802 472.763 859.376 472.763C859.898 472.763 860.368 473.248 860.368 473.915V524.026C860.368 524.693 859.898 525.179 859.376 525.179Z" fill="#DDD3CD"/>
<path d="M810.946 612.963H688.827V603.803H810.946V612.963ZM689.297 612.417H810.476V604.349H689.297V612.417Z" fill="#55443A"/>
<path d="M693.263 605.683H690.497V611.022H693.263V605.683Z" fill="#55443A"/>
<path d="M696.968 605.683H694.202V611.022H696.968V605.683Z" fill="#55443A"/>
<path d="M700.726 605.683H697.96V611.022H700.726V605.683Z" fill="#55443A"/>
<path d="M704.484 605.683H701.718V611.022H704.484V605.683Z" fill="#55443A"/>
<path d="M708.241 605.683H705.475V611.022H708.241V605.683Z" fill="#55443A"/>
<path d="M711.999 605.683H709.233V611.022H711.999V605.683Z" fill="#55443A"/>
<path d="M715.704 605.683H712.938V611.022H715.704V605.683Z" fill="#55443A"/>
<path d="M719.461 605.683H716.695V611.022H719.461V605.683Z" fill="#55443A"/>
<path d="M723.219 605.683H720.453V611.022H723.219V605.683Z" fill="#55443A"/>
<path d="M726.976 605.683H724.21V611.022H726.976V605.683Z" fill="#55443A"/>
<path d="M730.734 605.683H727.968V611.022H730.734V605.683Z" fill="#55443A"/>
<path d="M734.439 605.683H731.673V611.022H734.439V605.683Z" fill="#55443A"/>
<path d="M738.197 605.683H735.431V611.022H738.197V605.683Z" fill="#55443A"/>
<path d="M741.954 605.683H739.188V611.022H741.954V605.683Z" fill="#55443A"/>
<path d="M745.712 605.683H742.946V611.022H745.712V605.683Z" fill="#55443A"/>
<path d="M749.469 605.683H746.703V611.022H749.469V605.683Z" fill="#55443A"/>
<path d="M753.174 605.683H750.408V611.022H753.174V605.683Z" fill="#55443A"/>
<path d="M756.932 605.683H754.166V611.022H756.932V605.683Z" fill="#55443A"/>
<path d="M760.689 605.683H757.924V611.022H760.689V605.683Z" fill="#55443A"/>
<path d="M734.178 542.165L733.135 537.615C733.082 537.433 732.978 537.312 732.821 537.312H720.088C719.879 537.312 719.774 537.494 719.774 537.676V591.184C719.774 591.427 719.931 591.548 720.088 591.548H784.852C785.061 591.548 785.165 591.366 785.165 591.184V542.772C785.165 542.59 785.009 542.408 784.852 542.408H734.491C734.335 542.469 734.23 542.347 734.178 542.165Z" fill="#55443A"/>
<path opacity="0.2" d="M734.178 542.165L733.135 537.615C733.082 537.433 732.978 537.312 732.821 537.312H720.088C719.879 537.312 719.774 537.494 719.774 537.676V591.184C719.774 591.427 719.931 591.548 720.088 591.548H784.852C785.061 591.548 785.165 591.366 785.165 591.184V542.772C785.165 542.59 785.009 542.408 784.852 542.408H734.491C734.335 542.469 734.23 542.347 734.178 542.165Z" fill="black"/>
<path d="M719.931 556.665L760.585 571.467L776.972 510.861L746.807 499.82L733.239 507.585L719.931 556.665Z" fill="#927463"/>
<path opacity="0.6" d="M719.931 556.665L760.585 571.467L776.972 510.861L746.807 499.82L733.239 507.585L719.931 556.665Z" fill="white"/>
<path d="M746.808 499.82L733.239 507.585L743.676 511.407L746.808 499.82Z" fill="#927463"/>
<path d="M747.705 511.352L747.282 512.915L769.838 521.156L770.26 519.594L747.705 511.352Z" fill="#927463"/>
<path d="M746.614 515.244L746.192 516.807L768.742 525.048L769.165 523.486L746.614 515.244Z" fill="#927463"/>
<path d="M743.238 517.267L742.81 518.829L765.308 527.085L765.731 525.524L743.238 517.267Z" fill="#927463"/>
<path d="M734.016 519.256L733.594 520.818L766.654 532.899L767.077 531.336L734.016 519.256Z" fill="#927463"/>
<path d="M732.957 523.223L732.534 524.786L765.595 536.867L766.018 535.304L732.957 523.223Z" fill="#927463"/>
<path d="M731.866 527.12L731.444 528.683L764.504 540.763L764.927 539.201L731.866 527.12Z" fill="#927463"/>
<path d="M730.828 531.03L730.405 532.593L763.461 544.673L763.883 543.11L730.828 531.03Z" fill="#927463"/>
<path d="M729.763 535.007L729.34 536.569L762.401 548.65L762.824 547.087L729.763 535.007Z" fill="#927463"/>
<path d="M728.719 538.911L728.297 540.473L761.352 552.554L761.775 550.992L728.719 538.911Z" fill="#927463"/>
<path d="M727.623 542.812L727.201 544.374L760.256 556.455L760.679 554.893L727.623 542.812Z" fill="#927463"/>
<path d="M726.564 546.78L726.141 548.342L759.202 560.423L759.625 558.86L726.564 546.78Z" fill="#927463"/>
<path d="M725.52 550.699L725.098 552.261L758.153 564.342L758.576 562.779L725.52 550.699Z" fill="#927463"/>
<path d="M719.879 591.669H784.643C784.852 591.669 784.957 591.487 784.957 591.305C784.957 591.305 784.957 591.305 784.957 591.245L780.521 546.897C780.521 546.715 780.364 546.533 780.208 546.533H728.751C728.594 546.533 728.49 546.412 728.438 546.291L726.976 542.105C726.924 541.983 726.82 541.862 726.663 541.862H714.973C714.764 541.862 714.66 542.044 714.66 542.226V542.287L719.566 591.305C719.566 591.548 719.67 591.669 719.879 591.669Z" fill="#55443A"/>
<path d="M533.778 615.997L548.339 615.936L548.756 625.703C548.86 628.251 549.956 630.617 551.731 632.073L562.429 640.931L535.605 640.142L533.778 615.997Z" fill="#FC9D9D"/>
<path opacity="0.15" d="M543.381 636.259L547.243 638.019L535.553 639.535L534.248 623.034H548.547L548.652 624.975L540.093 626.431C539.154 626.613 538.527 627.584 538.632 628.615V628.797C538.84 632.195 540.719 635.046 543.381 636.259Z" fill="black"/>
<path d="M489.419 615.997L503.666 615.936L501.422 639.657H489.367L489.419 615.997Z" fill="#FC9D9D"/>
<path opacity="0.15" d="M489.419 639.778L489.471 622.973L503.04 622.913L502.831 624.915L494.168 626.431C493.333 626.553 492.707 627.341 492.707 628.312L492.446 635.592L489.419 639.778Z" fill="black"/>
<path d="M489.158 429.143H543.172L548.965 623.034H534.091L519.061 464.937C519.061 463.905 518.331 463.056 517.443 463.056C516.556 463.056 515.826 463.905 515.826 464.937L504.083 623.034H489.21V429.143H489.158Z" fill="#927463"/>
<path opacity="0.2" d="M497.925 429.447L495.525 618.969L489.106 618.909L489.262 429.447H497.925Z" fill="black"/>
<path d="M489.158 634.379L489.106 635.774C489.106 636.927 488.897 638.14 488.584 639.232L487.123 644.085C486.705 645.481 486.496 646.876 486.496 648.332V648.575C486.549 649.545 487.279 650.334 488.114 650.273H502.935C503.77 650.334 504.501 649.545 504.553 648.575V647.968C504.553 646.694 504.344 645.481 504.031 644.267L502.727 639.293C502.466 638.261 502.309 637.23 502.309 636.138V634.318C502.309 633.165 501.944 632.073 501.265 631.224L501.057 630.921C498.238 627.584 493.594 627.523 490.671 630.799L490.306 631.224C489.628 632.134 489.21 633.226 489.158 634.379Z" fill="#DDD3CD"/>
<path d="M488.218 619.03H505.179L504.866 623.034H488.218V619.03Z" fill="#927463"/>
<path opacity="0.15" d="M488.218 619.03H495.316L495.159 623.034H488.218V619.03Z" fill="black"/>
<path opacity="0.51" d="M486.444 647.24H504.449C504.501 647.483 504.501 647.725 504.501 647.968V648.575C504.449 649.545 503.718 650.334 502.883 650.273H488.062C487.227 650.334 486.496 649.545 486.444 648.575V647.24Z" fill="black"/>
<path d="M535.292 633.347L540.98 635.41C541.815 635.713 542.702 635.471 543.381 634.803L547.869 630.314C548.86 629.283 550.374 629.283 551.418 630.193L561.594 639.353L569.579 642.447C571.927 643.357 573.545 645.905 573.545 648.817C573.545 649.667 572.971 650.273 572.24 650.334H536.701C535.031 650.334 533.622 648.757 533.622 646.815V634.682C533.622 633.893 534.196 633.287 534.874 633.287C535.135 633.287 535.24 633.287 535.292 633.347Z" fill="#DDD3CD"/>
<path opacity="0.51" d="M533.778 647.422H573.441C573.545 647.907 573.597 648.393 573.597 648.939C573.597 649.788 573.023 650.395 572.292 650.455H536.753C535.292 650.395 534.039 649.121 533.778 647.422Z" fill="black"/>
<path d="M551.522 635.046L553.662 632.377C553.766 632.255 553.766 632.013 553.662 631.831C553.557 631.709 553.348 631.709 553.192 631.831L551.052 634.5C550.948 634.621 550.948 634.864 551.052 634.985C551.104 635.046 551.157 635.046 551.261 635.107C551.365 635.107 551.418 635.046 551.522 635.046Z" fill="white"/>
<path d="M546.094 354.887C546.355 347.304 541.919 340.388 537.327 338.689L526.159 333.715C526.159 333.654 523.08 332.744 523.08 332.683L524.228 333.047L507.006 332.38L506.119 332.683L485.192 338.447C479.712 339.903 475.798 345.909 475.902 352.703L476.215 370.297L489.314 391.591L488.427 431.509C488.375 432.965 489.367 434.179 490.619 434.239H541.659C542.859 434.239 543.85 433.087 543.903 431.691L546.094 354.887Z" fill="#DDD3CD"/>
<path d="M553.192 636.563L555.332 633.893C555.436 633.772 555.436 633.529 555.332 633.347C555.227 633.226 555.018 633.226 554.862 633.347L552.722 636.017C552.618 636.138 552.618 636.381 552.722 636.563C552.774 636.623 552.827 636.684 552.931 636.684C553.035 636.623 553.14 636.623 553.192 636.563Z" fill="white"/>
<path d="M554.914 638.079L557.054 635.41C557.158 635.289 557.158 635.046 557.054 634.864C556.949 634.743 556.741 634.743 556.584 634.864L554.444 637.533C554.34 637.655 554.34 637.897 554.444 638.019C554.497 638.079 554.549 638.079 554.653 638.14C554.757 638.201 554.81 638.14 554.914 638.079Z" fill="white"/>
<path d="M498.917 635.107C498.969 634.925 498.917 634.621 498.76 634.5C496.829 633.408 494.533 633.408 492.602 634.5C492.393 634.621 492.341 634.864 492.446 635.107C492.55 635.349 492.759 635.41 492.967 635.289C494.69 634.318 496.673 634.318 498.395 635.289C498.447 635.349 498.499 635.349 498.552 635.349C498.708 635.349 498.865 635.289 498.917 635.107Z" fill="white"/>
<path d="M498.917 637.351C498.969 637.169 498.917 636.866 498.76 636.745C496.829 635.653 494.533 635.653 492.602 636.745C492.393 636.866 492.341 637.109 492.446 637.351C492.55 637.594 492.759 637.655 492.967 637.533C494.69 636.563 496.673 636.563 498.395 637.533C498.447 637.594 498.499 637.594 498.552 637.594C498.708 637.594 498.865 637.473 498.917 637.351Z" fill="white"/>
<path d="M498.917 639.475C499.021 639.232 498.917 638.989 498.76 638.868C496.829 637.776 494.533 637.776 492.602 638.868C492.393 638.989 492.341 639.232 492.446 639.475C492.55 639.717 492.759 639.778 492.967 639.657C494.69 638.686 496.673 638.686 498.395 639.657C498.447 639.717 498.499 639.717 498.552 639.717C498.708 639.717 498.865 639.657 498.917 639.475Z" fill="white"/>
<path d="M541.398 341.662C541.398 341.662 547.869 346.03 548.86 360.408L554.131 404.573L538.579 403.845L541.398 341.662Z" fill="#DDD3CD"/>
<path opacity="0.2" d="M534.039 622.185L519.061 464.937C519.009 463.905 518.331 463.117 517.443 463.117H520.523C524.437 463.117 527.777 466.696 528.246 471.489L542.963 620.729L534.039 622.185Z" fill="black"/>
<path d="M532.578 619.03H549.278L549.539 623.034H532.891L532.578 619.03Z" fill="#927463"/>
<path opacity="0.15" d="M488.218 619.03H505.179L504.866 623.034H488.218V619.03Z" fill="black"/>
<path opacity="0.3" d="M500.274 399.599L493.176 398.507L495.003 360.954C495.003 360.893 495.107 360.833 495.264 360.772C496.047 360.529 496.83 361.136 497.038 362.046C497.038 362.167 497.09 362.289 497.09 362.41L497.56 396.141L527.255 401.419C527.568 401.479 527.777 401.783 527.777 402.147C527.777 402.571 527.516 402.875 527.15 402.875C527.098 402.875 527.098 402.875 527.046 402.875L500.274 399.599Z" fill="black"/>
<path opacity="0.15" d="M532.578 619.03H549.278L549.539 623.034H532.891L532.578 619.03Z" fill="black"/>
<path opacity="0.3" d="M543.798 344.453L538.475 403.724L548.808 404.209L546.668 370.903L546.512 363.927C546.512 363.138 546.147 362.471 545.625 361.985L543.798 344.453Z" fill="black"/>
<path opacity="0.15" d="M532.578 619.03H542.441L542.807 623.034H532.891L532.578 619.03Z" fill="black"/>
<path opacity="0.3" d="M498.03 414.887L497.821 434.239H490.619C489.367 434.179 488.375 432.965 488.375 431.509L488.688 416.585L498.03 414.887Z" fill="black"/>
<g opacity="0.6">
<path opacity="0.6" d="M498.343 368.841C498.92 368.841 499.387 368.297 499.387 367.627C499.387 366.957 498.92 366.414 498.343 366.414C497.767 366.414 497.299 366.957 497.299 367.627C497.299 368.297 497.767 368.841 498.343 368.841Z" fill="white"/>
<path opacity="0.6" d="M506.745 347C507.322 347 507.789 346.457 507.789 345.787C507.789 345.117 507.322 344.574 506.745 344.574C506.168 344.574 505.701 345.117 505.701 345.787C505.701 346.457 506.168 347 506.745 347Z" fill="white"/>
<path opacity="0.6" d="M492.654 341.965C493.231 341.965 493.698 341.422 493.698 340.752C493.698 340.082 493.231 339.539 492.654 339.539C492.078 339.539 491.611 340.082 491.611 340.752C491.611 341.422 492.078 341.965 492.654 341.965Z" fill="white"/>
<path opacity="0.6" d="M542.337 387.951C542.914 387.951 543.381 387.407 543.381 386.737C543.381 386.067 542.914 385.524 542.337 385.524C541.761 385.524 541.293 386.067 541.293 386.737C541.293 387.407 541.761 387.951 542.337 387.951Z" fill="white"/>
<path opacity="0.6" d="M511.442 420.589C512.019 420.589 512.486 420.046 512.486 419.376C512.486 418.706 512.019 418.163 511.442 418.163C510.865 418.163 510.398 418.706 510.398 419.376C510.398 420.046 510.865 420.589 511.442 420.589Z" fill="white"/>
<path opacity="0.6" d="M496.203 430.114C496.779 430.114 497.247 429.57 497.247 428.901C497.247 428.23 496.779 427.687 496.203 427.687C495.626 427.687 495.159 428.23 495.159 428.901C495.159 429.57 495.626 430.114 496.203 430.114Z" fill="white"/>
<path opacity="0.6" d="M535.657 419.315C536.234 419.315 536.701 418.772 536.701 418.102C536.701 417.432 536.234 416.889 535.657 416.889C535.081 416.889 534.613 417.432 534.613 418.102C534.613 418.772 535.081 419.315 535.657 419.315Z" fill="white"/>
<path opacity="0.6" d="M543.589 355.676C544.166 355.676 544.633 355.132 544.633 354.463C544.633 353.792 544.166 353.249 543.589 353.249C543.013 353.249 542.546 353.792 542.546 354.463C542.546 355.132 543.013 355.676 543.589 355.676Z" fill="white"/>
<path opacity="0.6" d="M527.724 357.253C528.301 357.253 528.768 356.71 528.768 356.04C528.768 355.37 528.301 354.827 527.724 354.827C527.148 354.827 526.681 355.37 526.681 356.04C526.681 356.71 527.148 357.253 527.724 357.253Z" fill="white"/>
<path opacity="0.6" d="M513.999 384.796C514.576 384.796 515.043 384.252 515.043 383.583C515.043 382.912 514.576 382.369 513.999 382.369C513.423 382.369 512.955 382.912 512.955 383.583C512.955 384.252 513.423 384.796 513.999 384.796Z" fill="white"/>
<path opacity="0.6" d="M523.706 396.929C524.283 396.929 524.75 396.386 524.75 395.716C524.75 395.046 524.283 394.503 523.706 394.503C523.129 394.503 522.662 395.046 522.662 395.716C522.662 396.386 523.129 396.929 523.706 396.929Z" fill="white"/>
<path opacity="0.6" d="M501.631 393.35C502.207 393.35 502.674 392.807 502.674 392.137C502.674 391.466 502.207 390.923 501.631 390.923C501.055 390.923 500.587 391.466 500.587 392.137C500.587 392.807 501.055 393.35 501.631 393.35Z" fill="white"/>
<path opacity="0.6" d="M522.923 430.114C523.5 430.114 523.967 429.57 523.967 428.901C523.967 428.23 523.5 427.687 522.923 427.687C522.346 427.687 521.879 428.23 521.879 428.901C521.879 429.57 522.346 430.114 522.923 430.114Z" fill="white"/>
<path opacity="0.6" d="M515.878 365.989C516.455 365.989 516.922 365.446 516.922 364.776C516.922 364.106 516.455 363.563 515.878 363.563C515.301 363.563 514.834 364.106 514.834 364.776C514.834 365.446 515.301 365.989 515.878 365.989Z" fill="white"/>
</g>
<path d="M533.517 378.305L532.578 373.755C532.526 373.573 532.421 373.451 532.317 373.451H520.94C520.783 373.451 520.627 373.633 520.627 373.815V427.323C520.627 427.505 520.731 427.687 520.94 427.687H578.764C578.92 427.687 579.077 427.505 579.077 427.323V378.911C579.077 378.729 578.973 378.547 578.764 378.547H533.83C533.622 378.547 533.517 378.426 533.517 378.305Z" fill="#55443A"/>
<path opacity="0.2" d="M533.517 378.305L532.578 373.755C532.526 373.573 532.421 373.451 532.317 373.451H520.94C520.783 373.451 520.627 373.633 520.627 373.815V427.323C520.627 427.505 520.731 427.687 520.94 427.687H578.764C578.92 427.687 579.077 427.505 579.077 427.323V378.911C579.077 378.729 578.973 378.547 578.764 378.547H533.83C533.622 378.547 533.517 378.426 533.517 378.305Z" fill="black"/>
<path d="M521.358 392.743L562.012 407.546L578.398 346.94L548.234 335.959L534.665 343.664L521.358 392.743Z" fill="#927463"/>
<path opacity="0.6" d="M521.358 392.743L562.012 407.546L578.398 346.94L548.234 335.959L534.665 343.664L521.358 392.743Z" fill="white"/>
<path d="M548.234 335.959L534.665 343.664L545.103 347.486L548.234 335.959Z" fill="#927463"/>
<path d="M549.111 347.442L548.688 349.005L571.241 357.247L571.664 355.684L549.111 347.442Z" fill="#927463"/>
<path d="M548.071 351.359L547.648 352.922L570.201 361.163L570.624 359.601L548.071 351.359Z" fill="#927463"/>
<path d="M547.022 355.271L546.599 356.834L569.153 365.076L569.576 363.513L547.022 355.271Z" fill="#927463"/>
<path d="M533.985 354.078L533.561 355.64L566.505 367.733L566.93 366.171L533.985 354.078Z" fill="#927463"/>
<path d="M534.367 359.32L533.945 360.882L567.053 372.982L567.476 371.419L534.367 359.32Z" fill="#927463"/>
<path d="M531.862 361.932L531.438 363.495L564.383 375.587L564.807 374.025L531.862 361.932Z" fill="#927463"/>
<path d="M532.229 367.131L531.807 368.693L564.915 380.793L565.338 379.23L532.229 367.131Z" fill="#927463"/>
<path d="M531.17 371.097L530.748 372.659L563.856 384.758L564.279 383.195L531.17 371.097Z" fill="#927463"/>
<path d="M530.127 375.007L529.704 376.57L562.812 388.669L563.235 387.107L530.127 375.007Z" fill="#927463"/>
<path d="M527.634 377.574L527.21 379.136L560.155 391.228L560.579 389.666L527.634 377.574Z" fill="#927463"/>
<path d="M527.973 382.876L527.55 384.439L560.658 396.538L561.081 394.975L527.973 382.876Z" fill="#927463"/>
<path d="M526.924 386.788L526.502 388.351L559.61 400.451L560.033 398.888L526.924 386.788Z" fill="#927463"/>
<path d="M520.731 427.748H578.555C578.712 427.748 578.868 427.566 578.868 427.323C578.868 427.323 578.868 427.323 578.868 427.263L574.902 382.915C574.902 382.733 574.745 382.551 574.589 382.551H528.664C528.559 382.551 528.455 382.491 528.403 382.369L527.098 378.183C527.046 378.062 526.942 377.941 526.837 377.941H516.4C516.243 377.941 516.087 378.123 516.087 378.365C516.087 378.365 516.087 378.365 516.087 378.426L520.47 427.445C520.47 427.627 520.575 427.748 520.731 427.748Z" fill="#55443A"/>
<path d="M498.865 399.599L530.125 402.935L529.603 413.431C529.603 413.431 502.413 416.161 488.688 414.28L491.611 404.937L498.865 399.599Z" fill="#FC9D9D"/>
<path d="M525.533 412.399L532.943 415.008C535.083 415.554 537.275 415.979 539.467 416.221L546.094 417.859C546.512 417.92 546.825 417.556 546.877 417.131C546.929 416.707 546.616 416.282 546.251 416.221L540.354 413.491L540.249 413.188H549.017C549.487 413.127 549.8 412.703 549.8 412.157C549.748 411.732 549.487 411.368 549.069 411.247L546.721 410.943L550.217 410.883C550.739 410.883 551.157 410.397 551.209 409.791C551.261 409.184 550.844 408.577 550.322 408.517L540.563 407.425L540.458 407L548.13 406.757C548.547 406.757 548.86 406.333 548.86 405.847C548.86 405.423 548.599 405.119 548.234 404.998L544.32 404.452L539.31 403.845L539.78 403.36C544.164 402.571 544.424 401.601 544.581 400.812C544.633 400.569 544.529 400.327 544.32 400.266C544.268 400.266 544.216 400.266 544.216 400.266L536.074 401.055L526.785 403.239L526.576 404.573" fill="#FC9D9D"/>
<g opacity="0.15">
<path opacity="0.15" d="M540.51 410.64C540.51 410.579 540.51 410.519 540.51 410.519C540.51 410.337 540.667 410.215 540.771 410.215L547.973 410.64C548.13 410.64 548.234 410.822 548.234 410.943C548.234 411.125 548.077 411.247 547.973 411.247L540.771 410.822C540.667 410.822 540.563 410.761 540.51 410.64Z" fill="black"/>
</g>
<path d="M494.899 373.33L493.855 398.325L508.572 400.63L499.856 414.826L485.87 415.129C481.069 415.433 476.894 411.186 476.633 405.605C476.633 405.423 476.633 405.18 476.633 404.998V373.997" fill="#FC9D9D"/>
<g opacity="0.15">
<path opacity="0.15" d="M545.573 403.845C545.573 403.663 545.416 403.481 545.259 403.481H542.963C542.807 403.481 542.65 403.663 542.65 403.845C542.65 404.027 542.807 404.21 542.963 404.21H545.259C545.416 404.21 545.573 404.027 545.573 403.845Z" fill="black"/>
</g>
<g opacity="0.15">
<path opacity="0.15" d="M545.729 407.182C545.729 407 545.573 406.818 545.416 406.818H543.015C542.859 406.818 542.702 407 542.702 407.182C542.702 407.364 542.859 407.546 543.015 407.546H545.364C545.573 407.546 545.729 407.364 545.729 407.182Z" fill="black"/>
</g>
<path d="M528.612 402.753L527.777 413.613L525.219 413.855L526.107 402.511L528.612 402.753Z" fill="black"/>
<path opacity="0.15" d="M493.803 398.325L490.984 398.082C490.88 398.082 490.828 397.961 490.828 397.839C490.828 397.779 490.88 397.718 490.984 397.657L493.959 396.626L493.803 398.325Z" fill="black"/>
<path d="M527.203 411.065C528.499 411.065 529.551 409.842 529.551 408.335C529.551 406.827 528.499 405.605 527.203 405.605C525.906 405.605 524.854 406.827 524.854 408.335C524.854 409.842 525.906 411.065 527.203 411.065Z" fill="#927463"/>
<path d="M527.203 410.397C528.183 410.397 528.977 409.474 528.977 408.335C528.977 407.195 528.183 406.272 527.203 406.272C526.222 406.272 525.428 407.195 525.428 408.335C525.428 409.474 526.222 410.397 527.203 410.397Z" fill="white"/>
<path d="M528.298 407.303L527.203 408.335H526.368" stroke="black" stroke-width="0.56" stroke-miterlimit="10" stroke-linecap="round"/>
<path d="M526.42 318.548C526.315 319.822 526.107 321.035 525.793 322.188L526.054 330.803L526.107 332.865C526.159 333.472 525.95 334.139 525.637 334.625C521.201 338.568 515.356 339.539 510.137 337.233C508.937 336.687 507.789 336.02 506.745 335.231C506.588 335.11 506.432 334.928 506.275 334.746L506.223 334.685V334.625C505.91 334.2 505.753 333.593 505.858 332.987L505.91 332.562V332.501L506.067 331.045L508.415 311.996L508.885 307.81C508.989 306.354 509.354 304.959 509.928 303.624C514.26 298.164 524.28 304.352 527.724 306.718C527.568 307.992 526.889 313.027 526.42 318.548Z" fill="#FC9D9D"/>
<path d="M476.111 373.997V351.551L496.412 350.641L495.368 374.543L476.111 373.997Z" fill="#DDD3CD"/>
<path d="M525.846 292.219C528.925 294.403 530.856 298.164 531.064 302.35C531.482 311.753 530.751 327.466 520.992 328.133C507.841 330.378 507.789 301.622 507.789 301.622C508.206 297.739 509.824 295.009 512.329 292.704C515.826 289.428 522.036 289.489 525.846 292.219Z" fill="#FC9D9D"/>
<path d="M531.012 309.205C531.012 309.205 529.76 318.123 527.985 320.55C527.777 320.853 527.046 322.491 526.628 320.247C526.42 319.215 525.689 318.427 524.802 318.245L520.94 317.456C520.001 317.274 519.061 317.759 518.592 318.73L517.704 320.55C517.704 320.55 512.851 323.705 509.981 308.235L508.937 307.931C508.937 307.931 508.885 326.617 519.374 328.255C519.322 328.194 530.595 330.924 531.012 309.205Z" fill="black"/>
<path opacity="0.3" d="M480.808 373.937L481.069 350.762C481.33 345.302 482.739 341.055 486.653 338.143L485.766 338.386C479.868 339.842 475.746 346.091 476.059 353.128V373.937H480.808Z" fill="black"/>
<path opacity="0.15" d="M501.944 414.947C513.164 414.887 525.324 413.855 528.664 413.552L532.891 415.008C535.031 415.554 537.223 415.979 539.414 416.221L546.042 417.859C546.251 417.859 546.408 417.799 546.564 417.617C545.625 417.981 539.049 415.311 539.049 415.311C535.448 414.523 531.952 413.309 528.612 411.671C528.559 411.489 528.559 411.489 528.507 411.611C528.403 412.096 514.26 411.853 507.058 411.732L487.488 410.519C484.044 410.64 481.069 407.061 481.069 402.147L481.434 373.937H476.737V404.877C476.737 410.458 480.599 414.947 485.4 415.008C485.609 415.008 485.818 415.008 486.079 415.008L501.944 414.947Z" fill="black"/>
<path opacity="0.15" d="M508.258 313.149C508.885 313.27 509.459 313.149 510.033 312.845L507.893 316.182L508.258 313.149Z" fill="black"/>
<path opacity="0.2" d="M526.107 331.045L525.95 326.01C524.697 327.345 521.253 329.043 517.6 327.648C515.773 326.92 514.156 325.585 513.008 323.765C512.955 323.583 512.799 323.523 512.642 323.644C512.486 323.765 512.433 323.887 512.538 324.069C512.538 324.069 512.538 324.129 512.59 324.129C514.051 326.435 516.243 328.073 518.696 328.619C520.731 330.56 523.445 331.47 526.107 331.045Z" fill="black"/>
<path d="M518.644 311.632C519.249 311.632 519.74 311.062 519.74 310.358C519.74 309.654 519.249 309.084 518.644 309.084C518.038 309.084 517.548 309.654 517.548 310.358C517.548 311.062 518.038 311.632 518.644 311.632Z" fill="black"/>
<path d="M518.8 310.904C518.916 310.904 519.009 310.796 519.009 310.661C519.009 310.527 518.916 310.419 518.8 310.419C518.685 310.419 518.592 310.527 518.592 310.661C518.592 310.796 518.685 310.904 518.8 310.904Z" fill="white"/>
<path d="M527.359 311.632C527.965 311.632 528.455 311.062 528.455 310.358C528.455 309.654 527.965 309.084 527.359 309.084C526.754 309.084 526.263 309.654 526.263 310.358C526.263 311.062 526.754 311.632 527.359 311.632Z" fill="black"/>
<path d="M527.516 310.843C527.631 310.843 527.724 310.735 527.724 310.601C527.724 310.467 527.631 310.358 527.516 310.358C527.4 310.358 527.307 310.467 527.307 310.601C527.307 310.735 527.4 310.843 527.516 310.843Z" fill="white"/>
<path opacity="0.6" d="M481.956 361.197C482.533 361.197 483 360.654 483 359.983C483 359.313 482.533 358.77 481.956 358.77C481.379 358.77 480.912 359.313 480.912 359.983C480.912 360.654 481.379 361.197 481.956 361.197Z" fill="white"/>
<path opacity="0.3" d="M523.654 316.425H522.14C521.932 316.425 521.827 316.243 521.827 316.061C521.827 315.879 521.984 315.697 522.14 315.697H523.654C524.019 315.636 524.28 315.272 524.28 314.847C524.228 314.483 523.967 314.18 523.654 314.119C523.445 314.119 523.289 313.937 523.289 313.755C523.289 313.513 523.445 313.331 523.602 313.331C524.332 313.331 524.959 314.059 524.959 314.908C525.011 315.697 524.384 316.425 523.654 316.425Z" fill="black"/>
<path d="M520.314 319.883L524.645 320.55C524.697 320.55 524.697 320.55 524.697 320.611L524.75 320.671V320.732V320.793C524.123 322.188 522.662 322.795 521.462 322.067C520.783 321.703 520.314 320.975 520.157 320.125V320.065V320.004C520.157 320.004 520.157 319.943 520.209 319.943L520.262 319.883C520.262 319.943 520.314 319.943 520.314 319.883Z" fill="white"/>
<path d="M516.295 306.779C519.061 304.898 520.418 306.233 520.418 306.233L520.522 306.657C520.522 306.657 517.913 306.172 516.556 307.021L516.295 306.779Z" fill="black"/>
<path d="M529.707 306.839C526.942 304.959 525.585 306.293 525.585 306.293L525.48 306.718C525.48 306.718 528.09 306.233 529.446 307.082L529.707 306.839Z" fill="black"/>
<path d="M504.501 333.29C505.649 339.963 514.417 340.752 514.417 340.752C523.915 342.754 527.202 334.564 527.202 334.564L526.628 331.349C526.576 331.227 526.472 331.167 526.42 331.227C513.895 334.503 507.371 331.045 506.014 329.953C505.858 329.832 505.649 329.893 505.545 330.075C505.545 330.075 505.545 330.135 505.493 330.135L504.501 333.29Z" fill="#DDD3CD"/>
<path d="M509.459 305.808C509.093 304.291 507.789 303.381 506.484 303.745C506.328 303.806 506.223 303.867 506.067 303.927C502.988 305.201 503.04 313.149 508.154 314.059C510.816 314.544 510.346 312.724 510.085 310.237L509.459 305.808Z" fill="#FC9D9D"/>
<path opacity="0.3" d="M505.806 305.99C506.223 305.626 506.797 305.565 507.319 305.687C507.789 305.869 508.206 306.293 508.415 306.839C508.676 307.507 508.833 308.295 508.78 309.023V309.691C508.78 309.873 508.624 310.055 508.467 310.055C508.467 310.055 508.467 310.055 508.415 310.055C508.259 310.055 508.102 309.873 508.102 309.691C508.102 309.691 508.102 309.691 508.102 309.63V309.023C508.102 308.417 507.998 307.749 507.789 307.203C507.632 306.839 507.423 306.536 507.058 306.354C506.693 306.293 506.328 306.354 506.067 306.597C505.91 306.718 505.753 306.657 505.649 306.475C505.597 306.293 505.649 306.111 505.806 305.99Z" fill="black"/>
<path d="M657.828 351.854C641.284 352.582 625.419 355.069 608.041 358.406C609.241 376.485 610.442 394.381 611.694 412.035C630.221 408.517 650.73 402.632 669.674 405.241C668.631 389.892 667.639 375.939 666.595 360.833L657.828 351.854Z" fill="#927463"/>
<path opacity="0.6" d="M657.828 351.854C641.284 352.582 625.419 355.069 608.041 358.406C609.241 376.485 610.442 394.381 611.694 412.035C630.221 408.517 650.73 402.632 669.674 405.241C668.631 389.892 667.639 375.939 666.595 360.833L657.828 351.854Z" fill="white"/>
<path d="M616.861 363.138C617.539 372.966 619.261 395.413 619.992 405.18L621.453 405.059C620.775 395.352 619 372.905 618.322 363.138H616.861Z" fill="#927463"/>
<path d="M620.566 362.349C621.244 372.056 623.019 394.503 623.697 404.149L625.211 403.967C624.532 394.321 622.758 371.935 622.079 362.228C621.557 362.228 621.088 362.289 620.566 362.349Z" fill="#927463"/>
<path d="M624.324 361.925C625.002 371.571 626.777 393.957 627.455 403.603C627.977 403.542 628.447 403.421 628.969 403.36C628.29 393.775 626.516 371.389 625.837 361.743L624.324 361.925Z" fill="#927463"/>
<path d="M628.081 361.379C629.125 375.453 630.116 388.921 631.16 402.935L632.673 402.632C631.63 388.618 630.586 375.211 629.594 361.136L628.081 361.379Z" fill="#927463"/>
<path d="M631.891 360.711C632.935 374.725 633.979 388.133 634.97 402.147L636.484 401.843C635.44 387.829 634.396 374.483 633.405 360.469L631.891 360.711Z" fill="#927463"/>
<path d="M635.648 359.983C636.692 373.997 637.736 387.344 638.727 401.358L640.241 401.055C639.197 387.041 638.153 373.694 637.162 359.68L635.648 359.983Z" fill="#927463"/>
<path d="M639.458 359.801C640.502 373.755 641.546 387.162 642.537 401.176L644.051 400.873C643.007 386.859 641.963 373.451 640.972 359.498L639.458 359.801Z" fill="#927463"/>
<path d="M643.215 359.013C644.259 373.027 645.303 386.434 646.294 400.448L647.808 400.145C646.764 386.07 645.72 372.663 644.729 358.649L643.215 359.013Z" fill="#927463"/>
<path d="M647.026 358.831C648.069 372.845 649.113 386.252 650.105 400.387C650.626 400.327 651.096 400.205 651.618 400.145C650.574 386.009 649.583 372.541 648.539 358.527L647.026 358.831Z" fill="#927463"/>
<path d="M651.304 365.443C652.348 379.518 652.818 385.706 653.862 399.902L655.323 399.72C654.331 385.524 653.809 379.275 652.766 365.201L651.304 365.443Z" fill="#927463"/>
<path d="M655.115 365.383C656.158 379.518 656.628 385.827 657.62 400.084L659.081 399.963C658.089 385.645 657.567 379.336 656.576 365.201C656.106 365.261 655.584 365.322 655.115 365.383Z" fill="#927463"/>
<path d="M658.872 364.897C659.915 379.093 660.385 385.524 661.377 399.902C661.846 399.902 662.368 399.902 662.838 399.902C661.846 385.463 661.377 379.033 660.333 364.776L658.872 364.897Z" fill="#927463"/>
<path d="M657.828 351.854L658.35 361.197L666.595 360.893L657.828 351.854Z" fill="#927463"/>
<path d="M715.756 400.933C707.771 415.675 699.63 430.66 691.437 445.827C712.103 439.032 712.259 483.44 734.804 477.07L750.356 448.921L756.097 439.032C735.953 443.339 737.362 396.626 715.756 400.933Z" fill="#927463"/>
<path opacity="0.6" d="M715.756 400.933C707.771 415.675 699.63 430.66 691.437 445.827C712.103 439.032 712.259 483.44 734.804 477.07L750.356 448.921L756.097 439.032C735.953 443.339 737.362 396.626 715.756 400.933Z" fill="white"/>
<path d="M728.072 472.095C733.865 461.661 738.562 452.5 744.303 442.126C743.885 441.944 743.52 441.701 743.154 441.459C737.414 451.833 732.717 460.993 726.976 471.367C727.29 471.671 727.655 471.913 728.072 472.095Z" fill="#927463"/>
<path d="M725.306 469.972C731.047 459.598 735.744 450.437 741.484 440.124C741.119 439.821 740.806 439.457 740.493 439.032C734.752 449.345 730.108 458.506 724.367 468.88C724.628 469.244 724.993 469.608 725.306 469.972Z" fill="#927463"/>
<path d="M722.958 466.999C728.699 456.625 733.395 447.465 739.136 437.151C738.823 436.727 738.562 436.241 738.301 435.817C732.56 446.13 727.916 455.291 722.123 465.665C722.384 466.15 722.645 466.575 722.958 466.999Z" fill="#927463"/>
<path d="M720.87 463.541C726.663 453.107 731.36 443.885 737.101 433.572C736.84 433.087 736.579 432.541 736.37 431.995C730.629 442.369 725.933 451.59 720.088 462.085C720.348 462.51 720.557 463.056 720.87 463.541Z" fill="#927463"/>
<path d="M718.417 460.265C724.263 449.709 729.481 439.881 735.274 429.447C735.065 428.901 734.804 428.294 734.596 427.748C728.803 438.183 723.532 448.071 717.687 458.688C717.896 459.234 718.157 459.78 718.417 460.265Z" fill="#927463"/>
<path d="M716.539 456.261C722.436 445.584 727.707 435.635 733.552 425.139C733.343 424.533 733.134 423.987 732.926 423.38C727.081 433.936 721.757 443.946 715.86 454.684C716.069 455.169 716.33 455.715 716.539 456.261Z" fill="#927463"/>
<path d="M713.616 453.531C717.896 445.766 723.793 435.089 731.36 421.378C731.151 420.771 730.943 420.225 730.682 419.679C723.062 433.451 717.165 444.189 712.833 452.015C713.147 452.5 713.408 452.985 713.616 453.531Z" fill="#927463"/>
<path d="M711.685 449.77C716.069 441.823 721.497 431.57 729.168 417.677C728.959 417.131 728.699 416.585 728.438 416.039C720.766 429.993 715.286 440.306 710.85 448.375C711.111 448.799 711.424 449.285 711.685 449.77Z" fill="#927463"/>
<path d="M709.493 446.433C713.982 438.243 719.513 428.415 727.289 414.341C727.028 413.855 726.768 413.37 726.507 412.885C718.731 427.081 713.147 437.03 708.606 445.281C708.867 445.645 709.18 446.009 709.493 446.433Z" fill="#927463"/>
<path d="M707.041 443.703C711.633 435.271 717.322 425.2 725.202 410.822C724.889 410.397 724.576 410.033 724.263 409.609C716.33 424.047 710.642 434.239 705.945 442.793C706.31 443.097 706.675 443.4 707.041 443.703Z" fill="#927463"/>
<path d="M704.692 456.216C709.441 443.623 714.712 429.543 722.749 408.467C722.384 408.03 722.018 407.592 721.653 407.243C713.616 428.494 708.241 442.748 703.44 455.516C703.805 455.691 704.275 455.954 704.692 456.216Z" fill="#927463"/>
<path d="M701.3 455.306C706.206 442.339 711.633 427.892 719.827 406.396C719.409 406.135 718.992 405.961 718.522 405.787C710.328 427.457 704.797 442.078 699.839 455.306C700.308 455.306 700.778 455.306 701.3 455.306Z" fill="#927463"/>
<ellipse cx="227.5" cy="541.5" rx="227.5" ry="219.5" fill="#927463" fill-opacity="0.11"/>
<ellipse cx="897" cy="663" rx="68" ry="67" fill="#927463" fill-opacity="0.11"/>
</svg>
