<svg width="167" height="35" viewBox="0 0 167 35" fill="none" xmlns="http://www.w3.org/2000/svg">
<path d="M41.5 15.35L41.425 17.75H41.475C42.525 16.4167 43.9417 15.75 45.725 15.75C47.225 15.75 48.4083 16.25 49.275 17.25C50.1417 18.2333 50.575 19.5583 50.575 21.225C50.575 22.875 50 24.3083 48.85 25.525C47.7167 26.725 46.3583 27.325 44.775 27.325C44.2083 27.325 43.6833 27.25 43.2 27.1C42.7333 26.9667 42.4083 26.8417 42.225 26.725C42.0583 26.6083 41.8333 26.4417 41.55 26.225C41.5667 26.5083 41.575 27.35 41.575 28.75V30.8C41.575 32.2667 41.75 33 42.1 33H43.325C43.4583 33 43.525 33.125 43.525 33.375C43.525 33.625 43.475 33.75 43.375 33.75L40.65 33.725L37.75 33.8C37.6333 33.8 37.575 33.675 37.575 33.425C37.575 33.175 37.6167 33.05 37.7 33.05H39.15C39.35 33.05 39.45 32.9083 39.45 32.625V20C39.45 18.3833 39.2167 17.575 38.75 17.575H38.25C38.1167 17.575 38.05 17.45 38.05 17.2C38.05 16.95 38.1 16.825 38.2 16.825C38.65 16.825 39.0917 16.6833 39.525 16.4C39.975 16.1 40.3417 15.8 40.625 15.5C40.9083 15.2 41.0833 15.05 41.15 15.05C41.3833 15.05 41.5 15.15 41.5 15.35ZM44.7 26.425C45.8333 26.425 46.675 25.9417 47.225 24.975C47.7917 23.9917 48.075 22.8833 48.075 21.65C48.075 20.4167 47.7333 19.3833 47.05 18.55C46.3667 17.7 45.4417 17.275 44.275 17.275C43.475 17.275 42.8333 17.45 42.35 17.8C42.1 17.9833 41.9167 18.1333 41.8 18.25C41.6833 18.35 41.6083 18.4083 41.575 18.425V22.9C41.775 25.25 42.8167 26.425 44.7 26.425ZM58.3758 25.2C59.0091 25.2 59.5591 25.1333 60.0258 25C60.4924 24.8667 60.8341 24.7167 61.0508 24.55L61.6008 24.1C61.7674 23.9667 61.8924 23.9 61.9758 23.9C62.1591 23.9 62.2508 24 62.2508 24.2C62.2508 24.5667 61.9258 25.1333 61.2758 25.9C60.9591 26.2833 60.4841 26.6167 59.8508 26.9C59.2174 27.1833 58.5091 27.325 57.7258 27.325C56.2591 27.325 55.0258 26.775 54.0258 25.675C53.0258 24.575 52.5258 23.3083 52.5258 21.875C52.5258 20.075 53.1174 18.6083 54.3008 17.475C55.4841 16.3417 56.7924 15.775 58.2258 15.775C59.3091 15.775 60.2174 16.1667 60.9508 16.95C61.7008 17.7167 62.0758 18.7333 62.0758 20C62.0758 20.2667 62.0174 20.4583 61.9008 20.575C61.7841 20.675 61.5174 20.7417 61.1008 20.775C60.6841 20.7917 59.6674 20.8083 58.0508 20.825C56.4341 20.8417 55.0424 20.8833 53.8758 20.95C53.8758 22.3667 54.3341 23.4333 55.2508 24.15C56.1841 24.85 57.2258 25.2 58.3758 25.2ZM59.9508 19.225C59.9508 18.6583 59.7174 18.1667 59.2508 17.75C58.7841 17.3333 58.1758 17.125 57.4258 17.125C56.6924 17.125 55.9758 17.4 55.2758 17.95C54.5758 18.4833 54.1341 19.225 53.9508 20.175C54.3841 20.125 55.2591 20.05 56.5758 19.95C57.8924 19.8333 58.7841 19.75 59.2508 19.7C59.7174 19.6333 59.9508 19.475 59.9508 19.225ZM68.0213 15.35L67.9713 17.3H68.0213C68.5213 16.8333 69.1046 16.4583 69.7713 16.175C70.438 15.8917 71.0463 15.75 71.5963 15.75C74.363 15.75 75.7463 17.35 75.7463 20.55V24.05C75.7463 25.5167 75.9213 26.25 76.2713 26.25H77.4963C77.6296 26.25 77.6963 26.375 77.6963 26.625C77.6963 26.875 77.6463 27 77.5463 27C77.5463 27 76.638 26.9917 74.8213 26.975L71.9213 27.05C71.8046 27.05 71.7463 26.925 71.7463 26.675C71.7463 26.425 71.788 26.3 71.8713 26.3H73.3213C73.5213 26.3 73.6213 26.1583 73.6213 25.875V21.65C73.6213 19.95 73.388 18.775 72.9213 18.125C72.4713 17.4583 71.6963 17.125 70.5963 17.125C69.4963 17.125 68.6463 17.4583 68.0463 18.125V24.05C68.0463 25.5167 68.2213 26.25 68.5713 26.25H69.7963C69.9296 26.25 69.9963 26.375 69.9963 26.625C69.9963 26.875 69.9463 27 69.8463 27L67.1213 26.975L64.2213 27.05C64.1046 27.05 64.0463 26.925 64.0463 26.675C64.0463 26.425 64.088 26.3 64.1713 26.3H65.6213C65.8213 26.3 65.9213 26.1583 65.9213 25.875V20C65.9213 18.3833 65.688 17.575 65.2213 17.575H64.7213C64.588 17.575 64.5213 17.45 64.5213 17.2C64.5213 16.95 64.5713 16.825 64.6713 16.825C65.1213 16.825 65.5713 16.6833 66.0213 16.4C66.4713 16.1 66.838 15.8 67.1213 15.5C67.4213 15.2 67.6046 15.05 67.6713 15.05C67.9046 15.05 68.0213 15.15 68.0213 15.35ZM79.7865 10.175L82.9365 10.225H85.8115C88.0115 10.225 89.6615 10.6417 90.7615 11.475C91.8782 12.3083 92.4365 13.3 92.4365 14.45C92.4365 15.6 92.0282 16.5417 91.2115 17.275C90.3949 17.9917 89.3532 18.4917 88.0865 18.775C86.7199 18.925 85.8782 19 85.5615 19C85.2615 19 84.8532 18.95 84.3365 18.85V23.975C84.3365 25.4417 84.5115 26.175 84.8615 26.175H86.3115C86.4449 26.175 86.5115 26.3167 86.5115 26.6C86.5115 26.8667 86.4449 27 86.3115 27L83.1615 26.975L79.6615 27.05C79.5282 27.05 79.4615 26.9083 79.4615 26.625C79.4615 26.3417 79.5282 26.2 79.6615 26.2H80.7365C81.1532 26.2 81.4282 26.125 81.5615 25.975C81.6949 25.8083 81.7615 25.5 81.7615 25.05V13.2C81.7615 11.7333 81.5865 11 81.2365 11H79.7865C79.6532 11 79.5865 10.8667 79.5865 10.6C79.5865 10.3167 79.6532 10.175 79.7865 10.175ZM85.6615 18.075C86.9449 18.075 87.9449 17.7583 88.6615 17.125C89.3782 16.4917 89.7365 15.7083 89.7365 14.775C89.7365 13.8417 89.3532 13.0167 88.5865 12.3C87.8199 11.5833 86.7282 11.225 85.3115 11.225C84.6615 11.225 84.3365 11.5667 84.3365 12.25V17.925C84.7865 18.025 85.2282 18.075 85.6615 18.075ZM94.8365 25.25C94.9365 25.1667 95.0365 25.175 95.1365 25.275C95.2365 25.3583 95.2865 25.425 95.2865 25.475C95.2865 25.5083 95.2782 25.5417 95.2615 25.575C94.4449 26.7417 93.5365 27.325 92.5365 27.325C91.8365 27.325 91.1949 27.0833 90.6115 26.6C90.0282 26.1167 89.5282 25.5083 89.1115 24.775C88.7115 24.0417 88.3199 23.2917 87.9365 22.525C86.9865 20.575 86.0782 19.3917 85.2115 18.975L86.8115 18.675C87.5782 18.8083 88.2449 19.15 88.8115 19.7C89.3949 20.25 89.8615 20.8667 90.2115 21.55C90.5615 22.2167 90.8949 22.8833 91.2115 23.55C91.9615 25.1167 92.7782 25.9 93.6615 25.9C93.9782 25.9 94.3699 25.6833 94.8365 25.25ZM100.954 25.2C101.587 25.2 102.137 25.1333 102.604 25C103.071 24.8667 103.412 24.7167 103.629 24.55L104.179 24.1C104.346 23.9667 104.471 23.9 104.554 23.9C104.737 23.9 104.829 24 104.829 24.2C104.829 24.5667 104.504 25.1333 103.854 25.9C103.537 26.2833 103.062 26.6167 102.429 26.9C101.796 27.1833 101.087 27.325 100.304 27.325C98.8372 27.325 97.6039 26.775 96.6039 25.675C95.6039 24.575 95.1039 23.3083 95.1039 21.875C95.1039 20.075 95.6956 18.6083 96.8789 17.475C98.0622 16.3417 99.3706 15.775 100.804 15.775C101.887 15.775 102.796 16.1667 103.529 16.95C104.279 17.7167 104.654 18.7333 104.654 20C104.654 20.2667 104.596 20.4583 104.479 20.575C104.362 20.675 104.096 20.7417 103.679 20.775C103.262 20.7917 102.246 20.8083 100.629 20.825C99.0122 20.8417 97.6206 20.8833 96.4539 20.95C96.4539 22.3667 96.9122 23.4333 97.8289 24.15C98.7622 24.85 99.8039 25.2 100.954 25.2ZM102.529 19.225C102.529 18.6583 102.296 18.1667 101.829 17.75C101.362 17.3333 100.754 17.125 100.004 17.125C99.2706 17.125 98.5539 17.4 97.8539 17.95C97.1539 18.4833 96.7122 19.225 96.5289 20.175C96.9622 20.125 97.8372 20.05 99.1539 19.95C100.471 19.8333 101.362 19.75 101.829 19.7C102.296 19.6333 102.529 19.475 102.529 19.225ZM110.974 26.1L113.924 25.975C115.124 25.975 116.116 26.2083 116.899 26.675C117.699 27.1417 118.099 27.8417 118.099 28.775C118.099 30.1083 117.316 31.3083 115.749 32.375C114.183 33.4583 112.508 34 110.724 34C107.991 34 106.624 33.175 106.624 31.525C106.624 30.8417 106.941 30.15 107.574 29.45C108.208 28.75 108.958 28.25 109.824 27.95V27.875C108.074 27.6583 107.199 27.0417 107.199 26.025C107.199 25.6083 107.399 25.1583 107.799 24.675C108.199 24.175 108.799 23.8333 109.599 23.65V23.6C108.833 23.3167 108.208 22.8417 107.724 22.175C107.258 21.5083 107.024 20.7667 107.024 19.95C107.024 18.6833 107.474 17.6667 108.374 16.9C109.274 16.1333 110.349 15.75 111.599 15.75C112.866 15.75 113.941 16.2333 114.824 17.2C115.591 16.3 116.349 15.85 117.099 15.85C117.516 15.85 117.841 15.9583 118.074 16.175C118.324 16.3917 118.449 16.6917 118.449 17.075C118.449 17.4583 118.216 17.7833 117.749 18.05C117.133 17.55 116.591 17.3 116.124 17.3C115.958 17.3 115.791 17.35 115.624 17.45C115.458 17.55 115.374 17.6417 115.374 17.725C115.374 17.7917 115.458 18.05 115.624 18.5C115.808 18.9333 115.899 19.4 115.899 19.9C115.899 21.2333 115.483 22.2333 114.649 22.9C113.816 23.5667 112.749 23.9167 111.449 23.95C110.849 23.95 110.333 24.0333 109.899 24.2C109.133 24.5167 108.749 24.8833 108.749 25.3C108.749 25.8333 109.491 26.1 110.974 26.1ZM113.349 27.825L111.074 27.95C110.341 28.2167 109.724 28.6333 109.224 29.2C108.724 29.7833 108.474 30.4 108.474 31.05C108.474 32.4333 109.416 33.125 111.299 33.125C112.416 33.125 113.541 32.775 114.674 32.075C115.824 31.375 116.399 30.525 116.399 29.525C116.399 28.9417 116.099 28.5083 115.499 28.225C114.916 27.9583 114.199 27.825 113.349 27.825ZM111.399 23.125C112.983 23.125 113.774 22.05 113.774 19.9C113.774 19 113.591 18.225 113.224 17.575C112.874 16.9083 112.283 16.575 111.449 16.575C109.916 16.575 109.149 17.6833 109.149 19.9C109.149 20.7833 109.324 21.5417 109.674 22.175C110.024 22.8083 110.599 23.125 111.399 23.125ZM122.369 26.975L119.469 27.05C119.352 27.05 119.294 26.925 119.294 26.675C119.294 26.425 119.335 26.3 119.419 26.3H120.869C121.069 26.3 121.169 26.1583 121.169 25.875V20C121.169 18.3833 120.935 17.575 120.469 17.575H119.969C119.835 17.575 119.769 17.45 119.769 17.2C119.769 16.95 119.819 16.825 119.919 16.825C120.685 16.825 121.519 16.3833 122.419 15.5C122.735 15.2 122.935 15.05 123.019 15.05C123.269 15.05 123.394 15.15 123.394 15.35C123.394 15.4833 123.377 15.9333 123.344 16.7C123.31 17.45 123.294 18.4083 123.294 19.575V24.05C123.294 25.5167 123.469 26.25 123.819 26.25H125.044C125.177 26.25 125.244 26.375 125.244 26.625C125.244 26.875 125.194 27 125.094 27L122.369 26.975ZM123.269 11.05C123.269 11.4167 123.144 11.7333 122.894 12C122.644 12.25 122.335 12.375 121.969 12.375C121.602 12.375 121.277 12.25 120.994 12C120.727 11.75 120.594 11.4417 120.594 11.075C120.594 10.6917 120.719 10.3667 120.969 10.1C121.235 9.83333 121.552 9.7 121.919 9.7C122.302 9.7 122.619 9.83333 122.869 10.1C123.135 10.35 123.269 10.6667 123.269 11.05ZM134.69 24.175C134.69 25.1583 134.273 25.9333 133.44 26.5C132.607 27.05 131.657 27.325 130.59 27.325C129.54 27.325 128.765 27.1833 128.265 26.9C128.265 27.1 128.248 27.225 128.215 27.275C128.182 27.3417 128.082 27.375 127.915 27.375C127.748 27.375 127.657 27.3083 127.64 27.175C127.59 26.775 127.49 26.15 127.34 25.3C127.207 24.45 127.14 23.975 127.14 23.875C127.14 23.7583 127.182 23.675 127.265 23.625C127.365 23.575 127.473 23.5583 127.59 23.575C127.707 23.575 127.773 23.6167 127.79 23.7C128.357 25.5833 129.357 26.525 130.79 26.525C131.34 26.525 131.807 26.375 132.19 26.075C132.59 25.7583 132.79 25.3417 132.79 24.825C132.79 24.2917 132.615 23.8333 132.265 23.45C131.915 23.05 131.49 22.7167 130.99 22.45C130.49 22.1833 129.99 21.9083 129.49 21.625C128.99 21.3417 128.565 20.975 128.215 20.525C127.865 20.0583 127.69 19.5167 127.69 18.9C127.69 17.9167 128.048 17.15 128.765 16.6C129.498 16.0333 130.415 15.75 131.515 15.75C132.098 15.75 132.64 15.8333 133.14 16C133.073 15.7333 133.057 15.575 133.09 15.525C133.123 15.4583 133.207 15.425 133.34 15.425C133.473 15.425 133.565 15.4417 133.615 15.475C133.665 15.5083 133.715 15.625 133.765 15.825C133.815 16.0083 133.865 16.25 133.915 16.55C133.965 16.8333 134.04 17.2 134.14 17.65C134.24 18.0833 134.298 18.3583 134.315 18.475C134.348 18.575 134.332 18.65 134.265 18.7C134.198 18.7333 134.09 18.75 133.94 18.75C133.807 18.75 133.715 18.6833 133.665 18.55C133.165 17.2167 132.373 16.55 131.29 16.55C130.757 16.55 130.332 16.7083 130.015 17.025C129.698 17.325 129.54 17.7167 129.54 18.2C129.54 18.6667 129.715 19.075 130.065 19.425C130.415 19.775 130.84 20.075 131.34 20.325C131.857 20.575 132.365 20.85 132.865 21.15C133.382 21.4333 133.815 21.8333 134.165 22.35C134.515 22.8667 134.69 23.475 134.69 24.175ZM137.761 24V17.025H136.486C136.319 17.025 136.236 16.9083 136.236 16.675C136.236 16.425 136.302 16.2917 136.436 16.275C137.186 16.125 137.794 15.7583 138.261 15.175C138.727 14.5917 139.127 13.825 139.461 12.875C139.494 12.7583 139.594 12.7 139.761 12.7C139.944 12.7 140.036 12.8 140.036 13C140.036 13.1833 140.011 13.6 139.961 14.25C139.911 14.8833 139.886 15.4917 139.886 16.075H142.986C143.152 16.075 143.236 16.2333 143.236 16.55C143.236 16.8667 143.169 17.025 143.036 17.025H139.886V23.45C139.886 24.2667 140.027 24.8667 140.311 25.25C140.594 25.6333 141.069 25.825 141.736 25.825C142.302 25.825 142.761 25.5833 143.111 25.1C143.244 24.9333 143.344 24.85 143.411 24.85C143.577 24.85 143.661 24.925 143.661 25.075C143.661 25.525 143.369 26.025 142.786 26.575C142.202 27.125 141.469 27.4 140.586 27.4C139.719 27.4 139.027 27.1083 138.511 26.525C138.011 25.9417 137.761 25.1 137.761 24ZM148.808 15.35L148.758 17.6H148.808C149.191 17.1833 149.716 16.775 150.383 16.375C151.05 15.9583 151.641 15.75 152.158 15.75C152.675 15.75 153.041 15.85 153.258 16.05C153.475 16.25 153.583 16.5 153.583 16.8C153.583 17.0833 153.483 17.3667 153.283 17.65C153.083 17.9333 152.808 18.15 152.458 18.3C151.825 17.75 151.183 17.475 150.533 17.475C149.9 17.475 149.333 17.8 148.833 18.45V24.05C148.833 25.5167 149.008 26.25 149.358 26.25H150.583C150.716 26.25 150.783 26.375 150.783 26.625C150.783 26.875 150.733 27 150.633 27L147.908 26.975L145.008 27.05C144.891 27.05 144.833 26.925 144.833 26.675C144.833 26.425 144.875 26.3 144.958 26.3H146.408C146.608 26.3 146.708 26.1583 146.708 25.875V20C146.708 18.3833 146.475 17.575 146.008 17.575H145.508C145.375 17.575 145.308 17.45 145.308 17.2C145.308 16.95 145.358 16.825 145.458 16.825C145.908 16.825 146.358 16.6833 146.808 16.4C147.258 16.1 147.625 15.8 147.908 15.5C148.208 15.2 148.391 15.05 148.458 15.05C148.691 15.05 148.808 15.15 148.808 15.35ZM163.574 16.1L165.399 16.05C165.515 16.05 165.574 16.1583 165.574 16.375C165.574 16.5917 165.515 16.7 165.399 16.7H164.774C164.574 16.7 164.415 16.8167 164.299 17.05C163.532 18.5167 162.64 20.675 161.624 23.525C160.607 26.375 159.999 28.0583 159.799 28.575C158.199 32.7083 156.332 34.775 154.199 34.775C153.432 34.775 152.915 34.5667 152.649 34.15C152.582 34.0167 152.549 33.825 152.549 33.575C152.549 33.325 152.74 32.975 153.124 32.525C153.607 32.8583 154.149 33.025 154.749 33.025C155.365 33.025 156.015 32.6333 156.699 31.85C157.399 31.0833 157.949 30.2583 158.349 29.375C158.749 28.5083 158.949 27.8583 158.949 27.425C158.949 26.9917 158.865 26.475 158.699 25.875C158.532 25.2583 158.282 24.5417 157.949 23.725C157.615 22.9083 157.324 22.2167 157.074 21.65C156.824 21.0667 156.474 20.3083 156.024 19.375C155.59 18.4417 155.299 17.825 155.149 17.525C155.015 17.2083 154.865 17 154.699 16.9C154.532 16.7833 154.257 16.725 153.874 16.725C153.774 16.725 153.724 16.6167 153.724 16.4C153.724 16.1667 153.774 16.05 153.874 16.05L156.249 16.1L158.949 16.05C159.049 16.05 159.099 16.1583 159.099 16.375C159.099 16.5917 159.049 16.7 158.949 16.7H157.824C157.607 16.7 157.499 16.7667 157.499 16.9C157.499 17.0167 157.624 17.4167 157.874 18.1C158.14 18.7667 158.515 19.7417 158.999 21.025C159.499 22.3083 159.94 23.5167 160.324 24.65C160.607 23.6833 160.957 22.6083 161.374 21.425C161.807 20.225 162.132 19.2917 162.349 18.625C162.565 17.9583 162.674 17.475 162.674 17.175C162.674 16.875 162.565 16.725 162.349 16.725H161.174C161.09 16.725 161.049 16.6167 161.049 16.4C161.049 16.1667 161.09 16.05 161.174 16.05L163.574 16.1Z" fill="#E5E2E0"/>
<path d="M35 17.5C35 27.165 27.165 35 17.5 35C7.83502 35 0 27.165 0 17.5C0 7.83502 7.83502 0 17.5 0C27.165 0 35 7.83502 35 17.5ZM3.40888 17.5C3.40888 25.2823 9.71769 31.5911 17.5 31.5911C25.2823 31.5911 31.5911 25.2823 31.5911 17.5C31.5911 9.71769 25.2823 3.40888 17.5 3.40888C9.71769 3.40888 3.40888 9.71769 3.40888 17.5Z" fill="white" fill-opacity="0.88"/>
<ellipse cx="22.9509" cy="16.9167" rx="11.4754" ry="11.6667" fill="white" fill-opacity="0.88"/>
</svg>
