<svg width="167" height="35" fill="none" xmlns="http://www.w3.org/2000/svg"><path d="M41.5 15.35l-.075 2.4h.05c1.05-1.333 2.467-2 4.25-2 1.5 0 2.683.5 3.55 1.5.867.983 1.3 2.308 1.3 3.975 0 1.65-.575 3.083-1.725 4.3-1.133 1.2-2.492 1.8-4.075 1.8A5.29 5.29 0 0 1 43.2 27.1c-.467-.133-.792-.258-.975-.375a21.076 21.076 0 0 1-.675-.5c.017.283.025 1.125.025 2.525v2.05c0 1.467.175 2.2.525 2.2h1.225c.133 0 .2.125.2.375s-.05.375-.15.375l-2.725-.025-2.9.075c-.117 0-.175-.125-.175-.375s.042-.375.125-.375h1.45c.2 0 .3-.142.3-.425V20c0-1.617-.233-2.425-.7-2.425h-.5c-.133 0-.2-.125-.2-.375s.05-.375.15-.375c.45 0 .892-.142 1.325-.425.45-.3.817-.6 1.1-.9.283-.3.458-.45.525-.45.233 0 .35.1.35.3zm3.2 11.075c1.133 0 1.975-.483 2.525-1.45.567-.983.85-2.092.85-3.325s-.342-2.267-1.025-3.1c-.683-.85-1.608-1.275-2.775-1.275-.8 0-1.442.175-1.925.525-.25.183-.433.333-.55.45-.117.1-.192.158-.225.175V22.9c.2 2.35 1.242 3.525 3.125 3.525zM58.376 25.2c.633 0 1.183-.067 1.65-.2.466-.133.808-.283 1.025-.45l.55-.45c.166-.133.291-.2.375-.2.183 0 .275.1.275.3 0 .367-.325.933-.975 1.7-.317.383-.792.717-1.425 1-.634.283-1.342.425-2.125.425-1.467 0-2.7-.55-3.7-1.65-1-1.1-1.5-2.367-1.5-3.8 0-1.8.591-3.267 1.775-4.4 1.183-1.133 2.491-1.7 3.925-1.7 1.083 0 1.991.392 2.725 1.175.75.767 1.125 1.783 1.125 3.05 0 .267-.059.458-.175.575-.117.1-.384.167-.8.2-.417.017-1.434.033-3.05.05a91.075 91.075 0 0 0-4.175.125c0 1.417.458 2.483 1.375 3.2.933.7 1.975 1.05 3.125 1.05zm1.575-5.975c0-.567-.234-1.058-.7-1.475-.467-.417-1.075-.625-1.825-.625-.734 0-1.45.275-2.15.825-.7.533-1.142 1.275-1.325 2.225.433-.05 1.308-.125 2.625-.225 1.316-.117 2.208-.2 2.675-.25.466-.067.7-.225.7-.475zm8.07-3.875l-.05 1.95h.05a5.947 5.947 0 0 1 1.75-1.125c.667-.283 1.275-.425 1.825-.425 2.767 0 4.15 1.6 4.15 4.8v3.5c0 1.467.175 2.2.525 2.2h1.225c.134 0 .2.125.2.375s-.05.375-.15.375l-2.725-.025-2.9.075c-.116 0-.175-.125-.175-.375s.042-.375.125-.375h1.45c.2 0 .3-.142.3-.425V21.65c0-1.7-.233-2.875-.7-3.525-.45-.667-1.225-1-2.325-1s-1.95.333-2.55 1v5.925c0 1.467.175 2.2.525 2.2h1.225c.134 0 .2.125.2.375s-.05.375-.15.375l-2.725-.025-2.9.075c-.116 0-.175-.125-.175-.375s.042-.375.125-.375h1.45c.2 0 .3-.142.3-.425V20c0-1.617-.233-2.425-.7-2.425h-.5c-.133 0-.2-.125-.2-.375s.05-.375.15-.375c.45 0 .9-.142 1.35-.425.45-.3.817-.6 1.1-.9.3-.3.484-.45.55-.45.234 0 .35.1.35.3zm11.766-5.175l3.15.05h2.874c2.2 0 3.85.417 4.95 1.25 1.117.833 1.675 1.825 1.675 2.975 0 1.15-.408 2.092-1.225 2.825-.816.717-1.858 1.217-3.124 1.5-1.367.15-2.209.225-2.526.225-.3 0-.708-.05-1.225-.15v5.125c0 1.467.175 2.2.526 2.2h1.45c.133 0 .2.142.2.425 0 .267-.067.4-.2.4l-3.15-.025-3.5.075c-.134 0-.2-.142-.2-.425 0-.283.066-.425.2-.425h1.075c.416 0 .691-.075.825-.225.133-.167.2-.475.2-.925V13.2c0-1.467-.175-2.2-.525-2.2h-1.45c-.134 0-.2-.133-.2-.4 0-.283.066-.425.2-.425zm5.874 7.9c1.284 0 2.284-.317 3-.95.717-.633 1.076-1.417 1.076-2.35s-.384-1.758-1.15-2.475c-.767-.717-1.859-1.075-3.276-1.075-.65 0-.975.342-.975 1.025v5.675c.45.1.892.15 1.326.15zm9.175 7.175c.1-.083.2-.075.3.025.1.083.15.15.15.2a.221.221 0 0 1-.025.1c-.816 1.167-1.724 1.75-2.724 1.75-.7 0-1.342-.242-1.925-.725a6.52 6.52 0 0 1-1.5-1.825c-.4-.733-.792-1.483-1.175-2.25-.95-1.95-1.859-3.133-2.725-3.55l1.6-.3a3.73 3.73 0 0 1 2 1.025 6.78 6.78 0 0 1 1.4 1.85c.35.667.683 1.333 1 2 .75 1.567 1.566 2.35 2.45 2.35.316 0 .708-.217 1.174-.65zm6.118-.05c.633 0 1.183-.067 1.65-.2.467-.133.808-.283 1.025-.45l.55-.45c.167-.133.292-.2.375-.2.183 0 .275.1.275.3 0 .367-.325.933-.975 1.7-.317.383-.792.717-1.425 1-.633.283-1.342.425-2.125.425-1.467 0-2.7-.55-3.7-1.65-1-1.1-1.5-2.367-1.5-3.8 0-1.8.592-3.267 1.775-4.4 1.183-1.133 2.492-1.7 3.925-1.7 1.083 0 1.992.392 2.725 1.175.75.767 1.125 1.783 1.125 3.05 0 .267-.058.458-.175.575-.117.1-.383.167-.8.2-.417.017-1.433.033-3.05.05a91.08 91.08 0 0 0-4.175.125c0 1.417.458 2.483 1.375 3.2.933.7 1.975 1.05 3.125 1.05zm1.575-5.975c0-.567-.233-1.058-.7-1.475-.467-.417-1.075-.625-1.825-.625-.733 0-1.45.275-2.15.825-.7.533-1.142 1.275-1.325 2.225.433-.05 1.308-.125 2.625-.225 1.317-.117 2.208-.2 2.675-.25.467-.067.7-.225.7-.475zm8.445 6.875l2.95-.125c1.2 0 2.192.233 2.975.7.8.467 1.2 1.167 1.2 2.1 0 1.333-.783 2.533-2.35 3.6-1.566 1.083-3.241 1.625-5.025 1.625-2.733 0-4.1-.825-4.1-2.475 0-.683.317-1.375.95-2.075.634-.7 1.384-1.2 2.25-1.5v-.075c-1.75-.217-2.625-.833-2.625-1.85 0-.417.2-.867.6-1.35.4-.5 1-.842 1.8-1.025v-.05a3.974 3.974 0 0 1-1.875-1.425 3.796 3.796 0 0 1-.7-2.225c0-1.267.45-2.283 1.35-3.05.9-.767 1.975-1.15 3.225-1.15 1.267 0 2.342.483 3.225 1.45.767-.9 1.525-1.35 2.275-1.35.417 0 .742.108.975.325.25.217.375.517.375.9s-.233.708-.7.975c-.616-.5-1.158-.75-1.625-.75a.967.967 0 0 0-.5.15c-.166.1-.25.192-.25.275 0 .067.084.325.25.775.184.433.275.9.275 1.4 0 1.333-.416 2.333-1.25 3-.833.667-1.9 1.017-3.2 1.05-.6 0-1.116.083-1.55.25-.766.317-1.15.683-1.15 1.1 0 .533.742.8 2.225.8zm2.375 1.725l-2.275.125a4.455 4.455 0 0 0-1.85 1.25c-.5.583-.75 1.2-.75 1.85 0 1.383.942 2.075 2.825 2.075 1.117 0 2.242-.35 3.375-1.05 1.15-.7 1.725-1.55 1.725-2.55 0-.583-.3-1.017-.9-1.3-.583-.267-1.3-.4-2.15-.4zm-1.95-4.7c1.584 0 2.375-1.075 2.375-3.225 0-.9-.183-1.675-.55-2.325-.35-.667-.941-1-1.775-1-1.533 0-2.3 1.108-2.3 3.325 0 .883.175 1.642.525 2.275.35.633.925.95 1.725.95zm10.97 3.85l-2.9.075c-.117 0-.175-.125-.175-.375s.041-.375.125-.375h1.45c.2 0 .3-.142.3-.425V20c0-1.617-.234-2.425-.7-2.425h-.5c-.134 0-.2-.125-.2-.375s.05-.375.15-.375c.766 0 1.6-.442 2.5-1.325.316-.3.516-.45.6-.45.25 0 .375.1.375.3 0 .133-.017.583-.05 1.35a66.05 66.05 0 0 0-.05 2.875v4.475c0 1.467.175 2.2.525 2.2h1.225c.133 0 .2.125.2.375s-.05.375-.15.375l-2.725-.025zm.9-15.925c0 .367-.125.683-.375.95-.25.25-.559.375-.925.375a1.43 1.43 0 0 1-.975-.375c-.267-.25-.4-.558-.4-.925 0-.383.125-.708.375-.975.266-.267.583-.4.95-.4.383 0 .7.133.95.4.266.25.4.567.4.95zm11.421 13.125c0 .983-.417 1.758-1.25 2.325-.833.55-1.783.825-2.85.825-1.05 0-1.825-.142-2.325-.425 0 .2-.017.325-.05.375-.033.067-.133.1-.3.1-.167 0-.258-.067-.275-.2-.05-.4-.15-1.025-.3-1.875-.133-.85-.2-1.325-.2-1.425 0-.117.042-.2.125-.25.1-.05.208-.067.325-.05.117 0 .183.042.2.125.567 1.883 1.567 2.825 3 2.825.55 0 1.017-.15 1.4-.45.4-.317.6-.733.6-1.25 0-.533-.175-.992-.525-1.375-.35-.4-.775-.733-1.275-1-.5-.267-1-.542-1.5-.825-.5-.283-.925-.65-1.275-1.1a2.634 2.634 0 0 1-.525-1.625c0-.983.358-1.75 1.075-2.3.733-.567 1.65-.85 2.75-.85a5.11 5.11 0 0 1 1.625.25c-.067-.267-.083-.425-.05-.475.033-.067.117-.1.25-.1s.225.017.275.05c.05.033.1.15.15.35.05.183.1.425.15.725.05.283.125.65.225 1.1.1.433.158.708.175.825.033.1.017.175-.05.225a.776.776 0 0 1-.325.05c-.133 0-.225-.067-.275-.2-.5-1.333-1.292-2-2.375-2-.533 0-.958.158-1.275.475-.317.3-.475.692-.475 1.175 0 .467.175.875.525 1.225.35.35.775.65 1.275.9.517.25 1.025.525 1.525.825.517.283.95.683 1.3 1.2.35.517.525 1.125.525 1.825zm3.071-.175v-6.975h-1.275c-.167 0-.25-.117-.25-.35 0-.25.066-.383.2-.4a3.023 3.023 0 0 0 1.825-1.1c.466-.583.866-1.35 1.2-2.3.033-.117.133-.175.3-.175.183 0 .275.1.275.3 0 .183-.025.6-.075 1.25-.05.633-.075 1.242-.075 1.825h3.1c.166 0 .25.158.25.475 0 .317-.067.475-.2.475h-3.15v6.425c0 .817.141 1.417.425 1.8.283.383.758.575 1.425.575.566 0 1.025-.242 1.375-.725.133-.167.233-.25.3-.25.166 0 .25.075.25.225 0 .45-.292.95-.875 1.5-.584.55-1.317.825-2.2.825-.867 0-1.559-.292-2.075-.875-.5-.583-.75-1.425-.75-2.525zm11.047-8.65l-.05 2.25h.05c.383-.417.908-.825 1.575-1.225.667-.417 1.258-.625 1.775-.625.517 0 .883.1 1.1.3.217.2.325.45.325.75 0 .283-.1.567-.3.85-.2.283-.475.5-.825.65-.633-.55-1.275-.825-1.925-.825-.633 0-1.2.325-1.7.975v5.6c0 1.467.175 2.2.525 2.2h1.225c.133 0 .2.125.2.375s-.05.375-.15.375l-2.725-.025-2.9.075c-.117 0-.175-.125-.175-.375s.042-.375.125-.375h1.45c.2 0 .3-.142.3-.425V20c0-1.617-.233-2.425-.7-2.425h-.5c-.133 0-.2-.125-.2-.375s.05-.375.15-.375c.45 0 .9-.142 1.35-.425.45-.3.817-.6 1.1-.9.3-.3.483-.45.55-.45.233 0 .35.1.35.3zm14.766.75l1.825-.05c.116 0 .175.108.175.325 0 .217-.059.325-.175.325h-.625c-.2 0-.359.117-.475.35-.767 1.467-1.659 3.625-2.675 6.475-1.017 2.85-1.625 4.533-1.825 5.05-1.6 4.133-3.467 6.2-5.6 6.2-.767 0-1.284-.208-1.55-.625-.067-.133-.1-.325-.1-.575 0-.25.191-.6.575-1.05.483.333 1.025.5 1.625.5.616 0 1.266-.392 1.95-1.175a9.44 9.44 0 0 0 1.65-2.475c.4-.867.6-1.517.6-1.95 0-.433-.084-.95-.25-1.55a18.916 18.916 0 0 0-.75-2.15 84.987 84.987 0 0 0-.875-2.075c-.25-.583-.6-1.342-1.05-2.275a92.99 92.99 0 0 0-.875-1.85c-.134-.317-.284-.525-.45-.625-.167-.117-.442-.175-.825-.175-.1 0-.15-.108-.15-.325 0-.233.05-.35.15-.35l2.375.05 2.7-.05c.1 0 .15.108.15.325 0 .217-.05.325-.15.325h-1.125c-.217 0-.325.067-.325.2 0 .117.125.517.375 1.2.266.667.641 1.642 1.125 2.925.5 1.283.941 2.492 1.325 3.625.283-.967.633-2.042 1.05-3.225.433-1.2.758-2.133.975-2.8.216-.667.325-1.15.325-1.45 0-.3-.109-.45-.325-.45h-1.175c-.084 0-.125-.108-.125-.325 0-.233.041-.35.125-.35l2.4.05zM35 17.5C35 27.165 27.165 35 17.5 35S0 27.165 0 17.5 7.835 0 17.5 0 35 7.835 35 17.5zm-31.591 0c0 7.782 6.309 14.091 14.091 14.091 7.782 0 14.091-6.309 14.091-14.091 0-7.782-6.309-14.091-14.091-14.091-7.782 0-14.091 6.309-14.091 14.091z" fill="#241D19"/><ellipse cx="22.951" cy="16.917" rx="11.475" ry="11.667" fill="#241D19"/></svg>