<svg width="1500" height="1500" viewBox="0 0 1500 1500" fill="none" xmlns="http://www.w3.org/2000/svg">
<path d="M233.108 1345.32H144.653C144.653 1345.32 122.49 1287.22 163.122 1289.92C203.754 1292.61 135.455 1213.37 162.199 1190.31C188.942 1167.24 218.468 1187.54 228.614 1212.47C238.76 1237.4 265.552 1218 265.552 1218C265.552 1218 257.254 1130.38 285.844 1123.93C314.434 1117.48 341.252 1148.82 335.662 1225.39C362.405 1176.49 401.88 1155.33 417.197 1201.42C432.514 1247.52 390.995 1289.02 390.995 1289.02C390.995 1289.02 451.87 1219.84 475.855 1240.14C499.841 1260.43 469.268 1312.08 469.268 1312.08C469.268 1312.08 544.905 1270.57 543.059 1345.32H233.108Z" fill="#609AEF" stroke="#5A4DAA" stroke-width="4"/>
<path d="M200.922 1345.32C200.922 1345.32 123.438 1287.22 150.194 1239.25C176.949 1191.28 217.52 1259.54 217.52 1259.54C217.52 1259.54 164.021 1132.26 217.52 1108.28C271.019 1084.29 301.457 1239.25 301.457 1239.25C301.457 1239.25 300.533 1123.04 353.17 1123.96C405.808 1124.89 370.63 1247.56 370.63 1247.56C370.63 1247.56 415.83 1182.99 445.344 1197.74C474.858 1212.49 445.344 1277.07 431.504 1286.3C417.665 1295.52 483.157 1243.87 499.767 1260.44C516.377 1277.01 484.991 1335.15 470.216 1345.3L200.922 1345.32Z" fill="#AAC8F9"/>
<path d="M366.025 1176.53C374.324 1217.16 366.025 1256.78 366.025 1256.78C366.025 1256.78 369.017 1251.86 373.413 1243.72C371.603 1246.11 370.593 1247.56 370.593 1247.56C370.593 1247.56 405.685 1124.93 353.109 1123.96C337.25 1123.68 326.267 1134.06 318.633 1148.7C318.645 1148.7 357.714 1136.01 366.025 1176.53Z" fill="#89B5F7"/>
<path d="M410.499 1305.27C423.014 1294.5 434.37 1282.46 444.384 1269.33C456.82 1246.42 467.052 1208.6 445.344 1197.74C436.725 1193.46 426.875 1195.88 417.123 1201.44C417.123 1201.44 450.872 1218.01 432.428 1265.06C424.351 1285.68 416.631 1297.96 410.499 1305.27Z" fill="#89B5F7"/>
<path d="M301.457 1239.25C301.457 1239.25 271.032 1084.29 217.52 1108.28C207.251 1112.88 200.935 1121.31 197.413 1131.88C235.965 1118.42 271.98 1175.76 301.457 1239.25Z" fill="#89B5F7"/>
<path d="M218.444 1265.08C216.772 1260.47 214.713 1256 212.287 1251.73C200.479 1235.33 171.089 1201.73 150.169 1239.25C146.481 1245.82 144.547 1253.23 144.554 1260.76C145.158 1260.48 190.998 1237.58 218.444 1265.08Z" fill="#89B5F7"/>
<path d="M499.767 1260.46C494.115 1254.83 482.824 1257.07 470.918 1262.13C471.275 1262.13 494.94 1260.81 466.559 1307.51C450.048 1334.67 393.298 1343.07 348.294 1345.32H470.191C485.004 1335.18 516.364 1277.07 499.767 1260.46Z" fill="#89B5F7"/>
<path fill-rule="evenodd" clip-rule="evenodd" d="M200.922 1345.32C200.922 1345.32 123.438 1287.22 150.194 1239.25C176.949 1191.28 217.52 1259.54 217.52 1259.54C217.52 1259.54 164.021 1132.26 217.52 1108.28C271.019 1084.29 301.457 1239.25 301.457 1239.25C301.457 1239.25 300.533 1123.04 353.17 1123.96C405.808 1124.89 370.63 1247.56 370.63 1247.56C370.63 1247.56 415.83 1182.99 445.344 1197.74C474.858 1212.49 445.344 1277.07 431.504 1286.3C417.665 1295.52 483.157 1243.87 499.767 1260.44C516.377 1277.01 484.991 1335.15 470.216 1345.3L200.922 1345.32Z" stroke="#5A4DAA" stroke-width="4"/>
<path opacity="0.27" d="M1167 221.559C1167 221.559 1329.16 357.603 1223.34 562.365C1117.53 767.127 1025.46 812.463 1184.86 938.891C1344.27 1065.32 1283.81 1364.91 973.244 1322.3C662.678 1279.68 710.759 1028.22 485.398 1065.32C260.036 1102.42 158.332 929.275 207.805 732.762C257.278 536.25 438.671 504.643 599.451 522.508C760.232 540.374 840.265 459.024 813.83 345.204C782.223 209.184 980.114 59.399 1167 221.559Z" fill="#9E97FC"/>
<path opacity="0.27" d="M412.629 1129.91C412.629 1129.91 541.741 1076.31 617.317 1164.33C692.893 1252.34 626.933 1352.59 566.478 1309.99C506.022 1267.38 523.875 1193.18 446.92 1216.54C369.965 1239.91 369.965 1142.27 412.629 1129.91Z" fill="#9E97FC"/>
<path d="M630.566 764.431C630.566 786.04 644.208 803.561 661.028 803.561H1450.28C1467.1 803.561 1480.74 786.04 1480.74 764.431V306.862H630.566V764.431Z" fill="#D2E1F9"/>
<path fill-rule="evenodd" clip-rule="evenodd" d="M630.566 764.431C630.566 786.04 644.208 803.561 661.028 803.561H1450.28C1467.1 803.561 1480.74 786.04 1480.74 764.431V306.862H630.566V764.431Z" stroke="#5A4DAA" stroke-width="4"/>
<path d="M1450.32 223.627H661.065C652.979 223.617 645.222 226.823 639.501 232.536C633.78 238.25 630.566 246.004 630.566 254.089V306.862H1480.78V254.089C1480.78 237.266 1467.14 223.627 1450.32 223.627Z" fill="#AAC8F9" stroke="#5A4DAA" stroke-width="4"/>
<path d="M668.157 282.692C674.086 282.692 678.893 277.885 678.893 271.955C678.893 266.025 674.086 261.218 668.157 261.218C662.227 261.218 657.42 266.025 657.42 271.955C657.42 277.885 662.227 282.692 668.157 282.692Z" fill="#5A4DAA"/>
<path d="M703.95 282.692C709.88 282.692 714.687 277.885 714.687 271.955C714.687 266.025 709.88 261.218 703.95 261.218C698.02 261.218 693.213 266.025 693.213 271.955C693.213 277.885 698.02 282.692 703.95 282.692Z" fill="#5A4DAA"/>
<path d="M739.756 282.692C745.686 282.692 750.493 277.885 750.493 271.955C750.493 266.025 745.686 261.218 739.756 261.218C733.826 261.218 729.019 266.025 729.019 271.955C729.019 277.885 733.826 282.692 739.756 282.692Z" fill="#5A4DAA"/>
<path d="M1389.49 265.688H1441.4" stroke="#5A4DAA" stroke-width="4"/>
<rect x="739.571" y="572.659" width="56.9221" height="124.446" rx="20.83" fill="#AAC8F9" stroke="#5A4DAA" stroke-width="4"/>
<rect x="841.546" y="507.327" width="56.9221" height="189.777" rx="20.83" fill="#AAC8F9" stroke="#5A4DAA" stroke-width="4"/>
<rect x="943.533" y="458.112" width="56.9221" height="238.992" rx="20.83" fill="#AAC8F9" stroke="#5A4DAA" stroke-width="4"/>
<path d="M1084.48 401.991H1056.51C1053.59 401.987 1050.79 403.146 1048.73 405.211C1046.66 407.276 1045.5 410.078 1045.51 412.998V686.096C1045.5 689.015 1046.66 691.815 1048.72 693.879C1050.79 695.944 1053.58 697.104 1056.5 697.104H1091.43C1097.51 697.104 1102.44 692.176 1102.44 686.096V412.998C1102.44 406.919 1097.51 401.991 1091.43 401.991H1084.48Z" fill="#89B5F7"/>
<path d="M1084.48 401.991H1056.51C1053.59 401.987 1050.79 403.146 1048.73 405.211C1046.66 407.276 1045.5 410.078 1045.51 412.998V675.507H1078.75C1084.83 675.507 1089.76 670.579 1089.76 664.5V401.991H1084.48Z" fill="#89B5F7"/>
<path fill-rule="evenodd" clip-rule="evenodd" d="M1084.48 401.991H1056.51C1053.59 401.987 1050.79 403.146 1048.73 405.211C1046.66 407.276 1045.5 410.078 1045.51 412.998V686.096C1045.5 689.015 1046.66 691.815 1048.72 693.879C1050.79 695.944 1053.58 697.104 1056.5 697.104H1091.43C1097.51 697.104 1102.44 692.176 1102.44 686.096V412.998C1102.44 406.919 1097.51 401.991 1091.43 401.991H1084.48Z" stroke="#5A4DAA" stroke-width="4" stroke-linecap="round"/>
<path d="M1126.21 365.926V703.384C1126.21 714.794 1116.96 724.045 1105.54 724.045H726.31" stroke="#5A4DAA" stroke-width="4" stroke-linecap="round"/>
<path d="M726.36 731.962C730.732 731.962 734.277 728.417 734.277 724.045C734.277 719.672 730.732 716.127 726.36 716.127C721.987 716.127 718.442 719.672 718.442 724.045C718.442 728.417 721.987 731.962 726.36 731.962Z" fill="#5A4DAA" stroke="#5A4DAA" stroke-width="4" stroke-linecap="round"/>
<rect opacity="0.63" x="1262.41" y="376.663" width="178.991" height="31.3238" fill="white"/>
<rect opacity="0.63" x="1203.35" y="441.995" width="238.056" height="31.3238" fill="white"/>
<rect opacity="0.63" x="1203.35" y="507.327" width="238.056" height="31.3238" fill="white"/>
<rect opacity="0.63" x="1203.35" y="572.659" width="147.668" height="31.3238" fill="white"/>
<path opacity="0.63" d="M1228.85 718.097C1242.19 718.097 1253.02 707.276 1253.02 693.927C1253.02 680.579 1242.19 669.757 1228.85 669.757C1215.5 669.757 1204.68 680.579 1204.68 693.927C1204.68 707.276 1215.5 718.097 1228.85 718.097Z" fill="white"/>
<path d="M64.6689 780.277C64.6689 780.277 101.607 847.074 161.214 805.802C195.086 779.674 160.438 731.728 136.822 738.291C113.206 744.853 106.643 764.529 86.9674 754.039C67.2916 743.548 52.8609 764.529 64.6689 780.277Z" fill="#AAC8F9"/>
<path d="M86.9674 754.039C93.4317 757.486 98.4799 757.659 103.183 756.132C102.248 768.334 103.504 787.923 118.55 798.956C137.401 812.783 164.489 781.262 175.312 777.088C175.73 787.234 171.852 797.589 161.226 805.802C101.644 847.074 64.6689 780.277 64.6689 780.277C52.8609 764.529 67.2916 743.536 86.9674 754.039Z" fill="#89B5F7"/>
<path fill-rule="evenodd" clip-rule="evenodd" d="M64.6689 780.277C64.6689 780.277 101.607 847.074 161.214 805.802C195.086 779.674 160.438 731.728 136.822 738.291C113.206 744.853 106.643 764.529 86.9674 754.039C67.2916 743.548 52.8609 764.529 64.6689 780.277Z" stroke="#5A4DAA" stroke-width="4"/>
<path d="M273.285 196.884C273.285 196.884 182.896 187.686 158.382 264.26C135.394 336.105 183.746 376.552 112.43 417.456C8.25158 477.271 -26.9384 705.502 288.602 716.226C519.935 711.633 521.474 504.815 454.062 446.575C379.409 382.105 369.805 353.121 397.423 314.828C425.04 276.535 414.23 193.818 273.285 196.884Z" fill="#AAC8F9"/>
<path d="M218.37 709.491C-20.782 669.45 16.7351 472.346 112.43 417.493C183.746 376.589 135.394 336.142 158.382 264.297C182.897 187.686 273.285 196.884 273.285 196.884C278.456 196.773 283.431 196.785 288.245 196.884C241.924 212.977 169.266 254.594 190.555 354.673C221.202 498.732 80.2569 500.21 150.723 636.55C170.239 674.276 194.077 696.747 218.37 709.491Z" fill="#89B5F7"/>
<path fill-rule="evenodd" clip-rule="evenodd" d="M273.285 196.884C273.285 196.884 182.896 187.686 158.382 264.26C135.394 336.105 183.746 376.552 112.43 417.456C8.25158 477.271 -26.9384 705.502 288.602 716.226C519.935 711.633 521.474 504.815 454.062 446.575C379.409 382.105 369.805 353.121 397.423 314.828C425.04 276.535 414.23 193.818 273.285 196.884Z" stroke="#5A4DAA" stroke-width="4"/>
<path d="M287.999 196.884V1187.72V196.884Z" fill="#AAC8F9"/>
<path d="M287.999 196.884V1187.72" stroke="#5A4DAA" stroke-width="4"/>
<path d="M287.999 934.163L150.723 802.022L287.999 934.163Z" fill="#AAC8F9"/>
<path d="M287.999 934.163L150.723 802.022" stroke="#5A4DAA" stroke-width="4"/>
<path d="M200.11 212.176L287.999 299.425L200.11 212.176Z" fill="#AAC8F9"/>
<path d="M200.11 212.176L287.999 299.425" stroke="#5A4DAA" stroke-width="4"/>
<path d="M397.373 314.853L287.432 423.513L397.373 314.853Z" fill="#AAC8F9"/>
<path d="M397.373 314.853L287.432 423.513" stroke="#5A4DAA" stroke-width="4"/>
<path d="M337.632 203.016L287.432 251.934L337.632 203.016Z" fill="#AAC8F9"/>
<path d="M337.632 203.016L287.432 251.934" stroke="#5A4DAA" stroke-width="4"/>
<path d="M147.657 383.792L287.999 516.968L147.657 383.792Z" fill="#AAC8F9"/>
<path d="M147.657 383.792L287.999 516.968" stroke="#5A4DAA" stroke-width="4"/>
<path d="M54.2153 481.839L287.999 697.744L54.2153 481.839Z" fill="#AAC8F9"/>
<path d="M54.2153 481.839L287.999 697.744" stroke="#5A4DAA" stroke-width="4"/>
<path d="M466.313 458.851L287.075 621.146L466.313 458.851Z" fill="#AAC8F9"/>
<path d="M466.313 458.851L287.075 621.146" stroke="#5A4DAA" stroke-width="4"/>
<path d="M12.4625 1345.34H1148.94H12.4625Z" fill="#F9C7A5"/>
<path d="M12.4625 1345.34H1148.94" stroke="#251760" stroke-width="4" stroke-linecap="round"/>
<path d="M660.683 924.83C645.341 737.072 445.184 838.788 469.071 891.253C469.071 891.253 580.305 1112.72 354.562 1220.85C355.276 1230.86 358.736 1242.94 369.497 1251.75C382.01 1247.28 394.86 1243.81 407.925 1241.39C549.892 1214.05 676.049 1112.61 660.683 924.83Z" fill="#E55C5C"/>
<path opacity="0.64" d="M660.683 924.83C659.633 910.07 656.881 895.481 652.482 881.353C618.93 853.391 585.119 830.981 555.778 817.105C513.84 822.362 474.045 850.534 467.913 875.529C468.602 884.367 470.504 893.067 473.565 901.386C474.71 904.144 476.028 907.432 477.394 911.236C485.336 929.705 499.385 953.408 523.666 982.786C590.697 1063.87 510.984 1184.06 359.007 1238.47C361.494 1243.62 365.089 1248.15 369.534 1251.75C382.047 1247.28 394.897 1243.81 407.962 1241.39C549.892 1214.05 676.049 1112.61 660.683 924.83Z" fill="#CC4040"/>
<path fill-rule="evenodd" clip-rule="evenodd" d="M660.683 924.83C645.341 737.072 445.184 838.788 469.071 891.253C469.071 891.253 580.305 1112.72 354.562 1220.85C355.276 1230.86 358.736 1242.94 369.497 1251.75C382.01 1247.28 394.86 1243.81 407.925 1241.39C549.892 1214.05 676.049 1112.61 660.683 924.83Z" stroke="#251760" stroke-width="4" stroke-linecap="round"/>
<path d="M369.534 1251.75C358.773 1242.94 355.313 1230.82 354.599 1220.85C340.882 1227.38 326.83 1233.17 312.501 1238.2C313.917 1249.91 317.525 1264.33 326.045 1277.71C334.578 1268.49 348.147 1259.57 369.534 1251.75Z" fill="#F99F91" stroke="#251760" stroke-width="4" stroke-linecap="round"/>
<path d="M311.048 1345.32C318.067 1333.01 301.383 1304.16 326.008 1277.69C317.525 1264.31 313.917 1249.89 312.464 1238.18C305.901 1240.51 299.142 1242.77 292.111 1244.93C270.896 1260.29 307.12 1352.22 311.048 1345.32Z" fill="#251760" stroke="#251760" stroke-width="4" stroke-linecap="round"/>
<path d="M899.194 1241.8C906.41 1214.27 916.432 1180.05 918.193 1135.08C927.637 849.229 689.039 773.641 689.039 773.641C570.922 750.012 481.15 799.621 513.04 885.847C544.93 972.074 632.339 960.266 771.72 1015.78C866.775 1053.65 868.437 1160.73 859.88 1235.88C872.411 1240.63 885.817 1242.65 899.194 1241.8Z" fill="#EF6F6F"/>
<path opacity="0.54" d="M511.329 826.352C504.692 843.245 504.692 863.29 513.04 885.847C544.93 972.037 632.339 960.266 771.72 1015.78C866.775 1053.65 868.437 1160.73 859.88 1235.88C865.072 1237.84 870.429 1239.34 875.886 1240.36C878.201 1200.39 880.651 1142.66 875.726 1073.67C866.282 941.366 687.919 941.366 705.637 883.483C723.355 825.601 689.101 773.641 689.101 773.641C602.037 772.889 544.819 794.942 511.329 826.352Z" fill="#DB4949"/>
<path fill-rule="evenodd" clip-rule="evenodd" d="M899.194 1241.8C906.41 1214.27 916.432 1180.05 918.193 1135.08C927.637 849.229 689.039 773.641 689.039 773.641C570.922 750.012 481.15 799.621 513.04 885.847C544.93 972.074 632.339 960.266 771.72 1015.78C866.775 1053.65 868.437 1160.73 859.88 1235.88C872.411 1240.63 885.817 1242.65 899.194 1241.8Z" stroke="#251760" stroke-width="4" stroke-linecap="round"/>
<path d="M246.714 548.686C296.581 546.1 595.339 525.402 776.559 392.621C808.006 390.33 834.921 480.226 834.921 480.226C834.921 480.226 551.21 582.78 246.615 563.301C242.873 563.022 239.934 559.983 239.782 556.233C239.642 552.246 242.729 548.885 246.714 548.686Z" fill="#F9CE55"/>
<path opacity="0.82" d="M834.958 480.251C834.958 480.251 813.399 408.381 786.36 394.775C779.514 394.775 773.727 395.736 769.75 397.509C767.903 398.814 766.056 400.119 764.16 401.412C752.426 414.956 782.629 443.633 677.231 493.66C561.479 548.686 246.714 558.462 240.25 558.659C241.272 561.313 243.741 563.133 246.578 563.325C551.21 582.804 834.958 480.251 834.958 480.251Z" fill="#F9A846"/>
<path fill-rule="evenodd" clip-rule="evenodd" d="M246.714 548.686C296.581 546.1 595.339 525.402 776.559 392.621C808.006 390.33 834.921 480.226 834.921 480.226C834.921 480.226 551.21 582.78 246.615 563.301C242.873 563.022 239.934 559.983 239.782 556.233V556.233C239.642 552.246 242.729 548.885 246.714 548.686Z" stroke="#251760" stroke-width="4" stroke-linecap="round"/>
<path d="M353.527 649.749C327.079 631.957 309.14 576.279 350.055 538.577C365.409 524.405 359.499 514.948 350.055 513.766C340.611 512.584 282.729 540.941 288.639 634.26C291.175 674.473 309.497 703.211 333.1 720.979C328.902 688.104 344.01 662.32 353.527 649.749Z" fill="#F9C7A5"/>
<path d="M307.699 546.715C295.46 565.628 286.053 593.849 288.614 634.26C291.151 674.473 309.472 703.211 333.076 720.979C331.799 710.833 332.265 700.543 334.455 690.554C307.564 661.643 286.213 604.98 307.699 546.715Z" fill="#F99F91"/>
<path d="M518.938 519.677L533.528 523.814C534.314 523.951 534.946 524.536 535.145 525.308C535.344 526.08 535.073 526.897 534.452 527.397L529.687 531.3" fill="#251760"/>
<path d="M518.938 519.677L533.528 523.814C534.314 523.951 534.946 524.536 535.145 525.308C535.344 526.08 535.073 526.897 534.452 527.397L529.687 531.3" stroke="#251760" stroke-width="4" stroke-linecap="round"/>
<path fill-rule="evenodd" clip-rule="evenodd" d="M353.527 649.749C327.079 631.957 309.14 576.279 350.055 538.577C365.409 524.405 359.499 514.948 350.055 513.766C340.611 512.584 282.729 540.941 288.639 634.26C291.175 674.473 309.497 703.211 333.1 720.979C328.902 688.104 344.01 662.32 353.527 649.749Z" stroke="#251760" stroke-width="4" stroke-linecap="round"/>
<path d="M443.411 725.202C480.029 685.05 497.747 592.913 488.291 588.185C488.291 588.185 425.693 598.823 391.439 643.704C380.443 658.097 366.062 658.146 353.564 649.749C344.071 662.32 328.939 688.104 333.137 720.979C370.384 749.077 420.916 749.803 443.411 725.202Z" fill="#7EDCF2"/>
<path d="M460.132 701.278C458.769 694.698 456.269 688.407 452.744 682.686C452.744 682.686 411.41 661.422 383.054 705.132C374.188 718.812 351.607 709.048 334.406 690.554C332.216 700.543 331.75 710.833 333.027 720.979C370.334 749.077 420.866 749.803 443.3 725.202C449.794 717.887 455.441 709.862 460.132 701.278Z" fill="#59C2E2"/>
<path fill-rule="evenodd" clip-rule="evenodd" d="M443.411 725.202C480.029 685.05 497.747 592.913 488.291 588.185C488.291 588.185 425.693 598.823 391.439 643.704C380.443 658.097 366.062 658.146 353.564 649.749C344.071 662.32 328.939 688.104 333.137 720.979C370.384 749.077 420.916 749.803 443.411 725.202Z" stroke="#251760" stroke-width="4" stroke-linecap="round"/>
<path d="M479.968 582.287C479.968 582.287 562.648 557.477 600.449 607.085C638.249 656.694 580.366 702.768 689.039 773.641C713.837 785.449 667.775 916.568 492.958 905.929C439.803 901.201 372.477 672.048 479.968 582.287Z" fill="#7EDCF2"/>
<path d="M691.76 775.734C681.245 785.202 666.002 843.036 557.92 852.775C426.813 864.595 427.614 671.69 427.614 671.69C403.838 777.248 452.239 902.309 492.958 905.929C660.474 916.124 709.762 796.173 691.76 775.734Z" fill="#59C2E2"/>
<path d="M471.73 584.639C471.73 584.639 562.685 557.477 600.485 607.085C638.286 656.693 580.403 702.768 689.076 773.641C713.874 785.449 667.812 916.568 492.995 905.929C453.594 902.433 407.162 785.609 425.471 682.526" stroke="#251760" stroke-width="4" stroke-linecap="round"/>
<path d="M496.984 493.561C496.984 493.561 501.971 514.099 523.309 521.425C544.647 528.751 536.237 597.112 485.324 586.683C434.41 576.254 461.215 496.27 496.984 493.561Z" fill="#F9C7A5"/>
<path d="M513.865 516.746C505.752 511.176 499.794 502.993 496.984 493.561C461.215 496.27 434.398 576.155 485.324 586.634C490.902 587.862 496.66 588.042 502.303 587.163C508.644 575.158 498.166 562.747 490.742 556.036C482.627 548.649 497.686 551.567 504.47 552.195C511.255 552.823 513.089 543.305 507.13 532.667C504.273 527.52 508.669 521.597 513.865 516.746Z" fill="#F99F91"/>
<path fill-rule="evenodd" clip-rule="evenodd" d="M496.984 493.561C496.984 493.561 501.971 514.099 523.309 521.425C544.647 528.751 536.237 597.112 485.324 586.683C434.41 576.254 461.215 496.27 496.984 493.561Z" stroke="#251760" stroke-width="4" stroke-linecap="round"/>
<path d="M504.729 449.297C504.729 449.297 531.817 457.916 525.39 480.694C517.83 507.45 485.324 512.708 498.622 533.935C511.919 555.162 503.965 558.191 489.079 543.859C474.193 529.527 466.51 547.171 479.623 558.634C492.736 570.098 497.624 585.796 487.454 593.11C477.284 600.424 419.733 587.262 423.427 539.623C427.466 487.097 473.91 509.986 472.679 478.207C453.618 429.079 504.729 449.297 504.729 449.297Z" fill="#F48CB6"/>
<path opacity="0.65" d="M489.079 543.859C503.042 557.304 510.922 555.482 500.863 537.702C494.916 536.742 486.21 534.378 478.786 536.237C464.614 539.783 480.017 564.557 449.888 561.109C419.758 557.662 427.097 522.311 427.097 522.311C424.989 527.894 423.744 533.765 423.403 539.722C419.709 587.36 477.308 600.572 487.429 593.209C497.55 585.846 492.712 570.184 479.598 558.733C466.485 547.282 474.193 529.539 489.079 543.859Z" fill="#EA65A2"/>
<path fill-rule="evenodd" clip-rule="evenodd" d="M504.729 449.297C504.729 449.297 531.817 457.916 525.39 480.694C517.83 507.45 485.324 512.708 498.622 533.935C511.919 555.162 503.965 558.191 489.079 543.859C474.193 529.527 466.51 547.171 479.623 558.634C492.736 570.098 497.624 585.796 487.454 593.11C477.284 600.424 419.733 587.262 423.427 539.623C427.466 487.097 473.91 509.986 472.679 478.207C453.618 429.079 504.729 449.297 504.729 449.297Z" stroke="#251760" stroke-width="4" stroke-linecap="round"/>
<path d="M751.822 352.912L943.163 339.368C946.14 339.142 948.992 340.602 950.549 343.149C952.107 345.695 952.107 348.9 950.551 351.447L851.31 513.902C849.862 516.252 847.298 517.684 844.538 517.684C841.777 517.684 839.214 516.252 837.766 513.902L745.617 365.028C744.153 362.659 744.034 359.698 745.303 357.22C746.573 354.742 749.045 353.108 751.822 352.912Z" fill="#F9CE55"/>
<path opacity="0.82" d="M943.163 339.368L939.223 339.651C924.842 367.158 892.829 421.617 848.503 458.26C821.661 473.417 766.007 352.629 745.309 364.449L745.617 365.028L837.766 513.939C839.214 516.289 841.777 517.721 844.538 517.721C847.298 517.721 849.862 516.289 851.31 513.939L950.502 351.484C952.073 348.943 952.087 345.736 950.54 343.18C948.992 340.625 946.143 339.153 943.163 339.368Z" fill="#F9A846"/>
<path fill-rule="evenodd" clip-rule="evenodd" d="M751.822 352.912L943.163 339.368C946.14 339.142 948.992 340.602 950.549 343.149C952.107 345.695 952.107 348.9 950.551 351.447L851.31 513.902C849.862 516.252 847.298 517.684 844.538 517.684C841.777 517.684 839.214 516.252 837.766 513.902L745.617 365.028C744.153 362.659 744.034 359.698 745.303 357.22C746.573 354.742 749.045 353.108 751.822 352.912Z" stroke="#251760" stroke-width="4" stroke-linecap="round"/>
<path d="M892.25 1294.03C889.947 1279.25 893.789 1262.39 899.194 1241.8C885.817 1242.65 872.411 1240.63 859.879 1235.88C857.577 1256.13 854.523 1274.05 852.369 1287.7C861.234 1290.51 876.822 1294.52 892.25 1294.03Z" fill="#F9C7A5"/>
<path d="M875.825 1240.36C870.367 1239.34 865.01 1237.84 859.818 1235.88C857.515 1256.13 854.462 1274.05 852.307 1287.7C859.218 1289.89 866.28 1291.57 873.436 1292.72C873.017 1283.18 874.359 1265.2 875.825 1240.36Z" fill="#F99F91"/>
<path fill-rule="evenodd" clip-rule="evenodd" d="M892.25 1294.03C889.947 1279.25 893.789 1262.39 899.194 1241.8C885.817 1242.65 872.411 1240.63 859.879 1235.88C857.577 1256.13 854.523 1274.05 852.369 1287.7C861.234 1290.51 876.822 1294.52 892.25 1294.03Z" stroke="#251760" stroke-width="4" stroke-linecap="round"/>
<path d="M935.924 1341.79C906.878 1326.86 895.045 1311.96 892.25 1294.03C876.834 1294.52 861.234 1290.51 852.369 1287.7C850.793 1297.64 849.685 1305.31 849.685 1309.86C849.734 1344.15 947.719 1350.06 935.924 1341.79Z" fill="#251760" stroke="#251760" stroke-width="4" stroke-linecap="round"/>
<path d="M770.538 520.859C739.349 441.145 692.585 436.996 687.857 442.894C683.129 448.792 703.211 465.34 694.937 460.612C686.663 455.884 677.219 455.896 690.221 466.522C774.823 532.58 722.973 652.076 674.128 626.429C678.943 650.242 681.319 686.109 663.047 716.792C782.604 715.906 795.73 585.23 770.538 520.859Z" fill="#F9C7A5"/>
<path d="M770.538 520.859C748.769 465.082 719.218 446.304 701.98 442.081C753.841 467.236 785.941 550.434 743.425 634.26C729.634 661.434 704.553 672.232 676.714 675.298C675.168 689.928 670.553 704.068 663.17 716.792C782.604 715.906 795.73 585.23 770.538 520.859Z" fill="#F99F91"/>
<path fill-rule="evenodd" clip-rule="evenodd" d="M770.538 520.859C739.349 441.145 692.585 436.996 687.857 442.894C683.129 448.792 703.211 465.34 694.937 460.612C686.663 455.884 677.219 455.896 690.221 466.522C774.823 532.58 722.973 652.076 674.128 626.429C678.943 650.242 681.319 686.109 663.047 716.792C782.604 715.906 795.73 585.23 770.538 520.859Z" stroke="#251760" stroke-width="4" stroke-linecap="round"/>
<path d="M543.748 686.232C591.916 708.075 631.268 717.014 663.084 716.792C681.319 686.109 678.943 650.303 674.165 626.429C673.23 625.936 672.294 625.407 671.358 624.803C598.122 572.831 524.097 577.227 524.097 577.227" fill="#7EDCF2"/>
<path d="M543.748 686.232C591.916 708.075 631.268 717.014 663.084 716.792C670.467 704.068 675.082 689.928 676.628 675.298C618.573 681.701 548.501 654.49 543.65 672.048C543.016 674.349 542.583 676.702 542.357 679.078L543.748 686.232Z" fill="#59C2E2"/>
<path d="M543.748 686.232C591.916 708.075 631.268 717.014 663.084 716.792C681.319 686.109 678.943 650.303 674.165 626.429C673.23 625.936 672.294 625.407 671.358 624.803C598.122 572.831 524.097 577.227 524.097 577.227" stroke="#251760" stroke-width="4" stroke-linecap="round"/>
<path d="M509.174 531.017C511.119 531.017 512.695 529.44 512.695 527.495C512.695 525.55 511.119 523.974 509.174 523.974C507.229 523.974 505.652 525.55 505.652 527.495C505.652 529.44 507.229 531.017 509.174 531.017Z" fill="#251760"/>
<path d="M534.267 550.471C530.294 554.567 524.251 555.877 518.938 553.795" stroke="#251760" stroke-width="4" stroke-linecap="round"/>
<path d="M1033.87 1171.89C1033.87 1183.35 1041.15 1192.65 1050.11 1192.65H1471.01C1479.98 1192.65 1487.25 1183.35 1487.25 1171.89V929.213H1033.87V1171.89Z" fill="#D2E1F9" stroke="#5A4DAA" stroke-width="4"/>
<path d="M1471.01 884.825H1050.11C1041.15 884.832 1033.88 892.099 1033.87 901.066V929.213H1487.25V901.066C1487.25 892.099 1479.98 884.832 1471.01 884.825Z" fill="#AAC8F9" stroke="#5A4DAA" stroke-width="4"/>
<path d="M1053.92 916.321C1057.08 916.321 1059.64 913.758 1059.64 910.596C1059.64 907.434 1057.08 904.871 1053.92 904.871C1050.76 904.871 1048.19 907.434 1048.19 910.596C1048.19 913.758 1050.76 916.321 1053.92 916.321Z" fill="#5A4DAA"/>
<path d="M1073 916.321C1076.16 916.321 1078.73 913.758 1078.73 910.596C1078.73 907.434 1076.16 904.871 1073 904.871C1069.84 904.871 1067.28 907.434 1067.28 910.596C1067.28 913.758 1069.84 916.321 1073 916.321Z" fill="#5A4DAA"/>
<path d="M1092.1 916.321C1095.26 916.321 1097.82 913.758 1097.82 910.596C1097.82 907.434 1095.26 904.871 1092.1 904.871C1088.94 904.871 1086.37 907.434 1086.37 910.596C1086.37 913.758 1088.94 916.321 1092.1 916.321Z" fill="#5A4DAA"/>
<rect opacity="0.63" x="1347.9" y="1111.52" width="106.9" height="15.7481" fill="white"/>
<rect opacity="0.63" x="1048.19" y="966.435" width="65.8612" height="15.7481" fill="white"/>
<rect opacity="0.63" x="1330.72" y="1138.24" width="124.089" height="15.7481" fill="white"/>
<path d="M1087.95 1132.51C1081.05 1132.51 1074.87 1128.27 1072.37 1121.84C1069.87 1115.41 1071.58 1108.11 1076.67 1103.45L1199.23 991.516L1286.47 1078.75L1401.72 963.122C1405.94 958.891 1412.09 957.231 1417.87 958.768C1423.64 960.306 1428.16 964.807 1429.71 970.576C1431.27 976.346 1429.63 982.507 1425.41 986.738L1286.51 1126.08L1198.19 1037.76L1099.22 1128.14C1096.14 1130.96 1092.12 1132.52 1087.95 1132.51Z" fill="#AAC8F9"/>
<path d="M1391.26 999.076L1276.03 1114.71L1194.15 1032.83C1191.15 1029.83 1186.32 1029.72 1183.19 1032.58L1077.64 1128.96C1084.07 1133.99 1093.19 1133.64 1099.22 1128.14L1198.19 1037.76L1286.51 1126.08L1413.99 998.189C1407.35 992.492 1397.44 992.879 1391.26 999.076Z" fill="#89B5F7"/>
<path d="M1286.51 1126.08L1417.56 994.594C1410.18 980.484 1400.9 973.416 1390.66 974.216L1365.44 999.531C1367.75 1006.38 1369.32 1018.89 1357.55 1031.78C1344.13 1046.48 1296.48 1093.21 1274.81 1114.37L1286.51 1126.08Z" fill="#89B5F7"/>
<path fill-rule="evenodd" clip-rule="evenodd" d="M1087.95 1132.51C1081.05 1132.51 1074.87 1128.27 1072.37 1121.84C1069.87 1115.41 1071.58 1108.11 1076.67 1103.45L1199.23 991.516L1286.47 1078.75L1401.72 963.122C1405.94 958.891 1412.09 957.231 1417.87 958.768C1423.64 960.306 1428.16 964.807 1429.71 970.576C1431.27 976.346 1429.63 982.507 1425.41 986.738L1286.51 1126.08L1198.19 1037.76L1099.22 1128.14C1096.14 1130.96 1092.12 1132.52 1087.95 1132.51V1132.51Z" stroke="#5A4DAA" stroke-width="4"/>
<path d="M1337.95 977.664L1422.6 951.216C1426.4 950.036 1430.53 951.029 1433.38 953.804C1436.23 956.578 1437.32 960.689 1436.24 964.514L1412.16 1049.07C1411.12 1052.72 1408.24 1055.56 1404.58 1056.55C1400.91 1057.55 1397 1056.55 1394.26 1053.92L1333.69 995.813C1330.93 993.161 1329.77 989.25 1330.65 985.525C1331.52 981.799 1334.3 978.811 1337.95 977.664Z" fill="#5A4DAA" stroke="#5A4DAA" stroke-width="4"/>
<path d="M1330.72 709.983V884.825" stroke="#5A4DAA" stroke-width="4" stroke-linecap="round"/>
</svg>
