<svg width="1500" height="1500" viewBox="0 0 1500 1500" fill="none" xmlns="http://www.w3.org/2000/svg">
<path opacity="0.27" d="M676.377 221.491C676.377 221.491 1053.24 195.44 1211.15 430.403C1369.07 665.366 1099.85 873.396 1260.7 974.567C1421.55 1075.74 1493.26 1278.65 1308.66 1440.21C1124.06 1601.78 1023.28 1312.21 687.087 1348.76C350.891 1385.31 256.893 1329.79 198.788 1224.46C130.023 1033.96 454.994 1061.74 261.839 863.139C68.6838 664.535 209.246 248.788 676.377 221.491Z" fill="#9E97FC"/>
<path opacity="0.27" d="M1317.94 802.643C1317.94 802.643 1257.64 875.422 1324.53 950.001C1391.42 1024.58 1474.07 1018.59 1454.37 965.846C1434.68 913.102 1390.55 922.415 1400.91 863.014C1411.27 803.612 1349.68 757.173 1317.94 802.643Z" fill="#9E97FC"/>
<path d="M448.374 783.35L566.887 1312.78C575.303 1350.3 608.614 1376.96 647.067 1376.96H658.758" stroke="#251760" stroke-width="4" stroke-linecap="round"/>
<path d="M371.819 463.2C371.819 481.209 383.146 495.82 397.203 495.82H1054.91C1068.93 495.82 1080.29 481.209 1080.29 463.2V81.8731H371.819V463.2Z" fill="#D2E1F9"/>
<path fill-rule="evenodd" clip-rule="evenodd" d="M371.819 463.2C371.819 481.209 383.146 495.82 397.203 495.82H1054.91C1068.93 495.82 1080.29 481.209 1080.29 463.2V81.8731H371.819V463.2Z" stroke="#5A4DAA" stroke-width="4"/>
<path d="M1054.91 12.517H397.14C383.146 12.5517 371.819 23.9064 371.819 37.901V81.8731H1080.36V37.901C1080.36 31.1578 1077.67 24.6918 1072.9 19.9295C1068.13 15.1673 1061.65 12.5003 1054.91 12.517Z" fill="#AAC8F9" stroke="#5A4DAA" stroke-width="4"/>
<path d="M403.081 61.7371C408.023 61.7371 412.029 57.7309 412.029 52.7891C412.029 47.8473 408.023 43.8412 403.081 43.8412C398.139 43.8412 394.133 47.8473 394.133 52.7891C394.133 57.7309 398.139 61.7371 403.081 61.7371Z" fill="#5A4DAA"/>
<path d="M432.92 61.7371C437.861 61.7371 441.868 57.7309 441.868 52.7891C441.868 47.8473 437.861 43.8412 432.92 43.8412C427.978 43.8412 423.972 47.8473 423.972 52.7891C423.972 57.7309 427.978 61.7371 432.92 61.7371Z" fill="#5A4DAA"/>
<path d="M462.747 61.7371C467.689 61.7371 471.695 57.7309 471.695 52.7891C471.695 47.8473 467.689 43.8412 462.747 43.8412C457.805 43.8412 453.799 47.8473 453.799 52.7891C453.799 57.7309 457.805 61.7371 462.747 61.7371Z" fill="#5A4DAA"/>
<path d="M1004.23 47.5663H1047.49" stroke="#5A4DAA" stroke-width="4"/>
<rect opacity="0.63" x="638.949" y="392.145" width="149.17" height="11.9306" fill="white"/>
<rect opacity="0.63" x="620.676" y="418.246" width="185.717" height="11.9306" fill="white"/>
<path fill-rule="evenodd" clip-rule="evenodd" d="M645.897 287.878H628.038V199.757H577.396L520.864 292.597V317.327H592.309V347.745H628.038V317.327H645.897V287.878ZM592.309 229.596V287.878H558.33L592.309 229.596Z" fill="#AAC8F9"/>
<path d="M628.038 287.878H627.538V288.378H628.038V287.878ZM645.897 287.878H646.397V287.378H645.897V287.878ZM628.038 199.757H628.538V199.257H628.038V199.757ZM577.396 199.757V199.257H577.115L576.969 199.497L577.396 199.757ZM520.864 292.597L520.437 292.337L520.364 292.457V292.597H520.864ZM520.864 317.327H520.364V317.827H520.864V317.327ZM592.309 317.327H592.809V316.827H592.309V317.327ZM592.309 347.745H591.809V348.245H592.309V347.745ZM628.038 347.745V348.245H628.538V347.745H628.038ZM628.038 317.327V316.827H627.538V317.327H628.038ZM645.897 317.327V317.827H646.397V317.327H645.897ZM592.309 287.878V288.378H592.809V287.878H592.309ZM592.309 229.596H592.809V227.746L591.878 229.344L592.309 229.596ZM558.33 287.878L557.898 287.626L557.46 288.378H558.33V287.878ZM628.038 288.378H645.897V287.378H628.038V288.378ZM627.538 199.757V287.878H628.538V199.757H627.538ZM577.396 200.257H628.038V199.257H577.396V200.257ZM521.291 292.857L577.823 200.017L576.969 199.497L520.437 292.337L521.291 292.857ZM521.364 317.327V292.597H520.364V317.327H521.364ZM592.309 316.827H520.864V317.827H592.309V316.827ZM592.809 347.745V317.327H591.809V347.745H592.809ZM628.038 347.245H592.309V348.245H628.038V347.245ZM627.538 317.327V347.745H628.538V317.327H627.538ZM645.897 316.827H628.038V317.827H645.897V316.827ZM645.397 287.878V317.327H646.397V287.878H645.397ZM592.809 287.878V229.596H591.809V287.878H592.809ZM558.33 288.378H592.309V287.378H558.33V288.378ZM591.878 229.344L557.898 287.626L558.762 288.129L592.741 229.848L591.878 229.344Z" fill="#AAC8F9"/>
<path fill-rule="evenodd" clip-rule="evenodd" d="M660.118 241.464C656.933 251.859 655.379 262.685 655.512 273.556C655.379 284.427 656.933 295.253 660.118 305.648C662.864 314.625 667.26 323.011 673.08 330.377C678.429 337.078 685.199 342.507 692.902 346.272C708.988 353.739 727.546 353.739 743.632 346.272C751.362 342.545 758.145 337.11 763.466 330.377C769.228 322.991 773.583 314.608 776.316 305.648C782.474 284.696 782.474 262.415 776.316 241.464C773.597 232.529 769.239 224.177 763.466 216.835C746.507 195.759 717.232 189.201 692.902 201.028C685.22 204.786 678.454 210.182 673.08 216.835C667.246 224.154 662.848 232.511 660.118 241.464ZM695.356 291.414C694.121 285.543 693.526 279.555 693.581 273.556C693.536 267.59 694.131 261.637 695.356 255.798C696.331 250.926 698.028 246.226 700.39 241.854C702.271 238.307 704.919 235.225 708.142 232.831C714.232 228.535 722.365 228.535 728.455 232.831C731.704 235.197 734.358 238.286 736.207 241.854C738.487 246.25 740.139 250.944 741.115 255.798C743.464 267.554 743.464 279.658 741.115 291.414C740.118 296.263 738.467 300.954 736.207 305.358C734.373 308.965 731.718 312.09 728.455 314.482C722.365 318.778 714.232 318.778 708.142 314.482C704.906 312.062 702.256 308.943 700.39 305.358C698.048 300.977 696.352 296.281 695.356 291.414Z" fill="#AAC8F9"/>
<path d="M655.512 273.556L656.012 273.562L656.012 273.55L655.512 273.556ZM660.118 241.464L660.596 241.61L660.596 241.61L660.118 241.464ZM660.118 305.648L660.596 305.501L660.596 305.501L660.118 305.648ZM673.08 330.377L672.688 330.687L672.69 330.689L673.08 330.377ZM692.902 346.272L692.682 346.721L692.691 346.726L692.902 346.272ZM743.632 346.272L743.843 346.726L743.849 346.722L743.632 346.272ZM763.466 330.377L763.858 330.687L763.86 330.685L763.466 330.377ZM776.316 305.648L776.794 305.793L776.795 305.789L776.316 305.648ZM776.316 241.464L776.795 241.323L776.794 241.318L776.316 241.464ZM763.466 216.835L763.859 216.526L763.856 216.522L763.466 216.835ZM692.902 201.028L692.683 200.579L692.682 200.579L692.902 201.028ZM673.08 216.835L672.691 216.521L672.689 216.523L673.08 216.835ZM693.581 273.556L694.082 273.56L694.081 273.552L693.581 273.556ZM695.356 291.414L695.846 291.314L695.845 291.311L695.356 291.414ZM695.356 255.798L695.845 255.901L695.846 255.896L695.356 255.798ZM700.39 241.854L700.83 242.092L700.832 242.088L700.39 241.854ZM708.142 232.831L707.854 232.422L707.844 232.429L708.142 232.831ZM728.455 232.831L728.749 232.426L728.743 232.422L728.455 232.831ZM736.207 241.854L735.763 242.084L735.763 242.084L736.207 241.854ZM741.115 255.798L741.605 255.7L741.605 255.7L741.115 255.798ZM741.115 291.414L741.605 291.515L741.605 291.512L741.115 291.414ZM736.207 305.358L735.762 305.13L735.761 305.132L736.207 305.358ZM728.455 314.482L728.743 314.891L728.75 314.886L728.455 314.482ZM708.142 314.482L707.843 314.883L707.854 314.891L708.142 314.482ZM700.39 305.358L700.834 305.127L700.831 305.122L700.39 305.358ZM656.012 273.55C655.879 262.73 657.426 251.956 660.596 241.61L659.64 241.317C656.439 251.762 654.878 262.639 655.012 273.562L656.012 273.55ZM660.596 305.501C657.426 295.156 655.879 284.381 656.012 273.562L655.012 273.55C654.878 284.472 656.439 295.35 659.64 305.794L660.596 305.501ZM673.473 330.067C667.691 322.75 663.324 314.419 660.596 305.501L659.64 305.794C662.404 314.831 666.829 323.273 672.688 330.687L673.473 330.067ZM693.121 345.823C685.485 342.09 678.774 336.708 673.471 330.065L672.69 330.689C678.085 337.448 684.913 342.924 692.682 346.721L693.121 345.823ZM743.422 345.819C727.469 353.223 709.065 353.223 693.112 345.819L692.691 346.726C708.911 354.254 727.623 354.254 743.843 346.726L743.422 345.819ZM763.074 330.067C757.799 336.74 751.077 342.128 743.415 345.822L743.849 346.722C751.648 342.963 758.49 337.479 763.858 330.687L763.074 330.067ZM775.837 305.502C773.123 314.404 768.796 322.731 763.072 330.07L763.86 330.685C769.66 323.25 774.044 314.813 776.794 305.793L775.837 305.502ZM775.836 241.605C781.967 262.464 781.967 284.647 775.836 305.507L776.795 305.789C782.981 284.745 782.981 262.366 776.795 241.323L775.836 241.605ZM763.073 217.144C768.808 224.437 773.136 232.733 775.837 241.609L776.794 241.318C774.057 232.324 769.671 223.917 763.859 216.526L763.073 217.144ZM693.12 201.478C717.241 189.753 746.263 196.254 763.077 217.148L763.856 216.522C746.75 195.264 717.223 188.65 692.683 200.579L693.12 201.478ZM673.469 217.149C678.797 210.553 685.505 205.203 693.122 201.477L692.682 200.579C684.934 204.369 678.111 209.811 672.691 216.521L673.469 217.149ZM660.596 241.61C663.308 232.717 667.676 224.417 673.471 217.147L672.689 216.523C666.816 223.892 662.388 232.305 659.64 241.318L660.596 241.61ZM693.082 273.551C693.026 279.587 693.625 285.61 694.867 291.517L695.845 291.311C694.618 285.475 694.027 279.524 694.081 273.56L693.082 273.551ZM694.867 255.696C693.634 261.569 693.036 267.558 693.082 273.56L694.081 273.552C694.037 267.622 694.628 261.705 695.845 255.901L694.867 255.696ZM699.95 241.616C697.565 246.032 695.851 250.779 694.866 255.7L695.846 255.896C696.812 251.073 698.492 246.42 700.83 242.092L699.95 241.616ZM707.844 232.429C704.562 234.867 701.864 238.007 699.948 241.62L700.832 242.088C702.678 238.607 705.277 235.582 708.441 233.232L707.844 232.429ZM728.743 232.422C722.481 228.005 714.116 228.005 707.854 232.422L708.431 233.239C714.347 229.066 722.25 229.066 728.166 233.239L728.743 232.422ZM736.651 241.624C734.766 237.987 732.061 234.838 728.749 232.426L728.16 233.235C731.347 235.555 733.949 238.585 735.763 242.084L736.651 241.624ZM741.605 255.7C740.62 250.799 738.952 246.061 736.651 241.624L735.763 242.084C738.021 246.439 739.658 251.088 740.625 255.897L741.605 255.7ZM741.605 291.512C743.968 279.692 743.968 267.521 741.605 255.7L740.625 255.896C742.961 267.587 742.961 279.625 740.625 291.316L741.605 291.512ZM736.652 305.586C738.933 301.142 740.599 296.408 741.605 291.515L740.625 291.313C739.638 296.118 738.002 300.766 735.762 305.13L736.652 305.586ZM728.75 314.886C732.076 312.447 734.783 309.261 736.653 305.585L735.761 305.132C733.963 308.668 731.359 311.733 728.159 314.079L728.75 314.886ZM707.854 314.891C714.116 319.308 722.481 319.308 728.743 314.891L728.166 314.074C722.25 318.247 714.347 318.247 708.431 314.074L707.854 314.891ZM699.946 305.589C701.847 309.241 704.546 312.417 707.843 314.883L708.442 314.082C705.265 311.706 702.665 308.646 700.834 305.127L699.946 305.589ZM694.866 291.514C695.872 296.428 697.584 301.17 699.949 305.594L700.831 305.122C698.512 300.784 696.833 296.133 695.846 291.314L694.866 291.514Z" fill="#AAC8F9"/>
<path fill-rule="evenodd" clip-rule="evenodd" d="M917.922 287.878H900.064V199.757H849.422L792.902 292.597V317.327H864.348V347.745H900.064V317.327H917.922V287.878ZM864.348 229.596V287.878H830.368L864.348 229.596Z" fill="#AAC8F9"/>
<path d="M900.064 287.878H899.564V288.378H900.064V287.878ZM917.922 287.878H918.422V287.378H917.922V287.878ZM900.064 199.757H900.564V199.257H900.064V199.757ZM849.422 199.757V199.257H849.141L848.995 199.497L849.422 199.757ZM792.902 292.597L792.475 292.337L792.402 292.457V292.597H792.902ZM792.902 317.327H792.402V317.827H792.902V317.327ZM864.348 317.327H864.848V316.827H864.348V317.327ZM864.348 347.745H863.848V348.245H864.348V347.745ZM900.064 347.745V348.245H900.564V347.745H900.064ZM900.064 317.327V316.827H899.564V317.327H900.064ZM917.922 317.327V317.827H918.422V317.327H917.922ZM864.348 287.878V288.378H864.848V287.878H864.348ZM864.348 229.596H864.848V227.746L863.916 229.344L864.348 229.596ZM830.368 287.878L829.936 287.626L829.498 288.378H830.368V287.878ZM900.064 288.378H917.922V287.378H900.064V288.378ZM899.564 199.757V287.878H900.564V199.757H899.564ZM849.422 200.257H900.064V199.257H849.422V200.257ZM793.329 292.857L849.849 200.017L848.995 199.497L792.475 292.337L793.329 292.857ZM793.402 317.327V292.597H792.402V317.327H793.402ZM864.348 316.827H792.902V317.827H864.348V316.827ZM864.848 347.745V317.327H863.848V347.745H864.848ZM900.064 347.245H864.348V348.245H900.064V347.245ZM899.564 317.327V347.745H900.564V317.327H899.564ZM917.922 316.827H900.064V317.827H917.922V316.827ZM917.422 287.878V317.327H918.422V287.878H917.422ZM864.848 287.878V229.596H863.848V287.878H864.848ZM830.368 288.378H864.348V287.378H830.368V288.378ZM863.916 229.344L829.936 287.626L830.8 288.129L864.78 229.848L863.916 229.344Z" fill="#AAC8F9"/>
<path d="M618.335 287.878H616.335V289.878H618.335V287.878ZM636.194 287.878H638.194V285.878H636.194V287.878ZM636.194 317.327V319.327H638.194V317.327H636.194ZM618.335 317.327V315.327H616.335V317.327H618.335ZM618.335 347.745V349.745H620.335V347.745H618.335ZM582.619 347.745H580.619V349.745H582.619V347.745ZM582.619 317.327H584.619V315.327H582.619V317.327ZM511.174 317.327H509.174V319.327H511.174V317.327ZM511.174 292.597L509.465 291.557L509.174 292.036V292.597H511.174ZM567.693 199.757V197.757H566.569L565.985 198.717L567.693 199.757ZM618.335 199.757H620.335V197.757H618.335V199.757ZM582.619 287.878V289.878H584.619V287.878H582.619ZM582.619 229.596H584.619V222.195L580.891 228.589L582.619 229.596ZM548.639 287.878L546.912 286.87L545.158 289.878H548.639V287.878ZM618.335 289.878H636.194V285.878H618.335V289.878ZM634.194 287.878V317.327H638.194V287.878H634.194ZM636.194 315.327H618.335V319.327H636.194V315.327ZM616.335 317.327V347.745H620.335V317.327H616.335ZM618.335 345.745H582.619V349.745H618.335V345.745ZM584.619 347.745V317.327H580.619V347.745H584.619ZM582.619 315.327H511.174V319.327H582.619V315.327ZM513.174 317.327V292.597H509.174V317.327H513.174ZM512.882 293.637L569.402 200.797L565.985 198.717L509.465 291.557L512.882 293.637ZM567.693 201.757H618.335V197.757H567.693V201.757ZM616.335 199.757V287.878H620.335V199.757H616.335ZM584.619 287.878V229.596H580.619V287.878H584.619ZM580.891 228.589L546.912 286.87L550.367 288.885L584.347 230.604L580.891 228.589ZM548.639 289.878H582.619V285.878H548.639V289.878Z" fill="#5A4DAA"/>
<path d="M650.427 241.464L652.339 242.051L652.34 242.046L650.427 241.464ZM663.377 216.835L661.821 215.578L661.813 215.588L663.377 216.835ZM683.198 201.028L682.323 199.23L682.32 199.232L683.198 201.028ZM753.763 216.835L755.334 215.598L755.328 215.59L755.321 215.582L753.763 216.835ZM766.625 241.464L768.544 240.901L768.541 240.891L768.538 240.881L766.625 241.464ZM766.625 305.648L768.537 306.232L768.541 306.221L768.544 306.21L766.625 305.648ZM753.763 330.377L755.331 331.618L755.339 331.608L753.763 330.377ZM733.941 346.272L733.071 344.471L733.064 344.475L733.941 346.272ZM663.377 330.377L661.808 331.618L661.814 331.625L663.377 330.377ZM650.427 305.648L652.34 305.065L652.339 305.061L650.427 305.648ZM683.891 273.556V271.556H681.908L681.891 273.538L683.891 273.556ZM685.652 291.414L687.611 291.008L687.61 291.006L685.652 291.414ZM690.686 305.358L692.458 304.431L692.452 304.419L690.686 305.358ZM698.439 314.482L697.237 316.081L697.261 316.099L697.286 316.117L698.439 314.482ZM718.751 314.482L719.904 316.117L719.917 316.107L719.93 316.098L718.751 314.482ZM726.503 305.358L724.726 304.441L724.722 304.448L724.719 304.456L726.503 305.358ZM731.412 291.414L733.372 291.812L733.372 291.809L731.412 291.414ZM731.412 255.798L729.45 256.188L729.451 256.193L731.412 255.798ZM726.503 241.854L724.725 242.77L724.73 242.779L726.503 241.854ZM718.751 232.831L719.924 231.211L719.914 231.204L719.904 231.196L718.751 232.831ZM698.439 232.831L697.286 231.196L697.264 231.212L697.243 231.228L698.439 232.831ZM690.686 241.854L692.448 242.801L692.451 242.795L690.686 241.854ZM685.652 255.798L687.611 256.201L687.613 256.196L685.652 255.798ZM683.928 273.556V275.556H685.947L685.928 273.537L683.928 273.556ZM647.808 273.532C647.681 262.867 649.21 252.247 652.339 242.051L648.515 240.877C645.265 251.469 643.677 262.501 643.808 273.58L647.808 273.532ZM652.34 242.046C654.989 233.333 659.264 225.202 664.941 218.082L661.813 215.588C655.822 223.104 651.309 231.686 648.513 240.882L652.34 242.046ZM664.933 218.092C670.123 211.665 676.657 206.454 684.077 202.825L682.32 199.232C674.375 203.118 667.378 208.698 661.821 215.578L664.933 218.092ZM684.073 202.827C707.563 191.398 735.834 197.731 752.204 218.088L755.321 215.582C737.782 193.77 707.491 186.985 682.323 199.23L684.073 202.827ZM752.191 218.072C757.815 225.218 762.061 233.348 764.711 242.047L768.538 240.881C765.742 231.708 761.265 223.134 755.334 215.598L752.191 218.072ZM764.705 242.026C770.739 262.613 770.739 284.499 764.705 305.085L768.544 306.21C774.793 284.889 774.793 262.222 768.544 240.901L764.705 242.026ZM764.712 305.063C762.047 313.79 757.801 321.954 752.186 329.147L755.339 331.608C761.255 324.029 765.729 315.427 768.537 306.232L764.712 305.063ZM752.194 329.137C747.061 335.628 740.522 340.871 733.071 344.471L734.811 348.073C742.807 344.209 749.823 338.583 755.331 331.618L752.194 329.137ZM733.064 344.475C709.565 355.95 681.249 349.572 664.94 329.13L661.814 331.625C679.291 353.532 709.636 360.367 734.819 348.069L733.064 344.475ZM664.946 329.137C659.278 321.97 655.003 313.805 652.34 305.065L648.514 306.23C651.322 315.448 655.831 324.059 661.808 331.618L664.946 329.137ZM652.339 305.061C649.21 294.864 647.681 284.244 647.808 273.58L643.808 273.532C643.677 284.611 645.265 295.643 648.515 306.234L652.339 305.061ZM681.891 273.538C681.836 279.68 682.441 285.809 683.694 291.822L687.61 291.006C686.415 285.273 685.839 279.429 685.89 273.573L681.891 273.538ZM683.694 291.82C684.74 296.869 686.5 301.744 688.92 306.297L692.452 304.419C690.21 300.201 688.58 295.686 687.611 291.008L683.694 291.82ZM688.915 306.286C690.926 310.129 693.77 313.475 697.237 316.081L699.64 312.883C696.648 310.635 694.194 307.747 692.458 304.431L688.915 306.286ZM697.286 316.117C704.067 320.9 713.123 320.9 719.904 316.117L717.598 312.848C712.2 316.656 704.99 316.656 699.592 312.848L697.286 316.117ZM719.93 316.098C723.455 313.526 726.319 310.155 728.288 306.261L724.719 304.456C723.035 307.785 720.586 310.668 717.572 312.867L719.93 316.098ZM728.281 306.276C730.636 301.712 732.349 296.845 733.372 291.812L729.452 291.016C728.503 295.687 726.913 300.205 724.726 304.441L728.281 306.276ZM733.372 291.809C735.791 279.794 735.791 267.418 733.372 255.404L729.451 256.193C731.764 267.686 731.764 279.526 729.451 291.019L733.372 291.809ZM733.373 255.409C732.372 250.364 730.655 245.489 728.277 240.929L724.73 242.779C726.933 247.002 728.522 251.517 729.45 256.188L733.373 255.409ZM728.281 240.938C726.297 237.086 723.434 233.754 719.924 231.211L717.578 234.45C720.579 236.625 723.028 239.475 724.726 242.77L728.281 240.938ZM719.904 231.196C713.123 226.413 704.067 226.413 697.286 231.196L699.592 234.465C704.99 230.657 712.2 230.657 717.598 234.465L719.904 231.196ZM697.243 231.228C693.79 233.805 690.949 237.112 688.922 240.913L692.451 242.795C694.201 239.513 696.654 236.658 699.635 234.433L697.243 231.228ZM688.925 240.908C686.481 245.457 684.718 250.34 683.692 255.401L687.613 256.196C688.561 251.518 690.19 247.005 692.448 242.801L688.925 240.908ZM683.693 255.396C682.464 261.376 681.872 267.469 681.928 273.574L685.928 273.537C685.875 267.715 686.439 261.904 687.611 256.201L683.693 255.396ZM683.928 271.556H683.891V275.556H683.928V271.556Z" fill="#5A4DAA"/>
<path d="M890.323 287.878H888.323V289.878H890.323V287.878ZM908.181 287.878H910.181V285.878H908.181V287.878ZM908.181 317.327V319.327H910.181V317.327H908.181ZM890.323 317.327V315.327H888.323V317.327H890.323ZM890.323 347.745V349.745H892.323V347.745H890.323ZM854.644 347.745H852.644V349.745H854.644V347.745ZM854.644 317.327H856.644V315.327H854.644V317.327ZM783.199 317.327H781.199V319.327H783.199V317.327ZM783.199 292.597L781.491 291.557L781.199 292.036V292.597H783.199ZM839.731 199.757V197.757H838.607L838.023 198.717L839.731 199.757ZM890.323 199.757H892.323V197.757H890.323V199.757ZM854.594 287.878V289.878H856.594V287.878H854.594ZM854.594 229.596H856.594V222.195L852.866 228.589L854.594 229.596ZM820.615 287.878L818.887 286.87L817.133 289.878H820.615V287.878ZM890.323 289.878H908.181V285.878H890.323V289.878ZM906.181 287.878V317.327H910.181V287.878H906.181ZM908.181 315.327H890.323V319.327H908.181V315.327ZM888.323 317.327V347.745H892.323V317.327H888.323ZM890.323 345.745H854.644V349.745H890.323V345.745ZM856.644 347.745V317.327H852.644V347.745H856.644ZM854.644 315.327H783.199V319.327H854.644V315.327ZM785.199 317.327V292.597H781.199V317.327H785.199ZM784.907 293.637L841.439 200.797L838.023 198.717L781.491 291.557L784.907 293.637ZM839.731 201.757H890.323V197.757H839.731V201.757ZM888.323 199.757V287.878H892.323V199.757H888.323ZM856.594 287.878V229.596H852.594V287.878H856.594ZM852.866 228.589L818.887 286.87L822.342 288.885L856.322 230.604L852.866 228.589ZM820.615 289.878H854.594V285.878H820.615V289.878Z" fill="#5A4DAA"/>
<path d="M355.459 791.782L439.879 1312.8C448.295 1350.32 481.606 1376.99 520.059 1376.99H531.649" stroke="#251760" stroke-width="4" stroke-linecap="round"/>
<path d="M1350.03 765.303C1350.03 765.303 1396.28 681.688 1362.53 639.705C1328.77 597.721 1306.3 684.646 1350.03 765.303Z" fill="#AAC8F9"/>
<path d="M1327.3 696.476C1330.68 720.598 1338.38 743.913 1350.03 765.303C1350.03 765.303 1367.81 733.149 1373.27 698.716C1365.29 713.868 1350.12 729.046 1327.3 696.476Z" fill="#89B5F7"/>
<path fill-rule="evenodd" clip-rule="evenodd" d="M1350.03 765.303C1350.03 765.303 1396.28 681.688 1362.53 639.705C1328.77 597.721 1306.3 684.646 1350.03 765.303Z" stroke="#5A4DAA" stroke-width="4"/>
<path d="M1345.06 631.524C1345.06 631.524 1359.98 743.959 1338.35 861.34" stroke="#5A4DAA" stroke-width="4"/>
<path d="M1325.99 1024.16C1325.99 1024.16 1301.7 855.186 1378.74 738.762C1455.77 622.337 1511.57 734.244 1473.01 832.067C1437.34 922.566 1328.28 1041.65 1325.99 1024.16Z" fill="#89B5F7"/>
<path d="M1419.52 695.645C1406.94 702.995 1393.25 716.826 1378.74 738.762C1315.32 834.609 1320.57 966.047 1324.41 1009.53C1326.21 1015.42 1327.34 1018.64 1327.34 1018.64C1333.01 1035.34 1416.77 897.308 1434.13 801.599C1441.47 761.125 1434.22 721.344 1419.52 695.645Z" fill="#AAC8F9"/>
<path fill-rule="evenodd" clip-rule="evenodd" d="M1325.99 1024.16C1325.99 1024.16 1301.7 855.186 1378.74 738.762C1455.77 622.337 1511.57 734.244 1473.01 832.067C1437.34 922.566 1328.28 1041.65 1325.99 1024.16Z" stroke="#5A4DAA" stroke-width="4"/>
<path d="M1344.64 1076.62C1341.79 1074.28 1352.94 948.453 1404.25 903.072C1455.55 857.69 1499.77 925.309 1463.61 967.255C1427.45 1009.2 1357.38 1087.12 1344.64 1076.62Z" fill="#89B5F7"/>
<path d="M1444.42 888.561C1432.69 886.434 1418.72 890.222 1404.15 903.072C1365.13 937.593 1349.32 1018.65 1345.26 1056.51C1346.15 1065.87 1347.22 1071.61 1347.89 1072.01C1362.41 1079.97 1416.78 990.387 1444.58 942.513C1455.57 923.674 1453.5 903.147 1444.42 888.561Z" fill="#AAC8F9"/>
<path fill-rule="evenodd" clip-rule="evenodd" d="M1344.64 1076.62C1341.79 1074.28 1352.94 948.453 1404.25 903.072C1455.55 857.69 1499.77 925.309 1463.61 967.255C1427.45 1009.2 1357.38 1087.12 1344.64 1076.62Z" stroke="#5A4DAA" stroke-width="4"/>
<path d="M1299.9 1042.29C1299.9 1042.29 1271.03 923.673 1193.8 837.051C1116.56 750.428 1147.44 677.447 1183.55 655.612C1219.67 633.777 1344.37 672.212 1338.15 872.075C1335.83 1018.06 1304.37 1059.59 1299.9 1042.29Z" fill="#89B5F7"/>
<path d="M1223.15 651.925C1190.35 677.586 1166.51 740.41 1223.71 824.591C1288.93 920.628 1302.02 1041.96 1302.02 1041.96C1302.27 1044 1302.99 1045.31 1304.08 1045.81C1313.99 1042.99 1336.26 993.986 1338.15 872.138C1342.83 721.47 1273.21 662.496 1223.15 651.925Z" fill="#AAC8F9"/>
<path fill-rule="evenodd" clip-rule="evenodd" d="M1299.9 1042.29C1299.9 1042.29 1271.03 923.673 1193.8 837.051C1116.56 750.428 1147.44 677.447 1183.55 655.612C1219.67 633.777 1344.37 672.212 1338.15 872.075C1335.83 1018.06 1304.37 1059.59 1299.9 1042.29Z" stroke="#5A4DAA" stroke-width="4"/>
<path d="M1269.13 1079.22C1269.13 1079.22 1231.15 1022.25 1174.75 991.129C1118.34 960.006 1119.8 915.833 1133.92 897.534C1148.04 879.236 1219.16 876.052 1255.21 982.433C1282.69 1059.73 1274.76 1087.47 1269.13 1079.22Z" fill="#89B5F7"/>
<path d="M1274.59 1070.39C1275.32 1056.55 1271.46 1028.18 1255.19 982.458C1228.96 905.06 1184.16 885.667 1156.26 887.894C1148.71 908.534 1152.85 940.688 1190.84 971.106C1241.18 1011.38 1268.87 1073.96 1268.87 1073.96C1270.27 1077.02 1272.62 1076.09 1274.59 1070.39Z" fill="#AAC8F9"/>
<path fill-rule="evenodd" clip-rule="evenodd" d="M1269.13 1079.22C1269.13 1079.22 1231.15 1022.25 1174.75 991.129C1118.34 960.006 1119.8 915.833 1133.92 897.534C1148.04 879.236 1219.16 876.052 1255.21 982.433C1282.69 1059.73 1274.76 1087.47 1269.13 1079.22Z" stroke="#5A4DAA" stroke-width="4"/>
<path d="M1300.18 1190.75L1211.63 1190.65L1239.86 1360.37C1241.7 1371.41 1251.25 1379.51 1262.44 1379.53H1299.98H1337.51C1348.71 1379.56 1358.3 1371.48 1360.16 1360.44L1388.69 1190.84L1300.18 1190.75Z" fill="#89B5F7"/>
<path d="M1367.3 1190.83C1367.41 1203.94 1367.06 1325.88 1317.43 1344.57C1281.37 1358.15 1252.48 1345.28 1234.56 1328.72L1239.81 1360.31C1241.65 1371.35 1251.2 1379.45 1262.39 1379.47H1299.93H1337.46C1348.66 1379.5 1358.24 1371.42 1360.11 1360.37L1388.69 1190.84L1367.3 1190.83Z" fill="#609AEF"/>
<path fill-rule="evenodd" clip-rule="evenodd" d="M1300.18 1190.75L1211.63 1190.65L1239.86 1360.37C1241.7 1371.41 1251.25 1379.51 1262.44 1379.53H1299.98H1337.51C1348.71 1379.56 1358.3 1371.48 1360.16 1360.44L1388.69 1190.84L1300.18 1190.75Z" stroke="#5A4DAA" stroke-width="4"/>
<path d="M1388.68 1189.63C1388.69 1181.91 1348.78 1175.6 1299.55 1175.55C1250.32 1175.5 1210.41 1181.72 1210.4 1189.44C1210.39 1197.16 1250.29 1203.47 1299.52 1203.52C1348.76 1203.57 1388.67 1197.35 1388.68 1189.63Z" fill="#5A4DAA" stroke="#5A4DAA" stroke-width="4"/>
<path d="M1339.8 1189.63C1339.8 1189.63 1370.2 1077.8 1412.14 1097.66C1431.92 1112.83 1343.28 1200.12 1339.8 1189.63Z" fill="#89B5F7"/>
<path d="M1394.98 1096.49C1362.16 1107.4 1339.8 1189.62 1339.8 1189.62C1339.99 1190.26 1340.66 1190.64 1341.31 1190.48C1353.09 1183.83 1393.49 1122.61 1394.98 1096.49Z" fill="#AAC8F9"/>
<path fill-rule="evenodd" clip-rule="evenodd" d="M1339.8 1189.63C1339.8 1189.63 1370.2 1077.8 1412.14 1097.66C1431.92 1112.83 1343.28 1200.12 1339.8 1189.63Z" stroke="#5A4DAA" stroke-width="4"/>
<path d="M1274.54 1189.56C1274.54 1189.56 1231.57 1072.99 1196.59 1085.77C1161.62 1098.54 1271.03 1200.04 1274.54 1189.56Z" fill="#89B5F7"/>
<path d="M1208.86 1086.13C1212.81 1118.78 1266.83 1190.78 1273.88 1187.8C1269.03 1175.1 1238.24 1097.23 1208.86 1086.13Z" fill="#AAC8F9"/>
<path fill-rule="evenodd" clip-rule="evenodd" d="M1274.54 1189.56C1274.54 1189.56 1231.57 1072.99 1196.59 1085.77C1161.62 1098.54 1271.03 1200.04 1274.54 1189.56Z" stroke="#5A4DAA" stroke-width="4"/>
<path d="M1458.68 694.626C1458.68 694.626 1300.38 998.504 1304.84 1190.75C1304.84 1190.75 1322.82 728.215 1177.25 660.47" stroke="#5A4DAA" stroke-width="4"/>
<path d="M1133.88 899.284C1133.88 899.284 1298.07 991.507 1287.42 1193.07" stroke="#5A4DAA" stroke-width="4"/>
<path d="M1468.49 904.922C1468.49 904.922 1317.82 1036.94 1314.16 1190.77" stroke="#5A4DAA" stroke-width="4"/>
<path d="M1217.72 1227.31C1217.72 1227.31 1305.93 1254.84 1382.59 1227.49" stroke="#5A4DAA" stroke-width="4"/>
<path d="M1037.57 1095.08L1083.25 1357.86C1085.18 1368.94 1094.8 1377.04 1106.06 1377.04H1118.11" stroke="#251760" stroke-width="4" stroke-linecap="round"/>
<path d="M1128.18 1073.69L1178.9 1357.86C1180.82 1368.94 1190.45 1377.04 1201.7 1377.04H1213.76" stroke="#251760" stroke-width="4" stroke-linecap="round"/>
<path d="M1002.33 1095.08L956.532 1357.86C954.6 1368.94 944.98 1377.03 933.728 1377.04H921.785" stroke="#251760" stroke-width="4" stroke-linecap="round"/>
<path d="M912.976 1073.69L862.145 1357.86C860.212 1368.94 850.592 1377.03 839.341 1377.04H827.397" stroke="#251760" stroke-width="4" stroke-linecap="round"/>
<path d="M1069.03 608.041C1069.03 608.041 1191.11 589.163 1231.38 672.225C1271.65 755.286 1270.39 1141.65 965.834 1118.99C759.439 1095.08 782.092 947.837 831.174 960.422C845.86 964.197 1140.77 978.041 1099.23 858.483C1057.7 738.925 1017.43 626.918 1069.03 608.041Z" fill="#EAEAEA"/>
<path opacity="0.82" d="M1247.37 741.19C1257.14 922.151 1167.86 1046.34 1076.58 1083.76C972.126 1126.54 953.324 1038.27 953.324 1038.27C945.924 999.888 902.443 973.573 859.931 962.511C844.275 961.995 833.678 961.064 831.174 960.422C782.092 947.837 759.439 1095.08 965.834 1118.99C1216.28 1137.62 1261.58 879.626 1247.37 741.19Z" fill="#C9C6CC"/>
<path opacity="0.82" d="M1170.97 884.912C1203.22 725.875 1189.42 652.542 1172.23 619.015C1123.91 599.559 1069.03 608.041 1069.03 608.041C1063.4 610.043 1058.43 613.567 1054.68 618.222C1052.5 621.637 1050.53 625.18 1048.77 628.831C1043.99 641.517 1043.73 658.796 1046.53 679.436C1051.95 687.377 1061.63 692.713 1076.44 693.581C1161.82 698.59 1136.99 877.361 1170.97 884.912Z" fill="#C9C6CC"/>
<path fill-rule="evenodd" clip-rule="evenodd" d="M1069.03 608.041C1069.03 608.041 1191.11 589.163 1231.38 672.225C1271.65 755.286 1270.39 1141.65 965.834 1118.99C759.439 1095.08 782.092 947.837 831.174 960.422C845.86 964.197 1140.77 978.041 1099.23 858.483C1057.7 738.925 1017.43 626.918 1069.03 608.041Z" stroke="#251760" stroke-width="4" stroke-linecap="round"/>
<path d="M930.897 783.35C917.443 800.604 902.291 811.037 883.967 808.143C828.593 799.333 719.103 742.701 682.607 847.156C672.539 907.565 677.573 769.129 831.11 852.19C882.57 880.029 933.049 861.503 975.775 824.503C956.565 816.298 940.732 801.78 930.897 783.35Z" fill="#F9C7A5"/>
<path d="M931.942 785.238C927.638 791.908 933.049 811.918 920.464 824.503C893.167 851.8 756.859 764.095 701.95 812.12C694.085 824.164 690.259 835.905 690.045 846.578C706.582 828.115 746.124 806.217 831.173 852.19C882.634 880.029 933.112 861.503 975.838 824.503C957.286 816.599 941.858 802.798 931.942 785.238V785.238Z" fill="#F9A395"/>
<path fill-rule="evenodd" clip-rule="evenodd" d="M930.897 783.35C917.443 800.604 902.291 811.037 883.967 808.143C828.593 799.333 719.103 742.701 682.607 847.156C672.539 907.565 677.573 769.129 831.11 852.19C882.57 880.029 933.049 861.503 975.775 824.503C956.565 816.298 940.732 801.78 930.897 783.35Z" stroke="#251760" stroke-width="4" stroke-linecap="round"/>
<path d="M1083.05 603.007C1083.05 603.007 1041.28 595.456 1003.53 649.571C978.268 685.779 958.081 748.465 930.897 783.35C940.742 801.761 956.573 816.261 975.776 824.453C1060.41 750.982 1114.16 604.681 1083.05 603.007Z" fill="#F9BE58"/>
<path opacity="0.57" d="M1028.76 684.809C1028.76 684.809 1004.85 673.483 992.262 707.463C979.802 741.128 950.026 788.384 931.124 783.124L930.96 783.35C940.804 801.761 956.636 816.261 975.838 824.453C993.344 809.25 1009.53 790.927 1023.93 771.407C1042.3 736.383 1049.07 698.401 1028.76 684.809Z" fill="#FC8E44"/>
<path d="M1083.05 603.007C1083.05 603.007 1041.28 595.456 1003.53 649.571C978.268 685.779 958.081 748.465 930.897 783.35C940.742 801.761 956.573 816.261 975.776 824.453" stroke="#251760" stroke-width="4" stroke-linecap="round"/>
<path d="M965.834 935.252C934.371 879.878 903.211 863.429 903.211 863.429C903.211 863.429 693.997 732.633 627.296 888.687C578.139 1003.71 669.129 1139.92 712.321 1224.71C724.214 1221.76 738.888 1213.86 752.807 1194.83C736.295 1137.62 724.881 1064.32 751.888 1024.61C799.711 954.129 997.296 990.626 965.834 935.252Z" fill="#54CEE2"/>
<path opacity="0.54" d="M965.834 935.252C934.371 879.878 903.21 863.429 903.21 863.429C876.608 847.62 848.327 834.826 818.891 825.284C820.149 838.926 815.908 864.448 766.94 863.517C700.239 862.259 654.933 905.048 670.035 991.884C685.137 1078.72 737.994 1136.61 722.892 1185.69C716.725 1205.74 713.919 1217.61 713.781 1224.37C725.396 1221.12 739.416 1213.12 752.794 1194.89C736.295 1137.62 724.881 1064.32 751.888 1024.61C763.856 1006.99 785.201 996.037 809.993 988.675C831.929 955.728 863.731 940.198 901.65 967.973C903.538 969.357 905.425 970.616 907.25 971.836C949.473 966.135 979.551 959.49 965.834 935.252Z" fill="#2986AA"/>
<path fill-rule="evenodd" clip-rule="evenodd" d="M965.834 935.252C934.371 879.878 903.211 863.429 903.211 863.429C903.211 863.429 693.997 732.633 627.296 888.687C578.139 1003.71 669.129 1139.92 712.321 1224.71C724.214 1221.76 738.888 1213.86 752.807 1194.83C736.295 1137.62 724.881 1064.32 751.888 1024.61C799.711 954.129 997.296 990.626 965.834 935.252Z" stroke="#251760" stroke-width="4" stroke-linecap="round"/>
<path d="M772.024 1250.88C764.645 1232.58 758.23 1213.9 752.806 1194.92C738.887 1213.95 724.213 1221.85 712.32 1224.8C723.647 1247.13 731.739 1265.9 733.048 1279.79C750.377 1275.05 763.365 1262.31 772.024 1250.88Z" fill="#F9A395" stroke="#251760" stroke-width="4" stroke-linecap="round"/>
<path d="M731.751 1292.67C711.615 1345.52 682.67 1374.47 693.996 1376.99C705.323 1379.5 792.159 1281.34 784.608 1276.31C782.947 1275.2 778.077 1265.71 772.023 1250.86C763.428 1262.31 750.44 1275.05 733.01 1279.8C733.58 1284.13 733.15 1288.53 731.751 1292.67Z" fill="#251760" stroke="#251760" stroke-width="4" stroke-linecap="round"/>
<path d="M948.214 917.633C948.214 917.633 806.003 815.694 695.255 917.633C606.945 998.856 554.655 1185.57 508.996 1266.99C517.12 1278.32 527.805 1287.57 540.182 1293.99C604.73 1185.44 724.754 1011.52 838.724 1033.41C968.35 1063.62 1069.03 1085.01 1115.59 986.85C1162.16 888.687 1012.4 956.646 948.214 917.633Z" fill="#7EDCF2"/>
<path opacity="0.45" d="M1035.96 1054.18C1040.17 1009.72 1029.66 963.568 1009.21 931.136C986.423 930.57 964.575 927.575 948.214 917.633C935.407 908.96 921.849 901.45 907.703 895.194C907.703 895.194 931.854 988.423 884.031 980.772C836.208 973.12 683.929 988.109 613.452 1120.25C543.354 1251.7 541.718 1269.82 509.513 1267.5C517.577 1278.58 528.112 1287.63 540.283 1293.93C604.731 1185.44 724.755 1011.52 838.725 1033.41C916.752 1051.61 984.371 1066.6 1035.96 1054.18Z" fill="#44A2CC"/>
<path fill-rule="evenodd" clip-rule="evenodd" d="M948.214 917.633C948.214 917.633 806.003 815.694 695.255 917.633C606.945 998.856 554.655 1185.57 508.996 1266.99C517.12 1278.32 527.805 1287.57 540.182 1293.99C604.73 1185.44 724.754 1011.52 838.724 1033.41C968.35 1063.62 1069.03 1085.01 1115.59 986.85C1162.16 888.687 1012.4 956.646 948.214 917.633Z" stroke="#251760" stroke-width="4" stroke-linecap="round"/>
<path d="M1131.96 615.592C1131.96 615.592 1173.49 600.49 1168.45 804.367C1165.48 924.781 1111.82 1001.95 1019.95 975.524C928.078 949.095 882.772 877.361 909.201 854.707C935.629 832.054 984.711 775.422 998.554 728.857C1012.4 682.293 1035.05 567.769 1131.96 615.592Z" fill="#F9BE58"/>
<path opacity="0.57" d="M1168.45 804.367C1168.54 801.095 1168.6 797.873 1168.67 794.715C1156.23 761.201 1137.2 736.748 1114.34 733.891C1114.34 733.891 1086.65 721.306 1080.36 772.905C1074.06 824.503 1061.48 932.735 994.779 917.633C928.078 902.531 913.568 850.768 903.21 863.429C892.84 892.035 937.731 951.889 1019.95 975.524C1111.82 1001.95 1165.42 924.781 1168.45 804.367Z" fill="#FC8E44"/>
<path d="M1168.45 804.367C1145.8 922.667 1111.82 1001.95 1019.95 975.524C928.078 949.095 882.772 877.361 909.201 854.708C935.629 832.054 984.711 775.422 998.554 728.857C1001.96 717.417 1006.81 701.648 1013.35 685.099" stroke="#251760" stroke-width="4" stroke-linecap="round"/>
<path d="M969.609 1073.69C969.609 1073.69 922.327 1009.63 974.92 957.338C1027.51 905.048 1076.3 977.097 1133.08 920.943C1157.33 896.955 1175.86 902.719 1183.15 922.402C1192.98 948.831 1182.77 1000.24 1139.51 1038.45C1124.51 1051.78 1107.22 1062.29 1088.49 1069.47C1027.2 1092.9 969.609 1073.69 969.609 1073.69Z" fill="#EAEAEA"/>
<path d="M1133.01 920.943C1076.24 977.097 1027.5 905.048 974.857 957.338C922.214 1009.63 969.609 1073.69 969.609 1073.69" stroke="#251760" stroke-width="4" stroke-linecap="round"/>
<path d="M1139.27 613.402C1139.27 613.402 1104.27 638.245 1086.65 667.19C1070.29 692.361 1053.93 670.966 1061.48 643.279C1069.03 615.592 1095.46 603.007 1095.46 603.007L1139.27 613.402Z" fill="#F9C7A5"/>
<path d="M1187.33 1100.12C1170.97 1086.13 1161.18 1024.61 1173.83 886.56C1139.76 902.266 1108.38 893.532 1088.71 884.043C1093.11 1060.56 1165.48 1134.65 1194.88 1126.56C1223.37 1118.67 1201.17 1091.31 1187.33 1100.12Z" fill="#F9C7A5"/>
<path d="M1186.07 1100.12L1186.83 1099.65C1170.74 1084.76 1161.24 1023.1 1173.76 886.56C1140.04 902.115 1108.93 893.696 1089.24 884.307C1090.11 888.171 1095.96 908.219 1124.34 913.857C1155.87 920.15 1126.92 1076.2 1186.07 1100.12Z" fill="#F9A395"/>
<path fill-rule="evenodd" clip-rule="evenodd" d="M1187.33 1100.12C1170.97 1086.13 1161.18 1024.61 1173.83 886.56C1139.76 902.266 1108.38 893.532 1088.71 884.043C1093.11 1060.56 1165.48 1134.65 1194.88 1126.56C1223.37 1118.67 1201.17 1091.31 1187.33 1100.12Z" stroke="#251760" stroke-width="4" stroke-linecap="round"/>
<path d="M1061.48 643.279C1058.67 653.586 1059.18 663 1061.76 669.494C1058.55 660.457 1062.74 634.469 1081.62 634.469C1096.72 634.469 1099.23 620.626 1099.23 620.626C1100.17 616.611 1102.54 606.996 1101.53 604.441L1095.46 603.007C1095.46 603.007 1069.03 615.592 1061.48 643.279Z" fill="#F9A395"/>
<path d="M1136.99 609.299C1136.99 609.299 1208.72 630.694 1177.26 852.19C1175.96 864.146 1174.82 875.603 1173.83 886.56C1139.76 902.266 1108.38 893.532 1088.71 884.043C1087.64 841.015 1090.6 791.921 1099.23 736.421C1099.23 736.421 1072.35 681.89 1076.98 677.057C1081.62 672.224 1112.83 638.371 1122.39 626.994C1131.96 615.617 1134.47 605.524 1136.99 609.299Z" fill="#F9BE58"/>
<path opacity="0.57" d="M1136.99 609.299C1134.47 605.524 1131.96 615.592 1122.39 626.981C1112.83 638.371 1081.62 672.224 1076.92 677.007C1076.38 677.573 1076.27 678.844 1076.51 680.606C1083.53 680.682 1092.87 678.555 1101.68 669.67C1119.29 652.051 1138.17 631.915 1150.76 654.568C1163.34 677.221 1177.85 775.887 1158.65 844.224C1139.44 912.561 1095.46 855.966 1089.17 883.653C1089.17 883.842 1089.17 884.018 1089.08 884.207C1108.75 893.633 1139.97 902.166 1173.83 886.56C1174.82 875.586 1175.96 864.129 1177.26 852.19C1208.72 630.694 1136.99 609.299 1136.99 609.299Z" fill="#FC8E44"/>
<path d="M1099.23 736.408C1090.6 791.908 1087.64 841.002 1088.71 884.031C1108.37 893.532 1139.76 902.266 1173.83 886.548C1174.82 875.573 1175.96 864.117 1177.26 852.178C1208.72 630.681 1136.99 609.287 1136.99 609.287" stroke="#251760" stroke-width="4" stroke-linecap="round"/>
<path d="M1129.44 507.361C1129.44 507.361 1126.92 528.755 1100.49 536.306C1074.06 543.857 1055.19 585.388 1081.62 615.592C1104.27 638.245 1134.47 625.66 1160.9 590.422C1187.33 555.184 1139.51 477.156 1129.44 507.361Z" fill="#F9C7A5"/>
<path d="M1168.54 559.161C1167.55 544.247 1161.86 528.743 1155.01 517.429C1147.09 512.737 1138.9 508.502 1130.5 504.743C1130.05 505.583 1129.68 506.458 1129.38 507.361C1129.38 507.361 1127.34 524.64 1107.74 533.626C1110.9 539.918 1115.47 546.638 1121.82 551.408C1136.93 562.735 1108.16 567.19 1118.77 590.132C1125.66 584.129 1140.77 574.061 1136.99 587.905C1133.99 598.891 1130.22 609.866 1134.47 617.077C1142.83 611.048 1150.31 603.895 1156.71 595.821C1157.75 592.612 1159.16 589.534 1160.9 586.646C1164.04 581.864 1167.37 571.028 1168.54 559.161Z" fill="#F9A395"/>
<path d="M1160.9 590.422C1187.33 555.184 1139.51 477.156 1129.44 507.361C1129.44 507.361 1126.92 528.755 1100.49 536.306C1074.06 543.857 1055.19 585.388 1081.62 615.592C1085.43 619.528 1090.01 622.63 1095.08 624.703" stroke="#251760" stroke-width="4" stroke-linecap="round"/>
<path d="M1143.28 610.558C1143.28 610.558 1104.27 638.245 1086.65 667.19C1070.29 692.361 1053.93 670.966 1061.48 643.279C1064.7 632.135 1070.96 622.11 1079.56 614.333" stroke="#251760" stroke-width="4" stroke-linecap="round"/>
<path d="M1142.02 546.374C1142.02 546.374 1100.49 522.463 1113.08 484.707C1125.66 446.952 1168.45 455.762 1165.94 483.449C1163.42 511.136 1213.76 512.395 1207.47 552.667C1201.17 592.939 1148.32 618.398 1144.54 608.821C1140.77 599.244 1159.64 569.027 1136.99 581.612C1116.77 592.851 1118.11 590.422 1119.37 584.129C1120.63 577.837 1150.83 556.442 1142.02 546.374Z" fill="#FC8181"/>
<path d="M1207.47 552.667C1212.08 523.18 1186.31 514.61 1173.18 501.257C1181.92 513.288 1198.69 541.529 1182.3 562.735C1160.9 586.646 1173.49 546.374 1154.61 540.082C1135.73 533.789 1107.84 516.044 1111.72 489.679L1111.61 490.169C1104.43 524.728 1142.02 546.374 1142.02 546.374C1150.83 556.442 1120.63 577.837 1119.37 584.129C1118.11 590.422 1116.77 592.851 1136.99 581.612C1159.64 569.027 1140.76 599.231 1144.54 608.821C1148.32 618.411 1201.17 592.939 1207.47 552.667Z" fill="#EF6C6C"/>
<path fill-rule="evenodd" clip-rule="evenodd" d="M1142.02 546.374C1142.02 546.374 1100.49 522.463 1113.08 484.707C1125.66 446.952 1168.45 455.762 1165.94 483.449C1163.42 511.136 1213.76 512.395 1207.47 552.667C1201.17 592.939 1148.32 618.398 1144.54 608.821C1140.77 599.244 1159.64 569.027 1136.99 581.612C1116.77 592.851 1118.11 590.422 1119.37 584.129C1120.63 577.837 1150.83 556.442 1142.02 546.374Z" stroke="#251760" stroke-width="4" stroke-linecap="round"/>
<path d="M117.539 1376.99H1387.37" stroke="#251760" stroke-width="4" stroke-linecap="round"/>
<path d="M516.346 1335.38C523.079 1323.39 531.083 1309.34 540.258 1293.99C527.854 1287.58 517.142 1278.33 508.996 1266.99C497.947 1286.73 487.287 1300.26 476.603 1304.62C485.399 1313.97 499.683 1327.26 516.346 1335.38Z" fill="#F9C7A5"/>
<path d="M540.22 1293.99C529.429 1288.42 519.921 1280.66 512.306 1271.21C512.547 1278.95 513.978 1286.62 516.547 1293.93C527.748 1327.51 493.454 1320.52 476.867 1304.55L476.703 1304.62C485.513 1313.97 499.746 1327.28 516.409 1335.38C523.079 1323.39 531.083 1309.34 540.22 1293.99Z" fill="#F9A395"/>
<path fill-rule="evenodd" clip-rule="evenodd" d="M516.346 1335.38C523.079 1323.39 531.083 1309.34 540.258 1293.99C527.854 1287.58 517.142 1278.33 508.996 1266.99C497.947 1286.73 487.287 1300.26 476.603 1304.62C485.399 1313.97 499.683 1327.26 516.346 1335.38Z" stroke="#251760" stroke-width="4" stroke-linecap="round"/>
<path d="M380.629 1291.41C375.595 1298.96 486.344 1379.5 492.636 1376.99C493.895 1376.47 502.39 1360.36 516.409 1335.38C499.747 1327.26 485.463 1313.99 476.704 1304.62C476.137 1304.85 475.583 1305.08 475.017 1305.25C419.643 1322.87 385.663 1283.86 380.629 1291.41Z" fill="#251760" stroke="#251760" stroke-width="4" stroke-linecap="round"/>
<path d="M1113.24 542.599L1082.72 550.464C1081.88 550.679 1081.21 551.291 1080.91 552.103C1080.61 552.915 1080.73 553.822 1081.23 554.529L1087.91 563.993" stroke="#251760" stroke-width="4" stroke-linecap="round"/>
<path d="M1114.27 552.667L1123.6 560.419" stroke="#251760" stroke-width="4" stroke-linecap="round"/>
<path d="M1084.07 531.272L1093.39 539.024" stroke="#251760" stroke-width="4" stroke-linecap="round"/>
<path d="M1090.99 592.939C1095.51 592.939 1099.17 589.276 1099.17 584.759C1099.17 580.241 1095.51 576.578 1090.99 576.578C1086.47 576.578 1082.81 580.241 1082.81 584.759C1082.81 589.276 1086.47 592.939 1090.99 592.939Z" fill="#251760" stroke="#251760" stroke-width="4" stroke-linecap="round"/>
<path d="M31.9609 791.782H691.417" stroke="#251760" stroke-width="4" stroke-linecap="round"/>
<path d="M544.234 712.547H216.621C206.719 712.548 198.453 704.992 197.567 695.129L177.62 472.261C177.139 466.911 178.93 461.606 182.554 457.642C186.178 453.678 191.302 451.42 196.674 451.42H524.237C534.141 451.426 542.405 458.986 543.29 468.85L563.238 691.719C563.714 697.058 561.928 702.351 558.315 706.311C554.703 710.271 549.594 712.533 544.234 712.547Z" fill="#251760" stroke="#251760" stroke-width="4" stroke-linecap="round"/>
<path d="M570.235 712.547H242.672C232.77 712.548 224.504 704.992 223.618 695.129L203.671 472.261C203.19 466.913 204.979 461.61 208.601 457.646C212.222 453.683 217.343 451.423 222.712 451.42H550.275C560.181 451.42 568.449 458.983 569.329 468.85L589.276 691.719C589.757 697.065 587.967 702.367 584.345 706.329C580.723 710.291 575.603 712.547 570.235 712.547Z" fill="#E4E3E5" stroke="#251760" stroke-width="4" stroke-linecap="round"/>
<path d="M553.762 651.837H248.235C241.518 651.84 235.923 646.688 235.373 639.994L222.36 482.757C222.064 479.162 223.286 475.607 225.73 472.954C228.173 470.3 231.615 468.789 235.222 468.787H540.749C547.483 468.787 553.085 473.966 553.61 480.68L566.611 637.855C566.914 641.451 565.696 645.009 563.255 647.666C560.813 650.323 557.37 651.835 553.762 651.837Z" fill="white"/>
<path d="M453.572 788.007H374.098L371.43 686.496H431.536L453.572 788.007Z" fill="#C9C6CC"/>
<path d="M437.4 713.503L431.762 687.49C431.007 687.138 430.227 686.785 429.434 686.458H371.43L374.098 787.969H396.877C396.109 782.809 395.417 777.058 394.8 770.614C390.697 727.573 422.059 716.423 437.4 713.503Z" fill="#A9A9AA"/>
<path fill-rule="evenodd" clip-rule="evenodd" d="M453.572 788.007H374.098L371.43 686.496H431.536L453.572 788.007V788.007Z" stroke="#251760" stroke-width="4" stroke-linecap="round"/>
<path d="M223.618 695.129C224.504 704.992 232.77 712.548 242.672 712.547H570.235C575.603 712.547 580.724 710.291 584.346 706.329C587.968 702.367 589.757 697.065 589.276 691.719L587.137 667.807H221.177L223.618 695.129Z" fill="#A9A9AA"/>
<path d="M587.137 667.795H250.173L251.67 684.445C252.55 694.305 260.812 701.862 270.712 701.862H587.389C588.943 698.72 589.596 695.209 589.277 691.719L587.137 667.795Z" fill="#C9C6CC"/>
<path fill-rule="evenodd" clip-rule="evenodd" d="M223.618 695.129C224.504 704.992 232.77 712.548 242.672 712.547H570.235C575.603 712.547 580.724 710.291 584.346 706.329C587.968 702.367 589.757 697.065 589.276 691.719L587.137 667.807H221.177L223.618 695.129Z" stroke="#251760" stroke-width="4" stroke-linecap="round"/>
<path d="M408.492 697.848C412.732 697.848 416.169 694.411 416.169 690.171C416.169 685.931 412.732 682.494 408.492 682.494C404.252 682.494 400.815 685.931 400.815 690.171C400.815 694.411 404.252 697.848 408.492 697.848Z" fill="white"/>
<path opacity="0.63" d="M374.589 621.721H264.054C258.669 621.72 254.165 617.63 253.647 612.269L242.987 502.968C242.703 500.032 243.671 497.113 245.653 494.928C247.634 492.743 250.445 491.495 253.395 491.491H363.942C369.322 491.498 373.819 495.587 374.337 500.942L385.009 610.306C385.274 613.234 384.296 616.138 382.314 618.31C380.332 620.481 377.529 621.719 374.589 621.721Z" fill="#E4E3E5"/>
<path opacity="0.63" d="M531.65 536.243H414.295C408.51 536.25 403.639 531.92 402.968 526.175L400.904 508.179C400.521 504.951 401.543 501.715 403.71 499.292C405.877 496.87 408.981 495.495 412.231 495.518H529.586C535.381 495.482 540.269 499.827 540.913 505.586L542.989 523.583C543.372 526.812 542.349 530.051 540.179 532.474C538.009 534.896 534.902 536.269 531.65 536.243Z" fill="#E4E3E5"/>
<path opacity="0.63" d="M538.043 570.965H412.507C408.579 570.969 405.345 567.879 405.17 563.955C405.077 561.951 405.809 559.997 407.195 558.546C408.581 557.096 410.501 556.276 412.507 556.279H538.043C541.971 556.275 545.205 559.365 545.38 563.288C545.469 565.292 544.736 567.244 543.351 568.694C541.965 570.143 540.048 570.964 538.043 570.965Z" fill="#E4E3E5"/>
<path opacity="0.63" d="M541.39 602.352H415.867C411.937 602.357 408.699 599.268 408.518 595.343C408.425 593.335 409.158 591.377 410.546 589.924C411.935 588.472 413.858 587.651 415.867 587.653H541.403C545.331 587.649 548.565 590.739 548.74 594.663C548.833 596.67 548.1 598.628 546.711 600.081C545.323 601.534 543.4 602.355 541.39 602.352Z" fill="#E4E3E5"/>
<path d="M673.861 791.782H264.029L273.229 775.762C277.473 768.493 285.276 764.045 293.692 764.095H647.936C658.22 763.993 667.356 770.64 670.425 780.456L673.861 791.782Z" fill="#E4E3E5"/>
<path d="M670.425 780.481C670.141 779.509 669.787 778.558 669.368 777.637H325.998C323.413 777.634 321.031 776.239 319.764 773.987C318.496 771.734 318.541 768.973 319.881 766.763L321.48 764.095H293.667C285.25 764.045 277.448 768.493 273.204 775.762L264.004 791.782H673.861L670.425 780.481Z" fill="#C9C6CC"/>
<path fill-rule="evenodd" clip-rule="evenodd" d="M673.861 791.782H264.029L273.229 775.762C277.473 768.493 285.276 764.045 293.692 764.095H647.936C658.22 763.993 667.356 770.64 670.425 780.456L673.861 791.782Z" stroke="#251760" stroke-width="4"/>
<path d="M297.48 363.967L169.201 166.47C166.615 162.324 162.075 159.805 157.189 159.805C152.303 159.805 147.762 162.324 145.176 166.47L16.9222 363.967C10.3528 374.098 17.262 387.803 28.9409 387.803H285.462C297.141 387.803 304.05 374.098 297.48 363.967Z" fill="#D2E1F9"/>
<path d="M297.48 363.967L169.201 166.47C166.978 162.909 163.287 160.522 159.128 159.955C154.97 159.388 150.774 160.701 147.68 163.537C153.885 163.626 172.083 181.823 223.43 308.542C243.893 361.122 263.865 377.911 16.8462 364.155C10.4656 374.223 17.3622 387.803 28.9656 387.803H285.461C297.14 387.803 304.049 374.098 297.48 363.967Z" fill="#AAC8F9"/>
<path fill-rule="evenodd" clip-rule="evenodd" d="M297.48 363.967L169.201 166.47C166.615 162.324 162.075 159.805 157.189 159.805C152.303 159.805 147.762 162.324 145.176 166.47L16.9222 363.967C10.3528 374.098 17.262 387.803 28.9409 387.803H285.462C297.141 387.803 304.05 374.098 297.48 363.967Z" stroke="#5A4DAA" stroke-width="4" stroke-linecap="round"/>
<path d="M157.711 333.888C153.252 333.882 149.53 330.487 149.115 326.048L139.462 220.661C139.006 215.703 140.656 210.782 144.007 207.101C147.358 203.419 152.103 201.316 157.081 201.305C162.034 201.307 166.76 203.378 170.118 207.018C173.476 210.658 175.16 215.536 174.763 220.472L166.268 325.96C165.903 330.422 162.187 333.864 157.711 333.888Z" fill="#5A4DAA" stroke="#5A4DAA" stroke-width="4" stroke-linecap="round"/>
<path d="M157.207 369.617C164.122 369.617 169.729 364.011 169.729 357.095C169.729 350.179 164.122 344.573 157.207 344.573C150.291 344.573 144.685 350.179 144.685 357.095C144.685 364.011 150.291 369.617 157.207 369.617Z" fill="#5A4DAA" stroke="#5A4DAA" stroke-width="4" stroke-linecap="round"/>
<path d="M149.429 1273.36L67.0225 1120.76L149.429 1273.36Z" fill="#609AEF"/>
<path d="M149.429 1273.36L67.0225 1120.76" stroke="#5A4DAA" stroke-width="4"/>
<path d="M71.3595 1128.34C78.4602 1124.23 78.0523 1110.24 70.4485 1097.09C62.8447 1083.94 50.9243 1076.6 43.8237 1080.7C36.723 1084.81 37.1309 1098.8 44.7347 1111.95C52.3385 1125.11 64.2588 1132.44 71.3595 1128.34Z" fill="#89B5F7"/>
<path d="M44.7726 1111.92C48.8501 1118.97 54.161 1124.35 59.3083 1127.2C65.8903 1122.73 65.3365 1109.1 57.9114 1096.25C53.8338 1089.2 48.5104 1083.83 43.3505 1080.99C36.7811 1085.44 37.3474 1099.08 44.7726 1111.92Z" fill="#AAC8F9"/>
<path fill-rule="evenodd" clip-rule="evenodd" d="M71.3595 1128.34C78.4602 1124.23 78.0523 1110.24 70.4485 1097.09C62.8447 1083.94 50.9243 1076.6 43.8237 1080.7C36.723 1084.81 37.1309 1098.8 44.7347 1111.95C52.3385 1125.11 64.2588 1132.44 71.3595 1128.34Z" stroke="#5A4DAA" stroke-width="4"/>
<path d="M97.0504 1172.68C97.0504 1172.68 91.5255 1124.74 114.166 1123.78C136.806 1122.81 100.952 1181.19 97.0504 1172.68Z" fill="#89B5F7"/>
<path d="M107.61 1125.71C92.6964 1134.83 97.0508 1172.68 97.0508 1172.68C97.1998 1173.09 97.5526 1173.4 97.9821 1173.49C103.532 1168.99 112.316 1137.54 107.61 1125.71Z" fill="#AAC8F9"/>
<path fill-rule="evenodd" clip-rule="evenodd" d="M97.0504 1172.68C97.0504 1172.68 91.5255 1124.74 114.166 1123.78C136.806 1122.81 100.952 1181.19 97.0504 1172.68Z" stroke="#5A4DAA" stroke-width="4"/>
<path d="M85.7119 1158.33C85.7119 1158.33 52.9908 1134.08 42.6711 1150.24C32.3513 1166.4 90.3054 1164.79 85.7119 1158.33Z" fill="#89B5F7"/>
<path d="M46.8613 1146.26C59.8365 1139.18 85.7113 1158.33 85.7113 1158.33C85.9523 1158.62 86.0284 1159.01 85.9127 1159.37C80.2872 1161.53 53.544 1154.7 46.8613 1146.26Z" fill="#AAC8F9"/>
<path fill-rule="evenodd" clip-rule="evenodd" d="M85.7119 1158.33C85.7119 1158.33 52.9908 1134.08 42.6711 1150.24C32.3513 1166.4 90.3054 1164.79 85.7119 1158.33Z" stroke="#5A4DAA" stroke-width="4"/>
<path d="M66.8721 1377.11H340.295H66.8721Z" fill="#AAC8F9"/>
<path d="M66.8721 1377.11H340.295" stroke="#5A4DAA" stroke-width="4"/>
<path d="M311.6 1377.99H83.3452C83.3452 1377.99 66.8714 1370.54 70.1687 1344.19C73.466 1317.84 109.698 1326.57 123.97 1335.38C102.009 1311.29 81.8854 1263.47 119.955 1258.79C158.025 1254.11 179.973 1295.86 179.973 1295.86C179.973 1295.86 159.132 1213.51 183.27 1206.91C207.409 1200.32 206.326 1272.79 201.934 1303.54C222.8 1261.82 265.627 1237.66 273.316 1248.64C281.006 1259.63 248.058 1331 248.058 1331C248.058 1331 283.196 1310.13 301.872 1329.89C320.548 1349.65 311.6 1377.99 311.6 1377.99Z" fill="#609AEF" stroke="#5A4DAA" stroke-width="4"/>
<path d="M216.797 1377.11C216.797 1377.11 316.143 1312.32 283.196 1271.7C266.722 1255.23 242.571 1290.36 234.882 1307.93C251.356 1266.21 283.322 1216.44 251.356 1197.03C220.9 1178.55 205.534 1210.68 202.035 1307.29C202.029 1307.49 201.877 1307.66 201.677 1307.68C201.477 1307.7 201.292 1307.57 201.242 1307.38C187.675 1254.7 156.414 1208.37 127.267 1228.87C98.4727 1249.14 153.583 1313.94 156.779 1317.65C153.545 1315.31 107.156 1282.31 96.5597 1303.5C85.5478 1325.5 115.249 1385.9 216.797 1377.11Z" fill="#AAC8F9"/>
<path d="M156.918 1318.92C153.772 1316.4 150.223 1313.67 146.46 1310.9C131.358 1301.61 104.3 1288 96.5222 1303.54C94.4621 1308.16 93.831 1313.29 94.71 1318.28C97.8311 1316.53 123.026 1303.51 156.918 1318.92Z" fill="#89B5F7"/>
<path d="M201.242 1307.38C187.676 1254.7 156.414 1208.37 127.267 1228.87C124.177 1231 121.803 1234.01 120.459 1237.51C133.875 1246.56 164.607 1244.25 199.745 1316.72C202.262 1317.22 202.916 1311.68 202.262 1302.71C202.262 1304.22 202.148 1305.74 202.086 1307.29C202.101 1307.44 202.035 1307.59 201.913 1307.68C201.79 1307.77 201.63 1307.78 201.491 1307.72C201.353 1307.66 201.258 1307.53 201.242 1307.38Z" fill="#89B5F7"/>
<path d="M251.356 1197.03C242.005 1191.34 234.077 1190.45 227.444 1194.73C233.951 1210.05 250.097 1256.08 234.857 1307.93C251.356 1266.21 283.322 1216.44 251.356 1197.03Z" fill="#89B5F7"/>
<path d="M234.882 1307.93C238.796 1303.04 244.245 1294.2 250.097 1283.3C244.008 1290.84 238.896 1299.11 234.882 1307.93Z" fill="#89B5F7"/>
<path d="M263.299 1270.91C263.211 1271.66 263.148 1272.42 263.097 1273.2C263.097 1273.2 253.785 1341.53 213.928 1377.34L216.797 1377.11C216.797 1377.11 316.143 1312.32 283.196 1271.7C277.193 1265.7 270.17 1266.55 263.299 1270.91Z" fill="#89B5F7"/>
<path fill-rule="evenodd" clip-rule="evenodd" d="M216.797 1377.11C216.797 1377.11 316.143 1312.32 283.196 1271.7C266.722 1255.23 242.571 1290.36 234.882 1307.93C251.356 1266.21 283.322 1216.44 251.356 1197.03C220.9 1178.55 205.534 1210.68 202.035 1307.29C202.029 1307.49 201.877 1307.66 201.677 1307.68C201.477 1307.7 201.292 1307.57 201.242 1307.38C187.675 1254.7 156.414 1208.37 127.267 1228.87C98.4727 1249.14 153.583 1313.94 156.779 1317.65V1317.65C153.545 1315.31 107.156 1282.31 96.5597 1303.5C85.5478 1325.5 115.249 1385.9 216.797 1377.11Z" stroke="#5A4DAA" stroke-width="4"/>
<path d="M202.198 1304.07L208.529 1086.12L202.198 1304.07Z" fill="#609AEF"/>
<path d="M202.198 1304.07L208.529 1086.12" stroke="#5A4DAA" stroke-width="4"/>
<path d="M208.529 1097.1C218.836 1097.1 227.192 1081.61 227.192 1062.51C227.192 1043.41 218.836 1027.93 208.529 1027.93C198.221 1027.93 189.865 1043.41 189.865 1062.51C189.865 1081.61 198.221 1097.1 208.529 1097.1Z" fill="#89B5F7"/>
<path d="M189.865 1062.51C189.865 1072.76 192.269 1081.96 196.082 1088.29C206.05 1087.57 214.016 1072.38 214.016 1053.73C214.016 1043.48 211.612 1034.3 207.799 1027.95C197.832 1028.67 189.865 1043.86 189.865 1062.51Z" fill="#AAC8F9"/>
<path fill-rule="evenodd" clip-rule="evenodd" d="M208.529 1097.1C218.836 1097.1 227.192 1081.61 227.192 1062.51C227.192 1043.41 218.836 1027.93 208.529 1027.93C198.221 1027.93 189.865 1043.41 189.865 1062.51C189.865 1081.61 198.221 1097.1 208.529 1097.1Z" stroke="#5A4DAA" stroke-width="4"/>
<path d="M208.529 1161.53C208.529 1161.53 232.693 1105.89 257.938 1119.07C283.184 1132.25 207.434 1173.26 208.529 1161.53Z" fill="#89B5F7"/>
<path d="M249.581 1117.06C227.608 1117.6 208.529 1161.53 208.529 1161.53C208.438 1162.08 208.633 1162.63 209.045 1163C217.905 1161.61 247.228 1132.89 249.581 1117.06Z" fill="#AAC8F9"/>
<path fill-rule="evenodd" clip-rule="evenodd" d="M208.529 1161.53C208.529 1161.53 232.693 1105.89 257.938 1119.07C283.184 1132.25 207.434 1173.26 208.529 1161.53Z" stroke="#5A4DAA" stroke-width="4"/>
<path d="M205.219 1138.8C205.219 1138.8 184.806 1091.77 163.462 1102.91C142.118 1114.05 206.151 1148.71 205.219 1138.8Z" fill="#89B5F7"/>
<path d="M170.534 1101.21C189.097 1101.66 205.219 1138.79 205.219 1138.79C205.31 1139.26 205.147 1139.73 204.791 1140.05C197.303 1138.88 172.497 1114.59 170.534 1101.21Z" fill="#AAC8F9"/>
<path fill-rule="evenodd" clip-rule="evenodd" d="M205.219 1138.8C205.219 1138.8 184.806 1091.77 163.462 1102.91C142.118 1114.05 206.151 1148.71 205.219 1138.8Z" stroke="#5A4DAA" stroke-width="4"/>
<path d="M1429.68 260.694H1187.75C1180.87 260.694 1174.27 263.427 1169.41 268.292C1164.55 273.156 1161.82 279.754 1161.82 286.632V403.672C1161.82 410.548 1164.55 417.142 1169.41 422.004C1174.28 426.866 1180.87 429.598 1187.75 429.598H1194.35C1201.91 429.598 1208.03 435.722 1208.03 443.278V471.569C1208.04 474.121 1209.6 476.411 1211.98 477.339C1214.36 478.268 1217.06 477.646 1218.79 475.772L1257.57 434.556C1260.55 431.35 1264.74 429.528 1269.12 429.522H1429.72C1444.04 429.522 1455.65 417.917 1455.66 403.597V286.556C1455.61 272.246 1443.99 260.673 1429.68 260.694Z" fill="#D2E1F9" stroke="#5A4DAA" stroke-width="4" stroke-linecap="round"/>
<path d="M1370.23 378.565H1408.66V398.701H1330.22L1373.64 327.206H1337.52V307.07H1413.4L1370.23 378.565Z" fill="#5A4DAA"/>
<path d="M1285.14 382.693H1315.7V398.752H1253.3L1287.85 341.867H1259.06V325.809H1319.47L1285.14 382.693Z" fill="#5A4DAA"/>
<path d="M1222.04 386.922H1244.55V398.752H1198.66L1224.08 356.869H1202.87V345.039H1247.32L1222.04 386.922Z" fill="#5A4DAA"/>
</svg>
