<svg width="530" height="400" viewBox="0 0 530 400" fill="none" xmlns="http://www.w3.org/2000/svg">
<ellipse cx="407.5" cy="323" rx="78.5" ry="77" fill="#927463" fill-opacity="0.1"/>
<path d="M68.6301 340.431L54.1644 162.015C53.7983 157.471 55.0538 152.944 57.7054 149.248L129.878 48.7348C131.807 46.0504 134.396 43.9164 137.391 42.5418C140.386 41.1668 143.685 40.5981 146.964 40.8914L394.033 62.8114C397.945 63.1574 401.652 64.7134 404.65 67.2654C407.648 69.8174 409.784 73.2408 410.771 77.0648L444.718 208.525C445.552 211.757 445.529 215.153 444.655 218.375L411.44 340.891L68.6301 340.431Z" fill="#DDD3CD"/>
<path d="M84.5486 349.873L70.0829 171.457C69.7168 166.913 70.9723 162.387 73.6239 158.69L145.797 58.177C147.726 55.4927 150.315 53.3587 153.31 51.984C156.305 50.609 159.604 50.0404 162.883 50.3337L409.952 72.2537C413.864 72.5997 417.57 74.1557 420.568 76.7077C423.566 79.2597 425.703 82.683 426.69 86.507L460.636 217.967C461.471 221.199 461.448 224.595 460.573 227.817L427.359 350.333L84.5486 349.873Z" fill="#EEECEA"/>
<path d="M110.664 156.934H94.6146V349.577H110.664V156.934Z" fill="#DADDDF"/>
<path opacity="0.2" d="M110.664 156.934H94.6146V349.577H110.664V156.934Z" fill="#511E00"/>
<path d="M212.265 156.934H198.922V349.577H212.265V156.934Z" fill="#DADDDF"/>
<path opacity="0.1" d="M212.265 156.934H198.922V349.577H212.265V156.934Z" fill="white"/>
<path d="M169.265 268.807H206.452V248.263H169.265V268.807Z" fill="#DADDDF"/>
<path opacity="0.05" d="M169.265 268.807H206.452V248.263H169.265V268.807Z" fill="black"/>
<path d="M169.326 263.597H173.251L172.903 262.487L173.251 261.693H169.326V263.597Z" fill="#E8E3E0"/>
<path d="M181.691 254.62H185.616L185.268 253.51L185.616 252.717H181.691V254.62Z" fill="#E8E3E0"/>
<path d="M181.691 252.717H177.769L178.113 253.827L177.769 254.62H181.691V252.717Z" fill="#E8E3E0"/>
<path d="M206.452 263.816H202.53L202.874 264.926L202.53 265.723H206.452V263.816Z" fill="#E8E3E0"/>
<path d="M204.832 249.657H197.707V252.447H204.832V249.657Z" fill="white"/>
<path d="M194.831 248.16H190.959V253.227H194.831V248.16Z" fill="#927463"/>
<path d="M176.596 248.16H173.913V251.667H176.596V248.16Z" fill="#927463"/>
<path opacity="0.2" d="M169.312 268.807H181.661V248.263H169.312V268.807Z" fill="black"/>
<path d="M116.583 268.807H169.593V239.477H116.583V268.807Z" fill="#B5A398"/>
<path d="M116.593 261.37H122.195L121.701 259.783L122.195 258.65H116.593V261.37Z" fill="#E8E3E0"/>
<path d="M134.246 248.553H139.847L139.354 246.967L139.847 245.833H134.246V248.553Z" fill="#E8E3E0"/>
<path d="M134.245 245.833H128.644L129.137 247.42L128.644 248.553H134.245V245.833Z" fill="#E8E3E0"/>
<path d="M169.593 261.684H163.992L164.485 263.27L163.992 264.404H169.593V261.684Z" fill="#E8E3E0"/>
<path d="M167.281 241.467H157.108V245.45H167.281V241.467Z" fill="white"/>
<path d="M154.545 239.583H148.347V246.99H154.545V239.583Z" fill="#927463"/>
<path d="M127.04 239.583H122.393V245.82H127.04V239.583Z" fill="#927463"/>
<path opacity="0.2" d="M116.57 268.807H134.401V239.477H116.57V268.807Z" fill="black"/>
<path d="M117.359 325.33H154.545V304.787H117.359V325.33Z" fill="#DADDDF"/>
<path opacity="0.05" d="M117.359 325.33H154.545V304.787H117.359V325.33Z" fill="black"/>
<path d="M117.418 320.12H121.343L120.995 319.007L121.343 318.214H117.418V320.12Z" fill="#E8E3E0"/>
<path d="M129.784 311.144H133.709L133.362 310.03L133.709 309.237H129.784V311.144Z" fill="#E8E3E0"/>
<path d="M129.784 309.237H125.862L126.207 310.347L125.862 311.144H129.784V309.237Z" fill="#E8E3E0"/>
<path d="M154.545 320.34H150.623L150.968 321.45L150.623 322.243H154.545V320.34Z" fill="#E8E3E0"/>
<path d="M152.924 306.176H145.799V308.966H152.924V306.176Z" fill="white"/>
<path d="M142.921 304.684H139.049V309.75H142.921V304.684Z" fill="#927463"/>
<path d="M124.689 304.684H122.006V308.19H124.689V304.684Z" fill="#927463"/>
<path opacity="0.2" d="M117.405 325.33H129.754V304.787H117.405V325.33Z" fill="black"/>
<path d="M157.268 324.94H202.179V300.13H157.268V324.94Z" fill="#DADDDF"/>
<path d="M157.344 318.646H162.081L161.663 317.303L162.081 316.346H157.344V318.646Z" fill="#E8E3E0"/>
<path d="M172.276 307.806H177.013L176.595 306.463L177.013 305.507H172.276V307.806Z" fill="#E8E3E0"/>
<path d="M172.277 305.507H167.536L167.957 306.846L167.536 307.806H172.277V305.507Z" fill="#E8E3E0"/>
<path d="M202.179 318.913H197.442L197.859 320.253L197.442 321.213H202.179V318.913Z" fill="#E8E3E0"/>
<path d="M200.221 301.81H191.615V305.18H200.221V301.81Z" fill="white"/>
<path d="M188.143 300.003H183.466V306.123H188.143V300.003Z" fill="#927463"/>
<path d="M166.122 300.003H162.882V304.24H166.122V300.003Z" fill="#927463"/>
<path opacity="0.2" d="M157.327 324.94H172.24V300.13H157.327V324.94Z" fill="black"/>
<path d="M216.521 156.934H110.663V161.947H216.521V156.934Z" fill="#DADDDF"/>
<path d="M217.217 349.51V156.854H212.235V349.51H217.217Z" fill="#DADDDF"/>
<path d="M114.179 349.507V156.85H109.197V349.507H114.179Z" fill="#DADDDF"/>
<path d="M216.521 268.86H110.663V273.873H216.521V268.86Z" fill="#DADDDF"/>
<path d="M215.746 212.896H109.888V217.91H215.746V212.896Z" fill="#DADDDF"/>
<path d="M216.521 324.82H110.663V329.834H216.521V324.82Z" fill="#DADDDF"/>
<path opacity="0.1" d="M212.236 156.854V156.934H114.186V156.854H109.217V349.52H114.186V329.854H212.236V349.52H217.204V156.854H212.236ZM212.236 161.947V212.897H114.186V161.947H212.236ZM114.186 217.91H212.236V268.86H114.186V217.91ZM114.186 324.82V273.874H212.236V324.82H114.186Z" fill="#C75C1D"/>
<path d="M160.354 212.807H206.57V187.24H160.354V212.807Z" fill="#DADDDF"/>
<path opacity="0.05" d="M160.354 212.807H206.57V187.24H160.354V212.807Z" fill="black"/>
<path d="M160.374 206.323H165.253L164.826 204.94L165.253 203.95H160.374V206.323Z" fill="#E8E3E0"/>
<path d="M175.762 195.153H180.645L180.214 193.77L180.645 192.78H175.762V195.153Z" fill="#E8E3E0"/>
<path d="M175.761 192.78H170.878L171.309 194.163L170.878 195.153H175.761V192.78Z" fill="#E8E3E0"/>
<path d="M206.571 206.596H201.689L202.119 207.98L201.689 208.966H206.571V206.596Z" fill="#E8E3E0"/>
<path d="M204.554 188.973H195.686V192.443H204.554V188.973Z" fill="white"/>
<path d="M169.262 187.35H165.389V191.247H169.262V187.35Z" fill="#927463"/>
<path opacity="0.2" d="M160.355 212.807H175.851V187.24H160.355V212.807Z" fill="black"/>
<path d="M193.474 187.35H188.439V192.417H193.474V187.35Z" fill="#927463"/>
<path d="M120.068 212.94H162.478V189.44H120.068V212.94Z" fill="#B5A398"/>
<path d="M120.012 206.983H124.501L124.103 205.71L124.501 204.803H120.012V206.983Z" fill="#E8E3E0"/>
<path d="M134.156 196.713H138.645L138.247 195.443L138.645 194.536H134.156V196.713Z" fill="#E8E3E0"/>
<path d="M134.156 194.536H129.667L130.062 195.806L129.667 196.713H134.156V194.536Z" fill="#E8E3E0"/>
<path d="M162.478 207.233H157.989L158.387 208.506L157.989 209.413H162.478V207.233Z" fill="#E8E3E0"/>
<path d="M150.302 205.223H137.019V210.423H150.302V205.223Z" fill="white"/>
<path d="M150.668 189.3H145.633V194.367H150.668V189.3Z" fill="#927463"/>
<path d="M128.204 189.3H124.72V194.367H128.204V189.3Z" fill="#927463"/>
<path opacity="0.2" d="M119.995 212.94H134.014V189.44H119.995V212.94Z" fill="black"/>
<path d="M123.166 189.333H155.721V171.367H123.166V189.333Z" fill="#DADDDF"/>
<path opacity="0.05" d="M123.166 189.333H155.721V171.367H123.166V189.333Z" fill="black"/>
<path d="M123.259 184.777H126.691L126.386 183.807L126.691 183.113H123.259V184.777Z" fill="#E8E3E0"/>
<path d="M134.069 176.93H137.501L137.2 175.956L137.501 175.263H134.069V176.93Z" fill="#E8E3E0"/>
<path d="M134.07 175.263H130.638L130.943 176.233L130.638 176.93H134.07V175.263Z" fill="#E8E3E0"/>
<path d="M155.724 184.97H152.292L152.594 185.943L152.292 186.637H155.724V184.97Z" fill="#E8E3E0"/>
<path d="M143.071 185.45H136.84V187.89H143.071V185.45Z" fill="white"/>
<path d="M146.409 171.37H142.924V175.266H146.409V171.37Z" fill="#927463"/>
<path d="M130.139 171.37H126.654V175.266H130.139V171.37Z" fill="#927463"/>
<path opacity="0.2" d="M123.245 189.333H134.014V171.367H123.245V189.333Z" fill="black"/>
<path d="M162.68 187.383H195.182V169.417H162.68V187.383Z" fill="#B5A398"/>
<path d="M162.716 182.83H166.148L165.847 181.857L166.148 181.163H162.716V182.83Z" fill="#E8E3E0"/>
<path d="M173.532 174.98H176.961L176.659 174.006L176.961 173.313H173.532V174.98Z" fill="#E8E3E0"/>
<path d="M173.533 173.313H170.101L170.402 174.286L170.101 174.98H173.533V173.313Z" fill="#E8E3E0"/>
<path d="M195.183 183.023H191.751L192.056 183.993L191.751 184.687H195.183V183.023Z" fill="#E8E3E0"/>
<path d="M193.765 170.637H187.534V173.077H193.765V170.637Z" fill="white"/>
<path d="M185.146 169.42H181.661V172.927H185.146V169.42Z" fill="#927463"/>
<path d="M169.649 169.42H166.165V172.927H169.649V169.42Z" fill="#927463"/>
<path opacity="0.2" d="M162.706 187.383H173.528V169.417H162.706V187.383Z" fill="black"/>
<path d="M439.032 307.52L413.231 319.667C414.245 317.848 414.848 315.829 415.007 313.75C415.162 311.672 414.864 309.584 414.135 307.633C413.407 305.682 412.264 303.914 410.783 302.454C409.306 300.994 407.527 299.877 405.576 299.18L403.814 298.55L446.982 278.857L439.032 307.52Z" fill="#E8E3E0"/>
<path d="M420.475 285.61C419.767 283.761 418.647 282.099 417.203 280.752C415.758 279.404 414.026 278.407 412.141 277.837L395.638 272.95C392.657 272.07 391.001 268.793 391.915 265.643C395.446 253.577 389.04 241.01 377.642 237.643L377.403 238.457C388.381 241.707 394.545 253.79 391.15 265.427C390.097 269.023 392.005 272.76 395.403 273.76L411.903 278.667C413.615 279.183 415.192 280.075 416.524 281.278C417.852 282.482 418.899 283.967 419.591 285.627L420.475 285.61Z" fill="#868A91"/>
<path d="M316.39 138.76H299.874V127.094C299.875 124.82 300.773 122.64 302.371 121.032C303.968 119.425 306.135 118.521 308.394 118.52C310.656 118.52 312.824 119.424 314.423 121.033C316.022 122.642 316.92 124.825 316.92 127.1V138.22C316.92 138.362 316.864 138.498 316.765 138.599C316.666 138.7 316.532 138.758 316.39 138.76Z" fill="#B2B6BB"/>
<path opacity="0.1" d="M316.39 138.76H299.874V127.094C299.875 124.82 300.773 122.64 302.371 121.032C303.968 119.425 306.135 118.521 308.394 118.52C310.656 118.52 312.824 119.424 314.423 121.033C316.022 122.642 316.92 124.825 316.92 127.1V138.22C316.92 138.362 316.864 138.498 316.765 138.599C316.666 138.7 316.532 138.758 316.39 138.76Z" fill="black"/>
<path d="M416.451 287.403C414.871 285.567 412.804 284.225 410.488 283.533L393.972 278.667C390.991 277.783 389.335 274.507 390.249 271.36C393.78 259.293 387.374 246.727 375.972 243.36L375.737 244.173C386.715 247.423 392.879 259.507 389.484 271.143C388.43 274.74 390.338 278.477 393.734 279.477L410.237 284.333C412.204 284.916 413.986 286.002 415.411 287.487L416.451 287.403Z" fill="#868A91"/>
<path d="M334.725 139.18C329.755 139.18 324.518 138.387 321.62 136.704C317.009 134.037 311.156 135.16 311.099 135.174L310.957 134.46C311.205 134.41 317.128 133.257 321.981 136.074C326.764 138.85 338.647 139.097 344.026 137.254C349.326 135.44 356.362 133.487 359.287 133.487V134.21C356.442 134.21 349.502 136.144 344.258 137.94C341.88 138.757 338.369 139.18 334.725 139.18Z" fill="#868A91"/>
<path d="M307.413 189.9H305.134V204.856H307.413V189.9Z" fill="#3F4249"/>
<path d="M311.925 189.9H309.646V204.856H311.925V189.9Z" fill="#3F4249"/>
<path d="M321.945 138.76H299.781C297.665 138.76 295.949 140.486 295.949 142.616V189.366C295.949 191.496 297.665 193.223 299.781 193.223H321.945C324.062 193.223 325.778 191.496 325.778 189.366V142.616C325.778 140.486 324.062 138.76 321.945 138.76Z" fill="#927463"/>
<path d="M377.383 118.52H365.567C362.543 118.52 360.095 120.986 360.095 124.027V278.63C360.095 281.671 362.543 284.137 365.567 284.137H377.383C380.404 284.137 382.855 281.671 382.855 278.63V124.027C382.855 120.986 380.404 118.52 377.383 118.52Z" fill="#B2B6BB"/>
<path opacity="0.1" d="M377.383 118.52H365.567C362.543 118.52 360.095 120.986 360.095 124.027V278.63C360.095 281.671 362.543 284.137 365.567 284.137H377.383C380.404 284.137 382.855 281.671 382.855 278.63V124.027C382.855 120.986 380.404 118.52 377.383 118.52Z" fill="black"/>
<path d="M382.69 141.854H361.423C359.737 141.854 358.373 143.228 358.373 144.924V249.257C358.373 250.952 359.737 252.327 361.423 252.327H382.69C384.376 252.327 385.741 250.952 385.741 249.257V144.924C385.741 143.228 384.376 141.854 382.69 141.854Z" fill="#927463"/>
<path d="M361.424 273.913H384.28C384.681 273.913 385.078 273.993 385.449 274.147C385.817 274.301 386.155 274.528 386.436 274.813C386.721 275.098 386.946 275.436 387.099 275.809C387.251 276.181 387.331 276.58 387.331 276.983V349.52H358.369V277C358.366 276.595 358.446 276.194 358.598 275.819C358.75 275.445 358.976 275.104 359.257 274.817C359.542 274.53 359.88 274.303 360.251 274.148C360.622 273.993 361.023 273.913 361.424 273.913Z" fill="#927463"/>
<path opacity="0.2" d="M321.945 138.76H299.781C297.665 138.76 295.949 140.486 295.949 142.616V189.366C295.949 191.496 297.665 193.223 299.781 193.223H321.945C324.062 193.223 325.778 191.496 325.778 189.366V142.616C325.778 140.486 324.062 138.76 321.945 138.76Z" fill="black"/>
<path opacity="0.2" d="M382.69 141.854H361.423C359.737 141.854 358.373 143.228 358.373 144.924V249.257C358.373 250.952 359.737 252.327 361.423 252.327H382.69C384.376 252.327 385.741 250.952 385.741 249.257V144.924C385.741 143.228 384.376 141.854 382.69 141.854Z" fill="black"/>
<path opacity="0.2" d="M361.424 273.913H384.28C384.681 273.913 385.078 273.993 385.449 274.147C385.817 274.301 386.155 274.528 386.436 274.813C386.721 275.098 386.946 275.436 387.099 275.809C387.251 276.181 387.331 276.58 387.331 276.983V349.52H358.369V277C358.366 276.595 358.446 276.194 358.598 275.819C358.75 275.445 358.976 275.104 359.257 274.817C359.542 274.53 359.88 274.303 360.251 274.148C360.622 273.993 361.023 273.913 361.424 273.913Z" fill="black"/>
<path d="M334.725 137.57C329.755 137.57 324.518 136.776 321.62 135.093C317.009 132.426 311.156 133.55 311.099 133.56L310.957 132.85C311.205 132.8 317.128 131.646 321.981 134.463C326.764 137.24 338.647 137.486 344.026 135.643C349.326 133.83 356.362 131.873 359.287 131.873V132.6C356.442 132.6 349.502 134.533 344.258 136.33C341.88 137.146 338.369 137.57 334.725 137.57Z" fill="#868A91"/>
<path d="M384.369 225H383.422V224.273H384.369C386.476 224.273 388.5 223.431 389.99 221.93C391.481 220.43 392.319 218.395 392.319 216.273V133.5C392.319 131.378 391.481 129.344 389.99 127.843C388.5 126.343 386.476 125.5 384.369 125.5H377.353V124.773H384.369C386.668 124.776 388.871 125.696 390.497 127.331C392.12 128.967 393.035 131.184 393.038 133.497V216.28C393.035 218.592 392.12 220.809 390.494 222.443C388.871 224.078 386.668 224.997 384.369 225Z" fill="#3F4249"/>
<path d="M383.422 218V217.267C384.886 217.266 386.294 216.68 387.331 215.637C388.367 214.595 388.95 213.181 388.95 211.707V134.757C388.95 133.326 388.384 131.955 387.377 130.944C386.373 129.933 385.009 129.364 383.588 129.363H378.026V128.637H383.588C385.201 128.639 386.744 129.285 387.884 130.432C389.027 131.579 389.666 133.134 389.669 134.757V211.707C389.669 213.374 389.01 214.974 387.841 216.153C386.668 217.333 385.078 217.997 383.422 218Z" fill="#3F4249"/>
<path d="M317.97 138.76H295.806C293.69 138.76 291.974 140.486 291.974 142.616V189.366C291.974 191.496 293.69 193.223 295.806 193.223H317.97C320.087 193.223 321.803 191.496 321.803 189.366V142.616C321.803 140.486 320.087 138.76 317.97 138.76Z" fill="#927463"/>
<path d="M300.149 149.123C301.583 149.123 302.746 147.953 302.746 146.51C302.746 145.067 301.583 143.896 300.149 143.896C298.715 143.896 297.552 145.067 297.552 146.51C297.552 147.953 298.715 149.123 300.149 149.123Z" fill="#DADDDF"/>
<path d="M297.556 183.753C297.555 183.236 297.707 182.731 297.992 182.3C298.277 181.87 298.682 181.534 299.157 181.336C299.632 181.138 300.155 181.086 300.658 181.187C301.163 181.288 301.626 181.536 301.989 181.902C302.352 182.268 302.6 182.734 302.7 183.241C302.8 183.748 302.748 184.274 302.551 184.752C302.354 185.229 302.021 185.637 301.594 185.924C301.166 186.211 300.663 186.364 300.149 186.363C299.462 186.363 298.802 186.088 298.315 185.599C297.829 185.109 297.556 184.446 297.556 183.753Z" fill="#DADDDF"/>
<path d="M311.044 146.51C311.043 145.993 311.195 145.487 311.48 145.057C311.765 144.627 312.17 144.291 312.645 144.093C313.119 143.895 313.641 143.843 314.145 143.943C314.649 144.043 315.112 144.292 315.476 144.657C315.84 145.023 316.087 145.488 316.188 145.995C316.288 146.503 316.237 147.028 316.04 147.506C315.844 147.984 315.511 148.392 315.084 148.679C314.657 148.967 314.155 149.12 313.641 149.12C312.952 149.12 312.293 148.845 311.806 148.356C311.319 147.866 311.045 147.202 311.044 146.51Z" fill="#DADDDF"/>
<path d="M311.044 183.753C311.043 183.236 311.195 182.731 311.48 182.301C311.765 181.87 312.17 181.535 312.645 181.337C313.119 181.138 313.641 181.086 314.145 181.187C314.649 181.287 315.112 181.536 315.476 181.901C315.84 182.266 316.087 182.732 316.188 183.239C316.288 183.746 316.237 184.272 316.04 184.749C315.844 185.227 315.511 185.635 315.084 185.923C314.657 186.21 314.155 186.363 313.641 186.363C312.952 186.363 312.293 186.089 311.806 185.599C311.319 185.11 311.045 184.446 311.044 183.753Z" fill="#DADDDF"/>
<path d="M319.292 207.427C319.293 207.963 319.18 208.494 318.961 208.983H298.562C298.343 208.494 298.23 207.964 298.231 207.427C298.231 204.03 302.948 201.273 308.765 201.273C314.581 201.273 319.292 204.03 319.292 207.427Z" fill="#927463"/>
<path d="M331.78 214.153V239.773C331.793 240.757 331.588 241.731 331.175 242.622C330.762 243.514 330.153 244.299 329.395 244.92L322.495 250.307C322.38 250.398 322.246 250.463 322.103 250.497C321.96 250.532 321.812 250.534 321.668 250.505C321.524 250.476 321.388 250.416 321.269 250.329C321.151 250.241 321.052 250.129 320.981 250C320.817 249.728 320.754 249.406 320.805 249.091C320.856 248.777 321.017 248.492 321.259 248.287L328.159 242.897C328.619 242.521 328.987 242.045 329.237 241.505C329.487 240.965 329.613 240.375 329.604 239.78V214.153C329.604 211.383 327.616 209.137 325.172 209.137H292.341C289.893 209.137 287.909 211.383 287.909 214.153V239.627C287.897 240.249 288.033 240.865 288.306 241.424C288.579 241.982 288.982 242.467 289.479 242.837L297.191 248.297C297.44 248.491 297.612 248.769 297.676 249.08C297.74 249.391 297.691 249.715 297.539 249.993C297.474 250.126 297.381 250.244 297.267 250.337C297.153 250.431 297.02 250.499 296.878 250.536C296.735 250.573 296.586 250.578 296.441 250.552C296.296 250.526 296.159 250.468 296.038 250.383L288.327 244.93C287.504 244.319 286.84 243.519 286.388 242.596C285.937 241.673 285.712 240.655 285.733 239.627V214.153C285.733 210.02 288.691 206.67 292.341 206.67H325.172C328.822 206.667 331.78 210.02 331.78 214.153Z" fill="#927463"/>
<g opacity="0.2">
<path opacity="0.2" d="M331.78 214.153V239.773C331.793 240.757 331.588 241.731 331.175 242.622C330.762 243.514 330.153 244.299 329.395 244.92L322.495 250.307C322.38 250.398 322.246 250.463 322.103 250.497C321.96 250.532 321.812 250.534 321.668 250.505C321.524 250.476 321.388 250.416 321.269 250.329C321.151 250.241 321.052 250.129 320.981 250C320.817 249.728 320.754 249.406 320.805 249.091C320.856 248.777 321.017 248.492 321.259 248.287L328.159 242.897C328.619 242.521 328.987 242.045 329.237 241.505C329.487 240.965 329.613 240.375 329.604 239.78V214.153C329.604 211.383 327.616 209.137 325.172 209.137H292.341C289.893 209.137 287.909 211.383 287.909 214.153V239.627C287.897 240.249 288.033 240.865 288.306 241.424C288.579 241.982 288.982 242.467 289.479 242.837L297.191 248.297C297.44 248.491 297.612 248.769 297.676 249.08C297.74 249.391 297.691 249.715 297.539 249.993C297.474 250.126 297.381 250.244 297.267 250.337C297.153 250.431 297.02 250.499 296.878 250.536C296.735 250.573 296.586 250.578 296.441 250.552C296.296 250.526 296.159 250.468 296.038 250.383L288.327 244.93C287.504 244.319 286.84 243.519 286.388 242.596C285.937 241.673 285.712 240.655 285.733 239.627V214.153C285.733 210.02 288.691 206.67 292.341 206.67H325.172C328.822 206.667 331.78 210.02 331.78 214.153Z" fill="black"/>
</g>
<path d="M361.47 123.1H306.082V124.777H361.47V123.1Z" fill="#3F4249"/>
<path d="M361.47 127.8H306.082V129.477H361.47V127.8Z" fill="#3F4249"/>
<path d="M314.072 138.76H297.556V127.094C297.557 124.82 298.455 122.64 300.052 121.032C301.65 119.425 303.816 118.521 306.075 118.52C308.337 118.52 310.505 119.424 312.104 121.033C313.703 122.642 314.602 124.825 314.602 127.1V138.22C314.601 138.362 314.545 138.498 314.446 138.599C314.347 138.7 314.213 138.758 314.072 138.76Z" fill="#B5A398"/>
<path d="M374.402 118.52H362.586C359.562 118.52 357.114 120.986 357.114 124.027V278.63C357.114 281.671 359.562 284.137 362.586 284.137H374.402C377.423 284.137 379.874 281.671 379.874 278.63V124.027C379.874 120.986 377.423 118.52 374.402 118.52Z" fill="#74645B"/>
<path d="M368.221 129.92C370.013 129.92 371.464 128.459 371.464 126.657C371.464 124.854 370.013 123.393 368.221 123.393C366.429 123.393 364.978 124.854 364.978 126.657C364.978 128.459 366.429 129.92 368.221 129.92Z" fill="#DADDDF"/>
<path d="M378.715 141.854H357.449C355.762 141.854 354.398 143.228 354.398 144.924V249.257C354.398 250.952 355.762 252.327 357.449 252.327H378.715C380.401 252.327 381.766 250.952 381.766 249.257V144.924C381.766 143.228 380.401 141.854 378.715 141.854Z" fill="#927463"/>
<path d="M357.449 273.913H380.305C380.706 273.913 381.103 273.993 381.474 274.147C381.842 274.301 382.18 274.528 382.461 274.813C382.746 275.098 382.971 275.436 383.124 275.809C383.276 276.181 383.356 276.58 383.356 276.983V349.52H354.394V277C354.391 276.595 354.471 276.194 354.623 275.819C354.775 275.445 355.001 275.104 355.282 274.817C355.567 274.53 355.905 274.303 356.276 274.148C356.647 273.993 357.048 273.913 357.449 273.913Z" fill="#927463"/>
<path opacity="0.2" d="M317.97 138.76H295.806C293.69 138.76 291.974 140.486 291.974 142.616V189.366C291.974 191.496 293.69 193.223 295.806 193.223H317.97C320.087 193.223 321.803 191.496 321.803 189.366V142.616C321.803 140.486 320.087 138.76 317.97 138.76Z" fill="white"/>
<path opacity="0.2" d="M378.715 141.854H357.449C355.762 141.854 354.398 143.228 354.398 144.924V249.257C354.398 250.952 355.762 252.327 357.449 252.327H378.715C380.401 252.327 381.766 250.952 381.766 249.257V144.924C381.766 143.228 380.401 141.854 378.715 141.854Z" fill="white"/>
<path opacity="0.2" d="M357.449 273.913H380.305C380.706 273.913 381.103 273.993 381.474 274.147C381.842 274.301 382.18 274.528 382.461 274.813C382.746 275.098 382.971 275.436 383.124 275.809C383.276 276.181 383.356 276.58 383.356 276.983V349.52H354.394V277C354.391 276.595 354.471 276.194 354.623 275.819C354.775 275.445 355.001 275.104 355.282 274.817C355.567 274.53 355.905 274.303 356.276 274.148C356.647 273.993 357.048 273.913 357.449 273.913Z" fill="white"/>
<path d="M310.329 126.372C310.385 123.57 308.173 121.253 305.388 121.197C302.604 121.141 300.301 123.367 300.246 126.169C300.19 128.971 302.402 131.288 305.187 131.344C307.971 131.4 310.273 129.174 310.329 126.372Z" fill="#DADDDF"/>
<path d="M306.075 131.927C305.046 131.928 304.04 131.621 303.184 131.046C302.328 130.472 301.661 129.654 301.267 128.698C300.873 127.741 300.77 126.689 300.97 125.673C301.171 124.658 301.666 123.725 302.394 122.993C303.122 122.261 304.048 121.763 305.058 121.561C306.067 121.359 307.113 121.463 308.063 121.859C309.014 122.256 309.826 122.927 310.397 123.788C310.968 124.649 311.273 125.662 311.272 126.697C311.27 128.083 310.722 129.413 309.748 130.393C308.773 131.374 307.453 131.925 306.075 131.927Z" fill="#DADDDF"/>
<path d="M309.065 127.398C309.455 125.733 308.431 124.065 306.777 123.673C305.123 123.28 303.465 124.311 303.075 125.975C302.684 127.64 303.709 129.307 305.363 129.7C307.017 130.093 308.674 129.062 309.065 127.398Z" fill="#B2B6BB"/>
<path d="M329.762 218.047L288.175 217.806L288.043 240.836L329.631 241.077L329.762 218.047Z" fill="#B2B6BB"/>
<path d="M315.886 222.977L320.282 223.003L319.887 224.247L320.272 225.137L315.873 225.113L315.886 222.977Z" fill="#E8E3E0"/>
<path d="M324.868 218.116L320.993 218.093L320.96 223.863L324.835 223.885L324.868 218.116Z" fill="#927463"/>
<path opacity="0.2" d="M329.802 218.051L316.032 217.971L315.9 241L329.67 241.08L329.802 218.051Z" fill="black"/>
<path d="M315.874 225.113L311.475 225.087L311.869 223.843L311.488 222.95L315.887 222.977L315.874 225.113Z" fill="#E8E3E0"/>
<path d="M288.058 235.26L292.457 235.283L292.062 236.526L292.443 237.42L288.048 237.393L288.058 235.26Z" fill="#E8E3E0"/>
<path d="M305.858 237.438L313.844 237.484L313.862 234.358L305.876 234.311L305.858 237.438Z" fill="white"/>
<path d="M304.855 218.02L299.453 217.988L299.419 223.958L304.821 223.989L304.855 218.02Z" fill="#927463"/>
<path d="M284.297 266.396L229.788 266.08L229.615 296.263L284.125 296.579L284.297 266.396Z" fill="#B5A398"/>
<path d="M266.113 272.85L271.876 272.884L271.36 274.514L271.86 275.684L266.096 275.65L266.113 272.85Z" fill="#E8E3E0"/>
<path d="M277.889 266.489L272.808 266.46L272.764 274.02L277.845 274.049L277.889 266.489Z" fill="#927463"/>
<path opacity="0.2" d="M284.353 266.4L266.303 266.295L266.13 296.478L284.18 296.582L284.353 266.4Z" fill="black"/>
<path d="M266.096 275.65L260.333 275.616L260.849 273.986L260.349 272.816L266.113 272.85L266.096 275.65Z" fill="white"/>
<path d="M229.643 288.947L235.406 288.983L234.89 290.61L235.39 291.78L229.626 291.747L229.643 288.947Z" fill="white"/>
<path d="M252.971 291.801L263.438 291.862L263.462 287.765L252.994 287.705L252.971 291.801Z" fill="white"/>
<path d="M251.656 266.364L244.574 266.323L244.529 274.149L251.611 274.19L251.656 266.364Z" fill="#927463"/>
<path d="M428.346 261.212L395.516 276.096L403.655 294.275L436.485 279.391L428.346 261.212Z" fill="#B5A398"/>
<path d="M420.028 270.963L423.51 269.393L423.642 270.517L424.262 271.083L420.784 272.653L420.028 270.963Z" fill="#DADDDF"/>
<path d="M425.375 263.906L422.307 265.291L424.345 269.856L427.412 268.47L425.375 263.906Z" fill="#927463"/>
<path opacity="0.2" d="M429.244 262.073L418.346 266.994L426.474 285.22L437.373 280.298L429.244 262.073Z" fill="black"/>
<path d="M420.784 272.654L417.302 274.227L417.17 273.1L416.547 272.537L420.028 270.964L420.784 272.654Z" fill="white"/>
<path d="M402.455 290.734L405.937 289.16L406.069 290.283L406.689 290.85L403.211 292.424L402.455 290.734Z" fill="white"/>
<path d="M417.292 285.972L423.612 283.118L422.509 280.642L416.189 283.496L417.292 285.972Z" fill="white"/>
<path d="M409.548 271.079L405.271 273.01L407.378 277.736L411.654 275.804L409.548 271.079Z" fill="#927463"/>
<path d="M430.41 307.313L429.234 306.763C429.187 306.74 429.148 306.705 429.118 306.661C429.091 306.617 429.075 306.566 429.071 306.513C429.071 306.373 429.071 306.233 429.045 306.093C429.018 305.839 428.969 305.587 428.903 305.34C428.889 305.284 428.889 305.225 428.909 305.171C428.926 305.116 428.959 305.068 429.005 305.033L430.082 304.21C430.138 304.167 430.178 304.104 430.188 304.035C430.201 303.965 430.188 303.893 430.148 303.833L429.486 302.783C429.449 302.725 429.393 302.683 429.33 302.665C429.264 302.646 429.194 302.653 429.134 302.683L428.015 303.236C427.962 303.264 427.899 303.273 427.839 303.263C427.78 303.252 427.727 303.221 427.683 303.176C427.319 302.792 426.892 302.469 426.425 302.22C426.368 302.19 426.325 302.143 426.299 302.086C426.276 302.029 426.269 301.964 426.282 301.903L426.464 301.16C426.481 301.092 426.471 301.021 426.438 300.96C426.405 300.898 426.352 300.851 426.286 300.826L425.13 300.406C425.106 300.398 425.083 300.392 425.06 300.39C425.004 300.385 424.947 300.397 424.898 300.426C424.848 300.455 424.808 300.498 424.782 300.55L424.374 301.436L424.275 301.65C424.043 301.642 423.808 301.651 423.576 301.676C423.268 301.709 422.96 301.771 422.662 301.863C422.609 301.88 422.549 301.88 422.496 301.862C422.44 301.844 422.393 301.809 422.36 301.763L421.698 300.893C421.655 300.835 421.592 300.796 421.522 300.783C421.449 300.77 421.377 300.784 421.317 300.823L420.519 301.333L420.29 301.48C420.23 301.518 420.187 301.577 420.167 301.646C420.148 301.715 420.154 301.789 420.184 301.853L420.641 302.793C420.671 302.846 420.684 302.908 420.674 302.968C420.664 303.029 420.634 303.084 420.591 303.126C420.343 303.381 420.121 303.662 419.929 303.963C419.909 303.99 419.896 304.013 419.879 304.04V304.063C419.846 304.109 419.8 304.143 419.747 304.161C419.694 304.18 419.634 304.182 419.581 304.166L418.389 303.873H418.346C418.283 303.867 418.22 303.882 418.17 303.916C418.117 303.95 418.074 304 418.054 304.06L417.633 305.216C417.61 305.284 417.61 305.359 417.64 305.425C417.667 305.492 417.72 305.546 417.782 305.576L419.008 306.146C419.058 306.171 419.101 306.209 419.127 306.257C419.157 306.305 419.17 306.361 419.167 306.416C419.157 306.674 419.164 306.933 419.194 307.19C419.194 307.326 419.23 307.466 419.257 307.6C419.266 307.653 419.26 307.709 419.24 307.759C419.22 307.81 419.187 307.854 419.144 307.886L418.104 308.666C418.051 308.709 418.011 308.77 418.001 308.839C417.988 308.907 418.001 308.977 418.038 309.036L418.7 310.076C418.74 310.138 418.796 310.183 418.866 310.203C418.935 310.223 419.011 310.216 419.074 310.183L419.959 309.746C420.015 309.721 420.078 309.715 420.138 309.728C420.197 309.741 420.25 309.773 420.29 309.82C420.621 310.219 421.009 310.565 421.443 310.846C421.492 310.879 421.532 310.926 421.555 310.981C421.579 311.037 421.582 311.098 421.569 311.156L421.304 312.24C421.29 312.308 421.3 312.379 421.333 312.44C421.367 312.501 421.423 312.548 421.486 312.573L422.632 312.993C422.698 313.018 422.771 313.017 422.837 312.989C422.9 312.962 422.953 312.911 422.983 312.846L423.01 312.796L423.48 311.77C423.506 311.716 423.546 311.671 423.596 311.641C423.649 311.612 423.705 311.598 423.765 311.603C424.06 311.623 424.354 311.616 424.646 311.583C424.802 311.568 424.957 311.544 425.113 311.513C425.166 311.501 425.219 311.505 425.269 311.523C425.318 311.542 425.361 311.574 425.395 311.616L426.057 312.503C426.103 312.561 426.166 312.6 426.239 312.613C426.309 312.626 426.382 312.612 426.445 312.573L427.475 311.906C427.501 311.888 427.528 311.865 427.548 311.84C427.581 311.797 427.597 311.747 427.604 311.694C427.607 311.641 427.601 311.588 427.578 311.54L427.21 310.786C427.19 310.741 427.18 310.692 427.183 310.642C427.187 310.592 427.203 310.544 427.23 310.503C427.243 310.479 427.263 310.459 427.283 310.443C427.79 310.014 428.207 309.488 428.512 308.896C428.538 308.848 428.575 308.807 428.624 308.781C428.671 308.754 428.727 308.742 428.78 308.746H428.826L429.794 308.986C429.86 309.002 429.933 308.992 429.992 308.959C430.055 308.926 430.102 308.872 430.125 308.806V308.78L430.532 307.65C430.555 307.588 430.552 307.521 430.532 307.459C430.509 307.398 430.466 307.346 430.41 307.313ZM426.604 307.686C426.441 308.071 426.196 308.413 425.882 308.686C425.815 308.743 425.746 308.796 425.673 308.843C425.378 309.032 425.05 309.169 424.709 309.25C424.278 309.347 423.828 309.336 423.404 309.217C422.976 309.098 422.586 308.875 422.268 308.567C421.946 308.26 421.708 307.877 421.572 307.455C421.433 307.032 421.403 306.581 421.479 306.143C421.516 305.938 421.569 305.736 421.638 305.54C421.827 305.091 422.135 304.704 422.529 304.423L422.642 304.353C423.129 304.04 423.699 303.891 424.275 303.928C424.848 303.964 425.398 304.184 425.838 304.556C426.282 304.928 426.594 305.432 426.729 305.995C426.869 306.558 426.826 307.151 426.604 307.686Z" fill="#B5A398"/>
<path d="M436.73 295.667L435.554 295.117C435.508 295.094 435.468 295.058 435.438 295.014C435.408 294.97 435.392 294.919 435.392 294.867C435.392 294.727 435.392 294.587 435.365 294.447C435.335 294.192 435.289 293.94 435.223 293.693C435.206 293.638 435.209 293.579 435.226 293.524C435.246 293.47 435.279 293.422 435.325 293.387L436.402 292.563C436.458 292.521 436.495 292.458 436.508 292.388C436.521 292.318 436.505 292.246 436.468 292.187L435.806 291.137C435.769 291.079 435.713 291.037 435.65 291.018C435.584 291 435.514 291.006 435.455 291.037L434.335 291.59C434.279 291.618 434.219 291.627 434.159 291.616C434.1 291.605 434.043 291.575 434.004 291.53C433.636 291.146 433.212 290.823 432.745 290.573C432.689 290.544 432.646 290.497 432.619 290.439C432.593 290.382 432.586 290.318 432.603 290.257L432.785 289.513C432.798 289.445 432.788 289.374 432.755 289.313C432.725 289.252 432.669 289.205 432.606 289.18L431.45 288.76C431.427 288.751 431.403 288.746 431.38 288.743C431.324 288.738 431.264 288.751 431.215 288.78C431.165 288.808 431.125 288.851 431.102 288.903L430.695 289.79L430.595 290.003C430.36 289.996 430.128 290.005 429.896 290.03C429.585 290.062 429.28 290.125 428.982 290.217C428.929 290.234 428.869 290.234 428.816 290.216C428.76 290.199 428.714 290.165 428.681 290.12L428.018 289.247C427.975 289.189 427.912 289.149 427.839 289.136C427.77 289.123 427.697 289.138 427.637 289.177L426.839 289.687L426.61 289.833C426.551 289.871 426.504 289.93 426.484 289.999C426.464 290.068 426.471 290.142 426.504 290.207L426.961 291.147C426.991 291.2 427.004 291.261 426.994 291.322C426.985 291.383 426.955 291.438 426.912 291.48C426.663 291.735 426.441 292.015 426.249 292.317C426.229 292.343 426.216 292.367 426.199 292.393L426.183 292.417C426.15 292.462 426.103 292.496 426.05 292.515C425.997 292.533 425.938 292.535 425.885 292.52L424.692 292.227H424.649C424.586 292.221 424.523 292.236 424.47 292.27C424.417 292.303 424.378 292.354 424.358 292.413L423.937 293.57C423.914 293.638 423.914 293.712 423.94 293.779C423.97 293.845 424.02 293.899 424.086 293.93L425.312 294.5C425.361 294.524 425.404 294.563 425.431 294.611C425.461 294.659 425.474 294.714 425.471 294.77C425.461 295.028 425.467 295.287 425.497 295.543C425.497 295.68 425.534 295.82 425.56 295.953C425.57 296.007 425.563 296.062 425.544 296.113C425.524 296.164 425.491 296.208 425.448 296.24L424.414 297.033C424.358 297.076 424.321 297.138 424.308 297.207C424.298 297.276 424.311 297.347 424.348 297.407L425.01 298.443C425.047 298.505 425.106 298.55 425.176 298.57C425.245 298.589 425.318 298.582 425.385 298.55L426.269 298.113C426.325 298.089 426.385 298.083 426.445 298.096C426.504 298.109 426.561 298.141 426.6 298.187C426.928 298.586 427.319 298.932 427.753 299.213C427.803 299.245 427.842 299.293 427.866 299.348C427.886 299.404 427.892 299.465 427.879 299.523L427.614 300.607C427.601 300.675 427.611 300.746 427.644 300.807C427.677 300.868 427.73 300.915 427.796 300.94L428.969 301.333C429.035 301.358 429.108 301.357 429.174 301.33C429.237 301.302 429.29 301.251 429.32 301.187L429.346 301.137L429.817 300.11C429.84 300.056 429.883 300.011 429.933 299.982C429.982 299.952 430.042 299.938 430.102 299.943C430.393 299.963 430.688 299.957 430.983 299.927C431.138 299.927 431.294 299.883 431.45 299.853C431.499 299.842 431.556 299.845 431.605 299.864C431.655 299.882 431.698 299.914 431.731 299.957L432.394 300.843C432.437 300.901 432.503 300.94 432.573 300.953C432.646 300.966 432.718 300.952 432.781 300.913L433.812 300.247C433.838 300.229 433.865 300.206 433.884 300.18C433.914 300.137 433.934 300.087 433.941 300.034C433.944 299.981 433.937 299.928 433.914 299.88L433.547 299.127C433.523 299.082 433.517 299.032 433.52 298.982C433.523 298.933 433.54 298.885 433.566 298.843C433.58 298.82 433.596 298.799 433.619 298.783C434.126 298.354 434.544 297.829 434.848 297.237C434.872 297.188 434.911 297.148 434.961 297.121C435.007 297.094 435.06 297.082 435.117 297.087H435.163L436.13 297.327C436.197 297.342 436.269 297.333 436.329 297.299C436.389 297.266 436.438 297.212 436.462 297.147V297.12L436.869 295.99C436.886 295.928 436.879 295.863 436.856 295.804C436.829 295.745 436.786 295.697 436.73 295.667ZM432.924 296.04C432.762 296.424 432.513 296.766 432.202 297.04C432.135 297.098 432.063 297.15 431.99 297.197C431.695 297.387 431.37 297.525 431.029 297.603C430.598 297.701 430.148 297.689 429.724 297.57C429.297 297.451 428.906 297.228 428.588 296.921C428.266 296.613 428.028 296.231 427.889 295.808C427.753 295.385 427.72 294.935 427.799 294.497C427.833 294.291 427.889 294.089 427.958 293.893C428.144 293.445 428.455 293.058 428.849 292.777L428.962 292.707C429.446 292.396 430.015 292.249 430.589 292.286C431.162 292.323 431.705 292.542 432.145 292.911C432.589 293.281 432.901 293.781 433.04 294.341C433.179 294.901 433.139 295.492 432.924 296.027V296.04Z" fill="#55443A"/>
<path d="M400.11 299.854H188.441C181.764 299.854 176.351 305.301 176.351 312.02C176.351 318.74 181.764 324.187 188.441 324.187H400.11C406.788 324.187 412.201 318.74 412.201 312.02C412.201 305.301 406.788 299.854 400.11 299.854Z" fill="#E8E3E0"/>
<path d="M260.879 310.527L259.246 309.764C259.182 309.733 259.128 309.686 259.088 309.628C259.049 309.569 259.025 309.501 259.021 309.43C259.021 309.24 259.001 309.044 258.981 308.85C258.944 308.496 258.878 308.145 258.786 307.8C258.764 307.723 258.767 307.642 258.792 307.566C258.817 307.491 258.865 307.425 258.928 307.377L260.425 306.23C260.503 306.171 260.555 306.085 260.572 305.988C260.59 305.892 260.57 305.793 260.518 305.71L259.597 304.247C259.547 304.167 259.469 304.109 259.378 304.083C259.288 304.058 259.192 304.066 259.107 304.107L257.553 304.877C257.479 304.914 257.394 304.926 257.313 304.911C257.231 304.896 257.156 304.855 257.1 304.794C256.591 304.257 255.999 303.807 255.347 303.46C255.27 303.418 255.21 303.351 255.175 303.27C255.139 303.189 255.131 303.099 255.152 303.014L255.404 301.987C255.426 301.892 255.413 301.791 255.367 301.705C255.322 301.618 255.246 301.552 255.155 301.517L253.552 300.934C253.52 300.919 253.485 300.911 253.449 300.91C253.37 300.902 253.29 300.919 253.221 300.959C253.152 300.999 253.097 301.06 253.065 301.134L252.499 302.36L252.359 302.66C251.601 302.636 250.843 302.736 250.117 302.957C250.041 302.981 249.96 302.981 249.885 302.956C249.809 302.932 249.743 302.884 249.696 302.82L248.769 301.597C248.708 301.517 248.62 301.462 248.522 301.445C248.424 301.428 248.322 301.449 248.239 301.504L247.129 302.21L246.798 302.414C246.713 302.466 246.651 302.549 246.624 302.645C246.597 302.741 246.607 302.844 246.652 302.934L247.288 304.244C247.325 304.316 247.338 304.399 247.325 304.479C247.312 304.559 247.273 304.634 247.215 304.69C246.87 305.045 246.563 305.435 246.298 305.854C246.271 305.887 246.251 305.924 246.228 305.957C246.222 305.97 246.214 305.983 246.205 305.994C246.158 306.056 246.095 306.103 246.021 306.129C245.948 306.154 245.869 306.157 245.794 306.137L244.138 305.727H244.082C243.994 305.719 243.908 305.741 243.834 305.788C243.761 305.835 243.704 305.905 243.674 305.987L243.091 307.597C243.059 307.692 243.062 307.795 243.1 307.887C243.139 307.979 243.21 308.054 243.3 308.097L245.002 308.89C245.073 308.923 245.133 308.976 245.173 309.044C245.213 309.111 245.232 309.189 245.228 309.267C245.211 309.624 245.222 309.982 245.261 310.337C245.281 310.534 245.31 310.72 245.347 310.907C245.36 310.981 245.353 311.058 245.326 311.128C245.299 311.199 245.254 311.261 245.195 311.307L243.754 312.414C243.677 312.472 243.625 312.557 243.609 312.653C243.592 312.748 243.612 312.846 243.664 312.927L244.575 314.374C244.628 314.458 244.711 314.52 244.807 314.547C244.903 314.574 245.006 314.565 245.095 314.52L246.324 313.914C246.404 313.874 246.495 313.862 246.582 313.881C246.669 313.9 246.748 313.948 246.804 314.017C247.262 314.571 247.802 315.051 248.404 315.44C248.475 315.484 248.531 315.55 248.562 315.628C248.594 315.706 248.6 315.792 248.58 315.874L248.212 317.38C248.189 317.478 248.202 317.581 248.249 317.669C248.296 317.757 248.374 317.826 248.467 317.86L250.061 318.447C250.153 318.479 250.254 318.476 250.345 318.438C250.436 318.4 250.509 318.33 250.551 318.24L250.581 318.17L251.243 316.744C251.277 316.669 251.334 316.607 251.404 316.566C251.475 316.525 251.556 316.507 251.637 316.514C252.045 316.541 252.454 316.532 252.86 316.487C253.082 316.464 253.297 316.427 253.522 316.384C253.594 316.369 253.669 316.375 253.738 316.401C253.807 316.427 253.868 316.471 253.913 316.53L254.844 317.764C254.906 317.844 254.995 317.899 255.095 317.917C255.195 317.935 255.298 317.915 255.384 317.86L256.815 316.947C256.853 316.922 256.887 316.89 256.914 316.854C256.959 316.795 256.986 316.725 256.994 316.651C257.002 316.578 256.989 316.504 256.957 316.437L256.447 315.39C256.417 315.328 256.403 315.259 256.408 315.19C256.412 315.121 256.435 315.054 256.474 314.997C256.494 314.966 256.519 314.938 256.546 314.914C257.251 314.318 257.832 313.589 258.256 312.767C258.29 312.698 258.343 312.642 258.409 312.604C258.475 312.566 258.551 312.548 258.627 312.554H258.696L260.021 312.887C260.116 312.91 260.216 312.898 260.302 312.851C260.388 312.805 260.455 312.729 260.488 312.637V312.6L261.058 311.03C261.094 310.939 261.095 310.837 261.062 310.745C261.029 310.652 260.964 310.575 260.879 310.527ZM255.579 311.047C255.358 311.585 255.018 312.065 254.585 312.45C254.493 312.529 254.396 312.602 254.294 312.667C253.887 312.929 253.439 313.119 252.969 313.23C252.368 313.367 251.742 313.352 251.148 313.186C250.555 313.02 250.011 312.708 249.566 312.279C249.121 311.849 248.789 311.316 248.6 310.726C248.41 310.135 248.369 309.507 248.481 308.897C248.526 308.611 248.6 308.331 248.702 308.06C248.963 307.435 249.394 306.897 249.945 306.507L250.097 306.41C253.264 304.547 256.851 307.5 255.589 311.047H255.579Z" fill="#55443A"/>
<path d="M271.93 317.597L270.754 317.05C270.707 317.027 270.667 316.991 270.638 316.946C270.609 316.902 270.594 316.85 270.592 316.797C270.592 316.657 270.592 316.52 270.565 316.38C270.537 316.126 270.49 315.874 270.426 315.627C270.41 315.572 270.411 315.513 270.429 315.458C270.446 315.403 270.48 315.355 270.526 315.32L271.602 314.494C271.658 314.452 271.697 314.39 271.709 314.32C271.721 314.251 271.707 314.179 271.668 314.12L271.006 313.07C270.969 313.012 270.913 312.97 270.848 312.951C270.783 312.932 270.713 312.938 270.651 312.967L269.535 313.52C269.481 313.549 269.419 313.558 269.359 313.547C269.299 313.536 269.245 313.506 269.204 313.46C268.837 313.077 268.412 312.756 267.945 312.507C267.887 312.476 267.841 312.426 267.816 312.365C267.79 312.305 267.787 312.237 267.806 312.174L267.985 311.434C268 311.366 267.991 311.295 267.958 311.234C267.926 311.173 267.873 311.126 267.809 311.1L266.657 310.69C266.634 310.68 266.609 310.674 266.584 310.674C266.526 310.667 266.468 310.679 266.418 310.708C266.368 310.737 266.329 310.781 266.305 310.834L265.898 311.717L265.799 311.93C265.565 311.924 265.332 311.933 265.1 311.957C264.79 311.992 264.484 312.056 264.185 312.147C264.131 312.163 264.073 312.162 264.019 312.144C263.965 312.127 263.918 312.093 263.884 312.047L263.222 311.177C263.178 311.119 263.115 311.08 263.045 311.067C262.974 311.054 262.901 311.068 262.841 311.107L262.039 311.614L261.814 311.764C261.753 311.802 261.709 311.861 261.688 311.929C261.668 311.998 261.674 312.072 261.704 312.137L262.165 313.077C262.193 313.13 262.204 313.192 262.195 313.252C262.186 313.312 262.158 313.367 262.115 313.41C261.865 313.664 261.643 313.945 261.453 314.247C261.434 314.271 261.418 314.297 261.403 314.324V314.347C261.369 314.391 261.323 314.424 261.27 314.442C261.218 314.461 261.162 314.463 261.108 314.45L259.912 314.157C259.898 314.155 259.884 314.155 259.869 314.157C259.807 314.152 259.744 314.168 259.692 314.203C259.639 314.237 259.599 314.288 259.578 314.347L259.157 315.504C259.134 315.572 259.136 315.646 259.163 315.712C259.191 315.778 259.242 315.832 259.306 315.864L260.532 316.434C260.582 316.457 260.625 316.496 260.654 316.544C260.682 316.592 260.697 316.647 260.694 316.704C260.684 316.962 260.691 317.22 260.717 317.477C260.734 317.614 260.754 317.75 260.78 317.884C260.79 317.937 260.785 317.993 260.766 318.044C260.746 318.095 260.714 318.14 260.671 318.174L259.637 318.967C259.581 319.008 259.543 319.07 259.53 319.138C259.517 319.207 259.531 319.278 259.568 319.337L260.23 320.377C260.267 320.438 260.326 320.483 260.395 320.503C260.464 320.523 260.537 320.516 260.601 320.484L261.489 320.047C261.545 320.022 261.607 320.015 261.667 320.029C261.726 320.042 261.78 320.074 261.82 320.12C262.149 320.519 262.536 320.864 262.97 321.144C263.021 321.176 263.061 321.223 263.083 321.28C263.106 321.336 263.11 321.398 263.096 321.457L262.831 322.54C262.818 322.609 262.83 322.68 262.864 322.74C262.898 322.801 262.952 322.848 263.016 322.874L264.162 323.29C264.225 323.311 264.293 323.307 264.354 323.281C264.415 323.255 264.465 323.207 264.494 323.147L264.52 323.094L264.994 322.067C265.018 322.014 265.059 321.97 265.109 321.941C265.159 321.912 265.217 321.899 265.275 321.904C265.568 321.923 265.862 321.917 266.153 321.884C266.312 321.884 266.464 321.84 266.62 321.81C266.673 321.799 266.727 321.803 266.778 321.822C266.829 321.84 266.873 321.874 266.905 321.917L267.568 322.804C267.612 322.861 267.677 322.9 267.748 322.913C267.819 322.926 267.893 322.912 267.955 322.874L268.985 322.207C269.013 322.188 269.038 322.164 269.058 322.137C269.091 322.095 269.111 322.045 269.117 321.992C269.123 321.939 269.114 321.885 269.091 321.837L268.72 321.087C268.699 321.041 268.689 320.991 268.693 320.941C268.696 320.891 268.713 320.842 268.74 320.8C268.756 320.779 268.774 320.759 268.793 320.74C269.302 320.314 269.719 319.789 270.022 319.197C270.048 319.149 270.087 319.109 270.134 319.082C270.182 319.056 270.236 319.044 270.29 319.047H270.34L271.307 319.284C271.375 319.3 271.446 319.291 271.507 319.257C271.568 319.224 271.615 319.169 271.639 319.104V319.08L272.046 317.95C272.07 317.887 272.072 317.817 272.051 317.753C272.029 317.688 271.987 317.633 271.93 317.597ZM268.127 317.97C267.964 318.355 267.716 318.697 267.402 318.97C267.337 319.029 267.267 319.081 267.193 319.127C266.897 319.316 266.571 319.454 266.229 319.534C265.799 319.628 265.353 319.615 264.929 319.495C264.506 319.375 264.118 319.152 263.8 318.846C263.483 318.539 263.244 318.159 263.107 317.739C262.97 317.318 262.937 316.87 263.013 316.434C263.048 316.229 263.102 316.029 263.172 315.834C263.361 315.384 263.671 314.997 264.066 314.714L264.176 314.647C264.66 314.343 265.228 314.2 265.797 314.24C266.367 314.279 266.91 314.499 267.348 314.867C267.786 315.236 268.098 315.735 268.238 316.292C268.377 316.849 268.339 317.436 268.127 317.97Z" fill="#B5A398"/>
<path d="M411.151 313.367L408.918 312.323C408.829 312.28 408.749 312.213 408.696 312.129C408.64 312.045 408.61 311.947 408.607 311.847C408.607 311.583 408.584 311.317 408.557 311.05C408.504 310.565 408.415 310.085 408.289 309.613C408.259 309.509 408.262 309.398 408.299 309.295C408.332 309.192 408.398 309.102 408.484 309.037L410.528 307.467C410.634 307.386 410.707 307.268 410.73 307.135C410.753 307.003 410.727 306.866 410.654 306.753L409.399 304.753C409.329 304.647 409.223 304.569 409.1 304.534C408.981 304.499 408.849 304.51 408.736 304.563L406.609 305.613C406.507 305.666 406.394 305.683 406.281 305.663C406.169 305.643 406.066 305.587 405.99 305.503C405.291 304.775 404.483 304.161 403.595 303.687C403.489 303.63 403.406 303.539 403.357 303.429C403.31 303.32 403.297 303.197 403.327 303.08L403.658 301.67C403.688 301.541 403.671 301.406 403.608 301.288C403.549 301.171 403.449 301.079 403.327 301.03L401.131 300.23C401.087 300.214 401.041 300.204 400.995 300.2C400.885 300.189 400.776 300.212 400.68 300.267C400.584 300.322 400.511 300.406 400.465 300.507L399.69 302.173L399.501 302.583C399.057 302.567 398.616 302.584 398.176 302.633C397.586 302.698 397.003 302.817 396.437 302.99C396.334 303.022 396.221 303.021 396.122 302.988C396.019 302.955 395.927 302.89 395.864 302.803L394.608 301.137C394.525 301.027 394.403 300.953 394.27 300.93C394.135 300.906 393.995 300.935 393.883 301.01L392.362 301.973L391.932 302.253C391.816 302.326 391.73 302.439 391.693 302.571C391.657 302.702 391.667 302.843 391.726 302.967L392.601 304.753C392.651 304.854 392.667 304.967 392.651 305.078C392.631 305.188 392.581 305.291 392.501 305.37C392.028 305.852 391.607 306.384 391.246 306.957C391.21 307.007 391.183 307.053 391.153 307.1C391.123 307.147 391.13 307.133 391.12 307.15C391.054 307.235 390.968 307.299 390.868 307.334C390.769 307.369 390.66 307.373 390.557 307.347L388.285 306.787H388.208C388.089 306.775 387.97 306.804 387.867 306.868C387.768 306.932 387.688 307.027 387.649 307.14L386.854 309.343C386.807 309.472 386.811 309.613 386.864 309.74C386.913 309.866 387.013 309.968 387.135 310.027L389.454 311.11C389.55 311.155 389.63 311.227 389.686 311.319C389.742 311.411 389.769 311.517 389.762 311.623C389.739 312.113 389.755 312.603 389.808 313.09C389.835 313.357 389.878 313.613 389.924 313.87C389.944 313.972 389.934 314.077 389.898 314.173C389.861 314.27 389.798 314.354 389.716 314.417L387.751 315.927C387.645 316.007 387.572 316.124 387.549 316.255C387.526 316.386 387.553 316.521 387.622 316.633L388.871 318.61C388.944 318.726 389.056 318.811 389.189 318.848C389.321 318.885 389.461 318.872 389.583 318.81L391.266 317.983C391.375 317.927 391.501 317.91 391.62 317.934C391.74 317.959 391.849 318.025 391.928 318.12C392.554 318.88 393.293 319.538 394.118 320.07C394.214 320.131 394.287 320.22 394.33 320.326C394.373 320.432 394.38 320.549 394.353 320.66L393.853 322.72C393.817 322.853 393.83 322.994 393.893 323.117C393.952 323.24 394.058 323.336 394.184 323.387L396.364 324.187C396.49 324.231 396.626 324.227 396.748 324.174C396.871 324.122 396.97 324.025 397.026 323.903L397.073 323.807L397.974 321.857C398.02 321.755 398.096 321.671 398.192 321.614C398.288 321.557 398.398 321.532 398.51 321.54C399.064 321.578 399.617 321.567 400.167 321.507C400.465 321.475 400.763 321.428 401.058 321.367C401.157 321.345 401.26 321.352 401.356 321.388C401.449 321.423 401.531 321.485 401.594 321.567L402.87 323.233C402.952 323.345 403.075 323.421 403.211 323.447C403.347 323.472 403.489 323.445 403.605 323.37L405.559 322.12C405.612 322.085 405.659 322.042 405.702 321.993C405.761 321.912 405.798 321.816 405.808 321.715C405.818 321.614 405.801 321.512 405.758 321.42L405.059 319.993C405.016 319.907 405 319.812 405.006 319.717C405.013 319.622 405.043 319.53 405.096 319.45C405.122 319.408 405.155 319.369 405.195 319.337C406.159 318.524 406.954 317.526 407.534 316.4C407.58 316.307 407.653 316.23 407.742 316.179C407.835 316.127 407.938 316.103 408.04 316.11C408.07 316.107 408.103 316.107 408.133 316.11L409.972 316.563C410.101 316.596 410.233 316.58 410.353 316.518C410.468 316.457 410.561 316.354 410.608 316.23L410.627 316.177L411.403 314.033C411.446 313.91 411.442 313.776 411.396 313.654C411.35 313.532 411.263 313.431 411.151 313.367ZM403.92 314.077C403.612 314.813 403.141 315.468 402.545 315.993C402.419 316.103 402.283 316.204 402.144 316.293C401.581 316.653 400.962 316.913 400.312 317.063C399.494 317.247 398.64 317.223 397.831 316.996C397.023 316.768 396.284 316.344 395.678 315.759C395.072 315.175 394.618 314.449 394.36 313.646C394.098 312.843 394.038 311.988 394.188 311.157C394.254 310.766 394.356 310.382 394.492 310.01C394.85 309.157 395.436 308.422 396.188 307.887L396.404 307.753C400.74 305.187 405.639 309.227 403.92 314.077Z" fill="#55443A"/>
<path d="M201.532 313.334L199.3 312.29C199.209 312.248 199.132 312.181 199.077 312.096C199.022 312.012 198.991 311.914 198.988 311.814C198.988 311.55 198.965 311.284 198.935 311.02C198.885 310.535 198.796 310.055 198.67 309.584C198.641 309.479 198.643 309.367 198.677 309.264C198.712 309.16 198.776 309.07 198.862 309.004L200.909 307.434C201.017 307.354 201.09 307.236 201.113 307.104C201.137 306.972 201.109 306.836 201.035 306.724L199.78 304.724C199.711 304.617 199.606 304.538 199.484 304.503C199.362 304.469 199.232 304.479 199.117 304.534L196.991 305.584C196.889 305.635 196.773 305.652 196.66 305.632C196.548 305.611 196.446 305.554 196.368 305.47C195.672 304.74 194.863 304.128 193.973 303.657C193.869 303.598 193.786 303.507 193.738 303.397C193.69 303.287 193.678 303.164 193.705 303.047L194.036 301.64C194.067 301.511 194.05 301.375 193.99 301.256C193.929 301.138 193.828 301.046 193.705 300.997L191.509 300.2C191.466 300.181 191.419 300.169 191.373 300.167C191.264 300.157 191.155 300.181 191.061 300.236C190.967 300.291 190.891 300.374 190.846 300.474L190.071 302.14L189.882 302.55C189.44 302.534 188.997 302.551 188.557 302.6C187.967 302.662 187.385 302.78 186.818 302.954C186.715 302.985 186.604 302.985 186.501 302.952C186.399 302.919 186.308 302.856 186.242 302.77L184.986 301.104C184.904 300.994 184.784 300.92 184.65 300.896C184.517 300.872 184.378 300.9 184.264 300.974L182.744 301.94L182.31 302.217C182.195 302.291 182.112 302.404 182.075 302.535C182.037 302.666 182.049 302.807 182.108 302.93L182.979 304.72C183.03 304.82 183.047 304.932 183.03 305.043C183.013 305.153 182.961 305.255 182.883 305.334C182.409 305.817 181.988 306.35 181.627 306.924C181.592 306.968 181.561 307.016 181.535 307.067C181.524 307.084 181.512 307.1 181.498 307.114C181.435 307.199 181.348 307.264 181.248 307.299C181.148 307.334 181.04 307.338 180.938 307.31L178.666 306.75H178.59C178.471 306.74 178.351 306.769 178.25 306.833C178.149 306.898 178.071 306.994 178.03 307.107L177.235 309.307C177.188 309.436 177.191 309.577 177.243 309.704C177.296 309.83 177.393 309.933 177.517 309.99L179.835 311.077C179.932 311.121 180.013 311.194 180.068 311.286C180.123 311.377 180.149 311.483 180.143 311.59C180.121 312.08 180.136 312.57 180.19 313.057C180.216 313.32 180.256 313.58 180.306 313.837C180.324 313.939 180.314 314.043 180.278 314.14C180.24 314.236 180.178 314.32 180.097 314.384L178.129 315.894C178.025 315.974 177.954 316.091 177.931 316.221C177.907 316.351 177.933 316.485 178.003 316.597L179.252 318.574C179.324 318.69 179.437 318.775 179.568 318.812C179.699 318.85 179.839 318.837 179.961 318.777L181.644 317.947C181.754 317.891 181.879 317.875 181.999 317.9C182.12 317.926 182.228 317.992 182.306 318.087C182.933 318.844 183.672 319.501 184.496 320.034C184.593 320.094 184.668 320.183 184.711 320.289C184.754 320.395 184.762 320.513 184.734 320.624L184.231 322.687C184.198 322.822 184.215 322.965 184.28 323.088C184.345 323.211 184.452 323.305 184.582 323.354L186.758 324.15C186.884 324.194 187.021 324.19 187.143 324.138C187.265 324.087 187.364 323.991 187.421 323.87L187.467 323.77L188.368 321.82C188.415 321.72 188.491 321.636 188.586 321.58C188.682 321.524 188.792 321.498 188.902 321.507C189.453 321.543 190.008 321.532 190.558 321.474C190.859 321.44 191.154 321.39 191.446 321.33C191.545 321.31 191.648 321.318 191.743 321.354C191.839 321.389 191.923 321.45 191.986 321.53L193.258 323.217C193.342 323.328 193.464 323.403 193.601 323.428C193.737 323.454 193.878 323.427 193.996 323.354L195.951 322.104C196.003 322.067 196.05 322.023 196.09 321.974C196.15 321.893 196.187 321.797 196.197 321.697C196.207 321.596 196.189 321.495 196.146 321.404L195.447 319.974C195.407 319.887 195.389 319.792 195.396 319.697C195.402 319.602 195.432 319.51 195.484 319.43C195.514 319.389 195.548 319.351 195.586 319.317C196.552 318.506 197.346 317.509 197.922 316.384C197.969 316.29 198.043 316.213 198.134 316.162C198.224 316.11 198.328 316.087 198.432 316.094C198.461 316.09 198.491 316.09 198.521 316.094L200.363 316.547C200.491 316.58 200.627 316.564 200.744 316.503C200.862 316.441 200.952 316.338 200.999 316.214V316.164L201.777 314.017C201.824 313.892 201.826 313.755 201.781 313.629C201.736 313.504 201.647 313.399 201.532 313.334ZM194.298 314.044C193.993 314.782 193.523 315.439 192.923 315.964C192.798 316.073 192.665 316.174 192.525 316.264C191.961 316.622 191.341 316.882 190.69 317.034C189.87 317.22 189.016 317.198 188.206 316.972C187.395 316.745 186.653 316.321 186.046 315.736C185.438 315.15 184.984 314.423 184.723 313.618C184.463 312.814 184.404 311.957 184.552 311.124C184.618 310.734 184.72 310.351 184.857 309.98C185.215 309.127 185.803 308.391 186.553 307.854L186.765 307.724C191.131 305.15 196.02 309.19 194.298 314.04V314.044Z" fill="#55443A"/>
<path d="M334.562 317.596L333.39 317.05C333.34 317.027 333.3 316.991 333.271 316.947C333.241 316.902 333.228 316.85 333.224 316.797C333.224 316.657 333.224 316.52 333.198 316.38C333.171 316.125 333.125 315.873 333.059 315.627C333.042 315.571 333.042 315.512 333.062 315.457C333.078 315.402 333.115 315.354 333.161 315.32L334.234 314.493C334.291 314.451 334.331 314.389 334.34 314.32C334.354 314.25 334.34 314.179 334.301 314.12L333.638 313.07C333.602 313.012 333.545 312.97 333.479 312.951C333.416 312.932 333.347 312.937 333.284 312.967L332.168 313.52C332.115 313.548 332.052 313.558 331.992 313.547C331.932 313.536 331.876 313.505 331.836 313.46C331.469 313.078 331.044 312.756 330.577 312.507C330.52 312.476 330.474 312.426 330.448 312.365C330.422 312.304 330.418 312.237 330.435 312.173L330.621 311.433C330.636 311.365 330.626 311.293 330.592 311.232C330.559 311.17 330.504 311.123 330.438 311.1L329.286 310.68C329.263 310.669 329.238 310.663 329.213 310.663C329.155 310.657 329.098 310.669 329.048 310.697C328.998 310.726 328.958 310.77 328.935 310.823L328.527 311.707L328.428 311.92C328.194 311.914 327.961 311.923 327.729 311.947C327.419 311.982 327.113 312.045 326.815 312.136C326.76 312.153 326.702 312.152 326.648 312.134C326.595 312.116 326.547 312.082 326.513 312.036L325.851 311.167C325.808 311.109 325.745 311.069 325.674 311.056C325.603 311.043 325.53 311.058 325.47 311.096L324.671 311.603L324.439 311.753C324.38 311.792 324.336 311.851 324.317 311.92C324.298 311.989 324.305 312.062 324.337 312.127L324.794 313.067C324.823 313.12 324.833 313.182 324.824 313.242C324.814 313.303 324.785 313.358 324.741 313.4C324.492 313.655 324.27 313.935 324.078 314.237C324.06 314.261 324.043 314.286 324.029 314.313L324.012 314.337C323.978 314.38 323.932 314.413 323.88 314.432C323.828 314.45 323.771 314.453 323.717 314.44L322.522 314.147C322.507 314.145 322.493 314.145 322.478 314.147C322.416 314.142 322.354 314.158 322.301 314.192C322.249 314.227 322.209 314.277 322.187 314.337L321.77 315.493C321.745 315.561 321.747 315.635 321.774 315.701C321.801 315.768 321.851 315.822 321.915 315.853L323.141 316.423C323.192 316.446 323.235 316.484 323.264 316.533C323.293 316.581 323.307 316.637 323.303 316.693C323.291 316.951 323.299 317.21 323.326 317.467C323.326 317.603 323.363 317.74 323.389 317.873C323.399 317.927 323.394 317.982 323.375 318.033C323.356 318.085 323.323 318.129 323.28 318.163L322.243 318.957C322.189 318.999 322.152 319.06 322.139 319.129C322.127 319.197 322.141 319.268 322.177 319.326L322.84 320.366C322.878 320.428 322.937 320.472 323.006 320.492C323.076 320.512 323.149 320.505 323.214 320.473L324.098 320.036C324.154 320.011 324.216 320.005 324.276 320.018C324.335 320.031 324.389 320.064 324.43 320.11C324.76 320.509 325.15 320.855 325.586 321.133C325.635 321.167 325.673 321.215 325.695 321.271C325.717 321.327 325.722 321.388 325.708 321.447L325.443 322.53C325.431 322.598 325.442 322.669 325.475 322.729C325.508 322.79 325.561 322.837 325.625 322.863L326.775 323.28C326.84 323.305 326.913 323.304 326.978 323.278C327.043 323.251 327.096 323.201 327.126 323.136L327.149 323.083L327.623 322.056C327.648 322.004 327.688 321.96 327.738 321.93C327.788 321.901 327.846 321.888 327.904 321.893C328.198 321.913 328.493 321.906 328.785 321.873C328.944 321.873 329.097 321.83 329.252 321.8C329.305 321.788 329.359 321.791 329.41 321.81C329.46 321.829 329.503 321.863 329.534 321.906L330.197 322.793C330.241 322.851 330.305 322.891 330.377 322.904C330.449 322.917 330.523 322.902 330.584 322.863L331.611 322.197C331.641 322.178 331.664 322.154 331.684 322.127C331.717 322.084 331.737 322.034 331.74 321.981C331.747 321.928 331.737 321.874 331.714 321.826L331.346 321.076C331.326 321.031 331.316 320.981 331.32 320.931C331.323 320.88 331.339 320.832 331.366 320.79C331.382 320.768 331.399 320.747 331.419 320.73C331.926 320.303 332.343 319.778 332.648 319.187C332.674 319.138 332.711 319.098 332.76 319.071C332.807 319.045 332.863 319.033 332.916 319.036H332.962L333.933 319.273C333.999 319.29 334.072 319.28 334.132 319.247C334.195 319.214 334.241 319.159 334.264 319.093V319.07L334.672 317.94C334.695 317.879 334.695 317.811 334.675 317.749C334.655 317.687 334.615 317.633 334.562 317.596ZM330.756 317.97C330.597 318.355 330.35 318.698 330.034 318.97C329.969 319.028 329.899 319.08 329.826 319.127C329.529 319.316 329.203 319.453 328.862 319.533C328.43 319.633 327.981 319.624 327.553 319.506C327.126 319.388 326.734 319.166 326.413 318.859C326.092 318.552 325.852 318.17 325.713 317.747C325.574 317.323 325.542 316.872 325.619 316.433C325.654 316.229 325.707 316.028 325.778 315.833C325.967 315.384 326.277 314.996 326.672 314.713L326.785 314.647C327.269 314.336 327.839 314.188 328.412 314.225C328.985 314.261 329.532 314.481 329.973 314.851C330.414 315.221 330.727 315.722 330.866 316.283C331.005 316.844 330.963 317.435 330.746 317.97H330.756Z" fill="#B5A398"/>
<path d="M288.377 309.017L286.604 308.7C286.532 308.688 286.464 308.655 286.41 308.606C286.355 308.556 286.316 308.492 286.296 308.42C286.24 308.237 286.177 308.05 286.111 307.87C285.983 307.537 285.831 307.213 285.654 306.903C285.614 306.835 285.595 306.756 285.601 306.677C285.606 306.598 285.635 306.522 285.684 306.46L286.84 304.963C286.9 304.886 286.929 304.789 286.92 304.691C286.911 304.593 286.866 304.502 286.793 304.437L285.538 303.26C285.468 303.198 285.378 303.163 285.284 303.163C285.191 303.163 285.101 303.198 285.031 303.26L283.706 304.403C283.644 304.459 283.566 304.492 283.484 304.499C283.401 304.505 283.319 304.485 283.249 304.44C282.62 304.056 281.935 303.776 281.218 303.61C281.134 303.588 281.059 303.539 281.005 303.47C280.951 303.402 280.92 303.318 280.917 303.23L280.897 302.17C280.896 302.072 280.859 301.977 280.793 301.905C280.727 301.832 280.637 301.787 280.539 301.777L278.837 301.627C278.803 301.622 278.768 301.622 278.734 301.627C278.65 301.638 278.572 301.676 278.512 301.737C278.452 301.797 278.414 301.876 278.403 301.96L278.167 303.293L278.111 303.627C277.795 303.699 277.484 303.793 277.18 303.91C276.776 304.066 276.386 304.26 276.018 304.49C275.951 304.533 275.873 304.554 275.794 304.55C275.715 304.546 275.639 304.517 275.577 304.467L274.381 303.53C274.303 303.468 274.204 303.438 274.104 303.447C274.004 303.455 273.912 303.502 273.845 303.577L272.95 304.547L272.695 304.823C272.629 304.898 272.592 304.995 272.592 305.095C272.592 305.195 272.629 305.292 272.695 305.367L273.643 306.467C273.698 306.527 273.732 306.603 273.741 306.684C273.749 306.765 273.731 306.847 273.689 306.917C273.445 307.349 273.246 307.806 273.096 308.28C273.096 308.32 273.07 308.357 273.056 308.397C273.059 308.41 273.059 308.424 273.056 308.437C273.027 308.509 272.977 308.571 272.913 308.614C272.848 308.658 272.773 308.682 272.695 308.683L270.986 308.713H270.93C270.844 308.729 270.765 308.772 270.705 308.836C270.645 308.9 270.608 308.983 270.598 309.07L270.446 310.777C270.438 310.877 270.468 310.976 270.529 311.055C270.59 311.134 270.679 311.187 270.777 311.203L272.626 311.537C272.702 311.549 272.773 311.585 272.828 311.639C272.884 311.694 272.922 311.764 272.937 311.84C273.013 312.191 273.115 312.535 273.242 312.87C273.313 313.05 273.389 313.227 273.47 313.4C273.503 313.468 273.516 313.543 273.508 313.618C273.501 313.693 273.473 313.764 273.427 313.823L272.314 315.263C272.257 315.34 272.229 315.436 272.237 315.532C272.245 315.628 272.288 315.717 272.357 315.783L273.609 316.947C273.684 317.014 273.78 317.051 273.879 317.051C273.979 317.051 274.075 317.014 274.149 316.947L275.183 316.04C275.25 315.982 275.335 315.948 275.424 315.943C275.512 315.938 275.6 315.963 275.673 316.013C276.256 316.435 276.901 316.761 277.584 316.98C277.664 317.005 277.733 317.055 277.782 317.122C277.832 317.189 277.858 317.27 277.859 317.353L277.889 318.907C277.892 319.007 277.931 319.104 277.999 319.177C278.068 319.25 278.161 319.295 278.26 319.303L279.946 319.457C280.046 319.466 280.145 319.437 280.223 319.375C280.301 319.313 280.353 319.223 280.367 319.123L280.384 319.047L280.655 317.5C280.668 317.416 280.707 317.339 280.766 317.279C280.826 317.219 280.903 317.179 280.986 317.167C281.387 317.09 281.781 316.979 282.162 316.833C282.371 316.753 282.57 316.663 282.765 316.567C282.831 316.533 282.905 316.519 282.979 316.525C283.053 316.532 283.123 316.559 283.183 316.603L284.395 317.557C284.475 317.619 284.576 317.649 284.677 317.641C284.778 317.633 284.872 317.588 284.942 317.513L286.091 316.26C286.123 316.226 286.147 316.187 286.164 316.143C286.192 316.075 286.2 316 286.189 315.926C286.178 315.853 286.148 315.784 286.101 315.727L285.339 314.85C285.294 314.797 285.264 314.734 285.25 314.665C285.237 314.597 285.241 314.526 285.263 314.46C285.277 314.425 285.295 314.391 285.316 314.36C285.846 313.604 286.222 312.75 286.422 311.847C286.437 311.772 286.475 311.703 286.529 311.65C286.584 311.596 286.652 311.56 286.727 311.547C286.749 311.545 286.771 311.545 286.793 311.547L288.178 311.523C288.275 311.521 288.368 311.484 288.44 311.417C288.511 311.351 288.556 311.261 288.565 311.163V311.123L288.714 309.457C288.724 309.354 288.695 309.251 288.632 309.17C288.569 309.088 288.478 309.033 288.377 309.017ZM283.408 310.883C283.329 311.461 283.119 312.013 282.795 312.497C282.725 312.597 282.649 312.693 282.566 312.783C282.236 313.143 281.848 313.444 281.417 313.673C280.872 313.962 280.264 314.111 279.648 314.106C279.032 314.101 278.427 313.943 277.887 313.645C277.346 313.347 276.888 312.919 276.552 312.4C276.216 311.88 276.013 311.285 275.961 310.667C275.935 310.378 275.935 310.088 275.961 309.8C276.056 309.13 276.335 308.499 276.766 307.98C276.806 307.933 276.849 307.89 276.892 307.847C279.496 305.197 283.709 307.13 283.395 310.883H283.408Z" fill="#55443A"/>
<path d="M350.462 309.37L348.69 309.037C348.617 309.024 348.551 308.991 348.495 308.941C348.442 308.892 348.402 308.828 348.382 308.757C348.329 308.573 348.266 308.387 348.197 308.207C348.071 307.873 347.918 307.55 347.743 307.24C347.703 307.172 347.683 307.093 347.687 307.014C347.693 306.935 347.72 306.859 347.769 306.797L348.925 305.3C348.985 305.223 349.015 305.126 349.005 305.028C348.998 304.931 348.955 304.84 348.882 304.773L347.62 303.597C347.551 303.534 347.461 303.5 347.365 303.5C347.273 303.5 347.183 303.534 347.114 303.597L345.805 304.74C345.742 304.795 345.663 304.828 345.58 304.835C345.497 304.842 345.414 304.821 345.345 304.777C344.715 304.393 344.03 304.112 343.314 303.947C343.231 303.925 343.155 303.876 343.102 303.807C343.046 303.739 343.016 303.654 343.013 303.567V302.507C343.009 302.408 342.973 302.314 342.907 302.242C342.84 302.169 342.748 302.124 342.652 302.113L340.949 301.963C340.916 301.958 340.883 301.958 340.85 301.963C340.767 301.975 340.687 302.014 340.628 302.074C340.568 302.134 340.528 302.212 340.518 302.297L340.283 303.63L340.227 303.963C339.909 304.035 339.597 304.13 339.296 304.247C338.892 304.404 338.501 304.598 338.133 304.827C338.067 304.87 337.988 304.891 337.908 304.887C337.829 304.882 337.756 304.853 337.693 304.803L336.497 303.867C336.417 303.805 336.318 303.775 336.219 303.783C336.119 303.792 336.027 303.839 335.96 303.913L335.066 304.883L334.811 305.16C334.745 305.235 334.708 305.331 334.708 305.432C334.708 305.532 334.745 305.629 334.811 305.703L335.762 306.803C335.815 306.864 335.848 306.94 335.858 307.021C335.864 307.102 335.848 307.183 335.808 307.253C335.56 307.685 335.361 308.142 335.212 308.617C335.212 308.657 335.189 308.693 335.175 308.733C335.162 308.773 335.175 308.76 335.175 308.773C335.145 308.845 335.096 308.907 335.03 308.951C334.967 308.994 334.89 309.018 334.814 309.02L333.102 309.05H333.045C332.959 309.065 332.88 309.109 332.82 309.173C332.76 309.237 332.724 309.319 332.714 309.407L332.565 311.113C332.555 311.214 332.585 311.313 332.648 311.392C332.707 311.472 332.797 311.524 332.896 311.54L334.745 311.873C334.821 311.886 334.89 311.922 334.947 311.976C335.003 312.03 335.039 312.1 335.056 312.177C335.132 312.527 335.235 312.872 335.364 313.207C335.434 313.387 335.51 313.563 335.589 313.737C335.622 313.804 335.636 313.88 335.626 313.955C335.619 314.029 335.593 314.1 335.546 314.16L334.437 315.6C334.377 315.676 334.347 315.772 334.357 315.869C334.364 315.965 334.407 316.055 334.48 316.12L335.728 317.283C335.801 317.35 335.897 317.387 335.997 317.387C336.099 317.387 336.196 317.35 336.268 317.283L337.302 316.377C337.368 316.319 337.454 316.285 337.544 316.28C337.63 316.275 337.719 316.3 337.792 316.35C338.375 316.771 339.021 317.098 339.703 317.317C339.783 317.342 339.853 317.391 339.902 317.458C339.952 317.525 339.978 317.607 339.978 317.69L340.008 319.243C340.012 319.344 340.051 319.44 340.118 319.513C340.187 319.586 340.28 319.631 340.379 319.64L342.069 319.793C342.168 319.802 342.264 319.772 342.344 319.71C342.42 319.648 342.473 319.559 342.486 319.46V319.383L342.758 317.837C342.771 317.753 342.807 317.675 342.867 317.615C342.927 317.555 343.006 317.516 343.089 317.503C343.49 317.427 343.884 317.316 344.265 317.17C344.473 317.09 344.672 317 344.868 316.903C344.934 316.87 345.007 316.855 345.083 316.862C345.156 316.868 345.225 316.895 345.285 316.94L346.501 317.893C346.58 317.956 346.68 317.986 346.779 317.978C346.882 317.97 346.974 317.924 347.044 317.85L348.193 316.597C348.223 316.562 348.25 316.523 348.27 316.48C348.296 316.411 348.306 316.336 348.293 316.262C348.283 316.189 348.25 316.12 348.203 316.063L347.445 315.187C347.398 315.134 347.369 315.07 347.355 315.002C347.342 314.934 347.345 314.863 347.369 314.797C347.382 314.762 347.398 314.729 347.418 314.697C347.948 313.942 348.326 313.087 348.525 312.183C348.541 312.109 348.578 312.041 348.631 311.987C348.687 311.934 348.753 311.898 348.829 311.883C348.853 311.882 348.872 311.882 348.896 311.883L350.284 311.86C350.38 311.857 350.472 311.819 350.542 311.753C350.615 311.687 350.658 311.597 350.668 311.5V311.46L350.817 309.793C350.82 309.691 350.787 309.59 350.721 309.512C350.658 309.433 350.565 309.383 350.462 309.37ZM345.494 311.237C345.414 311.815 345.202 312.367 344.878 312.85C344.808 312.951 344.732 313.047 344.649 313.137C344.318 313.498 343.93 313.799 343.5 314.027C342.953 314.313 342.347 314.459 341.731 314.452C341.115 314.445 340.512 314.285 339.972 313.986C339.435 313.687 338.978 313.258 338.643 312.739C338.309 312.219 338.107 311.624 338.057 311.007C338.031 310.718 338.031 310.428 338.057 310.14C338.15 309.47 338.431 308.839 338.862 308.32L338.988 308.187C341.572 305.55 345.789 307.483 345.474 311.237H345.494Z" fill="#55443A"/>
<path d="M400.369 296.527H188.174C186.141 296.527 184.129 296.93 182.251 297.712C180.374 298.495 178.668 299.642 177.231 301.088C175.793 302.534 174.654 304.251 173.876 306.14C173.098 308.03 172.698 310.055 172.698 312.1C172.698 314.145 173.098 316.17 173.876 318.06C174.654 319.949 175.793 321.666 177.231 323.112C178.668 324.558 180.374 325.705 182.251 326.488C184.129 327.271 186.141 327.673 188.174 327.673H400.369C404.473 327.673 408.411 326.033 411.313 323.112C414.215 320.191 415.845 316.23 415.845 312.1C415.845 307.97 414.215 304.009 411.313 301.088C408.411 298.167 404.473 296.527 400.369 296.527ZM413.844 312.1C413.844 313.881 413.496 315.645 412.82 317.291C412.145 318.937 411.151 320.433 409.899 321.693C408.65 322.953 407.163 323.952 405.526 324.634C403.893 325.316 402.141 325.667 400.369 325.667H188.174C184.6 325.667 181.172 324.238 178.645 321.695C176.118 319.152 174.699 315.703 174.699 312.107C174.699 308.51 176.118 305.061 178.645 302.518C181.172 299.975 184.6 298.547 188.174 298.547H400.369C403.939 298.551 407.365 299.98 409.892 302.521C412.416 305.061 413.837 308.506 413.844 312.1Z" fill="#61656D"/>
<path d="M401.051 298.363L400.332 296.75L448.165 275.003L447.227 277.283L401.051 298.363Z" fill="#61656D"/>
<path d="M438.101 311.787L408.425 325.213L407.706 323.603L438.701 309.58L438.101 311.787Z" fill="#61656D"/>
<path d="M170.497 209.06C170.497 209.06 163.409 209.437 163.428 216.287C163.428 216.77 163.472 217.25 163.462 217.73C163.425 219.52 163.17 223.063 161.805 224.563L162.783 224.79C162.783 224.79 164.108 222.897 164.081 221.337C164.081 221.337 164.744 223.557 164.127 225.097C164.127 225.097 166.254 226.493 171.296 226.36C171.296 226.36 173.075 222.773 171.17 219.147C171.077 218.977 170.974 218.813 170.872 218.647C170.593 218.213 169.805 216.703 170.302 214.17L170.497 209.06Z" fill="black"/>
<path d="M187.65 346.85L199.625 347.153L194.849 343.73C194.462 343.457 194.145 343.097 193.922 342.677C193.7 342.257 193.58 341.793 193.57 341.317L193.358 337.497L186.859 337.52L187.65 346.85Z" fill="#FC9D9D"/>
<path opacity="0.15" d="M188.979 342.443V342.373C188.957 342.173 189.014 341.973 189.138 341.813C189.262 341.657 189.443 341.553 189.641 341.527L193.53 340.967L193.484 340.217H187.024L187.604 346.59L192.825 346.007L191.099 345.34C190.518 345.097 190.014 344.697 189.641 344.187C189.267 343.677 189.038 343.073 188.979 342.443Z" fill="black"/>
<path d="M203.935 348.84V348.583C203.935 348.38 203.895 348.18 203.818 347.99C203.74 347.803 203.627 347.633 203.485 347.49C203.342 347.347 203.172 347.233 202.986 347.153C202.799 347.077 202.599 347.037 202.398 347.037H200.255C200.03 347.04 199.807 346.997 199.599 346.913C199.391 346.827 199.202 346.703 199.042 346.543L193.57 341.333L191.867 343.583C191.734 343.76 191.564 343.903 191.368 344.003C191.172 344.103 190.957 344.157 190.737 344.16C190.518 344.167 190.3 344.12 190.101 344.027C189.901 343.937 189.725 343.8 189.585 343.63C189.447 343.467 189.276 343.333 189.084 343.24C188.891 343.15 188.682 343.1 188.469 343.093H187.326V348.76L203.935 348.84Z" fill="#3F4249"/>
<path d="M203.934 348.84V349.683H187.279V348.747L203.934 348.84Z" fill="black"/>
<path d="M192.472 342.723L196.176 345.747C196.373 345.907 196.622 345.99 196.876 345.977C197.13 345.963 197.37 345.857 197.55 345.677L197.828 345.397L193.569 341.333C193.458 341.3 193.341 341.303 193.232 341.34C193.124 341.38 193.029 341.45 192.962 341.543L192.519 342.177C192.468 342.247 192.435 342.327 192.424 342.413C192.413 342.5 192.424 342.587 192.456 342.667L192.472 342.723Z" fill="black"/>
<path d="M196.713 343.803L195.057 345.373" stroke="white" stroke-width="0.92" stroke-linecap="round" stroke-linejoin="round"/>
<path d="M195.828 342.98L194.112 344.6" stroke="white" stroke-width="0.92" stroke-linecap="round" stroke-linejoin="round"/>
<path d="M161.319 346.53H166.692L167.685 337.377L161.335 337.4L161.319 346.53Z" fill="#FC9D9D"/>
<path opacity="0.15" d="M162.644 345L162.783 342.19C162.796 342.013 162.869 341.843 162.989 341.713C163.109 341.58 163.27 341.493 163.445 341.467L167.304 340.88L167.397 340.107L161.352 340.13L161.319 346.6L162.644 345Z" fill="black"/>
<path d="M165.982 342.387H166.426C166.627 342.383 166.821 342.457 166.971 342.59C167.121 342.723 167.216 342.91 167.238 343.11L167.331 344.797C167.358 345.317 167.494 345.827 167.728 346.293L167.89 346.6C168.186 347.187 168.337 347.837 168.331 348.493V348.8H159.818C159.822 347.967 160.074 347.153 160.54 346.467C160.886 345.95 161.102 345.357 161.169 344.737L161.355 343.05C161.392 342.86 161.494 342.693 161.642 342.57C161.79 342.45 161.975 342.383 162.166 342.383H162.471" fill="#3F4249"/>
<path d="M159.864 348.777H168.354V349.593H159.864V348.777Z" fill="black"/>
<path d="M164.867 341.613H163.611C163.462 341.613 163.313 341.643 163.176 341.707C163.04 341.767 162.918 341.857 162.819 341.97C162.719 342.083 162.645 342.217 162.602 342.36C162.558 342.507 162.545 342.657 162.565 342.807L162.843 345.1C162.889 345.44 163.055 345.753 163.311 345.98C163.567 346.21 163.896 346.337 164.237 346.34C164.585 346.343 164.921 346.217 165.18 345.983C165.439 345.747 165.601 345.427 165.635 345.077L165.89 342.783C165.912 342.637 165.902 342.487 165.86 342.343C165.818 342.203 165.746 342.07 165.649 341.96C165.551 341.847 165.431 341.76 165.296 341.7C165.161 341.64 165.014 341.61 164.867 341.613Z" fill="black"/>
<path d="M166.354 344.21H162.121" stroke="white" stroke-width="0.92" stroke-linecap="round" stroke-linejoin="round"/>
<path d="M166.238 345.263H162.24" stroke="white" stroke-width="0.92" stroke-linecap="round" stroke-linejoin="round"/>
<path d="M181.323 225.25L190.522 226.666C191.298 226.782 192.021 227.13 192.598 227.665C193.175 228.2 193.578 228.897 193.755 229.666L196.736 240.51L189.081 242.563L188.187 240.016L187.882 255.423H164.754L164.847 240.353L163.939 242.666L156.48 240.236L160.455 229.166C160.712 228.507 161.141 227.93 161.696 227.495C162.252 227.06 162.913 226.783 163.611 226.693L172.86 225.176C172.86 225.176 177.55 227.97 181.323 225.25Z" fill="#927463"/>
<path opacity="0.2" d="M166.228 237.667C166.142 237.665 166.058 237.69 165.986 237.737C165.915 237.785 165.859 237.853 165.827 237.933L164.833 240.6L164.744 255.437H166.818L166.642 238.047C166.634 237.942 166.586 237.845 166.509 237.775C166.432 237.704 166.332 237.666 166.228 237.667Z" fill="black"/>
<path opacity="0.2" d="M187.723 238.844L187.875 236.537C187.882 236.426 187.931 236.321 188.012 236.245C188.092 236.169 188.199 236.127 188.309 236.127C188.4 236.127 188.489 236.155 188.564 236.209C188.638 236.262 188.694 236.337 188.723 236.424L190.833 242.254L188.975 242.667L187.723 238.844Z" fill="black"/>
<path d="M171.479 225.467L172.502 237.133H183.49L184.463 225.73L186.355 226.01V237.133C186.795 237.133 187.218 237.304 187.535 237.61C187.853 237.917 188.04 238.335 188.058 238.777L188.031 248.213C188.018 252.798 188.223 257.375 188.647 261.943L188.922 268.49L193.633 340.27H187.008L177.948 282.27C177.903 281.922 177.733 281.602 177.471 281.37C177.209 281.138 176.873 281.01 176.523 281.01C176.175 281.01 175.838 281.138 175.577 281.369C175.315 281.6 175.145 281.919 175.099 282.267L167.52 340.267H161.246L161.65 277.397C161.842 271.57 162.998 265.757 163.787 259.983L164.754 253C164.754 253 166.043 255.107 166.844 238.75C166.867 238.311 167.055 237.896 167.372 237.593C167.689 237.29 168.11 237.12 168.547 237.12H169.269L169.63 225.7L171.479 225.467Z" fill="#21252B"/>
<path opacity="0.3" d="M171.316 258.067L182.687 258.717C182.845 258.726 183 258.766 183.143 258.835C183.286 258.904 183.413 259.001 183.519 259.12C183.624 259.239 183.706 259.378 183.758 259.528C183.81 259.679 183.832 259.838 183.824 259.997L183.549 264.834C183.535 265.075 183.451 265.307 183.305 265.499C183.16 265.692 182.961 265.836 182.734 265.914L177.102 267.844C176.814 267.944 176.499 267.93 176.221 267.804L170.199 265.1C169.964 264.996 169.769 264.819 169.641 264.594C169.515 264.37 169.463 264.11 169.494 263.854L170.04 259.137C170.076 258.828 170.228 258.545 170.466 258.346C170.703 258.147 171.007 258.047 171.316 258.067Z" fill="black"/>
<path d="M170.968 240.656C171.565 240.656 172.048 240.17 172.048 239.57C172.048 238.97 171.565 238.483 170.968 238.483C170.372 238.483 169.889 238.97 169.889 239.57C169.889 240.17 170.372 240.656 170.968 240.656Z" fill="#B2B6BB"/>
<path d="M184.658 240.656C185.255 240.656 185.738 240.17 185.738 239.57C185.738 238.97 185.255 238.483 184.658 238.483C184.062 238.483 183.578 238.97 183.578 239.57C183.578 240.17 184.062 240.656 184.658 240.656Z" fill="#B2B6BB"/>
<path opacity="0.3" d="M166.513 244.206C165.731 254.6 164.754 253.003 164.754 253.003L162.588 268.67L161.621 277.003L161.246 340.28H163.234L163.638 284.333C163.664 280.202 163.875 276.081 164.271 271.97L164.492 269.653L166.513 244.206Z" fill="black"/>
<path opacity="0.3" d="M189.33 340.217L179.922 282.666C179.858 282.169 179.643 281.703 179.306 281.333C178.173 280.12 176.613 280.906 176.613 280.906V281.003C176.944 281.026 177.256 281.164 177.498 281.392C177.739 281.62 177.895 281.926 177.938 282.256L186.988 340.2L189.33 340.217Z" fill="black"/>
<path d="M196.505 240.563L200.215 253.473C200.345 254.069 200.246 254.691 199.939 255.217C199.632 255.742 199.139 256.131 198.559 256.306L188.621 259.306V255.14L192.676 251.786L189.578 242.473L196.505 240.563Z" fill="#FC9D9D"/>
<path opacity="0.15" d="M192.688 251.684C193.216 251.291 193.769 250.933 194.344 250.614C194.474 250.53 194.411 250.23 194.271 250.28C193.669 250.477 192.993 250.47 192.513 250.844C192.498 250.858 192.488 250.876 192.482 250.896C192.476 250.916 192.475 250.937 192.479 250.957L192.585 251.624C192.595 251.694 192.648 251.724 192.688 251.684Z" fill="black"/>
<path d="M185.405 253.243L180.08 252.177C179.752 252.111 179.433 252.326 179.368 252.656L177.603 261.585C177.537 261.915 177.75 262.236 178.079 262.302L183.404 263.368C183.732 263.433 184.051 263.219 184.117 262.888L185.881 253.96C185.947 253.63 185.734 253.309 185.405 253.243Z" fill="#927463"/>
<path opacity="0.2" d="M185.405 253.243L180.08 252.177C179.752 252.111 179.433 252.326 179.368 252.656L177.603 261.585C177.537 261.915 177.75 262.236 178.079 262.302L183.404 263.368C183.732 263.433 184.051 263.219 184.117 262.888L185.881 253.96C185.947 253.63 185.734 253.309 185.405 253.243Z" fill="black"/>
<path d="M185.406 253.246L180.942 252.352C180.614 252.286 180.294 252.501 180.229 252.831L178.464 261.76C178.399 262.09 178.612 262.411 178.941 262.477L183.405 263.371C183.733 263.436 184.052 263.222 184.117 262.891L185.882 253.963C185.948 253.632 185.734 253.311 185.406 253.246Z" fill="#927463"/>
<path d="M185.208 248.588L184.33 253.028L184.616 253.085L185.494 248.646L185.208 248.588Z" fill="#B2B6BB"/>
<path d="M185.742 248.502L185.024 248.358C184.985 248.35 184.946 248.376 184.939 248.416L184.881 248.707C184.873 248.746 184.899 248.785 184.938 248.793L185.656 248.937C185.696 248.944 185.734 248.919 185.742 248.879L185.799 248.588C185.807 248.548 185.782 248.51 185.742 248.502Z" fill="#B2B6BB"/>
<path d="M185.738 255.123L189.518 254.893L190.137 258.84L185.139 260.61L181.972 260.68C181.805 260.687 181.641 260.634 181.508 260.53C181.141 260.22 181.694 259.933 181.694 259.933H181.101C180.972 259.903 180.836 259.903 180.707 259.88C179.968 259.75 180.349 259.097 180.349 259.097C179.561 258.807 180.081 258.06 180.081 258.06C180.002 258.032 179.933 257.983 179.88 257.918C179.827 257.854 179.792 257.776 179.779 257.693C179.76 257.621 179.759 257.544 179.776 257.471C179.793 257.398 179.828 257.33 179.878 257.274C179.927 257.217 179.99 257.174 180.06 257.148C180.13 257.122 180.205 257.113 180.28 257.123L182.009 257.007L183.937 256.033L182.502 255.6C182.339 255.554 182.19 255.47 182.066 255.354C181.942 255.238 181.847 255.094 181.79 254.933C181.768 254.876 181.763 254.814 181.774 254.754C181.786 254.694 181.813 254.638 181.854 254.593C181.895 254.547 181.947 254.514 182.005 254.496C182.063 254.479 182.125 254.478 182.184 254.493L185.738 255.123Z" fill="#FC9D9D"/>
<path opacity="0.15" d="M190.137 258.84L190.012 258.033L187.176 259.29L185.016 260.197L181.389 260.357C181.409 260.426 181.451 260.487 181.508 260.53C181.641 260.633 181.805 260.687 181.972 260.68L185.139 260.61L190.137 258.84Z" fill="black"/>
<path opacity="0.15" d="M180.196 258.08L182.164 258.013L184.221 257.477" stroke="black" stroke-width="0.51" stroke-miterlimit="10" stroke-linecap="round"/>
<path opacity="0.15" d="M180.379 258.976L182.197 259L184.489 258.51" stroke="black" stroke-width="0.51" stroke-miterlimit="10" stroke-linecap="round"/>
<path opacity="0.15" d="M181.697 259.933L182.979 259.903L184.847 259.69" stroke="black" stroke-width="0.51" stroke-miterlimit="10" stroke-linecap="round"/>
<path opacity="0.15" d="M183.399 259.863C183.511 259.742 183.581 259.59 183.601 259.426C183.617 259.236 183.686 259.053 183.8 258.9C183.871 258.818 183.919 258.72 183.94 258.614C183.961 258.508 183.954 258.399 183.919 258.296C183.856 258.084 183.856 257.858 183.919 257.646V257.613C183.94 257.509 183.939 257.402 183.915 257.299C183.891 257.196 183.845 257.099 183.78 257.016C183.715 256.932 183.633 256.864 183.539 256.816C183.445 256.768 183.342 256.741 183.237 256.736L182.637 256.706L181.998 257L181.455 257.04L179.755 257.516C179.744 257.574 179.744 257.632 179.755 257.69C179.769 257.772 179.804 257.85 179.857 257.914C179.91 257.978 179.979 258.027 180.057 258.056C180.057 258.056 179.537 258.803 180.325 259.093C180.325 259.093 179.944 259.76 180.683 259.876C180.812 259.9 180.948 259.9 181.077 259.93H181.67C181.67 259.93 181.117 260.216 181.485 260.526C181.617 260.63 181.781 260.683 181.948 260.676H182.515C182.659 260.677 182.8 260.634 182.918 260.551C183.036 260.469 183.127 260.352 183.177 260.216C183.222 260.083 183.299 259.962 183.399 259.863Z" fill="black"/>
<path d="M183.46 257.69C183.479 257.617 183.48 257.541 183.463 257.467C183.445 257.394 183.411 257.326 183.361 257.27C183.311 257.213 183.249 257.17 183.179 257.144C183.109 257.118 183.033 257.11 182.959 257.12L181.23 257L178.875 255.91L179.083 254.396L174.303 254.84L161.318 249.776L163.637 242.65L157.012 240.316L153.302 251.65C153.113 252.163 153.123 252.729 153.329 253.235C153.535 253.741 153.923 254.151 154.415 254.383C157.065 255.62 161.232 257.593 173.628 259.18L178.126 260.61L181.293 260.68C181.46 260.686 181.625 260.633 181.757 260.53C182.125 260.22 181.571 259.933 181.571 259.933H182.164C182.293 259.903 182.429 259.903 182.558 259.88C183.297 259.75 182.916 259.096 182.916 259.096C183.705 258.806 183.184 258.06 183.184 258.06C183.258 258.027 183.322 257.976 183.371 257.911C183.419 257.847 183.449 257.77 183.46 257.69Z" fill="#FC9D9D"/>
<path opacity="0.15" d="M183.046 258.08L181.078 258.013L179.021 257.477" stroke="black" stroke-width="0.51" stroke-miterlimit="10" stroke-linecap="round"/>
<path opacity="0.15" d="M182.863 258.976L181.044 259L178.752 258.51" stroke="black" stroke-width="0.51" stroke-miterlimit="10" stroke-linecap="round"/>
<path opacity="0.15" d="M181.549 259.933L180.263 259.903L178.395 259.69" stroke="black" stroke-width="0.51" stroke-miterlimit="10" stroke-linecap="round"/>
<path opacity="0.15" d="M154.386 254.383C157.036 255.62 161.203 257.593 173.598 259.18L178.097 260.61L181.263 260.68C181.431 260.687 181.595 260.634 181.727 260.53L181.78 260.477L178.352 260.197L173.847 258.567C162.505 257.297 156.32 253.667 156.32 253.667C153.077 252.397 153.866 249.75 153.866 249.75L153.273 251.667C153.088 252.178 153.1 252.739 153.306 253.242C153.512 253.745 153.897 254.152 154.386 254.383Z" fill="black"/>
<path opacity="0.15" d="M200.214 253.477L199.714 251.184C199.697 251.696 199.567 252.198 199.333 252.654C198.884 253.511 198.137 254.171 197.233 254.507L190.065 258V258.944L198.555 256.32C199.139 256.147 199.634 255.756 199.942 255.228C200.251 254.7 200.348 254.074 200.214 253.477Z" fill="black"/>
<path opacity="0.15" d="M161.213 249.684L159.414 249.324L161.531 249.017L161.213 249.684Z" fill="black"/>
<path d="M171.666 215.201C173.088 215.061 174.094 213.444 173.913 211.59C173.733 209.736 172.434 208.347 171.011 208.487C169.589 208.627 168.583 210.244 168.764 212.098C168.944 213.952 170.244 215.342 171.666 215.201Z" fill="#927463"/>
<path d="M176.033 220.754C174.851 220.583 173.742 220.079 172.833 219.299C171.924 218.52 171.253 217.497 170.898 216.35C169.6 212.467 170.236 210.474 171.094 208.184C171.756 206.46 174.738 203.717 178.249 204.08C181.76 204.444 183.88 206.21 184.543 209.414C185.715 215.36 181.932 223.28 176.033 220.754Z" fill="black"/>
<path d="M174.208 215.667L172.965 225.417L173.36 225.847C175.864 227.333 178.964 227.033 181.498 225.6L181.167 219L174.208 215.667Z" fill="#FC9D9D"/>
<path opacity="0.15" d="M181.23 221.08C180.458 221.48 180.567 221.627 179.702 221.61L179.11 221.587C179.037 221.587 178.964 221.576 178.894 221.553H178.851C178.745 221.526 178.636 221.523 178.52 221.493C178.48 221.493 178.437 221.467 178.394 221.467C177.805 221.341 177.244 221.109 176.738 220.78C176.722 220.77 176.706 220.762 176.688 220.757H176.632C176.614 220.76 176.598 220.767 176.582 220.777C176.566 220.786 176.552 220.8 176.542 220.817C176.522 220.848 176.514 220.886 176.519 220.923C176.525 220.961 176.545 220.996 176.575 221.02C177.23 221.45 177.969 221.733 178.742 221.85C179.44 222.446 180.312 222.797 181.226 222.85C181.587 222.866 180.994 222.89 181.352 222.817L181.23 221.08Z" fill="black"/>
<path d="M182.48 220.333C182.012 220.759 181.465 221.088 180.87 221.3C180.275 221.513 179.645 221.604 179.015 221.57L178.65 221.55C178.023 221.51 177.41 221.344 176.848 221.06C176.283 220.773 175.781 220.375 175.371 219.89C174.956 219.401 174.64 218.835 174.44 218.223C174.242 217.607 174.164 216.959 174.208 216.313L174.659 209.387C174.684 208.951 174.881 208.543 175.205 208.253C175.361 208.11 175.544 208.001 175.744 207.931C175.943 207.861 176.154 207.832 176.365 207.847L182.632 208.243C182.905 208.262 183.171 208.336 183.415 208.46C183.659 208.585 183.876 208.757 184.053 208.967C184.413 209.399 184.593 209.954 184.557 210.517L184.123 216.947C184.026 218.246 183.438 219.458 182.48 220.333Z" fill="#FC9D9D"/>
<path d="M179.091 214.073C179.092 213.97 179.063 213.869 179.008 213.783C178.952 213.696 178.872 213.628 178.779 213.587C178.685 213.546 178.581 213.534 178.48 213.552C178.38 213.569 178.287 213.617 178.212 213.688C178.138 213.759 178.087 213.85 178.064 213.95C178.041 214.051 178.048 214.156 178.084 214.252C178.12 214.348 178.184 214.432 178.267 214.492C178.35 214.552 178.449 214.586 178.551 214.59C178.62 214.592 178.689 214.58 178.753 214.555C178.818 214.53 178.877 214.492 178.927 214.444C178.977 214.396 179.018 214.339 179.046 214.275C179.074 214.211 179.089 214.143 179.091 214.073Z" fill="black"/>
<path d="M178.697 214.137C178.698 214.123 178.696 214.109 178.691 214.095C178.686 214.082 178.679 214.069 178.669 214.058C178.66 214.048 178.648 214.039 178.635 214.033C178.622 214.027 178.608 214.024 178.594 214.024C178.58 214.023 178.566 214.025 178.553 214.03C178.539 214.034 178.527 214.042 178.517 214.051C178.507 214.061 178.499 214.073 178.493 214.086C178.487 214.099 178.485 214.113 178.485 214.127C178.483 214.142 178.485 214.156 178.489 214.17C178.493 214.184 178.5 214.196 178.51 214.207C178.519 214.218 178.531 214.227 178.543 214.233C178.556 214.24 178.57 214.243 178.584 214.244C178.613 214.244 178.641 214.233 178.661 214.214C178.683 214.194 178.695 214.167 178.697 214.137Z" fill="white"/>
<path d="M183.119 214.246C183.121 214.143 183.092 214.042 183.037 213.955C182.982 213.868 182.903 213.8 182.809 213.758C182.716 213.717 182.612 213.704 182.511 213.721C182.41 213.739 182.316 213.786 182.242 213.856C182.167 213.927 182.115 214.019 182.092 214.119C182.069 214.219 182.076 214.324 182.112 214.421C182.148 214.517 182.212 214.601 182.294 214.661C182.378 214.722 182.477 214.756 182.579 214.76C182.648 214.762 182.717 214.75 182.781 214.726C182.846 214.701 182.905 214.664 182.955 214.616C183.005 214.569 183.045 214.511 183.074 214.448C183.102 214.384 183.117 214.316 183.119 214.246Z" fill="black"/>
<path d="M182.724 214.283C182.724 214.262 182.718 214.242 182.707 214.224C182.695 214.207 182.679 214.193 182.66 214.185C182.64 214.177 182.619 214.174 182.599 214.178C182.578 214.182 182.56 214.192 182.545 214.207C182.53 214.221 182.519 214.24 182.515 214.261C182.51 214.281 182.512 214.302 182.519 214.322C182.527 214.342 182.54 214.359 182.557 214.371C182.574 214.383 182.594 214.39 182.615 214.39C182.643 214.39 182.671 214.379 182.691 214.359C182.712 214.339 182.724 214.312 182.724 214.283Z" fill="white"/>
<path opacity="0.15" d="M174.046 215.843L174.774 215.903L173.84 217.333L174.046 215.843Z" fill="black"/>
<path opacity="0.3" d="M181.584 216.76C181.563 216.84 181.525 216.914 181.471 216.977C181.421 217.042 181.355 217.094 181.279 217.127C181.207 217.163 181.128 217.181 181.047 217.18L180.355 217.22H180.289C180.268 217.216 180.247 217.207 180.229 217.194C180.214 217.18 180.2 217.165 180.189 217.147C180.177 217.128 180.17 217.106 180.166 217.084C180.163 217.061 180.163 217.039 180.166 217.017C180.173 216.996 180.184 216.976 180.199 216.96C180.214 216.943 180.232 216.931 180.252 216.924C180.273 216.919 180.295 216.919 180.315 216.924L181.008 216.887C181.049 216.884 181.09 216.873 181.127 216.854C181.165 216.836 181.197 216.81 181.223 216.777C181.253 216.746 181.274 216.708 181.286 216.667C181.298 216.627 181.304 216.585 181.302 216.544C181.296 216.458 181.257 216.378 181.193 216.32C181.134 216.261 181.055 216.226 180.971 216.224C180.937 216.218 180.906 216.201 180.882 216.177C180.858 216.151 180.843 216.118 180.839 216.082C180.835 216.047 180.842 216.011 180.859 215.98C180.878 215.95 180.906 215.927 180.938 215.914C181.102 215.91 181.262 215.971 181.382 216.084C181.502 216.2 181.574 216.357 181.584 216.524C181.599 216.602 181.599 216.682 181.584 216.76Z" fill="black"/>
<path d="M174.853 216.03C174.853 216.03 172.571 216.24 172.084 213.896C171.597 211.553 174.403 211.113 174.797 213.473L175.102 216.05L174.853 216.03Z" fill="#FC9D9D"/>
<path opacity="0.3" d="M172.707 212.853C172.695 212.818 172.695 212.779 172.707 212.743C172.717 212.708 172.738 212.678 172.767 212.656C172.865 212.577 172.977 212.519 173.098 212.486C173.217 212.453 173.341 212.446 173.463 212.466C173.584 212.493 173.698 212.548 173.794 212.626C173.892 212.704 173.972 212.803 174.026 212.916C174.192 213.192 174.278 213.508 174.274 213.83V214.076C174.274 214.256 173.976 214.323 173.973 214.1L173.95 213.83C173.946 213.566 173.879 213.308 173.754 213.076C173.717 213.001 173.666 212.934 173.605 212.876C173.542 212.822 173.469 212.78 173.39 212.753C173.222 212.736 173.054 212.787 172.923 212.893C172.889 212.913 172.85 212.92 172.811 212.912C172.773 212.905 172.739 212.884 172.714 212.853H172.707Z" fill="black"/>
<path d="M174.462 210.507C174.462 210.507 172.829 205.004 181.19 206.507C186.006 207.37 184.615 210.23 184.807 211.32C184.999 212.41 184.161 209.964 184.161 209.964C184.161 209.964 184.294 212.17 183.389 211.577C182.276 210.854 180.945 209.177 180.945 209.177C180.945 209.177 178.421 212.23 175.688 211.754C174.134 211.48 174.462 210.507 174.462 210.507Z" fill="black"/>
<path d="M176.202 209.37C176.202 209.37 175.088 213.653 175.088 214.497C175.088 215.643 173.214 211.897 174.393 208.423L176.202 209.37Z" fill="black"/>
<path d="M177.361 212.917C178.852 212.14 179.6 212.65 179.6 212.65L179.65 212.82C179.65 212.82 178.242 212.66 177.5 213.02L177.361 212.917Z" fill="black"/>
<path d="M183.93 212.96C182.446 212.166 181.694 212.673 181.694 212.673L181.644 212.84C181.644 212.84 183.052 212.693 183.79 213.06L183.93 212.96Z" fill="black"/>
<path fill-rule="evenodd" clip-rule="evenodd" d="M184.433 208.333C183.529 203.697 179.716 199.883 173.502 201.87C169.129 203.727 168.321 208.177 169.315 212.933C173.492 207.403 182.045 206.957 184.433 208.333Z" fill="#927463"/>
<path fill-rule="evenodd" clip-rule="evenodd" d="M184.583 211.25L187.014 209.917C188.531 209.047 188.399 208.053 186.312 206.25C184.987 205.093 184.291 205.137 181.817 205.953C178.113 207.167 172.913 208.287 170.154 211C169.606 211.518 169.242 212.201 169.116 212.945C168.99 213.69 169.109 214.456 169.455 215.127C169.806 215.793 170.422 216.207 171.127 216.663C170.706 215.926 170.411 215.123 170.256 214.287C170.11 213.22 170.412 212.197 171.697 211.32C173.903 209.813 177.524 208.68 180.482 207.987C182.609 207.517 184.838 208.56 184.583 211.25Z" fill="#927463"/>
<path opacity="0.2" fill-rule="evenodd" clip-rule="evenodd" d="M184.583 211.25L187.014 209.917C188.531 209.047 188.399 208.053 186.312 206.25C184.987 205.093 184.291 205.137 181.817 205.953C178.113 207.167 172.913 208.287 170.154 211C169.606 211.518 169.242 212.201 169.116 212.945C168.99 213.69 169.109 214.456 169.455 215.127C169.806 215.793 170.422 216.207 171.127 216.663C170.706 215.926 170.411 215.123 170.256 214.287C170.11 213.22 170.412 212.197 171.697 211.32C173.903 209.813 177.524 208.68 180.482 207.987C182.609 207.517 184.838 208.56 184.583 211.25Z" fill="black"/>
<path opacity="0.2" fill-rule="evenodd" clip-rule="evenodd" d="M172.72 202.154C172.72 202.154 172.343 204.07 174.138 208.534L172.793 209.174C172.793 209.174 171.021 203.294 172.72 202.154Z" fill="black"/>
<path opacity="0.3" d="M180.862 219.297C180.862 219.224 180.803 219.164 180.71 219.154H180.047C180.026 219.15 180.005 219.15 179.984 219.154C179.965 219.161 179.949 219.172 179.935 219.187C179.918 219.2 179.906 219.217 179.898 219.237C179.895 219.257 179.895 219.277 179.898 219.297C179.899 219.338 179.914 219.377 179.941 219.407C179.969 219.437 180.007 219.454 180.047 219.457H180.74C180.72 219.474 180.74 219.474 180.74 219.457C180.769 219.474 180.836 219.407 180.862 219.297Z" fill="black"/>
<path opacity="0.3" d="M181.118 218.723C181.33 218.68 181.537 218.616 181.737 218.533C181.756 218.525 181.772 218.514 181.787 218.5C181.8 218.487 181.811 218.471 181.817 218.453C181.819 218.435 181.819 218.417 181.817 218.4C181.82 218.381 181.82 218.362 181.817 218.343C181.81 218.326 181.8 218.31 181.787 218.296C181.773 218.283 181.758 218.273 181.74 218.266C181.722 218.262 181.703 218.262 181.684 218.266C181.665 218.263 181.646 218.263 181.628 218.266C180.18 218.87 179.511 218.206 179.309 217.89C179.299 217.872 179.286 217.857 179.269 217.846C179.253 217.833 179.233 217.824 179.213 217.82C179.193 217.814 179.173 217.813 179.153 217.816C179.132 217.82 179.114 217.828 179.097 217.84C179.08 217.851 179.067 217.866 179.057 217.883C179.045 217.9 179.037 217.919 179.034 217.94C179.029 217.959 179.029 217.98 179.034 218C179.039 218.019 179.048 218.037 179.061 218.053C179.286 218.366 179.899 219 181.118 218.72V218.723Z" fill="black"/>
<path d="M368.145 330.107H362.513V349.52H368.145V330.107Z" fill="#61656D"/>
<path d="M371.788 331.4H358.207L357.213 327.52H372.782L371.788 331.4Z" fill="#927463"/>
<path d="M215.438 330.107H209.807V349.52H215.438V330.107Z" fill="#61656D"/>
<path d="M219.082 331.4H205.501L204.507 327.52H220.076L219.082 331.4Z" fill="#927463"/>
<path fill-rule="evenodd" clip-rule="evenodd" d="M264.715 103.787C261.959 102.667 261.615 98.6666 261.615 98.6666H254.658C254.658 98.6666 254.327 102.667 251.558 103.793C250.233 104.337 247.199 104.987 244.337 106.177C242.445 106.964 240.827 108.299 239.689 110.012C238.551 111.725 237.944 113.739 237.944 115.8V115.837H278.333V115.8C278.336 113.74 277.731 111.726 276.596 110.012C275.461 108.297 273.847 106.961 271.956 106.17C269.094 104.98 266.077 104.333 264.732 103.787" fill="#868A91"/>
<path d="M260.872 97.7063H255.4V98.6596H260.872V97.7063Z" fill="#61656D"/>
<path d="M260.008 95.7833H256.269V97.7067H260.008V95.7833Z" fill="#61656D"/>
<path d="M260.872 97.7063H255.4V98.6596H260.872V97.7063Z" fill="#61656D"/>
<path d="M260.008 95.7833H256.269V97.7067H260.008V95.7833Z" fill="#61656D"/>
<path fill-rule="evenodd" clip-rule="evenodd" d="M258.468 95.7831H257.806V58.623L258.468 58.673V95.7831Z" fill="#61656D"/>
<path opacity="0.2" fill-rule="evenodd" clip-rule="evenodd" d="M278.333 115.793C278.334 113.735 277.73 111.722 276.594 110.009C275.46 108.296 273.846 106.96 271.956 106.17C269.094 104.98 266.077 104.333 264.732 103.787C261.959 102.667 261.615 98.6666 261.615 98.6666H260.131L260.005 98.69C260.005 98.69 259.551 103.613 263.857 105.673C265.739 106.573 269.419 108.23 270.731 109.857C271.93 111.343 272.075 113.307 272.075 115.837H278.333V115.793Z" fill="black"/>
<path d="M444.405 350.523H69.2876C69.2127 350.54 69.1349 350.54 69.06 350.523C68.9851 350.507 68.9149 350.473 68.855 350.427C68.7947 350.377 68.746 350.317 68.7125 350.247C68.6794 350.177 68.6618 350.1 68.6618 350.023C68.6618 349.947 68.6794 349.87 68.7125 349.8C68.746 349.73 68.7947 349.67 68.855 349.62C68.9149 349.573 68.9851 349.54 69.06 349.523C69.1349 349.507 69.2127 349.507 69.2876 349.523H444.405C444.481 349.507 444.557 349.507 444.634 349.523C444.706 349.54 444.776 349.573 444.839 349.62C444.899 349.67 444.945 349.73 444.981 349.8C445.014 349.87 445.031 349.947 445.031 350.023C445.031 350.1 445.014 350.177 444.981 350.247C444.945 350.317 444.899 350.377 444.839 350.427C444.776 350.473 444.706 350.507 444.634 350.523C444.557 350.54 444.481 350.54 444.405 350.523Z" fill="#B2B6BB"/>
<ellipse cx="150.5" cy="77" rx="57.5" ry="55" fill="#927463" fill-opacity="0.1"/>
<circle cx="89" cy="342" r="30" fill="#927463" fill-opacity="0.11"/>
</svg>
