<svg width="500" height="500" viewBox="0 0 1500 1500" fill="none" xmlns="http://www.w3.org/2000/svg">
<path opacity="0.27" d="M396.256 137.207C396.256 137.207 590.539 24.5431 800.32 210.73C1010.1 396.916 1106.66 441.903 1223.03 379.523C1339.39 317.143 1543.27 370.313 1476.22 593.401C1409.16 816.49 1062.13 962.472 1214.68 1185.08C1367.23 1407.69 1132.08 1534.9 966.863 1434.98C801.641 1335.06 775.368 1169.38 586.466 1195.48C397.564 1221.58 179.894 1204.32 137.818 979.18C95.7422 754.036 334.585 727.617 299.273 575.935C263.961 424.253 215.108 250.347 396.256 137.207Z" fill="#9E97FC"/>
<path opacity="0.27" d="M490.865 1272.2C490.865 1272.2 641.067 1196.51 777.08 1367.72C808.356 1408.49 762.085 1509.61 671.988 1448.32C581.892 1387.02 579.861 1331.54 507.219 1346.79C434.577 1362.05 443.42 1286.55 490.865 1272.2Z" fill="#9E97FC"/>
<path d="M1224.44 158.183C1224.44 158.183 1303.61 160.911 1303.61 226.422C1303.61 273.33 1251.74 317.877 1292.7 338.352C1333.65 358.827 1359.56 387.486 1322.72 477.558C1285.88 567.63 1377.31 556.744 1378.69 659.084C1380.08 761.424 1298.16 820.147 1225.8 814.68C1161.82 809.861 1112.51 780.566 1096.15 717.782C1079.78 654.999 1140.56 648.736 1089.32 570.37C1019.71 463.956 1193.06 414.774 1137.1 343.807C1081.14 272.841 1131.62 159.553 1224.44 158.183Z" fill="#89B5F7"/>
<path d="M1337.73 659.084C1336.36 556.719 1244.92 567.642 1281.77 477.558C1318.63 387.473 1292.7 358.815 1251.74 338.352C1210.79 317.889 1262.67 273.33 1262.67 226.422C1262.67 181.435 1225.34 166.061 1201.95 160.838C1123.89 178.353 1085.85 278.81 1137.12 343.807C1193.08 414.749 1019.7 463.92 1089.35 570.37C1140.59 648.736 1079.8 654.999 1096.17 717.782C1111.54 776.652 1155.84 806.069 1214.05 813.493C1277.52 803.745 1338.92 747.835 1337.73 659.084Z" fill="#AAC8F9"/>
<path fill-rule="evenodd" clip-rule="evenodd" d="M1224.44 158.183C1224.44 158.183 1303.61 160.911 1303.61 226.422C1303.61 273.33 1251.74 317.877 1292.7 338.352C1333.65 358.827 1359.56 387.486 1322.72 477.558C1285.88 567.63 1377.31 556.744 1378.69 659.084C1380.08 761.424 1298.16 820.147 1225.8 814.68C1161.82 809.861 1112.51 780.566 1096.15 717.782C1079.78 654.999 1140.56 648.736 1089.32 570.37C1019.71 463.956 1193.06 414.774 1137.1 343.807C1081.14 272.841 1131.62 159.553 1224.44 158.183Z" stroke="#5A4DAA" stroke-width="4"/>
<path d="M1220.36 158.183V1103.49V158.183Z" fill="#AAC8F9"/>
<path d="M1220.36 158.183V1103.49" stroke="#5A4DAA" stroke-width="4"/>
<path d="M1299.19 212.76L1220.9 290.478L1299.19 212.76Z" fill="#AAC8F9"/>
<path d="M1299.19 212.76L1220.9 290.478" stroke="#5A4DAA" stroke-width="4" stroke-linecap="round"/>
<path d="M1171.21 175.931L1221.4 224.967L1171.21 175.931Z" fill="#AAC8F9"/>
<path d="M1171.21 175.931L1221.4 224.967" stroke="#5A4DAA" stroke-width="4" stroke-linecap="round"/>
<path d="M1116.62 264.646L1221.4 369.64L1116.62 264.646Z" fill="#AAC8F9"/>
<path d="M1116.62 264.646L1221.4 369.64" stroke="#5A4DAA" stroke-width="4"/>
<path d="M1098.88 450.269L1221.4 579.837L1098.88 450.269Z" fill="#AAC8F9"/>
<path d="M1098.88 450.269L1221.4 579.837" stroke="#5A4DAA" stroke-width="4"/>
<path d="M1322.72 354.73L1220.9 456.997L1322.72 354.73Z" fill="#AAC8F9"/>
<path d="M1322.72 354.73L1220.9 456.997" stroke="#5A4DAA" stroke-width="4"/>
<path d="M1337.73 569.012L1220.9 694.482L1337.73 569.012Z" fill="#AAC8F9"/>
<path d="M1337.73 569.012L1220.9 694.482" stroke="#5A4DAA" stroke-width="4"/>
<path d="M1127.25 1294.3H1043.7C1043.7 1294.3 1022.76 1239.42 1061.13 1242.02C1099.5 1244.63 1034.99 1169.72 1060.25 1147.94C1085.51 1126.15 1113.4 1145.32 1122.98 1168.84C1132.57 1192.36 1157.83 1174.07 1157.83 1174.07C1157.83 1174.07 1149.97 1091.26 1177 1085.21C1204.03 1079.17 1229.26 1108.73 1224.04 1181.05C1249.31 1134.87 1286.59 1114.87 1301.1 1158.41C1315.6 1201.94 1276.37 1241.15 1276.37 1241.15C1276.37 1241.15 1333.85 1175.81 1356.51 1194.98C1379.16 1214.15 1350.39 1262.94 1350.39 1262.94C1350.39 1262.94 1421.82 1223.73 1420.11 1294.3H1127.25Z" fill="#609AEF" stroke="#5A4DAA" stroke-width="4"/>
<path d="M1096.85 1294.3C1096.85 1294.3 1023.67 1239.42 1048.92 1194.11C1074.18 1148.8 1112.53 1213.28 1112.53 1213.28C1112.53 1213.28 1062 1093.05 1112.53 1070.4C1163.05 1047.75 1191.81 1194.11 1191.81 1194.11C1191.81 1194.11 1190.93 1084.33 1240.59 1085.25C1290.25 1086.17 1257.15 1201.99 1257.15 1201.99C1257.15 1201.99 1299.84 1141 1327.71 1154.95C1355.59 1168.89 1327.71 1229.86 1314.65 1238.57C1301.59 1247.28 1363.43 1198.5 1379.11 1214.18C1394.79 1229.86 1365.18 1284.76 1351.23 1294.33L1096.85 1294.3Z" fill="#AAC8F9"/>
<path d="M1252.78 1134.87C1260.62 1173.19 1252.78 1210.71 1252.78 1210.71C1252.78 1210.71 1255.62 1206.05 1259.82 1198.37C1258.1 1200.63 1257.15 1202.04 1257.15 1202.04C1257.15 1202.04 1290.25 1086.17 1240.59 1085.3C1225.62 1085.03 1215.23 1094.84 1208.04 1108.66C1208.04 1108.58 1244.94 1096.54 1252.78 1134.87Z" fill="#89B5F7"/>
<path d="M1294.8 1256.47C1306.62 1246.29 1317.35 1234.91 1326.81 1222.51C1338.55 1200.87 1348.23 1165.16 1327.71 1154.91C1319.6 1150.85 1310.25 1153.13 1301.05 1158.41C1301.05 1158.41 1332.94 1174.08 1315.52 1218.5C1307.89 1237.96 1300.6 1249.56 1294.8 1256.47Z" fill="#89B5F7"/>
<path d="M1191.81 1194.11C1191.81 1194.11 1163.05 1047.75 1112.53 1070.46C1102.83 1074.8 1096.86 1082.69 1093.53 1092.76C1129.94 1079.98 1163.96 1134.14 1191.81 1194.11Z" fill="#89B5F7"/>
<path d="M1113.4 1218.46C1111.83 1214.11 1109.89 1209.89 1107.6 1205.86C1096.45 1190.37 1068.69 1158.64 1048.89 1194.07C1045.4 1200.27 1043.58 1207.27 1043.6 1214.38C1044.18 1214.15 1087.43 1192.53 1113.4 1218.46Z" fill="#89B5F7"/>
<path d="M1379.11 1214.15C1373.78 1208.81 1363.11 1210.94 1351.87 1215.71C1352.2 1215.71 1374.56 1214.49 1347.75 1258.52C1332.15 1284.21 1278.56 1292.11 1236.05 1294.24H1351.23C1365.24 1284.72 1394.79 1229.83 1379.11 1214.15Z" fill="#89B5F7"/>
<path fill-rule="evenodd" clip-rule="evenodd" d="M1096.85 1294.3C1096.85 1294.3 1023.67 1239.42 1048.92 1194.11C1074.18 1148.8 1112.53 1213.28 1112.53 1213.28C1112.53 1213.28 1062 1093.05 1112.53 1070.4C1163.05 1047.75 1191.81 1194.11 1191.81 1194.11C1191.81 1194.11 1190.93 1084.33 1240.59 1085.25C1290.25 1086.17 1257.15 1201.99 1257.15 1201.99C1257.15 1201.99 1299.84 1141 1327.71 1154.95C1355.59 1168.89 1327.71 1229.86 1314.65 1238.57C1301.59 1247.28 1363.43 1198.5 1379.11 1214.18C1394.79 1229.86 1365.18 1284.76 1351.23 1294.33L1096.85 1294.3Z" stroke="#5A4DAA" stroke-width="4"/>
<path d="M12.4463 625.986C12.4463 649.898 26.4512 669.273 43.7342 669.273H854.444C871.715 669.273 885.72 649.898 885.72 625.986V119.814H12.4463V625.986Z" fill="#D2E1F9"/>
<path fill-rule="evenodd" clip-rule="evenodd" d="M12.4463 625.986C12.4463 649.898 26.4512 669.273 43.7342 669.273H854.444C871.715 669.273 885.72 649.898 885.72 625.986V119.814H12.4463V625.986Z" stroke="#5A4DAA" stroke-width="4"/>
<path d="M854.444 32.0165H43.7342C26.4512 32.0165 12.4463 46.4007 12.4463 64.1484V119.814H885.769V64.1484C885.769 46.4007 871.715 32.0165 854.444 32.0165Z" fill="#AAC8F9" stroke="#5A4DAA" stroke-width="4"/>
<path d="M52.1005 94.3233C58.3558 94.3233 63.4268 89.2524 63.4268 82.997C63.4268 76.7417 58.3558 71.6707 52.1005 71.6707C45.8452 71.6707 40.7742 76.7417 40.7742 82.997C40.7742 89.2524 45.8452 94.3233 52.1005 94.3233Z" fill="#5A4DAA"/>
<path d="M89.8588 94.3233C96.1142 94.3233 101.185 89.2524 101.185 82.997C101.185 76.7417 96.1142 71.6707 89.8588 71.6707C83.6035 71.6707 78.5326 76.7417 78.5326 82.997C78.5326 89.2524 83.6035 94.3233 89.8588 94.3233Z" fill="#5A4DAA"/>
<path d="M127.629 94.3233C133.885 94.3233 138.956 89.2524 138.956 82.997C138.956 76.7417 133.885 71.6707 127.629 71.6707C121.374 71.6707 116.303 76.7417 116.303 82.997C116.303 89.2524 121.374 94.3233 127.629 94.3233Z" fill="#5A4DAA"/>
<path d="M813.028 76.3921H867.788" stroke="#5A4DAA" stroke-width="4"/>
<path d="M92.2929 305.107V297.768C92.3058 294.628 93.5657 291.622 95.7953 289.41C98.0249 287.199 101.042 285.964 104.182 285.977H171.858C174.999 285.978 178.011 287.222 180.237 289.439L194.694 303.908" stroke="white" stroke-width="4" stroke-linecap="round"/>
<path d="M282.369 371.854V196.113H229.676V371.854C229.676 373.636 228.467 375.192 226.741 375.633C157.792 393.198 112.988 471.344 152.533 550.053C160.507 565.954 180.078 585.598 195.954 593.597C285.439 638.694 374.276 574.846 374.276 490.242C374.274 436.199 337.649 389.027 285.292 375.633C283.568 375.191 282.364 373.634 282.369 371.854Z" fill="#AAC8F9"/>
<path d="M285.292 375.633C283.568 375.191 282.364 373.634 282.369 371.854V196.113H231.388C231.243 198.559 231.284 201.012 231.511 203.452C231.511 203.452 265.82 203.452 267.055 267.789C267.948 315.076 267.532 359.72 267.239 380.061C267.134 386.691 270.484 392.898 276.082 396.451C295.334 408.683 337.679 445.732 325.264 531.266C311.1 628.775 216.943 608.324 182.267 584.582C186.508 588.031 191.08 591.051 195.917 593.597C285.402 638.694 374.239 574.846 374.239 490.242C374.242 436.209 337.635 389.041 285.292 375.633Z" fill="#89B5F7"/>
<path d="M169.803 573.268C170.635 574.137 171.479 574.981 172.335 575.813C171.627 574.839 170.773 573.981 169.803 573.268L169.803 573.268Z" fill="#89B5F7"/>
<path opacity="0.63" d="M371.462 464.482C358.167 512.723 301.584 532.685 244.99 496.981C200.957 469.228 159.138 480.139 137.769 489.324C137.622 508.809 142.173 529.407 152.533 550.053C160.507 565.954 180.078 585.598 195.954 593.597C285.439 638.694 374.276 574.846 374.276 490.242C374.283 481.578 373.34 472.94 371.462 464.482Z" fill="white"/>
<path fill-rule="evenodd" clip-rule="evenodd" d="M282.369 371.854V196.113H229.676V371.854C229.676 373.636 228.467 375.192 226.741 375.633C157.792 393.198 112.988 471.344 152.533 550.053C160.507 565.954 180.078 585.598 195.954 593.597C285.439 638.694 374.276 574.846 374.276 490.242C374.274 436.199 337.649 389.027 285.292 375.633C283.568 375.191 282.364 373.634 282.369 371.854Z" stroke="#5A4DAA" stroke-width="4"/>
<rect x="221.273" y="181.179" width="69.6701" height="22.4569" rx="8.83" fill="#AAC8F9"/>
<path d="M221.273 191.269V193.557C221.277 194.634 221.454 195.704 221.799 196.725H267.055C269.728 196.725 272.292 195.663 274.182 193.773C276.072 191.883 277.134 189.319 277.134 186.646V184.359C277.135 183.3 276.97 182.247 276.645 181.24H231.388C225.83 181.226 221.307 185.711 221.273 191.269H221.273Z" fill="#D2E1F9"/>
<rect x="221.273" y="181.179" width="69.6701" height="22.4569" rx="8.83" stroke="#5A4DAA" stroke-width="4"/>
<path opacity="0.63" d="M209.127 424.424C215.747 424.424 221.114 419.058 221.114 412.438C221.114 405.818 215.747 400.451 209.127 400.451C202.507 400.451 197.141 405.818 197.141 412.438C197.141 419.058 202.507 424.424 209.127 424.424Z" fill="white"/>
<path opacity="0.63" d="M319.418 461.155C325.011 461.155 329.545 456.621 329.545 451.028C329.545 445.434 325.011 440.9 319.418 440.9C313.825 440.9 309.29 445.434 309.29 451.028C309.29 456.621 313.825 461.155 319.418 461.155Z" fill="white"/>
<path opacity="0.63" d="M290.014 569.636C296.634 569.636 302 564.269 302 557.649C302 551.029 296.634 545.662 290.014 545.662C283.393 545.662 278.027 551.029 278.027 557.649C278.027 564.269 283.393 569.636 290.014 569.636Z" fill="white"/>
<path opacity="0.63" d="M259.521 479.564C274.342 479.564 286.356 467.549 286.356 452.728C286.356 437.907 274.342 425.892 259.521 425.892C244.7 425.892 232.685 437.907 232.685 452.728C232.685 467.549 244.7 479.564 259.521 479.564Z" fill="white"/>
<path opacity="0.63" d="M192.578 550.029C203.927 550.029 213.127 540.829 213.127 529.48C213.127 518.131 203.927 508.931 192.578 508.931C181.229 508.931 172.029 518.131 172.029 529.48C172.029 540.829 181.229 550.029 192.578 550.029Z" fill="white"/>
<path opacity="0.63" d="M255.998 366.815C262.105 366.815 267.055 361.864 267.055 355.757C267.055 349.651 262.105 344.7 255.998 344.7C249.891 344.7 244.941 349.651 244.941 355.757C244.941 361.864 249.891 366.815 255.998 366.815Z" fill="white"/>
<path opacity="0.63" d="M255.998 299.407C261.085 299.407 265.208 295.284 265.208 290.197C265.208 285.11 261.085 280.987 255.998 280.987C250.911 280.987 246.788 285.11 246.788 290.197C246.788 295.284 250.911 299.407 255.998 299.407Z" fill="white"/>
<path d="M318.329 270.871L338.474 244.476C343.043 238.524 350.125 235.042 357.629 235.058H499.599" stroke="white" stroke-width="4" stroke-linecap="round"/>
<rect opacity="0.63" x="499.599" y="196.284" width="291.719" height="84.9716" rx="19.71" fill="white"/>
<rect x="499.599" y="196.284" width="291.719" height="84.9716" rx="19.71" stroke="#5A4DAA" stroke-width="4"/>
<rect opacity="0.63" x="39.8202" y="305.107" width="115.183" height="54.5154" rx="19.71" fill="white"/>
<rect x="39.8202" y="305.107" width="115.183" height="54.5154" rx="19.71" stroke="#5A4DAA" stroke-width="4"/>
<rect opacity="0.63" x="533.712" y="321.852" width="257.606" height="22.6526" rx="8.91" fill="white"/>
<rect opacity="0.63" x="460.886" y="363.39" width="330.431" height="22.6526" rx="8.91" fill="white"/>
<rect opacity="0.63" x="460.886" y="404.928" width="330.431" height="22.6526" rx="8.91" fill="white"/>
<rect opacity="0.63" x="460.886" y="446.465" width="124.614" height="22.6526" rx="8.91" fill="white"/>
<rect opacity="0.63" x="612.886" y="446.465" width="38.7124" height="22.6526" rx="8.91" fill="white"/>
<rect opacity="0.63" x="457.107" y="523.878" width="214.306" height="84.9716" rx="24.57" fill="white"/>
<rect opacity="0.63" x="700.683" y="523.878" width="90.6347" height="84.9716" rx="24.57" fill="white"/>
<path opacity="0.63" d="M835.216 181.191C844.343 181.191 851.741 173.792 851.741 164.666C851.741 155.54 844.343 148.141 835.216 148.141C826.09 148.141 818.692 155.54 818.692 164.666C818.692 173.792 826.09 181.191 835.216 181.191Z" fill="white"/>
<path d="M381.199 608.85H397.638" stroke="#5A4DAA" stroke-width="4" stroke-linecap="round"/>
<path d="M150.282 608.85H360.026" stroke="#5A4DAA" stroke-width="4" stroke-linecap="round"/>
<path d="M137.892 1074C137.892 1086.23 148.9 1096.15 162.55 1096.15H801.714C815.34 1096.15 826.373 1086.23 826.373 1074V814.949H137.892V1074Z" fill="#D2E1F9" stroke="#5A4DAA" stroke-width="4"/>
<path d="M801.714 747.554H162.55C156.008 747.554 149.734 750.153 145.11 754.78C140.485 759.407 137.888 765.682 137.892 772.224V814.949H826.373V772.224C826.376 765.682 823.78 759.407 819.155 754.78C814.53 750.153 808.256 747.554 801.714 747.554Z" fill="#AAC8F9" stroke="#5A4DAA" stroke-width="4"/>
<path d="M176.298 790.315C181.101 790.315 184.995 786.421 184.995 781.618C184.995 776.815 181.101 772.922 176.298 772.922C171.495 772.922 167.602 776.815 167.602 781.618C167.602 786.421 171.495 790.315 176.298 790.315Z" fill="#5A4DAA"/>
<path d="M205.287 790.315C210.09 790.315 213.983 786.421 213.983 781.618C213.983 776.815 210.09 772.922 205.287 772.922C200.484 772.922 196.59 776.815 196.59 781.618C196.59 786.421 200.484 790.315 205.287 790.315Z" fill="#5A4DAA"/>
<path d="M234.275 790.315C239.078 790.315 242.972 786.421 242.972 781.618C242.972 776.815 239.078 772.922 234.275 772.922C229.472 772.922 225.579 776.815 225.579 781.618C225.579 786.421 229.472 790.315 234.275 790.315Z" fill="#5A4DAA"/>
<path d="M760.433 781.618H802.461" stroke="#5A4DAA" stroke-width="4"/>
<path opacity="0.63" d="M295.591 1070.03C357.232 1070.03 407.203 1020.06 407.203 958.423C407.203 896.782 357.232 846.812 295.591 846.812C233.95 846.812 183.98 896.782 183.98 958.423C183.98 1020.06 233.95 1070.03 295.591 1070.03Z" fill="white"/>
<path fill-rule="evenodd" clip-rule="evenodd" d="M276.865 1032.97C281.476 1055.54 287.592 1066.55 295.591 1066.55C303.554 1066.55 309.669 1055.56 314.317 1033.03C318.378 1013.01 320.617 986.494 320.617 958.423C320.617 930.352 318.378 903.822 314.317 883.873C309.706 861.306 303.529 850.298 295.591 850.298C287.653 850.298 281.537 861.306 276.865 883.812C272.804 903.761 270.566 930.23 270.566 958.362C270.566 986.494 272.804 1013.01 276.865 1032.97ZM284.253 885.377C288.827 862.884 294.111 857.832 295.591 857.832C297.083 857.832 302.331 862.884 306.93 885.377C310.868 904.85 313.045 930.792 313.045 958.423C313.045 986.054 310.905 1012 306.93 1031.47C302.355 1053.95 297.071 1059.01 295.591 1059.01C294.111 1059.01 288.827 1053.95 284.253 1031.47C280.314 1012 278.137 986.054 278.137 958.423C278.137 930.792 280.277 904.85 284.253 885.377Z" fill="#5A4DAA"/>
<path d="M276.865 1032.97L276.375 1033.07L276.375 1033.07L276.865 1032.97ZM314.317 1033.03L314.807 1033.14L314.807 1033.13L314.317 1033.03ZM314.317 883.873L314.807 883.773L314.807 883.773L314.317 883.873ZM276.865 883.812L276.375 883.71L276.375 883.712L276.865 883.812ZM284.253 885.377L284.742 885.477L284.743 885.477L284.253 885.377ZM306.93 885.377L307.42 885.278L307.419 885.277L306.93 885.377ZM306.93 1031.47L306.44 1031.37L306.44 1031.37L306.93 1031.47ZM284.253 1031.47L283.762 1031.57L283.763 1031.57L284.253 1031.47ZM295.591 1066.05C291.863 1066.05 288.466 1063.49 285.394 1057.98C282.326 1052.47 279.657 1044.14 277.355 1032.87L276.375 1033.07C278.684 1044.37 281.378 1052.83 284.521 1058.47C287.659 1064.1 291.319 1067.05 295.591 1067.05V1066.05ZM313.828 1032.93C311.507 1044.18 308.828 1052.5 305.761 1058C302.688 1063.5 299.3 1066.05 295.591 1066.05V1067.05C299.845 1067.05 303.496 1064.1 306.634 1058.48C309.777 1052.85 312.48 1044.42 314.807 1033.14L313.828 1032.93ZM320.117 958.423C320.117 986.472 317.88 1012.95 313.827 1032.94L314.807 1033.13C318.877 1013.07 321.117 986.516 321.117 958.423H320.117ZM313.827 883.972C317.88 903.879 320.117 930.374 320.117 958.423H321.117C321.117 930.33 318.877 903.765 314.807 883.773L313.827 883.972ZM295.591 850.798C299.288 850.798 302.685 853.351 305.765 858.866C308.841 864.372 311.525 872.706 313.827 883.973L314.807 883.773C312.498 872.472 309.789 864.019 306.638 858.379C303.493 852.748 299.833 849.798 295.591 849.798V850.798ZM277.354 883.913C279.687 872.676 282.372 864.357 285.44 858.859C288.513 853.351 291.895 850.798 295.591 850.798V849.798C291.349 849.798 287.704 852.749 284.567 858.371C281.424 864.003 278.715 872.441 276.375 883.71L277.354 883.913ZM271.066 958.362C271.066 930.252 273.303 903.818 277.355 883.911L276.375 883.712C272.305 903.704 270.066 930.208 270.066 958.362H271.066ZM277.355 1032.87C273.303 1012.95 271.066 986.472 271.066 958.362H270.066C270.066 986.516 272.305 1013.07 276.375 1033.07L277.355 1032.87ZM295.591 857.332C295.276 857.332 294.938 857.461 294.604 857.668C294.262 857.879 293.882 858.196 293.474 858.631C292.657 859.501 291.689 860.878 290.637 862.942C288.531 867.072 286.055 874.006 283.763 885.278L284.743 885.477C287.025 874.255 289.478 867.416 291.528 863.397C292.553 861.386 293.47 860.095 294.203 859.315C294.569 858.925 294.881 858.671 295.129 858.519C295.385 858.361 295.536 858.332 295.591 858.332V857.332ZM307.419 885.277C305.115 874.006 302.642 867.072 300.541 862.943C299.491 860.879 298.526 859.501 297.71 858.631C297.302 858.196 296.923 857.879 296.58 857.667C296.246 857.461 295.907 857.332 295.591 857.332V858.332C295.648 858.332 295.8 858.361 296.056 858.519C296.303 858.671 296.615 858.925 296.981 859.315C297.712 860.095 298.627 861.386 299.65 863.396C301.695 867.416 304.145 874.255 306.44 885.477L307.419 885.277ZM313.545 958.423C313.545 930.771 311.367 904.793 307.42 885.278L306.44 885.476C310.369 904.906 312.545 930.814 312.545 958.423H313.545ZM307.419 1031.57C311.404 1012.05 313.545 986.075 313.545 958.423H312.545C312.545 986.033 310.406 1011.94 306.44 1031.37L307.419 1031.57ZM295.591 1059.51C295.907 1059.51 296.244 1059.38 296.578 1059.18C296.921 1058.97 297.3 1058.65 297.708 1058.21C298.526 1057.34 299.493 1055.96 300.545 1053.9C302.651 1049.77 305.127 1042.83 307.42 1031.57L306.44 1031.37C304.157 1042.59 301.704 1049.42 299.654 1053.45C298.629 1055.46 297.712 1056.75 296.979 1057.53C296.613 1057.92 296.3 1058.17 296.053 1058.33C295.797 1058.49 295.645 1058.51 295.591 1058.51V1059.51ZM283.763 1031.57C286.055 1042.83 288.531 1049.77 290.637 1053.9C291.689 1055.96 292.657 1057.34 293.474 1058.21C293.882 1058.65 294.261 1058.97 294.604 1059.18C294.938 1059.38 295.275 1059.51 295.591 1059.51V1058.51C295.537 1058.51 295.385 1058.49 295.129 1058.33C294.882 1058.17 294.569 1057.92 294.203 1057.53C293.47 1056.75 292.553 1055.46 291.528 1053.45C289.478 1049.42 287.025 1042.59 284.743 1031.37L283.763 1031.57ZM277.637 958.423C277.637 986.075 279.815 1012.05 283.762 1031.57L284.743 1031.37C280.813 1011.94 278.637 986.032 278.637 958.423H277.637ZM283.763 885.277C279.779 904.793 277.637 930.772 277.637 958.423H278.637C278.637 930.813 280.776 904.906 284.742 885.477L283.763 885.277Z" fill="#5A4DAA"/>
<path fill-rule="evenodd" clip-rule="evenodd" d="M201.947 1012.49C203.892 1015.85 207.843 1017.54 213.959 1017.54C220.38 1017.54 229.162 1015.67 240.391 1011.91C259.704 1005.47 283.751 994.176 308.104 980.109C332.457 966.043 354.265 950.827 369.505 937.373C386.788 922.071 393.234 911.271 389.235 904.348C385.235 897.425 372.661 897.584 350.791 904.923C331.478 911.369 307.431 922.659 283.078 936.725C258.726 950.791 236.917 966.007 221.677 979.461C204.394 994.763 197.96 1005.56 201.947 1012.49ZM353.177 912.078C365.371 908.005 372.942 906.843 377.37 906.843C380.844 906.843 382.385 907.553 382.715 908.128C383.449 909.412 381.712 916.506 364.515 931.722C349.593 944.895 328.261 959.769 304.337 973.578C280.412 987.387 256.854 998.469 238.006 1004.77C216.234 1012.05 209.225 1010 208.479 1008.72C207.733 1007.43 209.543 1000.33 226.667 985.124C241.589 971.951 262.921 957.078 286.846 943.268C310.77 929.459 334.328 918.378 353.177 912.078Z" fill="#5A4DAA"/>
<path d="M201.947 1012.49L201.514 1012.74L201.515 1012.74L201.947 1012.49ZM240.391 1011.91L240.232 1011.44L240.232 1011.44L240.391 1011.91ZM308.104 980.109L308.354 980.542L308.104 980.109ZM369.505 937.373L369.836 937.748L369.837 937.747L369.505 937.373ZM389.235 904.348L388.802 904.598L389.235 904.348ZM350.791 904.923L350.95 905.397L350.95 905.397L350.791 904.923ZM221.677 979.461L221.346 979.086L221.345 979.087L221.677 979.461ZM353.177 912.078L353.018 911.604L353.018 911.604L353.177 912.078ZM382.715 908.128L383.15 907.88L383.149 907.879L382.715 908.128ZM364.515 931.722L364.846 932.097L364.846 932.096L364.515 931.722ZM304.337 973.578L304.586 974.011L304.337 973.578ZM238.006 1004.77L237.847 1004.29L237.847 1004.29L238.006 1004.77ZM208.479 1008.72L208.047 1008.97H208.047L208.479 1008.72ZM226.667 985.124L226.336 984.749L226.335 984.75L226.667 985.124ZM286.846 943.268L287.096 943.701L286.846 943.268ZM213.959 1017.04C207.916 1017.04 204.193 1015.37 202.38 1012.24L201.515 1012.74C203.591 1016.33 207.77 1018.04 213.959 1018.04V1017.04ZM240.232 1011.44C229.019 1015.19 220.298 1017.04 213.959 1017.04V1018.04C220.462 1018.04 229.305 1016.15 240.549 1012.39L240.232 1011.44ZM307.854 979.676C283.52 993.732 259.505 1005 240.232 1011.44L240.549 1012.39C259.904 1005.93 283.982 994.62 308.354 980.542L307.854 979.676ZM369.175 936.998C353.966 950.424 332.187 965.622 307.854 979.676L308.354 980.542C332.726 966.465 354.564 951.231 369.836 937.748L369.175 936.998ZM388.802 904.598C390.666 907.824 390.159 912.043 386.922 917.462C383.69 922.874 377.803 929.359 369.174 936.999L369.837 937.747C378.491 930.086 384.469 923.52 387.78 917.975C391.087 912.438 391.803 907.795 389.668 904.098L388.802 904.598ZM350.95 905.397C361.869 901.733 370.422 899.878 376.722 899.787C383.03 899.697 386.938 901.371 388.802 904.598L389.668 904.098C387.532 900.402 383.153 898.695 376.707 898.787C370.252 898.88 361.583 900.774 350.632 904.449L350.95 905.397ZM283.328 937.158C307.662 923.102 331.678 911.829 350.95 905.397L350.633 904.449C331.278 910.908 307.2 922.215 282.828 936.292L283.328 937.158ZM222.008 979.836C237.216 966.41 258.995 951.213 283.328 937.158L282.828 936.292C258.456 950.369 236.618 965.604 221.346 979.086L222.008 979.836ZM202.381 1012.24C200.522 1009.01 201.03 1004.79 204.265 999.372C207.496 993.96 213.379 987.475 222.008 979.836L221.345 979.087C212.691 986.749 206.716 993.315 203.406 998.859C200.101 1004.4 199.385 1009.04 201.514 1012.74L202.381 1012.24ZM377.37 906.343C372.866 906.343 365.237 907.523 353.018 911.604L353.335 912.553C365.505 908.488 373.019 907.343 377.37 907.343V906.343ZM383.149 907.879C383.009 907.634 382.773 907.428 382.487 907.256C382.195 907.081 381.821 906.923 381.361 906.79C380.441 906.523 379.137 906.343 377.37 906.343V907.343C379.077 907.343 380.281 907.518 381.083 907.75C381.483 907.866 381.773 907.994 381.972 908.113C382.176 908.236 382.257 908.333 382.282 908.377L383.149 907.879ZM364.846 932.096C373.464 924.472 378.233 918.86 380.759 914.973C382.021 913.03 382.732 911.504 383.078 910.361C383.251 909.79 383.337 909.304 383.349 908.902C383.361 908.509 383.306 908.153 383.15 907.88L382.281 908.376C382.309 908.423 382.359 908.57 382.35 908.87C382.341 909.162 382.276 909.559 382.121 910.071C381.811 911.096 381.15 912.535 379.92 914.428C377.461 918.213 372.763 923.756 364.184 931.348L364.846 932.096ZM304.586 974.011C328.53 960.191 349.892 945.298 364.846 932.097L364.184 931.347C349.294 944.492 327.992 959.347 304.087 973.145L304.586 974.011ZM238.164 1005.24C257.054 998.929 280.643 987.831 304.586 974.011L304.087 973.145C280.181 986.943 256.654 998.008 237.847 1004.29L238.164 1005.24ZM208.047 1008.97C208.205 1009.24 208.486 1009.47 208.832 1009.66C209.186 1009.85 209.651 1010.02 210.232 1010.15C211.394 1010.43 213.07 1010.57 215.384 1010.45C220.012 1010.21 227.254 1008.89 238.164 1005.24L237.847 1004.29C226.985 1007.92 219.837 1009.22 215.332 1009.45C213.078 1009.57 211.502 1009.42 210.46 1009.18C209.939 1009.06 209.563 1008.91 209.306 1008.78C209.041 1008.63 208.939 1008.52 208.911 1008.47L208.047 1008.97ZM226.335 984.75C217.754 992.369 212.986 997.98 210.453 1001.87C209.187 1003.81 208.47 1005.34 208.12 1006.48C207.945 1007.05 207.858 1007.54 207.844 1007.94C207.831 1008.34 207.887 1008.69 208.047 1008.97L208.911 1008.47C208.885 1008.42 208.834 1008.28 208.844 1007.98C208.853 1007.69 208.919 1007.29 209.076 1006.77C209.391 1005.75 210.057 1004.31 211.291 1002.41C213.757 998.627 218.456 993.083 226.999 985.498L226.335 984.75ZM286.596 942.835C262.652 956.656 241.291 971.548 226.336 984.749L226.998 985.499C241.888 972.354 263.19 957.5 287.096 943.701L286.596 942.835ZM353.018 911.604C334.128 917.917 310.539 929.015 286.596 942.835L287.096 943.701C311.002 929.903 334.528 918.838 353.335 912.553L353.018 911.604Z" fill="#5A4DAA"/>
<path fill-rule="evenodd" clip-rule="evenodd" d="M350.791 1011.91C362.02 1015.67 370.802 1017.54 377.223 1017.54C383.315 1017.54 387.29 1015.85 389.235 1012.49C393.234 1005.54 386.776 994.738 369.505 979.461C354.265 965.958 332.457 950.766 308.104 936.725C283.751 922.683 259.704 911.381 240.391 904.923C218.521 897.609 205.935 897.401 201.947 904.348C197.96 911.296 204.406 922.096 221.677 937.373C236.917 950.876 258.726 966.068 283.078 980.109C307.431 994.151 331.478 1005.45 350.791 1011.91ZM208.479 908.066C208.797 907.553 210.338 906.843 213.812 906.843C218.24 906.843 225.811 908.005 238.006 912.017C256.854 918.316 280.4 929.386 304.337 943.207C328.273 957.029 349.642 971.89 364.515 985.063C381.712 1000.27 383.461 1007.37 382.715 1008.66C381.969 1009.94 374.948 1012.05 353.177 1004.71C334.328 998.408 310.77 987.338 286.846 973.517C262.921 959.695 241.541 944.834 226.667 931.661C209.482 916.445 207.733 909.351 208.479 908.066Z" fill="#5A4DAA"/>
<path d="M350.791 1011.91L350.95 1011.44H350.95L350.791 1011.91ZM389.235 1012.49L389.668 1012.74L389.668 1012.74L389.235 1012.49ZM369.505 979.461L369.174 979.835L369.174 979.836L369.505 979.461ZM308.104 936.725L308.354 936.291L308.104 936.725ZM240.391 904.923L240.232 905.397L240.232 905.397L240.391 904.923ZM221.677 937.373L222.008 936.999L222.008 936.998L221.677 937.373ZM283.078 980.109L282.829 980.543L283.078 980.109ZM208.479 908.066L208.054 907.803L208.047 907.815L208.479 908.066ZM238.006 912.017L238.164 911.543L238.162 911.542L238.006 912.017ZM364.515 985.063L364.184 985.437L364.184 985.438L364.515 985.063ZM382.715 1008.66L383.148 1008.91L382.715 1008.66ZM353.177 1004.71L353.336 1004.23L353.335 1004.23L353.177 1004.71ZM286.846 973.517L287.096 973.084L286.846 973.517ZM226.667 931.661L226.999 931.287L226.999 931.286L226.667 931.661ZM377.223 1017.04C370.884 1017.04 362.163 1015.19 350.95 1011.44L350.633 1012.39C361.877 1016.15 370.72 1018.04 377.223 1018.04V1017.04ZM388.802 1012.24C386.989 1015.37 383.242 1017.04 377.223 1017.04V1018.04C383.387 1018.04 387.591 1016.33 389.668 1012.74L388.802 1012.24ZM369.174 979.836C377.797 987.463 383.684 993.942 386.917 999.354C390.156 1004.77 390.666 1009 388.801 1012.24L389.668 1012.74C391.803 1009.03 391.084 1004.38 387.776 998.841C384.463 993.296 378.485 986.736 369.837 979.087L369.174 979.836ZM307.854 937.158C332.188 951.188 353.966 966.361 369.174 979.835L369.837 979.087C354.564 965.555 332.726 950.344 308.354 936.291L307.854 937.158ZM240.232 905.397C259.504 911.842 283.52 923.127 307.854 937.158L308.354 936.291C283.982 922.239 259.904 910.921 240.549 904.449L240.232 905.397ZM202.381 904.597C204.239 901.36 208.145 899.69 214.456 899.787C220.757 899.884 229.313 901.745 240.232 905.397L240.549 904.449C229.599 900.786 220.927 898.886 214.471 898.787C208.024 898.689 203.643 900.389 201.514 904.099L202.381 904.597ZM222.008 936.998C213.385 929.371 207.502 922.892 204.27 917.481C201.033 912.061 200.522 907.836 202.381 904.597L201.514 904.099C199.385 907.808 200.104 912.456 203.411 917.993C206.723 923.538 212.698 930.098 221.345 937.747L222.008 936.998ZM283.328 979.676C258.995 965.646 237.216 950.473 222.008 936.999L221.345 937.747C236.618 951.279 258.457 966.49 282.829 980.543L283.328 979.676ZM350.95 1011.44C331.678 1004.99 307.662 993.707 283.328 979.676L282.829 980.543C307.2 994.595 331.278 1005.91 350.633 1012.39L350.95 1011.44ZM213.812 906.343C212.044 906.343 210.742 906.523 209.827 906.781C209.369 906.91 208.998 907.06 208.71 907.224C208.431 907.384 208.195 907.575 208.054 907.803L208.904 908.33C208.922 908.301 208.998 908.211 209.206 908.093C209.405 907.979 209.696 907.856 210.097 907.744C210.9 907.518 212.106 907.343 213.812 907.343V906.343ZM238.162 911.542C225.944 907.523 218.315 906.343 213.812 906.343V907.343C218.164 907.343 225.678 908.488 237.849 912.492L238.162 911.542ZM304.587 942.774C280.631 928.942 257.054 917.856 238.164 911.543L237.847 912.491C256.654 918.777 280.168 929.83 304.087 943.64L304.587 942.774ZM364.847 984.689C349.94 971.487 328.542 956.607 304.587 942.774L304.087 943.64C328.005 957.451 349.343 972.293 364.184 985.437L364.847 984.689ZM383.148 1008.91C383.307 1008.63 383.364 1008.28 383.353 1007.88C383.341 1007.48 383.256 1006.99 383.083 1006.42C382.738 1005.28 382.026 1003.75 380.763 1001.81C378.236 997.918 373.464 992.307 364.846 984.689L364.184 985.438C372.764 993.023 377.465 998.566 379.925 1002.35C381.155 1004.25 381.816 1005.69 382.126 1006.71C382.281 1007.22 382.345 1007.62 382.353 1007.91C382.362 1008.21 382.311 1008.36 382.283 1008.41L383.148 1008.91ZM353.017 1005.18C363.927 1008.86 371.173 1010.18 375.805 1010.42C378.121 1010.53 379.799 1010.38 380.963 1010.1C381.545 1009.96 382.009 1009.79 382.363 1009.6C382.71 1009.41 382.99 1009.18 383.148 1008.91L382.283 1008.41C382.254 1008.46 382.152 1008.57 381.886 1008.72C381.629 1008.86 381.252 1009 380.731 1009.13C379.688 1009.38 378.11 1009.53 375.856 1009.42C371.348 1009.19 364.198 1007.89 353.336 1004.23L353.017 1005.18ZM286.596 973.95C310.539 987.782 334.128 998.868 353.018 1005.18L353.335 1004.23C334.528 997.947 311.001 986.894 287.096 973.084L286.596 973.95ZM226.336 932.035C241.242 945.237 262.652 960.117 286.596 973.95L287.096 973.084C263.19 959.273 241.839 944.431 226.999 931.287L226.336 932.035ZM208.047 907.815C207.888 908.089 207.83 908.446 207.842 908.839C207.853 909.242 207.938 909.729 208.111 910.3C208.456 911.442 209.167 912.969 210.43 914.912C212.955 918.799 217.724 924.411 226.336 932.035L226.999 931.286C218.425 923.695 213.727 918.152 211.268 914.367C210.038 912.474 209.378 911.035 209.068 910.01C208.913 909.498 208.85 909.101 208.841 908.811C208.833 908.51 208.884 908.365 208.911 908.318L208.047 907.815Z" fill="#5A4DAA"/>
<path d="M346.779 885.438C354.947 885.438 361.567 878.818 361.567 870.651C361.567 862.484 354.947 855.863 346.779 855.863C338.612 855.863 331.992 862.484 331.992 870.651C331.992 878.818 338.612 885.438 346.779 885.438Z" fill="#AAC8F9"/>
<path d="M227.902 884.912C233.104 884.912 237.321 880.696 237.321 875.494C237.321 870.293 233.104 866.076 227.902 866.076C222.701 866.076 218.484 870.293 218.484 875.494C218.484 880.696 222.701 884.912 227.902 884.912Z" fill="#AAC8F9"/>
<path d="M192.933 962.912C198.134 962.912 202.351 958.695 202.351 953.494C202.351 948.292 198.134 944.076 192.933 944.076C187.731 944.076 183.515 948.292 183.515 953.494C183.515 958.695 187.731 962.912 192.933 962.912Z" fill="#AAC8F9"/>
<path d="M241.345 1056.51C248.627 1056.51 254.53 1050.6 254.53 1043.32C254.53 1036.04 248.627 1030.14 241.345 1030.14C234.063 1030.14 228.159 1036.04 228.159 1043.32C228.159 1050.6 234.063 1056.51 241.345 1056.51Z" fill="#AAC8F9"/>
<path d="M251.839 849.943C255.406 849.943 258.298 847.051 258.298 843.485C258.298 839.918 255.406 837.026 251.839 837.026C248.273 837.026 245.381 839.918 245.381 843.485C245.381 847.051 248.273 849.943 251.839 849.943Z" fill="#AAC8F9"/>
<path d="M409.661 971.499C414.464 971.499 418.358 967.605 418.358 962.802C418.358 957.999 414.464 954.105 409.661 954.105C404.858 954.105 400.965 957.999 400.965 962.802C400.965 967.605 404.858 971.499 409.661 971.499Z" fill="#AAC8F9"/>
<path d="M340.064 1036.61C343.631 1036.61 346.523 1033.71 346.523 1030.15C346.523 1026.58 343.631 1023.69 340.064 1023.69C336.498 1023.69 333.606 1026.58 333.606 1030.15C333.606 1033.71 336.498 1036.61 340.064 1036.61Z" fill="#AAC8F9"/>
<path d="M387.889 1061.24C391.456 1061.24 394.347 1058.35 394.347 1054.78C394.347 1051.22 391.456 1048.32 387.889 1048.32C384.322 1048.32 381.431 1051.22 381.431 1054.78C381.431 1058.35 384.322 1061.24 387.889 1061.24Z" fill="#AAC8F9"/>
<path d="M176.274 1012.69C179.84 1012.69 182.732 1009.8 182.732 1006.24C182.732 1002.67 179.84 999.778 176.274 999.778C172.707 999.778 169.816 1002.67 169.816 1006.24C169.816 1009.8 172.707 1012.69 176.274 1012.69Z" fill="#AAC8F9"/>
<rect opacity="0.63" x="547.264" y="874.381" width="222.587" height="22.4691" rx="9.18" fill="white"/>
<rect opacity="0.63" x="461.84" y="915.687" width="308.011" height="22.4691" rx="9.18" fill="white"/>
<rect opacity="0.63" x="461.84" y="957.004" width="308.011" height="22.4691" rx="9.18" fill="white"/>
<rect opacity="0.63" x="461.84" y="998.31" width="171.643" height="22.4691" rx="9.18" fill="white"/>
<rect opacity="0.63" x="648.369" y="998.31" width="64.2638" height="22.4691" rx="9.18" fill="white"/>
<path d="M386.923 1297.97H762.231H386.923Z" fill="#AAC8F9"/>
<path d="M386.923 1297.97H762.231" stroke="#5A4DAA" stroke-width="4" stroke-linecap="round"/>
<path d="M674.165 1153.76C631.527 1147.35 590.38 1185.88 582.271 1239.82C579.169 1259.36 581.076 1279.36 587.812 1297.97H726.026C731.334 1286.93 734.942 1275.15 736.729 1263.03C744.802 1209.09 716.804 1160.17 674.165 1153.76Z" fill="#609AEF"/>
<path d="M650.693 1154.66C617.35 1162.25 588.876 1195.93 582.283 1239.82C579.182 1259.36 581.088 1279.36 587.824 1297.97H697.76C703.067 1286.93 706.676 1275.15 708.462 1263.03C716.278 1211.12 690.641 1163.86 650.693 1154.66Z" fill="#89B5F7"/>
<path fill-rule="evenodd" clip-rule="evenodd" d="M674.165 1153.76C631.527 1147.35 590.38 1185.88 582.271 1239.82C579.169 1259.36 581.076 1279.36 587.812 1297.97H726.026C731.334 1286.93 734.942 1275.15 736.729 1263.03C744.802 1209.09 716.804 1160.17 674.165 1153.76Z" stroke="#5A4DAA" stroke-width="4" stroke-linecap="round"/>
<path d="M736.545 1225.52L643.318 1296.11C643.052 1296.32 642.677 1296.31 642.416 1296.1C642.156 1295.88 642.078 1295.52 642.229 1295.21L705.306 1167.71" stroke="#5A4DAA" stroke-width="4" stroke-linecap="round"/>
<path d="M548.842 1068.37C484.432 1061.97 423.74 1141.94 413.294 1246.95C411.577 1263.9 411.282 1280.97 412.413 1297.97H642.523C644.243 1288.94 645.585 1279.69 646.547 1270.2C657.041 1165.15 613.253 1074.78 548.842 1068.37Z" fill="#89B5F7"/>
<path d="M517.444 1072C465.754 1089.13 422.039 1159.3 413.294 1247C411.579 1263.93 411.285 1280.98 412.413 1297.97H594.551C596.272 1288.94 597.613 1279.69 598.575 1270.2C608.116 1174.43 572.645 1090.89 517.444 1072Z" fill="#AAC8F9"/>
<path fill-rule="evenodd" clip-rule="evenodd" d="M548.842 1068.37C484.432 1061.97 423.74 1141.94 413.294 1246.95C411.577 1263.9 411.282 1280.97 412.413 1297.97H642.523C644.243 1288.94 645.585 1279.69 646.547 1270.2C657.041 1165.15 613.253 1074.78 548.842 1068.37Z" stroke="#5A4DAA" stroke-width="4" stroke-linecap="round"/>
<path d="M592.007 1087.23L528.404 1295.86C528.367 1295.99 528.422 1296.12 528.536 1296.19C528.649 1296.25 528.792 1296.23 528.881 1296.13L640.786 1175.04" stroke="#5A4DAA" stroke-width="4" stroke-linecap="round"/>
<path d="M503.562 1077.86L528.024 1295.68C528.038 1295.71 528.032 1295.75 528.01 1295.78C527.989 1295.81 527.954 1295.82 527.919 1295.81C527.884 1295.81 527.854 1295.79 527.841 1295.75L436.778 1157.82" stroke="#5A4DAA" stroke-width="4" stroke-linecap="round"/>
<path d="M644.651 1260.34L528.012 1296.08L412.12 1262.9" stroke="#5A4DAA" stroke-width="4" stroke-linecap="round"/>
<path d="M662.386 1153.11L647.672 1255.33" stroke="#5A4DAA" stroke-width="4" stroke-linecap="round"/>
<path d="M643.342 1296.11L734.111 1275.68" stroke="#5A4DAA" stroke-width="4" stroke-linecap="round"/>
<path d="M873.537 314.562C868.645 323.87 863.752 328.017 858.603 328.481C862.529 345.226 866.039 370.521 861.306 396.512C917.876 406.946 939.587 374.496 939.587 374.496L958.399 247.681C958.399 247.681 906.562 250.959 873.537 314.562Z" fill="#D4EFFC"/>
<path d="M863.569 372.6C863.475 380.62 862.719 388.618 861.306 396.512C877.512 399.497 890.845 398.959 901.669 396.671V368.38C901.669 368.38 885.402 364.588 863.569 372.6Z" fill="#B0D5F7"/>
<path fill-rule="evenodd" clip-rule="evenodd" d="M873.537 314.562C868.645 323.87 863.752 328.017 858.603 328.481C862.529 345.226 866.039 370.521 861.306 396.512C917.876 406.946 939.587 374.496 939.587 374.496L958.399 247.681C958.399 247.681 906.562 250.959 873.537 314.562Z" stroke="#251760" stroke-width="4" stroke-linecap="round"/>
<path d="M858.603 328.481C828.819 331.001 795.134 206.51 765.901 232.612C754.893 244.843 757.339 252.182 775.686 263.19C794.033 274.198 785.471 376.942 850.297 394.066C854.126 395.081 857.795 395.889 861.306 396.512C866.039 370.521 862.529 345.226 858.603 328.481Z" fill="#F9C7A5"/>
<path d="M796.479 294.992C791.587 265.636 779.355 261.967 775.686 263.19C794.033 274.198 785.471 376.942 850.298 394.066C854.126 395.081 857.795 395.889 861.306 396.512C862.708 388.605 863.453 380.594 863.532 372.563C841.736 380.612 801.372 334.132 796.479 294.992Z" fill="#F9A395"/>
<path fill-rule="evenodd" clip-rule="evenodd" d="M858.603 328.481C828.819 331.001 795.134 206.51 765.901 232.612C754.893 244.843 757.339 252.182 775.686 263.19C794.033 274.198 785.471 376.942 850.297 394.066C854.126 395.081 857.795 395.889 861.306 396.512C866.039 370.521 862.529 345.226 858.603 328.481Z" stroke="#251760" stroke-width="4" stroke-linecap="round"/>
<path d="M834.225 965.004C834.261 965.073 834.328 965.122 834.406 965.134C834.483 965.146 834.562 965.12 834.617 965.065C838.201 961.823 884.13 921.827 961.603 935.917C1019.6 946.461 1059.45 951.684 1069.02 981.271C1069.83 983.822 1072.19 985.565 1074.86 985.593C1077.54 985.62 1079.93 983.927 1080.8 981.394L1125.5 851.521L942.033 754.893L876.546 701.49C876.546 701.49 796.724 907.149 834.225 965.004Z" fill="#251760" stroke="#251760" stroke-width="4" stroke-linecap="round"/>
<path d="M894.331 368.38C894.331 368.38 803.818 899.223 811.157 935.917C818.496 972.612 834.397 964.05 834.397 964.05L942.363 355.782" fill="#D4EFFC"/>
<path d="M822.96 817.872C814.398 879.861 809.176 925.985 811.157 935.917C818.496 972.612 834.397 964.05 834.397 964.05L887.126 666.985C864.033 772.469 838.971 806.986 822.96 817.872Z" fill="#B0D5F7"/>
<path d="M894.331 368.38C894.331 368.38 803.818 899.223 811.157 935.917C818.496 972.612 834.397 964.05 834.397 964.05L942.363 355.782" stroke="#251760" stroke-width="4" stroke-linecap="round"/>
<path d="M1029.11 1116.62C1000.52 1060.79 970.422 981.675 978.727 904.116C993.405 767.124 1022.76 538.397 984.843 524.942C946.926 511.488 884.545 540.843 884.545 540.843C884.545 540.843 835.534 944.406 999.447 1149.51C1010.71 1139.87 1020.68 1128.82 1029.11 1116.62Z" fill="#EA65A2"/>
<path d="M987.974 819.609C977.406 773.9 974.043 732.044 984.427 701.49C990.946 682.299 997.209 663.769 1002.63 646.082C1005.36 580.73 1001.97 531.058 984.843 524.942C946.926 511.488 884.545 540.843 884.545 540.843C884.545 540.843 881.28 567.691 879.261 611.051C897.217 621.888 914.622 649.629 916.347 715.752C920.017 856.413 975.058 1073.85 1015.42 1133.92C1020.31 1128.42 1024.88 1122.64 1029.12 1116.62C1000.52 1060.79 970.422 981.675 978.727 904.116C981.467 878.491 984.733 849.649 987.974 819.609Z" fill="#DB4D95"/>
<path fill-rule="evenodd" clip-rule="evenodd" d="M1029.11 1116.62C1000.52 1060.79 970.422 981.675 978.727 904.116C993.405 767.124 1022.76 538.397 984.843 524.942C946.926 511.488 884.545 540.843 884.545 540.843C884.545 540.843 835.534 944.406 999.447 1149.51C1010.71 1139.87 1020.68 1128.82 1029.11 1116.62Z" stroke="#251760" stroke-width="4" stroke-linecap="round"/>
<path d="M996.769 1152.41C1002.65 1092.11 1013.13 1016.53 1033.77 933.471C1083.92 731.653 1099.82 553.074 1099.82 553.074C1099.82 553.074 975.058 375.719 942.033 532.281C916.873 651.537 940.688 992.891 955.084 1160.17C967.854 1162.2 983.424 1161.6 996.769 1152.41Z" fill="#F48CB6"/>
<path d="M942.033 532.452C940.688 538.837 939.489 545.907 938.364 553.466C938.884 554.912 939.526 556.312 940.284 557.649C940.284 557.649 1003.19 719.421 988.512 880.876C980.305 971.156 983.192 1079.02 981.333 1159.36C986.849 1157.98 992.076 1155.63 996.769 1152.41C1002.65 1092.11 1013.13 1016.53 1033.77 933.471C1083.92 731.653 1099.82 553.074 1099.82 553.074C1099.82 553.074 1079.84 524.685 1053.77 500.651C1003.29 497.813 956.833 512.111 942.033 532.452Z" fill="#EA65A2"/>
<path fill-rule="evenodd" clip-rule="evenodd" d="M996.769 1152.41V1152.41C1002.65 1092.11 1013.13 1016.53 1033.77 933.471C1083.92 731.653 1099.82 553.074 1099.82 553.074C1099.82 553.074 975.058 375.719 942.033 532.281C916.873 651.537 940.688 992.891 955.084 1160.17C967.854 1162.2 983.424 1161.6 996.769 1152.41Z" stroke="#251760" stroke-width="4" stroke-linecap="round"/>
<path d="M944.479 252.182C944.479 252.182 994.628 225.273 1030.1 257.074C1065.57 288.876 1077.8 465.008 1099.82 518.826C1108.38 546.959 923.686 578.76 885.769 540.843C877.207 526.165 921.24 411.19 907.785 372.05C894.331 332.909 911.455 312.116 922.463 304.777C933.471 297.438 933.471 257.074 944.479 252.182Z" fill="#F9C7A5"/>
<path d="M944.479 252.182C944.479 252.182 994.628 225.273 1030.1 257.074C1065.57 288.876 1077.8 465.008 1099.82 518.826C1108.38 546.959 923.686 578.76 885.769 540.843C877.207 526.165 921.24 411.19 907.785 372.05C894.331 332.909 911.455 312.116 922.463 304.777C933.471 297.438 933.471 257.074 944.479 252.182Z" fill="#F9CE55"/>
<path opacity="0.58" d="M885.769 540.843C911.185 566.26 1002.58 560.352 1057.49 545.21C1070.08 516.955 1077.29 476.029 1079.65 433.048C1066.93 362.766 1053.63 278.174 1030.1 257.074C1011.13 240.073 987.974 239.853 970.52 243.326C956.185 255.227 950.473 272.376 961.603 286.43C961.603 286.43 990.959 283.983 968.942 325.57C946.926 367.157 945.177 478.683 942.033 498.033C934.694 543.289 890.881 525.358 885.059 538.874C885.195 539.562 885.435 540.226 885.769 540.843Z" fill="#F9A846"/>
<path fill-rule="evenodd" clip-rule="evenodd" d="M944.479 252.182C944.479 252.182 994.628 225.273 1030.1 257.074C1065.57 288.876 1077.8 465.008 1099.82 518.826C1108.38 546.959 923.686 578.76 885.769 540.843C877.207 526.165 921.24 411.19 907.785 372.05C894.331 332.909 911.455 312.116 922.463 304.777C933.471 297.438 933.471 257.074 944.479 252.182Z" stroke="#251760" stroke-width="4" stroke-linecap="round"/>
<path d="M1034.99 155.554C1034.99 155.554 1039.88 123.593 1080.25 131.091C1132.84 140.876 1076.58 255.851 1101.04 271.752C1110.83 279.091 1047.22 306 1038.66 175.124L1034.99 155.554Z" fill="#FC8181"/>
<path d="M1054.28 248.39C1075.36 293.292 1108.28 277.183 1101.04 271.752C1076.58 255.851 1132.84 140.876 1080.25 131.091C1053.2 126.064 1042.1 138.76 1037.69 147.689C1037.76 147.628 1060.68 124.975 1080.25 143.322C1099.82 161.669 1065.57 219.157 1075.36 241.174C1085.14 263.19 1063.77 266.395 1054.28 248.39Z" fill="#EF6C6C"/>
<path fill-rule="evenodd" clip-rule="evenodd" d="M1034.99 155.554C1034.99 155.554 1039.88 123.593 1080.25 131.091C1132.84 140.876 1076.58 255.851 1101.04 271.752C1110.83 279.091 1047.22 306 1038.66 175.124L1034.99 155.554Z" stroke="#251760" stroke-width="4" stroke-linecap="round"/>
<path d="M964.637 131.397C964.637 131.397 937.14 140.485 940.81 168.605C940.81 180.322 922.463 177.986 924.909 195.514C927.355 213.041 949.372 215.488 949.372 215.488C949.372 215.488 995.851 156.3 964.637 131.397Z" fill="#251760" stroke="#251760" stroke-width="4" stroke-linecap="round"/>
<path d="M1005.44 219.157C1005.44 219.157 987.289 288.876 962.826 286.43C938.364 283.983 971.388 241.174 957.934 228.942C944.479 216.711 1005.24 203.256 1005.44 219.157Z" fill="#F9C7A5"/>
<path d="M979.95 238.727C979.95 238.727 969.529 229.26 961.187 236.171C962.411 248.904 950.791 269.991 954.118 280.375C954.57 280.494 955.048 280.473 955.488 280.314C953.041 265.636 967.719 261.967 975.058 257.074C982.397 252.182 979.95 238.727 979.95 238.727Z" fill="#F9A395"/>
<path fill-rule="evenodd" clip-rule="evenodd" d="M1005.44 219.157C1005.44 219.157 987.289 288.876 962.826 286.43C938.364 283.983 971.388 241.174 957.934 228.942C944.479 216.711 1005.24 203.256 1005.44 219.157Z" stroke="#251760" stroke-width="4" stroke-linecap="round"/>
<path d="M960.38 159.223C960.38 159.223 961.603 180.017 949.372 191.025C937.14 202.033 934.694 246.066 964.05 248.512C993.405 250.959 1014.2 215.488 1010.53 192.248C1006.86 169.008 977.504 127.421 960.38 159.223Z" fill="#F9C7A5"/>
<path d="M1008.08 200.81C1000.74 186.988 978.177 164.177 961.481 157.34C961.102 157.939 960.735 158.563 960.38 159.223C960.38 159.223 962.631 174.463 953.2 185.851C956.124 189.3 959.316 193.19 963.132 193.899C979.95 197.14 961.982 222.349 975.853 220.136C989.723 217.922 994.628 216.711 992.182 231.388C989.736 246.066 999.521 235.058 999.521 235.058C1000.31 234.611 1001.07 234.117 1001.8 233.578C1005.13 226.692 1007.57 216.968 1009.32 203.391C1008.95 202.547 1008.55 201.691 1008.08 200.81Z" fill="#F9A395"/>
<path d="M1010.53 192.248C1006.86 169.008 977.504 127.421 960.38 159.223C960.38 159.223 961.603 180.017 949.372 191.025C937.14 202.033 934.694 246.066 964.05 248.512C969.028 248.93 974.038 248.254 978.727 246.531" stroke="#251760" stroke-width="4" stroke-linecap="round"/>
<path d="M1019.09 145.769C1019.09 145.769 1032.55 137.207 1043.55 155.554C1054.56 173.901 1031.32 197.14 1023.98 192.248C1016.64 187.355 1019.09 145.769 1019.09 145.769Z" fill="#F9CE55" stroke="#251760" stroke-width="4" stroke-linecap="round"/>
<path d="M976.281 188.579C976.281 188.579 948.149 176.347 949.372 151.884C950.595 127.421 988.219 120.694 1012.98 133.537C1046 150.661 1041.11 217.934 999.521 235.058C1000.67 224.05 1004.41 194.694 992.182 208.149C979.95 221.603 970.165 226.496 977.504 209.372C984.843 192.248 976.281 188.579 976.281 188.579Z" fill="#FC8181"/>
<path d="M1027.49 147.689C1027.52 147.787 1034.99 188.579 1014.2 199.587C1004.41 202.033 1012.61 182.646 991.998 180.102C971.388 177.558 951.818 166.391 950.595 145.769C950.253 147.799 949.837 150.123 949.372 152.667C948.76 176.604 976.281 188.579 976.281 188.579C976.281 188.579 984.843 192.248 977.504 209.372C970.165 226.496 979.95 221.603 992.182 208.149C1004.41 194.694 1000.67 224.05 999.521 235.058C1033.39 221.126 1042.91 173.999 1027.49 147.689Z" fill="#EF6C6C"/>
<path fill-rule="evenodd" clip-rule="evenodd" d="M976.281 188.579C976.281 188.579 948.149 176.347 949.372 151.884C950.595 127.421 988.219 120.694 1012.98 133.537C1046 150.661 1041.11 217.934 999.521 235.058C1000.67 224.05 1004.41 194.694 992.182 208.149C979.95 221.603 970.165 226.496 977.504 209.372C984.843 192.248 976.281 188.579 976.281 188.579Z" stroke="#251760" stroke-width="4" stroke-linecap="round"/>
<path d="M1014.2 246.066C1014.2 246.066 1019.09 257.074 968.942 350.033C951.818 422.198 954.264 558.236 954.264 558.236L1074.13 1000.74C1074.13 1000.74 1182.99 988.512 1196.45 917.57C1197.67 849.074 1050.89 328.017 1050.89 328.017" fill="#D4EFFC"/>
<path d="M1196.45 917.57C1197.5 858.933 1090.03 468.592 1059.14 357.494C1046.99 339.893 1036.9 331.392 1030.1 335.355C1030.1 335.355 989.736 319.455 1009.31 374.496C1028.88 429.537 1081.47 425.868 1136.51 805.041C1154.86 945.703 1068.02 961.603 1074.13 1000.74C1074.13 1000.74 1182.99 988.512 1196.45 917.57Z" fill="#B0D5F7"/>
<path d="M1050.89 328.017C1050.89 328.017 1197.67 849.074 1196.45 917.57C1182.99 988.512 1074.13 1000.74 1074.13 1000.74L954.264 558.236C954.264 558.236 951.818 422.198 968.942 350.033C1016.64 255.851 1014.2 248.512 1014.2 248.512" stroke="#251760" stroke-width="4" stroke-linecap="round"/>
<path d="M1015.42 247.289L1008.08 339.025C1027.1 357.25 1026.59 383.156 1008.93 401.148C1028.13 405.233 1058.1 416.89 1066.95 450.074C1085.3 437.952 1097.76 419.495 1099.82 392.819C1108.38 281.537 1015.42 247.289 1015.42 247.289Z" fill="#D4EFFC"/>
<path d="M854.579 427.409V361.041H837.455V427.409C837.452 429.846 835.898 432.01 833.589 432.791C815.395 438.883 804.3 457.265 807.386 476.202C810.472 495.138 826.83 509.047 846.017 509.047C865.203 509.047 881.561 495.138 884.647 476.202C887.734 457.265 876.638 438.883 858.444 432.791C856.131 432.016 854.574 429.848 854.579 427.409Z" fill="#FC8181"/>
<path d="M846.628 387.95C846.628 409.967 847.851 442.38 847.851 442.38C847.851 442.38 864.975 451.554 861.306 479.686C857.636 507.818 823.388 501.788 823.388 501.788C829.217 505.96 836.089 508.433 843.24 508.931C862.915 510.345 880.568 496.897 884.429 477.553C888.291 458.209 877.154 439.014 858.444 432.766C856.135 431.993 854.579 429.831 854.579 427.397V361.041H842.959C840.913 362.997 839.072 365.157 837.467 367.487C837.467 367.487 846.628 365.934 846.628 387.95Z" fill="#EF6C6C"/>
<path opacity="0.52" d="M885.157 469.901C885.153 466.911 884.809 463.932 884.13 461.021C864.437 451.982 848.805 487.93 833.174 469.901C822.52 457.608 812.967 459.039 807.818 461.339C806.963 465.195 806.687 469.156 806.998 473.093C808.659 494.06 826.593 509.966 847.608 509.111C868.623 508.256 885.205 490.945 885.157 469.913V469.901Z" fill="white"/>
<path opacity="0.52" d="M835.008 460.116C836.697 460.116 838.066 458.747 838.066 457.058C838.066 455.369 836.697 454 835.008 454C833.319 454 831.95 455.369 831.95 457.058C831.95 458.747 833.319 460.116 835.008 460.116Z" fill="white"/>
<path opacity="0.52" d="M860.694 451.554C861.707 451.554 862.529 450.732 862.529 449.719C862.529 448.706 861.707 447.884 860.694 447.884C859.681 447.884 858.859 448.706 858.859 449.719C858.859 450.732 859.681 451.554 860.694 451.554Z" fill="white"/>
<path opacity="0.52" d="M847.24 398.959C848.253 398.959 849.074 398.137 849.074 397.124C849.074 396.111 848.253 395.289 847.24 395.289C846.226 395.289 845.405 396.111 845.405 397.124C845.405 398.137 846.226 398.959 847.24 398.959Z" fill="white"/>
<path opacity="0.52" d="M852.744 466.231C855.446 466.231 857.636 464.041 857.636 461.339C857.636 458.637 855.446 456.446 852.744 456.446C850.042 456.446 847.851 458.637 847.851 461.339C847.851 464.041 850.042 466.231 852.744 466.231Z" fill="white"/>
<path fill-rule="evenodd" clip-rule="evenodd" d="M854.579 427.409V361.041H837.455V427.409C837.452 429.846 835.898 432.01 833.589 432.791C815.395 438.883 804.3 457.265 807.386 476.202C810.472 495.138 826.83 509.047 846.017 509.047C865.203 509.047 881.561 495.138 884.647 476.202C887.734 457.265 876.638 438.883 858.444 432.791C856.131 432.016 854.574 429.848 854.579 427.409Z" stroke="#251760" stroke-width="4" stroke-linecap="round"/>
<path d="M1008.93 401.148C999.325 410.933 984.66 418.394 965.273 420.975C925.203 426.32 892.374 417.538 873.537 406.298C866.504 402.102 857.416 387.95 856.413 387.95C852.744 387.95 857.636 412.413 847.851 406.298C838.066 400.182 823.388 403.851 823.388 420.975C823.388 437.023 841.662 445.56 860.083 441.524C862.5 441.015 865.02 441.486 867.091 442.833C903.333 466.072 1011.73 486.658 1066.96 450.098C1058.1 416.89 1028.13 405.233 1008.93 401.148Z" fill="#F9C7A5"/>
<path d="M1055.23 426.956C1008.83 460.629 917.277 465.363 868.645 430.76C845.405 416.083 843.607 445.585 823.719 416.78C823.905 419.259 823.905 421.749 823.719 424.229C825.969 438.16 842.959 445.279 860.083 441.524C862.5 441.015 865.02 441.486 867.091 442.833C903.333 466.072 1011.73 486.658 1066.96 450.098C1064.77 441.629 1060.77 433.735 1055.23 426.956Z" fill="#F9A395"/>
<path d="M1030.1 297.438C1044.78 264.413 1096.15 321.901 1082.69 387.95C1079.53 403.497 1069.52 416.596 1055.23 426.956C1060.76 433.737 1064.76 441.631 1066.95 450.098C1085.3 437.977 1097.76 419.52 1099.82 392.843C1106.96 300.007 1043.48 260.744 1022.22 250.323C1011.75 265.551 968.942 350.033 968.942 350.033C968.942 350.033 1012.98 337.802 1030.1 297.438Z" fill="#B0D5F7"/>
<path fill-rule="evenodd" clip-rule="evenodd" d="M1008.93 401.148C999.325 410.933 984.659 418.394 965.273 420.975C925.203 426.32 892.374 417.538 873.537 406.298C866.504 402.102 857.416 387.95 856.413 387.95C852.744 387.95 857.636 412.413 847.851 406.298C838.066 400.182 823.388 403.851 823.388 420.975C823.388 437.023 841.662 445.56 860.083 441.524C862.5 441.015 865.02 441.486 867.091 442.833C903.333 466.072 1011.73 486.658 1066.96 450.098C1058.1 416.89 1028.13 405.233 1008.93 401.148Z" stroke="#251760" stroke-width="4"/>
<path d="M999.521 241.174C999.521 241.174 1109.6 275.421 1099.82 392.843C1090.89 500.015 915.344 473.729 867.079 442.833C865.011 441.489 862.496 441.019 860.083 441.524C841.736 445.56 823.388 437.023 823.388 420.975C823.388 403.851 838.066 400.182 847.851 406.298C857.636 412.413 852.744 387.95 856.413 387.95C857.416 387.95 866.504 402.102 873.537 406.298C892.374 417.538 925.203 426.32 965.273 420.975C1020.31 413.636 1037.44 367.157 1008.08 339.025" stroke="#251760" stroke-width="4" stroke-linecap="round"/>
<path d="M802.142 310.428L779.673 263.52L796.797 190.67L781.325 187.001L763.98 261.025L724.241 292.13C722.999 293.103 722.426 294.703 722.768 296.243C723.11 297.783 724.306 298.99 725.843 299.346L797.568 316.152C799.083 316.466 800.645 315.902 801.611 314.693C802.577 313.485 802.782 311.836 802.142 310.428Z" fill="#7EDCF2"/>
<path opacity="0.45" d="M779.673 263.52L796.797 190.67L781.753 187.135C781.35 187.961 780.999 188.81 780.701 189.679L779.735 193.826C779.735 193.826 779.355 202.033 784.248 204.479C789.141 206.926 778.132 237.504 776.909 255.851C775.686 274.198 787.343 302.893 755.223 306.281L797.507 316.189C799.041 316.541 800.642 315.986 801.628 314.76C802.615 313.533 802.815 311.851 802.143 310.428L779.673 263.52Z" fill="#44A2CC"/>
<path opacity="0.52" d="M788.125 281.158C784.456 282.687 779.245 286.895 768.347 290.099C753.89 294.356 748.899 282.051 747.199 274.198L724.179 292.203C722.938 293.176 722.365 294.776 722.707 296.316C723.049 297.856 724.245 299.063 725.782 299.419L797.507 316.225C799.041 316.578 800.642 316.023 801.628 314.796C802.615 313.57 802.815 311.888 802.142 310.464L788.125 281.158Z" fill="white"/>
<path fill-rule="evenodd" clip-rule="evenodd" d="M802.142 310.428L779.673 263.52L796.797 190.67L781.325 187.001L763.98 261.025L724.241 292.13C722.999 293.103 722.426 294.703 722.768 296.243C723.11 297.783 724.306 298.99 725.843 299.346L797.568 316.152C799.083 316.466 800.645 315.902 801.611 314.693C802.577 313.485 802.782 311.836 802.142 310.428V310.428Z" stroke="#251760" stroke-width="4"/>
<path d="M1014.2 248.512C1066.79 274.198 974.189 347.489 969.138 349.935C969.138 349.935 969.016 349.935 969.052 349.825C1016.64 255.851 1014.2 248.512 1014.2 248.512Z" fill="#D4EFFC"/>
<path d="M1014.2 248.512C1066.79 274.198 974.189 347.489 969.138 349.935C969.138 349.935 969.016 349.935 969.052 349.825C1016.64 255.851 1014.2 248.512 1014.2 248.512" stroke="#251760" stroke-width="4" stroke-linecap="round"/>
<path d="M762.843 236.379C762.843 236.379 766.17 233.407 776.909 236.281C787.648 239.155 786.694 266.86 773.24 268.083C759.785 269.306 752.446 248.696 762.843 236.379Z" fill="#F9C7A5" stroke="#251760" stroke-width="4" stroke-linecap="round"/>
<path d="M156.777 1297.97H1465.54" stroke="#251760" stroke-width="4" stroke-linecap="round"/>
<path d="M932.248 255.386C932.248 255.386 905.241 260.279 910.794 316.776" stroke="#251760" stroke-width="4" stroke-linecap="round"/>
<path d="M989.307 1253.65C990.812 1229.19 992.671 1194.5 996.769 1152.41C983.424 1161.6 967.854 1162.2 955.084 1160.17C959.585 1212.51 963.181 1247.82 964.05 1253.93C964.159 1254.71 964.195 1255.49 964.16 1256.27C972.618 1257.87 981.361 1256.96 989.307 1253.65Z" fill="#F9C7A5"/>
<path d="M981.333 1159.36C980.354 1201.84 978.055 1236.61 972.098 1257.04C978.002 1257.06 983.85 1255.91 989.307 1253.65C990.812 1229.19 992.671 1194.5 996.769 1152.41C992.076 1155.63 986.849 1157.98 981.333 1159.36Z" fill="#F9A395"/>
<path fill-rule="evenodd" clip-rule="evenodd" d="M989.307 1253.65C990.812 1229.19 992.671 1194.5 996.769 1152.41V1152.41C983.424 1161.6 967.854 1162.2 955.084 1160.17C959.585 1212.51 963.181 1247.82 964.05 1253.93C964.159 1254.71 964.195 1255.49 964.16 1256.27C972.618 1257.87 981.361 1256.96 989.307 1253.65Z" stroke="#251760" stroke-width="4" stroke-linecap="round"/>
<path d="M891.884 1294.3C893.107 1301.64 973.835 1295.52 983.62 1294.3C986.568 1293.93 987.742 1279.35 989.307 1253.65C981.361 1256.96 972.618 1257.87 964.16 1256.27C963.022 1280.07 890.661 1287.19 891.884 1294.3Z" fill="#251760" stroke="#251760" stroke-width="4" stroke-linecap="round"/>
<path d="M1057.44 1166.59C1049.42 1153.7 1039.36 1136.66 1029.11 1116.62C1020.68 1128.82 1010.71 1139.87 999.447 1149.51C1005.31 1156.85 1011.45 1163.96 1017.87 1170.76C1025.11 1178.74 1030.54 1188.19 1033.77 1198.46C1044.28 1190.47 1052.26 1177.22 1057.44 1166.59Z" fill="#F9A395" stroke="#251760" stroke-width="4" stroke-linecap="round"/>
<path d="M1036.21 1285.74C1046 1290.63 1079.02 1202.56 1074.13 1192.78C1073.01 1190.51 1066.54 1181.23 1057.44 1166.59C1052.26 1177.22 1044.28 1190.47 1033.79 1198.46C1046.45 1237.83 1028.37 1281.81 1036.21 1285.74Z" fill="#251760" stroke="#251760" stroke-width="4" stroke-linecap="round"/>
<path d="M845.405 364.711C852.16 364.711 857.636 363.068 857.636 361.041C857.636 359.015 852.16 357.372 845.405 357.372C838.65 357.372 833.174 359.015 833.174 361.041C833.174 363.068 838.65 364.711 845.405 364.711Z" fill="#FC8181" stroke="#251760" stroke-width="4" stroke-linecap="round"/>
<path d="M800.074 191.084C800.596 188.447 796.174 185.349 790.197 184.166C784.22 182.982 778.951 184.161 778.429 186.798C777.906 189.436 782.329 192.533 788.306 193.717C794.283 194.9 799.552 193.722 800.074 191.084Z" fill="#7EDCF2" stroke="#251760" stroke-width="4"/>
<path opacity="0.52" d="M761.008 283.983C763.71 283.983 765.901 281.793 765.901 279.091C765.901 276.389 763.71 274.198 761.008 274.198C758.306 274.198 756.116 276.389 756.116 279.091C756.116 281.793 758.306 283.983 761.008 283.983Z" fill="white"/>
<path opacity="0.52" d="M773.24 279.091C774.591 279.091 775.686 277.996 775.686 276.645C775.686 275.294 774.591 274.198 773.24 274.198C771.889 274.198 770.793 275.294 770.793 276.645C770.793 277.996 771.889 279.091 773.24 279.091Z" fill="white"/>
<path opacity="0.52" d="M781.802 226.496C783.153 226.496 784.248 225.401 784.248 224.05C784.248 222.699 783.153 221.603 781.802 221.603C780.451 221.603 779.355 222.699 779.355 224.05C779.355 225.401 780.451 226.496 781.802 226.496Z" fill="white"/>
<path d="M968.612 205.213C970.625 205.213 972.257 203.581 972.257 201.568C972.257 199.555 970.625 197.923 968.612 197.923C966.599 197.923 964.967 199.555 964.967 201.568C964.967 203.581 966.599 205.213 968.612 205.213Z" fill="#251760"/>
<path d="M950.338 211.659L946.669 209.947C944.222 208.821 943.586 205.972 945.446 204.553L954.693 200.37C956.492 199.597 957.946 198.191 958.778 196.419L959.707 194.401" stroke="#251760" stroke-width="4" stroke-linecap="round"/>
<path d="M959.157 233.835C962.535 233.835 965.273 231.097 965.273 227.719C965.273 224.341 962.535 221.603 959.157 221.603C955.779 221.603 953.041 224.341 953.041 227.719C953.041 231.097 955.779 233.835 959.157 233.835Z" fill="#251760"/>
<path d="M133.268 942.547H109.38C84.217 942.547 63.8182 922.148 63.8182 896.985V694.959" stroke="#5A4DAA" stroke-width="4"/>
</svg>
