<svg width="530" height="400" viewBox="0 0 530 400" fill="none" xmlns="http://www.w3.org/2000/svg">
<path d="M434.923 354.506H50.809L36.1413 227.122C35.7246 223.519 36.2334 219.868 37.6187 216.519L87.1836 96.5592C88.6249 93.0682 90.9655 90.0278 93.9646 87.7512C96.9634 85.4748 100.512 84.0448 104.243 83.6092L347.801 55.1425C351.505 54.7085 355.258 55.2702 358.676 56.7695C362.095 58.2692 365.056 60.6532 367.262 63.6792L446.1 171.836C449.144 176.014 450.568 181.169 450.101 186.329L434.923 354.506Z" fill="#DDD3CD"/>
<path opacity="0.9" d="M452.673 366.801H68.559L53.8913 239.418C53.4746 235.815 53.9834 232.164 55.3687 228.815L104.934 108.855C106.375 105.364 108.715 102.323 111.715 100.047C114.713 97.7705 118.262 96.3405 121.993 95.9048L365.551 67.4381C369.255 67.0041 373.008 67.5658 376.426 69.0651C379.845 70.5648 382.806 72.9488 385.012 75.9748L463.85 184.131C466.894 188.31 468.318 193.464 467.851 198.625L452.673 366.801Z" fill="#EEECEA"/>
<path d="M369.483 259.49H368.771V257.973H369.483V259.49ZM369.483 256.103H368.771V254.233H369.483V256.103ZM369.483 252.36H368.771V250.49H369.483V252.36ZM369.483 248.62H368.771V246.75H369.483V248.62ZM369.483 244.88H368.771V243H369.483V244.88ZM369.483 241.14H368.771V239.27H369.483V241.14ZM369.483 237.397H368.771V235.527H369.483V237.397ZM369.483 233.657H368.771V231.787H369.483V233.657ZM369.483 229.917H368.771V228.047H369.483V229.917ZM369.483 226.177H368.771V224.307H369.483V226.177ZM369.483 222.437H368.771V220.563H369.483V222.437ZM369.483 218.693H368.771V216.823H369.483V218.693ZM369.483 214.953H368.771V213.083H369.483V214.953ZM369.483 211.213H368.771V209.333H369.483V211.213ZM369.483 207.473H368.771V205.603H369.483V207.473ZM369.483 203.73H368.771V201.86H369.483V203.73ZM369.483 199.99H368.771V198.12H369.483V199.99ZM369.483 196.25H368.771V194.38H369.483V196.25ZM369.483 192.51H368.771V190.64H369.483V192.51ZM369.483 188.77H368.771V186.897H369.483V188.77ZM369.483 185.027H368.771V183.157H369.483V185.027ZM369.483 181.287H368.771V179.417H369.483V181.287ZM369.483 177.547H368.771V175.667H369.483V177.547ZM368.741 173.857C368.658 173.299 368.43 172.774 368.078 172.337L368.635 171.887C369.065 172.426 369.344 173.072 369.44 173.757L368.741 173.857ZM366.753 171.357C366.399 171.222 366.021 171.153 365.64 171.153H365.037V170.437H365.63C366.098 170.435 366.558 170.52 366.995 170.687L366.753 171.357ZM363.189 171.153H361.331V170.437H363.189V171.153ZM359.472 171.153H357.614V170.437H359.472V171.153ZM355.756 171.153H353.898V170.437H355.762L355.756 171.153ZM352.036 171.153H350.178V170.437H352.036V171.153ZM348.319 171.153H346.461V170.437H348.319V171.153ZM344.603 171.153H342.744V170.437H344.603V171.153ZM340.886 171.153H339.028V170.437H340.886V171.153ZM337.169 171.153H335.308V170.437H337.169V171.153ZM333.45 171.153H331.581V170.437H333.44L333.45 171.153ZM329.733 171.153H327.875V170.437H329.733V171.153ZM326.016 171.153H324.158V170.437H326.016V171.153ZM322.3 171.153H320.441V170.437H322.306L322.3 171.153ZM318.58 171.153H316.721V170.437H318.58V171.153ZM314.863 171.153H313.005V170.437H314.863V171.153ZM311.146 171.153H309.288V170.437H311.146V171.153ZM307.43 171.153H305.571V170.437H307.43V171.153ZM303.713 171.153H301.852V170.437H303.713V171.153ZM299.993 171.153H298.125V170.437H299.983L299.993 171.153ZM296.277 171.153H294.418V170.437H296.277V171.153ZM292.56 171.153H290.702V170.437H292.56V171.153ZM288.843 171.153H286.985V170.437H288.85L288.843 171.153ZM285.123 171.153H283.265V170.437H285.123V171.153ZM281.407 171.153H279.548V170.437H281.407V171.153ZM277.69 171.153H275.832V170.437H277.69V171.153ZM273.974 171.153H272.115V170.437H273.974V171.153ZM270.257 171.153H268.395V170.437H270.257V171.153ZM266.537 171.153H264.669V170.437H266.527L266.537 171.153ZM262.82 171.153H260.962V170.437H262.82V171.153ZM259.104 171.153H257.245V170.437H259.104V171.153Z" fill="#726666"/>
<path d="M136.713 204.793H332.664C333.731 204.793 334.751 205.219 335.507 205.978C336.259 206.736 336.683 207.764 336.683 208.837V343.797H132.695V208.837C132.695 207.764 133.119 206.736 133.872 205.978C134.626 205.219 135.648 204.793 136.713 204.793Z" fill="#DDD3CD"/>
<path d="M134.855 204.793H330.806C331.873 204.793 332.893 205.219 333.648 205.978C334.4 206.736 334.824 207.764 334.824 208.837V341.097H130.844V208.837C130.844 207.765 131.266 206.738 132.018 205.98C132.77 205.222 133.791 204.795 134.855 204.793Z" fill="#DDD3CD"/>
<path opacity="0.2" d="M134.855 204.793H330.806C331.873 204.793 332.893 205.219 333.648 205.978C334.4 206.736 334.824 207.764 334.824 208.837V341.097H130.844V208.837C130.844 207.765 131.266 206.738 132.018 205.98C132.77 205.222 133.791 204.795 134.855 204.793Z" fill="black"/>
<path d="M327.855 212.017H137.81V333.87H327.855V212.017Z" fill="white"/>
<path d="M335.358 341.09H257.097C256.745 341.09 256.408 341.23 256.16 341.48C255.911 341.73 255.772 342.07 255.772 342.423V346.69C256.494 347.637 257.423 348.403 258.487 348.93C259.551 349.457 260.721 349.73 261.906 349.73H330.551C331.618 349.723 332.674 349.497 333.652 349.063C334.559 348.653 335.331 347.987 335.868 347.147C336.408 346.303 336.692 345.32 336.686 344.32V342.407C336.683 342.057 336.54 341.72 336.292 341.473C336.043 341.227 335.705 341.09 335.358 341.09Z" fill="#DDD3CD"/>
<path d="M283.732 341.09H85.6215C85.2701 341.09 84.9328 341.23 84.6844 341.48C84.436 341.73 84.2965 342.07 84.2965 342.423V344.333C84.2909 345.333 84.5748 346.317 85.1134 347.16C85.6523 348 86.4225 348.667 87.3308 349.077C88.3076 349.51 89.363 349.737 90.4313 349.743H278.913C279.979 349.737 281.034 349.51 282.01 349.077C282.919 348.667 283.69 348.003 284.229 347.16C284.769 346.317 285.053 345.337 285.047 344.333V342.42C285.046 342.07 284.908 341.733 284.661 341.483C284.415 341.233 284.081 341.093 283.732 341.09Z" fill="#DDD3CD"/>
<path opacity="0.1" d="M200.029 344.583H169.322C168.217 344.583 167.138 344.25 166.223 343.627C165.308 343.007 164.599 342.12 164.187 341.09H205.166C204.754 342.12 204.044 343.007 203.129 343.627C202.213 344.25 201.134 344.583 200.029 344.583Z" fill="black"/>
<path d="M327.855 212.017H137.81V222.89H327.855V212.017Z" fill="#726666"/>
<path d="M143.067 219.387C144.329 219.387 145.352 218.357 145.352 217.087C145.352 215.816 144.329 214.787 143.067 214.787C141.804 214.787 140.781 215.816 140.781 217.087C140.781 218.357 141.804 219.387 143.067 219.387Z" fill="#927463"/>
<path d="M151.305 219.387C152.567 219.387 153.591 218.357 153.591 217.087C153.591 215.816 152.567 214.787 151.305 214.787C150.043 214.787 149.019 215.816 149.019 217.087C149.019 218.357 150.043 219.387 151.305 219.387Z" fill="white"/>
<path d="M159.54 219.387C160.802 219.387 161.826 218.357 161.826 217.087C161.826 215.816 160.802 214.787 159.54 214.787C158.278 214.787 157.254 215.816 157.254 217.087C157.254 218.357 158.278 219.387 159.54 219.387Z" fill="#DDD3CD"/>
<path d="M297.426 227.64H183.446C182.427 227.64 181.601 228.471 181.601 229.497V235.03C181.601 236.055 182.427 236.887 183.446 236.887H297.426C298.445 236.887 299.271 236.055 299.271 235.03V229.497C299.271 228.471 298.445 227.64 297.426 227.64Z" fill="#DDD3CD"/>
<path opacity="0.6" d="M297.426 227.64H183.446C182.427 227.64 181.601 228.471 181.601 229.497V235.03C181.601 236.055 182.427 236.887 183.446 236.887H297.426C298.445 236.887 299.271 236.055 299.271 235.03V229.497C299.271 228.471 298.445 227.64 297.426 227.64Z" fill="white"/>
<path d="M294.703 230.977C294.468 230.738 294.17 230.572 293.843 230.5C293.517 230.427 293.177 230.45 292.863 230.567C292.55 230.684 292.277 230.889 292.076 231.158C291.876 231.427 291.757 231.749 291.733 232.084C291.709 232.42 291.782 232.755 291.943 233.05C292.104 233.344 292.345 233.586 292.639 233.747C292.933 233.907 293.266 233.979 293.599 233.953C293.932 233.928 294.251 233.806 294.518 233.603L295.488 234.58L295.819 234.247L294.849 233.273C295.105 232.938 295.232 232.52 295.205 232.097C295.178 231.675 295 231.277 294.703 230.977ZM294.372 233.113C294.195 233.292 293.969 233.413 293.724 233.462C293.479 233.511 293.224 233.486 292.993 233.39C292.762 233.293 292.564 233.13 292.425 232.921C292.286 232.711 292.212 232.465 292.212 232.213C292.212 231.961 292.286 231.715 292.425 231.506C292.564 231.296 292.762 231.133 292.993 231.037C293.224 230.94 293.479 230.915 293.724 230.965C293.969 231.014 294.195 231.135 294.372 231.313C294.608 231.553 294.74 231.877 294.739 232.214C294.739 232.551 294.605 232.875 294.369 233.113H294.372Z" fill="#726666"/>
<path d="M309.878 230.74H304.723V231.25H309.878V230.74Z" fill="#726666"/>
<path d="M309.878 232.56H304.723V233.07H309.878V232.56Z" fill="#726666"/>
<path d="M309.878 234.377H304.723V234.887H309.878V234.377Z" fill="#726666"/>
<path d="M151.007 227.64H145.078C144.178 227.64 143.448 228.374 143.448 229.28V235.247C143.448 236.152 144.178 236.887 145.078 236.887H151.007C151.907 236.887 152.637 236.152 152.637 235.247V229.28C152.637 228.374 151.907 227.64 151.007 227.64Z" fill="#927463"/>
<path d="M145.601 231H150.487V231.057C150.487 231.708 150.229 232.333 149.772 232.794C149.314 233.254 148.693 233.513 148.046 233.513C147.398 233.513 146.777 233.254 146.319 232.794C145.861 232.333 145.604 231.708 145.604 231.057V231H145.601Z" fill="white"/>
<path d="M319.097 236.097C321.201 236.097 322.906 234.38 322.906 232.263C322.906 230.146 321.201 228.43 319.097 228.43C316.993 228.43 315.287 230.146 315.287 232.263C315.287 234.38 316.993 236.097 319.097 236.097Z" fill="#927463"/>
<path d="M319.096 232.35C319.839 232.35 320.441 231.744 320.441 230.997C320.441 230.249 319.839 229.643 319.096 229.643C318.354 229.643 317.752 230.249 317.752 230.997C317.752 231.744 318.354 232.35 319.096 232.35Z" fill="#927463"/>
<path d="M322.184 234.507C321.831 234.998 321.367 235.398 320.83 235.674C320.293 235.95 319.699 236.094 319.096 236.094C318.494 236.094 317.9 235.95 317.363 235.674C316.826 235.398 316.362 234.998 316.009 234.507C316.089 234.011 316.342 233.559 316.723 233.234C317.104 232.908 317.587 232.73 318.086 232.73H320.103C320.604 232.729 321.088 232.907 321.469 233.233C321.85 233.558 322.104 234.01 322.184 234.507Z" fill="#927463"/>
<path d="M319.096 232.35C319.839 232.35 320.441 231.744 320.441 230.997C320.441 230.249 319.839 229.643 319.096 229.643C318.354 229.643 317.752 230.249 317.752 230.997C317.752 231.744 318.354 232.35 319.096 232.35Z" fill="white"/>
<path d="M322.184 234.507C321.831 234.998 321.367 235.398 320.83 235.674C320.293 235.95 319.699 236.094 319.096 236.094C318.494 236.094 317.9 235.95 317.363 235.674C316.826 235.398 316.362 234.998 316.009 234.507C316.089 234.011 316.342 233.559 316.723 233.234C317.104 232.908 317.587 232.73 318.086 232.73H320.103C320.604 232.729 321.088 232.907 321.469 233.233C321.85 233.558 322.104 234.01 322.184 234.507Z" fill="white"/>
<path d="M149.543 249.15H144.981C144.209 249.15 143.584 249.78 143.584 250.557V254.947C143.584 255.724 144.209 256.353 144.981 256.353H149.543C150.315 256.353 150.941 255.724 150.941 254.947V250.557C150.941 249.78 150.315 249.15 149.543 249.15Z" fill="#927463"/>
<path d="M176.536 251.357H155.167C154.783 251.357 154.472 251.67 154.472 252.057V253.447C154.472 253.833 154.783 254.147 155.167 254.147H176.536C176.921 254.147 177.232 253.833 177.232 253.447V252.057C177.232 251.67 176.921 251.357 176.536 251.357Z" fill="#927463"/>
<path d="M176.536 267.98H155.167C154.783 267.98 154.472 268.293 154.472 268.68V270.07C154.472 270.457 154.783 270.77 155.167 270.77H176.536C176.921 270.77 177.232 270.457 177.232 270.07V268.68C177.232 268.293 176.921 267.98 176.536 267.98Z" fill="#927463"/>
<path d="M176.536 284.607H155.167C154.783 284.607 154.472 284.92 154.472 285.307V286.697C154.472 287.083 154.783 287.397 155.167 287.397H176.536C176.921 287.397 177.232 287.083 177.232 286.697V285.307C177.232 284.92 176.921 284.607 176.536 284.607Z" fill="#927463"/>
<path d="M176.536 301.23H155.167C154.783 301.23 154.472 301.543 154.472 301.93V303.32C154.472 303.707 154.783 304.02 155.167 304.02H176.536C176.921 304.02 177.232 303.707 177.232 303.32V301.93C177.232 301.543 176.921 301.23 176.536 301.23Z" fill="#927463"/>
<path d="M176.536 317.853H155.167C154.783 317.853 154.472 318.167 154.472 318.553V319.943C154.472 320.33 154.783 320.643 155.167 320.643H176.536C176.921 320.643 177.232 320.33 177.232 319.943V318.553C177.232 318.167 176.921 317.853 176.536 317.853Z" fill="#927463"/>
<path d="M149.543 265.773H144.981C144.209 265.773 143.584 266.403 143.584 267.18V271.57C143.584 272.347 144.209 272.977 144.981 272.977H149.543C150.315 272.977 150.941 272.347 150.941 271.57V267.18C150.941 266.403 150.315 265.773 149.543 265.773Z" fill="#927463"/>
<path d="M149.543 282.4H144.981C144.209 282.4 143.584 283.03 143.584 283.807V288.197C143.584 288.974 144.209 289.603 144.981 289.603H149.543C150.315 289.603 150.941 288.974 150.941 288.197V283.807C150.941 283.03 150.315 282.4 149.543 282.4Z" fill="#927463"/>
<path d="M149.543 299.023H144.981C144.209 299.023 143.584 299.653 143.584 300.43V304.82C143.584 305.597 144.209 306.227 144.981 306.227H149.543C150.315 306.227 150.941 305.597 150.941 304.82V300.43C150.941 299.653 150.315 299.023 149.543 299.023Z" fill="#927463"/>
<path d="M149.543 315.65H144.981C144.209 315.65 143.584 316.28 143.584 317.057V321.447C143.584 322.224 144.209 322.853 144.981 322.853H149.543C150.315 322.853 150.941 322.224 150.941 321.447V317.057C150.941 316.28 150.315 315.65 149.543 315.65Z" fill="#927463"/>
<path opacity="0.6" d="M149.543 249.15H144.981C144.209 249.15 143.584 249.78 143.584 250.557V254.947C143.584 255.724 144.209 256.353 144.981 256.353H149.543C150.315 256.353 150.941 255.724 150.941 254.947V250.557C150.941 249.78 150.315 249.15 149.543 249.15Z" fill="white"/>
<path opacity="0.6" d="M176.536 251.357H155.167C154.783 251.357 154.472 251.67 154.472 252.057V253.447C154.472 253.833 154.783 254.147 155.167 254.147H176.536C176.921 254.147 177.232 253.833 177.232 253.447V252.057C177.232 251.67 176.921 251.357 176.536 251.357Z" fill="white"/>
<path opacity="0.6" d="M176.536 267.98H155.167C154.783 267.98 154.472 268.293 154.472 268.68V270.07C154.472 270.457 154.783 270.77 155.167 270.77H176.536C176.921 270.77 177.232 270.457 177.232 270.07V268.68C177.232 268.293 176.921 267.98 176.536 267.98Z" fill="white"/>
<path opacity="0.6" d="M176.536 284.607H155.167C154.783 284.607 154.472 284.92 154.472 285.307V286.697C154.472 287.083 154.783 287.397 155.167 287.397H176.536C176.921 287.397 177.232 287.083 177.232 286.697V285.307C177.232 284.92 176.921 284.607 176.536 284.607Z" fill="white"/>
<path opacity="0.6" d="M176.536 301.23H155.167C154.783 301.23 154.472 301.543 154.472 301.93V303.32C154.472 303.707 154.783 304.02 155.167 304.02H176.536C176.921 304.02 177.232 303.707 177.232 303.32V301.93C177.232 301.543 176.921 301.23 176.536 301.23Z" fill="white"/>
<path opacity="0.6" d="M176.536 317.853H155.167C154.783 317.853 154.472 318.167 154.472 318.553V319.943C154.472 320.33 154.783 320.643 155.167 320.643H176.536C176.921 320.643 177.232 320.33 177.232 319.943V318.553C177.232 318.167 176.921 317.853 176.536 317.853Z" fill="white"/>
<path opacity="0.6" d="M149.543 265.773H144.981C144.209 265.773 143.584 266.403 143.584 267.18V271.57C143.584 272.347 144.209 272.977 144.981 272.977H149.543C150.315 272.977 150.941 272.347 150.941 271.57V267.18C150.941 266.403 150.315 265.773 149.543 265.773Z" fill="white"/>
<path opacity="0.6" d="M149.543 282.4H144.981C144.209 282.4 143.584 283.03 143.584 283.807V288.197C143.584 288.974 144.209 289.603 144.981 289.603H149.543C150.315 289.603 150.941 288.974 150.941 288.197V283.807C150.941 283.03 150.315 282.4 149.543 282.4Z" fill="white"/>
<path opacity="0.6" d="M149.543 299.023H144.981C144.209 299.023 143.584 299.653 143.584 300.43V304.82C143.584 305.597 144.209 306.227 144.981 306.227H149.543C150.315 306.227 150.941 305.597 150.941 304.82V300.43C150.941 299.653 150.315 299.023 149.543 299.023Z" fill="white"/>
<path opacity="0.6" d="M149.543 315.65H144.981C144.209 315.65 143.584 316.28 143.584 317.057V321.447C143.584 322.224 144.209 322.853 144.981 322.853H149.543C150.315 322.853 150.941 322.224 150.941 321.447V317.057C150.941 316.28 150.315 315.65 149.543 315.65Z" fill="white"/>
<path d="M319.282 245.733H187.772C187.132 245.733 186.613 246.256 186.613 246.9V249.403C186.613 250.048 187.132 250.57 187.772 250.57H319.282C319.922 250.57 320.441 250.048 320.441 249.403V246.9C320.441 246.256 319.922 245.733 319.282 245.733Z" fill="#DDD3CD"/>
<path opacity="0.3" d="M319.282 245.733H187.772C187.132 245.733 186.613 246.256 186.613 246.9V249.403C186.613 250.048 187.132 250.57 187.772 250.57H319.282C319.922 250.57 320.441 250.048 320.441 249.403V246.9C320.441 246.256 319.922 245.733 319.282 245.733Z" fill="white"/>
<path d="M277.501 328H187.362C186.948 328 186.613 328.337 186.613 328.753C186.613 329.169 186.948 329.507 187.362 329.507H277.501C277.915 329.507 278.25 329.169 278.25 328.753C278.25 328.337 277.915 328 277.501 328Z" fill="#927463"/>
<path d="M277.501 321.343H187.362C186.948 321.343 186.613 321.681 186.613 322.097C186.613 322.513 186.948 322.85 187.362 322.85H277.501C277.915 322.85 278.25 322.513 278.25 322.097C278.25 321.681 277.915 321.343 277.501 321.343Z" fill="#927463"/>
<path d="M277.501 314.69H187.362C186.948 314.69 186.613 315.027 186.613 315.443C186.613 315.859 186.948 316.197 187.362 316.197H277.501C277.915 316.197 278.25 315.859 278.25 315.443C278.25 315.027 277.915 314.69 277.501 314.69Z" fill="#927463"/>
<path d="M277.501 308.033H187.362C186.948 308.033 186.613 308.371 186.613 308.787C186.613 309.203 186.948 309.54 187.362 309.54H277.501C277.915 309.54 278.25 309.203 278.25 308.787C278.25 308.371 277.915 308.033 277.501 308.033Z" fill="#927463"/>
<path d="M277.501 301.377H187.362C186.948 301.377 186.613 301.714 186.613 302.13C186.613 302.546 186.948 302.883 187.362 302.883H277.501C277.915 302.883 278.25 302.546 278.25 302.13C278.25 301.714 277.915 301.377 277.501 301.377Z" fill="#927463"/>
<path d="M277.501 294.72H187.362C186.948 294.72 186.613 295.057 186.613 295.473C186.613 295.889 186.948 296.227 187.362 296.227H277.501C277.915 296.227 278.25 295.889 278.25 295.473C278.25 295.057 277.915 294.72 277.501 294.72Z" fill="#927463"/>
<path d="M319.69 288.067H246.321C245.907 288.067 245.573 288.404 245.573 288.82C245.573 289.236 245.907 289.573 246.321 289.573H319.69C320.103 289.573 320.438 289.236 320.438 288.82C320.438 288.404 320.103 288.067 319.69 288.067Z" fill="#927463"/>
<path d="M319.69 281.41H246.321C245.907 281.41 245.573 281.747 245.573 282.163C245.573 282.579 245.907 282.917 246.321 282.917H319.69C320.103 282.917 320.438 282.579 320.438 282.163C320.438 281.747 320.103 281.41 319.69 281.41Z" fill="#927463"/>
<path d="M319.69 274.753H246.321C245.907 274.753 245.573 275.091 245.573 275.507C245.573 275.923 245.907 276.26 246.321 276.26H319.69C320.103 276.26 320.438 275.923 320.438 275.507C320.438 275.091 320.103 274.753 319.69 274.753Z" fill="#927463"/>
<path d="M319.69 268.097H246.321C245.907 268.097 245.573 268.434 245.573 268.85C245.573 269.266 245.907 269.603 246.321 269.603H319.69C320.103 269.603 320.438 269.266 320.438 268.85C320.438 268.434 320.103 268.097 319.69 268.097Z" fill="#927463"/>
<path d="M319.69 261.443H246.321C245.907 261.443 245.573 261.781 245.573 262.197C245.573 262.613 245.907 262.95 246.321 262.95H319.69C320.103 262.95 320.438 262.613 320.438 262.197C320.438 261.781 320.103 261.443 319.69 261.443Z" fill="#927463"/>
<path d="M319.69 254.787H246.321C245.907 254.787 245.573 255.124 245.573 255.54C245.573 255.956 245.907 256.293 246.321 256.293H319.69C320.103 256.293 320.438 255.956 320.438 255.54C320.438 255.124 320.103 254.787 319.69 254.787Z" fill="#927463"/>
<g opacity="0.6">
<path opacity="0.6" d="M277.501 328H187.362C186.948 328 186.613 328.337 186.613 328.753C186.613 329.169 186.948 329.507 187.362 329.507H277.501C277.915 329.507 278.25 329.169 278.25 328.753C278.25 328.337 277.915 328 277.501 328Z" fill="white"/>
<path opacity="0.6" d="M277.501 321.343H187.362C186.948 321.343 186.613 321.681 186.613 322.097C186.613 322.513 186.948 322.85 187.362 322.85H277.501C277.915 322.85 278.25 322.513 278.25 322.097C278.25 321.681 277.915 321.343 277.501 321.343Z" fill="white"/>
<path opacity="0.6" d="M277.501 314.69H187.362C186.948 314.69 186.613 315.027 186.613 315.443C186.613 315.859 186.948 316.197 187.362 316.197H277.501C277.915 316.197 278.25 315.859 278.25 315.443C278.25 315.027 277.915 314.69 277.501 314.69Z" fill="white"/>
<path opacity="0.6" d="M277.501 308.033H187.362C186.948 308.033 186.613 308.371 186.613 308.787C186.613 309.203 186.948 309.54 187.362 309.54H277.501C277.915 309.54 278.25 309.203 278.25 308.787C278.25 308.371 277.915 308.033 277.501 308.033Z" fill="white"/>
<path opacity="0.6" d="M277.501 301.377H187.362C186.948 301.377 186.613 301.714 186.613 302.13C186.613 302.546 186.948 302.883 187.362 302.883H277.501C277.915 302.883 278.25 302.546 278.25 302.13C278.25 301.714 277.915 301.377 277.501 301.377Z" fill="white"/>
<path opacity="0.6" d="M277.501 294.72H187.362C186.948 294.72 186.613 295.057 186.613 295.473C186.613 295.889 186.948 296.227 187.362 296.227H277.501C277.915 296.227 278.25 295.889 278.25 295.473C278.25 295.057 277.915 294.72 277.501 294.72Z" fill="white"/>
<path opacity="0.6" d="M319.69 288.067H246.321C245.907 288.067 245.573 288.404 245.573 288.82C245.573 289.236 245.907 289.573 246.321 289.573H319.69C320.103 289.573 320.438 289.236 320.438 288.82C320.438 288.404 320.103 288.067 319.69 288.067Z" fill="white"/>
<path opacity="0.6" d="M319.69 281.41H246.321C245.907 281.41 245.573 281.747 245.573 282.163C245.573 282.579 245.907 282.917 246.321 282.917H319.69C320.103 282.917 320.438 282.579 320.438 282.163C320.438 281.747 320.103 281.41 319.69 281.41Z" fill="white"/>
<path opacity="0.6" d="M319.69 274.753H246.321C245.907 274.753 245.573 275.091 245.573 275.507C245.573 275.923 245.907 276.26 246.321 276.26H319.69C320.103 276.26 320.438 275.923 320.438 275.507C320.438 275.091 320.103 274.753 319.69 274.753Z" fill="white"/>
<path opacity="0.6" d="M319.69 268.097H246.321C245.907 268.097 245.573 268.434 245.573 268.85C245.573 269.266 245.907 269.603 246.321 269.603H319.69C320.103 269.603 320.438 269.266 320.438 268.85C320.438 268.434 320.103 268.097 319.69 268.097Z" fill="white"/>
<path opacity="0.6" d="M319.69 261.443H246.321C245.907 261.443 245.573 261.781 245.573 262.197C245.573 262.613 245.907 262.95 246.321 262.95H319.69C320.103 262.95 320.438 262.613 320.438 262.197C320.438 261.781 320.103 261.443 319.69 261.443Z" fill="white"/>
<path opacity="0.6" d="M319.69 254.787H246.321C245.907 254.787 245.573 255.124 245.573 255.54C245.573 255.956 245.907 256.293 246.321 256.293H319.69C320.103 256.293 320.438 255.956 320.438 255.54C320.438 255.124 320.103 254.787 319.69 254.787Z" fill="white"/>
</g>
<path d="M327.855 241.503H137.81V241.737H181.485V260.947H137.81V261.18H181.485V277.57H137.81V277.803H181.485V294.197H137.81V294.43H181.485V310.82H137.81V311.053H181.485V327.447H137.81V327.68H181.485V333.87H181.717V241.737H327.855V241.503Z" fill="#DDD3CD"/>
<path d="M186.616 257.56V287.63C186.616 289.219 187.896 290.507 189.475 290.507H236.214C237.793 290.507 239.073 289.219 239.073 287.63V257.56C239.073 255.971 237.793 254.683 236.214 254.683H189.475C187.896 254.683 186.616 255.971 186.616 257.56Z" fill="#927463"/>
<path opacity="0.7" d="M186.616 257.56V287.63C186.616 289.219 187.896 290.507 189.475 290.507H236.214C237.793 290.507 239.073 289.219 239.073 287.63V257.56C239.073 255.971 237.793 254.683 236.214 254.683H189.475C187.896 254.683 186.616 255.971 186.616 257.56Z" fill="white"/>
<path d="M192.867 288.22L206.435 279.497L193.013 270.77L192.867 288.22Z" fill="#DDD3CD"/>
<path d="M215.001 267.753V286.947H234.075V267.753H215.001Z" fill="white"/>
<path d="M211.54 275.657C216.412 275.657 220.361 271.682 220.361 266.78C220.361 261.878 216.412 257.903 211.54 257.903C206.668 257.903 202.718 261.878 202.718 266.78C202.718 271.682 206.668 275.657 211.54 275.657Z" fill="#927463"/>
<path d="M317.732 292.99H287.161C285.582 292.99 284.302 294.278 284.302 295.867V326.63C284.302 328.219 285.582 329.507 287.161 329.507H317.732C319.311 329.507 320.59 328.219 320.59 326.63V295.867C320.59 294.278 319.311 292.99 317.732 292.99Z" fill="#927463"/>
<path opacity="0.7" d="M317.732 292.99H287.161C285.582 292.99 284.302 294.278 284.302 295.867V326.63C284.302 328.219 285.582 329.507 287.161 329.507H317.732C319.311 329.507 320.59 328.219 320.59 326.63V295.867C320.59 294.278 319.311 292.99 317.732 292.99Z" fill="white"/>
<path d="M292.162 300.733H312.7V301.603C312.7 304.344 311.618 306.972 309.692 308.91C307.767 310.848 305.155 311.937 302.431 311.937C299.708 311.937 297.096 310.848 295.17 308.91C293.244 306.972 292.162 304.344 292.162 301.603V300.733Z" fill="#DDD3CD"/>
<path d="M312.723 315.817H292.172V321.767H312.723V315.817Z" fill="white"/>
<path d="M172.982 229.643H156.224C155.591 229.643 155.078 230.16 155.078 230.797V233.223C155.078 233.86 155.591 234.377 156.224 234.377H172.982C173.615 234.377 174.128 233.86 174.128 233.223V230.797C174.128 230.16 173.615 229.643 172.982 229.643Z" fill="#927463"/>
<path d="M148.844 147.333L156.423 142.093C156.597 141.974 156.799 141.905 157.009 141.892C157.219 141.879 157.429 141.923 157.615 142.02L160.421 143.467L177.712 131.513C177.969 131.336 178.284 131.269 178.59 131.326C178.895 131.382 179.166 131.559 179.342 131.817L192.012 150.38C192.093 150.497 192.15 150.629 192.179 150.768C192.209 150.908 192.211 151.052 192.185 151.192C192.159 151.332 192.106 151.465 192.029 151.584C191.951 151.704 191.851 151.806 191.734 151.887L164.631 170.613C164.398 170.774 164.112 170.835 163.834 170.783C163.557 170.731 163.311 170.571 163.151 170.337L148.549 148.947C148.381 148.692 148.318 148.381 148.372 148.08C148.427 147.779 148.596 147.511 148.844 147.333Z" fill="#927463"/>
<path d="M192.493 150.83L186.639 131.22C186.605 131.102 186.543 130.993 186.459 130.904C186.375 130.814 186.271 130.746 186.156 130.705C186.04 130.663 185.917 130.65 185.795 130.666C185.674 130.682 185.558 130.727 185.457 130.797L158.086 149.717C157.903 149.84 157.764 150.02 157.691 150.229C157.618 150.438 157.613 150.665 157.678 150.877L163.512 170.407C163.537 170.499 163.585 170.584 163.65 170.654C163.715 170.725 163.795 170.778 163.885 170.811C163.975 170.843 164.071 170.854 164.166 170.842C164.261 170.829 164.351 170.794 164.429 170.74L192.254 151.5C192.361 151.429 192.441 151.326 192.484 151.205C192.527 151.084 192.53 150.953 192.493 150.83Z" fill="#927463"/>
<path opacity="0.4" d="M192.493 150.83L186.639 131.22C186.605 131.102 186.543 130.993 186.459 130.904C186.375 130.814 186.271 130.746 186.156 130.705C186.04 130.663 185.917 130.65 185.795 130.666C185.674 130.682 185.558 130.727 185.457 130.797L158.086 149.717C157.903 149.84 157.764 150.02 157.691 150.229C157.618 150.438 157.613 150.665 157.678 150.877L163.512 170.407C163.537 170.499 163.585 170.584 163.65 170.654C163.715 170.725 163.795 170.778 163.885 170.811C163.975 170.843 164.071 170.854 164.166 170.842C164.261 170.829 164.351 170.794 164.429 170.74L192.254 151.5C192.361 151.429 192.441 151.326 192.484 151.205C192.527 151.084 192.53 150.953 192.493 150.83Z" fill="white"/>
<path opacity="0.6" d="M192.493 150.83L186.639 131.22L192.493 150.83Z" fill="white"/>
<path d="M278.495 116.667L256.652 113.8C256.479 113.778 256.311 113.722 256.159 113.635C256.007 113.547 255.874 113.431 255.767 113.291C255.66 113.152 255.582 112.992 255.537 112.822C255.491 112.652 255.48 112.475 255.503 112.3L259.147 84.05C259.169 83.8754 259.224 83.7064 259.311 83.5537C259.398 83.4007 259.514 83.2667 259.653 83.1591C259.791 83.0514 259.95 82.9727 260.119 82.9271C260.288 82.8814 260.464 82.87 260.637 82.8934L282.417 85.7234C282.591 85.7451 282.758 85.8014 282.91 85.8884C283.061 85.9754 283.195 86.092 283.301 86.231C283.408 86.37 283.487 86.5291 283.532 86.6987C283.578 86.8687 283.589 87.0457 283.567 87.2201L279.986 115.497C279.966 115.673 279.911 115.843 279.825 115.997C279.739 116.152 279.623 116.287 279.484 116.396C279.345 116.505 279.187 116.585 279.017 116.632C278.847 116.678 278.67 116.69 278.495 116.667Z" fill="#927463"/>
<path opacity="0.2" d="M278.495 116.667L256.652 113.8C256.479 113.778 256.311 113.722 256.159 113.635C256.007 113.547 255.874 113.431 255.767 113.291C255.66 113.152 255.582 112.992 255.537 112.822C255.491 112.652 255.48 112.475 255.503 112.3L259.147 84.05C259.169 83.8754 259.224 83.7064 259.311 83.5537C259.398 83.4007 259.514 83.2667 259.653 83.1591C259.791 83.0514 259.95 82.9727 260.119 82.9271C260.288 82.8814 260.464 82.87 260.637 82.8934L282.417 85.7234C282.591 85.7451 282.758 85.8014 282.91 85.8884C283.061 85.9754 283.195 86.092 283.301 86.231C283.408 86.37 283.487 86.5291 283.532 86.6987C283.578 86.8687 283.589 87.0457 283.567 87.2201L279.986 115.497C279.966 115.673 279.911 115.843 279.825 115.997C279.739 116.152 279.623 116.287 279.484 116.396C279.345 116.505 279.187 116.585 279.017 116.632C278.847 116.678 278.67 116.69 278.495 116.667Z" fill="white"/>
<path d="M280.469 115.393L259.21 107.237C258.97 107.144 258.776 106.959 258.671 106.723C258.566 106.487 258.558 106.218 258.65 105.977L268.992 78.6667C269.084 78.425 269.267 78.2297 269.501 78.1237C269.736 78.0173 270.003 78.009 270.244 78.1L285.796 84.0667L289.86 93.3333L281.721 114.823C281.63 115.066 281.447 115.262 281.212 115.368C280.978 115.475 280.711 115.484 280.469 115.393Z" fill="#927463"/>
<path opacity="0.6" d="M280.469 115.393L259.21 107.237C258.97 107.144 258.776 106.959 258.671 106.723C258.566 106.487 258.558 106.218 258.65 105.977L268.992 78.6667C269.084 78.425 269.267 78.2297 269.501 78.1237C269.736 78.0173 270.003 78.009 270.244 78.1L285.796 84.0667L289.86 93.3333L281.721 114.823C281.63 115.066 281.447 115.262 281.212 115.368C280.978 115.475 280.711 115.484 280.469 115.393Z" fill="white"/>
<path d="M289.86 93.3333L284.156 91.1467C283.916 91.054 283.722 90.8693 283.617 90.6333C283.513 90.397 283.505 90.1283 283.596 89.8867L285.796 84.0767L289.86 93.3333Z" fill="#927463"/>
<path opacity="0.2" d="M289.86 93.3333L284.156 91.1467C283.916 91.054 283.722 90.8693 283.617 90.6333C283.513 90.397 283.505 90.1283 283.596 89.8867L285.796 84.0767L289.86 93.3333Z" fill="white"/>
<path d="M273.691 82.873L271.104 81.8804L268.784 88.0037L271.371 88.9964L273.691 82.873Z" fill="#927463"/>
<path d="M275.211 86.6831L272.624 85.6904L271.37 88.9981L273.958 89.9908L275.211 86.6831Z" fill="white"/>
<path d="M284.938 97.5484L267.677 90.9258L267.146 92.3274L284.407 98.9501L284.938 97.5484Z" fill="white"/>
<path d="M282.899 102.928L265.637 96.3057L265.106 97.7073L282.368 104.33L282.899 102.928Z" fill="white"/>
<path d="M275.713 106.329L263.602 101.683L263.071 103.084L275.182 107.731L275.713 106.329Z" fill="white"/>
<path d="M329.12 129.571L298.925 123.648L294.431 146.848L324.626 152.771L329.12 129.571Z" fill="white"/>
<path d="M327.295 130.856L300.134 125.529L296.253 145.562L323.415 150.889L327.295 130.856Z" fill="#927463"/>
<path opacity="0.7" d="M327.295 130.856L300.134 125.529L296.253 145.562L323.415 150.889L327.295 130.856Z" fill="white"/>
<path d="M325.254 141.427L319.934 134.56C319.802 134.388 319.612 134.27 319.399 134.228C319.186 134.186 318.966 134.224 318.778 134.333L310.497 139.147L307.516 135.297C307.383 135.126 307.193 135.009 306.982 134.967C306.77 134.926 306.55 134.962 306.363 135.07L297.267 140.353L296.273 145.543L323.436 150.877L325.254 141.427Z" fill="#927463"/>
<path opacity="0.2" d="M325.254 141.427L319.954 134.573C319.818 134.398 319.623 134.278 319.406 134.236C319.189 134.193 318.963 134.232 318.772 134.343L310.514 139.147L307.532 135.313C307.397 135.137 307.202 135.017 306.985 134.974C306.767 134.931 306.542 134.969 306.35 135.08L297.27 140.353L296.277 145.543L323.439 150.877L325.254 141.427Z" fill="white"/>
<path d="M311.809 133.39C312.695 133.39 313.413 132.668 313.413 131.777C313.413 130.886 312.695 130.163 311.809 130.163C310.924 130.163 310.206 130.886 310.206 131.777C310.206 132.668 310.924 133.39 311.809 133.39Z" fill="white"/>
<path opacity="0.15" d="M310.504 139.147L308.848 140.117C308.777 140.157 308.699 140.179 308.618 140.184C308.538 140.188 308.457 140.173 308.383 140.141C308.309 140.109 308.243 140.06 308.191 139.998C308.139 139.936 308.102 139.862 308.082 139.783L306.807 134.947C306.949 134.945 307.09 134.976 307.218 135.038C307.346 135.1 307.458 135.191 307.546 135.303L310.504 139.147Z" fill="black"/>
<path opacity="0.15" d="M325.258 141.427L323.933 148.27L319.431 134.24C319.636 134.288 319.817 134.405 319.944 134.573L325.258 141.427Z" fill="black"/>
<path d="M221.194 93.3646L203.356 94.9476C200.925 95.1636 199.128 97.3216 199.342 99.7679L200.915 117.718C201.13 120.165 203.275 121.973 205.706 121.757L223.544 120.174C225.975 119.958 227.771 117.8 227.557 115.354L225.984 97.4036C225.77 94.9573 223.625 93.149 221.194 93.3646Z" fill="#927463"/>
<path opacity="0.2" d="M221.194 93.3646L203.356 94.9476C200.925 95.1636 199.128 97.3216 199.342 99.7679L200.915 117.718C201.13 120.165 203.275 121.973 205.706 121.757L223.544 120.174C225.975 119.958 227.771 117.8 227.557 115.354L225.984 97.4036C225.77 94.9573 223.625 93.149 221.194 93.3646Z" fill="white"/>
<path d="M219.162 100.36C219.106 100.308 219.038 100.271 218.965 100.25C218.892 100.23 218.815 100.228 218.741 100.243L209.545 102.91C209.407 102.95 209.288 103.041 209.212 103.164C209.136 103.287 209.107 103.434 209.131 103.577L209.748 111.847C209.259 111.557 208.692 111.428 208.128 111.48C207.651 111.555 207.206 111.768 206.848 112.094C206.491 112.419 206.235 112.843 206.114 113.313C205.992 113.783 206.01 114.278 206.164 114.738C206.319 115.198 206.604 115.602 206.984 115.902C207.364 116.201 207.822 116.381 208.303 116.422C208.784 116.462 209.266 116.36 209.69 116.128C210.114 115.896 210.461 115.545 210.689 115.117C210.917 114.689 211.016 114.204 210.973 113.72L210.503 107.133L218.658 104.7L219.102 109.77C218.613 109.481 218.047 109.353 217.482 109.403C217.006 109.478 216.561 109.691 216.203 110.017C215.845 110.343 215.59 110.766 215.468 111.236C215.347 111.706 215.364 112.201 215.519 112.661C215.674 113.121 215.958 113.526 216.338 113.825C216.718 114.124 217.177 114.305 217.658 114.345C218.138 114.385 218.62 114.283 219.044 114.051C219.468 113.82 219.816 113.468 220.044 113.04C220.272 112.613 220.37 112.127 220.328 111.643L219.377 100.823C219.373 100.736 219.352 100.65 219.315 100.57C219.278 100.491 219.226 100.419 219.162 100.36Z" fill="white"/>
<path d="M208.376 167.047L206.922 166.41L207.207 165.743L208.661 166.383L208.376 167.047ZM205.216 165.667L203.513 164.92L203.798 164.253L205.501 165L205.216 165.667ZM201.807 164.173L200.105 163.427L200.39 162.76L202.093 163.507L201.807 164.173ZM198.419 162.667L196.713 161.92L196.998 161.253L198.704 162L198.419 162.667ZM195.011 161.17L193.304 160.423L193.589 159.757L195.295 160.503L195.011 161.17ZM191.602 159.677L189.896 158.93L190.181 158.263L191.887 159.01L191.602 159.677ZM188.193 158.183L186.487 157.437L186.772 156.77L188.478 157.517L188.193 158.183Z" fill="#726666"/>
<path d="M225.313 136.87L224.382 135.253L224.998 134.893L225.929 136.51L225.313 136.87ZM223.448 133.633L222.517 132.017L223.133 131.657L224.064 133.273L223.448 133.633ZM221.583 130.397L220.652 128.78L221.268 128.42L222.199 130.037L221.583 130.397ZM219.718 127.163L218.787 125.543L219.403 125.183L220.334 126.803L219.718 127.163ZM217.853 123.927L216.922 122.307L217.538 121.947L218.473 123.567L217.853 123.927Z" fill="#726666"/>
<path d="M261.025 131.82L260.383 131.507L261.188 129.84L261.83 130.15L261.025 131.82ZM262.635 128.447L261.993 128.137L262.798 126.45L263.44 126.76L262.635 128.447ZM264.242 125.073L263.602 124.763L264.407 123.077L265.047 123.39L264.242 125.073ZM265.852 121.703L265.209 121.393L266.014 119.707L266.657 120.017L265.852 121.703ZM267.445 118.333L266.802 118.023L267.607 116.337L268.25 116.647L267.445 118.333Z" fill="#726666"/>
<path d="M266.862 155.837L266.616 155.17L268.359 154.523L268.607 155.19L266.862 155.837ZM270.35 154.54L270.101 153.873L271.847 153.227L272.092 153.893L270.35 154.54ZM273.838 153.243L273.589 152.577L275.332 151.93L275.58 152.597L273.838 153.243ZM277.322 151.947L277.077 151.28L278.82 150.633L279.065 151.3L277.322 151.947ZM280.811 150.667L280.562 150L282.304 149.353L282.553 150.02L280.811 150.667ZM284.295 149.37L284.05 148.703L285.793 148.037L286.041 148.703L284.295 149.37ZM287.783 148.073L287.535 147.407L289.281 146.757L289.526 147.423L287.783 148.073ZM291.271 146.777L291.023 146.11L292.765 145.46L293.014 146.127L291.271 146.777Z" fill="#726666"/>
<path d="M240.819 204.793H240.09V202.92H240.819V204.793ZM240.819 201.05H240.09V199.18H240.819V201.05ZM240.819 197.31H240.09V195.44H240.819V197.31ZM240.819 193.57H240.09V191.7H240.819V193.57ZM240.819 189.83H240.09V187.96H240.819V189.83ZM240.819 186.087H240.09V184.217H240.819V186.087ZM240.819 182.333H240.09V180.463H240.819V182.333ZM240.819 178.593H240.09V176.723H240.819V178.593ZM240.819 174.853H240.09V173H240.819V174.853ZM240.819 171.113H240.09V169.24H240.819V171.113Z" fill="#726666"/>
<path d="M241.024 190.903H239.401C239.026 190.903 238.722 191.209 238.722 191.587V193.22C238.722 193.597 239.026 193.903 239.401 193.903H241.024C241.399 193.903 241.703 193.597 241.703 193.22V191.587C241.703 191.209 241.399 190.903 241.024 190.903Z" fill="#726666"/>
<path d="M300.325 169.197H298.595C298.195 169.197 297.87 169.523 297.87 169.927V171.667C297.87 172.07 298.195 172.397 298.595 172.397H300.325C300.725 172.397 301.05 172.07 301.05 171.667V169.927C301.05 169.523 300.725 169.197 300.325 169.197Z" fill="#726666"/>
<path d="M345.666 169.297H344.043C343.669 169.297 343.364 169.603 343.364 169.98V171.613C343.364 171.991 343.669 172.297 344.043 172.297H345.666C346.04 172.297 346.345 171.991 346.345 171.613V169.98C346.345 169.603 346.04 169.297 345.666 169.297Z" fill="#726666"/>
<path d="M369.94 195.053H368.317C367.943 195.053 367.638 195.359 367.638 195.737V197.37C367.638 197.747 367.943 198.053 368.317 198.053H369.94C370.314 198.053 370.619 197.747 370.619 197.37V195.737C370.619 195.359 370.314 195.053 369.94 195.053Z" fill="#726666"/>
<path d="M369.914 239.527L368.29 239.555C367.916 239.562 367.618 239.873 367.625 240.25L367.651 241.883C367.658 242.261 367.969 242.561 368.343 242.555L369.967 242.526C370.341 242.52 370.639 242.208 370.632 241.831L370.606 240.198C370.599 239.821 370.288 239.52 369.914 239.527Z" fill="#726666"/>
<path d="M472.276 350H61.371C61.2972 350 61.2263 349.97 61.1743 349.917C61.1219 349.867 61.0928 349.793 61.0928 349.72C61.0928 349.647 61.1219 349.573 61.1743 349.523C61.2263 349.47 61.2972 349.44 61.371 349.44H472.276C472.349 349.44 472.422 349.47 472.472 349.523C472.525 349.573 472.555 349.647 472.555 349.72C472.555 349.793 472.525 349.867 472.472 349.917C472.422 349.97 472.349 350 472.276 350Z" fill="#DDD3CD"/>
<g opacity="0.6">
<path opacity="0.6" d="M472.276 350H61.371C61.2972 350 61.2263 349.97 61.1743 349.917C61.1219 349.867 61.0928 349.793 61.0928 349.72C61.0928 349.647 61.1219 349.573 61.1743 349.523C61.2263 349.47 61.2972 349.44 61.371 349.44H472.276C472.349 349.44 472.422 349.47 472.472 349.523C472.525 349.573 472.555 349.647 472.555 349.72C472.555 349.793 472.525 349.867 472.472 349.917C472.422 349.97 472.349 350 472.276 350Z" fill="white"/>
</g>
<path d="M380.606 277.157L380.461 274.097C380.434 273.551 380.232 273.028 379.887 272.607L378.837 271.333C378.702 271.168 378.523 271.045 378.324 270.976C378.122 270.908 377.903 270.898 377.698 270.947L375.25 271.517C375.194 271.53 375.141 271.562 375.101 271.607C375.064 271.653 375.041 271.71 375.038 271.77C375.054 272.088 375.19 272.388 375.412 272.614C375.637 272.839 375.936 272.974 376.25 272.993L377.758 273.083L378.039 273.633C378.076 273.703 378.082 273.784 378.066 273.86L377.555 274.86C377.479 275.011 377.37 275.143 377.234 275.246C377.102 275.349 376.946 275.421 376.78 275.457C376.615 275.492 376.442 275.49 376.28 275.451C376.114 275.412 375.962 275.336 375.83 275.23L374.975 274.543L373.564 277.21L374.336 278.643C374.544 279.034 374.839 279.372 375.2 279.631C375.558 279.891 375.969 280.066 376.403 280.143L376.734 280.2C376.82 280.214 376.9 280.245 376.972 280.291C377.045 280.338 377.108 280.399 377.158 280.47L378.536 282.487L382.203 279.44L380.749 277.537C380.663 277.428 380.613 277.295 380.606 277.157Z" fill="#FC9D9D"/>
<g opacity="0.15">
<path opacity="0.15" d="M379.056 271.637C379.404 272.058 379.603 272.581 379.629 273.127L379.781 278.047C379.785 278.177 379.824 278.303 379.897 278.41L381.179 280.27L382.173 279.437L380.719 277.533C380.636 277.425 380.586 277.294 380.58 277.157L380.434 274.097C380.407 273.551 380.205 273.028 379.861 272.607L378.811 271.333C378.774 271.291 378.738 271.251 378.698 271.213L379.056 271.637Z" fill="black"/>
</g>
<path d="M397.477 289.5L394.274 292.58L381.666 278.76L377.651 281.267L389.994 300.747C390.395 301.377 390.931 301.907 391.564 302.297C392.2 302.686 392.916 302.925 393.654 302.995C394.393 303.065 395.141 302.964 395.834 302.699C396.529 302.435 397.156 302.015 397.666 301.47L404.622 294.013L397.477 289.5Z" fill="#DDD3CD"/>
<path d="M373.478 273.09L373.196 276.623L369.321 269.4C369.218 269.212 369.195 268.991 369.251 268.785C369.307 268.578 369.443 268.402 369.625 268.293C369.811 268.183 370.033 268.151 370.241 268.204C370.453 268.257 370.632 268.391 370.745 268.577L373.478 273.09Z" fill="#FC9D9D"/>
<path opacity="0.15" d="M370.745 268.577C370.655 268.432 370.526 268.318 370.371 268.251C370.218 268.183 370.046 268.165 369.88 268.2C369.996 268.268 370.092 268.363 370.162 268.477L371.765 271.143C371.947 271.448 372.06 271.79 372.096 272.143L372.454 275.277L373.19 276.653L373.471 273.12L370.745 268.577Z" fill="black"/>
<path opacity="0.15" d="M376.174 276.367L375.207 275.643L375.127 275.513L374.905 277.53L375.078 277.573L375.177 276.713C375.22 276.832 375.293 276.937 375.389 277.018C375.485 277.099 375.604 277.153 375.727 277.173L376.439 277.19L376.174 276.367Z" fill="black"/>
<path d="M368.019 262.127L367.688 262.327C367.618 262.369 367.558 262.426 367.509 262.492C367.462 262.558 367.426 262.634 367.406 262.714C367.389 262.794 367.386 262.877 367.399 262.958C367.409 263.039 367.439 263.117 367.482 263.187L376.141 277.267C376.184 277.338 376.244 277.399 376.31 277.448C376.379 277.496 376.456 277.53 376.535 277.548C376.618 277.566 376.701 277.568 376.784 277.553C376.866 277.537 376.943 277.506 377.012 277.46L377.489 277.127C377.625 277.037 377.721 276.898 377.754 276.738C377.787 276.578 377.757 276.411 377.671 276.273L368.87 262.333C368.784 262.192 368.648 262.091 368.486 262.053C368.327 262.014 368.158 262.04 368.019 262.127Z" fill="#927463"/>
<path d="M372.024 269.617L372.706 275.67L374.339 278.67L374.548 276.783L373.6 269.433C373.577 269.237 373.481 269.058 373.332 268.929C373.183 268.8 372.991 268.732 372.795 268.737C372.686 268.739 372.577 268.765 372.477 268.811C372.381 268.858 372.292 268.924 372.219 269.007C372.146 269.09 372.09 269.186 372.057 269.291C372.024 269.396 372.014 269.507 372.024 269.617Z" fill="#FC9D9D"/>
<path d="M374.144 272.76L373.428 276.567L374.627 278.48L375.253 272.927C375.263 272.82 375.247 272.713 375.2 272.616C375.151 272.52 375.078 272.439 374.988 272.383C374.912 272.335 374.823 272.307 374.733 272.301C374.64 272.294 374.551 272.31 374.468 272.348C374.385 272.385 374.312 272.442 374.256 272.513C374.2 272.585 374.16 272.67 374.144 272.76Z" fill="#FC9D9D"/>
<path opacity="0.15" d="M374.077 273.117L373.587 275.73L373.773 270.753L374.077 273.117Z" fill="black"/>
<path opacity="0.6" d="M381.666 278.76L382.402 279.567L378.251 282.213L377.651 281.267L381.666 278.76Z" fill="black"/>
<path d="M392.819 301.953C393.118 301.953 393.359 301.71 393.359 301.41C393.359 301.11 393.118 300.867 392.819 300.867C392.521 300.867 392.279 301.11 392.279 301.41C392.279 301.71 392.521 301.953 392.819 301.953Z" fill="white"/>
<path d="M399.703 254.577C402.813 254.577 405.334 252.04 405.334 248.91C405.334 245.78 402.813 243.243 399.703 243.243C396.592 243.243 394.072 245.78 394.072 248.91C394.072 252.04 396.592 254.577 399.703 254.577Z" fill="#927463"/>
<path d="M243.171 333.667L239.858 332.94C239.727 332.911 239.591 332.912 239.461 332.943C239.33 332.974 239.208 333.034 239.103 333.119C238.999 333.204 238.914 333.311 238.856 333.433C238.798 333.553 238.768 333.687 238.769 333.823C238.769 334.003 238.822 334.18 238.922 334.327C239.021 334.477 239.163 334.593 239.328 334.66L243.366 336.327L243.171 333.667Z" fill="#FC9D9D"/>
<path opacity="0.15" d="M243.171 333.667L239.858 332.94C239.727 332.911 239.591 332.912 239.461 332.943C239.33 332.974 239.208 333.034 239.103 333.119C238.999 333.204 238.914 333.311 238.856 333.433C238.798 333.553 238.768 333.687 238.769 333.823C238.769 334.003 238.822 334.18 238.922 334.327C239.021 334.477 239.163 334.593 239.328 334.66L243.366 336.327L243.171 333.667Z" fill="black"/>
<path d="M268.289 339.53L258.259 340.583C257.132 340.7 255.998 340.467 255.006 339.917L244.463 333.88C243.365 333.337 242.344 332.647 241.425 331.833L241.382 331.797C241.208 331.64 240.989 331.544 240.757 331.523C240.525 331.502 240.292 331.557 240.093 331.68L240.07 331.697C239.941 331.777 239.829 331.883 239.741 332.008C239.654 332.133 239.592 332.275 239.562 332.425C239.531 332.575 239.53 332.729 239.561 332.879C239.591 333.029 239.652 333.171 239.739 333.297L243.853 339.237C244.393 340.013 246.205 341.41 247.043 341.837C248.285 342.467 249.255 343.537 249.769 344.837L250.809 347.503C250.991 347.967 251.27 348.387 251.626 348.733C251.983 349.08 252.41 349.347 252.877 349.513C253.345 349.68 253.843 349.743 254.337 349.7C254.831 349.657 255.31 349.507 255.742 349.26L257.149 348.457L268.707 349.197L268.289 339.53Z" fill="#FC9D9D"/>
<g opacity="0.2">
<path opacity="0.2" d="M256.6 347.393C256.5 347.397 256.402 347.417 256.312 347.46L255.199 347.96C253.834 348.737 251.886 348.203 250.637 347.067L250.813 347.513C250.994 347.977 251.273 348.397 251.63 348.743C251.987 349.09 252.413 349.357 252.881 349.523C253.349 349.69 253.846 349.753 254.34 349.71C254.835 349.667 255.314 349.517 255.745 349.27L257.153 348.467L268.71 349.207L268.614 346.98L256.6 347.393Z" fill="black"/>
</g>
<path d="M291.735 338.6L275.57 345.463C275.176 345.637 274.841 345.92 274.606 346.28C274.37 346.643 274.245 347.063 274.245 347.497C274.245 348.083 274.476 348.643 274.887 349.057C275.299 349.47 275.856 349.703 276.438 349.703H296.244C297.367 349.703 298.45 349.283 299.282 348.527C300.115 347.767 300.638 346.723 300.749 345.6L300.984 343.247L305.83 337.643L297.691 332.377L291.735 338.6Z" fill="#FC9D9D"/>
<path d="M387.864 310.837L343.274 289.427C341.303 288.483 339.081 288.218 336.944 288.673C334.811 289.128 332.883 290.277 331.462 291.943L296.469 333.08L303.564 339.563L338.14 307.923L371.202 329.02L386.383 322.433L387.864 310.837Z" fill="#726666"/>
<path opacity="0.2" d="M383.588 314.743C383.501 314.691 383.399 314.671 383.299 314.687C383.2 314.703 383.111 314.753 383.044 314.83L378.182 320.12C378.026 320.29 377.817 320.404 377.592 320.444C377.363 320.483 377.131 320.447 376.926 320.34L342.026 302.537C341.135 302.081 340.124 301.914 339.137 302.059C338.147 302.204 337.229 302.654 336.504 303.347L300.987 337.24L303.564 339.573L338.14 307.933L371.202 329.03L383.412 323.733L378.36 321.097L383.66 315.387C383.703 315.343 383.737 315.289 383.76 315.231C383.78 315.172 383.786 315.109 383.78 315.047C383.773 314.985 383.75 314.926 383.717 314.873C383.684 314.821 383.641 314.776 383.588 314.743Z" fill="black"/>
<path d="M440.013 345.29C440.221 345.32 440.423 345.373 440.622 345.443L447.747 348.07C447.85 348.107 447.946 348.17 448.022 348.247C448.102 348.327 448.161 348.42 448.198 348.527C448.238 348.63 448.251 348.743 448.241 348.853C448.231 348.963 448.198 349.07 448.141 349.167C448.052 349.323 447.91 349.447 447.737 349.507C447.565 349.567 447.38 349.567 447.211 349.5L440.831 346.963L438.973 345.153L440.013 345.29Z" fill="#FC9D9D"/>
<path opacity="0.15" d="M439.976 345.28C440.182 345.307 440.38 345.357 440.576 345.427L447.747 348.07C447.85 348.107 447.946 348.17 448.022 348.247C448.102 348.327 448.161 348.42 448.198 348.527C448.238 348.63 448.251 348.743 448.241 348.853C448.231 348.963 448.198 349.07 448.141 349.167C448.052 349.323 447.91 349.447 447.737 349.507C447.565 349.567 447.38 349.567 447.211 349.5L440.831 346.963L438.973 345.153L439.976 345.28Z" fill="black"/>
<path opacity="0.15" d="M397.477 289.5L395.579 291.333L395.774 291.887C395.97 292.439 395.94 293.047 395.691 293.577L393.578 298.07C393.426 298.394 393.197 298.677 392.915 298.894C392.631 299.11 392.299 299.254 391.948 299.314C391.594 299.374 391.236 299.347 390.895 299.236C390.557 299.125 390.249 298.933 390 298.677L386.237 294.827L389.987 300.747C390.388 301.384 390.931 301.918 391.574 302.307L391.736 302.393L391.952 302.51L392.117 302.583L392.342 302.68L392.515 302.74L392.747 302.813H392.8C393.654 303.051 394.555 303.05 395.41 302.808C396.261 302.567 397.033 302.095 397.639 301.443L404.595 293.987L397.477 289.5Z" fill="black"/>
<path d="M425.858 341.193L432.119 338.357L432.487 343.637C432.5 343.837 432.583 344.023 432.718 344.167C432.858 344.31 433.04 344.403 433.235 344.427L439.221 345.173C439.675 345.223 440.122 345.337 440.546 345.507L446.472 347.97C446.575 348.013 446.667 348.077 446.747 348.16C446.823 348.24 446.883 348.337 446.922 348.44C446.959 348.547 446.976 348.66 446.969 348.77C446.962 348.883 446.932 348.993 446.883 349.093V349.11C446.797 349.28 446.654 349.417 446.482 349.493C446.306 349.573 446.111 349.587 445.929 349.537L438.972 347.64L431.857 349.553C431.321 349.71 430.757 349.75 430.204 349.677C429.651 349.6 429.118 349.41 428.644 349.113C428.167 348.82 427.76 348.427 427.445 347.963C427.127 347.5 426.912 346.977 426.809 346.423L426.676 345.697L425.858 341.193Z" fill="#FC9D9D"/>
<path d="M405.119 329.813L401.283 336.48C398.967 340.503 395.645 343.84 391.644 346.163C387.642 348.483 383.104 349.707 378.486 349.707H262.267V340.073L372.931 326.923L388.169 310.567C392.127 324.463 401.28 328.167 405.119 329.813Z" fill="#726666"/>
<path d="M434.345 347.29L438.081 347.603C438.512 347.64 438.916 347.837 439.208 348.157C439.503 348.477 439.665 348.897 439.665 349.333C439.665 349.387 439.655 349.437 439.635 349.487C439.615 349.533 439.585 349.577 439.549 349.613C439.512 349.653 439.466 349.68 439.42 349.7C439.37 349.72 439.32 349.73 439.267 349.73H431.132L434.345 347.29Z" fill="#FC9D9D"/>
<g opacity="0.15">
<path opacity="0.15" d="M438.628 347.75C438.489 347.693 438.343 347.657 438.194 347.643L435.117 347.387C435.087 347.383 435.06 347.377 435.034 347.363C435.011 347.35 434.988 347.333 434.968 347.31C434.951 347.29 434.938 347.263 434.928 347.237C434.918 347.21 434.915 347.183 434.918 347.153C434.925 347.097 434.951 347.043 434.994 347.003C435.037 346.967 435.097 346.95 435.153 346.953L438.234 347.213C438.525 347.267 438.787 347.423 438.972 347.657L438.628 347.75Z" fill="black"/>
</g>
<path opacity="0.15" d="M433.245 344.43L431.549 344.327C431.331 344.3 431.125 344.203 430.97 344.047C430.81 343.89 430.711 343.687 430.681 343.467L430.516 341.353L432.381 341.273L432.503 343.657C432.516 343.853 432.596 344.04 432.732 344.18C432.868 344.323 433.05 344.41 433.245 344.43Z" fill="black"/>
<path d="M428.465 273.333C428.339 271.142 427.382 269.082 425.795 267.575C424.209 266.068 422.112 265.228 419.929 265.227L409.717 267.333C406.517 268 405.231 270.79 403.949 273.637L402.767 276.393C402.141 277.727 401.74 278.857 400.667 279.64L399.163 280.813C396.659 282.643 395.821 285.763 396.891 288.797L397.927 292.03C398.119 292.583 398.09 293.19 397.841 293.72L392.21 305.793C391.306 307.713 389.911 309.355 388.165 310.55C387.49 311.014 386.993 311.697 386.754 312.486C386.519 313.274 386.556 314.12 386.864 314.883C390.733 324.5 400.591 328.53 404.629 329.957C405.066 330.112 405.546 330.104 405.977 329.933C406.411 329.762 406.768 329.44 406.984 329.027L420.472 307.233L425.921 341.533L432.391 341.267L428.465 273.333Z" fill="#DDD3CD"/>
<path opacity="0.15" d="M428.465 273.333C428.366 271.591 427.74 269.921 426.676 268.543C425.613 267.166 424.156 266.146 422.503 265.62C424.431 267.41 425.183 271.44 425.454 275.47L430.532 341.353L432.397 341.273L428.465 273.333Z" fill="black"/>
<path opacity="0.15" d="M394.274 292.58L392.813 294.003C392.793 294.025 392.77 294.042 392.74 294.054C392.713 294.066 392.684 294.072 392.657 294.072C392.627 294.072 392.597 294.066 392.571 294.054C392.541 294.042 392.518 294.025 392.498 294.003C392.462 293.963 392.442 293.91 392.442 293.855C392.442 293.8 392.462 293.747 392.498 293.707L393.966 292.273L394.274 292.58Z" fill="black"/>
<path opacity="0.2" d="M399.703 254.577C402.813 254.577 405.334 252.04 405.334 248.91C405.334 245.78 402.813 243.243 399.703 243.243C396.592 243.243 394.072 245.78 394.072 248.91C394.072 252.04 396.592 254.577 399.703 254.577Z" fill="black"/>
<path opacity="0.2" d="M398.62 327.283L395.118 333.073C393.429 335.947 391.051 338.35 388.199 340.06C385.35 341.77 382.117 342.73 378.801 342.857L262.267 347.29V349.703H378.483C383.101 349.703 387.639 348.48 391.64 346.16C395.642 343.837 398.964 340.5 401.28 336.477L404.976 330.053C402.77 329.344 400.644 328.416 398.62 327.283Z" fill="black"/>
<path d="M399.338 257.973C399.352 258.041 399.342 258.111 399.309 258.172C399.279 258.233 399.226 258.28 399.163 258.307C398.938 258.398 398.752 258.562 398.633 258.773C398.514 258.984 398.467 259.229 398.5 259.47C398.524 259.64 398.586 259.803 398.683 259.945C398.779 260.086 398.908 260.204 399.057 260.287L399.59 260.583L401.405 263.89C401.81 264.624 402.465 265.181 403.254 265.455C404.042 265.728 404.903 265.698 405.669 265.37L408.65 264.093L410.29 268.18C410.356 268.364 410.372 268.561 410.346 268.753C410.316 268.946 410.237 269.128 410.121 269.283L407.802 272.407C407.567 272.722 407.418 273.094 407.371 273.485C407.322 273.876 407.375 274.273 407.527 274.636C407.676 275 407.921 275.318 408.229 275.558C408.541 275.799 408.908 275.953 409.296 276.007C410.237 276.135 411.194 276.036 412.092 275.717C412.986 275.399 413.794 274.871 414.447 274.177L422.493 265.59L417.561 258.387C416.961 258.283 416.391 258.06 415.878 257.731C415.368 257.402 414.924 256.973 414.579 256.47L410.031 249.863L398.076 249.503L399.338 257.973Z" fill="#FC9D9D"/>
<path d="M410.087 276.523C409.799 276.523 409.511 276.504 409.226 276.467C408.763 276.403 408.325 276.219 407.954 275.933C407.587 275.647 407.295 275.268 407.116 274.835C406.934 274.401 406.871 273.928 406.927 273.462C406.987 272.996 407.163 272.553 407.444 272.177L409.763 269.053C409.836 268.954 409.885 268.839 409.902 268.717C409.922 268.595 409.909 268.47 409.869 268.353L410.2 268.02C410.379 268.53 410.422 268.86 409.995 269.543L408.12 272.683C407.931 272.938 407.808 273.238 407.769 273.554C407.732 273.869 407.775 274.19 407.898 274.484C408.017 274.778 408.213 275.034 408.464 275.228C408.716 275.422 409.011 275.547 409.326 275.59C410.2 275.71 411.088 275.618 411.919 275.323C412.751 275.028 413.499 274.538 414.106 273.893L422.172 265.333L422.801 265.93L414.751 274.513C414.152 275.15 413.427 275.656 412.625 276.002C411.823 276.348 410.959 276.525 410.087 276.523Z" fill="#DDD3CD"/>
<g opacity="0.6">
<path opacity="0.6" d="M410.087 276.523C409.799 276.523 409.511 276.504 409.226 276.467C408.763 276.403 408.325 276.219 407.954 275.933C407.587 275.647 407.295 275.268 407.116 274.835C406.934 274.401 406.871 273.928 406.927 273.462C406.987 272.996 407.163 272.553 407.444 272.177L409.763 269.053C409.836 268.954 409.885 268.839 409.902 268.717C409.922 268.595 409.909 268.47 409.869 268.353L410.2 268.02C410.379 268.53 410.422 268.86 409.995 269.543L408.12 272.683C407.931 272.938 407.808 273.238 407.769 273.554C407.732 273.869 407.775 274.19 407.898 274.484C408.017 274.778 408.213 275.034 408.464 275.228C408.716 275.422 409.011 275.547 409.326 275.59C410.2 275.71 411.088 275.618 411.919 275.323C412.751 275.028 413.499 274.538 414.106 273.893L422.172 265.333L422.801 265.93L414.751 274.513C414.152 275.15 413.427 275.656 412.625 276.002C411.823 276.348 410.959 276.525 410.087 276.523Z" fill="black"/>
</g>
<path opacity="0.15" d="M415.778 257.297L414.212 255.287L412.85 257.293L415.778 257.297Z" fill="black"/>
<path opacity="0.15" d="M408.65 264.123L410.29 263.417C410.346 263.392 410.409 263.385 410.468 263.396C410.528 263.407 410.584 263.436 410.627 263.478C410.674 263.521 410.704 263.576 410.717 263.636C410.73 263.696 410.727 263.759 410.704 263.817L409.644 266.593L408.65 264.123Z" fill="black"/>
<path d="M421.512 252.1H421.439C420.979 252.081 420.545 251.893 420.214 251.571C419.883 251.248 419.684 250.815 419.651 250.353C419.578 249.192 419.376 248.042 419.045 246.927C416.133 237.087 400.279 236.99 397.947 248.363C397.811 248.69 397.732 249.039 397.719 249.393C397.709 249.539 397.709 249.685 397.719 249.83L397.699 249.99H397.735C397.841 250.739 398.212 251.424 398.779 251.92C399.345 252.416 400.07 252.689 400.822 252.69C401.392 252.691 401.952 252.533 402.439 252.233C402.734 252.047 403.088 251.984 403.426 252.058C403.767 252.132 404.065 252.338 404.254 252.63C404.681 253.313 405.241 253.9 405.907 254.352C406.57 254.804 407.322 255.112 408.11 255.256C408.898 255.4 409.707 255.377 410.488 255.188C411.267 255 411.999 254.649 412.635 254.16C413.258 254.451 413.764 254.947 414.069 255.567C412.916 257.101 412.307 258.977 412.333 260.9C412.353 262.593 412.867 264.243 413.807 265.647C414.745 267.051 416.073 268.149 417.623 268.806C419.174 269.463 420.88 269.65 422.536 269.345C424.189 269.039 425.719 268.254 426.938 267.086C428.154 265.918 429.008 264.418 429.389 262.77C429.774 261.121 429.671 259.396 429.091 257.806C428.515 256.216 427.488 254.83 426.14 253.818C424.792 252.806 423.178 252.213 421.499 252.11L421.512 252.1Z" fill="#927463"/>
<path opacity="0.2" d="M421.512 252.1H421.439C420.979 252.081 420.545 251.893 420.214 251.571C419.883 251.248 419.684 250.815 419.651 250.353C419.578 249.192 419.376 248.042 419.045 246.927C416.133 237.087 400.279 236.99 397.947 248.363C397.811 248.69 397.732 249.039 397.719 249.393C397.709 249.539 397.709 249.685 397.719 249.83L397.699 249.99H397.735C397.841 250.739 398.212 251.424 398.779 251.92C399.345 252.416 400.07 252.689 400.822 252.69C401.392 252.691 401.952 252.533 402.439 252.233C402.734 252.047 403.088 251.984 403.426 252.058C403.767 252.132 404.065 252.338 404.254 252.63C404.681 253.313 405.241 253.9 405.907 254.352C406.57 254.804 407.322 255.112 408.11 255.256C408.898 255.4 409.707 255.377 410.488 255.188C411.267 255 411.999 254.649 412.635 254.16C413.258 254.451 413.764 254.947 414.069 255.567C412.916 257.101 412.307 258.977 412.333 260.9C412.353 262.593 412.867 264.243 413.807 265.647C414.745 267.051 416.073 268.149 417.623 268.806C419.174 269.463 420.88 269.65 422.536 269.345C424.189 269.039 425.719 268.254 426.938 267.086C428.154 265.918 429.008 264.418 429.389 262.77C429.774 261.121 429.671 259.396 429.091 257.806C428.515 256.216 427.488 254.83 426.14 253.818C424.792 252.806 423.178 252.213 421.499 252.11L421.512 252.1Z" fill="black"/>
<path opacity="0.15" d="M400.263 261.847C400.72 261.645 401.097 261.292 401.329 260.847C401.359 260.787 401.409 260.741 401.468 260.717C401.531 260.692 401.598 260.691 401.661 260.713C401.697 260.727 401.727 260.748 401.753 260.775C401.78 260.802 401.803 260.834 401.816 260.869C401.829 260.905 401.836 260.943 401.833 260.981C401.833 261.019 401.823 261.056 401.806 261.09C401.528 261.637 401.074 262.075 400.518 262.333L400.263 261.847Z" fill="black"/>
<path opacity="0.15" d="M403.949 273.667L402.767 276.423C402.141 277.757 401.74 278.887 400.667 279.67L402.866 278.25C403.34 277.946 403.698 277.492 403.883 276.96L405.596 270.853L405.798 270.13C405.079 271.252 404.463 272.436 403.949 273.667Z" fill="black"/>
<path d="M400.233 256.803C400.62 256.803 400.935 256.487 400.935 256.097C400.935 255.706 400.62 255.39 400.233 255.39C399.845 255.39 399.531 255.706 399.531 256.097C399.531 256.487 399.845 256.803 400.233 256.803Z" fill="black"/>
<path d="M399.935 256.483C400.024 256.483 400.094 256.412 400.094 256.323C400.094 256.235 400.024 256.163 399.935 256.163C399.849 256.163 399.776 256.235 399.776 256.323C399.776 256.412 399.849 256.483 399.935 256.483Z" fill="white"/>
<path opacity="0.6" d="M425.911 341.54L425.726 340.37L432.311 340.09L432.381 341.273L425.911 341.54Z" fill="black"/>
<path d="M424.384 292.8C424.682 292.8 424.924 292.557 424.924 292.257C424.924 291.957 424.682 291.713 424.384 291.713C424.086 291.713 423.844 291.957 423.844 292.257C423.844 292.557 424.086 292.8 424.384 292.8Z" fill="white"/>
<path d="M405.798 328.98C406.096 328.98 406.338 328.737 406.338 328.437C406.338 328.137 406.096 327.893 405.798 327.893C405.5 327.893 405.258 328.137 405.258 328.437C405.258 328.737 405.5 328.98 405.798 328.98Z" fill="white"/>
<path d="M405.798 318.493C406.096 318.493 406.338 318.25 406.338 317.95C406.338 317.65 406.096 317.407 405.798 317.407C405.5 317.407 405.258 317.65 405.258 317.95C405.258 318.25 405.5 318.493 405.798 318.493Z" fill="white"/>
<path d="M399.133 313.463C399.431 313.463 399.673 313.22 399.673 312.92C399.673 312.62 399.431 312.377 399.133 312.377C398.835 312.377 398.593 312.62 398.593 312.92C398.593 313.22 398.835 313.463 399.133 313.463Z" fill="white"/>
<path d="M392.819 307.347C393.118 307.347 393.359 307.103 393.359 306.803C393.359 306.503 393.118 306.26 392.819 306.26C392.521 306.26 392.279 306.503 392.279 306.803C392.279 307.103 392.521 307.347 392.819 307.347Z" fill="white"/>
<path d="M422.764 312.24C423.063 312.24 423.304 311.997 423.304 311.697C423.304 311.397 423.063 311.153 422.764 311.153C422.466 311.153 422.224 311.397 422.224 311.697C422.224 311.997 422.466 312.24 422.764 312.24Z" fill="white"/>
<path d="M416.964 301.93C417.262 301.93 417.504 301.687 417.504 301.387C417.504 301.087 417.262 300.843 416.964 300.843C416.666 300.843 416.424 301.087 416.424 301.387C416.424 301.687 416.666 301.93 416.964 301.93Z" fill="white"/>
<path d="M431.056 337.063C431.354 337.063 431.596 336.82 431.596 336.52C431.596 336.22 431.354 335.977 431.056 335.977C430.758 335.977 430.516 336.22 430.516 336.52C430.516 336.82 430.758 337.063 431.056 337.063Z" fill="white"/>
<path d="M425.186 329.523C425.484 329.523 425.726 329.28 425.726 328.98C425.726 328.68 425.484 328.437 425.186 328.437C424.888 328.437 424.646 328.68 424.646 328.98C424.646 329.28 424.888 329.523 425.186 329.523Z" fill="white"/>
<path d="M429.635 319.037C429.933 319.037 430.175 318.793 430.175 318.493C430.175 318.193 429.933 317.95 429.635 317.95C429.336 317.95 429.095 318.193 429.095 318.493C429.095 318.793 429.336 319.037 429.635 319.037Z" fill="white"/>
<path d="M429.095 303.017C429.393 303.017 429.635 302.773 429.635 302.473C429.635 302.173 429.393 301.93 429.095 301.93C428.797 301.93 428.555 302.173 428.555 302.473C428.555 302.773 428.797 303.017 429.095 303.017Z" fill="white"/>
<path d="M397.172 321.873C397.47 321.873 397.712 321.63 397.712 321.33C397.712 321.03 397.47 320.787 397.172 320.787C396.874 320.787 396.632 321.03 396.632 321.33C396.632 321.63 396.874 321.873 397.172 321.873Z" fill="white"/>
<path d="M408.11 306.26C408.408 306.26 408.65 306.017 408.65 305.717C408.65 305.417 408.408 305.173 408.11 305.173C407.812 305.173 407.57 305.417 407.57 305.717C407.57 306.017 407.812 306.26 408.11 306.26Z" fill="white"/>
<path d="M410.724 295.51C411.022 295.51 411.263 295.267 411.263 294.967C411.263 294.667 411.022 294.423 410.724 294.423C410.425 294.423 410.184 294.667 410.184 294.967C410.184 295.267 410.425 295.51 410.724 295.51Z" fill="white"/>
<path d="M406.911 284.94C407.209 284.94 407.451 284.697 407.451 284.397C407.451 284.097 407.209 283.853 406.911 283.853C406.613 283.853 406.371 284.097 406.371 284.397C406.371 284.697 406.613 284.94 406.911 284.94Z" fill="white"/>
<path d="M399.133 304.3C399.431 304.3 399.673 304.057 399.673 303.757C399.673 303.457 399.431 303.213 399.133 303.213C398.835 303.213 398.593 303.457 398.593 303.757C398.593 304.057 398.835 304.3 399.133 304.3Z" fill="white"/>
<path d="M400.667 293.703C400.965 293.703 401.207 293.46 401.207 293.16C401.207 292.86 400.965 292.617 400.667 292.617C400.369 292.617 400.127 292.86 400.127 293.16C400.127 293.46 400.369 293.703 400.667 293.703Z" fill="white"/>
<path d="M399.176 283.34C399.474 283.34 399.716 283.097 399.716 282.797C399.716 282.497 399.474 282.253 399.176 282.253C398.878 282.253 398.636 282.497 398.636 282.797C398.636 283.097 398.878 283.34 399.176 283.34Z" fill="white"/>
<path d="M391.68 292.257C391.978 292.257 392.22 292.013 392.22 291.713C392.22 291.413 391.978 291.17 391.68 291.17C391.382 291.17 391.14 291.413 391.14 291.713C391.14 292.013 391.382 292.257 391.68 292.257Z" fill="white"/>
<path d="M384.326 290.043C384.624 290.043 384.866 289.8 384.866 289.5C384.866 289.2 384.624 288.957 384.326 288.957C384.028 288.957 383.786 289.2 383.786 289.5C383.786 289.8 384.028 290.043 384.326 290.043Z" fill="white"/>
<path d="M381.64 282.213C381.938 282.213 382.18 281.97 382.18 281.67C382.18 281.37 381.938 281.127 381.64 281.127C381.342 281.127 381.1 281.37 381.1 281.67C381.1 281.97 381.342 282.213 381.64 282.213Z" fill="white"/>
<path d="M405.877 274.847C406.175 274.847 406.417 274.603 406.417 274.303C406.417 274.003 406.175 273.76 405.877 273.76C405.579 273.76 405.337 274.003 405.337 274.303C405.337 274.603 405.579 274.847 405.877 274.847Z" fill="white"/>
<path d="M415.778 285.483C416.077 285.483 416.318 285.24 416.318 284.94C416.318 284.64 416.077 284.397 415.778 284.397C415.48 284.397 415.238 284.64 415.238 284.94C415.238 285.24 415.48 285.483 415.778 285.483Z" fill="white"/>
<path d="M420.462 275.39C420.76 275.39 421.002 275.147 421.002 274.847C421.002 274.547 420.76 274.303 420.462 274.303C420.164 274.303 419.922 274.547 419.922 274.847C419.922 275.147 420.164 275.39 420.462 275.39Z" fill="white"/>
<path d="M426.892 282.213C427.19 282.213 427.432 281.97 427.432 281.67C427.432 281.37 427.19 281.127 426.892 281.127C426.594 281.127 426.352 281.37 426.352 281.67C426.352 281.97 426.594 282.213 426.892 282.213Z" fill="white"/>
<path d="M389.368 315.093C389.666 315.093 389.908 314.85 389.908 314.55C389.908 314.25 389.666 314.007 389.368 314.007C389.07 314.007 388.828 314.25 388.828 314.55C388.828 314.85 389.07 315.093 389.368 315.093Z" fill="white"/>
<path d="M413.675 314.007C413.973 314.007 414.215 313.763 414.215 313.463C414.215 313.163 413.973 312.92 413.675 312.92C413.377 312.92 413.135 313.163 413.135 313.463C413.135 313.763 413.377 314.007 413.675 314.007Z" fill="white"/>
<path opacity="0.15" d="M398.62 327.283C400.577 328.386 402.641 329.286 404.778 329.97C405.195 330.105 405.642 330.088 406.046 329.921C406.45 329.755 406.785 329.45 406.987 329.06L420.462 307.24L418.475 294.97C418.448 294.842 418.382 294.725 418.286 294.633C418.193 294.542 418.074 294.481 417.945 294.457C417.819 294.434 417.686 294.449 417.564 294.501C417.445 294.553 417.342 294.64 417.272 294.75L398.62 327.283Z" fill="black"/>
<path d="M411.475 253.547C411.466 253.513 411.449 253.482 411.426 253.456C411.403 253.429 411.376 253.408 411.346 253.393C411.313 253.378 411.28 253.37 411.247 253.368C411.21 253.367 411.177 253.374 411.144 253.387L399.352 257.267L398.799 255.433C398.789 255.402 398.772 255.372 398.752 255.347C398.732 255.321 398.706 255.3 398.676 255.285C398.649 255.269 398.616 255.26 398.583 255.257C398.55 255.253 398.517 255.257 398.487 255.267C398.424 255.287 398.371 255.331 398.341 255.389C398.308 255.448 398.302 255.516 398.322 255.58L399.521 259.58C399.537 259.631 399.567 259.676 399.61 259.707C399.653 259.739 399.706 259.756 399.759 259.757C399.782 259.76 399.809 259.76 399.832 259.757C399.865 259.747 399.892 259.731 399.918 259.711C399.945 259.69 399.965 259.664 399.981 259.635C399.994 259.606 400.004 259.574 400.008 259.541C400.011 259.508 400.008 259.475 399.998 259.443L399.497 257.777L411.3 253.89C411.336 253.882 411.369 253.866 411.399 253.843C411.426 253.82 411.449 253.792 411.466 253.759C411.482 253.727 411.492 253.691 411.495 253.654C411.495 253.617 411.489 253.581 411.475 253.547Z" fill="white"/>
<path d="M413.069 257.53C413.069 257.53 416.007 256.16 415.03 253.02C414.053 249.88 410.319 251.33 411.409 254.423L412.754 257.713L413.069 257.53Z" fill="#FC9D9D"/>
<path opacity="0.3" d="M413.34 252.027C413.165 251.997 412.989 252.005 412.817 252.049C412.645 252.093 412.486 252.173 412.347 252.283C412.224 252.404 412.128 252.549 412.065 252.709C411.999 252.869 411.969 253.041 411.976 253.213C411.959 253.656 412.058 254.095 412.264 254.487L412.423 254.797C412.532 255.03 412.953 254.877 412.814 254.613L412.651 254.28C412.489 253.954 412.403 253.597 412.393 253.233C412.386 253.118 412.406 253.003 412.446 252.894C412.486 252.786 412.545 252.687 412.625 252.603C412.718 252.534 412.827 252.484 412.94 252.458C413.056 252.431 413.171 252.429 413.287 252.45C413.314 252.453 413.344 252.45 413.37 252.442C413.393 252.434 413.42 252.42 413.44 252.403C413.46 252.385 413.48 252.363 413.489 252.339C413.503 252.314 413.509 252.287 413.513 252.26C413.519 252.206 413.506 252.152 413.473 252.108C413.44 252.065 413.393 252.036 413.34 252.027Z" fill="black"/>
<path d="M413.4 256.937C413.754 256.937 414.043 256.647 414.043 256.29C414.043 255.933 413.754 255.643 413.4 255.643C413.046 255.643 412.757 255.933 412.757 256.29C412.757 256.647 413.046 256.937 413.4 256.937Z" fill="#DDD3CD"/>
<path opacity="0.15" d="M413.609 255.687C413.695 255.778 413.754 255.892 413.778 256.017C413.797 256.141 413.784 256.269 413.735 256.385C413.685 256.501 413.602 256.599 413.496 256.667C413.39 256.736 413.267 256.772 413.142 256.77C413.069 256.767 412.999 256.754 412.933 256.73C412.999 256.804 413.082 256.862 413.171 256.899C413.264 256.937 413.364 256.952 413.46 256.944C413.559 256.936 413.655 256.905 413.741 256.854C413.824 256.803 413.897 256.733 413.95 256.649C414.003 256.565 414.036 256.47 414.046 256.371C414.056 256.272 414.046 256.172 414.009 256.079C413.976 255.986 413.92 255.902 413.847 255.834C413.778 255.766 413.691 255.715 413.595 255.687H413.609Z" fill="black"/>
<path d="M273.516 146.233C273.553 145.69 273.573 145.143 273.573 144.59C273.57 138.915 271.616 133.416 268.042 129.027C264.468 124.637 259.495 121.627 253.967 120.508C248.438 119.389 242.695 120.229 237.713 122.886C232.73 125.544 228.815 129.855 226.631 135.087C224.928 134.531 223.123 134.361 221.346 134.588C219.569 134.816 217.864 135.436 216.354 136.404C214.842 137.372 213.563 138.664 212.606 140.187C211.649 141.711 211.038 143.428 210.817 145.217C206.541 146.014 202.715 148.39 200.09 151.879C197.465 155.368 196.231 159.719 196.629 164.077C197.027 168.435 199.029 172.486 202.243 175.435C205.456 178.384 209.648 180.018 213.997 180.017H266.898C270.937 180.016 274.851 178.605 277.971 176.024C281.091 173.443 283.224 169.852 284.006 165.864C284.788 161.877 284.17 157.74 282.258 154.16C280.346 150.579 277.259 147.778 273.523 146.233H273.516Z" fill="#DDD3CD"/>
<g opacity="0.2">
<path opacity="0.2" d="M273.516 146.233C273.553 145.69 273.573 145.143 273.573 144.59C273.57 138.915 271.616 133.416 268.042 129.027C264.468 124.637 259.495 121.627 253.967 120.508C248.438 119.389 242.695 120.229 237.713 122.886C232.73 125.544 228.815 129.855 226.631 135.087C224.928 134.531 223.123 134.361 221.346 134.588C219.569 134.816 217.864 135.436 216.354 136.404C214.842 137.372 213.563 138.664 212.606 140.187C211.649 141.711 211.038 143.428 210.817 145.217C206.541 146.014 202.715 148.39 200.09 151.879C197.465 155.368 196.231 159.719 196.629 164.077C197.027 168.435 199.029 172.486 202.243 175.435C205.456 178.384 209.648 180.018 213.997 180.017H266.898C270.937 180.016 274.851 178.605 277.971 176.024C281.091 173.443 283.224 169.852 284.006 165.864C284.788 161.877 284.17 157.74 282.258 154.16C280.346 150.579 277.259 147.778 273.523 146.233H273.516Z" fill="white"/>
</g>
<path d="M273.517 146.233C273.553 145.69 273.573 145.143 273.573 144.59C273.573 138.074 271.001 131.824 266.421 127.216C261.843 122.609 255.632 120.02 249.156 120.02C248.167 120.021 247.178 120.081 246.195 120.2C252.122 120.917 257.583 123.795 261.544 128.289C265.505 132.784 267.693 138.583 267.693 144.59C267.693 145.143 267.674 145.69 267.637 146.233C271.373 147.778 274.46 150.579 276.372 154.16C278.284 157.74 278.902 161.877 278.119 165.864C277.337 169.852 275.204 173.443 272.084 176.024C268.964 178.605 265.051 180.016 261.012 180.017H266.892C270.931 180.016 274.844 178.605 277.964 176.024C281.084 173.443 283.217 169.852 283.999 165.864C284.781 161.877 284.163 157.74 282.252 154.16C280.34 150.579 277.253 147.778 273.517 146.233Z" fill="#DDD3CD"/>
<circle cx="70" cy="350" r="30" fill="#927463" fill-opacity="0.1"/>
<ellipse cx="438.5" cy="229" rx="78.5" ry="77" fill="#B5A398" fill-opacity="0.1"/>
<circle cx="110.5" cy="103.5" r="39.5" fill="#927463" fill-opacity="0.1"/>
</svg>
