<svg width="1600" height="1200" viewBox="0 0 1600 1200" fill="none" xmlns="http://www.w3.org/2000/svg">
<path d="M1392.2 493.2L1389 538.9L1387.3 563L1386.6 573L1385.8 584.3L1385.1 594.3L1369.9 815.3L1369.5 821.3L1368.9 830.3L1368.5 836.3L1365.7 876.5L1365.5 880L1365.3 882.3L1364.9 887.8L1364.8 888.8L1360.6 949.3L1360.2 955.3L1359.6 964.3L1359.2 970.3L1355.7 1021.1L1355.5 1024.6L1355.3 1027.6L1355.2 1029.6V1030.2H1299.4H1280L1123.8 1030.1H1114.9H1044.6H972.8L770.2 1030H769.4H741.2H688.4L594.1 1029.9H526.4H505.9H462.9H447.2L310.3 1029.5H303.3H245L244 1023.3L243.9 1022.6L240.9 1003.7L240.4 1000.7L231.6 945.7L231.1 942.7L222.3 887.7L221.8 884.7L221 880L220.9 879.5L219.9 873.5L219.8 873L212.9 829.9L212.4 826.9L203.6 771.9L203.1 768.9L194.3 713.9H194.2L193.7 710.9L192.1 700.7C192 700 191.9 699.3 191.8 698.6C191.8 698.5 191.8 698.4 191.8 698.4V698.3C191.8 698.2 191.8 698.2 191.8 698.1C191.8 697.8 191.7 697.6 191.7 697.3C191.6 696.7 191.6 696 191.5 695.4C191.5 695 191.5 694.6 191.5 694.2V693.3C191.5 692.9 191.5 692.5 191.5 692.1C191.5 691.5 191.5 690.9 191.5 690.3C191.5 689.7 191.6 689 191.6 688.4C191.7 687.2 191.8 686 191.9 684.9C192.4 680.9 193.4 676.9 194.8 673.1L201 656L202.1 653L216.8 612.3L223.3 594.3L226.9 584.3L231 573L234.6 563L261.6 488.2L262.9 484.7L264.2 481.2L287.7 416L303.4 372.4L305.7 366.1L306.8 363.1L307 362.7L309.9 354.6L326.6 308.2L327.7 305.2L347.5 250.2L348.6 247.2L351.2 240.1C351.6 239 352.1 237.8 352.6 236.7C353.5 234.7 354.5 232.7 355.6 230.8C365.3 214.4 382.4 203.8 401.4 202.3L416.7 201.1L419.7 200.9L447.6 198.6L455.4 198L525.7 192.3L526.8 192.2L1044.8 148.7H1044.9V148.8L1104.7 145.1L1105.3 145.2C1105.9 145.3 1106.4 145.4 1107 145.5C1107.6 145.6 1108.1 145.7 1108.7 145.8C1109.3 145.9 1109.8 146 1110.3 146.2C1111.4 146.5 1112.5 146.8 1113.6 147.1L1115.1 147.6H1115.2C1116 147.9 1116.8 148.2 1117.7 148.5C1119.5 149.2 1121.3 150 1123 150.9C1123.4 151.1 1123.7 151.3 1124.1 151.5C1130.1 154.7 1135.5 159 1139.9 164.1C1140.2 164.5 1140.6 164.9 1140.9 165.3L1206.6 244.6L1218.5 259L1223.1 264.6L1223.9 265.6L1233.6 277.3L1280.2 333.6L1283.7 337.8L1287.2 342L1299.8 357.2L1301.3 359L1331.9 396L1333.6 398.1L1336.8 402L1340.7 406.7L1342.5 408.9L1343.4 410L1343.5 410.2L1361 431L1379.3 453L1380.2 454.1L1380.6 454.7C1380.8 455 1381.1 455.3 1381.3 455.7L1381.7 456.2C1382 456.6 1382.2 456.9 1382.5 457.3C1383 458 1383.4 458.7 1383.9 459.4C1384.1 459.7 1384.2 459.9 1384.4 460.2C1384.5 460.3 1384.5 460.4 1384.6 460.5L1384.9 461L1385 461.2V461.3C1385 461.3 1385 461.4 1385.1 461.4L1385.2 461.5C1385.3 461.6 1385.4 461.8 1385.4 462C1385.8 462.8 1386.2 463.6 1386.6 464.4C1386.8 464.9 1387 465.3 1387.3 465.8L1387.5 466.2C1387.7 466.7 1387.9 467.1 1388.1 467.6C1388.1 467.7 1388.1 467.7 1388.2 467.8C1388.3 468 1388.4 468.3 1388.5 468.5C1388.6 468.7 1388.6 468.8 1388.7 468.9C1388.9 469.3 1389 469.7 1389.1 470L1389.5 471C1389.6 471.4 1389.8 471.7 1389.9 472.1C1390 472.5 1390.2 473 1390.3 473.5C1390.4 473.8 1390.5 474.2 1390.6 474.5L1390.7 474.7C1390.8 475.2 1391 475.7 1391.1 476.2C1391.1 476.3 1391.2 476.5 1391.2 476.6C1391.3 477.2 1391.5 477.8 1391.6 478.4V478.5V478.6V478.7C1391.6 478.8 1391.7 479 1391.7 479.1C1391.8 479.8 1391.9 480.4 1392 481.1C1392 481.2 1392 481.3 1392 481.4C1392.1 481.9 1392.1 482.4 1392.2 483V483.1C1392.3 483.6 1392.3 484.1 1392.4 484.7L1392.5 485.8C1392.2 488.3 1392.3 490.8 1392.2 493.2Z" fill="#DDD3CD"/>
<g opacity="0.91">
<path opacity="0.91" d="M1392.2 493.2L1389 538.9L1387.3 563L1386.6 573L1385.8 584.3L1385.1 594.3L1369.9 815.3L1369.5 821.3L1368.9 830.3L1368.5 836.3L1365.7 876.5L1365.5 880L1365.3 882.3L1364.9 887.8L1364.8 888.8L1360.6 949.3L1360.2 955.3L1359.6 964.3L1359.2 970.3L1355.7 1021.1L1355.5 1024.6L1355.3 1027.6L1355.2 1029.6V1030.2H1299.4H1280L1123.8 1030.1H1114.9H1044.6H972.8L770.2 1030H769.4H741.2H688.4L594.1 1029.9H526.4H505.9H462.9H447.2L310.3 1029.5H303.3H245L244 1023.3L243.9 1022.6L240.9 1003.7L240.4 1000.7L231.6 945.7L231.1 942.7L222.3 887.7L221.8 884.7L221 880L220.9 879.5L219.9 873.5L219.8 873L212.9 829.9L212.4 826.9L203.6 771.9L203.1 768.9L194.3 713.9H194.2L193.7 710.9L192.1 700.7C192 700 191.9 699.3 191.8 698.6C191.8 698.5 191.8 698.4 191.8 698.4V698.3C191.8 698.2 191.8 698.2 191.8 698.1C191.8 697.8 191.7 697.6 191.7 697.3C191.6 696.7 191.6 696 191.5 695.4C191.5 695 191.5 694.6 191.5 694.2V693.3C191.5 692.9 191.5 692.5 191.5 692.1C191.5 691.5 191.5 690.9 191.5 690.3C191.5 689.7 191.6 689 191.6 688.4C191.7 687.2 191.8 686 191.9 684.9C192.4 680.9 193.4 676.9 194.8 673.1L201 656L202.1 653L216.8 612.3L223.3 594.3L226.9 584.3L231 573L234.6 563L261.6 488.2L262.9 484.7L264.2 481.2L287.7 416L303.4 372.4L305.7 366.1L306.8 363.1L307 362.7L309.9 354.6L326.6 308.2L327.7 305.2L347.5 250.2L348.6 247.2L351.2 240.1C351.6 239 352.1 237.8 352.6 236.7C353.5 234.7 354.5 232.7 355.6 230.8C365.3 214.4 382.4 203.8 401.4 202.3L416.7 201.1L419.7 200.9L447.6 198.6L455.4 198L525.7 192.3L526.8 192.2L1044.8 148.7H1044.9V148.8L1104.7 145.1L1105.3 145.2C1105.9 145.3 1106.4 145.4 1107 145.5C1107.6 145.6 1108.1 145.7 1108.7 145.8C1109.3 145.9 1109.8 146 1110.3 146.2C1111.4 146.5 1112.5 146.8 1113.6 147.1L1115.1 147.6H1115.2C1116 147.9 1116.8 148.2 1117.7 148.5C1119.5 149.2 1121.3 150 1123 150.9C1123.4 151.1 1123.7 151.3 1124.1 151.5C1130.1 154.7 1135.5 159 1139.9 164.1C1140.2 164.5 1140.6 164.9 1140.9 165.3L1206.6 244.6L1218.5 259L1223.1 264.6L1223.9 265.6L1233.6 277.3L1280.2 333.6L1283.7 337.8L1287.2 342L1299.8 357.2L1301.3 359L1331.9 396L1333.6 398.1L1336.8 402L1340.7 406.7L1342.5 408.9L1343.4 410L1343.5 410.2L1361 431L1379.3 453L1380.2 454.1L1380.6 454.7C1380.8 455 1381.1 455.3 1381.3 455.7L1381.7 456.2C1382 456.6 1382.2 456.9 1382.5 457.3C1383 458 1383.4 458.7 1383.9 459.4C1384.1 459.7 1384.2 459.9 1384.4 460.2C1384.5 460.3 1384.5 460.4 1384.6 460.5L1384.9 461L1385 461.2V461.3C1385 461.3 1385 461.4 1385.1 461.4L1385.2 461.5C1385.3 461.6 1385.4 461.8 1385.4 462C1385.8 462.8 1386.2 463.6 1386.6 464.4C1386.8 464.9 1387 465.3 1387.3 465.8L1387.5 466.2C1387.7 466.7 1387.9 467.1 1388.1 467.6C1388.1 467.7 1388.1 467.7 1388.2 467.8C1388.3 468 1388.4 468.3 1388.5 468.5C1388.6 468.7 1388.6 468.8 1388.7 468.9C1388.9 469.3 1389 469.7 1389.1 470L1389.5 471C1389.6 471.4 1389.8 471.7 1389.9 472.1C1390 472.5 1390.2 473 1390.3 473.5C1390.4 473.8 1390.5 474.2 1390.6 474.5L1390.7 474.7C1390.8 475.2 1391 475.7 1391.1 476.2C1391.1 476.3 1391.2 476.5 1391.2 476.6C1391.3 477.2 1391.5 477.8 1391.6 478.4V478.5V478.6V478.7C1391.6 478.8 1391.7 479 1391.7 479.1C1391.8 479.8 1391.9 480.4 1392 481.1C1392 481.2 1392 481.3 1392 481.4C1392.1 481.9 1392.1 482.4 1392.2 483V483.1C1392.3 483.6 1392.3 484.1 1392.4 484.7L1392.5 485.8C1392.2 488.3 1392.3 490.8 1392.2 493.2Z" fill="white"/>
</g>
<path d="M1200.3 548.9H367.6V764.6H1200.3V548.9Z" fill="#DDD3CD"/>
<path opacity="0.4" d="M1200.3 548.9H367.6V764.6H1200.3V548.9Z" fill="white"/>
<path d="M1235.7 765.2H340.8V785.7H1235.7V765.2Z" fill="#DDD3CD"/>
<path opacity="0.2" d="M1200.3 593.9H366.7V594.9H1200.3V593.9Z" fill="black"/>
<path opacity="0.2" d="M1200.3 660.3H366.7V661.3H1200.3V660.3Z" fill="black"/>
<path opacity="0.2" d="M1200.3 726.7H366.7V727.7H1200.3V726.7Z" fill="black"/>
<path d="M403.6 735.6C407.687 735.6 411 728.168 411 719C411 709.832 407.687 702.4 403.6 702.4C399.513 702.4 396.2 709.832 396.2 719C396.2 728.168 399.513 735.6 403.6 735.6Z" fill="#927463"/>
<path d="M419.214 727.143C423.798 719.203 424.645 711.11 421.106 709.067C417.567 707.023 410.981 711.803 406.398 719.743C401.814 727.682 400.967 735.775 404.506 737.818C408.045 739.862 414.63 735.082 419.214 727.143Z" fill="#927463"/>
<path d="M404.006 738.232C407.546 736.189 406.699 728.096 402.115 720.157C397.531 712.217 390.946 707.438 387.406 709.481C383.867 711.525 384.714 719.617 389.298 727.557C393.882 735.496 400.467 740.276 404.006 738.232Z" fill="#927463"/>
<path d="M386.5 731.5H420.7V754.7C420.7 760.7 415.8 765.6 409.8 765.6H397.5C391.5 765.6 386.6 760.7 386.6 754.7V731.5H386.5Z" fill="#241D19"/>
<path d="M386.3 728.1H419.7C421 728.1 422.1 729.2 422.1 730.5C422.1 731.8 421 732.9 419.7 732.9H386.3C385 732.9 383.9 731.8 383.9 730.5C383.8 729.2 384.9 728.1 386.3 728.1Z" fill="#241D19"/>
<path opacity="0.2" d="M386.3 728.1H419.7C421 728.1 422.1 729.2 422.1 730.5C422.1 731.8 421 732.9 419.7 732.9H386.3C385 732.9 383.9 731.8 383.9 730.5C383.8 729.2 384.9 728.1 386.3 728.1Z" fill="black"/>
<path d="M1103.5 776.9H466.4V842.1H1103.5V776.9Z" fill="#927463"/>
<path opacity="0.3" d="M1103.5 776.9H466.4V842.1H1103.5V776.9Z" fill="white"/>
<path d="M487.5 795.1H645.9C651.5 795.1 656 799.6 656 805.2V871.7C656 877.3 651.5 881.8 645.9 881.8H487.5C481.9 881.8 477.4 877.3 477.4 871.7V805.2C477.4 799.7 481.9 795.1 487.5 795.1Z" fill="white"/>
<path d="M925.1 794.8H1083.5C1089.1 794.8 1093.6 799.3 1093.6 804.9V871.4C1093.6 877 1089.1 881.5 1083.5 881.5H925.1C919.5 881.5 915 877 915 871.4V804.9C915 799.3 919.5 794.8 925.1 794.8Z" fill="white"/>
<path d="M820.4 817.3L857.3 780.4C860.3 777.4 865.1 777.4 868.1 780.4L905 817.3C908 820.3 908 825.1 905 828.1L868.2 865C865.2 868 860.4 868 857.4 865L820.5 828.1C817.5 825.1 817.5 820.3 820.4 817.3Z" fill="#241D19"/>
<path d="M671.4 820.3L708.3 783.4C711.3 780.4 716.1 780.4 719.1 783.4L756 820.3C759 823.3 759 828.1 756 831.1L719.1 868C716.1 871 711.3 871 708.3 868L671.4 831.1C668.4 828.1 668.4 823.3 671.4 820.3Z" fill="#241D19"/>
<path opacity="0.2" d="M820.4 817.5L857.3 780.6C860.3 777.6 865.1 777.6 868.1 780.6L905 817.5C908 820.5 908 825.3 905 828.3L868.1 865.2C865.1 868.2 860.3 868.2 857.3 865.2L820.4 828.3C817.5 825.4 817.5 820.5 820.4 817.5Z" fill="white"/>
<path opacity="0.2" d="M671.4 820.5L708.3 783.6C711.3 780.6 716.1 780.6 719.1 783.6L756 820.5C759 823.5 759 828.3 756 831.3L719.1 868.2C716.1 871.2 711.3 871.2 708.3 868.2L671.4 831.3C668.4 828.4 668.4 823.5 671.4 820.5Z" fill="white"/>
<path d="M1167.1 734.9C1171.19 734.9 1174.5 727.468 1174.5 718.3C1174.5 709.132 1171.19 701.7 1167.1 701.7C1163.01 701.7 1159.7 709.132 1159.7 718.3C1159.7 727.468 1163.01 734.9 1167.1 734.9Z" fill="#927463"/>
<path d="M1182.8 726.501C1187.39 718.562 1188.23 710.469 1184.69 708.426C1181.15 706.382 1174.57 711.162 1169.99 719.101C1165.4 727.041 1164.55 735.134 1168.09 737.177C1171.63 739.22 1178.22 734.441 1182.8 726.501Z" fill="#927463"/>
<path d="M1167.49 737.648C1171.03 735.604 1170.19 727.511 1165.6 719.572C1161.02 711.633 1154.43 706.853 1150.89 708.896C1147.35 710.94 1148.2 719.032 1152.78 726.972C1157.37 734.911 1163.95 739.691 1167.49 737.648Z" fill="#927463"/>
<path d="M1150 730.9H1184.2V754.1C1184.2 760.1 1179.3 765 1173.3 765H1161C1155 765 1150.1 760.1 1150.1 754.1V730.9H1150Z" fill="#241D19"/>
<path d="M1149.8 727.5H1183.2C1184.5 727.5 1185.6 728.6 1185.6 729.9C1185.6 731.2 1184.5 732.3 1183.2 732.3H1149.8C1148.5 732.3 1147.4 731.2 1147.4 729.9C1147.4 728.6 1148.5 727.5 1149.8 727.5Z" fill="#241D19"/>
<path opacity="0.2" d="M1149.8 727.5H1183.2C1184.5 727.5 1185.6 728.6 1185.6 729.9C1185.6 731.2 1184.5 732.3 1183.2 732.3H1149.8C1148.5 732.3 1147.4 731.2 1147.4 729.9C1147.4 728.6 1148.5 727.5 1149.8 727.5Z" fill="black"/>
<path d="M1144.9 828.3H444.4V933.3H1144.9V828.3Z" fill="#927463"/>
<path opacity="0.5" d="M1144.9 828.3H444.4V933.3H1144.9V828.3Z" fill="white"/>
<path d="M932.4 912.5C931.5 912.6 930.9 913.3 931 914.2C931.2 917 929.1 922.2 911 924L899 913.6L871.3 926.9C870.5 927.3 869.6 927.5 868.7 927.5C865.7 927.6 863.1 925.7 862.1 922.9L842 866.2L837.5 853.4L837.3 849.2L835.8 818.5L850.6 788.8L851.6 789.3L852.3 789.9C858.5 795.7 862.8 803.3 864.5 811.6L882.2 898.4L893.3 900.6L911.2 889.8L920.6 888.3C920.6 888.3 924.6 888.8 925.6 892.1V897.1C925.6 897.1 929.8 894.3 933.3 899.6L938 906.6C938.2 909.6 935.9 912.1 932.9 912.3C932.7 912.5 932.5 912.5 932.4 912.5Z" fill="#956363"/>
<path opacity="0.06" d="M934.7 912C934 912.3 933.2 912.4 932.4 912.5C932.1 912.5 931.8 912.6 931.6 912.8L931.5 912.9L931.4 913C931.2 913.2 931.1 913.5 931 913.7C931 913.9 930.9 914 931 914.2C931.1 915.9 930.4 918.4 926 920.5L925.7 920.7L925.6 920.8L925.2 921C923 921.9 920.7 922.6 918.4 923H918.3L917.4 923.2C915.5 923.5 913.4 923.8 911.1 924L899.1 913.6L891.6 917.2C892.1 911.1 892.9 905 893.6 900.7L911.2 890.1L920.6 888.6C920.6 888.6 924.6 889.1 925.6 892.4V897.4C925.6 897.4 929.8 894.6 933.3 899.9L938 906.9C937.9 906.8 938.2 910.7 934.7 912Z" fill="black"/>
<path d="M746.4 817.3L744.9 846.9L744.7 851.6L720 919.9C718.8 923.4 714.9 925.2 711.4 924C711.2 923.9 711 923.8 710.8 923.7L683.1 910.7L671.1 920.9C653 919.2 650.9 914 651.1 911.3C651.2 910.5 650.5 909.7 649.7 909.7C643.8 909.4 644.2 904 644.2 904L648.9 897.1C652.4 891.9 656.6 894.6 656.6 894.6V889.7C656.8 889 657.1 888.4 657.6 887.9C659.2 886.3 661.7 885.9 663.6 887L670.5 893.3L682.7 901.6L699.9 895.8L717.1 813.2C719.3 802.7 726 793.7 735.5 788.7C736 788.5 736.3 788.3 736.3 788.3L746.4 817.3Z" fill="#956363"/>
<path d="M682.5 901.5L681.4 912.1L671.8 920.3L671.6 920.5L671.2 920.9L670.6 920.8C668.5 920.6 666.6 920.3 665 920L664.2 919.9H664C661.7 919.5 659.5 918.9 657.3 918L656.4 917.6C653.2 916.1 651.9 914.4 651.4 912.9C651.2 912.4 651.2 911.8 651.2 911.3C651.2 910.9 651.1 910.4 650.8 910.1C650.5 909.8 650.2 909.6 649.8 909.6C643.9 909.3 644.3 903.9 644.3 903.9L649 897C652.5 891.8 656.7 894.5 656.7 894.5V889.6C656.9 888.9 657.2 888.3 657.7 887.8C659.3 886.2 661.7 885.9 663.7 886.9L670.6 893.2L682.5 901.5Z" fill="#956363"/>
<path opacity="0.06" d="M682.8 901.7L681.4 912.1L671.8 920.3L673.9 907C674.2 905.4 673.5 903.8 672 903.1C671.9 903.1 671.7 903 671.6 903C670.1 902.8 668.6 903.8 668.3 905.3L668.6 903.9C669.3 901 666.8 898.3 664.4 899.6L664.3 899.7C665 897.7 664.1 895.4 662.3 894.9C661.5 894.7 660.6 894.8 659.9 895.1C659.2 895.4 658.6 895.9 658.2 896.7L652.1 908.8C651.9 909.2 651.8 909.6 651.7 910L651.2 913.3C651 912.7 650.9 912 650.9 911.3C651 910.5 650.3 909.8 649.5 909.7C643.6 909.4 644 904 644 904L648.7 897.1C652.2 891.9 656.4 894.6 656.4 894.6V889.7C656.6 889 656.9 888.4 657.4 887.9C659 886.3 661.4 886 663.4 887L670.3 893.3L682.8 901.7Z" fill="black"/>
<path opacity="0.15" d="M868.7 927.5C865.7 927.6 863.1 925.7 862.1 922.9L842 866.2L837.5 853.4L837.3 849.2L843.4 841.5L868.7 927.5Z" fill="black"/>
<path opacity="0.15" d="M744.9 846.9L744.7 851.6L720 919.9C719 922.6 716.4 924.5 713.5 924.4L739.6 841.8L744.9 846.9Z" fill="black"/>
<path d="M823.5 790.7L797.5 814L764.7 785.7V773.4C764.7 773.4 779.1 772.1 776.9 753.9C776.8 753.1 776.7 752.4 776.6 751.6C776.5 750.8 776.3 750.2 776.2 749.4L776.1 749.1C775.9 748 775.5 746.8 775.2 745.5C775 744.8 774.8 744.1 774.6 743.4L776.8 743.3L806.9 742.2L811.1 742.1C811.1 742.1 810.9 742.6 810.7 743.4C810.7 743.4 810.7 743.5 810.7 743.6C810.6 744 810.4 744.6 810.2 745.2C809.7 747.1 809.2 749.1 808.9 751.1C808.9 751.2 808.9 751.4 808.8 751.5L808.7 751.9C808.6 752.3 808.6 752.8 808.5 753.2C808.4 753.6 808.4 753.9 808.4 754.2C808.2 756.2 808.3 758.2 808.6 760.2L808.7 760.9C810 767.7 814.2 774.1 822.9 776L823.5 790.7Z" fill="#956363"/>
<path d="M818.8 710L814.5 724.2C814 725.7 812.7 726.8 811.1 726.8L774.4 727.5C773.7 727.5 772.9 727.3 772.3 726.9C773.5 724.4 773.9 721.6 773.6 718.9C773.6 718.9 777.3 715.4 778.3 711.9C778.4 711.5 778.8 711.2 779.2 711.2C781.2 711.1 787 710.7 789 709.3C789.3 709.1 789.6 709.1 789.9 709.2L796.4 712.2C796.9 712.4 797.5 712.2 797.7 711.7C797.7 711.7 797.7 711.6 797.8 711.5C798.1 710.1 799.4 709.1 800.9 709C801 709 801.2 709 801.3 709C804.6 709.4 807.7 710.6 810.4 712.3C810.6 712.5 810.8 712.7 810.8 713L812.4 724.3L813.1 724.1L813.6 709.5C813.6 709.1 813.4 708.7 813 708.5L798.5 702.7C798.4 702.7 798.3 702.6 798.1 702.6H778C777.9 702.6 777.7 702.6 777.6 702.7L771.9 705.1C771.5 705.3 771.3 705.6 771.3 706L771.7 725V726.3V727.2L771.2 727.3L770.8 725.2C770.7 724.9 770.6 724.6 770.5 724.4C769.9 721.7 768.8 717.6 767.2 715.2C766.8 714.5 766.6 713.6 766.7 712.7L769 699.3C769.1 698.5 769.5 697.8 770.1 697.3C774.2 693.4 792.5 678.6 814.7 696.8C815.7 697.6 816.2 698.8 816 700.1C815.7 702.4 816.3 704.6 817.7 706.5C818.9 707.4 819.2 708.8 818.8 710Z" fill="black"/>
<path opacity="0.19" d="M810.6 743.5C810.6 743.5 810.6 743.6 810.6 743.7C810.5 744.1 810.3 744.7 810.1 745.3C809.6 747.2 809.1 749.2 808.8 751.2C808.8 751.3 808.8 751.5 808.7 751.6L808.6 752C808.5 752.4 808.5 752.9 808.4 753.3C808.3 753.7 808.3 754 808.3 754.3C808.1 756.3 808.2 758.3 808.5 760.3L808.6 761C806.8 761.2 805 761.3 803.2 761.3C799.3 761.2 795.2 760.8 791.7 759.2C790.1 758.4 788.5 757.4 787.2 756.2C786.5 755.6 785.9 754.9 785.3 754.2C785 753.9 784.1 752.1 783.8 752.1C788.6 753 793.7 753.9 798.3 752.1C800.1 751.3 801.8 750.3 803.3 749.1C805.8 747.3 808.2 745.5 810.6 743.5Z" fill="black"/>
<path d="M812.9 709V735C812.9 746.3 803.7 755.4 792.5 755.4C781.3 755.4 772.1 746.3 772.1 735V709H812.9Z" fill="#956363"/>
<path d="M812.9 709V725C812.9 736.3 803.7 745.4 792.5 745.4C781.3 745.4 772.1 736.3 772.1 725V709H812.9Z" fill="#956363"/>
<path opacity="0.2" d="M793.2 735.8C792.7 735.8 792.2 735.7 791.8 735.4C791.4 735.1 791.1 734.6 791.1 734.1C791 733.7 791.2 733.3 791.5 732.9L791.9 733.2C791.7 733.4 791.6 733.7 791.7 734C791.7 734.4 791.9 734.7 792.2 735C792.8 735.4 793.5 735.4 794.2 735.2C794.5 735.1 794.8 734.9 795 734.7L795.4 735C795.1 735.3 794.8 735.6 794.4 735.7C793.9 735.7 793.5 735.8 793.2 735.8Z" fill="black"/>
<path d="M793 747.4C792.8 747.4 792.5 747.4 792.3 747.3C792 747.2 791.8 747 791.6 746.8L792.1 746.6C792.2 746.7 792.3 746.8 792.4 746.8C792.6 746.8 792.8 746.9 793 746.8C793.1 746.8 793.2 746.8 793.3 746.8C793.3 746.8 793.4 746.8 793.4 746.7H793.9C793.9 746.9 793.7 747.1 793.5 747.2C793.3 747.4 793.1 747.4 793 747.4Z" fill="black"/>
<path d="M799.9 726.9C800.728 726.9 801.4 726.228 801.4 725.4C801.4 724.572 800.728 723.9 799.9 723.9C799.071 723.9 798.4 724.572 798.4 725.4C798.4 726.228 799.071 726.9 799.9 726.9Z" fill="black"/>
<path d="M785.1 726.9C785.929 726.9 786.6 726.228 786.6 725.4C786.6 724.572 785.929 723.9 785.1 723.9C784.272 723.9 783.6 724.572 783.6 725.4C783.6 726.228 784.272 726.9 785.1 726.9Z" fill="black"/>
<path d="M803 720C803.9 720.4 804.6 721.2 804.9 722.1C802.9 720.6 800.6 719.6 798.1 719.4C799.8 719.2 801.5 719.3 803 720Z" fill="black"/>
<path d="M782 720C781.1 720.4 780.4 721.2 780.1 722.1C782 720.6 784.4 719.6 786.9 719.4C785.3 719.2 783.6 719.3 782 720Z" fill="black"/>
<path opacity="0.19" d="M784 739.3C785.7 741.2 788.1 742.2 790.6 742.2H794.6C796.8 742.2 799 741.4 800.6 739.9L800.9 739.7" stroke="black" stroke-width="0.75" stroke-linecap="round" stroke-linejoin="round"/>
<path d="M844.2 841.2L842 866.2L836 941L742.7 942.9L739.3 842.2C739.3 842.2 746.4 816.9 736.4 788.4L764.3 772.9C768.2 776 792.1 793.4 822.5 775.4L850.6 788.9L851.6 789.4C851.4 789.4 840.8 799.6 844.2 841.2Z" fill="#241D19"/>
<path opacity="0.3" d="M844.2 841.2L842 866.2L836 941L829.8 941.1L843.6 826.4C843.5 830.9 843.7 835.8 844.2 841.2Z" fill="black"/>
<path opacity="0.3" d="M749.3 942.8L742.7 942.9L739.3 842.2C740.6 837.1 741.3 831.9 741.6 826.6L749.3 942.8Z" fill="black"/>
<path d="M740 999.2C739.8 1000.4 739.6 1001.8 739.3 1003.2C738.9 1006 738.5 1008.8 738.3 1010.7C738.3 1011.2 738.2 1011.5 738.2 1011.9C738.2 1013.6 737.9 1015.3 737.4 1016.9C737.3 1017.2 737.1 1017.5 737 1017.8C736.9 1018 736.8 1018.1 736.7 1018.3C736.1 1018.9 735.7 1019.6 735.2 1020.3C735.1 1020.6 735 1020.8 734.9 1021.1C734.8 1021.5 734.8 1021.9 734.9 1022.3C735 1023.2 735.2 1024.1 735.4 1025C735.5 1025.5 735.6 1026 735.6 1026.5C735.3 1026.8 735 1027.1 734.6 1027.4C734.3 1027.6 734 1027.8 733.7 1028C732.2 1028.8 730.6 1029.3 728.9 1029.4C727 1029.5 724.9 1029.1 723.6 1027.6C722.4 1026 722.2 1023.8 722.9 1022C723.2 1021.2 723.5 1020.4 724 1019.7C724.1 1019.6 724.1 1019.5 724.2 1019.4C724.7 1018.6 725.2 1017.7 725.7 1016.9C725.9 1016.5 726.1 1016.1 726.3 1015.7C726.5 1015.3 726.6 1015.1 726.7 1014.8C727.3 1013.4 727.9 1012 728.4 1010.6C728.5 1010.3 728.6 1009.9 728.7 1009.6C729.1 1008.3 729.6 1007 730 1005.7V1005.6C730.1 1005.3 730.2 1004.9 730.4 1004.6C730.9 1003.1 731.7 1001.8 732.8 1000.6C733.2 1000.2 733.7 999.8 734.3 999.5C736.2 998.6 738.2 998.6 740 999.2Z" fill="#956363"/>
<g opacity="0.15">
<path opacity="0.15" d="M737.4 1016.9C737.3 1017.2 737.1 1017.5 737 1017.8L728.5 1010.5C728.6 1010.2 728.7 1009.8 728.8 1009.5L737.4 1016.9Z" fill="black"/>
</g>
<g opacity="0.15">
<path opacity="0.15" d="M734.9 1022.4L726.4 1015.7C726.6 1015.4 726.7 1015.1 726.8 1014.8L734.9 1021.2C734.9 1021.6 734.9 1022 734.9 1022.4Z" fill="black"/>
</g>
<g opacity="0.15">
<path opacity="0.15" d="M734.7 1027.5C734.4 1027.7 734.1 1027.9 733.8 1028.1L724.1 1019.7H724L724.2 1019.5L724.6 1019L734.7 1027.5Z" fill="black"/>
</g>
<path d="M763.3 1015.1C763.2 1018.3 759.8 1018.4 757.1 1019.3C752.4 1020.9 741.1 1024.2 736.3 1025.5V1025.6C736.1 1026 735.9 1026.3 735.6 1026.6C735.6 1026.1 735.5 1025.6 735.4 1025.1C735.1 1023.5 734.5 1021.8 735.2 1020.4C735.6 1019.7 736.1 1019 736.7 1018.4C738 1016.6 738.1 1014.2 738.2 1011.9C738.3 1009.6 739.2 1003.7 740 999.3C741.6 999.8 743.2 1000.6 744.5 1001.7C745.1 1002.4 745.9 1002.9 746.8 1003.1C748 1003.1 749.2 1003.2 750.3 1003.4C752 1004 753 1005.8 753.7 1007.5C754.9 1010 763.5 1012.2 763.3 1015.1Z" fill="#956363"/>
<path opacity="0.15" d="M763.3 1015.1C763.2 1018.3 759.8 1018.4 757.1 1019.3C752.4 1020.9 741.1 1024.2 736.3 1025.5V1025.6C736.1 1026 735.9 1026.3 735.6 1026.6C735.6 1026.1 735.5 1025.6 735.4 1025.1C735.1 1023.5 734.5 1021.8 735.2 1020.4C735.6 1019.7 736.1 1019 736.7 1018.4C738 1016.6 738.1 1014.2 738.2 1011.9C738.3 1009.6 739.2 1003.7 740 999.3C741.6 999.8 743.2 1000.6 744.5 1001.7C745.1 1002.4 745.9 1002.9 746.8 1003.1C748 1003.1 749.2 1003.2 750.3 1003.4C752 1004 753 1005.8 753.7 1007.5C754.9 1010 763.5 1012.2 763.3 1015.1Z" fill="black"/>
<path d="M918.5 933.1L912.8 956.1C912.8 956.1 882.2 997.2 797.6 1012C788 1013.7 777.8 1015 766.8 1015.9L771 989.9L786.5 982.4H786.6L790.6 981.4L800.1 979L800 975.7L798.8 939.8L798.7 938.2C812.1 937.7 825.4 936.1 838.5 933.3L839.3 933.1C839.3 933.1 872 924 887.7 915.8C887.8 915.7 911.8 902.8 918.5 933.1Z" fill="#DDD3CD"/>
<path opacity="0.15" d="M914.8 948L912.8 956C912.8 956 882.2 997.1 797.6 1011.9C788 1013.6 777.8 1014.9 766.8 1015.8L771 989.8L771.8 989.4L768.9 1007.7C779.9 1006.8 790.1 1005.5 799.7 1003.8C884.1 989.1 914.8 948 914.8 948Z" fill="black"/>
<path d="M798.3 1011.7L809.8 993.9L800.7 989L800.2 975.7L798.9 939.8L798.8 938.2C798.8 938.2 770.8 938.5 751 937C746.1 936.7 741.2 936 736.3 935L690.1 911.5C684.4 908.6 677.4 910 673.3 915C669.1 920 666.2 926 664.9 932.4C664.6 934 664.6 935.7 664.9 937.3L666.4 944.9L668.1 953.6C668.1 953.6 699.8 991.2 752.5 1008C755.1 1010.8 758 1013.4 760.6 1015.8C763.6 1018.6 766.7 1021.5 770.5 1023.1C775.7 1025.4 781.7 1025.2 787.3 1025C787 1022.8 788.1 1020.7 790 1019.7C790.5 1019.4 791.1 1019.3 791.7 1019.2C792.6 1019.3 793.5 1019.2 794.4 1019C796.1 1018.4 796.6 1016.1 796.7 1014.2L798.3 1011.7Z" fill="#DDD3CD"/>
<g opacity="0.15">
<path opacity="0.15" d="M672.5 903.4C672.2 903.1 671.9 902.9 671.5 902.8C671.4 902.7 671.2 902.7 671.1 902.7C670.3 902.5 669.4 902.7 668.7 903.2L668.5 903.3C668 903.7 667.6 904.2 667.4 904.8C667.3 905 667.3 905.1 667.2 905.3L664.1 919.8L664.9 919.9H665.1H665.2H665.3L666.4 920.1H666.6L667.3 920.2H667.5C668 920.3 668.5 920.3 668.9 920.4H669.3L669.8 920.5H670.3H670.5L671.1 920.6L671.5 920.2L671.7 920L672.3 915.8L673.4 908.4L673.6 906.9C673.9 905.7 673.5 904.4 672.5 903.4ZM670.7 920.4L670.4 920.7L669.4 920.6C667.9 920.4 666.5 920.3 665.1 920L668.1 905.9L668.2 905.7C668.4 904.4 669.6 903.6 670.9 903.8C671 903.8 671.1 903.9 671.2 903.9C672.2 904.4 672.9 905.5 672.8 906.7C672.8 906.9 672.8 907.1 672.8 907.3L671.2 918L670.7 920.4Z" fill="black"/>
</g>
<g opacity="0.15">
<path opacity="0.15" d="M664.5 898C664.5 898.3 664.4 898.7 664.3 899L664.2 899.2L657.2 918L656.3 917.6L663.4 898.7C663.7 897.8 663.7 896.7 663.2 895.9C662.9 895.3 662.4 894.8 661.7 894.6C661 894.4 660.2 894.5 659.5 894.8C658.9 895 658.4 895.5 658.1 896.1L652 908.2C651.8 908.5 651.7 908.9 651.7 909.2L651.1 913C650.9 912.5 650.9 911.9 650.9 911.4C650.9 911 650.8 910.5 650.5 910.2L650.7 909.1C650.8 908.6 650.9 908.2 651.1 907.8L657.2 895.6C657.6 894.8 658.3 894.1 659.1 893.8C660 893.5 660.9 893.4 661.9 893.6C662.8 893.9 663.6 894.5 664 895.4C664.5 896.2 664.6 897.1 664.5 898Z" fill="black"/>
</g>
<g opacity="0.15">
<path opacity="0.15" d="M667.7 905H667.6C667.3 904.9 667.2 904.7 667.2 904.4L667.5 903C667.9 901.7 667.4 900.3 666.4 899.5C665.7 898.9 664.8 898.9 664.1 899.3L663.5 898.5C663.6 898.5 663.6 898.4 663.7 898.4C664.8 897.8 666.1 898 667.1 898.7C668.4 899.8 669 901.6 668.5 903.2L668.2 904.6C668.1 904.8 667.9 905 667.7 905Z" fill="black"/>
</g>
<path d="M867.8 1018.8L867.7 1018.9C867.6 1019.2 867.4 1019.4 867.4 1019.7C867.1 1020.8 866.9 1021.9 867 1023C867 1023.1 867 1023.1 867 1023.2C867 1023.5 867 1023.9 866.9 1024.2C866.7 1025.4 866.3 1026.5 865.5 1027.4C865.3 1027.7 865 1028 864.7 1028.2C863.5 1029.3 862 1029.9 860.4 1030C858.2 1030.1 856 1030 854.8 1029.2C854.8 1029.2 853.8 1029.1 852.1 1028.9C849.9 1028.7 846.4 1028.3 842.3 1027.8C826.4 1025.8 800.5 1021.5 796.5 1015.3C796.2 1014.9 796.1 1014.4 796 1014L797.5 1011.7L803.1 1003L807.8 995.6L808.3 995.8C812 997.5 815.8 998.7 819.8 999.4C828.6 1001 837.7 1000.7 846.5 998.6C846.8 998.4 850 995.6 854 995.6C856.2 995.6 858.5 996.6 860.7 999.3L865.4 1006.4C865.2 1006.6 872.1 1012.1 867.8 1018.8Z" fill="#956363"/>
<path opacity="0.15" d="M790.1 1019.6L790 1019.8C788.1 1020.8 787 1022.9 787.3 1025.1C781.6 1025.3 775.7 1025.5 770.5 1023.2C766.7 1021.5 763.6 1018.7 760.6 1015.9C758 1013.4 755.2 1010.8 752.5 1008.1C699.9 991.3 668.1 953.7 668.1 953.7L666.4 945L666.9 947.2C666.9 947.2 699.7 985.3 754.2 1002.3C756.9 1005.1 759.8 1007.7 762.5 1010.2C765.6 1013.1 768.8 1016 772.7 1017.7C778 1020 784.2 1019.8 790.1 1019.6Z" fill="black"/>
<path d="M762.7 772C762.7 772 791.5 794.4 824.3 774.8" stroke="white" stroke-miterlimit="10"/>
<path opacity="0.15" d="M787.7 983L846.6 948.1L847.1 947.8L873 932.5" stroke="black" stroke-linecap="round" stroke-linejoin="round"/>
<path opacity="0.15" d="M807.6 996.3L802.7 993L795.9 988.5L787.7 983L769.6 971L745.7 955L719.1 937.3" stroke="black" stroke-linecap="round" stroke-linejoin="round"/>
<path opacity="0.15" d="M847.4 947.3L846.6 948.1L787.7 983L769.6 971L745.7 955.1C745.7 955 745.8 954.8 745.9 954.7C747.7 951.1 773.5 955.6 778.2 955.7C790 956 801.9 955.4 813.6 953.9C819.3 953.2 824.9 952.3 830.6 951.2C834 950.5 845 949.9 847.4 947.3Z" fill="black"/>
<g opacity="0.15">
<path opacity="0.15" d="M787.7 938.1V939.1" stroke="black" stroke-width="0.5" stroke-linecap="round" stroke-linejoin="round"/>
<path opacity="0.15" d="M787.7 941.2V981" stroke="black" stroke-width="0.5" stroke-linecap="round" stroke-linejoin="round" stroke-dasharray="2.04 2.04"/>
<path opacity="0.15" d="M787.7 982V983" stroke="black" stroke-width="0.5" stroke-linecap="round" stroke-linejoin="round"/>
</g>
<path d="M931.4 913.2C931.1 913.5 931 913.9 931 914.4C931 915 931 915.5 930.8 916C930.3 917.5 929 919.2 925.8 920.7L924.9 921.1C922.7 921.9 920.5 922.6 918.2 923H918L917.2 923.1H917H916.9H916.8L915.7 923.3H915.5L914.8 923.4H914.6C914.1 923.5 913.6 923.5 913.2 923.6H912.8L912.3 923.7H911.8H911.6L911 923.8L910.6 923.4L910.4 923.2L909.8 919L908.7 911.6L908.5 910.1C908.3 908.7 908.7 907.2 909.7 906.2C910 905.9 910.3 905.7 910.7 905.6C910.8 905.5 911 905.5 911.1 905.5C911.9 905.3 912.8 905.5 913.5 906L913.7 906.1V906C913.3 904.3 913.8 902.6 915.1 901.5C915.8 900.9 916.8 900.7 917.7 900.9C917.6 900 917.7 899.1 918.1 898.2C918.5 897.4 919.3 896.9 920.1 896.7C921 896.5 922 896.5 922.9 896.9C923.8 897.2 924.4 897.9 924.8 898.7L930.9 910.9C931.1 911.3 931.2 911.7 931.3 912.2L931.4 913.2Z" fill="#956363"/>
<g opacity="0.15">
<path opacity="0.15" d="M914.8 908.5C914.8 908.3 914.7 908.2 914.6 908C914.4 907.4 914 906.9 913.5 906.5L913.3 906.4C912.6 905.9 911.8 905.7 910.9 905.9C910.8 905.9 910.6 906 910.5 906C910.1 906.1 909.8 906.3 909.5 906.6C908.5 907.6 908 909 908.3 910.5L908.5 912L909.6 919.4L910.2 923.6L910.4 923.8L910.8 924.2L911.4 924.1H911.6H912.1L912.6 924H913C913.5 924 914 923.9 914.4 923.8H914.6L915.3 923.7H915.5L916.6 923.5H916.7H916.8H917L917.8 923.4L914.8 908.5ZM912.7 923.7L911.7 923.8L911.4 923.5L911 920.9L909.4 910.2C909.4 910 909.4 909.8 909.4 909.6C909.3 908.4 910 907.3 911 906.8C911.1 906.8 911.2 906.7 911.3 906.7C912.6 906.5 913.7 907.4 914 908.6L914.1 908.8L917.1 922.9C915.6 923.3 914.1 923.5 912.7 923.7Z" fill="black"/>
</g>
<g opacity="0.15">
<path opacity="0.15" d="M931.4 913.2C931.1 913.5 931 913.9 931 914.4C931 915 931 915.5 930.8 916L930.3 912.2C930.2 911.9 930.1 911.5 930 911.2L923.9 899.1C923.6 898.5 923.1 898 922.5 897.8C921.8 897.5 921.1 897.5 920.3 897.6C919.7 897.8 919.1 898.3 918.8 898.9C918.4 899.8 918.3 900.8 918.6 901.7L925.7 920.6L924.8 921L917.8 902.2L917.7 902C917.6 901.7 917.5 901.3 917.5 901C917.4 900.1 917.5 899.2 917.9 898.3C918.3 897.5 919 896.8 919.9 896.6C920.8 896.4 921.8 896.4 922.7 896.8C923.6 897.1 924.2 897.8 924.6 898.6L930.7 910.8C930.9 911.2 931 911.6 931.1 912.1L931.4 913.2Z" fill="black"/>
</g>
<g opacity="0.15">
<path opacity="0.15" d="M918.5 901.5L917.8 902.3C917.1 901.9 916.1 902 915.5 902.6C914.5 903.5 914.1 904.8 914.4 906.1L914.7 907.5C914.7 907.7 914.7 907.9 914.5 908C914.4 908 914.4 908.1 914.3 908.1H914.2C914 908.1 913.8 907.9 913.7 907.7L913.4 906.5V906.3C913 904.6 913.5 902.9 914.8 901.8C915.5 901.2 916.5 901 917.4 901.2C917.7 901.3 917.9 901.4 918.2 901.5H918.5Z" fill="black"/>
</g>
<g opacity="0.15">
<path opacity="0.15" d="M867.8 1018.8L867.7 1018.9C867.6 1019.2 867.4 1019.4 867.4 1019.7L855.3 1016.2L855.6 1015.2L867.8 1018.8Z" fill="black"/>
</g>
<g opacity="0.15">
<path opacity="0.15" d="M867 1023.3C867 1023.6 867 1024 866.9 1024.3L857.4 1021.5L857.7 1020.5L867 1023.3Z" fill="black"/>
</g>
<g opacity="0.15">
<path opacity="0.15" d="M865.6 1027.6C865.4 1027.9 865.1 1028.2 864.8 1028.4L855.3 1025.6L855.6 1024.6L865.6 1027.6Z" fill="black"/>
</g>
<path d="M772.6 724.6C772.1 724.7 771.7 724.4 771.5 724C771.3 723.6 771.1 723.2 770.8 722.8C770.1 722.3 769.2 722.3 768.5 722.8C767.9 723.4 767.4 724.1 767.2 724.9C766.6 726.3 766.3 727.8 766.3 729.4C766.3 730.9 766.8 732.4 767.8 733.6C768.1 734 768.5 734.3 769 734.5C769.5 734.7 770 734.6 770.4 734.3C770.5 734.2 770.7 734 770.8 733.8C771.2 733.3 771.9 733.1 772.6 733.2C772.4 730.4 772.6 727.4 772.6 724.6Z" fill="#956363"/>
<path d="M812 724.6C812.5 724.7 812.9 724.4 813.1 724C813.3 723.6 813.5 723.2 813.8 722.8C814.5 722.3 815.4 722.3 816.1 722.8C816.7 723.4 817.2 724.1 817.4 724.9C818 726.3 818.3 727.8 818.3 729.4C818.3 730.9 817.8 732.4 816.8 733.6C816.5 734 816.1 734.3 815.6 734.5C815.1 734.7 814.6 734.6 814.2 734.3C814.1 734.2 813.9 734 813.8 733.8C813.4 733.3 812.7 733.1 812 733.2C812.1 730.4 812 727.4 812 724.6Z" fill="#956363"/>
<path opacity="0.2" d="M816.4 732.8L816 732.5C816.8 731.2 817.2 729.7 817 728.2C816.8 726.7 816.2 725.3 815.1 724.2L815.4 723.9C817.9 726.3 818.3 730 816.4 732.8Z" fill="black"/>
<path opacity="0.2" d="M769.4 733.3C768.9 733.3 768.4 733 768.1 732.7C767.6 732.1 767.3 731.4 767.2 730.6C767 729.2 767 727.8 767.2 726.4L767.7 726.5C767.5 727.8 767.5 729.2 767.7 730.5C767.8 731.2 768.1 731.8 768.5 732.4C768.9 732.9 769.6 733 770.2 732.7L770.5 733.1C770.1 733.2 769.8 733.3 769.4 733.3Z" fill="black"/>
<path d="M813.8 707.7V725.6H812.9L810.9 713.2C810.9 712.9 810.7 712.7 810.5 712.5C807.7 710.7 804.6 709.6 801.4 709.2C801.3 709.2 801.1 709.2 801 709.2C799.5 709.2 798.3 710.2 797.9 711.7C797.8 712.2 797.2 712.6 796.7 712.4C796.6 712.4 796.6 712.4 796.5 712.3L790 709.3C789.7 709.2 789.3 709.2 789.1 709.4C787 710.8 781.3 711.2 779.3 711.3C778.9 711.3 778.5 711.6 778.4 712C777.4 715.5 773.7 719 773.7 719C774.1 721.7 773.6 724.5 772.4 727C772.2 727.4 772.1 727.7 772.1 727.7V726.8V725.5L770.7 704.5C770.7 704.1 770.9 703.7 771.3 703.6L778 701.2C778.1 701.2 778.2 701.1 778.4 701.1H798.5C798.6 701.1 798.8 701.1 798.9 701.2L813.4 707C813.6 706.9 813.8 707.3 813.8 707.7Z" fill="black"/>
<path d="M461.7 933.3L466.4 1029.4H479.9L499.7 933.3H461.7Z" fill="#241D19"/>
<path d="M1127.5 933.3L1122.8 1029.4H1109.3L1089.5 933.3H1127.5Z" fill="#241D19"/>
<path d="M298 996.5L286.9 890.7L287.9 890.6L298.2 989.2L302.7 850.1H303.7L299 996.5H298Z" fill="#927463"/>
<path d="M271.7 976H322.1V1015.5C322.1 1021.5 317.2 1026.4 311.2 1026.4H282.6C276.6 1026.4 271.7 1021.5 271.7 1015.5V976Z" fill="#241D19"/>
<path d="M270.5 971H321.6C323.1 971 324.3 972.2 324.3 973.7V975.5C324.3 977 323.1 978.2 321.6 978.2H270.5C269 978.2 267.8 977 267.8 975.5V973.7C267.8 972.2 269 971 270.5 971Z" fill="#241D19"/>
<path opacity="0.2" d="M270.5 971H321.6C323.1 971 324.3 972.2 324.3 973.7V975.5C324.3 977 323.1 978.2 321.6 978.2H270.5C269 978.2 267.8 977 267.8 975.5V973.7C267.8 972.2 269 971 270.5 971Z" fill="black"/>
<path d="M315.9 825.6C315.9 841.4 310.2 854.2 303.2 854.2V797C310.2 797 315.9 809.8 315.9 825.6Z" fill="white"/>
<path d="M303.2 797V854.2C296.2 854.2 290.5 841.4 290.5 825.6C290.5 809.8 296.2 797 303.2 797Z" fill="#927463"/>
<path d="M287.6 891.3L280.5 851.7C285.4 850.8 290.9 859 292.8 869.9C294.7 880.8 292.5 890.4 287.6 891.3Z" fill="#927463"/>
<path d="M287.6 891.3C282.7 892.2 277.2 884 275.3 873.1C273.3 862.2 275.7 852.6 280.5 851.8L287.6 891.3Z" fill="white"/>
<path d="M310.907 885.067L303.151 891.056L303.762 891.848L311.518 885.858L310.907 885.067Z" fill="#927463"/>
<path d="M333.9 881.3C324.3 890.5 313.1 894.5 309 890.2L344 856.8C348.1 861.2 343.6 872.1 333.9 881.3Z" fill="white"/>
<path d="M344 856.9L309 890.3C304.9 886 309.4 875.1 319 865.9C328.7 856.6 339.9 852.6 344 856.9Z" fill="#927463"/>
<path d="M278.709 928.473L278.07 929.242L292.375 941.131L293.014 940.362L278.709 928.473Z" fill="#927463"/>
<path d="M281.4 931.3L254.3 901.7C257.9 898.4 267 902.3 274.5 910.5C281.9 918.7 285 928 281.4 931.3Z" fill="white"/>
<path d="M281.4 931.3C277.8 934.6 268.7 930.7 261.2 922.5C253.7 914.3 250.6 905 254.2 901.6L281.4 931.3Z" fill="#927463"/>
<path d="M308.593 941.8L299.312 954.832L300.126 955.412L309.408 942.38L308.593 941.8Z" fill="#927463"/>
<path d="M324.5 934.7C318.9 943 311.5 947.7 307.8 945.3L327.9 915.2C331.6 917.7 330.1 926.4 324.5 934.7Z" fill="white"/>
<path d="M327.9 915.2L307.8 945.3C304.1 942.8 305.6 934.1 311.2 925.8C316.8 917.5 324.2 912.7 327.9 915.2Z" fill="#927463"/>
<path d="M875.8 323.8H682.5V487.1H875.8V323.8Z" fill="white"/>
<path d="M808.7 401.1C808.6 402.6 808.3 404.2 807.9 405.6C807.7 406.4 807.4 407.2 807.1 408C806.7 408.9 806.3 409.9 805.8 410.8L805.5 411.3L804.4 413.4L803.5 415.1L802.6 416.7H758.3L758 416.4L757.3 415.7L753.2 411.4L752.6 410.8C751.6 408.1 751 405.3 750.9 402.4C750.8 400.7 750.8 399.1 751 397.4C751.1 396.1 751.4 394.8 751.8 393.5C752.2 391.9 752.9 390.3 753.6 388.7C753.9 388 754.3 387.3 754.8 386.7C755.5 385.6 756.3 384.5 757.2 383.5C760.2 380.2 763.7 377.5 767.7 375.6C768.3 375.3 768.9 375 769.5 374.7L793 374.6L793.8 375.1L794.8 375.9C796.1 376.9 797.4 378 798.6 379.1C802 382.3 806 387.1 807.7 393.1C808.2 394.7 808.5 396.4 808.5 398.1C808.8 399.2 808.7 400.2 808.7 401.1Z" fill="black"/>
<path d="M794.5 372C794.5 373.1 794.3 374.2 793.8 375.3C792 379.4 786.8 382.4 780.6 382.4C774.7 382.4 769.6 379.6 767.6 375.7C767 374.6 766.7 373.3 766.7 372C766.7 367.3 770.8 363.4 776.5 362.1C777.2 361.9 777.9 361.8 778.6 361.7C779.2 361.6 779.9 361.6 780.5 361.6C782.4 361.6 784.3 361.9 786.1 362.5C787.6 363 789.1 363.7 790.3 364.7C792.9 366.3 794.4 369.1 794.5 372Z" fill="black"/>
<path d="M817.2 460.7H741.4C769.8 459.9 763.8 442.8 763.8 442.8L795.8 444C795 448 795.8 451.1 797.4 453.4C801.8 459.8 813.1 460.6 817.2 460.7Z" fill="#FC9D9D"/>
<path opacity="0.15" d="M797.3 453.3C797.3 453.3 783.4 456.6 773.3 446.9L795.8 443.9C795 448 795.7 451 797.3 453.3Z" fill="black"/>
<path d="M808.6 424.2C807.9 425.8 807.2 427.3 806.7 429L804.7 434.9L804.8 441.4C804.8 442.6 804.4 443.7 803.5 444.5C802.3 445.5 800.6 445.9 799.3 440.8L799.6 438.8L802.5 416.9C802.7 416.3 803 415.7 803.3 415.1C804 413.8 805.1 412.3 806.5 411.7C807.7 411.3 809 411.9 809.4 413.1C809.4 413.2 809.4 413.2 809.5 413.3C810.4 416.9 810.1 420.8 808.6 424.2Z" fill="#FC9D9D"/>
<path opacity="0.15" d="M803.5 416.8V427.5C803.5 432.3 802 436.9 799.3 440.8L799.6 438.8L802.5 416.9C802.7 416.3 803 415.7 803.3 415.1L803.5 416.8Z" fill="black"/>
<path d="M761.2 440.8C759.8 445.8 758.1 445.5 757 444.4C756.2 443.6 755.7 442.5 755.7 441.3L755.8 434.8L753.8 428.9C753.3 427.3 752.6 425.7 751.9 424.1C750.4 420.7 750 416.9 751 413.2C751.3 412 752.6 411.2 753.8 411.5C753.9 411.5 753.9 411.5 754 411.6C755.4 412.1 756.6 413.9 757.3 415.2C757.8 416.1 758 416.8 758 416.8L761.2 440.8Z" fill="#FC9D9D"/>
<path opacity="0.15" d="M761.2 440.8C758.5 437.1 757.1 432.6 757.1 428V416.9L757.2 415.3C757.7 416.2 757.9 416.9 757.9 416.9L761.2 440.8Z" fill="black"/>
<path d="M802.5 416.8V427.5C802.5 431.4 801.5 435.3 799.6 438.8C795.9 445.6 788.9 449.9 781.2 450.2H781C768.8 450.6 758.5 441 758.2 428.8C758.2 428.6 758.2 428.3 758.2 428.1V416.9L759 407.2L759.5 406.7C760.3 405.9 760.8 404.8 760.7 403.7C760.6 399.9 761.5 391.1 772.8 391.4H772.9H773.7C774 391.4 774.3 391.5 774.6 391.6C776.7 392.3 778.9 392.6 781.1 392.5H781.2C782.6 392.5 783.9 392.2 785.2 391.6C785.6 391.4 786.1 391.3 786.6 391.2C787.2 391.2 787.8 391.2 788.5 391.2C792.3 391.3 799.1 392.9 799.5 402.2C799.5 402.9 799.8 403.7 800.2 404.3L801.7 406.4L802.5 416.8Z" fill="#FC9D9D"/>
<path d="M782.3 412.1C783.2 411 784.3 410 785.6 409.2C786.9 408.4 788.3 407.8 789.7 407.6C791.2 407.4 792.7 407.6 794.1 408.2C794.4 408.4 794.8 408.5 795.1 408.7L796 409.4C796.3 409.6 796.6 409.9 796.8 410.2C797 410.5 797.3 410.7 797.5 411C796.4 410.1 795.2 409.3 793.9 408.8C792.6 408.3 791.2 408.2 789.8 408.4C788.4 408.6 787.1 409.1 785.8 409.8C785.2 410.1 784.5 410.5 784 410.9C783.5 411.2 782.9 411.7 782.3 412.1Z" fill="black"/>
<path d="M776.2 412.1C775.6 411.6 775.1 411.2 774.5 410.8C773.9 410.4 773.3 410 772.7 409.7C771.4 409 770.1 408.6 768.7 408.3C767.3 408.1 765.9 408.2 764.6 408.7C763.3 409.2 762.1 410 761 410.9C761.2 410.6 761.5 410.4 761.7 410.1C761.9 409.8 762.2 409.6 762.5 409.3L763.4 408.6C763.7 408.4 764.1 408.2 764.4 408.1C765.8 407.5 767.3 407.2 768.8 407.5C770.3 407.7 771.7 408.3 772.9 409.1C774.1 410 775.2 410.9 776.2 412.1Z" fill="black"/>
<path d="M784.9 416.2C785.6 416.9 786.4 417.5 787.3 417.9C788.2 418.3 789.1 418.6 790.1 418.6C791.1 418.6 792.1 418.5 793 418.1C793.5 417.9 793.9 417.8 794.4 417.5C794.8 417.3 795.3 417 795.7 416.8C795.3 417.1 794.9 417.4 794.5 417.6C794.1 417.8 793.6 418.1 793.1 418.2C792.1 418.6 791.1 418.7 790.1 418.7C788 418.7 786.1 417.7 784.9 416.2Z" fill="black"/>
<path d="M763.5 416.2C764.2 416.9 765 417.5 765.9 417.9C766.8 418.3 767.8 418.6 768.7 418.6C769.7 418.6 770.7 418.5 771.6 418.1C772.1 417.9 772.5 417.8 773 417.5C773.4 417.3 773.9 417 774.3 416.8C773.9 417.1 773.5 417.4 773.1 417.6C772.7 417.8 772.2 418 771.7 418.2C770.7 418.6 769.7 418.7 768.7 418.7C766.6 418.7 764.8 417.7 763.5 416.2Z" fill="black"/>
<path opacity="0.15" d="M782.8 431.7C783.684 431.7 784.4 431.521 784.4 431.3C784.4 431.079 783.684 430.9 782.8 430.9C781.916 430.9 781.2 431.079 781.2 431.3C781.2 431.521 781.916 431.7 782.8 431.7Z" fill="black"/>
<path opacity="0.15" d="M776.6 431.5C777.484 431.5 778.2 431.321 778.2 431.1C778.2 430.879 777.484 430.7 776.6 430.7C775.716 430.7 775 430.879 775 431.1C775 431.321 775.716 431.5 776.6 431.5Z" fill="black"/>
<path d="M780.3 436.8L778.2 435.8L775.6 436.8H771.6V436.6H775.6L778.2 435.6L780.4 436.5L782.8 435.6L784.9 436.6H788.2V436.8H784.8L782.8 435.9L780.3 436.8Z" fill="black"/>
<path opacity="0.15" d="M777.3 441.2C778.1 441.7 779.1 441.9 780 441.8C780.7 441.7 781.3 441.6 781.9 441.3" stroke="black" stroke-width="0.5" stroke-linecap="round" stroke-linejoin="round"/>
<path d="M883.8 495.1H674.5V315.8H883.8V495.1ZM690.5 479.1H867.8V331.8H690.5V479.1Z" fill="#927463"/>
<g opacity="0.2">
<path opacity="0.2" d="M883.8 495.1H674.5V315.8H883.8V495.1ZM690.5 479.1H867.8V331.8H690.5V479.1Z" fill="white"/>
</g>
<path d="M779.6 411.3C780.87 411.3 781.9 410.27 781.9 409C781.9 407.73 780.87 406.7 779.6 406.7C778.33 406.7 777.3 407.73 777.3 409C777.3 410.27 778.33 411.3 779.6 411.3Z" fill="white"/>
<path opacity="0.2" d="M758.4 396.2C759.781 396.2 760.9 395.081 760.9 393.7C760.9 392.319 759.781 391.2 758.4 391.2C757.019 391.2 755.9 392.319 755.9 393.7C755.9 395.081 757.019 396.2 758.4 396.2Z" fill="white"/>
<path opacity="0.2" d="M757.2 403.5C758.581 403.5 759.7 402.381 759.7 401C759.7 399.619 758.581 398.5 757.2 398.5C755.819 398.5 754.7 399.619 754.7 401C754.7 402.381 755.819 403.5 757.2 403.5Z" fill="white"/>
<path opacity="0.2" d="M753.8 400C753.8 401.4 752.7 402.5 751.3 402.5C751.1 402.5 751 402.5 750.8 402.5C750.7 400.8 750.7 399.2 750.9 397.5H751.2C752.7 397.5 753.8 398.6 753.8 400Z" fill="white"/>
<path opacity="0.2" d="M755.2 391.2C755.2 392.6 754.1 393.7 752.6 393.7C752.3 393.7 751.9 393.6 751.6 393.5C752 391.9 752.7 390.3 753.4 388.7C754.6 389.2 755.2 390.1 755.2 391.2Z" fill="white"/>
<path opacity="0.2" d="M759.7 386.1C759.7 387.5 758.5 388.6 757.1 388.6C756 388.6 755 387.8 754.7 386.8C755.4 385.7 756.2 384.6 757.1 383.6C758.5 383.5 759.7 384.7 759.7 386.1Z" fill="white"/>
<path opacity="0.2" d="M763.9 384.9C765.281 384.9 766.4 383.781 766.4 382.4C766.4 381.019 765.281 379.9 763.9 379.9C762.519 379.9 761.4 381.019 761.4 382.4C761.4 383.781 762.519 384.9 763.9 384.9Z" fill="white"/>
<path opacity="0.2" d="M769.8 379.3C771.181 379.3 772.3 378.181 772.3 376.8C772.3 375.419 771.181 374.3 769.8 374.3C768.419 374.3 767.3 375.419 767.3 376.8C767.3 378.181 768.419 379.3 769.8 379.3Z" fill="white"/>
<path opacity="0.2" d="M779.2 378.4C780.581 378.4 781.7 377.281 781.7 375.9C781.7 374.519 780.581 373.4 779.2 373.4C777.819 373.4 776.7 374.519 776.7 375.9C776.7 377.281 777.819 378.4 779.2 378.4Z" fill="white"/>
<path opacity="0.2" d="M787.4 378.4C788.781 378.4 789.9 377.281 789.9 375.9C789.9 374.519 788.781 373.4 787.4 373.4C786.019 373.4 784.9 374.519 784.9 375.9C784.9 377.281 786.019 378.4 787.4 378.4Z" fill="white"/>
<path opacity="0.2" d="M798.7 379.2C798.2 379.6 797.7 379.8 797.1 379.8C795.7 379.8 794.6 378.7 794.6 377.3C794.6 376.9 794.7 376.4 794.9 376C796.2 377 797.5 378.1 798.7 379.2Z" fill="white"/>
<path opacity="0.2" d="M772.9 371.9C774.281 371.9 775.4 370.781 775.4 369.4C775.4 368.019 774.281 366.9 772.9 366.9C771.519 366.9 770.4 368.019 770.4 369.4C770.4 370.781 771.519 371.9 772.9 371.9Z" fill="white"/>
<path opacity="0.2" d="M782.9 371.9C784.281 371.9 785.4 370.781 785.4 369.4C785.4 368.019 784.281 366.9 782.9 366.9C781.519 366.9 780.4 368.019 780.4 369.4C780.4 370.781 781.519 371.9 782.9 371.9Z" fill="white"/>
<path opacity="0.2" d="M791.9 372.9C793.281 372.9 794.4 371.781 794.4 370.4C794.4 369.019 793.281 367.9 791.9 367.9C790.519 367.9 789.4 369.019 789.4 370.4C789.4 371.781 790.519 372.9 791.9 372.9Z" fill="white"/>
<path opacity="0.2" d="M780.5 364.2C780.6 365.6 779.5 366.8 778.1 366.9C776.7 367 775.5 365.9 775.4 364.5C775.4 364.4 775.4 364.3 775.4 364.2C775.4 363.4 775.8 362.6 776.5 362.1C777.2 361.9 777.9 361.8 778.6 361.7C779.8 362 780.5 363 780.5 364.2Z" fill="white"/>
<path opacity="0.2" d="M790.5 364.7C790.3 366.1 789 367 787.6 366.8C786.4 366.6 785.5 365.6 785.4 364.3C785.4 363.6 785.7 362.9 786.2 362.4C787.8 363 789.2 363.7 790.5 364.7Z" fill="white"/>
<path opacity="0.2" d="M774.3 384.9C775.681 384.9 776.8 383.781 776.8 382.4C776.8 381.019 775.681 379.9 774.3 379.9C772.919 379.9 771.8 381.019 771.8 382.4C771.8 383.781 772.919 384.9 774.3 384.9Z" fill="white"/>
<path opacity="0.2" d="M782.9 384.9C784.281 384.9 785.4 383.781 785.4 382.4C785.4 381.019 784.281 379.9 782.9 379.9C781.519 379.9 780.4 381.019 780.4 382.4C780.4 383.781 781.519 384.9 782.9 384.9Z" fill="white"/>
<path opacity="0.2" d="M791.5 384.9C792.881 384.9 794 383.781 794 382.4C794 381.019 792.881 379.9 791.5 379.9C790.119 379.9 789 381.019 789 382.4C789 383.781 790.119 384.9 791.5 384.9Z" fill="white"/>
<path opacity="0.2" d="M801.4 388.6C802.781 388.6 803.9 387.481 803.9 386.1C803.9 384.719 802.781 383.6 801.4 383.6C800.019 383.6 798.9 384.719 798.9 386.1C798.9 387.481 800.019 388.6 801.4 388.6Z" fill="white"/>
<g opacity="0.2">
<path opacity="0.2" d="M808.7 398.3C808.5 398.3 808.3 398.4 808.2 398.4C806.8 398.4 805.7 397.3 805.7 395.9C805.7 394.6 806.7 393.5 807.9 393.4C808.3 394.9 808.6 396.6 808.7 398.3Z" fill="white"/>
</g>
<path opacity="0.2" d="M808.7 401.1C808.6 402.6 808.3 404.2 807.9 405.6C806.8 404.8 806.5 403.2 807.3 402.1C807.6 401.6 808.1 401.3 808.7 401.1Z" fill="white"/>
<path opacity="0.2" d="M755.2 410.4C756.581 410.4 757.7 409.281 757.7 407.9C757.7 406.519 756.581 405.4 755.2 405.4C753.819 405.4 752.7 406.519 752.7 407.9C752.7 409.281 753.819 410.4 755.2 410.4Z" fill="white"/>
<path opacity="0.2" d="M763.5 392C764.881 392 766 390.881 766 389.5C766 388.119 764.881 387 763.5 387C762.119 387 761 388.119 761 389.5C761 390.881 762.119 392 763.5 392Z" fill="white"/>
<path opacity="0.2" d="M770.8 390.5C772.181 390.5 773.3 389.381 773.3 388C773.3 386.619 772.181 385.5 770.8 385.5C769.419 385.5 768.3 386.619 768.3 388C768.3 389.381 769.419 390.5 770.8 390.5Z" fill="white"/>
<path opacity="0.2" d="M778.7 390.5C780.081 390.5 781.2 389.381 781.2 388C781.2 386.619 780.081 385.5 778.7 385.5C777.319 385.5 776.2 386.619 776.2 388C776.2 389.381 777.319 390.5 778.7 390.5Z" fill="white"/>
<path opacity="0.2" d="M786.9 390.5C788.281 390.5 789.4 389.381 789.4 388C789.4 386.619 788.281 385.5 786.9 385.5C785.519 385.5 784.4 386.619 784.4 388C784.4 389.381 785.519 390.5 786.9 390.5Z" fill="white"/>
<path opacity="0.2" d="M795.7 392C797.081 392 798.2 390.881 798.2 389.5C798.2 388.119 797.081 387 795.7 387C794.319 387 793.2 388.119 793.2 389.5C793.2 390.881 794.319 392 795.7 392Z" fill="white"/>
<path opacity="0.2" d="M801 396.2C802.381 396.2 803.5 395.081 803.5 393.7C803.5 392.319 802.381 391.2 801 391.2C799.619 391.2 798.5 392.319 798.5 393.7C798.5 395.081 799.619 396.2 801 396.2Z" fill="white"/>
<path opacity="0.2" d="M803.5 403.8C804.881 403.8 806 402.681 806 401.3C806 399.919 804.881 398.8 803.5 398.8C802.119 398.8 801 399.919 801 401.3C801 402.681 802.119 403.8 803.5 403.8Z" fill="white"/>
<path opacity="0.2" d="M807 408.1C806.6 409 806.2 410 805.7 410.9L805.4 411.4C805.1 411.5 804.9 411.5 804.6 411.5C803.2 411.5 802 410.4 802 409C802 407.6 803.1 406.4 804.5 406.4C805.7 406.5 806.7 407.1 807 408.1Z" fill="white"/>
<path d="M1404.7 1030.4H183.2C182.1 1030.4 181.2 1029.5 181.2 1028.4C181.2 1027.3 182.1 1026.4 183.2 1026.4H1404.7C1405.8 1026.4 1406.7 1027.3 1406.7 1028.4C1406.7 1029.5 1405.8 1030.4 1404.7 1030.4Z" fill="#DDD3CD"/>
<g opacity="0.6">
<path opacity="0.6" d="M1404.7 1030.4H183.2C182.1 1030.4 181.2 1029.5 181.2 1028.4C181.2 1027.3 182.1 1026.4 183.2 1026.4H1404.7C1405.8 1026.4 1406.7 1027.3 1406.7 1028.4C1406.7 1029.5 1405.8 1030.4 1404.7 1030.4Z" fill="white"/>
</g>
<path d="M642.539 599.188H650.715V625.492C650.715 628.555 650.059 631.134 648.746 633.23C647.452 635.327 645.656 636.904 643.359 637.961C641.081 639.018 638.456 639.547 635.484 639.547C632.513 639.547 629.87 639.018 627.555 637.961C625.258 636.904 623.453 635.327 622.141 633.23C620.846 631.134 620.199 628.555 620.199 625.492V599.188H628.402V625.492C628.402 627.279 628.685 628.737 629.25 629.867C629.815 630.997 630.626 631.827 631.684 632.355C632.759 632.884 634.026 633.148 635.484 633.148C636.979 633.148 638.246 632.884 639.285 632.355C640.342 631.827 641.145 630.997 641.691 629.867C642.257 628.737 642.539 627.279 642.539 625.492V599.188ZM664.688 615.73V639H656.812V609.414H664.195L664.688 615.73ZM663.539 623.168H661.406C661.406 620.98 661.689 619.012 662.254 617.262C662.819 615.493 663.612 613.99 664.633 612.75C665.654 611.492 666.866 610.535 668.27 609.879C669.691 609.204 671.277 608.867 673.027 608.867C674.413 608.867 675.68 609.068 676.828 609.469C677.977 609.87 678.961 610.508 679.781 611.383C680.62 612.258 681.258 613.415 681.695 614.855C682.151 616.296 682.379 618.055 682.379 620.133V639H674.449V620.105C674.449 618.793 674.267 617.772 673.902 617.043C673.538 616.314 673 615.803 672.289 615.512C671.596 615.202 670.74 615.047 669.719 615.047C668.661 615.047 667.741 615.257 666.957 615.676C666.191 616.095 665.553 616.678 665.043 617.426C664.551 618.155 664.177 619.012 663.922 619.996C663.667 620.98 663.539 622.038 663.539 623.168ZM704.336 632.328V619.148C704.336 618.201 704.181 617.389 703.871 616.715C703.561 616.022 703.078 615.484 702.422 615.102C701.784 614.719 700.954 614.527 699.934 614.527C699.059 614.527 698.302 614.682 697.664 614.992C697.026 615.284 696.534 615.712 696.188 616.277C695.841 616.824 695.668 617.471 695.668 618.219H687.793C687.793 616.961 688.085 615.767 688.668 614.637C689.251 613.507 690.099 612.513 691.211 611.656C692.323 610.781 693.645 610.098 695.176 609.605C696.725 609.113 698.457 608.867 700.371 608.867C702.668 608.867 704.71 609.25 706.496 610.016C708.283 610.781 709.686 611.93 710.707 613.461C711.746 614.992 712.266 616.906 712.266 619.203V631.863C712.266 633.486 712.366 634.816 712.566 635.855C712.767 636.876 713.059 637.77 713.441 638.535V639H705.484C705.102 638.198 704.81 637.195 704.609 635.992C704.427 634.771 704.336 633.549 704.336 632.328ZM705.375 620.98L705.43 625.438H701.027C699.988 625.438 699.086 625.556 698.32 625.793C697.555 626.03 696.926 626.367 696.434 626.805C695.941 627.224 695.577 627.716 695.34 628.281C695.121 628.846 695.012 629.466 695.012 630.141C695.012 630.815 695.167 631.426 695.477 631.973C695.786 632.501 696.233 632.921 696.816 633.23C697.4 633.522 698.083 633.668 698.867 633.668C700.052 633.668 701.082 633.431 701.957 632.957C702.832 632.483 703.507 631.9 703.98 631.207C704.473 630.514 704.728 629.858 704.746 629.238L706.824 632.574C706.533 633.322 706.132 634.096 705.621 634.898C705.129 635.701 704.5 636.457 703.734 637.168C702.969 637.861 702.048 638.435 700.973 638.891C699.897 639.328 698.621 639.547 697.145 639.547C695.267 639.547 693.562 639.173 692.031 638.426C690.518 637.66 689.315 636.612 688.422 635.281C687.547 633.932 687.109 632.401 687.109 630.688C687.109 629.138 687.401 627.762 687.984 626.559C688.568 625.355 689.424 624.344 690.555 623.523C691.703 622.685 693.134 622.056 694.848 621.637C696.561 621.199 698.548 620.98 700.809 620.98H705.375ZM735.836 631.918V609.414H743.711V639H736.301L735.836 631.918ZM736.711 625.848L739.035 625.793C739.035 627.762 738.807 629.594 738.352 631.289C737.896 632.966 737.212 634.424 736.301 635.664C735.389 636.885 734.241 637.842 732.855 638.535C731.47 639.21 729.839 639.547 727.961 639.547C726.521 639.547 725.19 639.346 723.969 638.945C722.766 638.526 721.727 637.879 720.852 637.004C719.995 636.111 719.32 634.971 718.828 633.586C718.354 632.182 718.117 630.496 718.117 628.527V609.414H725.992V628.582C725.992 629.457 726.092 630.195 726.293 630.797C726.512 631.398 726.812 631.891 727.195 632.273C727.578 632.656 728.025 632.93 728.535 633.094C729.064 633.258 729.647 633.34 730.285 633.34C731.908 633.34 733.184 633.012 734.113 632.355C735.061 631.699 735.727 630.806 736.109 629.676C736.51 628.527 736.711 627.251 736.711 625.848ZM764.219 609.414V614.992H746.992V609.414H764.219ZM751.258 602.113H759.133V630.086C759.133 630.943 759.242 631.599 759.461 632.055C759.698 632.51 760.044 632.829 760.5 633.012C760.956 633.176 761.53 633.258 762.223 633.258C762.715 633.258 763.152 633.24 763.535 633.203C763.936 633.148 764.273 633.094 764.547 633.039L764.574 638.836C763.9 639.055 763.171 639.228 762.387 639.355C761.603 639.483 760.737 639.547 759.789 639.547C758.057 639.547 756.544 639.264 755.25 638.699C753.974 638.116 752.99 637.186 752.297 635.91C751.604 634.634 751.258 632.957 751.258 630.879V602.113ZM776.387 597V639H768.512V597H776.387ZM775.266 623.168H773.105C773.124 621.108 773.397 619.212 773.926 617.48C774.454 615.73 775.211 614.217 776.195 612.941C777.18 611.647 778.355 610.645 779.723 609.934C781.108 609.223 782.639 608.867 784.316 608.867C785.775 608.867 787.096 609.077 788.281 609.496C789.484 609.897 790.514 610.553 791.371 611.465C792.246 612.358 792.921 613.534 793.395 614.992C793.868 616.451 794.105 618.219 794.105 620.297V639H786.176V620.242C786.176 618.93 785.984 617.9 785.602 617.152C785.237 616.387 784.699 615.849 783.988 615.539C783.296 615.211 782.439 615.047 781.418 615.047C780.288 615.047 779.322 615.257 778.52 615.676C777.736 616.095 777.107 616.678 776.633 617.426C776.159 618.155 775.812 619.012 775.594 619.996C775.375 620.98 775.266 622.038 775.266 623.168ZM798.836 624.508V623.934C798.836 621.764 799.146 619.768 799.766 617.945C800.385 616.104 801.288 614.509 802.473 613.16C803.658 611.811 805.116 610.763 806.848 610.016C808.579 609.25 810.566 608.867 812.809 608.867C815.051 608.867 817.047 609.25 818.797 610.016C820.547 610.763 822.014 611.811 823.199 613.16C824.402 614.509 825.314 616.104 825.934 617.945C826.553 619.768 826.863 621.764 826.863 623.934V624.508C826.863 626.659 826.553 628.655 825.934 630.496C825.314 632.319 824.402 633.914 823.199 635.281C822.014 636.63 820.556 637.678 818.824 638.426C817.092 639.173 815.105 639.547 812.863 639.547C810.621 639.547 808.625 639.173 806.875 638.426C805.143 637.678 803.676 636.63 802.473 635.281C801.288 633.914 800.385 632.319 799.766 630.496C799.146 628.655 798.836 626.659 798.836 624.508ZM806.711 623.934V624.508C806.711 625.747 806.82 626.905 807.039 627.98C807.258 629.056 807.604 630.004 808.078 630.824C808.57 631.626 809.208 632.255 809.992 632.711C810.776 633.167 811.733 633.395 812.863 633.395C813.957 633.395 814.896 633.167 815.68 632.711C816.464 632.255 817.092 631.626 817.566 630.824C818.04 630.004 818.387 629.056 818.605 627.98C818.842 626.905 818.961 625.747 818.961 624.508V623.934C818.961 622.73 818.842 621.6 818.605 620.543C818.387 619.467 818.031 618.52 817.539 617.699C817.065 616.861 816.436 616.204 815.652 615.73C814.868 615.257 813.921 615.02 812.809 615.02C811.697 615.02 810.749 615.257 809.965 615.73C809.199 616.204 808.57 616.861 808.078 617.699C807.604 618.52 807.258 619.467 807.039 620.543C806.82 621.6 806.711 622.73 806.711 623.934ZM839.578 615.867V639H831.703V609.414H839.113L839.578 615.867ZM848.492 609.223L848.355 616.523C847.973 616.469 847.508 616.423 846.961 616.387C846.432 616.332 845.949 616.305 845.512 616.305C844.4 616.305 843.434 616.451 842.613 616.742C841.811 617.016 841.137 617.426 840.59 617.973C840.061 618.52 839.66 619.185 839.387 619.969C839.132 620.753 838.986 621.646 838.949 622.648L837.363 622.156C837.363 620.242 837.555 618.483 837.938 616.879C838.32 615.257 838.876 613.844 839.605 612.641C840.353 611.438 841.264 610.508 842.34 609.852C843.415 609.195 844.646 608.867 846.031 608.867C846.469 608.867 846.915 608.904 847.371 608.977C847.827 609.031 848.201 609.113 848.492 609.223ZM860.523 609.414V639H852.621V609.414H860.523ZM852.129 601.703C852.129 600.555 852.53 599.607 853.332 598.859C854.134 598.112 855.21 597.738 856.559 597.738C857.889 597.738 858.956 598.112 859.758 598.859C860.578 599.607 860.988 600.555 860.988 601.703C860.988 602.852 860.578 603.799 859.758 604.547C858.956 605.294 857.889 605.668 856.559 605.668C855.21 605.668 854.134 605.294 853.332 604.547C852.53 603.799 852.129 602.852 852.129 601.703ZM883.027 630.824C883.027 630.259 882.863 629.749 882.535 629.293C882.207 628.837 881.596 628.418 880.703 628.035C879.828 627.634 878.561 627.27 876.902 626.941C875.408 626.613 874.013 626.203 872.719 625.711C871.443 625.201 870.331 624.59 869.383 623.879C868.453 623.168 867.724 622.329 867.195 621.363C866.667 620.379 866.402 619.258 866.402 618C866.402 616.76 866.667 615.594 867.195 614.5C867.742 613.406 868.517 612.44 869.52 611.602C870.54 610.745 871.78 610.079 873.238 609.605C874.715 609.113 876.374 608.867 878.215 608.867C880.785 608.867 882.991 609.277 884.832 610.098C886.691 610.918 888.113 612.048 889.098 613.488C890.1 614.91 890.602 616.533 890.602 618.355H882.727C882.727 617.59 882.562 616.906 882.234 616.305C881.924 615.685 881.432 615.202 880.758 614.855C880.102 614.491 879.245 614.309 878.188 614.309C877.312 614.309 876.556 614.464 875.918 614.773C875.28 615.065 874.788 615.466 874.441 615.977C874.113 616.469 873.949 617.016 873.949 617.617C873.949 618.073 874.04 618.483 874.223 618.848C874.423 619.194 874.742 619.513 875.18 619.805C875.617 620.096 876.182 620.37 876.875 620.625C877.586 620.862 878.461 621.081 879.5 621.281C881.633 621.719 883.538 622.293 885.215 623.004C886.892 623.697 888.223 624.645 889.207 625.848C890.191 627.033 890.684 628.591 890.684 630.523C890.684 631.836 890.392 633.039 889.809 634.133C889.225 635.227 888.387 636.184 887.293 637.004C886.199 637.806 884.887 638.435 883.355 638.891C881.842 639.328 880.138 639.547 878.242 639.547C875.49 639.547 873.156 639.055 871.242 638.07C869.346 637.086 867.906 635.837 866.922 634.324C865.956 632.793 865.473 631.225 865.473 629.621H872.938C872.974 630.697 873.247 631.562 873.758 632.219C874.286 632.875 874.952 633.349 875.754 633.641C876.574 633.932 877.458 634.078 878.406 634.078C879.427 634.078 880.275 633.941 880.949 633.668C881.624 633.376 882.134 632.993 882.48 632.52C882.845 632.027 883.027 631.462 883.027 630.824ZM909.414 639.547C907.117 639.547 905.057 639.182 903.234 638.453C901.411 637.706 899.862 636.676 898.586 635.363C897.328 634.051 896.362 632.529 895.688 630.797C895.013 629.047 894.676 627.188 894.676 625.219V624.125C894.676 621.883 894.995 619.832 895.633 617.973C896.271 616.113 897.182 614.5 898.367 613.133C899.57 611.766 901.029 610.717 902.742 609.988C904.456 609.241 906.388 608.867 908.539 608.867C910.635 608.867 912.495 609.214 914.117 609.906C915.74 610.599 917.098 611.583 918.191 612.859C919.303 614.135 920.142 615.667 920.707 617.453C921.272 619.221 921.555 621.19 921.555 623.359V626.641H898.039V621.391H913.816V620.789C913.816 619.695 913.616 618.72 913.215 617.863C912.832 616.988 912.249 616.296 911.465 615.785C910.681 615.275 909.678 615.02 908.457 615.02C907.418 615.02 906.525 615.247 905.777 615.703C905.03 616.159 904.419 616.797 903.945 617.617C903.49 618.438 903.143 619.404 902.906 620.516C902.688 621.609 902.578 622.812 902.578 624.125V625.219C902.578 626.404 902.742 627.497 903.07 628.5C903.417 629.503 903.9 630.368 904.52 631.098C905.158 631.827 905.923 632.392 906.816 632.793C907.728 633.194 908.758 633.395 909.906 633.395C911.328 633.395 912.65 633.121 913.871 632.574C915.111 632.009 916.177 631.161 917.07 630.031L920.898 634.188C920.279 635.081 919.431 635.938 918.355 636.758C917.298 637.578 916.022 638.253 914.527 638.781C913.033 639.292 911.328 639.547 909.414 639.547ZM943.512 632.547V597H951.441V639H944.305L943.512 632.547ZM924.809 624.562V623.988C924.809 621.728 925.064 619.677 925.574 617.836C926.085 615.977 926.832 614.382 927.816 613.051C928.801 611.72 930.013 610.69 931.453 609.961C932.893 609.232 934.534 608.867 936.375 608.867C938.107 608.867 939.62 609.232 940.914 609.961C942.227 610.69 943.339 611.729 944.25 613.078C945.18 614.409 945.927 615.986 946.492 617.809C947.057 619.613 947.467 621.591 947.723 623.742V625C947.467 627.06 947.057 628.974 946.492 630.742C945.927 632.51 945.18 634.06 944.25 635.391C943.339 636.703 942.227 637.724 940.914 638.453C939.602 639.182 938.07 639.547 936.32 639.547C934.479 639.547 932.839 639.173 931.398 638.426C929.977 637.678 928.773 636.63 927.789 635.281C926.823 633.932 926.085 632.346 925.574 630.523C925.064 628.701 924.809 626.714 924.809 624.562ZM932.684 623.988V624.562C932.684 625.784 932.775 626.923 932.957 627.98C933.158 629.038 933.477 629.977 933.914 630.797C934.37 631.599 934.953 632.228 935.664 632.684C936.393 633.121 937.277 633.34 938.316 633.34C939.665 633.34 940.777 633.039 941.652 632.438C942.527 631.818 943.193 630.97 943.648 629.895C944.122 628.819 944.396 627.579 944.469 626.176V622.594C944.414 621.445 944.25 620.415 943.977 619.504C943.721 618.574 943.339 617.781 942.828 617.125C942.336 616.469 941.716 615.958 940.969 615.594C940.24 615.229 939.374 615.047 938.371 615.047C937.35 615.047 936.475 615.284 935.746 615.758C935.017 616.214 934.424 616.842 933.969 617.645C933.531 618.447 933.203 619.395 932.984 620.488C932.784 621.564 932.684 622.73 932.684 623.988ZM966.48 599.188L965.578 626.832H959.016L958.086 599.188H966.48ZM957.867 635.391C957.867 634.224 958.268 633.258 959.07 632.492C959.891 631.708 960.966 631.316 962.297 631.316C963.646 631.316 964.721 631.708 965.523 632.492C966.326 633.258 966.727 634.224 966.727 635.391C966.727 636.521 966.326 637.478 965.523 638.262C964.721 639.046 963.646 639.438 962.297 639.438C960.966 639.438 959.891 639.046 959.07 638.262C958.268 637.478 957.867 636.521 957.867 635.391Z" fill="#241D19"/>
</svg>
