<svg width="1384" height="1202" viewBox="0 0 1384 1202" fill="none" xmlns="http://www.w3.org/2000/svg">
<path opacity="0.27" d="M319.709 90.3673C319.709 90.3673 598.931 -82.9664 775.273 50.4852C951.615 183.937 767.568 392.539 1022.24 392.539C1276.9 392.539 1414.91 599.619 1329.02 877.248C1243.13 1154.88 1029.91 969.284 913.327 1125.74C846.553 1215.37 569.739 1257.66 411.744 1065.92C253.75 874.18 502.246 806.687 359.591 680.917C216.936 555.147 -14.6753 279.028 319.709 90.3673Z" fill="#9E97FC"/>
<path d="M614.175 341.536C614.175 354.778 622.635 365.504 633.061 365.504H1122.61C1133.07 365.504 1141.46 354.718 1141.46 341.536V61.2946H614.175V341.536Z" fill="#D2E1F9" stroke="#5A4DAA" stroke-width="4"/>
<path d="M1122.61 9.66835H633.097C628.081 9.66199 623.268 11.6503 619.719 15.1951C616.169 18.7399 614.175 23.5505 614.175 28.5668V61.2946H1141.46V28.5668C1141.46 18.1482 1133.03 9.69478 1122.61 9.66835Z" fill="#AAC8F9" stroke="#5A4DAA" stroke-width="4"/>
<path d="M637.519 46.3148C641.199 46.3148 644.182 43.3317 644.182 39.6518C644.182 35.972 641.199 32.9888 637.519 32.9888C633.839 32.9888 630.856 35.972 630.856 39.6518C630.856 43.3317 633.839 46.3148 637.519 46.3148Z" fill="#5A4DAA"/>
<path d="M659.725 46.3148C663.405 46.3148 666.388 43.3317 666.388 39.6518C666.388 35.972 663.405 32.9888 659.725 32.9888C656.045 32.9888 653.062 35.972 653.062 39.6518C653.062 43.3317 656.045 46.3148 659.725 46.3148Z" fill="#5A4DAA"/>
<path d="M681.931 46.3148C685.611 46.3148 688.594 43.3317 688.594 39.6518C688.594 35.972 685.611 32.9888 681.931 32.9888C678.251 32.9888 675.268 35.972 675.268 39.6518C675.268 43.3317 678.251 46.3148 681.931 46.3148Z" fill="#5A4DAA"/>
<rect opacity="0.63" x="704.125" y="279.424" width="348.01" height="49.9485" rx="15.92" fill="white" stroke="#C63B3B" stroke-width="3"/>
<path fill-rule="evenodd" clip-rule="evenodd" d="M870.64 238.907C913.25 238.907 947.792 204.365 947.792 161.755C947.792 119.145 913.25 84.6031 870.64 84.6031C828.031 84.6031 793.489 119.145 793.489 161.755C793.489 204.365 828.031 238.907 870.64 238.907Z" stroke="#5A4DAA" stroke-width="4" stroke-linecap="round"/>
<path d="M742.426 313.278C746.105 313.278 749.089 310.295 749.089 306.615C749.089 302.935 746.105 299.952 742.426 299.952C738.746 299.952 735.763 302.935 735.763 306.615C735.763 310.295 738.746 313.278 742.426 313.278Z" fill="#5A4DAA"/>
<path d="M764.632 313.278C768.311 313.278 771.295 310.295 771.295 306.615C771.295 302.935 768.311 299.952 764.632 299.952C760.952 299.952 757.969 302.935 757.969 306.615C757.969 310.295 760.952 313.278 764.632 313.278Z" fill="#5A4DAA"/>
<path d="M786.826 313.278C790.505 313.278 793.489 310.295 793.489 306.615C793.489 302.935 790.505 299.952 786.826 299.952C783.146 299.952 780.163 302.935 780.163 306.615C780.163 310.295 783.146 313.278 786.826 313.278Z" fill="#5A4DAA"/>
<path d="M809.032 313.278C812.711 313.278 815.695 310.295 815.695 306.615C815.695 302.935 812.711 299.952 809.032 299.952C805.352 299.952 802.369 302.935 802.369 306.615C802.369 310.295 805.352 313.278 809.032 313.278Z" fill="#5A4DAA"/>
<path d="M831.226 313.278C834.905 313.278 837.889 310.295 837.889 306.615C837.889 302.935 834.905 299.952 831.226 299.952C827.546 299.952 824.563 302.935 824.563 306.615C824.563 310.295 827.546 313.278 831.226 313.278Z" fill="#5A4DAA"/>
<path d="M853.432 313.278C857.111 313.278 860.095 310.295 860.095 306.615C860.095 302.935 857.111 299.952 853.432 299.952C849.752 299.952 846.769 302.935 846.769 306.615C846.769 310.295 849.752 313.278 853.432 313.278Z" fill="#5A4DAA"/>
<path d="M982.365 308.221C988.285 313.518 1008.56 328.246 1033.04 308.077C1033.52 307.678 1033.81 307.091 1033.82 306.467C1033.83 305.843 1033.57 305.246 1033.1 304.829C1027.18 299.545 1006.9 284.805 982.425 304.973C981.946 305.372 981.663 305.96 981.652 306.583C981.64 307.207 981.901 307.805 982.365 308.221Z" fill="#AAC8F9"/>
<path opacity="0.63" d="M1006.91 314.668C1011.85 314.668 1015.86 310.66 1015.86 305.716C1015.86 300.772 1011.85 296.764 1006.91 296.764C1001.96 296.764 997.956 300.772 997.956 305.716C997.956 310.66 1001.96 314.668 1006.91 314.668Z" fill="white"/>
<path d="M1017.29 289.574L996.518 322.554" stroke="#AAC8F9" stroke-width="4" stroke-linecap="round"/>
<path d="M1078.22 32.9888H1107.08Z" fill="#D2E1F9"/>
<path d="M1078.22 32.9888H1107.08" stroke="#5A4DAA" stroke-width="4" stroke-linecap="round"/>
<path opacity="0.27" d="M268.586 685.735C268.586 685.735 371.587 750.327 315.263 838.936C258.939 927.544 218.434 852.777 245.062 814.764C271.69 776.752 244.714 733.55 207.313 709.978C169.911 686.406 220.459 656.35 268.586 685.735Z" fill="#9E97FC"/>
<path d="M213.652 570.654C213.652 570.654 257.022 492.029 225.276 452.626C193.531 413.223 172.476 494.929 213.652 570.654Z" fill="#AAC8F9"/>
<path d="M192.237 506.002C195.431 528.665 202.685 550.566 213.652 570.654C213.652 570.654 230.322 540.467 235.487 508.111C227.949 522.3 213.7 536.584 192.237 506.002Z" fill="#89B5F7"/>
<path fill-rule="evenodd" clip-rule="evenodd" d="M213.652 570.654C213.652 570.654 257.022 492.029 225.276 452.626C193.531 413.223 172.476 494.929 213.652 570.654Z" stroke="#5A4DAA" stroke-width="4"/>
<path d="M208.847 444.956C208.847 444.956 222.987 550.581 202.783 660.892" stroke="#5A4DAA" stroke-width="4"/>
<path d="M191.338 813.902C191.338 813.902 168.377 655.152 240.604 545.68C312.83 436.208 365.403 541.294 329.284 633.258C295.861 718.331 193.543 830.319 191.338 813.902Z" fill="#89B5F7"/>
<path d="M278.88 505.127C267.124 512.041 254.217 525.056 240.604 545.68C181.116 635.798 186.185 759.291 189.828 800.144C191.53 805.681 192.597 808.713 192.597 808.713C197.941 824.387 276.483 694.615 292.709 604.664C299.564 566.628 292.721 529.262 278.88 505.127Z" fill="#AAC8F9"/>
<path fill-rule="evenodd" clip-rule="evenodd" d="M191.338 813.902C191.338 813.902 168.377 655.152 240.604 545.68C312.83 436.208 365.403 541.294 329.284 633.258C295.861 718.331 193.543 830.319 191.338 813.902Z" stroke="#5A4DAA" stroke-width="4"/>
<path d="M208.847 863.155C206.174 860.974 216.516 742.742 264.679 700.043C312.842 657.345 354.45 720.835 320.572 760.25C286.693 799.665 220.89 873.018 208.847 863.155Z" fill="#89B5F7"/>
<path d="M302.464 686.358C291.439 684.381 278.329 687.952 264.679 700.043C228.045 732.52 213.293 808.689 209.554 844.269C210.405 853.077 211.411 858.493 212.046 858.841C225.696 866.295 276.687 782.061 302.752 737.061C312.986 719.313 310.985 700.055 302.464 686.358Z" fill="#AAC8F9"/>
<path fill-rule="evenodd" clip-rule="evenodd" d="M208.847 863.155C206.174 860.974 216.516 742.742 264.679 700.043C312.842 657.345 354.45 720.835 320.572 760.25C286.693 799.665 220.89 873.018 208.847 863.155Z" stroke="#5A4DAA" stroke-width="4"/>
<path d="M166.843 830.955C166.843 830.955 139.616 719.565 66.9344 638.219C-5.74741 556.873 23.2174 488.314 57.1196 467.713C91.0218 447.113 208.235 483.149 202.591 670.983C200.626 808.173 171.062 847.157 166.843 830.955Z" fill="#89B5F7"/>
<path d="M94.3174 464.25C63.531 488.385 41.2291 547.442 95.0244 626.475C156.393 716.629 168.821 830.643 168.821 830.643C169.06 832.56 169.731 833.783 170.762 834.238C180.073 831.578 200.949 785.5 202.591 670.959C206.845 529.466 141.366 474.137 94.3174 464.25Z" fill="#AAC8F9"/>
<path fill-rule="evenodd" clip-rule="evenodd" d="M166.843 830.955C166.843 830.955 139.616 719.565 66.9344 638.219C-5.74741 556.873 23.2174 488.314 57.1196 467.713C91.0218 447.113 208.235 483.149 202.591 670.983C200.626 808.173 171.062 847.157 166.843 830.955Z" stroke="#5A4DAA" stroke-width="4"/>
<path d="M137.926 865.696C137.926 865.696 102.179 812.188 49.1624 783.007C-3.85397 753.827 -2.53575 712.303 10.7064 695.118C23.9485 677.933 90.7821 674.841 124.768 774.762C150.677 847.36 143.211 873.425 137.926 865.696Z" fill="#89B5F7"/>
<path d="M143.091 857.391C143.763 844.376 140.096 817.724 124.768 774.786C100.07 702.081 57.9226 683.913 31.7619 686.034C24.6675 705.436 28.6102 735.647 64.3459 764.181C111.622 801.942 137.735 860.746 137.735 860.746C139.017 863.622 141.246 862.736 143.091 857.391Z" fill="#AAC8F9"/>
<path fill-rule="evenodd" clip-rule="evenodd" d="M137.926 865.696C137.926 865.696 102.179 812.188 49.1624 783.007C-3.85397 753.827 -2.53575 712.303 10.7064 695.118C23.9485 677.933 90.7821 674.841 124.768 774.762C150.677 847.36 143.211 873.425 137.926 865.696Z" stroke="#5A4DAA" stroke-width="4"/>
<path d="M167.251 970.446H84.0472L110.747 1129.83C112.499 1140.2 121.469 1147.79 131.982 1147.81H202.519C213.028 1147.78 221.991 1140.19 223.742 1129.83L250.454 970.446H167.251Z" fill="#89B5F7"/>
<path d="M230.358 970.446C230.477 982.777 230.274 1097.35 183.621 1114.96C149.742 1127.76 122.587 1115.7 105.726 1100.16L110.699 1129.83C112.451 1140.2 121.421 1147.79 131.935 1147.81H202.471C212.98 1147.78 221.943 1140.19 223.695 1129.83L250.406 970.446H230.358Z" fill="#609AEF"/>
<path fill-rule="evenodd" clip-rule="evenodd" d="M167.251 970.446H84.0472L110.747 1129.83C112.499 1140.2 121.469 1147.79 131.982 1147.81H202.519C213.028 1147.78 221.991 1140.19 223.742 1129.83L250.454 970.446H167.251Z" stroke="#5A4DAA" stroke-width="4"/>
<path d="M166.7 982.49C212.956 982.49 250.454 976.609 250.454 969.356C250.454 962.102 212.956 956.221 166.7 956.221C120.443 956.221 82.9447 962.102 82.9447 969.356C82.9447 976.609 120.443 982.49 166.7 982.49Z" fill="#5A4DAA" stroke="#5A4DAA" stroke-width="4"/>
<path d="M204.473 969.355C204.473 969.355 232.934 864.258 272.349 882.868C290.96 897.093 207.756 979.206 204.473 969.355Z" fill="#89B5F7"/>
<path d="M256.231 881.79C225.408 892.072 204.473 969.355 204.473 969.355C204.662 969.951 205.278 970.3 205.887 970.158C216.948 963.891 254.852 906.321 256.231 881.79Z" fill="#AAC8F9"/>
<path fill-rule="evenodd" clip-rule="evenodd" d="M204.473 969.355C204.473 969.355 232.934 864.258 272.349 882.868C290.96 897.093 207.756 979.206 204.473 969.355Z" stroke="#5A4DAA" stroke-width="4"/>
<path d="M143.211 969.355C143.211 969.355 102.706 859.871 69.8584 871.915C37.0108 883.959 139.88 979.206 143.211 969.355Z" fill="#89B5F7"/>
<path d="M81.3509 872.239C85.0898 902.917 135.913 970.506 142.54 967.702C137.962 955.766 108.95 882.641 81.3509 872.239Z" fill="#AAC8F9"/>
<path fill-rule="evenodd" clip-rule="evenodd" d="M143.211 969.355C143.211 969.355 102.706 859.871 69.8584 871.915C37.0108 883.959 139.88 979.206 143.211 969.355Z" stroke="#5A4DAA" stroke-width="4"/>
<path d="M315.67 504.132C315.67 504.132 167.251 789.814 171.625 970.446C171.625 970.446 188.055 535.829 51.1996 472.327" stroke="#5A4DAA" stroke-width="4"/>
<path d="M10.6944 696.76C10.6944 696.76 165.058 783.247 155.195 972.639" stroke="#5A4DAA" stroke-width="4"/>
<path d="M325.113 701.709C325.113 701.709 272.193 748.182 230.346 817.353C203.777 861.262 181.667 914.362 180.361 970.446" stroke="#5A4DAA" stroke-width="4"/>
<path d="M89.8115 1004.89C89.8115 1004.89 172.727 1030.66 244.678 1004.89" stroke="#5A4DAA" stroke-width="4"/>
<path d="M1381.17 1147.52H50.9719" stroke="#251760" stroke-width="4" stroke-linecap="round"/>
<path d="M1221.98 1147.52H1175.65" stroke="#251760" stroke-width="4" stroke-linecap="round"/>
<path d="M1287.7 1147.52H1264.48" stroke="#251760" stroke-width="4" stroke-linecap="round"/>
<path d="M612.976 886.2L563.843 1122.81C560.86 1137.2 548.177 1147.52 533.476 1147.52H519.227" stroke="#251760" stroke-width="4" stroke-linecap="round"/>
<path d="M486.871 859.907L430.883 1122.81C427.899 1137.2 415.216 1147.52 400.516 1147.52H386.207" stroke="#251760" stroke-width="4" stroke-linecap="round"/>
<path d="M778.916 815.16C778.916 815.16 681.284 907.843 533.883 881.478C386.483 855.114 306.191 660.976 308.588 508.782C310.985 356.588 459.584 355.389 490.742 396.134C521.9 436.879 660.193 772.581 733.066 741.352C805.94 710.122 819.002 793.17 778.916 815.16Z" fill="#EAEAEA"/>
<path opacity="0.78" d="M490.742 396.134C472.442 372.167 413.674 362.771 367.776 389.831C397.268 379.357 469.171 376.96 390.078 447.664C341.963 490.674 382.887 700.523 461.981 726.252C519.395 744.983 497.237 588.438 539.875 488.397C517.466 443.794 499.718 407.818 490.742 396.134Z" fill="#C9C6CC"/>
<path opacity="0.78" d="M775.956 749.656C775.956 749.656 668.102 909.041 482.353 828.749C354.366 773.432 320.26 642.437 311.416 566.304C326.911 706.083 404.566 858.338 533.883 881.478C681.284 907.843 778.88 815.16 778.88 815.16C802.345 802.289 807.641 768.495 793.261 748.949C787.485 748.52 781.678 748.757 775.956 749.656V749.656Z" fill="#C9C6CC"/>
<path fill-rule="evenodd" clip-rule="evenodd" d="M778.916 815.16C778.916 815.16 681.284 907.843 533.883 881.478C386.483 855.114 306.191 660.976 308.588 508.782C310.985 356.588 459.584 355.389 490.742 396.134C521.9 436.879 660.193 772.581 733.066 741.352C805.94 710.122 819.002 793.17 778.916 815.16Z" stroke="#251760" stroke-width="4" stroke-linecap="round"/>
<path d="M879.017 724.49C831.082 628.62 656.118 650.191 656.118 650.191C656.118 650.191 574.628 666.968 568.469 702.416C562.309 737.864 580.62 726.887 699.26 731.681C817.9 736.474 762.774 868.296 801.122 880.28C823.017 887.123 866.77 959.96 904.315 1022.55C916.43 1014.93 934.358 1005.63 953.7 1002.18C935.892 922.75 911.613 789.622 879.017 724.49Z" fill="#73BBEF"/>
<path opacity="0.45" d="M953.185 1002.33C948.739 993.191 930.032 984.167 912.608 972.555C891.037 958.175 893.433 831.146 863.474 749.656C834.821 671.762 717.955 649.987 707.78 648.237C690.535 647.758 673.278 648.41 656.118 650.191C642.927 653.111 629.975 657.025 617.375 661.899C598.2 683.062 592.963 710.134 608.183 708.911C613.959 708.444 623.57 716.641 635.326 730.147C652.415 730.338 673.459 730.638 699.26 731.681C817.9 736.474 762.774 868.296 801.122 880.28C823.017 887.123 866.769 959.96 904.315 1022.55C916.358 1015.03 934.047 1005.81 953.185 1002.33Z" fill="#478CC9"/>
<path fill-rule="evenodd" clip-rule="evenodd" d="M879.017 724.49C831.082 628.62 656.118 650.191 656.118 650.191C656.118 650.191 574.628 666.968 568.469 702.416C562.309 737.864 580.62 726.887 699.26 731.681C817.9 736.474 762.774 868.296 801.122 880.28C823.017 887.123 866.77 959.96 904.315 1022.55C916.43 1014.93 934.358 1005.63 953.7 1002.18C935.892 922.75 911.613 789.622 879.017 724.49Z" stroke="#251760" stroke-width="4" stroke-linecap="round"/>
<path d="M580.345 886.2L629.478 1122.81C632.461 1137.2 645.144 1147.52 659.845 1147.52H674.094" stroke="#251760" stroke-width="4" stroke-linecap="round"/>
<path d="M706.45 859.907L762.438 1122.81C765.422 1137.2 778.105 1147.52 792.805 1147.52H807.114" stroke="#251760" stroke-width="4" stroke-linecap="round"/>
<path d="M805.916 710.11C717.236 643.001 636.944 707.713 595.001 699.324C553.057 690.936 424.339 699.001 424.339 699.001C424.339 699.001 489.543 814.369 652.523 814.369C707.649 811.972 749.592 788.005 735.211 870.693C727.554 914.709 704.617 969.931 687.372 1017.55C697.45 1025.74 717.499 1038.66 744.319 1039.54C804.25 964.694 918.623 795.159 805.916 710.11Z" fill="#B0D5F7"/>
<path d="M796.329 823.956C801.122 780.814 749.592 742.466 692.07 749.656C634.547 756.847 638.993 696.928 638.993 696.928C639.221 695.729 639.401 694.531 639.533 693.416C622.036 698.21 606.961 701.721 595.001 699.324C572.232 694.747 523.529 695.058 483.995 696.257C469.614 707.042 458.026 719.637 451.638 733.466C484.51 767.464 548.707 814.321 652.535 814.321C707.661 811.924 749.604 787.957 735.223 870.645C727.566 914.661 704.629 969.883 687.384 1017.51C697.462 1025.69 717.511 1038.61 744.331 1039.5V1039.5C660.241 1015.15 791.535 867.014 796.329 823.956Z" fill="#7EC1F2"/>
<path fill-rule="evenodd" clip-rule="evenodd" d="M805.916 710.11C717.236 643.001 636.944 707.713 595.001 699.324C553.057 690.936 424.339 699.001 424.339 699.001C424.339 699.001 489.543 814.369 652.523 814.369C707.649 811.972 749.592 788.005 735.211 870.693C727.554 914.709 704.617 969.931 687.372 1017.55C697.45 1025.74 717.499 1038.66 744.319 1039.54C804.25 964.694 918.623 795.159 805.916 710.11Z" stroke="#251760" stroke-width="4" stroke-linecap="round"/>
<path d="M795.13 598.66C769.617 596.839 703.25 584.615 650.246 538.322C634.38 546.195 615.373 563.116 611.778 599.26C669.78 624.833 818.343 623.647 823.891 621.43C829.883 619.033 828.685 601.057 795.13 598.66Z" fill="#F9A395"/>
<path d="M825.15 611.172V611.172C804.777 594.969 738.866 623.778 682.135 593.388C662.846 582.881 645.122 569.727 629.478 554.308C620.862 564.303 613.827 578.635 611.814 599.212C669.816 624.785 818.379 623.599 823.927 621.382C826.696 620.327 827.918 615.965 825.15 611.172Z" fill="#F48378"/>
<path fill-rule="evenodd" clip-rule="evenodd" d="M795.13 598.66C769.617 596.839 703.25 584.615 650.246 538.322C634.38 546.195 615.373 563.116 611.778 599.26C669.78 624.833 818.343 623.647 823.891 621.43C829.883 619.033 828.685 601.057 795.13 598.66Z" stroke="#251760" stroke-width="4" stroke-linecap="round"/>
<path d="M650.282 538.322C632.402 522.793 617.347 504.284 605.786 483.616C554.256 391.341 490.742 396.134 490.742 396.134C459.584 409.316 554.256 560.312 599.794 592.669C603.559 595.26 607.573 597.468 611.778 599.26C615.373 563.116 634.38 546.195 650.282 538.322Z" fill="#F9BE58"/>
<path opacity="0.57" d="M629.478 554.356C605.511 530.988 592.197 508.962 591.442 505.223C590.243 499.231 559.085 451.296 555.49 505.223C553.753 531.371 568.912 558.647 584.994 579.798C589.574 584.479 594.523 588.783 599.794 592.669C603.559 595.26 607.573 597.468 611.778 599.26C613.827 578.683 620.862 564.351 629.478 554.356Z" fill="#FC8E44"/>
<path fill-rule="evenodd" clip-rule="evenodd" d="M650.282 538.322C632.402 522.793 617.347 504.284 605.786 483.616C554.256 391.341 490.742 396.134 490.742 396.134C459.584 409.316 554.256 560.312 599.794 592.669C603.559 595.26 607.573 597.468 611.778 599.26C615.373 563.116 634.38 546.195 650.282 538.322Z" stroke="#251760" stroke-width="4" stroke-linecap="round"/>
<rect x="672.931" y="617.835" width="307.984" height="28.7611" rx="12" fill="#C9C6CC" stroke="#251760" stroke-width="4" stroke-linecap="round"/>
<path d="M490.742 396.134C416.442 400.928 394.871 472.83 394.871 472.83C378.094 512.377 374.499 699.324 472.766 740.069C571.033 780.814 680.086 674.158 654.92 644.199C603.186 600.374 580.812 535.841 561.602 483.616" fill="#F9BE58"/>
<path opacity="0.57" d="M654.92 644.199C654.309 643.684 653.721 643.156 653.134 642.629C645.309 655.583 627.093 691.08 540.163 695.885C429.037 702.045 416.442 580.685 416.442 580.685C416.442 580.685 424.831 555.519 398.466 532.749C393.889 528.795 389.622 530.353 385.799 535.781C384.325 607.085 402.505 710.937 472.766 740.069C571.033 780.814 680.086 674.158 654.92 644.199Z" fill="#FC8E44"/>
<path d="M386.483 523.162C386.483 523.162 374.571 615.965 439.211 654.313C446.402 619.189 482.353 593.747 504.463 581.212C472.323 556.178 471.568 502.79 471.568 502.79C471.568 502.79 478.758 463.243 500.329 459.648C521.9 456.053 483.551 395.223 451.195 406.464C418.839 417.705 390.078 457.252 386.483 523.162Z" fill="#F9BE58"/>
<path opacity="0.57" d="M439.211 654.313C443.25 634.696 456.252 618.098 470.789 605.072C466.462 598.121 447.768 605.875 424.855 555.483C394.895 489.572 440.434 435.645 462.004 453.62C483.575 471.596 489.112 465.46 489.112 465.46V465.46C492.196 462.447 496.103 460.412 500.341 459.612C521.912 456.017 483.563 395.187 451.207 406.428C418.851 417.669 390.09 457.216 386.495 523.126C386.483 523.162 374.571 615.965 439.211 654.313Z" fill="#FC8E44"/>
<path d="M490.742 396.134C416.442 400.928 394.871 472.83 394.871 472.83C378.094 512.377 374.499 699.324 472.766 740.069C571.033 780.814 680.086 674.158 654.92 644.199C603.186 600.374 580.812 535.841 561.602 483.616" stroke="#251760" stroke-width="4" stroke-linecap="round"/>
<path d="M451.195 379.357C451.195 379.357 458.385 471.632 506.321 469.235C537.479 463.243 494.337 400.928 506.321 394.936C518.304 388.944 455.989 349.397 451.195 379.357Z" fill="#F9C7A5"/>
<path d="M490.742 399.729C479.956 403.324 477.559 422.498 493.138 428.49C503.924 432.613 509.149 454.304 511.402 467.426C528.587 457.587 506.237 418.292 504.295 401.826C499.442 399.166 494.648 398.435 490.742 399.729Z" fill="#F99F91"/>
<path d="M541.074 315.843C541.074 315.843 533.883 325.43 547.066 354.191C556.712 375.234 549.462 411.713 502.725 411.713C455.989 411.713 449.997 362.579 461.981 333.818C473.964 305.057 533.883 299.065 541.074 315.843Z" fill="#F9C7A5"/>
<path d="M461.981 333.818C455.737 348.798 450.74 364.413 449.997 386.547C453.903 391.173 453.592 404.703 456.636 403.983C474.072 399.837 457.187 326.628 467.817 329.157C478.446 331.685 475.163 373.365 476.361 381.754C501.527 384.15 487.35 341.38 503.924 345.802C518.868 349.781 531.606 343.022 542.272 342.207C533.092 320.636 541.074 315.843 541.074 315.843C533.883 299.065 473.964 305.057 461.981 333.818Z" fill="#F99F91"/>
<path d="M451.195 379.357C451.195 379.357 458.385 471.632 506.321 469.235C529.677 464.741 511.953 432.086 506.321 411.713" stroke="#251760" stroke-width="4" stroke-linecap="round"/>
<path d="M461.981 333.818C473.964 305.057 533.883 299.065 541.074 315.843C541.074 315.843 533.883 325.43 547.066 354.191C556.713 375.234 549.462 411.713 502.725 411.713C496.535 411.781 490.383 410.742 484.558 408.645" stroke="#251760" stroke-width="4" stroke-linecap="round"/>
<path d="M457.187 379.357C457.187 379.357 454.79 342.207 465.576 339.81C476.361 337.413 466.774 381.754 476.361 381.754C485.948 381.754 482.353 330.223 500.329 333.818C518.304 337.413 591.406 320.636 586.612 269.106C581.819 217.575 514.709 222.369 506.321 265.511C505.122 278.693 448.798 254.725 430.823 284.685C412.847 314.644 452.393 421.3 457.187 379.357Z" fill="#DD5050"/>
<path opacity="0.69" d="M430.823 284.685C412.847 314.644 452.393 421.3 457.187 379.357C457.187 379.357 456.24 364.581 458.242 353.064V353.064C458.242 353.064 458.385 326.628 466.774 314.644C475.163 302.66 444.005 294.272 449.997 287.081C455.282 280.742 491.317 279.052 490.742 269.705C472.406 268.782 442.95 264.528 430.823 284.685Z" fill="#BC3131"/>
<path fill-rule="evenodd" clip-rule="evenodd" d="M457.187 379.357C457.187 379.357 454.79 342.207 465.576 339.81C476.361 337.413 466.774 381.754 476.361 381.754C485.948 381.754 482.353 330.223 500.329 333.818C518.304 337.413 591.406 320.636 586.612 269.106C581.819 217.575 514.709 222.369 506.321 265.511C505.122 278.693 448.798 254.725 430.823 284.685C412.847 314.644 452.393 421.3 457.187 379.357Z" stroke="#251760" stroke-width="4" stroke-linecap="round"/>
<path d="M506.321 265.511C506.321 265.511 500.329 293.073 524.296 296.669" stroke="#251760" stroke-width="4" stroke-linecap="round"/>
<path d="M975.666 646.596H814.304L883.463 491.501C886.164 485.48 892.143 481.602 898.742 481.591H1036.08C1041.73 481.62 1046.99 484.495 1050.06 489.237C1053.14 493.98 1053.62 499.953 1051.34 505.127L993.39 635.139C990.258 642.118 983.316 646.605 975.666 646.596Z" fill="#E4E3E5"/>
<path d="M447.971 1042.58H744.834" stroke="#251760" stroke-width="4" stroke-linecap="round"/>
<path opacity="0.78" d="M1036.08 481.591H929.9C930.439 491.357 937.246 502.263 965.336 501.592C1015.67 500.393 1016.87 514.774 1003.68 559.114C990.502 603.454 958.146 635.81 887.442 629.818C842.826 626.031 823.029 637.009 815.994 646.596H975.666C983.328 646.597 990.272 642.089 993.39 635.091L1051.34 505.127C1053.62 499.953 1053.14 493.98 1050.06 489.237C1046.99 484.495 1041.73 481.62 1036.08 481.591Z" fill="#C9C6CC"/>
<path fill-rule="evenodd" clip-rule="evenodd" d="M975.666 646.596H814.304L883.463 491.501C886.164 485.48 892.143 481.602 898.742 481.591H1036.08C1041.73 481.62 1046.99 484.495 1050.06 489.237C1053.14 493.98 1053.62 499.953 1051.34 505.127L993.39 635.139C990.258 642.118 983.316 646.605 975.666 646.596Z" stroke="#251760" stroke-width="4" stroke-linecap="round"/>
<path d="M964.589 565.828C969.613 553.94 967.108 541.523 958.994 538.094C950.879 534.665 940.228 541.522 935.204 553.41C930.18 565.298 932.685 577.715 940.8 581.144C948.914 584.573 959.565 577.716 964.589 565.828Z" fill="white"/>
<path d="M1180.03 646.596H1209.81Z" fill="white"/>
<path d="M1180.03 646.596H1209.81" stroke="#251760" stroke-width="4" stroke-linecap="round"/>
<path d="M1131.48 646.596H1153.64Z" fill="white"/>
<path d="M1131.48 646.596H1153.64" stroke="#251760" stroke-width="4" stroke-linecap="round"/>
<path d="M1087.16 646.596H687.312Z" fill="white"/>
<path d="M1087.16 646.596H687.312" stroke="#251760" stroke-width="4" stroke-linecap="round"/>
<path d="M974.887 1066.03C969.123 1065.26 962.125 1039.72 953.7 1002.23C934.358 1005.63 916.43 1014.93 904.315 1022.6C917.916 1045.27 930.679 1066.59 941.321 1082.96C941.393 1082.87 954.575 1063.63 974.887 1066.03Z" fill="#F9A395" stroke="#251760" stroke-width="4" stroke-linecap="round"/>
<path d="M966.499 1113.96C988.07 1121.15 1046.79 1055.24 1044.39 1046.85C1042 1038.47 992.863 1068.43 974.887 1066.03C954.515 1063.63 941.333 1082.87 941.333 1082.91C952.789 1100.51 961.705 1112.37 966.499 1113.96Z" fill="#251760" stroke="#251760" stroke-width="4" stroke-linecap="round"/>
<path d="M711.507 1094.02V1094.02C712.562 1083.45 718.074 1071.07 730.454 1056.44C734.576 1051.56 739.274 1045.9 744.355 1039.54C717.535 1038.66 697.486 1025.74 687.408 1017.55C679.834 1038.48 673.363 1057.93 669.756 1074.32V1074.32C669.756 1074.32 686.569 1098.06 711.507 1094.02Z" fill="#F9C7A5" stroke="#251760" stroke-width="4" stroke-linecap="round"/>
<path d="M669.3 1112.77C686.078 1149.92 768.766 1169.09 759.179 1154.71C751.845 1143.71 708.02 1128.49 711.471 1094.02V1094.02C686.533 1098.06 669.72 1074.32 669.72 1074.32V1074.32C666.149 1090.73 665.418 1104.08 669.3 1112.77Z" fill="#251760" stroke="#251760" stroke-width="4" stroke-linecap="round"/>
<path d="M698.061 614.239C669.3 556.717 611.778 595.065 542.272 593.867C526.334 593.591 514.002 588.654 504.439 581.2C482.413 593.783 446.402 619.225 439.211 654.313C449.267 660.192 460.186 664.451 471.568 666.932C561.866 687.305 662.11 603.418 669.3 614.203C676.491 624.989 705.252 629.818 698.061 614.239Z" fill="#F9C7A5"/>
<path d="M692.07 622.628C692.693 622.424 692.609 622.436 691.974 622.628H692.07Z" fill="#F99F91"/>
<path d="M677.689 609.446C676.491 601.057 665.705 592.669 597.398 614.239C529.09 635.81 470.765 605.108 470.765 605.108V605.108C456.228 618.134 443.202 634.732 439.187 654.349C449.243 660.228 460.162 664.487 471.544 666.968C561.842 687.341 662.086 603.454 669.276 614.239C672.692 619.356 680.973 623.131 687.959 624.006L691.95 622.652C684.879 624.953 678.887 617.799 677.689 609.446Z" fill="#F99F91"/>
<path fill-rule="evenodd" clip-rule="evenodd" d="M698.061 614.239C669.3 556.717 611.778 595.065 542.272 593.867C526.334 593.591 514.002 588.654 504.439 581.2C482.413 593.783 446.402 619.225 439.211 654.313C449.267 660.192 460.186 664.451 471.568 666.932C561.866 687.305 662.11 603.418 669.3 614.203C676.491 624.989 705.252 629.818 698.061 614.239Z" stroke="#251760" stroke-width="4" stroke-linecap="round"/>
<path d="M386.483 523.162C386.483 523.162 374.571 615.965 439.211 654.313C446.402 619.189 482.353 593.747 504.463 581.212C472.323 556.178 471.568 502.79 471.568 502.79" stroke="#251760" stroke-width="4" stroke-linecap="round"/>
<path d="M406.855 702.92C406.855 702.92 471.568 744.863 542.272 719.697C612.976 694.531 678.887 793.996 633.349 852.717C556.653 858.709 459.584 815.567 441.608 783.211" fill="#EAEAEA"/>
<path d="M406.855 701.721C406.855 701.721 471.568 743.665 542.272 718.499C612.976 693.333 678.887 792.798 633.349 851.519" stroke="#251760" stroke-width="4" stroke-linecap="round"/>
<path d="M531.127 351.806C531.127 351.806 533.752 363.406 538.162 367.121C542.572 370.836 536.328 373.712 529.917 372.694" stroke="#251760" stroke-width="4" stroke-linecap="round"/>
<path d="M517.082 360.183C519.034 360.183 520.617 358.6 520.617 356.647C520.617 354.695 519.034 353.112 517.082 353.112C515.13 353.112 513.547 354.695 513.547 356.647C513.547 358.6 515.13 360.183 517.082 360.183Z" fill="#251760"/>
<path d="M540.007 355.892C541.96 355.892 543.542 354.31 543.542 352.357C543.542 350.405 541.96 348.822 540.007 348.822C538.055 348.822 536.472 350.405 536.472 352.357C536.472 354.31 538.055 355.892 540.007 355.892Z" fill="#251760"/>
<path d="M529.09 389.987C524.397 388.596 519.402 388.596 514.709 389.987" stroke="#251760" stroke-width="4" stroke-linecap="round"/>
<path d="M1100.39 1042.64L1018.92 891.76Z" fill="#609AEF"/>
<path d="M1100.39 1042.64L1018.92 891.76" stroke="#5A4DAA" stroke-width="4"/>
<path d="M1023.23 899.282C1030.24 895.225 1029.84 881.391 1022.32 868.384C1014.8 855.377 1003.02 848.122 995.997 852.179C988.978 856.237 989.383 870.07 996.902 883.078C1004.42 896.085 1016.21 903.34 1023.23 899.282Z" fill="#89B5F7"/>
<path d="M996.914 883.036C1000.95 889.999 1006.2 895.32 1011.29 898.124C1017.8 893.726 1017.29 880.244 1009.9 867.541C1005.88 860.566 1000.63 855.258 995.523 852.441C989.028 856.84 989.58 870.333 996.914 883.036Z" fill="#AAC8F9"/>
<path fill-rule="evenodd" clip-rule="evenodd" d="M1023.23 899.282C1030.24 895.225 1029.84 881.391 1022.32 868.384C1014.8 855.377 1003.02 848.122 995.997 852.179C988.978 856.237 989.383 870.07 996.902 883.078C1004.42 896.085 1016.21 903.34 1023.23 899.282Z" stroke="#5A4DAA" stroke-width="4"/>
<path d="M1048.6 943.123C1048.6 943.123 1043.15 895.727 1065.53 894.756C1087.92 893.786 1052.47 951.512 1048.6 943.123Z" fill="#89B5F7"/>
<path d="M1059.05 896.662C1044.3 905.674 1048.6 943.099 1048.6 943.099C1048.76 943.506 1049.11 943.807 1049.53 943.902C1055.01 939.456 1063.7 908.37 1059.05 896.662Z" fill="#AAC8F9"/>
<path fill-rule="evenodd" clip-rule="evenodd" d="M1048.6 943.123C1048.6 943.123 1043.15 895.727 1065.53 894.756C1087.92 893.786 1052.47 951.512 1048.6 943.123Z" stroke="#5A4DAA" stroke-width="4"/>
<path d="M1037.41 928.922C1037.41 928.922 1005.05 904.955 994.84 920.917C984.63 936.879 1042 935.298 1037.41 928.922Z" fill="#89B5F7"/>
<path d="M998.987 916.986C1011.81 909.988 1037.41 928.97 1037.41 928.97C1037.64 929.256 1037.71 929.639 1037.6 929.989C1032.04 932.074 1005.59 925.315 998.987 916.986Z" fill="#AAC8F9"/>
<path fill-rule="evenodd" clip-rule="evenodd" d="M1037.41 928.922C1037.41 928.922 1005.05 904.955 994.84 920.917C984.63 936.879 1042 935.298 1037.41 928.922Z" stroke="#5A4DAA" stroke-width="4"/>
<path d="M1018.77 1145.21H1289.09Z" fill="#AAC8F9"/>
<path d="M1018.77 1145.21H1289.09" stroke="#5A4DAA" stroke-width="4"/>
<path d="M1260.71 1146.07H1035.06C1035.06 1146.07 1018.77 1138.7 1022.03 1112.65C1025.29 1086.59 1061.17 1095.32 1075.23 1103.96C1053.51 1080.07 1033.62 1032.83 1071.25 1028.22C1108.88 1023.61 1130.59 1064.88 1130.59 1064.88C1130.59 1064.88 1109.97 983.46 1133.85 976.941C1157.74 970.422 1156.62 1042.07 1152.31 1072.48C1172.93 1031.23 1215.27 1007.34 1222.87 1018.19C1230.47 1029.03 1197.91 1099.68 1197.91 1099.68C1197.91 1099.68 1232.66 1079.04 1251.09 1098.59C1269.52 1118.13 1260.71 1146.07 1260.71 1146.07Z" fill="#609AEF" stroke="#5A4DAA" stroke-width="4"/>
<path d="M1166.99 1145.21C1166.99 1145.21 1265.26 1081.16 1232.64 1040.95C1216.36 1024.66 1192.48 1059.4 1184.87 1076.77C1201.15 1035.52 1232.8 986.313 1201.15 967.126C1171.05 948.851 1155.85 980.608 1152.4 1076.18C1152.4 1076.38 1152.25 1076.54 1152.05 1076.56C1151.85 1076.58 1151.67 1076.45 1151.62 1076.26C1138.2 1024.18 1107.28 978.379 1078.52 998.656C1050.05 1018.68 1104.53 1082.75 1107.69 1086.43C1104.49 1084.11 1058.63 1051.49 1048.16 1072.44C1037.2 1094.19 1066.6 1153.89 1166.99 1145.21Z" fill="#AAC8F9"/>
<path d="M1107.8 1087.67C1104.68 1085.18 1101.18 1082.49 1097.46 1079.75C1082.5 1070.57 1055.78 1057.1 1048.08 1072.48C1046.16 1076.33 1045.51 1081.38 1046.29 1087.04C1049.38 1085.31 1074.35 1072.44 1107.8 1087.67Z" fill="#89B5F7"/>
<path d="M1151.62 1076.26C1138.2 1024.18 1107.28 978.379 1078.52 998.656C1075.47 1000.75 1073.12 1003.73 1071.79 1007.19C1085.05 1016.14 1115.43 1013.85 1150.17 1085.5C1152.64 1085.99 1153.3 1080.52 1152.57 1071.65C1152.5 1073.15 1152.45 1074.65 1152.39 1076.18C1152.37 1076.36 1152.23 1076.51 1152.04 1076.53C1151.86 1076.55 1151.68 1076.44 1151.62 1076.26V1076.26Z" fill="#89B5F7"/>
<path d="M1201.15 967.174C1191.91 961.554 1184.08 960.679 1177.55 964.898C1183.98 980.045 1199.9 1025.55 1184.87 1076.81C1201.15 1035.57 1232.77 986.361 1201.15 967.174Z" fill="#89B5F7"/>
<path d="M1184.87 1076.81C1188.75 1072.02 1194.13 1063.24 1199.91 1052.46C1193.89 1059.91 1188.84 1068.1 1184.87 1076.81Z" fill="#89B5F7"/>
<path d="M1212.96 1040.19C1212.89 1040.93 1212.81 1041.68 1212.77 1042.44C1212.77 1042.44 1203.55 1110.01 1164.16 1145.41L1166.99 1145.18C1166.99 1145.18 1265.26 1081.14 1232.64 1040.92C1226.7 1035.06 1219.76 1035.9 1212.96 1040.19Z" fill="#89B5F7"/>
<path fill-rule="evenodd" clip-rule="evenodd" d="M1166.99 1145.21C1166.99 1145.21 1265.26 1081.16 1232.64 1040.95C1216.36 1024.66 1192.48 1059.4 1184.87 1076.77C1201.15 1035.52 1232.8 986.313 1201.15 967.126C1171.05 948.851 1155.85 980.608 1152.4 1076.18C1152.4 1076.38 1152.25 1076.54 1152.05 1076.56C1151.85 1076.58 1151.67 1076.45 1151.62 1076.26C1138.2 1024.18 1107.28 978.379 1078.52 998.656C1050.05 1018.68 1104.53 1082.75 1107.69 1086.43C1104.49 1084.11 1058.63 1051.49 1048.16 1072.44C1037.2 1094.19 1066.6 1153.89 1166.99 1145.21Z" stroke="#5A4DAA" stroke-width="4"/>
<path d="M1152.56 1072.99L1158.81 857.523Z" fill="#609AEF"/>
<path d="M1152.56 1072.99L1158.81 857.523" stroke="#5A4DAA" stroke-width="4"/>
<path d="M1158.81 868.392C1169.01 868.392 1177.27 853.079 1177.27 834.19C1177.27 815.301 1169.01 799.988 1158.81 799.988C1148.62 799.988 1140.36 815.301 1140.36 834.19C1140.36 853.079 1148.62 868.392 1158.81 868.392Z" fill="#89B5F7"/>
<path d="M1140.36 834.19C1140.36 844.304 1142.76 853.364 1146.51 859.668C1156.37 858.961 1164.24 843.933 1164.24 825.502C1164.24 815.376 1161.85 806.328 1158.1 800.024C1148.25 800.719 1140.36 815.747 1140.36 834.19Z" fill="#AAC8F9"/>
<path fill-rule="evenodd" clip-rule="evenodd" d="M1158.81 868.392C1169.01 868.392 1177.27 853.079 1177.27 834.19C1177.27 815.301 1169.01 799.988 1158.81 799.988C1148.62 799.988 1140.36 815.301 1140.36 834.19C1140.36 853.079 1148.62 868.392 1158.81 868.392Z" stroke="#5A4DAA" stroke-width="4"/>
<path d="M1158.81 932.074C1158.81 932.074 1182.7 877.068 1207.67 890.131C1232.65 903.193 1157.74 943.662 1158.81 932.074Z" fill="#89B5F7"/>
<path d="M1199.4 888.105C1177.68 888.645 1158.81 932.074 1158.81 932.074C1158.73 932.617 1158.92 933.167 1159.33 933.536C1168.09 932.146 1197.1 903.756 1199.4 888.105Z" fill="#AAC8F9"/>
<path fill-rule="evenodd" clip-rule="evenodd" d="M1158.81 932.074C1158.81 932.074 1182.7 877.068 1207.67 890.131C1232.65 903.193 1157.74 943.662 1158.81 932.074Z" stroke="#5A4DAA" stroke-width="4"/>
<path d="M1155.56 909.568C1155.56 909.568 1135.36 863.071 1114.26 874.084C1093.16 885.097 1156.47 919.395 1155.56 909.568Z" fill="#89B5F7"/>
<path d="M1121.26 872.419C1139.62 872.862 1155.56 909.568 1155.56 909.568C1155.62 910.015 1155.46 910.464 1155.12 910.767C1147.72 909.652 1123.2 885.661 1121.26 872.419Z" fill="#AAC8F9"/>
<path fill-rule="evenodd" clip-rule="evenodd" d="M1155.56 909.568C1155.56 909.568 1135.36 863.071 1114.26 874.084C1093.16 885.097 1156.47 919.395 1155.56 909.568Z" stroke="#5A4DAA" stroke-width="4"/>
<path d="M870.604 229.583C907.937 229.583 938.202 199.319 938.202 161.985C938.202 124.652 907.937 94.3874 870.604 94.3874C833.271 94.3874 803.006 124.652 803.006 161.985C803.006 199.319 833.271 229.583 870.604 229.583Z" fill="#AAC8F9"/>
<path d="M919.997 156.899C919.997 124.074 893.389 97.4661 860.565 97.4661C855.007 97.4613 849.477 98.2364 844.135 99.7684C819.958 110.067 803.006 134.047 803.006 161.985C803.003 167.198 803.602 172.394 804.792 177.47C813.161 200.156 834.974 216.331 860.565 216.331C893.389 216.331 919.997 189.723 919.997 156.899Z" fill="#D2E1F9"/>
<path fill-rule="evenodd" clip-rule="evenodd" d="M870.604 229.583C907.937 229.583 938.202 199.319 938.202 161.985C938.202 124.652 907.937 94.3874 870.604 94.3874C833.271 94.3874 803.006 124.652 803.006 161.985C803.006 199.319 833.271 229.583 870.604 229.583Z" stroke="#5A4DAA" stroke-width="4"/>
<path d="M883.928 162.1L915.178 130.842C916.239 129.781 916.239 128.061 915.178 127L905.704 117.518C904.643 116.457 902.923 116.457 901.862 117.518L870.604 148.776L839.346 117.518C838.285 116.457 836.565 116.457 835.504 117.518L826.03 127C824.969 128.061 824.969 129.781 826.03 130.842L857.28 162.1L826.252 193.129C825.191 194.19 825.191 195.909 826.252 196.97L835.734 206.453C836.794 207.513 838.513 207.513 839.573 206.453L870.604 175.425L901.635 206.453C902.695 207.513 904.414 207.513 905.474 206.453L914.956 196.97C916.017 195.909 916.017 194.19 914.956 193.129L883.928 162.1Z" fill="#5A4DAA" stroke="#5A4DAA" stroke-width="4" stroke-linecap="round"/>
<path d="M1312.42 711.753L1187.62 519.529C1182 510.906 1169.85 510.906 1164.23 519.529L1039.39 711.753C1032.99 721.61 1039.72 734.956 1051.08 734.956H1300.72C1312.09 734.956 1318.82 721.61 1312.42 711.753Z" fill="#D2E1F9"/>
<path d="M1312.42 711.758L1187.62 519.529C1182.69 511.973 1172.79 511.02 1166.62 516.674C1172.66 516.76 1190.37 534.477 1240.35 657.809C1260.26 708.93 1279.7 725.322 1039.28 711.935C1033.08 721.796 1039.78 734.956 1051.08 734.956H1300.72C1312.09 734.956 1318.82 721.61 1312.42 711.758Z" fill="#AAC8F9"/>
<path fill-rule="evenodd" clip-rule="evenodd" d="M1312.42 711.753L1187.62 519.529C1182 510.906 1169.85 510.906 1164.23 519.529L1039.39 711.753C1032.99 721.61 1039.72 734.956 1051.08 734.956H1300.72C1312.09 734.956 1318.82 721.61 1312.42 711.753Z" stroke="#5A4DAA" stroke-width="4" stroke-linecap="round"/>
<path d="M1176.39 682.487V682.487C1172.05 682.486 1168.42 679.177 1168.03 674.854L1158.62 572.293C1158.17 567.455 1159.78 562.65 1163.05 559.059C1166.32 555.468 1170.96 553.425 1175.82 553.433V553.433C1180.64 553.436 1185.24 555.453 1188.5 558.996C1191.77 562.539 1193.41 567.286 1193.02 572.089L1184.76 674.759C1184.41 679.122 1180.77 682.485 1176.39 682.487Z" fill="#5A4DAA" stroke="#5A4DAA" stroke-width="4" stroke-linecap="round"/>
<path d="M1175.9 717.258C1182.63 717.258 1188.08 711.8 1188.08 705.068C1188.08 698.336 1182.63 692.879 1175.9 692.879C1169.16 692.879 1163.71 698.336 1163.71 705.068C1163.71 711.8 1169.16 717.258 1175.9 717.258Z" fill="#5A4DAA" stroke="#5A4DAA" stroke-width="4" stroke-linecap="round"/>
</svg>
